<svg width="256" height="256" xmlns="http://www.w3.org/2000/svg" xmlns:xlink="http://www.w3.org/1999/xlink">
  <defs/>
  <g>
    <path stroke="none" fill="#FFFFFF" d="M256 114.1 Q237.6 113.7 219.8 118.3 205.6 122.05 191.6 129.25 179.6 135.45 168 139.25 L165.7 140 Q146.5 146.05 128 146.05 109.5 146.05 90.35 140 82.2 137.45 73.95 133.8 69.2 131.7 64.4 129.25 50.4 122.05 36.2 118.3 18.4 113.7 0 114.1 L0 0 256 0 256 114.1"/>
    <path stroke="none" fill="#DDEFFF" d="M256 114.1 L256 256 0 256 0 114.1 Q18.4 113.7 36.2 118.3 50.4 122.05 64.4 129.25 69.2 131.7 73.95 133.8 82.2 137.45 90.35 140 109.5 146.05 128 146.05 146.5 146.05 165.7 140 L168 139.25 Q179.6 135.45 191.6 129.25 205.6 122.05 219.8 118.3 237.6 113.7 256 114.1"/>
    <path stroke="none" fill="#DDEFFF" d="M62.05 113.7 Q61.7 116.65 59.4 118.5 L59.35 118.55 Q57.1 120.45 54.3 120.25 L52.7 127 46.3 126.35 46.15 123.25 45.95 123.25 Q42.95 122.95 41.05 120.5 L41 120.5 Q39.1 118.2 39.35 115.25 L39.6 112.75 Q39.7 111.65 40.5 110.95 41.35 110.25 42.5 110.35 43.55 110.45 44.2 111.35 44.95 112.15 44.85 113.25 L44.6 115.55 Q44.5 116.4 45.05 117.15 L45.1 117.15 46.1 117.85 Q46.1 113.1 46.5 108.15 L46.65 107 Q46.85 105 48.35 103.75 49.9 102.45 51.85 102.65 53.85 102.85 55.1 104.4 56.45 105.95 56.25 107.95 L56.05 109.1 55.25 114.85 56.1 114.45 56.1 114.4 Q56.75 113.85 56.85 112.95 L57.05 110.65 Q57.2 109.6 58.05 108.95 58.65 108.4 59.35 108.3 L60 108.35 Q61.1 108.45 61.75 109.3 62.45 110.15 62.3 111.2 L62.05 113.7"/>
    <path stroke="none" fill="#2CC987" d="M225.75 121.75 L225.55 123.05 Q222.35 139.5 215.4 151.55 L210.15 150.65 Q207.5 137 209.8 120.45 L210 119.15 Q210.55 116 213.15 114.1 215.8 112.3 218.95 112.8 L219.2 112.85 219.4 112.9 Q222.55 113.4 224.4 116 226.3 118.6 225.75 121.75"/>
    <path stroke="none" fill="#2CC987" d="M54.95 154.2 L55.1 155.35 Q56.15 170.35 52.9 182.35 L48.2 182.8 Q42.75 171.65 40.9 156.8 L40.75 155.6 Q40.5 152.8 42.35 150.55 44.15 148.35 47.05 148.05 L47.25 148.05 47.45 148.05 Q50.25 147.75 52.45 149.6 54.7 151.4 54.95 154.2"/>
    <path stroke="none" fill="#DDEFFF" d="M84.25 134.1 L83.8 135 Q78.25 146.35 70.85 153.8 L67.25 152.15 Q67.95 141.65 72.85 130 L73.25 129.1 Q74.25 126.9 76.5 126.05 L81.05 126.25 81.2 126.3 81.3 126.4 Q83.5 127.35 84.35 129.65 85.25 131.9 84.25 134.1"/>
    <path stroke="none" fill="#DDEFFF" d="M240.85 113.1 L240.75 114.1 Q239.45 126.65 235.15 136.2 L231.15 135.9 Q228.15 125.8 228.75 113.25 L228.85 112.25 Q228.95 109.8 230.85 108.2 232.7 106.65 235.15 106.85 L235.3 106.85 235.45 106.9 Q237.85 107.05 239.4 108.9 241.05 110.7 240.85 113.1"/>
    <path stroke="none" fill="#E7B187" d="M256 169.7 L256 173.7 246.35 171.45 Q238.2 169.35 229.95 166.3 L220.4 162.55 Q206.4 156.55 192.2 153.45 174.4 149.65 156 149.95 137.6 149.65 119.8 153.45 105.6 156.55 91.6 162.55 79.6 167.7 68 170.85 L65.7 171.45 Q46.5 176.5 28 176.5 14.2 176.5 0 173.7 L0 169.7 Q14.2 172.5 28 172.5 46.5 172.5 65.7 167.45 L68 166.85 Q79.6 163.7 91.6 158.55 105.6 152.55 119.8 149.45 137.6 145.65 156 145.95 174.4 145.65 192.2 149.45 206.4 152.55 220.4 158.55 L229.95 162.3 Q238.2 165.35 246.35 167.45 L256 169.7"/>
    <path stroke="none" fill="#FFE0C2" d="M256 169.7 L246.35 167.45 Q238.2 165.35 229.95 162.3 L220.4 158.55 Q206.4 152.55 192.2 149.45 174.4 145.65 156 145.95 137.6 145.65 119.8 149.45 105.6 152.55 91.6 158.55 79.6 163.7 68 166.85 L65.7 167.45 Q46.5 172.5 28 172.5 14.2 172.5 0 169.7 L0 162.7 Q14.2 166.05 28 166.05 46.5 166.05 65.7 160 L68 159.25 Q79.6 155.45 91.6 149.25 105.6 142.05 119.8 138.3 137.6 133.7 156 134.1 174.4 133.7 192.2 138.3 206.4 142.05 220.4 149.25 L229.95 153.8 Q238.2 157.45 246.35 160 251.2 161.55 256 162.7 L256 169.7"/>
    <path stroke="none" fill="#F3C7A5" d="M256 173.7 L256 256 0 256 0 173.7 Q14.2 176.5 28 176.5 46.5 176.5 65.7 171.45 L68 170.85 Q79.6 167.7 91.6 162.55 105.6 156.55 119.8 153.45 137.6 149.65 156 149.95 174.4 149.65 192.2 153.45 206.4 156.55 220.4 162.55 L229.95 166.3 Q238.2 169.35 246.35 171.45 L256 173.7"/>
    <path stroke="none" fill="#2CC987" d="M180 106.8 Q179.85 113.1 175.4 117.6 L175.3 117.65 Q170.9 122.15 164.8 122.35 L163.5 132.95 Q162.75 137.1 160.75 138.9 158.7 140.7 156 140.65 153.5 140.65 151.35 139.1 149.4 137.55 148.65 133.55 L148.2 130.45 147.85 130.45 Q141.35 130.45 136.75 125.75 L136.65 125.7 Q132.2 121.2 132 114.9 L132 109.55 Q132.05 107.2 133.65 105.6 135.3 103.9 137.7 103.9 140 103.9 141.6 105.6 143.25 107.2 143.25 109.55 L143.25 114.45 Q143.3 116.35 144.6 117.65 L144.65 117.7 Q145.65 118.7 146.95 119 146 108.9 145.8 98.25 L145.75 95.8 Q145.75 91.55 148.8 88.55 151.8 85.55 156 85.55 160.25 85.55 163.25 88.55 166.3 91.55 166.3 95.8 L166.25 98.25 165.75 110.7 167.4 109.6 167.4 109.55 Q168.7 108.25 168.75 106.35 L168.75 101.45 Q168.75 99.1 170.4 97.5 171.6 96.25 173.15 95.95 L174.35 95.8 Q176.7 95.8 178.35 97.5 180 99.1 180 101.45 L180 106.8"/>
    <path stroke="none" fill="#FFE0C2" d="M234 155.05 Q233.3 156.25 231.9 156.65 230.55 157 229.3 156.35 228.55 155.9 228.15 155.25 L227.65 155.8 Q226.7 156.75 225.25 156.85 223.85 156.8 222.85 155.85 221.9 154.75 221.9 153.4 L221.9 153.3 Q221.9 151.05 222.9 149.4 223.85 147.75 225.3 147.75 226.7 147.7 227.65 149.35 L228.45 151.15 Q229.5 149.55 230.95 148.7 232.6 147.75 233.85 148.5 235.1 149.15 235.1 151.05 235.2 153.05 234 155.05 M175.85 135.8 Q175.75 137.25 174.6 138.15 173.55 139.05 172.1 138.9 170.65 138.75 169.8 137.65 168.9 136.55 169.1 135.15 L169.1 135.1 Q169.3 132.85 170.45 131.3 171.6 129.75 173 129.9 174.45 130.05 175.2 131.75 176.1 133.5 175.9 135.75 L175.85 135.8 M64.7 163.65 Q64.6 165.1 63.45 166 62.4 166.9 60.95 166.75 59.5 166.6 58.65 165.5 57.75 164.4 57.95 163 L57.95 162.95 Q58.15 160.7 59.3 159.15 60.45 157.6 61.85 157.75 63.3 157.9 64.05 159.6 64.95 161.35 64.75 163.6 L64.7 163.65 M38.2 164.15 Q38.55 165.5 37.8 166.75 37.1 167.95 35.75 168.35 34.35 168.7 33.15 168 31.95 167.25 31.6 165.9 L31.6 165.85 Q31 163.65 31.5 161.8 32.05 159.95 33.45 159.6 34.8 159.2 36.15 160.55 37.6 161.9 38.2 164.1 L38.2 164.15"/>
  </g>
</svg>