<svg width="256" height="256" xmlns="http://www.w3.org/2000/svg" xmlns:xlink="http://www.w3.org/1999/xlink">
  <defs/>
  <g>
    <path stroke="none" fill="#FFFFFF" d="M256 114.1 Q237.6 113.7 219.8 118.3 205.6 122.05 191.6 129.25 179.6 135.45 168 139.25 L165.7 140 Q146.5 146.05 128 146.05 109.5 146.05 90.35 140 82.2 137.45 73.95 133.8 69.2 131.7 64.4 129.25 50.4 122.05 36.2 118.3 18.4 113.7 0 114.1 L0 0 256 0 256 114.1"/>
    <path stroke="none" fill="#DDEFFF" d="M256 114.1 L256 256 0 256 0 114.1 Q18.4 113.7 36.2 118.3 50.4 122.05 64.4 129.25 69.2 131.7 73.95 133.8 82.2 137.45 90.35 140 109.5 146.05 128 146.05 146.5 146.05 165.7 140 L168 139.25 Q179.6 135.45 191.6 129.25 205.6 122.05 219.8 118.3 237.6 113.7 256 114.1"/>
    <path stroke="none" fill="#C66A3E" d="M256 169.7 L256 173.7 246.35 171.45 Q238.2 169.35 229.95 166.3 L220.4 162.55 Q206.4 156.55 192.2 153.45 174.4 149.65 156 149.95 137.6 149.65 119.8 153.45 105.6 156.55 91.6 162.55 79.6 167.7 68 170.85 L65.7 171.45 Q46.5 176.5 28 176.5 14.2 176.5 0 173.7 L0 169.7 Q14.2 172.5 28 172.5 46.5 172.5 65.7 167.45 L68 166.85 Q79.6 163.7 91.6 158.55 105.6 152.55 119.8 149.45 137.6 145.65 156 145.95 174.4 145.65 192.2 149.45 206.4 152.55 220.4 158.55 L229.95 162.3 Q238.2 165.35 246.35 167.45 L256 169.7"/>
    <path stroke="none" fill="#EE9366" d="M256 169.7 L246.35 167.45 Q238.2 165.35 229.95 162.3 L220.4 158.55 Q206.4 152.55 192.2 149.45 174.4 145.65 156 145.95 137.6 145.65 119.8 149.45 105.6 152.55 91.6 158.55 79.6 163.7 68 166.85 L65.7 167.45 Q46.5 172.5 28 172.5 14.2 172.5 0 169.7 L0 162.7 Q14.2 166.05 28 166.05 46.5 166.05 65.7 160 L68 159.25 Q79.6 155.45 91.6 149.25 105.6 142.05 119.8 138.3 137.6 133.7 156 134.1 174.4 133.7 192.2 138.3 206.4 142.05 220.4 149.25 L229.95 153.8 Q238.2 157.45 246.35 160 251.2 161.55 256 162.7 L256 169.7"/>
    <path stroke="none" fill="#DE7E4F" d="M256 173.7 L256 256 0 256 0 173.7 Q14.2 176.5 28 176.5 46.5 176.5 65.7 171.45 L68 170.85 Q79.6 167.7 91.6 162.55 105.6 156.55 119.8 153.45 137.6 149.65 156 149.95 174.4 149.65 192.2 153.45 206.4 156.55 220.4 162.55 L229.95 166.3 Q238.2 169.35 246.35 171.45 L256 173.7"/>
    <path stroke="none" fill="#DE7E4F" d="M160.65 131 Q158 130.75 155.95 129.9 153.95 129.1 153.35 128.1 153.05 127.6 153.05 127.1 153.05 122.15 155.95 118.6 158.85 115.1 163 115.1 167.15 115.1 170.05 118.6 172.95 122.15 172.95 127.1 L172.65 128.1 Q172.05 129.1 170.05 129.9 168 130.75 165.4 131 163.5 131.35 160.65 131"/>
    <path stroke="none" fill="#FAD7B7" d="M160.65 131 Q163.5 131.35 165.4 131 L166.6 137.05 Q166.85 139.35 165.25 140 163.25 140.7 161.05 140 158.9 139.4 159.3 137.6 L160.65 131"/>
    <path stroke="none" fill="#DE7E4F" d="M64.9 157.45 Q62.75 157.8 60.85 157.5 L59.4 157.2 Q57.6 156.7 57.3 155.55 59.45 151.65 59.9 147.15 60.35 142.6 63.9 141.4 67.55 140.65 70.2 144.4 72.85 148.1 76.65 150.4 76.95 151.55 75.7 152.85 L74.55 153.85 Q73.05 155.05 71 155.8 67.95 157.35 64.9 157.45"/>
    <path stroke="none" fill="#FAD7B7" d="M64.9 157.45 Q67.95 157.35 71 155.8 L72.25 158.35 Q72.9 160.25 71.45 161.25 69.65 162.65 67 162.2 65.3 162.05 65.05 159.55 L64.9 157.45"/>
    <path stroke="none" fill="#DDEFFF" d="M213.25 117.05 Q212.2 116.75 212 116.1 213.3 113.85 213.55 111.2 213.8 108.55 215.85 107.85 218 107.4 219.55 109.6 221.1 111.75 223.3 113.1 223.45 113.75 222.75 114.55 L222.05 115.1 Q221.2 115.8 220 116.25 L221.1 118.5 216.6 119.7 216.45 117.2 214.1 117.25 213.25 117.05"/>
    <path stroke="none" fill="#DDEFFF" d="M36.2 115.9 Q35.4 115.15 35.6 114.5 37.8 113.2 39.4 111 40.9 108.85 43.05 109.25 45.15 109.95 45.4 112.6 45.65 115.3 46.9 117.55 46.65 118.15 45.65 118.5 L44.8 118.65 42.4 118.6 42.3 121.1 37.8 119.9 38.9 117.65 Q37.7 117.2 36.8 116.55 L36.2 115.9"/>
    <path stroke="none" fill="#DE7E4F" d="M132.95 98.1 L121.6 97.5 121.5 97.5 116 96.5 114.8 95.55 Q114.3 94.9 114.2 94.1 L114.2 93.8 114.2 93.65 Q113.9 87.05 120.25 81.75 L120.3 81.7 Q126.8 76.3 136.6 75.55 146.4 74.75 153.75 79.05 160.8 83.35 161.6 89.95 L161.6 90.05 161.6 90.35 Q161.7 91.15 161.3 91.9 L160.15 93.05 155 94.85 Q150.1 96.4 143.75 97.25 L132.95 98.1"/>
    <path stroke="none" fill="#FAD7B7" d="M132.95 98.1 L143.75 97.25 145.35 137.7 Q145.4 138.8 144.65 139.65 143.9 140.5 142.8 140.6 L140.7 140.75 Q139.6 140.85 138.7 140.1 137.8 139.4 137.65 138.3 L132.95 98.1"/>
    <path stroke="none" fill="#DDEFFF" d="M213.4 100.45 L213.4 100.25 213.4 100.15 Q213.2 95.9 217.3 92.5 L217.3 92.45 Q221.5 88.95 227.85 88.5 234.15 87.95 238.9 90.75 243.45 93.5 244 97.8 L244 97.85 244 98.05 243.8 99.05 243.05 99.8 239.7 100.95 Q236.55 101.95 232.45 102.5 L233.5 128.6 Q233.55 129.3 233.05 129.85 232.55 130.4 231.85 130.5 L230.5 130.55 Q229.8 130.65 229.2 130.15 228.6 129.7 228.5 129 L225.5 103.05 218.15 102.65 218.1 102.65 214.55 102 Q214.1 101.8 213.75 101.4 L213.4 100.45"/>
    <path stroke="none" fill="#DDEFFF" d="M53.9 110.35 L53.95 110.2 54 110.15 Q54.65 107.2 58.15 105.6 L58.15 105.55 Q61.65 103.95 66.1 104.85 70.5 105.7 73.2 108.5 75.85 111.25 75.35 114.3 L75.3 114.45 75 115.15 74.35 115.5 71.8 115.65 66.6 115.35 62.35 133.4 61.8 134.15 60.9 134.35 59.9 134.15 Q59.45 134.1 59.1 133.6 58.8 133.2 58.85 132.75 L61.75 114.35 Q58.85 113.7 56.75 112.75 L56.7 112.7 54.45 111.6 54 111.05 53.9 110.35"/>
    <path stroke="none" fill="#EE9366" d="M234 155.05 Q233.3 156.25 231.9 156.65 230.55 157 229.3 156.35 228.55 155.9 228.15 155.25 L227.65 155.8 Q226.7 156.75 225.25 156.85 223.85 156.8 222.85 155.85 221.9 154.75 221.9 153.4 L221.9 153.3 Q221.9 151.05 222.9 149.4 223.85 147.75 225.3 147.75 226.7 147.7 227.65 149.35 L228.45 151.15 Q229.5 149.55 230.95 148.7 232.6 147.75 233.85 148.5 235.1 149.15 235.1 151.05 235.2 153.05 234 155.05 M181.6 137.3 Q181.5 138.75 180.35 139.65 179.3 140.55 177.85 140.4 176.4 140.25 175.55 139.15 174.65 138.05 174.85 136.65 L174.85 136.6 Q175.05 134.35 176.2 132.8 177.35 131.25 178.75 131.4 180.2 131.55 180.95 133.25 181.85 135 181.65 137.25 L181.6 137.3 M44.7 166.15 Q44.6 167.6 43.45 168.5 42.4 169.4 40.95 169.25 39.5 169.1 38.65 168 38.1 167.3 37.95 166.5 L37.8 166.75 Q37.1 167.95 35.75 168.35 34.35 168.7 33.15 168 31.95 167.25 31.6 165.9 L31.6 165.85 Q31 163.65 31.5 161.8 32.05 159.95 33.45 159.6 34.8 159.2 36.15 160.55 37.6 161.9 38.2 164.05 38.55 162.7 39.3 161.65 40.45 160.1 41.85 160.25 43.3 160.4 44.05 162.1 44.95 163.85 44.75 166.1 L44.7 166.15"/>
  </g>
</svg>