<svg width="256" height="256" xmlns="http://www.w3.org/2000/svg" xmlns:xlink="http://www.w3.org/1999/xlink">
  <defs/>
  <g>
    <path stroke="none" fill="#C3E3FF" d="M0 0 L256 0 256 256 0 256 0 0"/>
    <path stroke="none" fill="#DDEFFF" d="M0 119.4 Q10.55 110 25 110 40.7 110 51.85 121.15 59.5 128.8 61.9 138.6 73.25 140.55 81.85 149.15 93 160.3 93 176 L93 176.25 Q97.8 176.9 101.95 179.15 L104.4 176.5 Q115.8 165.1 131.9 165.1 138 165.1 143.4 166.75 146.05 160.05 151.55 154.55 162.1 144 177 144 191.85 144 202.45 154.55 210.55 162.65 212.4 173.25 216.3 172.05 220.6 172 L220.65 170 220.6 168 Q220.6 156.4 228.8 148.2 235.2 141.8 243.7 140.4 245.8 129.5 254.15 121.15 L256 119.4 256 238 0 238 0 119.4"/>
    <path stroke="none" fill="#FFFFFF" d="M256 256 L0 256 0 186 Q14.9 186 25.45 196.55 30.95 202.05 33.6 208.75 39 207.1 45.1 207.1 61.2 207.1 72.6 218.5 L75.05 221.15 Q79.2 218.9 84 218.25 L84 218 Q84 202.3 95.15 191.15 103.75 182.55 115.1 180.6 117.5 170.8 125.15 163.15 136.3 152 152 152 167.75 152 178.85 163.15 187.2 171.5 189.3 182.4 197.8 183.8 204.2 190.2 212.4 198.4 212.4 210 L212.15 214 Q216.6 214 220.6 215.25 222.45 204.65 230.55 196.55 241.15 186 256 186 L256 256"/>
  </g>
</svg>