<svg width="256" height="256" xmlns="http://www.w3.org/2000/svg" xmlns:xlink="http://www.w3.org/1999/xlink">
  <defs/>
  <g>
    <path stroke="none" fill="#FFFFFF" d="M256 114.1 Q237.6 113.7 219.8 118.3 205.6 122.05 191.6 129.25 179.6 135.45 168 139.25 L165.7 140 Q146.5 146.05 128 146.05 109.5 146.05 90.35 140 82.2 137.45 73.95 133.8 69.2 131.7 64.4 129.25 50.4 122.05 36.2 118.3 18.4 113.7 0 114.1 L0 0 256 0 256 114.1"/>
    <path stroke="none" fill="#DDEFFF" d="M256 114.1 L256 256 0 256 0 114.1 Q18.4 113.7 36.2 118.3 50.4 122.05 64.4 129.25 69.2 131.7 73.95 133.8 82.2 137.45 90.35 140 109.5 146.05 128 146.05 146.5 146.05 165.7 140 L168 139.25 Q179.6 135.45 191.6 129.25 205.6 122.05 219.8 118.3 237.6 113.7 256 114.1"/>
    <path stroke="none" fill="#20B860" d="M256 169.7 L256 173.7 246.35 171.45 Q238.2 169.35 229.95 166.3 L220.4 162.55 Q206.4 156.55 192.2 153.45 174.4 149.65 156 149.95 137.6 149.65 119.8 153.45 105.6 156.55 91.6 162.55 79.6 167.7 68 170.85 L65.7 171.45 Q46.5 176.5 28 176.5 14.2 176.5 0 173.7 L0 169.7 Q14.2 172.5 28 172.5 46.5 172.5 65.7 167.45 L68 166.85 Q79.6 163.7 91.6 158.55 105.6 152.55 119.8 149.45 137.6 145.65 156 145.95 174.4 145.65 192.2 149.45 206.4 152.55 220.4 158.55 L229.95 162.3 Q238.2 165.35 246.35 167.45 L256 169.7"/>
    <path stroke="none" fill="#46E087" d="M256 169.7 L246.35 167.45 Q238.2 165.35 229.95 162.3 L220.4 158.55 Q206.4 152.55 192.2 149.45 174.4 145.65 156 145.95 137.6 145.65 119.8 149.45 105.6 152.55 91.6 158.55 79.6 163.7 68 166.85 L65.7 167.45 Q46.5 172.5 28 172.5 14.2 172.5 0 169.7 L0 162.7 Q14.2 166.05 28 166.05 46.5 166.05 65.7 160 L68 159.25 Q79.6 155.45 91.6 149.25 105.6 142.05 119.8 138.3 137.6 133.7 156 134.1 174.4 133.7 192.2 138.3 206.4 142.05 220.4 149.25 L229.95 153.8 Q238.2 157.45 246.35 160 251.2 161.55 256 162.7 L256 169.7"/>
    <path stroke="none" fill="#2ECC71" d="M256 173.7 L256 256 0 256 0 173.7 Q14.2 176.5 28 176.5 46.5 176.5 65.7 171.45 L68 170.85 Q79.6 167.7 91.6 162.55 105.6 156.55 119.8 153.45 137.6 149.65 156 149.95 174.4 149.65 192.2 153.45 206.4 156.55 220.4 162.55 L229.95 166.3 Q238.2 169.35 246.35 171.45 L256 173.7"/>
    <path stroke="none" fill="#46E087" d="M40.7 164.15 Q41.05 165.5 40.3 166.75 39.6 167.95 38.25 168.35 36.85 168.7 35.65 168 34.45 167.25 34.1 165.9 L34.1 165.85 Q33.5 163.65 34 161.8 34.55 159.95 35.95 159.6 37.3 159.2 38.65 160.55 40.1 161.9 40.7 164.1 L40.7 164.15"/>
    <path stroke="none" fill="#46E087" d="M50.7 165.4 Q50.6 166.85 49.45 167.75 48.4 168.65 46.95 168.5 45.5 168.35 44.65 167.25 43.75 166.15 43.95 164.75 L43.95 164.7 Q44.15 162.45 45.3 160.9 46.45 159.35 47.85 159.5 49.3 159.65 50.05 161.35 50.95 163.1 50.75 165.35 L50.7 165.4"/>
    <path stroke="none" fill="#46E087" d="M156.35 135.8 Q156.25 137.25 155.1 138.15 154.05 139.05 152.6 138.9 151.15 138.75 150.3 137.65 149.4 136.55 149.6 135.15 L149.6 135.1 Q149.8 132.85 150.95 131.3 152.1 129.75 153.5 129.9 154.95 130.05 155.7 131.75 156.6 133.5 156.4 135.75 L156.35 135.8"/>
    <path stroke="none" fill="#46E087" d="M220.75 150.3 Q220.05 151.5 218.65 151.9 217.3 152.25 216.05 151.6 214.8 150.85 214.45 149.5 214.15 148.1 214.85 146.9 L214.9 146.85 Q216.05 144.9 217.7 143.95 219.35 143 220.6 143.75 221.85 144.4 221.85 146.3 221.95 148.3 220.75 150.3"/>
    <path stroke="none" fill="#46E087" d="M215.45 148.65 Q215.45 150 214.4 151.05 213.45 152 212 152.1 210.6 152.05 209.6 151.1 208.65 150 208.65 148.65 L208.65 148.55 Q208.65 146.3 209.65 144.65 210.6 143 212.05 143 213.45 142.95 214.4 144.6 215.5 146.3 215.45 148.65"/>
  </g>
</svg>