<svg width="256" height="256" xmlns="http://www.w3.org/2000/svg" xmlns:xlink="http://www.w3.org/1999/xlink">
  <defs/>
  <g>
    <path stroke="none" fill="#FFFFFF" d="M256 114.1 Q237.6 113.7 219.8 118.3 205.6 122.05 191.6 129.25 179.6 135.45 168 139.25 L165.7 140 Q146.5 146.05 128 146.05 109.5 146.05 90.35 140 82.2 137.45 73.95 133.8 69.2 131.7 64.4 129.25 50.4 122.05 36.2 118.3 18.4 113.7 0 114.1 L0 0 256 0 256 114.1"/>
    <path stroke="none" fill="#DDEFFF" d="M256 114.1 L256 256 0 256 0 114.1 Q18.4 113.7 36.2 118.3 50.4 122.05 64.4 129.25 69.2 131.7 73.95 133.8 82.2 137.45 90.35 140 109.5 146.05 128 146.05 146.5 146.05 165.7 140 L168 139.25 Q179.6 135.45 191.6 129.25 205.6 122.05 219.8 118.3 237.6 113.7 256 114.1"/>
    <path stroke="none" fill="#C3E3FF" d="M28 166.05 Q46.5 166.05 65.7 160 L68 159.25 Q79.6 155.45 91.6 149.25 105.6 142.05 119.8 138.3 137.6 133.7 156 134.1 174.4 133.7 192.2 138.3 206.4 142.05 220.4 149.25 L229.95 153.8 Q238.2 157.45 246.35 160 251.2 161.55 256 162.7 L256 256 0 256 0 162.7 Q14.2 166.05 28 166.05"/>
    <path stroke="none" fill="#C3E3FF" d="M182.7 127.5 L173.75 129.45 169.65 138.4 Q169.15 139.55 168 140.2 166.95 140.85 165.65 140.7 L163.45 140.45 Q162.15 140.35 161.2 139.5 160.2 138.6 159.9 137.35 L157.85 127.8 149.5 124.05 Q148.15 123.4 147.5 122 146.85 120.65 147.3 119.2 154.4 96.05 167.5 80.95 168.35 79.95 169.65 79.7 L172.15 79.95 Q173.35 80.5 174 81.65 183.65 99.1 185.8 123.25 185.95 124.75 185.05 125.95 184.15 127.15 182.7 127.5"/>
    <path stroke="none" fill="#C3E3FF" d="M140 130.65 Q137.6 131.85 135.15 133 L134.05 138.7 Q133.9 139.45 133.35 139.9 132.75 140.45 132 140.55 L130.7 140.7 Q129.95 140.8 129.35 140.4 128.65 140.1 128.3 139.4 L125.8 134.2 120.5 133.15 Q119.65 132.95 119.1 132.25 118.55 131.55 118.6 130.7 119.6 116.45 125.05 106.05 125.4 105.35 126.1 105.05 L127.55 104.85 Q128.35 104.95 128.9 105.55 136.75 114.25 141.2 127.85 141.5 128.65 141.15 129.45 140.8 130.25 140 130.65"/>
    <path stroke="none" fill="#C3E3FF" d="M248.5 154.05 L243.15 155.05 240.65 160.25 239.65 161.2 238.2 161.45 236.9 161.25 Q236.15 161.15 235.65 160.65 235.05 160.2 234.9 159.45 L233.85 153.8 228.95 151.4 Q228.25 151 227.9 150.15 227.55 149.3 227.8 148.5 232.4 135 240.35 126.4 240.9 125.8 241.65 125.65 L243.15 125.85 Q243.75 126.2 244.15 126.9 249.55 137.3 250.4 151.55 250.45 152.4 249.95 153.15 L248.5 154.05"/>
    <path stroke="none" fill="#DDEFFF" d="M223.6 115.3 Q222.15 116 220.65 116.65 L219.95 120.05 219.5 120.75 218.7 121.15 217.9 121.25 217.1 121.05 216.45 120.45 215.05 117.3 211.8 116.65 211 116.05 Q210.7 115.65 210.7 115.15 211.4 106.55 214.8 100.35 L215.4 99.7 216.3 99.6 Q216.75 99.7 217.1 100.05 221.8 105.35 224.35 113.6 L224.3 114.55 223.6 115.3"/>
    <path stroke="none" fill="#DDEFFF" d="M95.45 139.55 L93.5 140.2 92.8 142.25 92.5 142.7 91.95 142.85 91.45 142.85 90.95 142.7 90.6 142.25 89.9 140.2 87.95 139.55 87.45 139.15 87.35 138.5 Q88.4 133.2 90.95 129.55 91.1 129.3 91.4 129.2 L91.95 129.2 92.4 129.55 Q94.95 133.2 96 138.5 L95.9 139.15 95.45 139.55"/>
    <path stroke="none" fill="#DDEFFF" d="M43.4 122.75 L41.45 123.4 40.75 125.45 40.45 125.9 39.9 126.05 39.4 126.05 38.9 125.9 38.55 125.45 37.85 123.4 35.9 122.75 35.4 122.35 35.3 121.7 Q36.35 116.4 38.9 112.75 L39.35 112.4 39.9 112.4 40.35 112.75 Q42.9 116.4 43.95 121.7 L43.85 122.35 43.4 122.75"/>
    <path stroke="none" fill="#DDEFFF" d="M30.75 114.25 L27.55 114.8 26 117.9 25.4 118.55 24.55 118.7 23.75 118.6 Q23.3 118.5 23 118.25 L22.55 117.45 21.9 114.05 18.95 112.65 18.3 111.9 Q18.1 111.35 18.25 110.85 21.1 102.75 25.85 97.6 26.15 97.2 26.6 97.15 L27.5 97.25 28.15 97.9 Q31.4 104.15 31.85 112.7 L31.55 113.7 30.75 114.25"/>
  </g>
</svg>