<svg width="256" height="256" xmlns="http://www.w3.org/2000/svg" xmlns:xlink="http://www.w3.org/1999/xlink">
  <defs/>
  <g>
    <path stroke="none" fill="#FFFFFF" d="M256 114.1 Q237.6 113.7 219.8 118.3 205.6 122.05 191.6 129.25 179.6 135.45 168 139.25 L165.7 140 Q146.5 146.05 128 146.05 109.5 146.05 90.35 140 82.2 137.45 73.95 133.8 69.2 131.7 64.4 129.25 50.4 122.05 36.2 118.3 18.4 113.7 0 114.1 L0 0 256 0 256 114.1"/>
    <path stroke="none" fill="#DDEFFF" d="M256 114.1 L256 256 0 256 0 114.1 Q18.4 113.7 36.2 118.3 50.4 122.05 64.4 129.25 69.2 131.7 73.95 133.8 82.2 137.45 90.35 140 109.5 146.05 128 146.05 146.5 146.05 165.7 140 L168 139.25 Q179.6 135.45 191.6 129.25 205.6 122.05 219.8 118.3 237.6 113.7 256 114.1"/>
    <path stroke="none" fill="#C3E3FF" d="M28 166.05 Q46.5 166.05 65.7 160 L68 159.25 Q79.6 155.45 91.6 149.25 105.6 142.05 119.8 138.3 137.6 133.7 156 134.1 174.4 133.7 192.2 138.3 206.4 142.05 220.4 149.25 L229.95 153.8 Q238.2 157.45 246.35 160 251.2 161.55 256 162.7 L256 256 0 256 0 162.7 Q14.2 166.05 28 166.05"/>
    <path stroke="none" fill="#C3E3FF" d="M180 106.8 Q179.85 113.1 175.4 117.6 L175.3 117.65 Q170.9 122.15 164.8 122.35 164.05 129.8 162.9 136.95 L149.15 136.95 148.2 130.45 147.85 130.45 Q141.35 130.45 136.75 125.75 L136.65 125.7 Q132.2 121.2 132 114.9 L132 109.55 Q132.05 107.2 133.65 105.6 135.3 103.9 137.7 103.9 140 103.9 141.6 105.6 143.25 107.2 143.25 109.55 L143.25 114.45 Q143.3 116.35 144.6 117.65 L144.65 117.7 Q145.65 118.7 146.95 119 146 108.9 145.8 98.25 L145.75 95.8 Q145.75 91.55 148.8 88.55 151.8 85.55 156 85.55 160.25 85.55 163.25 88.55 166.3 91.55 166.3 95.8 L166.25 98.25 165.75 110.7 167.4 109.6 167.4 109.55 Q168.7 108.25 168.75 106.35 L168.75 101.45 Q168.75 99.1 170.4 97.5 171.6 96.25 173.15 95.95 L174.35 95.8 Q176.7 95.8 178.35 97.5 180 99.1 180 101.45 L180 106.8"/>
    <path stroke="none" fill="#DDEFFF" d="M62.05 113.7 Q61.7 116.65 59.4 118.5 L59.35 118.55 Q57.1 120.45 54.3 120.25 L52.7 127 46.3 126.35 46.15 123.25 45.95 123.25 Q42.95 122.95 41.05 120.5 L41 120.5 Q39.1 118.2 39.35 115.25 L39.6 112.75 Q39.7 111.65 40.5 110.95 41.35 110.25 42.5 110.35 43.55 110.45 44.2 111.35 44.95 112.15 44.85 113.25 L44.6 115.55 Q44.5 116.4 45.05 117.15 L45.1 117.15 46.1 117.85 Q46.1 113.1 46.5 108.15 L46.65 107 Q46.85 105 48.35 103.75 49.9 102.45 51.85 102.65 53.85 102.85 55.1 104.4 56.45 105.95 56.25 107.95 L56.05 109.1 55.25 114.85 56.1 114.45 56.1 114.4 Q56.75 113.85 56.85 112.95 L57.05 110.65 Q57.2 109.6 58.05 108.95 58.65 108.4 59.35 108.3 L60 108.35 Q61.1 108.45 61.75 109.3 62.45 110.15 62.3 111.2 L62.05 113.7"/>
    <path stroke="none" fill="#C3E3FF" d="M225.75 121.75 L225.55 123.05 Q222.35 139.5 215.4 151.55 L210.15 150.65 Q207.5 137 209.8 120.45 L210 119.15 Q210.55 116 213.15 114.1 215.8 112.3 218.95 112.8 L219.2 112.85 219.4 112.9 Q222.55 113.4 224.4 116 226.3 118.6 225.75 121.75"/>
    <path stroke="none" fill="#C3E3FF" d="M54.95 154.2 L55.1 155.35 Q56.15 170.35 52.9 182.35 L48.2 182.8 Q42.75 171.65 40.9 156.8 L40.75 155.6 Q40.5 152.8 42.35 150.55 44.15 148.35 47.05 148.05 L47.25 148.05 47.45 148.05 Q50.25 147.75 52.45 149.6 54.7 151.4 54.95 154.2"/>
    <path stroke="none" fill="#DDEFFF" d="M84.25 134.1 L83.8 135 Q78.25 146.35 70.85 153.8 L67.25 152.15 Q67.95 141.65 72.85 130 L73.25 129.1 Q74.25 126.9 76.5 126.05 L81.05 126.25 81.2 126.3 81.3 126.4 Q83.5 127.35 84.35 129.65 85.25 131.9 84.25 134.1"/>
    <path stroke="none" fill="#DDEFFF" d="M240.85 113.1 L240.75 114.1 Q239.45 126.65 235.15 136.2 L231.15 135.9 Q228.15 125.8 228.75 113.25 L228.85 112.25 Q228.95 109.8 230.85 108.2 232.7 106.65 235.15 106.85 L235.3 106.85 235.45 106.9 Q237.85 107.05 239.4 108.9 241.05 110.7 240.85 113.1"/>
  </g>
</svg>