<svg width="256" height="256" xmlns="http://www.w3.org/2000/svg" xmlns:xlink="http://www.w3.org/1999/xlink">
  <defs/>
  <g>
    <path stroke="none" fill="#FFFFFF" d="M256 114.1 Q237.6 113.7 219.8 118.3 205.6 122.05 191.6 129.25 179.6 135.45 168 139.25 L165.7 140 Q146.5 146.05 128 146.05 109.5 146.05 90.35 140 82.2 137.45 73.95 133.8 69.2 131.7 64.4 129.25 50.4 122.05 36.2 118.3 18.4 113.7 0 114.1 L0 0 256 0 256 114.1"/>
    <path stroke="none" fill="#DDEFFF" d="M256 114.1 L256 256 0 256 0 114.1 Q18.4 113.7 36.2 118.3 50.4 122.05 64.4 129.25 69.2 131.7 73.95 133.8 82.2 137.45 90.35 140 109.5 146.05 128 146.05 146.5 146.05 165.7 140 L168 139.25 Q179.6 135.45 191.6 129.25 205.6 122.05 219.8 118.3 237.6 113.7 256 114.1"/>
    <path stroke="none" fill="#C3E3FF" d="M28 166.05 Q46.5 166.05 65.7 160 L68 159.25 Q79.6 155.45 91.6 149.25 105.6 142.05 119.8 138.3 137.6 133.7 156 134.1 174.4 133.7 192.2 138.3 206.4 142.05 220.4 149.25 L229.95 153.8 Q238.2 157.45 246.35 160 251.2 161.55 256 162.7 L256 256 0 256 0 162.7 Q14.2 166.05 28 166.05"/>
    <path stroke="none" fill="#C3E3FF" d="M154.35 127.1 Q154.05 126.6 154.05 126.1 154.05 121.15 156.95 117.6 159.85 114.1 164 114.1 168.15 114.1 171.05 117.6 173.95 121.15 173.95 126.1 L173.65 127.1 Q173.05 128.1 171.05 128.9 169 129.75 166.4 130 L168 138.1 160 138.1 161.65 130 Q159 129.75 156.95 128.9 154.95 128.1 154.35 127.1"/>
    <path stroke="none" fill="#C3E3FF" d="M60.4 156.7 Q58.6 156.2 58.3 155.05 60.45 151.15 60.9 146.65 61.35 142.1 64.9 140.9 68.55 140.15 71.2 143.9 73.85 147.6 77.65 149.9 77.95 151.05 76.7 152.35 L75.55 153.35 Q74.05 154.55 72 155.3 L73.9 159.15 66.15 161.2 65.9 156.95 Q63.75 157.3 61.85 157 L60.4 156.7"/>
    <path stroke="none" fill="#DDEFFF" d="M213.25 117.05 Q212.2 116.75 212 116.1 213.3 113.85 213.55 111.2 213.8 108.55 215.85 107.85 218 107.4 219.55 109.6 221.1 111.75 223.3 113.1 223.45 113.75 222.75 114.55 L222.05 115.1 Q221.2 115.8 220 116.25 L221.1 118.5 216.6 119.7 216.45 117.2 214.1 117.25 213.25 117.05"/>
    <path stroke="none" fill="#DDEFFF" d="M36.2 115.9 Q35.4 115.15 35.6 114.5 37.8 113.2 39.4 111 40.9 108.85 43.05 109.25 45.15 109.95 45.4 112.6 45.65 115.3 46.9 117.55 46.65 118.15 45.65 118.5 L44.8 118.65 42.4 118.6 42.3 121.1 37.8 119.9 38.9 117.65 Q37.7 117.2 36.8 116.55 L36.2 115.9"/>
    <path stroke="none" fill="#C3E3FF" d="M114.2 97.85 L114.2 97.55 114.2 97.4 Q113.9 90.8 120.25 85.5 L120.3 85.45 Q126.8 80.05 136.6 79.3 146.4 78.5 153.75 82.8 160.8 87.1 161.6 93.7 L161.6 93.8 161.6 94.1 Q161.7 94.9 161.3 95.65 L160.15 96.8 155 98.6 Q150.1 100.15 143.75 101 L145.35 141.45 Q145.4 142.55 144.65 143.4 143.9 144.25 142.8 144.35 L140.7 144.5 Q139.6 144.6 138.7 143.85 137.8 143.15 137.65 142.05 L132.95 101.85 121.6 101.25 121.5 101.25 116 100.25 114.8 99.3 Q114.3 98.65 114.2 97.85"/>
    <path stroke="none" fill="#DDEFFF" d="M213.4 100.45 L213.4 100.25 213.4 100.15 Q213.2 95.9 217.3 92.5 L217.3 92.45 Q221.5 88.95 227.85 88.5 234.15 87.95 238.9 90.75 243.45 93.5 244 97.8 L244 97.85 244 98.05 243.8 99.05 243.05 99.8 239.7 100.95 Q236.55 101.95 232.45 102.5 L233.5 128.6 Q233.55 129.3 233.05 129.85 232.55 130.4 231.85 130.5 L230.5 130.55 Q229.8 130.65 229.2 130.15 228.6 129.7 228.5 129 L225.5 103.05 218.15 102.65 218.1 102.65 214.55 102 Q214.1 101.8 213.75 101.4 L213.4 100.45"/>
    <path stroke="none" fill="#DDEFFF" d="M53.9 110.35 L53.95 110.2 54 110.15 Q54.65 107.2 58.15 105.6 L58.15 105.55 Q61.65 103.95 66.1 104.85 70.5 105.7 73.2 108.5 75.85 111.25 75.35 114.3 L75.3 114.45 75 115.15 74.35 115.5 71.8 115.65 66.6 115.35 62.35 133.4 61.8 134.15 60.9 134.35 59.9 134.15 Q59.45 134.1 59.1 133.6 58.8 133.2 58.85 132.75 L61.75 114.35 Q58.85 113.7 56.75 112.75 L56.7 112.7 54.45 111.6 54 111.05 53.9 110.35"/>
  </g>
</svg>