<svg width="128" height="128" xmlns="http://www.w3.org/2000/svg" xmlns:xlink="http://www.w3.org/1999/xlink">
  <defs>
    <linearGradient gradientUnits="userSpaceOnUse" x1="-819.2" x2="819.2" spreadMethod="pad" gradientTransform="matrix(0.009124755859375 -0.0052337646484375 0.0061492919921875 0.0107269287109375 43.15 100.35)" id="gradient0">
      <stop offset="0" stop-color="#5DD4AA"/>
      <stop offset="1" stop-color="#4CC299"/>
    </linearGradient>
    <linearGradient gradientUnits="userSpaceOnUse" x1="-819.2" x2="819.2" spreadMethod="pad" gradientTransform="matrix(-0.008331298828125 -0.008331298828125 0.01165771484375 -0.01165771484375 80.95 109.6)" id="gradient1">
      <stop offset="0" stop-color="#5DD4AA"/>
      <stop offset="1" stop-color="#4CC299"/>
    </linearGradient>
    <linearGradient gradientUnits="userSpaceOnUse" x1="-819.2" x2="819.2" spreadMethod="pad" gradientTransform="matrix(0.0101776123046875 0.0027313232421875 0.003204345703125 -0.011962890625 87.15 94.05)" id="gradient2">
      <stop offset="0" stop-color="#5DD4AA"/>
      <stop offset="1" stop-color="#4CC299"/>
    </linearGradient>
    <linearGradient gradientUnits="userSpaceOnUse" x1="-819.2" x2="819.2" spreadMethod="pad" gradientTransform="matrix(0 0.04229736328125 -0.042236328125 0 64.15 69.6)" id="gradient3">
      <stop offset="0" stop-color="#FFFFFF"/>
      <stop offset="1" stop-color="#C4E7F3"/>
    </linearGradient>
  </defs>
  <g>
    <path stroke="none" fill="#353541" d="M64.15 31 L64.9 31 65.4 31 Q80.6 31.45 91.55 42.35 102.8 53.6 102.8 69.55 102.8 81.05 97.05 90.15 L101.8 93.5 101.85 93.55 Q104.9 96.2 105.25 100.25 L105.25 100.1 Q105.75 104.25 102.95 107.55 L103 107.5 Q100.5 110.6 96.3 111.05 L96.25 111.05 93.3 110.85 94.4 115.25 94.4 115.2 Q95.2 119.2 92.95 122.65 90.7 126.1 86.7 126.95 L86.6 126.95 Q82.55 127.65 79.15 125.45 75.7 123.15 74.95 119.05 L74.95 119.1 74.5 117.3 70.8 118.4 Q70.7 119.9 70.05 121.45 L70 121.55 Q68.35 125.3 64.6 126.8 L64.55 126.8 Q60.65 128.25 56.85 126.65 L56.9 126.65 Q53.15 125.05 51.65 121.1 L51.6 121.1 Q49.5 115.6 44.6 111.5 L44.55 111.5 Q42.9 110.1 42 108.3 L41.1 107.05 Q39.85 107.75 38.7 108.75 L38.65 108.8 Q35.45 111.35 31.5 111.05 L31.4 111.05 Q27.2 110.6 24.7 107.5 21.95 104.2 22.5 100.1 L22.5 100.25 Q22.8 96.2 25.9 93.55 L25.95 93.5 Q28.4 91.4 31.15 89.85 25.5 80.9 25.5 69.55 25.5 53.6 36.9 42.3 L36.9 42.35 Q48.2 31 64.15 31 M88.95 87.9 L86.25 86.85 88.65 88.75 88.95 87.9 M42.6 87 L39.7 88.15 40.1 89.05 42.6 87"/>
    <path stroke="none" fill="#5DD4AA" d="M66.4 115.35 Q67.3 117.65 66.35 119.9 65.35 122.15 63.1 123.05 L58.45 122.95 Q56.25 122 55.35 119.65 52.9 113.2 47.1 108.4 45.25 106.9 44.95 104.4 44.8 101.9 46.4 100.1 47.9 98.2 50.4 98 52.9 97.8 54.7 99.4 62.85 106.25 66.4 115.35"/>
    <path stroke="none" fill="url(#gradient0)" d="M44.55 89.35 Q46.95 89 48.9 90.4 50.85 91.85 51.25 94.3 51.6 96.7 50.2 98.7 48.75 100.65 46.3 101.05 40.5 101.95 36.1 105.7 34.2 107.25 31.8 107.05 29.3 106.8 27.8 104.95 26.15 103 26.45 100.55 26.65 98.15 28.5 96.55 35.45 90.7 44.55 89.35"/>
    <path stroke="none" fill="url(#gradient1)" d="M90.45 116 Q90.95 118.4 89.6 120.45 88.25 122.5 85.85 123 83.4 123.45 81.35 122.1 79.3 120.75 78.85 118.3 77.5 111.55 72.65 105.8 71.1 103.95 71.3 101.45 71.55 99 73.4 97.45 75.25 95.9 77.75 96.1 80.2 96.35 81.75 98.2 88.55 106.4 90.45 116"/>
    <path stroke="none" fill="url(#gradient2)" d="M83.15 89.35 Q92.25 90.7 99.2 96.55 101.05 98.15 101.25 100.55 101.55 103 99.9 104.95 98.4 106.8 95.9 107.05 93.5 107.25 91.6 105.7 87.2 101.95 81.4 101.05 78.95 100.65 77.5 98.7 76.1 96.7 76.45 94.3 76.85 91.85 78.8 90.4 80.75 89 83.15 89.35"/>
    <path stroke="none" fill="#353541" d="M91.75 69.55 Q91.75 81.05 83.75 89.15 75.55 97.2 64.15 97.2 52.75 97.2 44.7 89.15 36.5 81.05 36.5 69.55 36.5 58.15 44.7 50.2 L44.7 50.15 Q52.75 42 64.15 42 75.55 42 83.75 50.15 91.75 58.15 91.75 69.55"/>
    <path stroke="none" fill="#5DD4AA" d="M47.6 108.6 Q41.15 102.4 43.3 94.05 L42 74.05 Q41.7 65.85 48 59.95 52.7 55.4 59.05 54.3 L63.6 53.85 Q72.85 53.85 79.25 59.95 85.45 65.85 85.25 74.05 L84.05 94.05 Q87.3 102.4 80.8 108.6 74.15 115.05 64.2 115.05 54.3 115.05 47.6 108.6"/>
    <path stroke="none" fill="#353541" fill-opacity="0.2" d="M82.5 98.4 Q82.5 101.85 77.2 104.25 72 106.75 64.5 106.75 57.05 106.75 51.8 104.25 46.5 101.85 46.5 98.4 L46.7 97.2 82.35 97.2 82.5 98.4"/>
    <path stroke="none" fill="#353541" d="M82 81 Q82 83.05 80.5 84.5 79.05 86 77 86 74.85 86 73.45 84.5 72 83.05 72 81 72 78.9 73.45 77.4 74.85 76 77 76 79.05 76 80.5 77.4 82 78.9 82 81 M81 80 Q81 79.15 80.4 78.55 79.8 78 79 78 78.15 78 77.6 78.55 77 79.15 77 80 77 80.8 77.6 81.4 78.15 82 79 82 79.8 82 80.4 81.4 81 80.8 81 80 M62 81 Q62 83.05 60.5 84.5 59.05 86 57 86 54.85 86 53.45 84.5 52 83.05 52 81 52 78.9 53.45 77.4 54.85 76 57 76 59.05 76 60.5 77.4 62 78.9 62 81 M61 80 Q61 79.15 60.4 78.55 59.8 78 59 78 58.15 78 57.6 78.55 57 79.15 57 80 57 80.8 57.6 81.4 58.15 82 59 82 59.8 82 60.4 81.4 61 80.8 61 80"/>
    <path stroke="none" fill="#24483F" d="M71.15 88.6 L71.9 89.45 72.1 90.45 71.45 91.2 70.55 91.3 69.8 90.75 69.65 90.6 69.55 90.5 Q68.55 89.5 67.1 89.5 65.75 89.5 64.65 90.5 L64.35 90.85 63.5 91.35 Q63 91.45 62.6 91.05 62.15 90.75 62.1 90.25 62.05 89.75 62.4 89.3 L62.9 88.75 62.9 88.7 Q64.75 87 67.1 87 69.45 87 71.15 88.6"/>
    <path stroke="none" fill="#5D5D67" d="M81 80 Q81 80.8 80.4 81.4 79.8 82 79 82 78.15 82 77.6 81.4 77 80.8 77 80 77 79.15 77.6 78.55 78.15 78 79 78 79.8 78 80.4 78.55 81 79.15 81 80 M61 80 Q61 80.8 60.4 81.4 59.8 82 59 82 58.15 82 57.6 81.4 57 80.8 57 80 57 79.15 57.6 78.55 58.15 78 59 78 59.8 78 60.4 78.55 61 79.15 61 80"/>
    <path stroke="none" fill="url(#gradient3)" d="M88.7 45.15 Q98.8 55.25 98.8 69.55 98.8 84 88.7 94.15 78.5 104.2 64.15 104.2 49.85 104.2 39.7 94.15 29.5 84 29.5 69.55 29.5 55.25 39.7 45.15 49.85 35 64.15 35 78.5 35 88.7 45.15 M91.75 69.55 Q91.75 58.15 83.75 50.15 75.55 42 64.15 42 52.75 42 44.7 50.15 L44.7 50.2 Q36.5 58.15 36.5 69.55 36.5 81.05 44.7 89.15 52.75 97.2 64.15 97.2 75.55 97.2 83.75 89.15 91.75 81.05 91.75 69.55"/>
    <path stroke="none" fill="#7DDCBB" d="M56.75 67 Q56.75 68.65 55.55 69.8 54.4 71 52.75 71 51.1 71 49.9 69.8 48.75 68.65 48.75 67 48.75 65.35 49.9 64.15 51.1 63 52.75 63 54.4 63 55.55 64.15 56.75 65.35 56.75 67"/>
    <path stroke="none" fill="#FFFFFF" fill-opacity="0.2" d="M84 60.25 Q84 65.2 80.4 68.65 76.95 72.25 72 72.25 67.05 72.25 63.45 68.65 60 65.2 60 60.25 60 55.3 63.45 51.7 67.05 48.25 72 48.25 76.95 48.25 80.4 51.7 84 55.3 84 60.25"/>
  </g>
</svg>