<svg width="128" height="128" xmlns="http://www.w3.org/2000/svg" xmlns:xlink="http://www.w3.org/1999/xlink">
  <defs>
    <linearGradient gradientUnits="userSpaceOnUse" x1="-819.2" x2="819.2" spreadMethod="pad" gradientTransform="matrix(0 -0.007232666015625 0.016998291015625 0 77.2 115.55)" id="gradient0">
      <stop offset="0" stop-color="#FF8AAE"/>
      <stop offset="1" stop-color="#E5698F"/>
    </linearGradient>
    <linearGradient gradientUnits="userSpaceOnUse" x1="-819.2" x2="819.2" spreadMethod="pad" gradientTransform="matrix(0 -0.007232666015625 0.016998291015625 0 53.05 115.55)" id="gradient1">
      <stop offset="0" stop-color="#FF8AAE"/>
      <stop offset="1" stop-color="#E5698F"/>
    </linearGradient>
    <linearGradient gradientUnits="userSpaceOnUse" x1="-819.2" x2="819.2" spreadMethod="pad" gradientTransform="matrix(-0.0074462890625 -0.0074462890625 0.008758544921875 -0.008758544921875 88.9 100.4)" id="gradient2">
      <stop offset="0" stop-color="#FF8AAE"/>
      <stop offset="1" stop-color="#E5698F"/>
    </linearGradient>
    <linearGradient gradientUnits="userSpaceOnUse" x1="-819.2" x2="819.2" spreadMethod="pad" gradientTransform="matrix(0.0074462890625 -0.0074462890625 -0.008758544921875 -0.008758544921875 39.1 100.4)" id="gradient3">
      <stop offset="0" stop-color="#FF8AAE"/>
      <stop offset="1" stop-color="#E5698F"/>
    </linearGradient>
    <linearGradient gradientUnits="userSpaceOnUse" x1="-819.2" x2="819.2" spreadMethod="pad" gradientTransform="matrix(0 0.04229736328125 -0.042236328125 0 64.15 69.6)" id="gradient4">
      <stop offset="0" stop-color="#FFFFFF"/>
      <stop offset="1" stop-color="#C4E7F3"/>
    </linearGradient>
  </defs>
  <g>
    <path stroke="none" fill="#353541" d="M64.15 31 Q80.15 31 91.55 42.35 102.8 53.6 102.8 69.55 102.8 83.9 93.85 94.5 96.15 96.5 98.15 99 L98.15 99.05 Q100.65 102.2 100.25 106.25 L100.25 106.35 Q99.75 110.35 96.6 112.9 93.35 115.5 89.35 115.1 L89.3 115.1 86 114.15 86 118.05 Q86 122.15 83.1 125.1 80.15 128 76.05 128 71.95 128 69.05 125.1 66.45 122.5 66.2 119 L64.2 119.05 61.85 118.95 Q61.5 122.5 58.95 125.1 56 128 51.9 128 47.8 128 44.9 125.1 41.95 122.15 42 118.05 L42 114.15 38.75 115.1 38.7 115.1 Q34.65 115.5 31.45 112.9 28.25 110.35 27.8 106.35 L27.8 106.25 Q27.35 102.2 29.85 99.05 L29.9 99 Q31.95 96.4 34.4 94.3 25.5 83.8 25.5 69.55 25.5 53.6 36.9 42.3 L36.9 42.35 Q48.2 31 64.15 31"/>
    <path stroke="none" fill="url(#gradient0)" d="M82 118.05 Q82 120.5 80.25 122.25 78.5 124 76.05 124 73.6 124 71.85 122.25 70.1 120.5 70.15 118.05 L70.15 102.05 Q70.1 99.6 71.85 97.85 73.6 96.1 76.05 96.15 78.5 96.1 80.25 97.85 82 99.6 82 102.05 L82 118.05"/>
    <path stroke="none" fill="url(#gradient1)" d="M57.85 118.05 Q57.85 120.5 56.1 122.25 54.35 124 51.9 124 49.45 124 47.7 122.25 45.95 120.5 46 118.05 L46 102.05 Q45.95 99.6 47.7 97.85 49.45 96.1 51.9 96.15 54.35 96.1 56.1 97.85 57.85 99.6 57.85 102.05 L57.85 118.05"/>
    <path stroke="none" fill="url(#gradient2)" d="M95 101.5 Q96.5 103.4 96.25 105.85 95.95 108.25 94.05 109.8 92.15 111.35 89.75 111.1 87.3 110.8 85.75 108.9 82.05 104.35 76.65 102.4 74.3 101.5 73.3 99.3 72.25 97.05 73.1 94.8 73.95 92.45 76.2 91.45 L80.7 91.25 Q89.25 94.35 95 101.5"/>
    <path stroke="none" fill="url(#gradient3)" d="M33 101.5 Q38.75 94.35 47.3 91.25 L51.8 91.45 Q54.05 92.45 54.9 94.8 55.75 97.05 54.7 99.3 53.7 101.5 51.35 102.4 45.95 104.35 42.25 108.9 40.7 110.8 38.25 111.1 35.85 111.35 33.95 109.8 32.05 108.25 31.75 105.85 31.5 103.4 33 101.5"/>
    <path stroke="none" fill="#353541" d="M91.75 69.55 Q91.75 81.05 83.75 89.15 75.55 97.2 64.15 97.2 52.75 97.2 44.7 89.15 36.5 81.05 36.5 69.55 36.5 58.15 44.7 50.2 L44.7 50.15 Q52.75 42 64.15 42 75.55 42 83.75 50.15 91.75 58.15 91.75 69.55"/>
    <path stroke="none" fill="#FF8AAE" d="M47.6 108.6 Q41.15 102.4 43.3 94.05 L42 74.05 Q41.7 65.85 48 59.95 52.7 55.4 59.05 54.3 L63.6 53.85 Q72.85 53.85 79.25 59.95 85.45 65.85 85.25 74.05 L84.05 94.05 Q87.3 102.4 80.8 108.6 74.15 115.05 64.2 115.05 54.3 115.05 47.6 108.6"/>
    <path stroke="none" fill="#353541" fill-opacity="0.2" d="M82.5 98.4 Q82.5 101.85 77.2 104.25 72 106.75 64.5 106.75 57.05 106.75 51.8 104.25 46.5 101.85 46.5 98.4 L46.7 97.2 82.35 97.2 82.5 98.4"/>
    <path stroke="none" fill="url(#gradient4)" d="M88.7 45.15 Q98.8 55.25 98.8 69.55 98.8 84 88.7 94.15 78.5 104.2 64.15 104.2 49.85 104.2 39.7 94.15 29.5 84 29.5 69.55 29.5 55.25 39.7 45.15 49.85 35 64.15 35 78.5 35 88.7 45.15 M91.75 69.55 Q91.75 58.15 83.75 50.15 75.55 42 64.15 42 52.75 42 44.7 50.15 L44.7 50.2 Q36.5 58.15 36.5 69.55 36.5 81.05 44.7 89.15 52.75 97.2 64.15 97.2 75.55 97.2 83.75 89.15 91.75 81.05 91.75 69.55"/>
    <path stroke="none" fill="#FFFFFF" d="M73 76 Q73 79.7 70.3 82.3 67.75 85 64 85 60.15 85 57.6 82.3 55 79.7 55 76 55 72.2 57.6 69.5 60.15 67 64 67 67.75 67 70.3 69.5 73 72.2 73 76 M69 76 Q69 73.9 67.5 72.4 66.05 71 64 71 61.9 71 60.5 72.4 59 73.9 59 76 59 78.05 60.5 79.5 61.9 81 64 81 66.05 81 67.5 79.5 69 78.05 69 76"/>
    <path stroke="none" fill="#AF4D62" d="M69 76 Q69 78.05 67.5 79.5 66.05 81 64 81 61.9 81 60.5 79.5 59 78.05 59 76 59 73.9 60.5 72.4 61.9 71 64 71 66.05 71 67.5 72.4 69 73.9 69 76 M68.15 89.8 Q66.45 91.4 64.1 91.4 61.75 91.4 59.9 89.7 L59.9 89.65 59.4 89.1 Q59.05 88.65 59.1 88.15 59.15 87.65 59.6 87.35 60 86.95 60.5 87.05 L61.35 87.55 61.65 87.9 Q62.75 88.9 64.1 88.9 65.55 88.9 66.55 87.9 L66.65 87.8 66.8 87.65 Q67.05 87.15 67.55 87.1 L68.45 87.2 69.1 87.95 68.9 88.95 68.15 89.8"/>
    <path stroke="none" fill="#FFA1BE" d="M56.75 67 Q56.75 68.65 55.55 69.8 54.4 71 52.75 71 51.1 71 49.9 69.8 48.75 68.65 48.75 67 48.75 65.35 49.9 64.15 51.1 63 52.75 63 54.4 63 55.55 64.15 56.75 65.35 56.75 67"/>
    <path stroke="none" fill="#FFFFFF" fill-opacity="0.2" d="M84 60.25 Q84 65.2 80.4 68.65 76.95 72.25 72 72.25 67.05 72.25 63.45 68.65 60 65.2 60 60.25 60 55.3 63.45 51.7 67.05 48.25 72 48.25 76.95 48.25 80.4 51.7 84 55.3 84 60.25"/>
  </g>
</svg>