<svg width="128" height="128" xmlns="http://www.w3.org/2000/svg" xmlns:xlink="http://www.w3.org/1999/xlink">
  <defs>
    <linearGradient gradientUnits="userSpaceOnUse" x1="-819.2" x2="819.2" spreadMethod="pad" gradientTransform="matrix(0 -0.013031005859375 0.015777587890625 0 69.55 108.25)" id="gradient0">
      <stop offset="0" stop-color="#C7B6FF"/>
      <stop offset="1" stop-color="#9B86EC"/>
    </linearGradient>
    <linearGradient gradientUnits="userSpaceOnUse" x1="-819.2" x2="819.2" spreadMethod="pad" gradientTransform="matrix(-0.009124755859375 -0.0052642822265625 0.006195068359375 -0.0107269287109375 92.95 91.35)" id="gradient1">
      <stop offset="0" stop-color="#C7B6FF"/>
      <stop offset="1" stop-color="#9B86EC"/>
    </linearGradient>
    <linearGradient gradientUnits="userSpaceOnUse" x1="-819.2" x2="819.2" spreadMethod="pad" gradientTransform="matrix(0 0.04229736328125 -0.042236328125 0 64.15 64.6)" id="gradient2">
      <stop offset="0" stop-color="#FFFFFF"/>
      <stop offset="1" stop-color="#C4E7F3"/>
    </linearGradient>
  </defs>
  <g>
    <path stroke="none" fill="#353541" d="M64.15 26 Q80.15 26 91.55 37.35 102.8 48.6 102.8 64.55 102.8 75.9 97.2 84.9 99.4 86.1 101.5 87.65 L101.6 87.7 Q104.75 90.1 105.4 94.05 L105.45 94.2 Q105.95 98.15 103.55 101.45 L103.6 101.4 Q101.2 104.8 97.1 105.4 93.1 106 89.75 103.65 L89.7 103.6 Q88.5 102.75 87.3 102.1 85.75 104.4 83.6 106.5 L83.55 106.5 82.85 107.2 Q82.75 109.2 82.25 111.45 79.25 124.6 75.45 125.45 71.85 127.2 67.95 125.9 L67.9 125.9 Q65.15 124.9 63.5 122.8 L60.85 124.55 Q57.15 126.5 53.2 125.05 L53.25 125.1 Q49.35 123.75 47.6 119.95 45.6 116.6 47.85 110.75 48.3 109.55 47.45 108.75 L47.35 108.7 44.85 106.5 42.15 103.5 Q40.45 104.25 38.95 105.4 L38.8 105.45 Q35.4 107.75 31.6 107.15 L31.5 107.15 Q27.45 106.4 25.1 103.2 L25.05 103.15 Q22.6 99.75 23.3 95.8 23.85 91.75 27.2 89.35 L27.2 89.3 Q29.55 87.6 32.1 86.3 25.5 76.8 25.5 64.55 25.5 48.6 36.9 37.3 L36.9 37.35 Q48.2 26 64.15 26"/>
    <path stroke="none" fill="#C7B6FF" d="M62.1 117.65 Q61.35 119.95 59.1 120.95 56.9 122.15 54.55 121.3 52.25 120.5 51.2 118.25 50.1 116.05 51.6 112.2 53.05 108.3 50.1 105.75 47.1 103.15 47.3 99.8 47.45 96.4 49.3 94.75 51.05 93.1 53.55 93.2 56 93.35 57.7 95.15 66.65 105 62.1 117.65"/>
    <path stroke="none" fill="url(#gradient0)" d="M78.35 110.55 Q76 120.8 73.8 121.8 71.6 122.9 69.2 122.1 66.9 121.3 65.9 119.1 64.8 116.8 65.65 114.55 67.8 108.5 63.55 103.95 61.9 102.1 62.05 99.65 62.15 97.25 63.95 95.55 65.8 93.9 68.25 94.05 70.65 94.15 72.4 95.9 80.65 100.3 78.35 110.55"/>
    <path stroke="none" fill="#C7B6FF" d="M36.55 102.15 Q34.5 103.55 32.2 103.2 29.75 102.75 28.3 100.8 26.85 98.8 27.25 96.45 27.55 94 29.55 92.55 36.9 87.15 46.05 86.4 48.4 86.1 50.3 87.75 52.2 89.25 52.4 91.75 52.6 94.15 51.05 96.05 49.5 97.9 47.1 98.2 41.35 98.6 36.55 102.15"/>
    <path stroke="none" fill="url(#gradient1)" d="M99.15 90.85 Q101.05 92.3 101.45 94.7 101.75 97.1 100.3 99.1 98.9 101.1 96.5 101.45 94.1 101.8 92.05 100.35 87.35 96.95 81.6 96.4 79.1 96.25 77.6 94.35 75.95 92.45 76.2 90.05 76.45 87.55 78.35 86 80.2 84.4 82.65 84.65 91.75 85.45 99.15 90.85"/>
    <path stroke="none" fill="#353541" d="M91.75 64.55 Q91.75 76.05 83.75 84.15 75.55 92.2 64.15 92.2 52.75 92.2 44.7 84.15 36.5 76.05 36.5 64.55 36.5 53.15 44.7 45.2 L44.7 45.15 Q52.75 37 64.15 37 75.55 37 83.75 45.15 91.75 53.15 91.75 64.55"/>
    <path stroke="none" fill="#C7B6FF" d="M47.6 103.6 Q41.15 97.4 43.3 89.05 L42 69.05 Q41.7 60.85 48 54.95 52.7 50.4 59.05 49.3 L63.6 48.85 Q72.85 48.85 79.25 54.95 85.45 60.85 85.25 69.05 L84.05 89.05 Q87.3 97.4 80.8 103.6 74.15 110.05 64.2 110.05 54.3 110.05 47.6 103.6"/>
    <path stroke="none" fill="#353541" fill-opacity="0.2" d="M82.5 93.4 Q82.5 96.85 77.2 99.25 72 101.75 64.5 101.75 57.05 101.75 51.8 99.25 46.5 96.85 46.5 93.4 L46.7 92.2 82.35 92.2 82.5 93.4"/>
    <path stroke="none" fill="#D2C4FF" d="M56.75 62 Q56.75 63.65 55.55 64.8 54.4 66 52.75 66 51.1 66 49.9 64.8 48.75 63.65 48.75 62 48.75 60.35 49.9 59.15 51.1 58 52.75 58 54.4 58 55.55 59.15 56.75 60.35 56.75 62"/>
    <path stroke="none" fill="url(#gradient2)" d="M88.7 40.15 Q98.8 50.25 98.8 64.55 98.8 79 88.7 89.15 78.5 99.2 64.15 99.2 49.85 99.2 39.7 89.15 29.5 79 29.5 64.55 29.5 50.25 39.7 40.15 49.85 30 64.15 30 78.5 30 88.7 40.15 M91.75 64.55 Q91.75 53.15 83.75 45.15 75.55 37 64.15 37 52.75 37 44.7 45.15 L44.7 45.2 Q36.5 53.15 36.5 64.55 36.5 76.05 44.7 84.15 52.75 92.2 64.15 92.2 75.55 92.2 83.75 84.15 91.75 76.05 91.75 64.55"/>
    <path stroke="none" fill="#C7B6FF" d="M62.35 47.95 L62.65 48.8 62.75 48.65 Q64.15 46.4 65.9 45.15 67.8 43.75 69 44.4 70.2 45.1 70 47.5 69.75 49.6 68.5 51.95 L68.3 52.2 Q67.65 53.4 66.35 53.75 65 54.05 63.8 53.4 62.6 52.7 62.3 51.45 L62.15 50.45 61.55 50.95 59.85 51.2 Q59 50.95 58.55 50.15 L58.45 50 Q57.6 48.45 57.45 47.05 57.3 45.45 58.1 45 58.9 44.55 60.15 45.5 61.3 46.3 62.25 47.8 L62.35 47.95"/>
    <path stroke="none" fill="#353541" d="M81 76 Q81 75.15 80.4 74.55 79.8 74 79 74 78.15 74 77.6 74.55 77 75.15 77 76 77 76.8 77.6 77.4 78.15 78 79 78 79.8 78 80.4 77.4 81 76.8 81 76 M82 77 Q82 79.05 80.5 80.5 79.05 82 77 82 74.85 82 73.45 80.5 72 79.05 72 77 72 74.9 73.45 73.4 74.85 72 77 72 79.05 72 80.5 73.4 82 74.9 82 77 M72 68 Q72 70.05 70.5 71.5 69.05 73 67 73 64.85 73 63.45 71.5 62 70.05 62 68 62 65.9 63.45 64.4 64.85 63 67 63 69.05 63 70.5 64.4 72 65.9 72 68 M71 67 Q71 66.15 70.4 65.55 69.8 65 69 65 68.15 65 67.6 65.55 67 66.15 67 67 67 67.8 67.6 68.4 68.15 69 69 69 69.8 69 70.4 68.4 71 67.8 71 67 M61 76 Q61 75.15 60.4 74.55 59.8 74 59 74 58.15 74 57.6 74.55 57 75.15 57 76 57 76.8 57.6 77.4 58.15 78 59 78 59.8 78 60.4 77.4 61 76.8 61 76 M62 77 Q62 79.05 60.5 80.5 59.05 82 57 82 54.85 82 53.45 80.5 52 79.05 52 77 52 74.9 53.45 73.4 54.85 72 57 72 59.05 72 60.5 73.4 62 74.9 62 77"/>
    <path stroke="none" fill="#5D5D67" d="M81 76 Q81 76.8 80.4 77.4 79.8 78 79 78 78.15 78 77.6 77.4 77 76.8 77 76 77 75.15 77.6 74.55 78.15 74 79 74 79.8 74 80.4 74.55 81 75.15 81 76 M71 67 Q71 67.8 70.4 68.4 69.8 69 69 69 68.15 69 67.6 68.4 67 67.8 67 67 67 66.15 67.6 65.55 68.15 65 69 65 69.8 65 70.4 65.55 71 66.15 71 67 M61 76 Q61 76.8 60.4 77.4 59.8 78 59 78 58.15 78 57.6 77.4 57 76.8 57 76 57 75.15 57.6 74.55 58.15 74 59 74 59.8 74 60.4 74.55 61 75.15 61 76"/>
    <path stroke="none" fill="#7161AA" d="M71.15 84.7 Q69.45 86.3 67.1 86.3 64.75 86.3 62.9 84.6 L62.9 84.55 62.4 84 Q62.05 83.55 62.1 83.05 62.15 82.55 62.6 82.25 63 81.85 63.5 81.95 L64.35 82.45 64.65 82.8 Q65.75 83.8 67.1 83.8 68.55 83.8 69.55 82.8 L69.65 82.7 69.8 82.55 Q70.05 82.05 70.55 82 L71.45 82.1 72.1 82.85 71.9 83.85 71.15 84.7"/>
    <path stroke="none" fill="#FFFFFF" fill-opacity="0.2" d="M84 55.25 Q84 60.2 80.4 63.65 76.95 67.25 72 67.25 67.05 67.25 63.45 63.65 60 60.2 60 55.25 60 50.3 63.45 46.7 67.05 43.25 72 43.25 76.95 43.25 80.4 46.7 84 50.3 84 55.25"/>
  </g>
</svg>