<svg width="128" height="128" xmlns="http://www.w3.org/2000/svg" xmlns:xlink="http://www.w3.org/1999/xlink">
  <defs>
    <linearGradient gradientUnits="userSpaceOnUse" x1="-819.2" x2="819.2" spreadMethod="pad" gradientTransform="matrix(0.009521484375 -0.0025482177734375 0.003631591796875 0.0135650634765625 46.5 110.65)" id="gradient0">
      <stop offset="0" stop-color="#C7B6FF"/>
      <stop offset="1" stop-color="#9B86EC"/>
    </linearGradient>
    <linearGradient gradientUnits="userSpaceOnUse" x1="-819.2" x2="819.2" spreadMethod="pad" gradientTransform="matrix(0 -0.0048828125 0.016998291015625 0 80.4 120)" id="gradient1">
      <stop offset="0" stop-color="#C7B6FF"/>
      <stop offset="1" stop-color="#9B86EC"/>
    </linearGradient>
    <linearGradient gradientUnits="userSpaceOnUse" x1="-819.2" x2="819.2" spreadMethod="pad" gradientTransform="matrix(-0.0101776123046875 0.0027313232421875 -0.003204345703125 -0.011962890625 88.9 101.75)" id="gradient2">
      <stop offset="0" stop-color="#C7B6FF"/>
      <stop offset="1" stop-color="#9B86EC"/>
    </linearGradient>
    <linearGradient gradientUnits="userSpaceOnUse" x1="-819.2" x2="819.2" spreadMethod="pad" gradientTransform="matrix(0 0.04229736328125 -0.042236328125 0 64.15 81.35)" id="gradient3">
      <stop offset="0" stop-color="#FFFFFF"/>
      <stop offset="1" stop-color="#C4E7F3"/>
    </linearGradient>
  </defs>
  <g>
    <path stroke="none" fill="#353541" d="M64.15 42.75 Q80.15 42.75 91.55 54.1 102.8 65.35 102.8 81.3 102.8 88.9 100.3 95.4 102.95 97.7 103.5 101.4 L103.5 101.3 Q104.15 105.3 101.85 108.65 L101.75 108.75 Q99.35 111.95 95.3 112.65 91.2 113.3 88 115.65 L88 116.65 Q88 120.75 85.1 123.7 82.15 126.6 78.05 126.6 74.15 126.6 71.35 124 L64.15 124.55 Q56 124.55 49.9 122 47.35 123.75 44.6 125.15 L44.5 125.2 Q40.75 126.9 36.95 125.6 33.1 124.25 31.3 120.7 L31.25 120.6 Q29.4 116.85 30.8 113 L31.1 112.15 Q27.85 111.25 25.75 108.6 L25.65 108.45 Q23.2 105.1 23.9 101.05 24.55 97.1 27.8 94.7 25.5 88.45 25.5 81.3 25.5 65.35 36.9 54.05 L36.9 54.1 Q48.2 42.75 64.15 42.75"/>
    <path stroke="none" fill="url(#gradient0)" d="M42.8 121.55 L38.25 121.8 Q35.95 121 34.85 118.85 33.75 116.6 34.55 114.3 35.35 112 37.55 110.9 43.7 107.8 48.05 101.65 49.45 99.65 51.9 99.25 54.3 98.8 56.3 100.2 58.3 101.6 58.75 104.05 59.15 106.45 57.75 108.5 51.6 117.2 42.8 121.55"/>
    <path stroke="none" fill="url(#gradient1)" d="M84 116.65 Q84 119.1 82.25 120.85 80.5 122.6 78.05 122.6 75.6 122.6 73.85 120.85 72.1 119.1 72.15 116.65 L72.15 100.65 Q72.1 98.2 73.85 96.45 75.6 94.7 78.05 94.75 80.5 94.7 82.25 96.45 84 98.2 84 100.65 L84 116.65"/>
    <path stroke="none" fill="#C7B6FF" d="M32.85 108.45 Q30.4 108 28.9 106.1 27.45 104.1 27.85 101.7 28.25 99.3 30.2 97.85 32.2 96.35 34.6 96.75 43.65 98.15 50.6 104.05 52.5 105.55 52.7 108.05 52.9 110.45 51.35 112.3 49.8 114.2 47.35 114.45 44.95 114.65 43 113.1 38.55 109.35 32.85 108.45"/>
    <path stroke="none" fill="url(#gradient2)" d="M92.9 97 Q95.3 96.65 97.25 98.05 99.2 99.5 99.55 101.95 99.95 104.35 98.55 106.35 97.1 108.3 94.65 108.7 88.85 109.6 84.45 113.35 82.55 114.9 80.15 114.7 77.65 114.45 76.15 112.6 74.5 110.65 74.8 108.25 74.95 105.8 76.85 104.25 83.8 98.35 92.9 97"/>
    <path stroke="none" fill="#353541" d="M91.75 81.3 Q91.75 92.8 83.75 100.9 75.55 108.95 64.15 108.95 52.75 108.95 44.7 100.9 36.5 92.8 36.5 81.3 36.5 69.9 44.7 61.95 L44.7 61.9 Q52.75 53.75 64.15 53.75 75.55 53.75 83.75 61.9 91.75 69.9 91.75 81.3"/>
    <path stroke="none" fill="#C7B6FF" d="M84.5 107.5 L84.3 110.5 Q84.1 114.7 78.15 117.7 72.3 120.55 64.15 120.55 55.95 120.55 50.1 117.7 44.2 114.7 44.05 110.5 L42.55 85.8 Q42.25 77.6 48.55 71.7 53.25 67.15 59.6 66.05 L64.15 65.6 Q73.4 65.6 79.8 71.7 86 77.6 85.8 85.8 L85.75 86.6 84.65 104.9 84.6 106.2 84.5 107.5"/>
    <path stroke="none" fill="#353541" fill-opacity="0.2" d="M82.5 110.15 Q82.5 113.6 77.2 116 72 118.5 64.5 118.5 57.05 118.5 51.8 116 46.5 113.6 46.5 110.15 L46.7 108.95 82.35 108.95 82.5 110.15"/>
    <path stroke="none" fill="url(#gradient3)" d="M88.7 56.9 Q98.8 67 98.8 81.3 98.8 95.75 88.7 105.9 78.5 115.95 64.15 115.95 49.85 115.95 39.7 105.9 29.5 95.75 29.5 81.3 29.5 67 39.7 56.9 49.85 46.75 64.15 46.75 78.5 46.75 88.7 56.9 M91.75 81.3 Q91.75 69.9 83.75 61.9 75.55 53.75 64.15 53.75 52.75 53.75 44.7 61.9 L44.7 61.95 Q36.5 69.9 36.5 81.3 36.5 92.8 44.7 100.9 52.75 108.95 64.15 108.95 75.55 108.95 83.75 100.9 91.75 92.8 91.75 81.3"/>
    <path stroke="none" fill="#D2C4FF" d="M56.75 79.5 Q56.75 81.15 55.55 82.3 54.4 83.5 52.75 83.5 51.1 83.5 49.9 82.3 48.75 81.15 48.75 79.5 48.75 77.85 49.9 76.65 51.1 75.5 52.75 75.5 54.4 75.5 55.55 76.65 56.75 77.85 56.75 79.5"/>
    <path stroke="none" fill="#C7B6FF" d="M62.35 64.95 L62.65 65.8 62.75 65.65 Q64.15 63.4 65.9 62.15 67.8 60.75 69 61.4 70.2 62.1 70 64.5 69.75 66.6 68.5 68.95 L68.3 69.2 Q67.65 70.4 66.35 70.75 65 71.05 63.8 70.4 62.6 69.7 62.3 68.45 L62.15 67.45 61.55 67.95 59.85 68.2 Q59 67.95 58.55 67.15 L58.45 67 Q57.6 65.45 57.45 64.05 57.3 62.45 58.1 62 58.9 61.55 60.15 62.5 61.3 63.3 62.25 64.8 L62.35 64.95"/>
    <path stroke="none" fill="#353541" d="M71 84 Q71 83.15 70.4 82.55 69.8 82 69 82 68.15 82 67.6 82.55 67 83.15 67 84 67 84.8 67.6 85.4 68.15 86 69 86 69.8 86 70.4 85.4 71 84.8 71 84 M72 85 Q72 87.05 70.5 88.5 69.05 90 67 90 64.85 90 63.45 88.5 62 87.05 62 85 62 82.9 63.45 81.4 64.85 80 67 80 69.05 80 70.5 81.4 72 82.9 72 85 M82 94 Q82 96.05 80.5 97.5 79.05 99 77 99 74.85 99 73.45 97.5 72 96.05 72 94 72 91.9 73.45 90.4 74.85 89 77 89 79.05 89 80.5 90.4 82 91.9 82 94 M81 93 Q81 92.15 80.4 91.55 79.8 91 79 91 78.15 91 77.6 91.55 77 92.15 77 93 77 93.8 77.6 94.4 78.15 95 79 95 79.8 95 80.4 94.4 81 93.8 81 93 M62 94 Q62 96.05 60.5 97.5 59.05 99 57 99 54.85 99 53.45 97.5 52 96.05 52 94 52 91.9 53.45 90.4 54.85 89 57 89 59.05 89 60.5 90.4 62 91.9 62 94 M61 93 Q61 92.15 60.4 91.55 59.8 91 59 91 58.15 91 57.6 91.55 57 92.15 57 93 57 93.8 57.6 94.4 58.15 95 59 95 59.8 95 60.4 94.4 61 93.8 61 93"/>
    <path stroke="none" fill="#5D5D67" d="M61 93 Q61 93.8 60.4 94.4 59.8 95 59 95 58.15 95 57.6 94.4 57 93.8 57 93 57 92.15 57.6 91.55 58.15 91 59 91 59.8 91 60.4 91.55 61 92.15 61 93 M71 84 Q71 84.8 70.4 85.4 69.8 86 69 86 68.15 86 67.6 85.4 67 84.8 67 84 67 83.15 67.6 82.55 68.15 82 69 82 69.8 82 70.4 82.55 71 83.15 71 84 M81 93 Q81 93.8 80.4 94.4 79.8 95 79 95 78.15 95 77.6 94.4 77 93.8 77 93 77 92.15 77.6 91.55 78.15 91 79 91 79.8 91 80.4 91.55 81 92.15 81 93"/>
    <path stroke="none" fill="#7161AA" d="M71.15 101.7 Q69.45 103.3 67.1 103.3 64.75 103.3 62.9 101.6 L62.9 101.55 62.4 101 Q62.05 100.55 62.1 100.05 62.15 99.55 62.6 99.25 63 98.85 63.5 98.95 L64.35 99.45 64.65 99.8 Q65.75 100.8 67.1 100.8 68.55 100.8 69.55 99.8 L69.65 99.7 69.8 99.55 Q70.05 99.05 70.55 99 L71.45 99.1 72.1 99.85 71.9 100.85 71.15 101.7"/>
    <path stroke="none" fill="#FFFFFF" fill-opacity="0.2" d="M84 72.75 Q84 77.7 80.4 81.15 76.95 84.75 72 84.75 67.05 84.75 63.45 81.15 60 77.7 60 72.75 60 67.8 63.45 64.2 67.05 60.75 72 60.75 76.95 60.75 80.4 64.2 84 67.8 84 72.75"/>
  </g>
</svg>