<svg width="128" height="128" xmlns="http://www.w3.org/2000/svg" xmlns:xlink="http://www.w3.org/1999/xlink">
  <defs>
    <linearGradient gradientUnits="userSpaceOnUse" x1="-819.2" x2="819.2" spreadMethod="pad" gradientTransform="matrix(0 -0.007232666015625 0.016998291015625 0 81.3 115)" id="gradient0">
      <stop offset="0" stop-color="#E2C3AB"/>
      <stop offset="1" stop-color="#C49978"/>
    </linearGradient>
    <linearGradient gradientUnits="userSpaceOnUse" x1="-819.2" x2="819.2" spreadMethod="pad" gradientTransform="matrix(-0.0074462890625 -0.0074462890625 0.008758544921875 -0.008758544921875 93.25 95.05)" id="gradient1">
      <stop offset="0" stop-color="#E2C3AB"/>
      <stop offset="1" stop-color="#C49978"/>
    </linearGradient>
    <linearGradient gradientUnits="userSpaceOnUse" x1="-819.2" x2="819.2" spreadMethod="pad" gradientTransform="matrix(0 0.04229736328125 -0.042236328125 0 64.15 69.6)" id="gradient2">
      <stop offset="0" stop-color="#FFFFFF"/>
      <stop offset="1" stop-color="#C4E7F3"/>
    </linearGradient>
  </defs>
  <g>
    <path stroke="none" fill="#353541" d="M36.9 42.35 Q48.2 31 64.15 31 80.15 31 91.55 42.35 102.8 53.6 102.8 69.55 102.8 80.25 97.85 88.85 100.3 90.95 102.45 93.65 105 96.85 104.55 100.9 104.1 105 100.95 107.6 L100.95 107.55 Q97.7 110.15 93.65 109.7 91.7 109.5 90.1 108.7 L90.1 109.2 90.1 117.5 Q90.1 121.6 87.2 124.55 84.25 127.45 80.15 127.45 76.05 127.45 73.15 124.55 70.55 121.95 70.3 118.5 L64.2 119.05 Q58.95 119.05 54.5 117.5 53.1 120.45 51.3 123.2 49 126.6 45 127.4 40.95 128.2 37.55 125.9 L37.5 125.9 Q34.1 123.6 33.35 119.6 32.55 115.55 34.8 112.15 L35.35 111.3 34.95 111.35 Q30.9 111.8 27.7 109.25 L27.7 109.2 Q24.5 106.6 24.05 102.6 L24.05 102.55 Q23.6 98.5 26.15 95.3 28.5 92.35 31.3 90.05 25.5 81 25.5 69.55 25.5 53.6 36.9 42.3 L36.9 42.35"/>
    <path stroke="none" fill="url(#gradient0)" d="M86.1 117.5 Q86.1 119.95 84.35 121.7 82.6 123.45 80.15 123.45 77.7 123.45 75.95 121.7 74.2 119.95 74.25 117.5 L74.25 101.5 Q74.2 99.05 75.95 97.3 77.7 95.55 80.15 95.6 82.6 95.55 84.35 97.3 86.1 99.05 86.1 101.5 L86.1 117.5"/>
    <path stroke="none" fill="#E2C3AB" d="M48 120.95 Q46.6 123 44.2 123.45 41.8 123.95 39.75 122.6 37.7 121.2 37.25 118.8 36.75 116.4 38.15 114.35 41.95 108.6 42.6 101.15 42.8 98.7 44.7 97.1 46.6 95.55 49.05 95.75 51.45 95.95 53.05 97.85 54.6 99.75 54.4 102.2 53.45 112.8 48 120.95"/>
    <path stroke="none" fill="#E2C3AB" d="M38.55 105.2 Q36.95 107.1 34.55 107.4 32.1 107.65 30.2 106.1 28.3 104.55 28.05 102.15 27.75 99.7 29.3 97.8 35 90.65 43.6 87.55 L48.1 87.75 Q50.3 88.75 51.15 91.1 52 93.35 51 95.6 49.95 97.8 47.65 98.7 42.2 100.65 38.55 105.2"/>
    <path stroke="none" fill="url(#gradient1)" d="M99.35 96.15 Q100.85 98.05 100.6 100.5 100.3 102.9 98.4 104.45 96.5 106 94.1 105.75 91.65 105.45 90.1 103.55 86.4 99 81 97.05 78.65 96.15 77.65 93.95 76.6 91.7 77.45 89.45 78.3 87.1 80.55 86.1 L85.05 85.9 Q93.6 89 99.35 96.15"/>
    <path stroke="none" fill="#353541" d="M91.75 69.55 Q91.75 81.05 83.75 89.15 75.55 97.2 64.15 97.2 52.75 97.2 44.7 89.15 36.5 81.05 36.5 69.55 36.5 58.15 44.7 50.2 L44.7 50.15 Q52.75 42 64.15 42 75.55 42 83.75 50.15 91.75 58.15 91.75 69.55"/>
    <path stroke="none" fill="#E2C3AB" d="M47.6 108.6 Q41.15 102.4 41.6 94.05 L86.75 94.05 Q87.3 102.4 80.8 108.6 74.15 115.05 64.2 115.05 54.3 115.05 47.6 108.6"/>
    <path stroke="none" fill="#353541" fill-opacity="0.2" d="M82.5 98.4 Q82.5 101.85 77.2 104.25 72 106.75 64.5 106.75 57.05 106.75 51.8 104.25 46.5 101.85 46.5 98.4 L46.7 97.2 82.35 97.2 82.5 98.4"/>
    <path stroke="none" fill="#E2C3AB" d="M43.4 95.75 L42 74.05 Q41.7 65.85 48 59.95 52.7 55.4 59.05 54.3 L63.6 53.85 Q72.85 53.85 79.25 59.95 85.45 65.85 85.25 74.05 L83.95 95.75 43.4 95.75"/>
    <path stroke="none" fill="url(#gradient2)" d="M88.7 45.15 Q98.8 55.25 98.8 69.55 98.8 84 88.7 94.15 78.5 104.2 64.15 104.2 49.85 104.2 39.7 94.15 29.5 84 29.5 69.55 29.5 55.25 39.7 45.15 49.85 35 64.15 35 78.5 35 88.7 45.15 M91.75 69.55 Q91.75 58.15 83.75 50.15 75.55 42 64.15 42 52.75 42 44.7 50.15 L44.7 50.2 Q36.5 58.15 36.5 69.55 36.5 81.05 44.7 89.15 52.75 97.2 64.15 97.2 75.55 97.2 83.75 89.15 91.75 81.05 91.75 69.55"/>
    <path stroke="none" fill="#353541" d="M58 73 L75.85 73 Q78.35 73 80.15 74.75 81.9 76.5 81.9 79 81.9 81.5 80.15 83.25 78.35 85 75.85 85 L58 85 Q55.5 85 53.75 83.25 52 81.5 52 79 52 76.5 53.75 74.75 55.5 73 58 73 M79 77 Q79 76.15 78.4 75.55 77.8 75 77 75 76.15 75 75.6 75.55 75 76.15 75 77 75 77.8 75.6 78.4 76.15 79 77 79 77.8 79 78.4 78.4 79 77.8 79 77"/>
    <path stroke="none" fill="#5D5D67" d="M79 77 Q79 77.8 78.4 78.4 77.8 79 77 79 76.15 79 75.6 78.4 75 77.8 75 77 75 76.15 75.6 75.55 76.15 75 77 75 77.8 75 78.4 75.55 79 76.15 79 77"/>
    <path stroke="none" fill="#916E53" d="M71.15 89.8 Q69.45 91.4 67.1 91.4 64.75 91.4 62.9 89.7 L62.9 89.65 62.4 89.1 Q62.05 88.65 62.1 88.15 62.15 87.65 62.6 87.35 63 86.95 63.5 87.05 L64.35 87.55 64.65 87.9 Q65.75 88.9 67.1 88.9 68.55 88.9 69.55 87.9 L69.65 87.8 69.8 87.65 Q70.05 87.15 70.55 87.1 L71.45 87.2 72.1 87.95 71.9 88.95 71.15 89.8"/>
    <path stroke="none" fill="#E7CFBB" d="M56.75 67 Q56.75 68.65 55.55 69.8 54.4 71 52.75 71 51.1 71 49.9 69.8 48.75 68.65 48.75 67 48.75 65.35 49.9 64.15 51.1 63 52.75 63 54.4 63 55.55 64.15 56.75 65.35 56.75 67"/>
    <path stroke="none" fill="#FFFFFF" fill-opacity="0.2" d="M84 60.25 Q84 65.2 80.4 68.65 76.95 72.25 72 72.25 67.05 72.25 63.45 68.65 60 65.2 60 60.25 60 55.3 63.45 51.7 67.05 48.25 72 48.25 76.95 48.25 80.4 51.7 84 55.3 84 60.25"/>
  </g>
</svg>