<svg width="64" height="64" xmlns="http://www.w3.org/2000/svg" xmlns:xlink="http://www.w3.org/1999/xlink">
  <defs/>
  <g>
    <path stroke="none" fill="#353541" d="M32 13.35 Q36.4 13.3 41.15 15 L41.5 13.75 41.5 13.8 Q42.7 7.45 48 8 L48.1 8 Q53.85 8.1 55.45 14.2 L55.5 14.4 55.75 15.45 Q57.2 20.9 53.25 27.05 54.3 31.3 54.35 35.75 L54.3 38.2 54.3 38.25 Q53.95 44 51.75 49.25 51.3 50.5 51.55 51.55 52.15 53.05 54.1 54.25 L54.15 54.3 Q59.5 57.65 60 63.65 L60 64 4 64 4.05 63.65 Q4.5 57.65 9.9 54.3 L9.9 54.25 Q11.85 53.05 12.5 51.55 12.7 50.5 12.25 49.25 10.05 44 9.7 38.25 L9.7 38.2 9.65 35.75 Q9.7 31.25 10.75 26.95 6.85 20.85 8.3 15.45 L8.6 14.4 8.65 14.2 Q10.2 8.1 15.95 8 L16.05 8 Q21.35 7.45 22.6 13.8 L22.6 13.75 22.95 14.95 Q27.6 13.3 32 13.35"/>
    <path stroke="none" fill="#F5F5F5" d="M43.4 32 Q37.85 29.7 36 23.85 44.05 21.25 45.4 14.55 45.9 11.95 47.9 12 50.8 12.15 51.6 15.35 L51.85 16.3 Q53.45 23.35 43.4 32"/>
    <path stroke="none" fill="#F5F5F5" d="M20.65 32 Q10.6 23.35 12.2 16.3 L12.45 15.35 Q13.25 12.15 16.15 12 18.15 11.95 18.65 14.55 20 21.25 28 23.85 26.15 29.7 20.65 32"/>
    <path stroke="none" fill="#BA6BE9" d="M13.7 38 Q14.05 32.65 16 27.65 16.6 26.05 21.45 23.85 26.95 21.35 32 21.35 37.05 21.35 42.55 23.85 47.4 26.05 48 27.65 50 32.65 50.3 38 50 43.15 48 47.85 47 50.5 47.7 52.75 48.55 55.5 52 57.65 55.65 59.95 56 64 L8 64 Q8.35 59.95 12 57.65 15.45 55.5 16.3 52.75 17 50.5 16 47.85 14 43.15 13.7 38"/>
    <path stroke="none" fill="#D699FA" d="M13.7 38 L13.65 35.75 Q13.7 29.5 16 23.65 16.6 22.05 21.45 19.85 26.95 17.35 32 17.35 37.05 17.35 42.55 19.85 47.4 22.05 48 23.65 50.3 29.5 50.35 35.75 L50.3 38 Q50 32.65 48 27.65 47.4 26.05 42.55 23.85 37.05 21.35 32 21.35 26.95 21.35 21.45 23.85 16.6 26.05 16 27.65 14.05 32.65 13.7 38"/>
    <path stroke="none" fill="#AB5ADB" d="M25.35 53.8 L26.7 55.15 Q27.5 55.95 27.5 57.05 27.5 58.15 26.7 58.95 L25.35 60.3 Q24.65 61 23.55 61 22.45 61 21.65 60.2 L20.3 58.85 Q19.55 58.15 19.5 57 19.55 55.95 20.3 55.2 L21.65 53.85 Q22.45 53.05 23.45 53 24.65 53.05 25.35 53.8"/>
    <path stroke="none" fill="#AB5ADB" d="M33.15 53.45 L34 54.3 Q34.5 54.8 34.5 55.5 34.5 56.2 34 56.7 L33.15 57.5 Q32.7 58 32 58 31.3 58 30.8 57.5 L30 56.65 Q29.5 56.2 29.5 55.45 29.5 54.8 30 54.35 L30.8 53.5 Q31.3 53 31.95 53 32.7 53 33.15 53.45"/>
    <path stroke="none" fill="#FABA2D" d="M36.9 40.95 Q34.85 43 31.95 43 29.1 43 27.1 40.95 25 38.85 25 36 25 33.1 27.1 31 29.1 29 31.95 29 34.85 29 36.9 31 39 33.1 39 36 39 38.85 36.9 40.95 M36.7 36.55 Q37.55 35.7 37.55 34.6 37.55 33.4 36.7 32.55 35.85 31.8 34.7 31.8 33.55 31.8 32.8 32.55 31.95 33.4 31.95 34.6 31.95 35.7 32.8 36.55 33.55 37.4 34.7 37.4 35.85 37.4 36.7 36.55"/>
    <path stroke="none" fill="#FFFFFF" d="M36.7 36.55 Q35.85 37.4 34.7 37.4 33.55 37.4 32.8 36.55 31.95 35.7 31.95 34.6 31.95 33.4 32.8 32.55 33.55 31.8 34.7 31.8 35.85 31.8 36.7 32.55 37.55 33.4 37.55 34.6 37.55 35.7 36.7 36.55"/>
    <path stroke="none" fill="#AB5ADB" d="M44.35 27.6 L45.4 28.6 Q46 29.2 46 30.05 46 30.85 45.4 31.45 L44.35 32.5 Q43.85 33 43 33 42.2 33 41.6 32.4 L40.6 31.4 Q40 30.85 40 30 40 29.2 40.6 28.65 L41.6 27.65 Q42.2 27.05 42.95 27 43.85 27.05 44.35 27.6"/>
  </g>
</svg>