<svg width="64" height="64" xmlns="http://www.w3.org/2000/svg" xmlns:xlink="http://www.w3.org/1999/xlink">
  <defs>
    <linearGradient gradientUnits="userSpaceOnUse" x1="-819.2" x2="819.2" spreadMethod="pad" gradientTransform="matrix(-0.0092010498046875 0 0 -0.0068511962890625 49.95 39.55)" id="gradient0">
      <stop offset="0" stop-color="#D6DCE0"/>
      <stop offset="1" stop-color="#A8B2BB"/>
    </linearGradient>
    <linearGradient gradientUnits="userSpaceOnUse" x1="-819.2" x2="819.2" spreadMethod="pad" gradientTransform="matrix(0.0152130126953125 -0.0003662109375 0.0003662109375 0.0152130126953125 17.25 27.1)" id="gradient1">
      <stop offset="0" stop-color="#FFFFFF"/>
      <stop offset="1" stop-color="#BBC4CB"/>
    </linearGradient>
  </defs>
  <g>
    <path stroke="none" fill="#353541" d="M50.75 13.8 Q55.9 15.05 59 19.5 L59 19.45 Q62.35 24.2 61.3 30 L60.7 32.25 Q61.4 33.1 61.75 34.25 L62 36.05 Q62.05 36.9 61.7 37.9 60.9 40.3 59.05 41.15 L58.95 41.2 51.6 45.05 50.55 47 49.85 47.7 Q48.45 48.85 46.4 49 L46.05 49 43.4 48.95 Q40.4 51.4 36.9 52.4 L36.8 52.45 32 53 20 53 19.7 53 19.6 53 19.25 53 19.05 53 Q12.25 52.7 7.3 47.75 2.95 43.4 2.2 37.55 L2.2 37.65 2 35.3 Q0.55 33 0.05 30.1 L0.1 30.1 Q-1 24.25 2.45 19.5 L2.45 19.55 Q5.7 14.9 11.15 13.8 L11.45 13.75 11.85 13.65 Q20.45 12.25 26.9 14.65 29 15.4 30.55 16.35 32.25 15.3 34.55 14.5 40.85 12.2 49.05 13.5 L50.75 13.8"/>
    <path stroke="none" fill="#BBC4CB" d="M47.4 36 L47.4 30.2 47.85 30 49 30.1 57.05 34.35 Q57.7 34.65 57.9 35.35 L58 36.05 47.4 36"/>
    <path stroke="none" fill="url(#gradient0)" d="M47.4 36 L58 36.05 57.9 36.6 57.1 37.65 49.05 41.85 47.85 41.95 47.4 41.85 47.4 36"/>
    <path stroke="none" fill="#E28F2B" d="M48.05 29.1 Q49.45 36.05 47.9 43.2 L47.35 44.55 Q46.85 44.95 46.1 45 L42.75 44.95 Q42.05 44.95 41.55 44.55 41.05 43.9 41.1 43.2 L41 28.8 Q41.05 28.05 41.55 27.5 42.1 27.05 42.75 27 L46.15 27.05 Q46.95 27 47.35 27.5 47.9 28.05 48.05 29.1"/>
    <path stroke="none" fill="url(#gradient1)" d="M15.9 37.7 L15.4 37.75 Q11.4 38.3 8.05 35.95 4.7 33.55 4 29.4 3.25 25.25 5.7 21.85 8.05 18.5 11.95 17.7 L12.45 17.6 Q19.95 16.4 25.55 18.4 31.25 20.45 32 24.6 32.7 28.75 27.95 32.55 23.35 36.4 15.9 37.7"/>
    <path stroke="none" fill="#FFD751" d="M25.5 25 L20 25 19.7 25 19.6 25 19.25 25.05 Q13.95 25.25 10.1 29.1 6.75 32.45 6.15 37 L6 35 Q6 29.2 10.1 25.1 13.95 21.25 19.25 21.05 L19.6 21 19.7 21 Q21.5 21.05 23 22.15 24.35 23.1 25.5 25 M35.8 25.5 L35.55 25.1 Q33.15 21.1 29.75 21 L32 21 Q37.8 21 41.9 25.1 46 29.2 46 35 L45.9 37 Q45.25 32.45 41.9 29.1 39.2 26.4 35.8 25.5"/>
    <path stroke="none" fill="#FABA2D" d="M35.8 25.5 Q39.2 26.4 41.9 29.1 45.25 32.45 45.9 37 45.25 41.55 41.9 44.9 39.2 47.6 35.8 48.55 L32 49 29.75 49 Q33.15 48.9 35.55 44.9 37.55 41.55 37.95 37 L38 35 Q38 29.45 35.8 25.5 M6.15 37 Q6.75 32.45 10.1 29.1 13.95 25.25 19.25 25.05 L19.6 25 19.7 25 20 25 25.5 25 25.55 25.1 Q28 29.2 28 35 L27.95 37 Q27.55 41.55 25.55 44.9 24.4 46.85 23 47.85 21.5 48.95 19.7 49 L19.6 49 19.25 49 Q13.95 48.75 10.1 44.9 6.75 41.55 6.15 37"/>
    <path stroke="none" fill="#525262" d="M29.75 21 Q33.15 21.1 35.55 25.1 L35.8 25.5 32 25 25.5 25 Q24.35 23.1 23 22.15 21.5 21.05 19.7 21 L20 21 29.75 21"/>
    <path stroke="none" fill="#474758" d="M25.5 25 L32 25 35.8 25.5 Q38 29.45 38 35 L37.95 37 Q37.55 41.55 35.55 44.9 33.15 48.9 29.75 49 L20 49 19.7 49 Q21.5 48.95 23 47.85 24.4 46.85 25.55 44.9 27.55 41.55 27.95 37 L28 35 Q28 29.2 25.55 25.1 L25.5 25"/>
    <path stroke="none" fill="#353541" d="M20.7 37.4 Q21.15 36.95 21.15 36.3 21.15 35.6 20.7 35.15 20.2 34.7 19.55 34.7 18.9 34.7 18.45 35.15 18 35.6 18 36.3 18 36.95 18.45 37.4 18.9 37.9 19.55 37.9 20.2 37.9 20.7 37.4 M20.8 39.95 Q19.6 41.1 18 41.1 16.35 41.1 15.2 39.95 14 38.75 14 37.1 14 35.45 15.2 34.25 16.35 33.1 18 33.1 19.6 33.1 20.8 34.25 22 35.45 22 37.1 22 38.75 20.8 39.95"/>
    <path stroke="none" fill="#5D5D67" d="M20.7 37.4 Q20.2 37.9 19.55 37.9 18.9 37.9 18.45 37.4 18 36.95 18 36.3 18 35.6 18.45 35.15 18.9 34.7 19.55 34.7 20.2 34.7 20.7 35.15 21.15 35.6 21.15 36.3 21.15 36.95 20.7 37.4"/>
    <path stroke="none" fill="#FFFFFF" d="M45.4 37.5 Q38 36.2 33.4 32.4 28.7 28.5 29.45 24.4 30.15 20.25 35.85 18.25 41.55 16.25 48.95 17.55 L49.45 17.6 Q53.4 18.45 55.7 21.75 58.1 25.15 57.35 29.3 56.6 33.45 53.2 35.85 49.9 38.15 45.85 37.6 L45.4 37.5"/>
  </g>
</svg>