<svg width="64" height="64" xmlns="http://www.w3.org/2000/svg" xmlns:xlink="http://www.w3.org/1999/xlink">
  <defs>
    <linearGradient gradientUnits="userSpaceOnUse" x1="-819.2" x2="819.2" spreadMethod="pad" gradientTransform="matrix(-0.0092010498046875 0 0 -0.0068511962890625 49.95 43.55)" id="gradient0">
      <stop offset="0" stop-color="#D6DCE0"/>
      <stop offset="1" stop-color="#A8B2BB"/>
    </linearGradient>
    <linearGradient gradientUnits="userSpaceOnUse" x1="-819.2" x2="819.2" spreadMethod="pad" gradientTransform="matrix(0.0090789794921875 0.0122222900390625 -0.0122222900390625 0.0090789794921875 19.5 22.5)" id="gradient1">
      <stop offset="0" stop-color="#FFFFFF"/>
      <stop offset="1" stop-color="#BBC4CB"/>
    </linearGradient>
  </defs>
  <g>
    <path stroke="none" fill="#353541" d="M53.85 10.2 Q57.95 14.35 58 20.1 L58 20.15 Q58 25.8 54.1 29.9 L53.85 30.15 53.7 30.35 52.55 31.45 58.75 34.75 58.95 34.85 Q61.05 35.9 61.75 38.25 L62 40.05 Q62.05 40.9 61.7 41.9 60.9 44.3 59.05 45.15 L58.95 45.2 51.6 49.05 50.55 51 49.85 51.7 Q48.45 52.85 46.4 53 L46.05 53 43.4 52.95 Q40.4 55.4 36.9 56.4 L36.8 56.45 32 57 20 57 19.7 57 19.6 57 19.25 57 19.05 57 Q12.25 56.7 7.3 51.75 2.95 47.4 2.2 41.55 L2.2 41.65 2 39 Q2 32.9 5.55 28.3 3 24.7 3 20.15 3 14.4 7.15 10.2 L7.2 10.2 Q11.3 6 17.15 6 22.85 6 26.95 9.95 L27 10 27.35 10.35 30.5 13.9 33.5 10.5 34.1 9.9 34.3 9.75 34.35 9.7 34.45 9.6 Q38.45 6 43.85 6 L43.9 6 Q49.65 6.05 53.8 10.15 L53.85 10.2"/>
    <path stroke="none" fill="#BBC4CB" d="M47.4 40 L47.4 34.2 47.85 34 49 34.1 57.05 38.35 Q57.7 38.65 57.9 39.35 L58 40.05 47.4 40"/>
    <path stroke="none" fill="url(#gradient0)" d="M47.4 40 L58 40.05 57.9 40.6 57.1 41.65 49.05 45.85 47.85 45.95 47.4 45.85 47.4 40"/>
    <path stroke="none" fill="#E28F2B" d="M48.05 33.1 Q49.45 40.05 47.9 47.2 L47.35 48.55 Q46.85 48.95 46.1 49 L42.75 48.95 Q42.05 48.95 41.55 48.55 41.05 47.9 41.1 47.2 L41 32.8 Q41.05 32.05 41.55 31.5 42.1 31.05 42.75 31 L46.15 31.05 Q46.95 31 47.35 31.5 47.9 32.05 48.05 33.1"/>
    <path stroke="none" fill="url(#gradient1)" d="M10.1 27.5 L9.75 27.15 Q7 24.2 7 20.15 7 16 10 13 12.95 10 17.15 10 21.25 10 24.15 12.8 L24.5 13.15 Q29.8 18.5 31.45 24.25 33.05 30.1 30.1 33.1 27.1 36.1 21.3 34.4 15.45 32.85 10.1 27.5"/>
    <path stroke="none" fill="#FFD751" d="M35.8 29.5 L35.55 29.1 Q33.15 25.1 29.75 25 L32 25 Q37.8 25 41.9 29.1 46 33.2 46 39 L45.9 41 Q45.25 36.45 41.9 33.1 39.2 30.4 35.8 29.5 M19.7 25 Q21.5 25.05 23 26.15 24.35 27.1 25.5 29 L20 29 19.7 29 19.6 29 19.25 29.05 Q13.95 29.25 10.1 33.1 6.75 36.45 6.15 41 L6 39 Q6 33.2 10.1 29.1 13.95 25.25 19.25 25.05 L19.6 25 19.7 25"/>
    <path stroke="none" fill="#525262" d="M19.7 25 L20 25 29.75 25 Q33.15 25.1 35.55 29.1 L35.8 29.5 32 29 25.5 29 Q24.35 27.1 23 26.15 21.5 25.05 19.7 25"/>
    <path stroke="none" fill="#474758" d="M25.5 29 L32 29 35.8 29.5 Q38 33.45 38 39 L37.95 41 Q37.55 45.55 35.55 48.9 33.15 52.9 29.75 53 L20 53 19.7 53 Q21.5 52.95 23 51.85 24.4 50.85 25.55 48.9 27.55 45.55 27.95 41 L28 39 Q28 33.2 25.55 29.1 L25.5 29"/>
    <path stroke="none" fill="#FABA2D" d="M25.5 29 L25.55 29.1 Q28 33.2 28 39 L27.95 41 Q27.55 45.55 25.55 48.9 24.4 50.85 23 51.85 21.5 52.95 19.7 53 L19.6 53 19.25 53 Q13.95 52.75 10.1 48.9 6.75 45.55 6.15 41 6.75 36.45 10.1 33.1 13.95 29.25 19.25 29.05 L19.6 29 19.7 29 20 29 25.5 29 M35.8 29.5 Q39.2 30.4 41.9 33.1 45.25 36.45 45.9 41 45.25 45.55 41.9 48.9 39.2 51.6 35.8 52.55 L32 53 29.75 53 Q33.15 52.9 35.55 48.9 37.55 45.55 37.95 41 L38 39 Q38 33.45 35.8 29.5"/>
    <path stroke="none" fill="#FFFFFF" d="M50.85 27.5 Q45.55 32.8 39.75 34.4 33.9 36.05 30.95 33.05 27.95 30.1 29.6 24.25 31.2 18.45 36.5 13.15 L36.85 12.8 Q39.8 10 43.85 10 48 10.05 51 13 53.95 16 54 20.15 54 24.2 51.2 27.15 L50.85 27.5"/>
    <path stroke="none" fill="#353541" d="M21.45 42.35 Q19.8 44 17.45 44 15.1 44 13.5 42.35 12.4 41.25 12.05 39.9 11.9 39.25 12.25 38.75 12.5 38.2 13.15 38.05 L14.25 38.2 Q14.75 38.5 14.9 39.1 L15.6 40.2 Q16.4 41 17.45 41 18.55 41 19.4 40.2 L20.05 39.05 Q20.25 38.45 20.8 38.15 L21.9 38.1 22.85 38.8 Q23.1 39.35 22.9 39.95 22.45 41.3 21.45 42.35"/>
  </g>
</svg>