<svg width="64" height="64" xmlns="http://www.w3.org/2000/svg" xmlns:xlink="http://www.w3.org/1999/xlink">
  <defs/>
  <g>
    <path stroke="none" fill="#353541" d="M52 0 L52.15 0 Q60.3 0.25 62.8 6.35 L62.85 6.35 Q63.9 8.65 64 11.9 L64 12 64 52 64 52.15 63.8 54.5 Q62.35 63.65 52.15 64 L52 64 12 64 11.85 64 Q1.65 63.65 0.2 54.5 L0 52.15 0 52 0 12 0 11.9 Q0.1 8.65 1.15 6.35 L1.2 6.35 Q3.7 0.25 11.85 0 L12 0 52 0 M60 22 L60 16 60 12 Q59.9 9.65 59.2 8 57.4 4.15 52 4 L12 4 Q6.6 4.15 4.8 8 4.1 9.65 4 12 L4 16 4 22 4 26 4 29 4 33 4 52 4.15 53.8 Q5.2 59.8 12 60 L52 60 Q58.8 59.8 59.85 53.8 L60 52 60 33 60 29 60 26 60 22"/>
    <path stroke="none" fill="#2ECC71" d="M60 22 L48 16 32 24 16 16 4 22 4 16 Q4.1 13.65 4.8 12 6.6 8.15 12 8 L52 8 Q57.4 8.15 59.2 12 59.9 13.65 60 16 L60 22"/>
    <path stroke="none" fill="#20B860" d="M60 22 L60 26 48 20 32 28 16 20 4 26 4 22 16 16 32 24 48 16 60 22"/>
    <path stroke="none" fill="#DE7E4F" d="M4 26 L16 20 32 28 48 20 60 26 60 29 51.6 24.75 Q49.9 23.9 48 23.9 46.1 23.9 44.45 24.75 L32 31 21.15 25.55 20.75 25.35 20.45 25.2 19.55 24.75 18.7 24.4 Q17.4 23.9 16 23.9 L15 23.95 12.4 24.75 4 29 4 26 M4.15 53.8 L16 47.9 26.85 53.35 27.25 53.55 27.55 53.7 28.4 54.1 29.25 54.5 31.9 54.95 32 54.95 Q33.9 54.95 35.6 54.1 L48 47.9 59.85 53.8 Q58.8 59.8 52 60 L12 60 Q5.2 59.8 4.15 53.8"/>
    <path stroke="none" fill="#C66A3E" d="M60 33 L51.6 28.75 Q49.9 27.9 48 27.9 46.1 27.9 44.45 28.75 L32 35 21.15 29.55 20.75 29.35 20.45 29.2 19.55 28.75 18.7 28.4 Q17.4 27.9 16 27.9 L15 27.95 12.4 28.75 4 33 4 29 12.4 24.75 15 23.95 16 23.9 Q17.4 23.9 18.7 24.4 L19.55 24.75 20.45 25.2 20.75 25.35 21.15 25.55 32 31 44.45 24.75 Q46.1 23.9 48 23.9 49.9 23.9 51.6 24.75 L60 29 60 33"/>
    <path stroke="none" fill="#EE9366" d="M60 33 L60 52 59.85 53.8 48 47.9 35.6 54.1 Q33.9 54.95 32 54.95 L31.9 54.95 29.25 54.5 28.4 54.1 27.55 53.7 27.25 53.55 26.85 53.35 16 47.9 4.15 53.8 4 52 4 33 12.4 28.75 15 27.95 16 27.9 Q17.4 27.9 18.7 28.4 L19.55 28.75 20.45 29.2 20.75 29.35 21.15 29.55 32 35 44.45 28.75 Q46.1 27.9 48 27.9 49.9 27.9 51.6 28.75 L60 33"/>
    <path stroke="none" fill="#46E087" d="M60 16 Q59.9 13.65 59.2 12 57.4 8.15 52 8 L12 8 Q6.6 8.15 4.8 12 4.1 13.65 4 16 L4 12 Q4.1 9.65 4.8 8 6.6 4.15 12 4 L52 4 Q57.4 4.15 59.2 8 59.9 9.65 60 12 L60 16"/>
    <path stroke="none" fill="#20B860" d="M37.85 11.3 L39.2 12.65 Q40 13.45 40 14.55 40 15.65 39.2 16.45 L37.85 17.8 Q37.15 18.5 36.05 18.5 34.95 18.5 34.15 17.7 L32.8 16.35 Q32.05 15.65 32 14.5 32.05 13.45 32.8 12.7 L34.15 11.35 Q34.95 10.55 35.95 10.5 37.15 10.55 37.85 11.3"/>
    <path stroke="none" fill="#DE7E4F" d="M9.9 33.2 L10.75 34.05 Q11.25 34.55 11.25 35.25 11.25 35.95 10.75 36.45 L9.9 37.25 Q9.45 37.75 8.75 37.75 8.05 37.75 7.55 37.25 L6.75 36.4 Q6.25 35.95 6.25 35.2 6.25 34.55 6.75 34.1 L7.55 33.25 Q8.05 32.75 8.7 32.75 9.45 32.75 9.9 33.2"/>
    <path stroke="none" fill="#C66A3E" d="M49.15 51.95 L50 52.8 Q50.5 53.3 50.5 54 50.5 54.7 50 55.2 L49.15 56 Q48.7 56.5 48 56.5 47.3 56.5 46.8 56 L46 55.15 Q45.5 54.7 45.5 53.95 45.5 53.3 46 52.85 L46.8 52 Q47.3 51.5 47.95 51.5 48.7 51.5 49.15 51.95"/>
    <path stroke="none" fill="#FFFFFF" d="M20.2 53.6 L22 50 20.2 46.4 22 46 42 46 43.8 46.4 42 50 43.8 53.6 Q43 54 42 54 L22 54 Q21.05 54 20.2 53.6"/>
    <path stroke="none" fill="#353541" d="M43.8 46.4 L44.8 47.15 Q46 48.35 46 50 46 51.65 44.8 52.8 L43.8 53.6 42 50 43.8 46.4 M20.2 53.6 L19.15 52.8 Q18 51.65 18 50 18 48.35 19.15 47.15 19.65 46.7 20.2 46.4 L22 50 20.2 53.6"/>
    <path stroke="none" fill="#353541" d="M47.4 33.6 Q48 34.2 48 35 48 35.8 47.4 36.4 L44.8 39 47.4 41.6 Q48 42.2 48 43 48 43.8 47.4 44.4 46.8 45 46 45 45.2 45 44.6 44.4 L40.6 40.4 Q40 39.8 40 39 40 38.2 40.6 37.6 L44.6 33.6 Q45.2 33 46 33 46.8 33 47.4 33.6 M24 39 Q24 39.8 23.4 40.4 L19.4 44.4 Q18.8 45 18 45 17.2 45 16.6 44.4 16 43.8 16 43 16 42.2 16.6 41.6 L19.2 39 16.6 36.4 Q16 35.8 16 35 16 34.2 16.6 33.6 17.2 33 18 33 18.8 33 19.4 33.6 L23.4 37.6 Q24 38.2 24 39"/>
  </g>
</svg>