<svg width="64" height="64" xmlns="http://www.w3.org/2000/svg" xmlns:xlink="http://www.w3.org/1999/xlink">
  <defs>
    <linearGradient gradientUnits="userSpaceOnUse" x1="-819.2" x2="819.2" spreadMethod="pad" gradientTransform="matrix(-0.0018157958984375 -0.0068359375 0.0070648193359375 -0.00189208984375 30.75 43.8)" id="gradient0">
      <stop offset="0" stop-color="#FABA2D"/>
      <stop offset="1" stop-color="#E28F2B"/>
    </linearGradient>
    <linearGradient gradientUnits="userSpaceOnUse" x1="-819.2" x2="819.2" spreadMethod="pad" gradientTransform="matrix(-0.0023040771484375 0.0085906982421875 -0.010772705078125 -0.0029144287109375 34.35 21.55)" id="gradient1">
      <stop offset="0" stop-color="#FABA2D"/>
      <stop offset="1" stop-color="#E28F2B"/>
    </linearGradient>
    <linearGradient gradientUnits="userSpaceOnUse" x1="-819.2" x2="819.2" spreadMethod="pad" gradientTransform="matrix(0.0120849609375 0.0209197998046875 -0.0152740478515625 0.008819580078125 37.05 29.7)" id="gradient2">
      <stop offset="0" stop-color="#FABA2D"/>
      <stop offset="1" stop-color="#E28F2B"/>
    </linearGradient>
  </defs>
  <g>
    <path stroke="none" fill="#353541" d="M44.75 13.3 Q48.9 14.5 48.45 19.3 50.75 19.25 53.05 21.6 L59.95 28.55 60 28.6 Q62.2 30.8 62 33.1 62.2 35.35 60 37.55 L53.05 44.6 53 44.7 Q49.4 48.1 46.05 46.2 46.15 48.5 45.2 50.8 43.5 54.65 39.75 56.15 L39.7 56.15 Q36.3 57.45 32.85 56.3 L32.6 56.2 Q31.75 56.05 31.2 55.6 27.4 53.85 24.7 51.7 L24.4 51.7 23.65 51.75 21.95 51.8 21.75 51.8 20.9 51.8 19.9 51.8 19.75 51.8 16.5 51.45 16.4 51.4 Q14.35 50.95 12.5 50.05 L12.6 50.05 Q9.8 48.7 7.45 46.4 2 40.95 2 33.35 2 25.75 7.4 20.4 L7.45 20.3 Q9.4 18.3 11.75 17.05 L11.8 17.05 Q12.7 16.5 13.75 16.15 L13.8 16.1 Q15.55 15.4 17.55 15.15 L18.2 12.75 18.15 12.9 Q19.45 7.35 24.95 7.8 29.55 7.85 33.05 11.95 34.2 13.3 35.4 13.2 40 11.5 44.55 13.2 L44.75 13.3"/>
    <path stroke="none" fill="url(#gradient0)" d="M39.2 41.7 L39.45 43.2 Q39.7 46 38.05 48.75 36.45 51.35 34.1 52.5 L33.65 52.3 33.5 52.25 Q28.3 49.95 25.3 46.8 22.1 43.6 23.1 41.3 24.1 39 28.65 39 33 39 38.25 41.25 L38.4 41.3 39.2 41.7"/>
    <path stroke="none" fill="#FFD751" d="M39.2 41.7 Q40.85 42.7 41.6 44.6 42.5 46.9 41.5 49.2 40.5 51.5 38.25 52.4 L34.1 52.5 Q36.45 51.35 38.05 48.75 39.7 46 39.45 43.2 L39.2 41.7"/>
    <path stroke="none" fill="url(#gradient1)" d="M43.6 22.55 L42 28.1 Q42.1 27.65 40.1 27.15 L22.2 22.35 Q20.15 21.8 20.45 19.9 L21.3 16.65 Q21.8 14.5 23.9 14.65 26.95 14.7 29.25 17.4 32.35 21.05 36 19.8 39.2 18.6 42.4 19.8 43.9 20.45 43.6 22.55"/>
    <path stroke="none" fill="#FFD751" d="M43.6 22.55 Q43.9 20.45 42.4 19.8 39.2 18.6 36 19.8 32.35 21.05 29.25 17.4 26.95 14.7 23.9 14.65 21.8 14.5 21.3 16.65 L20.45 19.9 20.45 19.7 20.5 19.5 22.05 13.8 Q22.55 11.65 24.65 11.8 27.7 11.85 30 14.55 33.1 18.2 36.75 16.95 39.95 15.75 43.15 16.95 44.9 17.7 44.15 20.5 L43.6 22.55"/>
    <path stroke="none" fill="#FFD751" d="M46.5 41.55 L53.15 34.75 Q54.85 33.05 53.15 31.4 L46.45 24.65 46.75 24.35 46.95 24.2 47.45 23.8 Q48.8 23 50.2 24.4 L57.15 31.4 Q58.85 33.05 57.15 34.75 L50.2 41.8 Q48.8 43.15 47.5 42.4 L47 42.05 46.75 41.8 46.5 41.55"/>
    <path stroke="none" fill="#FABA2D" d="M46.5 41.55 L39.8 34.8 Q38.05 33.05 39.8 31.4 L46.45 24.65 53.15 31.4 Q54.85 33.05 53.15 34.75 L46.5 41.55"/>
    <path stroke="none" fill="url(#gradient2)" d="M15.2 19.85 Q16.7 19.25 18.4 19.05 L19.9 18.9 20.9 18.9 21.75 18.9 22.05 18.9 23.35 18.95 23.8 19 Q28.7 19.25 32.9 20.55 36.15 21.55 39 23.15 46.55 27.35 46.55 33.35 46.55 39.3 39 43.55 32.6 47.1 24.1 47.7 L23.35 47.75 21.95 47.8 21.75 47.8 20.9 47.8 19.9 47.8 17.25 47.5 Q15.7 47.15 14.3 46.45 L23.75 36.8 Q28 32.6 23.75 28.45 L15.2 19.85"/>
    <path stroke="none" fill="#FABA2D" d="M15.2 19.85 L23.75 28.45 Q28 32.6 23.75 36.8 L14.3 46.45 Q12.1 45.4 10.25 43.55 6 39.3 6 33.35 6 27.35 10.25 23.15 11.8 21.55 13.65 20.55 L15.2 19.85"/>
    <path stroke="none" fill="#353541" d="M17.55 37.15 Q16.35 38.3 14.75 38.3 13.1 38.3 11.95 37.15 10.75 35.95 10.75 34.3 10.75 32.65 11.95 31.45 13.1 30.3 14.75 30.3 16.35 30.3 17.55 31.45 18.75 32.65 18.75 34.3 18.75 35.95 17.55 37.15 M17.45 34.6 Q17.9 34.15 17.9 33.5 17.9 32.8 17.45 32.35 16.95 31.9 16.3 31.9 15.65 31.9 15.2 32.35 14.75 32.8 14.75 33.5 14.75 34.15 15.2 34.6 15.65 35.1 16.3 35.1 16.95 35.1 17.45 34.6"/>
    <path stroke="none" fill="#5D5D67" d="M17.45 34.6 Q16.95 35.1 16.3 35.1 15.65 35.1 15.2 34.6 14.75 34.15 14.75 33.5 14.75 32.8 15.2 32.35 15.65 31.9 16.3 31.9 16.95 31.9 17.45 32.35 17.9 32.8 17.9 33.5 17.9 34.15 17.45 34.6"/>
    <path stroke="none" fill="#FFD751" d="M29.4 37.9 L28.65 35.2 Q28 32.85 30.35 32.2 L38.15 30.1 Q40.5 29.5 41.1 31.85 L41.85 34.55 Q42.45 36.9 40.1 37.5 L32.35 39.6 Q30 40.25 29.4 37.9"/>
  </g>
</svg>