<svg width="64" height="64" xmlns="http://www.w3.org/2000/svg" xmlns:xlink="http://www.w3.org/1999/xlink">
  <defs>
    <linearGradient gradientUnits="userSpaceOnUse" x1="-819.2" x2="819.2" spreadMethod="pad" gradientTransform="matrix(-0.0061798095703125 -0.0035858154296875 0.0043792724609375 -0.0075836181640625 48.2 30.7)" id="gradient0">
      <stop offset="0" stop-color="#BA6BE9"/>
      <stop offset="1" stop-color="#A452D4"/>
    </linearGradient>
    <linearGradient gradientUnits="userSpaceOnUse" x1="-819.2" x2="819.2" spreadMethod="pad" gradientTransform="matrix(0.0061798095703125 -0.0035858154296875 -0.0043792724609375 -0.0075836181640625 15.8 30.7)" id="gradient1">
      <stop offset="0" stop-color="#BA6BE9"/>
      <stop offset="1" stop-color="#A452D4"/>
    </linearGradient>
    <linearGradient gradientUnits="userSpaceOnUse" x1="-819.2" x2="819.2" spreadMethod="pad" gradientTransform="matrix(-0.0209197998046875 0.0120849609375 -0.008819580078125 -0.0152740478515625 35.65 35.05)" id="gradient2">
      <stop offset="0" stop-color="#BA6BE9"/>
      <stop offset="1" stop-color="#A452D4"/>
    </linearGradient>
  </defs>
  <g>
    <path stroke="none" fill="#353541" d="M50.3 15.9 L50.45 17.65 50.45 17.9 50.45 18.9 50.45 19.75 50.45 20.05 50.45 20.2 54.8 21.45 54.7 21.45 Q56.85 21.95 58.15 23.7 L58.25 23.9 Q59.45 25.55 59.45 27.6 59.55 36.5 51.65 41.45 L51.5 41.55 Q49.8 42.5 47.75 42.4 L47.5 42.4 Q45.65 42.15 44.35 41.15 L41.7 44.45 43.55 46.25 44.1 46.85 44.7 47.7 Q47.3 51.5 43.5 55.35 L36.5 62.3 Q34.3 64.5 32 64.3 29.7 64.5 27.5 62.3 L20.4 55.3 Q16.65 51.45 19.2 47.8 L20.2 46.5 20.45 46.25 22.3 44.35 19.7 41.15 Q18.35 42.15 16.55 42.4 L16.3 42.4 Q14.2 42.5 12.55 41.55 L12.4 41.45 Q4.45 36.5 4.55 27.6 4.55 25.55 5.75 23.9 L5.9 23.7 Q7.15 21.95 9.35 21.45 L9.2 21.45 13.55 20.2 13.55 19.95 13.55 19.75 13.55 18.9 13.55 17.9 13.55 17.75 Q13.6 16.1 13.95 14.5 L13.95 14.4 Q14.4 12.4 15.3 10.6 L15.35 10.5 Q16.6 7.9 18.7 5.75 19.5 4.9 20.6 4.65 L22.8 4.75 32 7.8 41.2 4.7 43.45 4.65 Q44.55 4.9 45.35 5.75 47.15 7.6 48.35 9.75 L48.35 9.8 49.25 11.75 49.25 11.8 Q50 13.7 50.3 15.9"/>
    <path stroke="none" fill="url(#gradient0)" d="M45.6 36.8 L39.35 30.8 Q38.75 30.2 38.65 29.35 38.5 28.55 38.95 27.85 L41.35 23.65 Q41.75 22.95 42.55 22.6 L44.1 22.55 52.75 25.05 52.95 26 Q53 32.7 47 36.45 L45.6 36.8"/>
    <path stroke="none" fill="#D699FA" d="M45.6 36.8 L47 36.45 Q53 32.7 52.95 26 L52.75 25.05 53.7 25.3 Q54.5 25.5 54.95 26.15 55.45 26.8 55.45 27.6 55.5 34.3 49.5 38.05 L47.95 38.4 Q47.1 38.3 46.55 37.75 L45.6 36.8"/>
    <path stroke="none" fill="#D699FA" d="M18.4 36.8 L17.45 37.75 Q16.9 38.3 16.05 38.4 L14.5 38.05 Q8.5 34.3 8.55 27.6 8.55 26.8 9.05 26.15 9.5 25.5 10.3 25.3 L11.25 25.05 11.05 26 Q11 32.7 17 36.45 L18.4 36.8"/>
    <path stroke="none" fill="url(#gradient1)" d="M18.4 36.8 L17 36.45 Q11 32.7 11.05 26 L11.25 25.05 19.9 22.55 21.45 22.6 Q22.25 22.95 22.65 23.65 L25.05 27.85 Q25.5 28.55 25.35 29.35 25.25 30.2 24.65 30.8 L18.4 36.8"/>
    <path stroke="none" fill="#D699FA" d="M23.5 48.8 L30.3 55.45 Q32 57.15 33.65 55.45 L40.4 48.75 40.7 49.05 40.85 49.25 41.25 49.75 Q42.05 51.1 40.65 52.5 L33.65 59.45 Q32 61.15 30.3 59.45 L23.25 52.5 Q21.9 51.1 22.65 49.8 L23 49.3 23.25 49.05 23.5 48.8"/>
    <path stroke="none" fill="#BA6BE9" d="M23.5 48.8 L30.25 42.1 Q32 40.35 33.65 42.1 L40.4 48.75 33.65 55.45 Q32 57.15 30.3 55.45 L23.5 48.8"/>
    <path stroke="none" fill="#BA6BE9" d="M18.9 12.3 Q19.9 10.25 21.55 8.55 L32 12 42.5 8.5 Q43.9 9.95 44.8 11.65 L45.5 13.2 36.9 21.75 Q32.75 26 28.55 21.75 L18.9 12.3"/>
    <path stroke="none" fill="url(#gradient2)" d="M18.9 12.3 L28.55 21.75 Q32.75 26 36.9 21.75 L45.5 13.2 Q46.1 14.7 46.3 16.4 L46.45 17.9 46.45 18.9 46.45 19.75 46.45 20.05 46.4 21.35 46.35 21.8 Q46.1 26.7 44.8 30.9 43.8 34.15 42.2 37 38 44.55 32 44.55 26.05 44.55 21.8 37 18.25 30.6 17.65 22.1 L17.6 21.35 17.55 19.95 17.55 19.75 17.55 18.9 17.55 17.9 17.85 15.25 Q18.2 13.7 18.9 12.3"/>
    <path stroke="none" fill="#353541" d="M42.55 17.5 Q42.5 19.15 41.4 20.25 40.2 21.45 38.6 21.45 36.9 21.45 35.75 20.3 34.55 19.1 34.55 17.4 34.55 15.8 35.75 14.6 36.85 13.5 38.5 13.45 40.2 13.45 41.4 14.65 42.55 15.8 42.55 17.5 M40.7 15.75 Q40.65 15.1 40.2 14.65 39.7 14.15 39.1 14.15 38.45 14.2 38 14.65 37.55 15.1 37.5 15.75 37.5 16.35 38 16.85 38.45 17.3 39.1 17.35 39.8 17.35 40.25 16.9 40.7 16.45 40.7 15.75"/>
    <path stroke="none" fill="#5D5D67" d="M40.7 15.75 Q40.7 16.45 40.25 16.9 39.8 17.35 39.1 17.35 38.45 17.3 38 16.85 37.5 16.35 37.5 15.75 37.55 15.1 38 14.65 38.45 14.2 39.1 14.15 39.7 14.15 40.2 14.65 40.65 15.1 40.7 15.75"/>
  </g>
</svg>