<svg width="64" height="64" xmlns="http://www.w3.org/2000/svg" xmlns:xlink="http://www.w3.org/1999/xlink">
  <defs>
    <linearGradient gradientUnits="userSpaceOnUse" x1="-819.2" x2="819.2" spreadMethod="pad" gradientTransform="matrix(-0.0018157958984375 -0.0068359375 0.0070648193359375 -0.00189208984375 27.75 45.8)" id="gradient0">
      <stop offset="0" stop-color="#FABA2D"/>
      <stop offset="1" stop-color="#E28F2B"/>
    </linearGradient>
    <linearGradient gradientUnits="userSpaceOnUse" x1="-819.2" x2="819.2" spreadMethod="pad" gradientTransform="matrix(-0.0023040771484375 0.0085906982421875 -0.010772705078125 -0.0029144287109375 32.35 19.55)" id="gradient1">
      <stop offset="0" stop-color="#FABA2D"/>
      <stop offset="1" stop-color="#E28F2B"/>
    </linearGradient>
    <linearGradient gradientUnits="userSpaceOnUse" x1="-819.2" x2="819.2" spreadMethod="pad" gradientTransform="matrix(0.0120849609375 0.0209197998046875 -0.0152740478515625 0.008819580078125 35.05 29.7)" id="gradient2">
      <stop offset="0" stop-color="#FABA2D"/>
      <stop offset="1" stop-color="#E28F2B"/>
    </linearGradient>
  </defs>
  <g>
    <path stroke="none" fill="#353541" d="M31.05 9.95 L31.05 10 Q32.2 11.3 33.45 11.15 38 9.5 42.55 11.2 L42.7 11.25 Q47.85 12.75 46 19.55 L46 19.6 45.3 22.2 45.95 21.55 46.55 21 47.4 20.4 47.4 20.35 Q51.2 17.75 55.05 21.6 L61.95 28.55 62 28.6 Q63.85 30.45 64 32.35 L64 33.85 Q63.85 35.7 62 37.55 L55.05 44.6 55 44.7 Q51.15 48.4 47.5 45.9 L46.2 44.9 45.95 44.65 44.4 43.05 42.25 44.9 42.35 45.15 Q43.85 49 42.2 52.8 40.5 56.65 36.75 58.15 L36.7 58.15 Q33.25 59.5 29.8 58.25 L29.75 58.25 Q28.8 58.05 28.2 57.6 22.85 55.1 19.65 51.8 L18.9 51.8 17.9 51.8 17.75 51.8 14.5 51.45 14.4 51.4 Q12.35 50.95 10.5 50.05 L10.6 50.05 Q7.8 48.7 5.45 46.4 0.15 41.1 0 33.85 L0 32.9 Q0.2 25.55 5.4 20.4 L5.45 20.3 Q7.4 18.3 9.75 17.05 L9.8 17.05 Q10.7 16.5 11.75 16.15 L11.8 16.1 15 15.2 16.2 10.85 16.2 10.75 Q17.55 5.4 22.85 5.8 27.55 5.85 31.05 9.95"/>
    <path stroke="none" fill="url(#gradient0)" d="M31.1 54.5 L30.65 54.3 30.5 54.25 Q25.3 51.95 22.3 48.8 19.1 45.6 20.1 43.3 21.1 41 25.65 41 30 41 35.25 43.25 L35.4 43.3 36.2 43.7 36.45 45.2 Q36.7 48 35.05 50.75 33.45 53.35 31.1 54.5"/>
    <path stroke="none" fill="#FFD751" d="M31.1 54.5 Q33.45 53.35 35.05 50.75 36.7 48 36.45 45.2 L36.2 43.7 Q37.85 44.7 38.6 46.6 39.5 48.9 38.5 51.2 37.5 53.5 35.25 54.4 L31.1 54.5"/>
    <path stroke="none" fill="url(#gradient1)" d="M41.6 20.55 L40 26.1 Q40.1 25.65 38.1 25.15 L20.2 20.35 Q18.15 19.8 18.45 17.9 L19.3 14.65 Q19.8 12.5 21.9 12.65 24.95 12.7 27.25 15.4 30.35 19.05 34 17.8 37.2 16.6 40.4 17.8 41.9 18.45 41.6 20.55"/>
    <path stroke="none" fill="#FFD751" d="M41.6 20.55 Q41.9 18.45 40.4 17.8 37.2 16.6 34 17.8 30.35 19.05 27.25 15.4 24.95 12.7 21.9 12.65 19.8 12.5 19.3 14.65 L18.45 17.9 18.45 17.7 18.5 17.5 20.05 11.8 Q20.55 9.65 22.65 9.8 25.7 9.85 28 12.55 31.1 16.2 34.75 14.95 37.95 13.75 41.15 14.95 42.9 15.7 42.15 18.5 L41.6 20.55"/>
    <path stroke="none" fill="#FFD751" d="M48.5 41.55 L55.15 34.75 Q56.85 33.05 55.15 31.4 L48.45 24.65 48.75 24.35 48.95 24.2 49.45 23.8 Q50.8 23 52.2 24.4 L59.15 31.4 Q60.85 33.05 59.15 34.75 L52.2 41.8 Q50.8 43.15 49.5 42.4 L49 42.05 48.75 41.8 48.5 41.55"/>
    <path stroke="none" fill="#FABA2D" d="M48.5 41.55 L41.8 34.8 Q40.05 33.05 41.8 31.4 L48.45 24.65 55.15 31.4 Q56.85 33.05 55.15 34.75 L48.5 41.55"/>
    <path stroke="none" fill="#FABA2D" d="M12.3 46.45 Q10.1 45.4 8.25 43.55 4 39.3 4 33.35 4 27.35 8.25 23.15 9.8 21.55 11.65 20.55 L13.2 19.85 21.75 28.45 Q26 32.6 21.75 36.8 L12.3 46.45"/>
    <path stroke="none" fill="url(#gradient2)" d="M12.3 46.45 L21.75 36.8 Q26 32.6 21.75 28.45 L13.2 19.85 Q14.7 19.25 16.4 19.05 L17.9 18.9 18.9 18.9 19.75 18.9 20.05 18.9 21.35 18.95 21.8 19 Q26.7 19.25 30.9 20.55 34.15 21.55 37 23.15 44.55 27.35 44.55 33.35 44.55 39.3 37 43.55 30.6 47.1 22.1 47.7 L21.35 47.75 19.95 47.8 19.75 47.8 18.9 47.8 17.9 47.8 15.25 47.5 Q13.7 47.15 12.3 46.45"/>
    <path stroke="none" fill="#FFD751" d="M27.4 37.9 L26.65 35.2 Q26 32.85 28.35 32.2 L36.15 30.1 Q38.5 29.5 39.1 31.85 L39.85 34.55 Q40.45 36.9 38.1 37.5 L30.35 39.6 Q28 40.25 27.4 37.9"/>
    <path stroke="none" fill="#9F4F0E" d="M18.55 35.35 Q16.9 37 14.5 37 12.15 37 10.5 35.35 9.4 34.25 9.05 32.9 8.9 32.25 9.25 31.75 9.5 31.2 10.15 31.05 L11.3 31.2 Q11.8 31.5 11.95 32.1 L12.65 33.2 Q13.45 34 14.5 34 15.6 34 16.45 33.2 L17.15 32.05 Q17.35 31.45 17.9 31.15 L19 31.1 19.95 31.8 Q20.2 32.35 20 32.95 19.55 34.3 18.55 35.35"/>
  </g>
</svg>