<svg width="64" height="64" xmlns="http://www.w3.org/2000/svg" xmlns:xlink="http://www.w3.org/1999/xlink">
  <defs>
    <linearGradient gradientUnits="userSpaceOnUse" x1="-819.2" x2="819.2" spreadMethod="pad" gradientTransform="matrix(-0.0061798095703125 0.0035858154296875 0.0043792724609375 0.0075836181640625 48.2 34.1)" id="gradient0">
      <stop offset="0" stop-color="#BA6BE9"/>
      <stop offset="1" stop-color="#A452D4"/>
    </linearGradient>
    <linearGradient gradientUnits="userSpaceOnUse" x1="-819.2" x2="819.2" spreadMethod="pad" gradientTransform="matrix(0.0061798095703125 0.0035858154296875 -0.0043792724609375 0.0075836181640625 15.8 34.1)" id="gradient1">
      <stop offset="0" stop-color="#BA6BE9"/>
      <stop offset="1" stop-color="#A452D4"/>
    </linearGradient>
    <linearGradient gradientUnits="userSpaceOnUse" x1="-819.2" x2="819.2" spreadMethod="pad" gradientTransform="matrix(-0.0209197998046875 -0.0120849609375 -0.008819580078125 0.0152740478515625 35.65 29.75)" id="gradient2">
      <stop offset="0" stop-color="#BA6BE9"/>
      <stop offset="1" stop-color="#A452D4"/>
    </linearGradient>
  </defs>
  <g>
    <path stroke="none" fill="#353541" d="M43.5 9.5 Q47.3 13.3 44.7 17.1 L44.1 17.95 43.55 18.6 41.7 20.4 Q43.1 21.75 44.35 23.65 45.65 22.65 47.5 22.45 L47.75 22.4 Q49.8 22.3 51.5 23.3 L51.65 23.35 Q59.55 28.3 59.45 37.2 L59.45 37.25 Q59.45 39.25 58.25 40.95 L58.15 41.1 Q56.85 42.85 54.7 43.4 L54.8 43.35 50.45 44.6 50.45 44.75 50.45 45.05 50.45 45.9 50.45 46.9 50.45 47.2 50.3 48.95 Q50 51.15 49.25 53.1 L49.3 52.9 Q46.6 61 37.15 63.85 L34.5 63.7 Q33.2 63.15 32.5 61.95 L32 61.05 31.5 61.95 Q30.75 63.3 29.25 63.8 L26.3 63.6 Q18.85 60.05 15.55 54.65 L15.35 54.3 Q14.4 52.45 13.95 50.45 L13.95 50.3 Q13.6 48.7 13.55 47.05 L13.55 46.9 13.55 45.9 13.55 45.05 13.55 44.85 13.55 44.6 9.2 43.35 9.35 43.4 Q7.15 42.85 5.9 41.1 L5.75 40.95 Q4.55 39.25 4.55 37.25 L4.55 37.2 Q4.45 28.3 12.4 23.35 L12.55 23.3 Q14.2 22.3 16.3 22.4 L16.55 22.45 Q18.35 22.65 19.7 23.7 20.9 21.8 22.3 20.45 L20.45 18.6 20.2 18.35 19.2 17 Q16.65 13.35 20.4 9.55 L20.45 9.45 27.5 2.5 Q29.7 0.3 32 0.5 34.35 0.3 36.55 2.6 L36.5 2.5 43.5 9.45 43.5 9.5"/>
    <path stroke="none" fill="#D699FA" d="M52.75 39.75 L52.95 38.8 Q53 32.1 47 28.35 46.35 28 45.6 28 L46.55 27.05 Q47.1 26.5 47.95 26.4 L49.5 26.75 Q55.5 30.5 55.45 37.2 55.45 38 54.95 38.65 L53.7 39.5 52.75 39.75"/>
    <path stroke="none" fill="url(#gradient0)" d="M52.75 39.75 L44.1 42.25 42.55 42.2 Q41.75 41.85 41.35 41.15 L38.95 36.95 Q38.5 36.25 38.65 35.45 38.75 34.6 39.35 34 L45.6 28 Q46.35 28 47 28.35 53 32.1 52.95 38.8 L52.75 39.75"/>
    <path stroke="none" fill="#D699FA" d="M18.4 28 Q17.65 28 17 28.35 11 32.1 11.05 38.8 L11.25 39.75 10.3 39.5 Q9.5 39.3 9.05 38.65 8.55 38 8.55 37.2 8.5 30.5 14.5 26.75 L16.05 26.4 Q16.9 26.5 17.45 27.05 L18.4 28"/>
    <path stroke="none" fill="url(#gradient1)" d="M18.4 28 L24.65 34 Q25.25 34.6 25.35 35.45 25.5 36.25 25.05 36.95 L22.65 41.15 Q22.25 41.85 21.45 42.2 L19.9 42.25 11.25 39.75 11.05 38.8 Q11 32.1 17 28.35 17.65 28 18.4 28"/>
    <path stroke="none" fill="#D699FA" d="M23.5 16 L23.25 15.75 23 15.5 22.65 15 Q21.9 13.7 23.25 12.3 L30.3 5.35 Q32 3.65 33.65 5.35 L40.65 12.3 Q42.05 13.7 41.25 15.05 L40.85 15.55 40.7 15.75 40.4 16.05 33.65 9.35 Q32 7.65 30.3 9.35 L23.5 16"/>
    <path stroke="none" fill="#BA6BE9" d="M23.5 16 L30.3 9.35 Q32 7.65 33.65 9.35 L40.4 16.05 33.65 22.7 Q32 24.45 30.25 22.7 L23.5 16"/>
    <path stroke="none" fill="url(#gradient2)" d="M18.9 52.5 Q18.2 51.1 17.85 49.55 L17.55 46.9 17.55 45.9 17.55 45.05 17.55 44.85 17.6 43.45 17.65 42.7 Q18.25 34.2 21.8 27.8 26.05 20.25 32 20.25 38 20.25 42.2 27.8 43.8 30.65 44.8 33.9 46.1 38.1 46.35 43 L46.4 43.45 46.45 44.75 46.45 45.05 46.45 45.9 46.45 46.9 46.3 48.4 Q46.1 50.1 45.5 51.6 L36.9 43.05 Q32.75 38.8 28.55 43.05 L18.9 52.5"/>
    <path stroke="none" fill="#BA6BE9" d="M18.9 52.5 L28.55 43.05 Q32.75 38.8 36.9 43.05 L45.5 51.6 Q43.35 57.8 36 60 L32 52.8 28 60 Q21.75 57 18.9 52.5"/>
    <path stroke="none" fill="#5D5D67" d="M38.25 44.65 Q38.75 44.25 39.35 44.25 40.05 44.25 40.5 44.7 40.95 45.15 40.9 45.8 40.95 46.45 40.5 46.9 40.05 47.35 39.35 47.35 38.75 47.35 38.25 46.95 37.75 46.45 37.75 45.75 37.75 45.15 38.25 44.65"/>
    <path stroke="none" fill="#353541" d="M38.25 44.65 Q37.75 45.15 37.75 45.75 37.75 46.45 38.25 46.95 38.75 47.35 39.35 47.35 40.05 47.35 40.5 46.9 40.95 46.45 40.9 45.8 40.95 45.15 40.5 44.7 40.05 44.25 39.35 44.25 38.75 44.25 38.25 44.65 M35.7 44.6 Q36.9 43.4 38.5 43.4 40.2 43.4 41.4 44.6 42.55 45.75 42.55 47.35 42.55 49.05 41.4 50.2 40.2 51.4 38.5 51.4 36.9 51.4 35.7 50.2 34.55 49.05 34.55 47.35 34.6 45.8 35.7 44.6"/>
  </g>
</svg>