<svg width="64" height="64" xmlns="http://www.w3.org/2000/svg" xmlns:xlink="http://www.w3.org/1999/xlink">
  <defs>
    <linearGradient gradientUnits="userSpaceOnUse" x1="-819.2" x2="819.2" spreadMethod="pad" gradientTransform="matrix(0.0076446533203125 -0.0132904052734375 0.0096435546875 0.0055694580078125 35.75 42.8)" id="gradient0">
      <stop offset="0" stop-color="#419FDD"/>
      <stop offset="1" stop-color="#366FBF"/>
    </linearGradient>
    <linearGradient gradientUnits="userSpaceOnUse" x1="-819.2" x2="819.2" spreadMethod="pad" gradientTransform="matrix(-0.0023040771484375 0.0085906982421875 -0.010772705078125 -0.0029144287109375 32 23.65)" id="gradient1">
      <stop offset="0" stop-color="#419FDD"/>
      <stop offset="1" stop-color="#366FBF"/>
    </linearGradient>
    <linearGradient gradientUnits="userSpaceOnUse" x1="-819.2" x2="819.2" spreadMethod="pad" gradientTransform="matrix(0.0120849609375 0.0209197998046875 -0.0152740478515625 0.008819580078125 35.05 29.7)" id="gradient2">
      <stop offset="0" stop-color="#419FDD"/>
      <stop offset="1" stop-color="#366FBF"/>
    </linearGradient>
  </defs>
  <g>
    <path stroke="none" fill="#353541" d="M55.05 21.6 L62 28.6 61.95 28.55 Q64.2 30.75 64 33.1 64.2 35.35 62 37.55 L55.05 44.6 55 44.7 Q51.15 48.4 47.5 45.9 L46.2 44.9 45.95 44.65 43.6 42.3 44.35 45.05 44.4 45.1 Q45.9 50.3 40.7 53.2 L40.65 53.25 Q31.5 58.2 21.75 58.4 L21.7 58.4 Q14.95 58.6 14.05 53.05 L14.1 53.2 13.55 51.2 10.5 50.05 10.6 50.05 Q7.8 48.7 5.45 46.4 0 40.95 0 33.35 0 25.75 5.4 20.4 L5.45 20.3 Q7.4 18.3 9.75 17.05 L9.8 17.05 Q10.7 16.5 11.75 16.15 L11.8 16.1 Q13.65 15.35 15.8 15.1 L16.65 11.85 16.65 11.9 Q17.75 6.3 24.35 6.9 34.2 7.7 43 11.85 L43.05 11.85 Q48.5 14.5 46.85 20.05 L46.85 20 46.6 20.95 Q47 20.6 47.4 20.4 L47.4 20.35 Q51.2 17.75 55.05 21.6"/>
    <path stroke="none" fill="#8FCAF0" d="M48.5 41.55 L55.15 34.75 Q56.85 33.05 55.15 31.4 L48.45 24.65 48.75 24.35 48.95 24.2 49.45 23.8 Q50.8 23 52.2 24.4 L59.15 31.4 Q60.85 33.05 59.15 34.75 L52.2 41.8 Q50.8 43.15 49.5 42.4 L49 42.05 48.75 41.8 48.5 41.55"/>
    <path stroke="none" fill="#419FDD" d="M48.5 41.55 L41.8 34.8 Q40.05 33.05 41.8 31.4 L48.45 24.65 55.15 31.4 Q56.85 33.05 55.15 34.75 L48.5 41.55"/>
    <path stroke="none" fill="url(#gradient0)" d="M39.75 43.3 Q40.05 45.3 37.9 46.5 29.6 51 20.75 51.2 17.65 51.3 17.1 48.95 L15.55 43.2 Q15.2 41.2 17.35 40.65 L35.2 35.85 Q37.5 35.2 38.15 37.5 L39.75 43.3"/>
    <path stroke="none" fill="#8FCAF0" d="M39.75 43.3 L40.5 46.1 Q41.1 48.4 38.75 49.7 30.45 54.2 21.6 54.4 18.5 54.5 17.95 52.15 L15.65 43.6 15.55 43.2 17.1 48.95 Q17.65 51.3 20.75 51.2 29.6 51 37.9 46.5 40.05 45.3 39.75 43.3"/>
    <path stroke="none" fill="#8FCAF0" d="M40.55 28.05 L42.15 22.05 Q42.8 19.7 40.45 18.55 32.3 14.7 23.15 13.95 20.45 13.7 19.75 15.7 L20.5 12.9 Q21.1 10.6 24 10.85 33.15 11.6 41.3 15.45 43.65 16.6 43 18.95 L40.7 27.5 40.65 27.75 40.55 28.05"/>
    <path stroke="none" fill="url(#gradient1)" d="M40.55 28.05 Q39.8 29.75 37.75 29.25 L19.85 24.45 Q17.6 23.85 18.15 21.6 L19.75 15.7 Q20.45 13.7 23.15 13.95 32.3 14.7 40.45 18.55 42.8 19.7 42.15 22.05 L40.55 28.05"/>
    <path stroke="none" fill="#419FDD" d="M12.3 46.45 Q10.1 45.4 8.25 43.55 4 39.3 4 33.35 4 27.35 8.25 23.15 9.8 21.55 11.65 20.55 L13.2 19.85 21.75 28.45 Q26 32.6 21.75 36.8 L12.3 46.45"/>
    <path stroke="none" fill="url(#gradient2)" d="M12.3 46.45 L21.75 36.8 Q26 32.6 21.75 28.45 L13.2 19.85 Q14.7 19.25 16.4 19.05 L17.9 18.9 18.9 18.9 19.75 18.9 20.05 18.9 21.35 18.95 21.8 19 Q26.7 19.25 30.9 20.55 34.15 21.55 37 23.15 44.55 27.35 44.55 33.35 44.55 39.3 37 43.55 30.6 47.1 22.1 47.7 L21.35 47.75 19.95 47.8 19.75 47.8 18.9 47.8 17.9 47.8 15.25 47.5 Q13.7 47.15 12.3 46.45"/>
    <path stroke="none" fill="#353541" d="M15.55 37.15 Q14.35 38.3 12.75 38.3 11.1 38.3 9.95 37.15 8.75 35.95 8.75 34.3 8.75 32.65 9.95 31.45 11.1 30.3 12.75 30.3 14.35 30.3 15.55 31.45 16.75 32.65 16.75 34.3 16.75 35.95 15.55 37.15 M15.45 34.6 Q15.9 34.15 15.9 33.5 15.9 32.8 15.45 32.35 14.95 31.9 14.3 31.9 13.65 31.9 13.2 32.35 12.75 32.8 12.75 33.5 12.75 34.15 13.2 34.6 13.65 35.1 14.3 35.1 14.95 35.1 15.45 34.6"/>
    <path stroke="none" fill="#5D5D67" d="M15.45 34.6 Q14.95 35.1 14.3 35.1 13.65 35.1 13.2 34.6 12.75 34.15 12.75 33.5 12.75 32.8 13.2 32.35 13.65 31.9 14.3 31.9 14.95 31.9 15.45 32.35 15.9 32.8 15.9 33.5 15.9 34.15 15.45 34.6"/>
    <path stroke="none" fill="#8FCAF0" d="M27.4 37.9 L26.65 35.2 Q26 32.85 28.35 32.2 L36.15 30.1 Q38.5 29.5 39.1 31.85 L39.85 34.55 Q40.45 36.9 38.1 37.5 L30.35 39.6 Q28 40.25 27.4 37.9"/>
  </g>
</svg>