<svg width="64" height="64" xmlns="http://www.w3.org/2000/svg" xmlns:xlink="http://www.w3.org/1999/xlink">
  <defs>
    <linearGradient gradientUnits="userSpaceOnUse" x1="-819.2" x2="819.2" spreadMethod="pad" gradientTransform="matrix(0.0076446533203125 -0.0132904052734375 0.0096435546875 0.0055694580078125 36.75 42.8)" id="gradient0">
      <stop offset="0" stop-color="#419FDD"/>
      <stop offset="1" stop-color="#366FBF"/>
    </linearGradient>
    <linearGradient gradientUnits="userSpaceOnUse" x1="-819.2" x2="819.2" spreadMethod="pad" gradientTransform="matrix(-0.0023040771484375 0.0085906982421875 -0.010772705078125 -0.0029144287109375 33 23.65)" id="gradient1">
      <stop offset="0" stop-color="#419FDD"/>
      <stop offset="1" stop-color="#366FBF"/>
    </linearGradient>
    <linearGradient gradientUnits="userSpaceOnUse" x1="-819.2" x2="819.2" spreadMethod="pad" gradientTransform="matrix(0.0120849609375 0.0209197998046875 -0.0152740478515625 0.008819580078125 36.05 29.7)" id="gradient2">
      <stop offset="0" stop-color="#419FDD"/>
      <stop offset="1" stop-color="#366FBF"/>
    </linearGradient>
  </defs>
  <g>
    <path stroke="none" fill="#353541" d="M51.55 24.15 Q56 23.05 58.2 28.1 L58.2 28.15 62.05 37.2 Q63.3 40 62.3 42.05 61.65 44.25 58.8 45.5 L49.75 49.5 Q47 50.7 45 50.15 44 51.9 41.7 53.2 L41.65 53.25 Q32.5 58.2 22.75 58.4 L22.7 58.4 Q15.95 58.6 15.05 53.05 L15.1 53.2 14.55 51.2 11.5 50.05 11.6 50.05 Q8.8 48.7 6.45 46.4 1 40.95 1 33.35 1 25.75 6.4 20.4 L6.45 20.3 Q8.4 18.3 10.75 17.05 L10.8 17.05 Q11.7 16.5 12.75 16.15 L12.8 16.1 Q14.65 15.35 16.8 15.1 L17.65 11.85 17.65 11.9 Q18.75 6.3 25.35 6.9 35.2 7.7 44 11.85 L44.05 11.85 Q49.5 14.5 47.85 20.05 L47.9 20 46.2 26.25 49.3 24.85 49.7 24.7 49.95 24.65 51.15 24.25 51.5 24.15 51.55 24.15"/>
    <path stroke="none" fill="#8FCAF0" d="M50.9 28.5 L51.3 28.4 51.5 28.3 52.15 28.1 Q53.7 27.85 54.5 29.7 L58.35 38.75 Q59.35 40.9 57.15 41.85 L48.1 45.85 Q46.3 46.65 45.4 45.45 L45 44.9 44.9 44.6 44.75 44.3 53.45 40.35 Q55.65 39.45 54.65 37.25 L50.9 28.5"/>
    <path stroke="none" fill="#419FDD" d="M50.9 28.5 L54.65 37.25 Q55.65 39.45 53.45 40.35 L44.75 44.3 41 35.55 Q40 33.3 42.2 32.4 L50.9 28.5"/>
    <path stroke="none" fill="url(#gradient0)" d="M40.75 43.3 Q41.05 45.3 38.9 46.5 30.6 51 21.75 51.2 18.65 51.3 18.1 48.95 L16.55 43.2 Q16.2 41.2 18.35 40.65 L36.2 35.85 Q38.5 35.2 39.15 37.5 L40.75 43.3"/>
    <path stroke="none" fill="#8FCAF0" d="M40.75 43.3 L41.5 46.1 Q42.1 48.4 39.75 49.7 31.45 54.2 22.6 54.4 19.5 54.5 18.95 52.15 L16.65 43.6 16.55 43.2 18.1 48.95 Q18.65 51.3 21.75 51.2 30.6 51 38.9 46.5 41.05 45.3 40.75 43.3"/>
    <path stroke="none" fill="#8FCAF0" d="M20.75 15.7 L21.5 12.9 Q22.1 10.6 25 10.85 34.15 11.6 42.3 15.45 44.65 16.6 44 18.95 L43 22.75 43.15 22.05 Q43.8 19.7 41.45 18.55 33.3 14.7 24.15 13.95 21.45 13.7 20.75 15.7"/>
    <path stroke="none" fill="url(#gradient1)" d="M20.75 15.7 Q21.45 13.7 24.15 13.95 33.3 14.7 41.45 18.55 43.8 19.7 43.15 22.05 L43 22.75 41.7 27.5 41.7 27.65 41.65 27.75 41.55 28.05 Q40.8 29.75 38.75 29.25 L20.85 24.45 Q18.6 23.85 19.15 21.6 L20.75 15.7"/>
    <path stroke="none" fill="url(#gradient2)" d="M14.2 19.85 Q15.7 19.25 17.4 19.05 L18.9 18.9 19.9 18.9 20.75 18.9 21.05 18.9 22.35 18.95 22.8 19 Q27.7 19.25 31.9 20.55 35.15 21.55 38 23.15 45.55 27.35 45.55 33.35 45.55 39.3 38 43.55 31.6 47.1 23.1 47.7 L22.35 47.75 20.95 47.8 20.75 47.8 19.9 47.8 18.9 47.8 16.25 47.5 Q14.7 47.15 13.3 46.45 L22.75 36.8 Q27 32.6 22.75 28.45 L14.2 19.85"/>
    <path stroke="none" fill="#419FDD" d="M14.2 19.85 L22.75 28.45 Q27 32.6 22.75 36.8 L13.3 46.45 Q11.1 45.4 9.25 43.55 5 39.3 5 33.35 5 27.35 9.25 23.15 10.8 21.55 12.65 20.55 L14.2 19.85"/>
    <path stroke="none" fill="#8FCAF0" d="M28.4 37.9 L27.65 35.2 Q27 32.85 29.35 32.2 L37.15 30.1 Q39.5 29.5 40.1 31.85 L40.85 34.55 Q41.45 36.9 39.1 37.5 L31.35 39.6 Q29 40.25 28.4 37.9"/>
    <path stroke="none" fill="#2F496D" d="M18.55 35.35 Q16.9 37 14.5 37 12.15 37 10.5 35.35 9.4 34.25 9.05 32.9 8.9 32.25 9.25 31.75 9.5 31.2 10.15 31.05 L11.3 31.2 Q11.8 31.5 11.95 32.1 L12.65 33.2 Q13.45 34 14.5 34 15.6 34 16.45 33.2 L17.15 32.05 Q17.35 31.45 17.9 31.15 L19 31.1 19.95 31.8 Q20.2 32.35 20 32.95 19.55 34.3 18.55 35.35"/>
  </g>
</svg>