<svg width="64" height="64" xmlns="http://www.w3.org/2000/svg" xmlns:xlink="http://www.w3.org/1999/xlink">
  <defs>
    <linearGradient gradientUnits="userSpaceOnUse" x1="-819.2" x2="819.2" spreadMethod="pad" gradientTransform="matrix(0.0076446533203125 -0.0132904052734375 0.0096435546875 0.0055694580078125 38.25 40.8)" id="gradient0">
      <stop offset="0" stop-color="#419FDD"/>
      <stop offset="1" stop-color="#366FBF"/>
    </linearGradient>
    <linearGradient gradientUnits="userSpaceOnUse" x1="-819.2" x2="819.2" spreadMethod="pad" gradientTransform="matrix(-0.0023040771484375 0.0085906982421875 -0.010772705078125 -0.0029144287109375 34.5 25.65)" id="gradient1">
      <stop offset="0" stop-color="#419FDD"/>
      <stop offset="1" stop-color="#366FBF"/>
    </linearGradient>
    <linearGradient gradientUnits="userSpaceOnUse" x1="-819.2" x2="819.2" spreadMethod="pad" gradientTransform="matrix(0.0120849609375 0.0209197998046875 -0.0152740478515625 0.008819580078125 37.55 29.7)" id="gradient2">
      <stop offset="0" stop-color="#419FDD"/>
      <stop offset="1" stop-color="#366FBF"/>
    </linearGradient>
  </defs>
  <g>
    <path stroke="none" fill="#353541" d="M52.55 21.6 L59.5 28.6 59.45 28.55 Q61.7 30.75 61.5 33.1 61.7 35.35 59.5 37.55 L52.55 44.6 52.5 44.7 Q49.7 47.35 47.05 46.8 46.4 49.45 43.2 51.2 L43.15 51.25 Q34 56.2 24.25 56.4 L24.2 56.4 Q17.65 56.6 16.6 51.35 14.7 50.9 13 50.05 L13.1 50.05 Q10.3 48.7 7.95 46.4 2.5 40.95 2.5 33.35 2.5 25.75 7.9 20.4 L7.95 20.3 Q9.9 18.3 12.25 17.05 L12.3 17.05 Q13.2 16.5 14.25 16.15 L14.3 16.1 Q16.25 15.35 18.45 15.1 L18.8 15.05 19.15 13.85 19.15 13.9 Q20.25 8.3 26.85 8.9 36.7 9.7 45.5 13.85 L45.55 13.85 Q49.75 15.9 49.75 19.65 51.1 20.15 52.55 21.6"/>
    <path stroke="none" fill="#8FCAF0" d="M46 41.55 L52.65 34.75 Q54.35 33.05 52.65 31.4 L45.95 24.65 46.25 24.35 46.45 24.2 46.95 23.8 Q48.3 23 49.7 24.4 L56.65 31.4 Q58.35 33.05 56.65 34.75 L49.7 41.8 Q48.3 43.15 47 42.4 L46.5 42.05 46.25 41.8 46 41.55"/>
    <path stroke="none" fill="#419FDD" d="M46 41.55 L39.3 34.8 Q37.55 33.05 39.3 31.4 L45.95 24.65 52.65 31.4 Q54.35 33.05 52.65 34.75 L46 41.55"/>
    <path stroke="none" fill="url(#gradient0)" d="M42.25 41.3 Q42.55 43.3 40.4 44.5 32.1 49 23.25 49.2 20.15 49.3 19.6 46.95 L18.05 41.2 Q17.7 39.2 19.85 38.65 L37.7 33.85 Q40 33.2 40.65 35.5 L42.25 41.3"/>
    <path stroke="none" fill="#8FCAF0" d="M42.25 41.3 L43 44.1 Q43.6 46.4 41.25 47.7 32.95 52.2 24.1 52.4 21 52.5 20.45 50.15 L18.15 41.6 18.05 41.2 19.6 46.95 Q20.15 49.3 23.25 49.2 32.1 49 40.4 44.5 42.55 43.3 42.25 41.3"/>
    <path stroke="none" fill="url(#gradient1)" d="M22.25 17.7 Q22.95 15.7 25.65 15.95 34.8 16.7 42.95 20.55 45.3 21.7 44.65 24.05 L44.5 24.75 43.2 29.5 43.2 29.65 43.15 29.75 43.05 30.05 Q42.3 31.75 40.25 31.25 L22.35 26.45 Q20.1 25.85 20.65 23.6 L22.25 17.7"/>
    <path stroke="none" fill="#8FCAF0" d="M22.25 17.7 L23 14.9 Q23.6 12.6 26.5 12.85 35.65 13.6 43.8 17.45 46.15 18.6 45.5 20.95 L44.5 24.75 44.65 24.05 Q45.3 21.7 42.95 20.55 34.8 16.7 25.65 15.95 22.95 15.7 22.25 17.7"/>
    <path stroke="none" fill="url(#gradient2)" d="M15.7 19.85 L18.9 19.05 20.4 18.9 21.4 18.9 22.25 18.9 22.55 18.9 23.85 18.95 24.3 19 Q29.2 19.25 33.4 20.55 36.65 21.55 39.5 23.15 47.05 27.35 47.05 33.35 47.05 39.3 39.5 43.55 33.1 47.1 24.6 47.7 L23.85 47.75 22.45 47.8 22.25 47.8 21.4 47.8 20.4 47.8 17.75 47.5 14.8 46.45 24.25 36.8 Q28.5 32.6 24.25 28.45 L15.7 19.85"/>
    <path stroke="none" fill="#419FDD" d="M15.7 19.85 L24.25 28.45 Q28.5 32.6 24.25 36.8 L14.8 46.45 Q12.6 45.4 10.75 43.55 6.5 39.3 6.5 33.35 6.5 27.35 10.75 23.15 12.3 21.55 14.15 20.55 14.9 20.15 15.7 19.85"/>
    <path stroke="none" fill="#8FCAF0" d="M29.9 37.9 L29.15 35.2 Q28.5 32.85 30.85 32.2 L38.65 30.1 Q41 29.5 41.6 31.85 L42.35 34.55 Q42.95 36.9 40.6 37.5 L32.85 39.6 Q30.5 40.25 29.9 37.9"/>
    <path stroke="none" fill="#353541" d="M18.45 34.6 Q18.9 34.15 18.9 33.5 18.9 32.8 18.45 32.35 17.95 31.9 17.3 31.9 16.65 31.9 16.2 32.35 15.75 32.8 15.75 33.5 15.75 34.15 16.2 34.6 16.65 35.1 17.3 35.1 17.95 35.1 18.45 34.6 M18.55 37.15 Q17.35 38.3 15.75 38.3 14.1 38.3 12.95 37.15 11.75 35.95 11.75 34.3 11.75 32.65 12.95 31.45 14.1 30.3 15.75 30.3 17.35 30.3 18.55 31.45 19.75 32.65 19.75 34.3 19.75 35.95 18.55 37.15"/>
    <path stroke="none" fill="#5D5D67" d="M18.45 34.6 Q17.95 35.1 17.3 35.1 16.65 35.1 16.2 34.6 15.75 34.15 15.75 33.5 15.75 32.8 16.2 32.35 16.65 31.9 17.3 31.9 17.95 31.9 18.45 32.35 18.9 32.8 18.9 33.5 18.9 34.15 18.45 34.6"/>
  </g>
</svg>