<svg width="64" height="64" xmlns="http://www.w3.org/2000/svg" xmlns:xlink="http://www.w3.org/1999/xlink">
  <defs>
    <linearGradient gradientUnits="userSpaceOnUse" x1="-819.2" x2="819.2" spreadMethod="pad" gradientTransform="matrix(-0.002105712890625 -0.0078582763671875 0.01300048828125 -0.00347900390625 27.5 49.05)" id="gradient0">
      <stop offset="0" stop-color="#474758"/>
      <stop offset="1" stop-color="#353546"/>
    </linearGradient>
    <linearGradient gradientUnits="userSpaceOnUse" x1="-819.2" x2="819.2" spreadMethod="pad" gradientTransform="matrix(-0.001953125 -0.0047454833984375 0.0124359130859375 -0.0051116943359375 39.7 47.85)" id="gradient1">
      <stop offset="0" stop-color="#474758"/>
      <stop offset="1" stop-color="#353546"/>
    </linearGradient>
    <linearGradient gradientUnits="userSpaceOnUse" x1="-819.2" x2="819.2" spreadMethod="pad" gradientTransform="matrix(0.0090789794921875 0.0122222900390625 -0.0122222900390625 0.0090789794921875 23.8 19.5)" id="gradient2">
      <stop offset="0" stop-color="#FFFFFF"/>
      <stop offset="1" stop-color="#BBC4CB"/>
    </linearGradient>
  </defs>
  <g>
    <path stroke="none" fill="#353541" d="M31.65 7.35 L32.05 7.75 32.25 7.5 32.85 6.9 33.05 6.75 33.1 6.7 33.15 6.65 33.2 6.6 Q37.2 3 42.6 3 L42.65 3 Q48.4 3.05 52.55 7.15 L52.6 7.2 Q56.7 11.35 56.75 17.1 L56.75 17.15 Q56.75 22.8 52.85 26.9 L52.6 27.15 52.45 27.35 50.95 28.75 Q52.75 32 52.75 36.15 L52.55 38.8 Q51.85 42.95 49.2 46.1 L49.15 46.15 48.5 46.85 Q49.35 48.2 49.6 49.95 L49.6 50.05 Q49.9 53.05 48.05 55.5 L47.95 55.65 Q46 58 43 58.45 L42.85 58.45 Q40.75 58.65 38.95 57.85 L38.35 58.75 38.25 58.9 Q36.3 61.25 33.3 61.7 L33.15 61.7 Q30.05 61.95 27.65 60.1 22.7 56.25 20 50.95 15.6 49.95 12.35 46.15 L12.3 46.1 Q9.55 42.9 8.95 38.75 L8.95 38.8 8.75 36.15 Q8.8 31.05 11.45 27.2 L11.25 27 11.15 26.9 Q7.3 22.8 7.3 17.15 7.3 11.4 11.45 7.2 L11.5 7.2 Q15.6 3 21.45 3 27.15 3 31.25 6.95 L31.3 7 31.65 7.35"/>
    <path stroke="none" fill="url(#gradient0)" d="M34.55 51.3 Q35.7 52.2 35.9 53.7 36.05 55.15 35.15 56.35 34.2 57.5 32.75 57.7 31.25 57.85 30.1 56.95 21.95 50.6 20.75 39.65 20.55 38.15 21.5 37 22.45 35.85 23.9 35.7 25.4 35.5 26.55 36.45 27.7 37.4 27.9 38.85 28.75 46.7 34.55 51.3"/>
    <path stroke="none" fill="url(#gradient1)" d="M44.25 48.05 Q45.4 48.95 45.6 50.45 45.75 51.9 44.85 53.1 43.9 54.25 42.45 54.45 40.95 54.6 39.8 53.7 31.65 47.35 30.45 36.4 30.25 34.9 31.2 33.75 32.15 32.6 33.6 32.45 35.1 32.25 36.25 33.2 37.4 34.15 37.6 35.6 38.45 43.45 44.25 48.05"/>
    <path stroke="none" fill="url(#gradient2)" d="M14.4 24.5 L14.05 24.15 Q11.3 21.2 11.3 17.15 11.3 13 14.3 10 17.25 7 21.45 7 25.55 7 28.45 9.8 L28.8 10.15 Q34.1 15.5 35.75 21.25 37.35 27.1 34.4 30.1 31.4 33.1 25.6 31.4 19.75 29.85 14.4 24.5"/>
    <path stroke="none" fill="#525262" d="M12.9 38.15 L12.75 36.15 Q12.75 31.8 15.35 28.7 18 25.65 21.65 24.9 30.75 23.2 38.95 24.8 43.5 25.65 46.1 28.7 48.75 31.8 48.75 36.15 L48.6 38.15 Q48.1 35.05 46.1 32.7 43.5 29.65 38.95 28.8 30.75 27.2 21.65 28.9 18 29.65 15.35 32.7 13.35 35.05 12.9 38.15"/>
    <path stroke="none" fill="#474758" d="M12.9 38.15 Q13.35 35.05 15.35 32.7 18 29.65 21.65 28.9 30.75 27.2 38.95 28.8 43.5 29.65 46.1 32.7 48.1 35.05 48.6 38.15 48.1 41.2 46.1 43.5 43.5 46.6 39.65 47.2 30.95 48.9 21.6 47.2 18 46.6 15.35 43.5 13.35 41.2 12.9 38.15"/>
    <path stroke="none" fill="#FFFFFF" d="M49.6 24.5 Q44.3 29.8 38.5 31.4 32.65 33.05 29.7 30.05 26.7 27.1 28.35 21.25 29.95 15.45 35.25 10.15 L35.6 9.8 Q38.55 7 42.6 7 46.75 7.05 49.75 10 52.7 13 52.75 17.15 52.75 21.2 49.95 24.15 L49.6 24.5"/>
    <path stroke="none" fill="#FFFFFF" d="M27.25 38.2 Q25.65 39.8 23.3 39.8 21.05 39.8 19.45 38.2 18.4 37.15 18.05 35.85 17.9 35.2 18.25 34.75 18.5 34.2 19.1 34.05 L20.2 34.2 Q20.7 34.5 20.85 35.1 L21.55 36.15 Q22.3 36.9 23.3 36.9 24.4 36.9 25.2 36.15 L25.9 35.05 Q26.05 34.45 26.6 34.15 L27.65 34.1 28.6 34.8 Q28.85 35.3 28.65 35.9 28.2 37.2 27.25 38.2"/>
  </g>
</svg>