<svg width="64" height="64" xmlns="http://www.w3.org/2000/svg" xmlns:xlink="http://www.w3.org/1999/xlink">
  <defs>
    <linearGradient gradientUnits="userSpaceOnUse" x1="-819.2" x2="819.2" spreadMethod="pad" gradientTransform="matrix(-0.002105712890625 -0.0078582763671875 0.01300048828125 -0.00347900390625 27.5 45.05)" id="gradient0">
      <stop offset="0" stop-color="#474758"/>
      <stop offset="1" stop-color="#353546"/>
    </linearGradient>
    <linearGradient gradientUnits="userSpaceOnUse" x1="-819.2" x2="819.2" spreadMethod="pad" gradientTransform="matrix(-0.001953125 -0.0047454833984375 0.0124359130859375 -0.0051116943359375 39.7 43.85)" id="gradient1">
      <stop offset="0" stop-color="#474758"/>
      <stop offset="1" stop-color="#353546"/>
    </linearGradient>
    <linearGradient gradientUnits="userSpaceOnUse" x1="-819.2" x2="819.2" spreadMethod="pad" gradientTransform="matrix(0.0147247314453125 -0.003875732421875 0.003875732421875 0.0147247314453125 19.15 25.6)" id="gradient2">
      <stop offset="0" stop-color="#FFFFFF"/>
      <stop offset="1" stop-color="#BBC4CB"/>
    </linearGradient>
  </defs>
  <g>
    <path stroke="none" fill="#353541" d="M49.7 12.35 L49.8 12.35 Q55.3 13.5 58.55 18.05 61.9 22.65 61 28.5 L61 28.6 Q59.95 34.35 55.4 37.7 L55.35 37.75 Q53.15 39.35 50.7 40 L49.2 42.1 49.15 42.15 48.5 42.85 Q49.35 44.2 49.6 45.95 L49.6 46.05 Q49.9 49.05 48.05 51.5 L47.95 51.65 Q46 54 43 54.45 L42.85 54.45 Q40.75 54.65 38.95 53.85 L38.35 54.75 38.25 54.9 Q36.3 57.25 33.3 57.7 L33.15 57.7 Q30.05 57.95 27.65 56.1 22.7 52.25 20 46.95 15.6 45.95 12.35 42.15 L12.3 42.1 10.85 40.1 10.8 40.05 Q5.4 37.9 3.15 32.55 0.75 27.1 3 21.7 L3 21.65 Q5.05 16.45 10.1 14.15 L10.5 13.95 10.75 13.85 Q18.8 10.45 25.6 11.2 L25.7 11.2 Q30.3 11.75 33.1 13.7 L34 13.35 33.95 13.35 Q40.4 10.9 48.8 12.2 L49.7 12.35"/>
    <path stroke="none" fill="url(#gradient0)" d="M34.55 47.3 Q35.7 48.2 35.9 49.7 36.05 51.15 35.15 52.35 34.2 53.5 32.75 53.7 31.25 53.85 30.1 52.95 21.95 46.6 20.75 35.65 20.55 34.15 21.5 33 22.45 31.85 23.9 31.7 25.4 31.5 26.55 32.45 27.7 33.4 27.9 34.85 28.75 42.7 34.55 47.3"/>
    <path stroke="none" fill="url(#gradient1)" d="M44.25 44.05 Q45.4 44.95 45.6 46.45 45.75 47.9 44.85 49.1 43.9 50.25 42.45 50.45 40.95 50.6 39.8 49.7 31.65 43.35 30.45 32.4 30.25 30.9 31.2 29.75 32.15 28.6 33.6 28.45 35.1 28.25 36.25 29.2 37.4 30.15 37.6 31.6 38.45 39.45 44.25 44.05"/>
    <path stroke="none" fill="url(#gradient2)" d="M20.3 36.2 L19.85 36.4 Q16.05 37.85 12.3 36.35 8.45 34.8 6.8 30.95 5.1 27.05 6.7 23.15 8.2 19.35 11.9 17.7 L12.3 17.5 Q19.3 14.55 25.2 15.15 31.25 15.9 32.95 19.7 34.6 23.6 30.85 28.4 27.25 33.2 20.3 36.2"/>
    <path stroke="none" fill="#525262" d="M12.9 34.15 L12.75 32.15 Q12.75 27.8 15.35 24.7 18 21.65 21.65 20.9 30.75 19.2 38.95 20.8 43.5 21.65 46.1 24.7 48.75 27.8 48.75 32.15 L48.6 34.15 Q48.1 31.05 46.1 28.7 43.5 25.65 38.95 24.8 30.75 23.2 21.65 24.9 18 25.65 15.35 28.7 13.35 31.05 12.9 34.15"/>
    <path stroke="none" fill="#474758" d="M12.9 34.15 Q13.35 31.05 15.35 28.7 18 25.65 21.65 24.9 30.75 23.2 38.95 24.8 43.5 25.65 46.1 28.7 48.1 31.05 48.6 34.15 48.1 37.2 46.1 39.5 43.5 42.6 39.65 43.2 30.95 44.9 21.6 43.2 18 42.6 15.35 39.5 13.35 37.2 12.9 34.15"/>
    <path stroke="none" fill="#FFFFFF" d="M45.2 36.25 Q37.8 35.05 33.1 31.25 28.35 27.5 29.05 23.35 29.65 19.2 35.35 17.1 41 15 48.4 16.2 L48.9 16.25 Q52.95 17.05 55.3 20.35 57.7 23.7 57.05 27.9 56.3 32.05 53 34.5 49.7 36.9 45.65 36.3 L45.2 36.25"/>
    <path stroke="none" fill="#FABA2D" d="M26 33.3 Q26.45 32.85 26.45 32.2 26.45 31.5 26 31.05 25.5 30.6 24.85 30.6 24.2 30.6 23.75 31.05 23.3 31.5 23.3 32.2 23.3 32.85 23.75 33.3 24.2 33.8 24.85 33.8 25.5 33.8 26 33.3 M26.1 35.85 Q24.9 37 23.3 37 21.65 37 20.5 35.85 19.3 34.65 19.3 33 19.3 31.35 20.5 30.15 21.65 29 23.3 29 24.9 29 26.1 30.15 27.3 31.35 27.3 33 27.3 34.65 26.1 35.85"/>
    <path stroke="none" fill="#FFFFFF" d="M26 33.3 Q25.5 33.8 24.85 33.8 24.2 33.8 23.75 33.3 23.3 32.85 23.3 32.2 23.3 31.5 23.75 31.05 24.2 30.6 24.85 30.6 25.5 30.6 26 31.05 26.45 31.5 26.45 32.2 26.45 32.85 26 33.3"/>
  </g>
</svg>