<svg width="64" height="64" xmlns="http://www.w3.org/2000/svg" xmlns:xlink="http://www.w3.org/1999/xlink">
  <defs>
    <linearGradient gradientUnits="userSpaceOnUse" x1="-819.2" x2="819.2" spreadMethod="pad" gradientTransform="matrix(-0.013427734375 0.0077972412109375 -0.0087890625 -0.0153045654296875 47.35 45.5)" id="gradient0">
      <stop offset="0" stop-color="#2CC987"/>
      <stop offset="1" stop-color="#1AA074"/>
    </linearGradient>
  </defs>
  <g>
    <path stroke="none" fill="#353541" d="M47.05 11.9 Q49.35 14 50.5 20.05 53.1 23.3 54.45 27.05 58.4 27.55 61.45 31.35 L61.45 31.4 Q65.2 36.1 63.4 42 L63.2 42.5 59.6 50.25 Q62.25 52.05 63.3 54.95 L63.55 55.75 Q64.25 59.8 61.35 62 59.65 63.65 55.7 63.95 L55.4 63.95 52.6 63.95 51.95 64 8.6 64 8.3 64 Q4.3 63.7 2.6 62.05 -0.3 59.85 0.4 55.8 L0.65 54.9 Q1.7 52.05 4.4 50.3 L0.8 42.55 0.6 42.05 Q-1.25 36.15 2.5 31.45 L2.55 31.4 Q4.2 29.35 6.1 28.3 6.3 28.15 6.55 28.05 L6.3 27.7 Q4.65 24.75 4.65 21.2 4.65 15.75 8.5 11.9 12.35 8 17.75 8 22 8 25.3 10.4 L30.35 10.25 Q33.55 8 37.7 8 43.1 8 47 11.9 L47.05 11.9"/>
    <path stroke="none" fill="#139167" d="M8.6 60 L16 42.3 45.3 42.3 51.95 60 8.6 60"/>
    <path stroke="none" fill="#1AA074" d="M28.55 49.4 Q21.35 50.2 17.15 47.95 L18.6 55.95 Q19.2 59.55 15.35 60 L8.6 60 Q3.8 59.65 4.35 56.45 5.55 53.45 9.7 52.25 L4.4 40.85 Q3.2 37 5.6 33.9 9.15 29.55 14.25 31.85 22.05 35 29.4 43.95 L28.55 49.4"/>
    <path stroke="none" fill="url(#gradient0)" d="M35.45 49.35 L34.6 43.9 Q41.9 34.95 49.7 31.8 54.85 29.5 58.35 33.85 60.75 36.95 59.6 40.8 L54.3 52.2 Q58.4 53.4 59.6 56.45 60.15 59.6 55.4 59.95 L48.6 59.95 Q44.8 59.5 45.4 55.9 L46.85 47.95 Q42.6 50.15 35.45 49.35"/>
    <path stroke="none" fill="#2CC987" d="M9.1 38.4 L9 35.9 Q9 26.95 15.25 20.6 21.6 14.2 30.5 14.2 39.35 14.2 45.7 20.6 51.95 26.95 51.95 35.9 51.95 43.3 47.6 49 L47.35 49.35 Q46.55 42 41.1 36.65 34.8 30.25 25.95 30.25 17.05 30.25 10.7 36.65 L9.1 38.4"/>
    <path stroke="none" fill="#FFFFFF" d="M9.1 38.4 L10.7 36.65 Q17.05 30.25 25.95 30.25 34.8 30.25 41.1 36.65 46.55 42 47.35 49.35 L46.75 50.05 45.7 51.2 Q41.7 55.1 36.9 56.6 33.8 57.5 30.5 57.5 27.15 57.5 24.05 56.6 19.2 55.1 15.25 51.2 L14.25 50.1 13.45 49.05 Q9.75 44.4 9.1 38.4"/>
    <path stroke="none" fill="#2CC987" d="M46.8 21.2 Q46.8 24.95 44.15 27.65 41.45 30.35 37.7 30.35 33.9 30.35 31.25 27.65 28.55 24.95 28.55 21.2 28.55 17.4 31.25 14.7 33.9 12 37.7 12 41.45 12 44.15 14.7 46.8 17.4 46.8 21.2"/>
    <path stroke="none" fill="#2CC987" d="M26.85 21.2 Q26.85 24.95 24.15 27.65 21.5 30.35 17.75 30.35 13.95 30.35 11.3 27.65 8.6 24.95 8.6 21.2 8.6 17.4 11.3 14.7 13.95 12 17.75 12 21.5 12 24.15 14.7 26.85 17.4 26.85 21.2"/>
    <path stroke="none" fill="#353541" d="M39.05 21.15 Q39.55 20.65 39.55 19.9 39.55 19.1 39.05 18.55 38.45 18.05 37.7 18.05 37 18.05 36.45 18.55 35.95 19.1 35.95 19.9 35.95 20.65 36.45 21.15 37 21.7 37.7 21.7 38.45 21.7 39.05 21.15 M39.15 24.1 Q37.8 25.4 35.95 25.4 34.05 25.4 32.75 24.1 31.4 22.7 31.4 20.8 31.4 18.9 32.75 17.55 34.05 16.2 35.95 16.2 37.8 16.2 39.15 17.55 40.55 18.9 40.55 20.8 40.55 22.7 39.15 24.1"/>
    <path stroke="none" fill="#5D5D67" d="M39.05 21.15 Q38.45 21.7 37.7 21.7 37 21.7 36.45 21.15 35.95 20.65 35.95 19.9 35.95 19.1 36.45 18.55 37 18.05 37.7 18.05 38.45 18.05 39.05 18.55 39.55 19.1 39.55 19.9 39.55 20.65 39.05 21.15"/>
    <path stroke="none" fill="#353541" d="M17.9 21.2 Q18.4 20.7 18.4 19.95 18.4 19.15 17.9 18.65 17.35 18.1 16.6 18.1 15.85 18.1 15.3 18.65 14.8 19.15 14.8 19.95 14.8 20.7 15.3 21.2 15.85 21.8 16.6 21.8 17.35 21.8 17.9 21.2 M18 24.15 Q16.65 25.45 14.8 25.45 12.95 25.45 11.65 24.15 10.25 22.75 10.25 20.9 10.25 19 11.65 17.6 12.95 16.3 14.8 16.3 16.65 16.3 18 17.6 19.4 19 19.4 20.9 19.4 22.75 18 24.15"/>
    <path stroke="none" fill="#5D5D67" d="M17.9 21.2 Q17.35 21.8 16.6 21.8 15.85 21.8 15.3 21.2 14.8 20.7 14.8 19.95 14.8 19.15 15.3 18.65 15.85 18.1 16.6 18.1 17.35 18.1 17.9 18.65 18.4 19.15 18.4 19.95 18.4 20.7 17.9 21.2"/>
    <path stroke="none" fill="#2CC987" d="M41.45 54.95 Q41.45 57 40 58.45 38.55 59.95 36.5 59.95 34.4 59.95 32.9 58.45 31.5 57 31.5 54.95 31.5 52.85 32.9 51.35 34.4 49.9 36.5 49.9 38.55 49.9 40 51.35 41.45 52.85 41.45 54.95"/>
    <path stroke="none" fill="#2CC987" d="M23.95 54.95 Q23.95 57 22.5 58.45 21.05 59.95 19 59.95 16.95 59.95 15.4 58.45 13.95 57 13.95 54.95 13.95 52.85 15.4 51.35 16.95 49.9 19 49.9 21.05 49.9 22.5 51.35 23.95 52.85 23.95 54.95"/>
  </g>
</svg>