<svg width="64" height="64" xmlns="http://www.w3.org/2000/svg" xmlns:xlink="http://www.w3.org/1999/xlink">
  <defs/>
  <g>
    <path stroke="none" fill="#353541" d="M0 13.2 Q0 7.75 3.85 3.9 L3.9 3.9 Q7.65 0 13.1 0 17.7 0 21.1 2.85 21.05 2.45 21.8 2.35 L21.9 2.35 25.95 2.1 Q29 0 32.95 0 38.35 0 42.25 3.9 46 7.75 46 13.2 46.5 12.9 48.15 15.45 L48.35 15.8 Q51.45 22.1 51.15 28.05 51.05 31.25 50.5 33.85 51.95 35.15 54.1 36.85 L53.8 36.6 Q56.5 38.25 58.95 42.05 L59.2 42.45 59.3 42.65 62.4 48.8 62.35 48.8 Q66.15 56.2 61.1 58.95 L61.05 59 Q58.7 60.65 56.35 60.45 55.75 61.85 54.65 62.65 52.95 64.3 49.75 63.95 L49.35 63.85 Q45.25 63.15 43.95 58.5 L43.95 58.4 42.6 53.05 40.95 54.25 Q40.95 57.35 38.2 58.95 L38.15 59 Q35.8 60.65 33.4 60.45 32.8 61.85 31.7 62.65 30.05 64.3 26.85 63.95 L26.45 63.85 Q22.35 63.15 21.05 58.5 L20.95 58.1 20.15 54.9 Q19.05 55.6 18.15 55.7 14.75 56.55 11.6 54.85 L11.5 54.8 Q3.45 50.8 2.1 38.9 L2.05 37.1 Q0.9 34.15 0.55 30.85 L0.55 30.75 0.4 27.9 Q0.4 23.5 1.7 19.65 0 16.75 0 13.2"/>
    <path stroke="none" fill="#139167" d="M35.9 50.6 Q37.8 54.3 35.85 55.7 L31.8 55.8 Q30.2 54.8 29.95 57.75 29.75 60.25 27.3 59.95 25.5 59.55 24.9 57.4 L24.9 57.3 22 46.3 Q14.6 46 9.25 39.1 L10.35 39.1 10.35 31.3 19.8 31.3 Q23.2 35.95 28.6 39.9 L28.7 39.95 Q30.8 41.3 32.7 44.25 L32.8 44.45 35.9 50.6"/>
    <path stroke="none" fill="#2CC987" d="M58.8 50.6 Q60.7 54.3 58.75 55.7 L54.75 55.8 Q53.1 54.8 52.85 57.75 52.65 60.25 50.2 59.95 48.4 59.55 47.8 57.4 L47.8 57.3 44.9 46.3 Q37.5 46 32.15 39.1 L33.25 39.1 33.25 31.3 42.75 31.3 Q46.1 35.95 51.5 39.9 L51.6 39.95 Q53.7 41.3 55.65 44.25 L55.75 44.45 58.8 50.6"/>
    <path stroke="none" fill="#2CC987" d="M4.5 30.4 L4.4 27.9 Q4.4 18.95 10.6 12.6 16.95 6.2 25.8 6.2 34.6 6.2 40.95 12.6 47.15 18.95 47.15 27.9 47.15 35.3 42.85 41 L42.6 41.35 Q41.8 34 36.35 28.65 30.1 22.25 21.25 22.25 12.4 22.25 6.05 28.65 L4.5 30.4"/>
    <path stroke="none" fill="#FFFFFF" d="M4.5 30.4 L6.05 28.65 Q12.4 22.25 21.25 22.25 30.1 22.25 36.35 28.65 41.8 34 42.6 41.35 L42 42.05 40.95 43.2 Q36.95 47.1 32.15 48.6 29.1 49.5 25.8 49.5 22.45 49.5 19.35 48.6 14.55 47.1 10.6 43.2 L9.6 42.1 8.8 41.05 Q5.15 36.4 4.5 30.4"/>
    <path stroke="none" fill="#2CC987" d="M42.05 13.2 Q42.05 16.95 39.4 19.65 36.7 22.35 32.95 22.35 29.2 22.35 26.55 19.65 23.85 16.95 23.85 13.2 23.85 9.4 26.55 6.7 29.2 4 32.95 4 36.7 4 39.4 6.7 42.05 9.4 42.05 13.2"/>
    <path stroke="none" fill="#2CC987" d="M22.15 13.2 Q22.15 16.95 19.45 19.65 16.85 22.35 13.1 22.35 9.3 22.35 6.65 19.65 4 16.95 4 13.2 4 9.4 6.65 6.7 9.3 4 13.1 4 16.85 4 19.45 6.7 22.15 9.4 22.15 13.2"/>
    <path stroke="none" fill="#353541" d="M34.3 13.15 Q34.8 12.65 34.8 11.9 34.8 11.1 34.3 10.55 33.7 10.05 32.95 10.05 32.25 10.05 31.7 10.55 31.2 11.1 31.2 11.9 31.2 12.65 31.7 13.15 32.25 13.7 32.95 13.7 33.7 13.7 34.3 13.15 M34.4 16.1 Q33.05 17.4 31.2 17.4 29.35 17.4 28.05 16.1 26.7 14.7 26.7 12.8 26.7 10.9 28.05 9.55 29.35 8.2 31.2 8.2 33.05 8.2 34.4 9.55 35.8 10.9 35.8 12.8 35.8 14.7 34.4 16.1"/>
    <path stroke="none" fill="#5D5D67" d="M34.3 13.15 Q33.7 13.7 32.95 13.7 32.25 13.7 31.7 13.15 31.2 12.65 31.2 11.9 31.2 11.1 31.7 10.55 32.25 10.05 32.95 10.05 33.7 10.05 34.3 10.55 34.8 11.1 34.8 11.9 34.8 12.65 34.3 13.15"/>
    <path stroke="none" fill="#353541" d="M13.35 16.15 Q12 17.45 10.15 17.45 8.3 17.45 7 16.15 5.6 14.75 5.6 12.9 5.6 11 7 9.6 8.3 8.3 10.15 8.3 12 8.3 13.35 9.6 14.75 11 14.75 12.9 14.75 14.75 13.35 16.15 M13.25 13.2 Q13.75 12.7 13.75 11.95 13.75 11.15 13.25 10.65 12.7 10.1 11.95 10.1 11.2 10.1 10.65 10.65 10.15 11.15 10.15 11.95 10.15 12.7 10.65 13.2 11.2 13.8 11.95 13.8 12.7 13.8 13.25 13.2"/>
    <path stroke="none" fill="#5D5D67" d="M13.25 13.2 Q12.7 13.8 11.95 13.8 11.2 13.8 10.65 13.2 10.15 12.7 10.15 11.95 10.15 11.15 10.65 10.65 11.2 10.1 11.95 10.1 12.7 10.1 13.25 10.65 13.75 11.15 13.75 11.95 13.75 12.7 13.25 13.2"/>
    <path stroke="none" fill="#2CC987" d="M18.45 43 Q20.25 44.05 20.75 45.95 21.25 47.9 20.2 49.6 19.15 51.35 17.2 51.8 15.25 52.3 13.45 51.3 7.1 48 6 38.4 5.75 36.4 7.05 34.9 8.35 33.25 10.35 33.05 12.4 32.8 14 34.1 15.65 35.35 15.9 37.3 16.35 41.4 18.45 43"/>
    <path stroke="none" fill="#2CC987" d="M38.4 43 Q40.2 44.05 40.7 45.95 41.2 47.9 40.15 49.6 39.1 51.35 37.1 51.8 35.15 52.3 33.35 51.3 27.05 48 25.95 38.4 25.7 36.4 27 34.9 28.3 33.25 30.3 33.05 32.3 32.8 33.9 34.1 35.55 35.35 35.8 37.3 36.25 41.4 38.4 43"/>
  </g>
</svg>