<svg width="64" height="64" xmlns="http://www.w3.org/2000/svg" xmlns:xlink="http://www.w3.org/1999/xlink">
  <defs/>
  <g>
    <path stroke="none" fill="#353541" d="M2.95 17.3 Q5.9 14.5 10 14.5 14.05 14.5 17 17.35 L17.05 17.4 Q19.3 19.65 19.85 22.65 21.2 21.9 22.75 21.25 L22.75 21.2 Q32.6 17.05 43.4 20.6 54.15 24.15 59.45 33.3 64.8 42.4 62.05 51.8 62.55 54.05 62.55 55.75 L62.55 55.8 Q62.5 59.9 60.2 61.85 58.2 64.05 54.1 64 L11.05 64 10.85 64 Q5.35 63.7 3.2 60.95 0.3 58.2 1.3 52.95 L1.3 52.75 1.9 50.65 1.9 50.6 2.7 48.3 2.65 48.35 Q4.25 44.15 6.9 40.6 L7.15 40.35 Q7.15 36.85 6.2 33.8 4.4 33.05 2.9 31.55 L2.85 31.5 Q0 28.55 0 24.5 0 20.4 2.8 17.45 L2.95 17.3"/>
    <path stroke="none" fill="#525262" d="M17.25 49.15 Q16.9 50.55 15.7 51.35 14.35 52.15 12.95 51.8 11.45 51.5 10.7 50.25 9.9 48.9 10.25 47.5 12.45 37.85 9.15 30.3 8.5 28.9 9.1 27.55 9.65 26.1 11 25.5 12.35 24.9 13.75 25.5 15.15 26 15.75 27.35 20.05 36.9 17.25 49.15"/>
    <path stroke="none" fill="#474758" d="M5.7 51.8 L6.4 49.75 Q7.8 46.1 10.1 43 12.3 40.05 14.95 38.1 18.95 35.25 23.9 35 L25.25 35 26.4 35 26.85 35 29.35 35.1 Q36.35 35.65 42.2 38.1 46.85 40.05 50.9 43 L54.4 46.05 Q56.5 48.35 57.55 50.8 L58.05 52.4 Q58.55 54.3 58.55 55.75 L56.65 54.15 Q55.45 52.95 54.25 52.3 52.7 51.5 51.15 51.55 49.6 51.5 48.1 52.3 46.9 52.95 45.65 54.15 44.65 55.25 43.6 55.85 42.35 56.7 41.05 56.95 L40.2 57 Q37.6 57 34.8 54.15 33.6 52.95 32.4 52.3 L31.35 51.85 29.3 51.55 Q27.75 51.5 26.25 52.3 25.95 52.4 25.75 52.6 L23.8 54.15 21.75 55.85 Q20.05 57 18.35 57 15.75 57 12.95 54.15 L10.55 52.3 Q9 51.5 7.45 51.55 L5.7 51.8"/>
    <path stroke="none" fill="#525262" d="M5.7 51.8 L7.45 51.55 Q9 51.5 10.55 52.3 L12.95 54.15 Q15.75 57 18.35 57 20.05 57 21.75 55.85 L23.8 54.15 25.75 52.6 Q25.95 52.4 26.25 52.3 27.75 51.5 29.3 51.55 L31.35 51.85 32.4 52.3 Q33.6 52.95 34.8 54.15 37.6 57 40.2 57 L41.05 56.95 Q42.35 56.7 43.6 55.85 44.65 55.25 45.65 54.15 46.9 52.95 48.1 52.3 49.6 51.5 51.15 51.55 52.7 51.5 54.25 52.3 55.45 52.95 56.65 54.15 L58.55 55.75 Q58.55 60.1 54.1 60 L11.05 60 Q4.1 59.6 5.2 53.65 L5.7 51.8"/>
    <path stroke="none" fill="#474758" d="M16 24.5 Q16 26.95 14.2 28.7 12.45 30.5 10 30.5 7.5 30.5 5.7 28.7 4 26.95 4 24.5 4 22 5.7 20.2 7.5 18.5 10 18.5 12.45 18.5 14.2 20.2 16 22 16 24.5"/>
    <path stroke="none" fill="#FFFFFF" d="M16.05 51.15 Q15.2 52 13.95 52 12.75 52 11.85 51.15 11 50.25 11 48.95 11 47.75 11.85 46.85 12.75 46 13.95 46 15.2 46 16.05 46.85 17 47.75 17 48.95 17 50.25 16.05 51.15"/>
    <path stroke="none" fill="#E54341" d="M57.9 51.6 Q56.7 54.8 49.5 54.95 42.2 55.15 32.95 52.1 23.6 49.05 17.8 44.55 12.1 40.15 13.15 36.8 L13.15 36.7 Q13.95 34.25 15.3 32.2 18.3 28.7 23.3 27 31.8 24.15 41.15 28.05 50.4 31.9 55 40.15 58.25 46 57.9 51.6"/>
    <path stroke="none" fill="#F17575" d="M57.9 51.6 Q58.25 46 55 40.15 50.4 31.9 41.15 28.05 31.8 24.15 23.3 27 18.3 28.7 15.3 32.2 18.4 27.45 24.3 24.9 32.8 21.35 42.15 24.4 51.4 27.45 56 35.3 60.65 43.25 57.95 51.4 L57.95 51.5 57.9 51.6"/>
    <path stroke="none" fill="#474758" d="M36.25 40.2 Q35.3 41.6 33.4 42 31.75 42.15 30.3 41.1 L27.75 39.25 Q26.4 38.2 26 36.55 25.85 34.65 26.85 33.35 L28.65 30.8 Q29.75 29.35 31.5 29.05 33.3 28.8 34.65 29.7 L37.15 31.55 Q38.65 32.65 38.9 34.4 39.2 36.2 38.15 37.65 L36.25 40.2"/>
    <path stroke="none" fill="#474758" d="M47.4 40.8 L45.8 40.9 Q45.1 40.55 44.85 39.8 L44.2 38.45 Q43.9 37.7 44.1 36.9 44.5 36.1 45.2 35.8 L46.55 35.15 48.1 35.1 Q48.9 35.4 49.2 36.15 L49.8 37.5 Q50.2 38.3 49.9 39 L48.75 40.25 47.4 40.8"/>
    <path stroke="none" fill="#525262" d="M22.3 39.7 Q22.1 40.45 21.2 40.85 L19.75 40.8 18.35 40.3 Q17.6 40 17.15 39.25 16.9 38.5 17.15 37.7 L17.7 36.3 Q18 35.6 18.7 35.2 L20.25 35.15 21.7 35.65 Q22.55 35.95 22.8 36.75 23.15 37.5 22.95 38.3 L22.3 39.7"/>
    <path stroke="none" fill="#474758" d="M50.1 47.4 Q49.4 47.25 49.1 46.5 48.85 45.85 49.15 45.3 L49.55 44.1 Q49.8 43.4 50.45 43.05 L51.7 43.15 52.95 43.55 Q53.55 43.75 53.8 44.45 54.1 45.1 53.9 45.75 L53.5 46.95 52.6 47.85 51.2 47.9 50.1 47.4"/>
    <path stroke="none" fill="#474758" d="M42.5 50.7 L40.4 50.8 Q39.45 50.35 39.05 49.4 L38.25 47.55 Q37.8 46.6 38.1 45.55 38.6 44.5 39.55 44.1 L41.35 43.25 43.45 43.2 Q44.5 43.6 44.9 44.55 L45.75 46.3 Q46.2 47.35 45.8 48.4 45.35 49.45 44.35 49.95 L42.5 50.7"/>
  </g>
</svg>