<svg width="64" height="64" xmlns="http://www.w3.org/2000/svg" xmlns:xlink="http://www.w3.org/1999/xlink">
  <defs/>
  <g>
    <path stroke="none" fill="#353541" d="M2 22.5 Q2 18.4 4.8 15.45 L4.95 15.3 Q7.9 12.5 12 12.5 16.05 12.5 19 15.35 L19.05 15.4 Q20.95 17.3 21.65 19.75 22.15 19.45 22.75 19.25 L22.75 19.2 Q32.6 15.05 43.4 18.6 54.15 22.15 59.45 31.3 64.85 40.5 62 49.95 L61.55 51.45 Q60.55 54.2 57.15 55.6 56.95 59.1 55.65 60.9 53.65 64.1 49.6 64 L15.35 64 15 64 Q5.3 63.65 6.7 51.4 L6.7 51.2 7.1 48.85 7.15 48.8 7.7 46 7.75 45.95 8.85 41.95 9.1 37 9.05 35.95 9.05 35.9 Q8.8 33.75 8.2 31.8 6.4 31.05 4.9 29.55 L4.85 29.5 Q2 26.55 2 22.5"/>
    <path stroke="none" fill="#525262" d="M19.25 47.15 Q18.9 48.55 17.7 49.35 16.35 50.15 14.95 49.8 13.45 49.5 12.7 48.25 11.9 46.9 12.25 45.5 14.45 35.85 11.15 28.3 10.5 26.9 11.1 25.55 11.65 24.1 13 23.5 14.35 22.9 15.75 23.5 17.15 24 17.75 25.35 22.05 34.9 19.25 47.15"/>
    <path stroke="none" fill="#474758" d="M53.15 54.55 L51.6 52.5 Q50.65 50.95 49.7 50.15 48.5 49.1 47.25 49.2 46 49.1 44.8 50.15 43.85 50.95 42.85 52.5 L41.25 54.7 Q40.25 55.8 39.2 56.1 L38.55 56.15 Q36.45 56.15 34.25 52.5 33.25 50.95 32.3 50.15 L31.5 49.55 29.85 49.2 Q28.6 49.1 27.4 50.15 L27.05 50.55 Q26.25 51.25 25.45 52.5 L23.85 54.7 Q22.5 56.15 21.15 56.15 19.05 56.15 16.85 52.5 15.9 50.95 14.95 50.15 13.7 49.1 12.45 49.2 11.75 49.1 11.05 49.5 L11.6 46.9 Q12.75 42.2 14.55 38.25 16.3 34.45 18.45 31.95 21.6 28.3 25.55 28 L26.65 28 27.55 28 27.9 28 29.9 28.1 Q35.45 28.8 40.1 31.95 43.8 34.45 47.05 38.25 48.65 40.15 49.85 42.15 51.5 45.1 52.35 48.2 L52.75 50.25 Q53.15 52.7 53.15 54.55"/>
    <path stroke="none" fill="#525262" d="M53.15 54.55 Q53.15 60.15 49.6 60 L15.35 60 Q9.8 59.5 10.65 51.85 L11.05 49.5 Q11.75 49.1 12.45 49.2 13.7 49.1 14.95 50.15 15.9 50.95 16.85 52.5 19.05 56.15 21.15 56.15 22.5 56.15 23.85 54.7 L25.45 52.5 Q26.25 51.25 27.05 50.55 L27.4 50.15 Q28.6 49.1 29.85 49.2 L31.5 49.55 32.3 50.15 Q33.25 50.95 34.25 52.5 36.45 56.15 38.55 56.15 L39.2 56.1 Q40.25 55.8 41.25 54.7 L42.85 52.5 Q43.85 50.95 44.8 50.15 46 49.1 47.25 49.2 48.5 49.1 49.7 50.15 50.65 50.95 51.6 52.5 L53.15 54.55"/>
    <path stroke="none" fill="#474758" d="M18 22.5 Q18 24.95 16.2 26.7 14.45 28.5 12 28.5 9.5 28.5 7.7 26.7 6 24.95 6 22.5 6 20 7.7 18.2 9.5 16.5 12 16.5 14.45 16.5 16.2 18.2 18 20 18 22.5"/>
    <path stroke="none" fill="#F17575" d="M57.9 49.6 Q58.25 44 55 38.15 50.4 29.9 41.15 26.05 31.8 22.15 23.3 25 18.3 26.7 15.3 30.2 18.4 25.45 24.3 22.9 32.8 19.35 42.15 22.4 51.4 25.45 56 33.3 60.65 41.25 57.95 49.4 L57.95 49.5 57.9 49.6"/>
    <path stroke="none" fill="#E54341" d="M57.9 49.6 Q56.7 52.8 49.5 52.95 42.2 53.15 32.95 50.1 23.6 47.05 17.8 42.55 12.1 38.15 13.15 34.8 L13.15 34.7 Q13.95 32.25 15.3 30.2 18.3 26.7 23.3 25 31.8 22.15 41.15 26.05 50.4 29.9 55 38.15 58.25 44 57.9 49.6"/>
    <path stroke="none" fill="#474758" d="M36.25 38.2 Q35.3 39.6 33.4 40 31.75 40.15 30.3 39.1 L27.75 37.25 Q26.4 36.2 26 34.55 25.85 32.65 26.85 31.35 L28.65 28.8 Q29.75 27.35 31.5 27.05 33.3 26.8 34.65 27.7 L37.15 29.55 Q38.65 30.65 38.9 32.4 39.2 34.2 38.15 35.65 L36.25 38.2"/>
    <path stroke="none" fill="#474758" d="M47.4 38.8 L45.8 38.9 Q45.1 38.55 44.85 37.8 L44.2 36.45 Q43.9 35.7 44.1 34.9 44.5 34.1 45.2 33.8 L46.55 33.15 48.1 33.1 Q48.9 33.4 49.2 34.15 L49.8 35.5 Q50.2 36.3 49.9 37 L48.75 38.25 47.4 38.8"/>
    <path stroke="none" fill="#525262" d="M22.3 37.7 Q22.1 38.45 21.2 38.85 L19.75 38.8 18.35 38.3 Q17.6 38 17.15 37.25 16.9 36.5 17.15 35.7 L17.7 34.3 Q18 33.6 18.7 33.2 L20.25 33.15 21.7 33.65 Q22.55 33.95 22.8 34.75 23.15 35.5 22.95 36.3 L22.3 37.7"/>
    <path stroke="none" fill="#474758" d="M50.1 45.4 Q49.4 45.25 49.1 44.5 48.85 43.85 49.15 43.3 L49.55 42.1 Q49.8 41.4 50.45 41.05 L51.7 41.15 52.95 41.55 Q53.55 41.75 53.8 42.45 54.1 43.1 53.9 43.75 L53.5 44.95 52.6 45.85 51.2 45.9 50.1 45.4"/>
    <path stroke="none" fill="#474758" d="M42.5 48.7 L40.4 48.8 Q39.45 48.35 39.05 47.4 L38.25 45.55 Q37.8 44.6 38.1 43.55 38.6 42.5 39.55 42.1 L41.35 41.25 43.45 41.2 Q44.5 41.6 44.9 42.55 L45.75 44.3 Q46.2 45.35 45.8 46.4 45.35 47.45 44.35 47.95 L42.5 48.7"/>
    <path stroke="none" fill="#FFFFFF" d="M19.05 51.15 Q18.2 52 16.95 52 15.75 52 14.85 51.15 14 50.25 14 48.95 14 47.75 14.85 46.85 15.75 46 16.95 46 18.2 46 19.05 46.85 20 47.75 20 48.95 20 50.25 19.05 51.15"/>
  </g>
</svg>