<svg width="64" height="64" xmlns="http://www.w3.org/2000/svg" xmlns:xlink="http://www.w3.org/1999/xlink">
  <defs/>
  <g>
    <path stroke="none" fill="#353541" d="M43.35 3.45 Q54 4.85 59.65 13.05 L59.7 13.1 60.3 13.85 Q63.7 18.25 58.15 26.05 60 28.65 60.65 31.05 L60.65 31.1 Q62.8 38.05 56.5 42.5 L57.3 43.3 57.3 43.35 Q60 46.2 61.25 49.3 L61.95 51.45 Q62.55 53.9 62.55 55.75 L62.55 55.8 Q62.5 59.9 60.2 61.85 58.2 64.05 54.1 64 L11.05 64 10.85 64 Q5.35 63.7 3.2 60.95 0.3 58.2 1.3 52.95 L1.3 52.75 1.9 50.65 1.9 50.6 2.7 48.3 2.65 48.35 Q4.25 44.15 6.9 40.6 L7.15 40.35 Q7.15 36.85 6.2 33.8 4.4 33.05 2.9 31.55 L2.85 31.5 Q0 28.55 0 24.5 0 20.4 2.8 17.45 L2.95 17.3 Q5.9 14.5 10 14.5 13 14.5 15.4 16.05 18.5 11.6 23.5 8.25 L23.5 8.2 Q32.9 2 43.35 3.45"/>
    <path stroke="none" fill="#525262" d="M57.15 33.25 Q57.9 36.3 52.65 40.15 47.45 44.2 39 46.7 30.45 49.3 23.8 48.95 17.2 48.55 16.2 45.5 L16.2 45.45 Q15.4 43.15 15.3 40.85 15.1 35.65 18.05 30.6 22.45 23.4 30.95 20.8 39.4 18.3 47 21.85 54.65 25.45 57 33 L57 33.05 57.05 33.05 57.1 33.1 57.15 33.25"/>
    <path stroke="none" fill="#525262" d="M17.25 49.15 Q16.9 50.55 15.7 51.35 14.35 52.15 12.95 51.8 11.45 51.5 10.7 50.25 9.9 48.9 10.25 47.5 12.45 37.85 9.15 30.3 8.5 28.9 9.1 27.55 9.65 26.1 11 25.5 12.35 24.9 13.75 25.5 15.15 26 15.75 27.35 20.05 36.9 17.25 49.15"/>
    <path stroke="none" fill="#474758" d="M5.7 51.8 L6.4 49.75 Q7.8 46.1 10.1 43 12.3 40.05 14.95 38.1 18.95 35.25 23.9 35 L25.25 35 26.4 35 26.85 35 29.35 35.1 Q36.35 35.65 42.2 38.1 46.85 40.05 50.9 43 L54.4 46.05 Q56.5 48.35 57.55 50.8 L58.05 52.4 Q58.55 54.3 58.55 55.75 L56.65 54.15 Q55.45 52.95 54.25 52.3 52.7 51.5 51.15 51.55 49.6 51.5 48.1 52.3 46.9 52.95 45.65 54.15 44.65 55.25 43.6 55.85 42.35 56.7 41.05 56.95 L40.2 57 Q37.6 57 34.8 54.15 33.6 52.95 32.4 52.3 L31.35 51.85 29.3 51.55 Q27.75 51.5 26.25 52.3 25.95 52.4 25.75 52.6 L23.8 54.15 21.75 55.85 Q20.05 57 18.35 57 15.75 57 12.95 54.15 L10.55 52.3 Q9 51.5 7.45 51.55 L5.7 51.8"/>
    <path stroke="none" fill="#525262" d="M5.7 51.8 L7.45 51.55 Q9 51.5 10.55 52.3 L12.95 54.15 Q15.75 57 18.35 57 20.05 57 21.75 55.85 L23.8 54.15 25.75 52.6 Q25.95 52.4 26.25 52.3 27.75 51.5 29.3 51.55 L31.35 51.85 32.4 52.3 Q33.6 52.95 34.8 54.15 37.6 57 40.2 57 L41.05 56.95 Q42.35 56.7 43.6 55.85 44.65 55.25 45.65 54.15 46.9 52.95 48.1 52.3 49.6 51.5 51.15 51.55 52.7 51.5 54.25 52.3 55.45 52.95 56.65 54.15 L58.55 55.75 Q58.55 60.1 54.1 60 L11.05 60 Q4.1 59.6 5.2 53.65 L5.7 51.8"/>
    <path stroke="none" fill="#474758" d="M16 24.5 Q16 26.95 14.2 28.7 12.45 30.5 10 30.5 7.5 30.5 5.7 28.7 4 26.95 4 24.5 4 22 5.7 20.2 7.5 18.5 10 18.5 12.45 18.5 14.2 20.2 16 22 16 24.5"/>
    <path stroke="none" fill="#FFFFFF" d="M16.05 51.15 Q15.2 52 13.95 52 12.75 52 11.85 51.15 11 50.25 11 48.95 11 47.75 11.85 46.85 12.75 46 13.95 46 15.2 46 16.05 46.85 17 47.75 17 48.95 17 50.25 16.05 51.15"/>
    <path stroke="none" fill="#F17575" d="M15.3 37.5 Q13.5 32.15 15.1 25.95 17.55 17.05 25.7 11.55 33.8 6.2 42.8 7.4 51.9 8.6 56.65 15.7 52.45 12.15 46 11.15 36.7 9.7 28 14.6 19.15 19.55 16.15 28 14.4 33 15.3 37.5 M56.7 15.75 L56.75 15.8 56.85 15.9 56.7 15.75"/>
    <path stroke="none" fill="#E54341" d="M56.7 15.75 L56.85 15.9 Q58.6 18.85 54.25 24.6 49.95 30.45 41.85 35.85 33.7 41.35 26.6 43.15 19.6 44.9 17.65 42.05 L17.55 42 Q16.1 39.85 15.3 37.5 14.4 33 16.15 28 19.15 19.55 28 14.6 36.7 9.7 46 11.15 52.45 12.15 56.65 15.7 L56.65 15.75 56.7 15.75"/>
    <path stroke="none" fill="#474758" d="M34.5 25.95 Q35.05 27.55 34.15 29.3 33.3 30.7 31.55 31.2 L28.55 32.05 Q26.9 32.45 25.35 31.75 23.75 30.75 23.35 29.15 L22.45 26.15 Q21.95 24.35 22.85 22.85 23.75 21.3 25.3 20.75 L28.25 19.9 Q30.05 19.4 31.6 20.3 33.2 21.2 33.7 22.9 L34.5 25.95"/>
    <path stroke="none" fill="#474758" d="M41.9 17.55 Q41.7 18.35 40.95 18.9 L39.5 18.95 38.05 18.6 Q37.25 18.4 36.75 17.75 36.4 16.9 36.55 16.2 L36.9 14.75 Q37.1 13.95 37.8 13.5 38.55 13.05 39.3 13.25 L40.75 13.65 Q41.6 13.8 41.95 14.45 42.4 15.25 42.25 16.15 L41.9 17.55"/>
    <path stroke="none" fill="#525262" d="M25.55 36.65 Q26 37.25 25.75 38.2 25.55 39 24.85 39.3 L23.6 40.1 Q22.9 40.5 22 40.4 L20.8 39.45 20.05 38.15 Q19.7 37.45 19.75 36.65 20 35.85 20.7 35.45 L21.95 34.6 Q22.75 34.15 23.55 34.4 24.35 34.6 24.85 35.25 L25.55 36.65"/>
    <path stroke="none" fill="#474758" d="M48.7 19.5 L47.35 19.7 46.45 18.95 45.75 17.9 Q45.35 17.25 45.5 16.55 45.8 15.9 46.4 15.6 L47.45 14.85 48.65 14.75 Q49.35 14.9 49.75 15.45 L50.45 16.55 Q50.8 17.2 50.65 17.8 50.45 18.5 49.75 18.95 L48.7 19.5"/>
    <path stroke="none" fill="#474758" d="M46.6 27.5 Q46.45 28.5 45.4 29.2 L43.5 29.4 41.55 28.9 Q40.5 28.7 39.85 27.8 39.35 26.75 39.6 25.75 L40.05 23.8 Q40.3 22.75 41.3 22.15 42.3 21.55 43.3 21.8 L45.15 22.25 Q46.3 22.5 46.85 23.5 47.4 24.5 47.2 25.6 L46.6 27.5"/>
  </g>
</svg>