<svg width="64" height="64" xmlns="http://www.w3.org/2000/svg" xmlns:xlink="http://www.w3.org/1999/xlink">
  <defs/>
  <g>
    <path stroke="none" fill="#353541" d="M34.75 22.65 Q38.2 23.7 39.9 25.85 43.45 27.1 44.9 30.2 L45 30.45 Q46.3 33.3 46.3 36.25 L50.15 39.4 50.6 39.85 Q50.8 38.8 51.55 37.8 52.4 36.15 54.85 35.25 L54.95 35.2 58.75 35.1 59.25 35.25 Q61.4 36.1 62.4 38 L62.5 38.25 Q67.5 48.65 57.55 58.85 L57.35 59 57.15 59.2 Q55.55 64.05 50 64 L15 64 Q8.5 64.05 6.45 61.35 L6.4 61.35 Q4.6 59.45 3.8 57.55 L3.4 56.55 2.5 55.75 Q-0.05 53.2 0 49.95 -0.05 46.55 2.5 44.1 4.85 41.7 8.2 41.7 L9.95 41.9 10.8 40.35 10.8 40.3 Q12.1 38.1 13.55 36.4 L14.85 34.85 Q14.45 31.3 17.35 27.75 20.25 24.1 25.35 22.7 L25.45 22.65 Q30.6 21.15 34.85 22.7 L34.75 22.65"/>
    <path stroke="none" fill="#93A4B4" d="M36.75 45 Q33.2 46.7 29.5 45.35 25.75 44.2 23.95 40.65 L23.95 40.55 Q22.75 38.1 24.4 35.1 26.05 32.15 29.65 30.4 33.3 28.6 36.65 29.1 40.1 29.65 41.3 32 L41.35 32.1 Q42.95 35.65 41.75 39.4 40.4 43.25 36.75 45"/>
    <path stroke="none" fill="#F3B9CB" d="M54.9 39.95 Q55.25 39.35 56.2 39 L57.75 38.95 Q58.5 39.25 58.85 39.9 62.5 48 54.65 56.05 54.05 56.6 53.45 56.8 L52.45 56.95 Q51.2 56.9 50.5 55.9 50.1 55.45 50 54.8 49.9 54.3 50.05 53.85 50.15 52.6 51 51.8 56.35 46.8 54.6 41.25 54.4 40.6 54.9 39.95"/>
    <path stroke="none" fill="#D6DCE0" d="M11.7 48 Q12.7 45 14.25 42.3 15.4 40.35 16.7 38.85 17.35 37.95 18.15 37.2 21.45 34.25 25.45 34 L26.6 34 27.5 34 27.85 34 29.85 34.15 Q35.55 34.75 40.3 37.2 L43.05 38.85 47.4 42.3 Q52.15 46.8 53.3 52.55 53.9 55.65 53.45 57.45 L53.3 56.55 Q52.15 50.8 47.4 46.3 L43.05 42.85 40.3 41.2 Q35.55 38.75 29.85 38.15 L27.85 38 27.5 38 26.6 38 25.45 38 Q21.45 38.25 18.15 41.2 17.35 41.95 16.7 42.85 15.4 44.35 14.25 46.3 L13.15 48.5 11.7 48"/>
    <path stroke="none" fill="#BBC4CB" d="M11.7 48 L13.15 48.5 14.25 46.3 Q15.4 44.35 16.7 42.85 17.35 41.95 18.15 41.2 21.45 38.25 25.45 38 L26.6 38 27.5 38 27.85 38 29.85 38.15 Q35.55 38.75 40.3 41.2 L43.05 42.85 47.4 46.3 Q52.15 50.8 53.3 56.55 L53.45 57.45 Q52.8 60.1 50 60 L15 60 Q10.75 60.05 9.3 58.55 8.05 57.25 7.45 55.9 7.05 55 6.95 54.05 6.85 51.65 8.9 50.7 9.8 50.3 10.95 50.3 L11.7 48"/>
    <path stroke="none" fill="#F3B9CB" d="M11.15 46.9 Q12.45 48.2 12.45 49.95 12.45 51.6 11.15 52.9 9.95 54.1 8.2 54.1 6.5 54.1 5.3 52.9 4 51.6 4 49.95 4 48.2 5.3 46.9 6.5 45.7 8.2 45.7 9.95 45.7 11.15 46.9"/>
    <path stroke="none" fill="#BBC4CB" d="M31.05 42.05 Q27.2 43.2 23.7 41.2 20.2 39.4 19.1 35.6 L19.1 35.5 Q18.3 32.9 20.45 30.25 22.65 27.55 26.5 26.5 30.35 25.35 33.55 26.45 36.9 27.5 37.65 30.05 L37.7 30.2 Q38.65 33.95 36.8 37.4 34.85 40.95 31.05 42.05"/>
    <path stroke="none" fill="#353541" d="M25.55 51.35 Q23.9 53 21.5 53 19.15 53 17.5 51.35 16.4 50.25 16.05 48.9 15.9 48.25 16.25 47.75 16.5 47.2 17.15 47.05 L18.3 47.2 Q18.8 47.5 18.95 48.1 L19.65 49.2 Q20.45 50 21.5 50 22.6 50 23.45 49.2 L24.15 48.05 Q24.35 47.45 24.9 47.15 L26 47.1 26.95 47.8 27 48.95 Q26.55 50.3 25.55 51.35"/>
  </g>
</svg>