<svg width="64" height="64" xmlns="http://www.w3.org/2000/svg" xmlns:xlink="http://www.w3.org/1999/xlink">
  <defs/>
  <g>
    <path stroke="none" fill="#353541" d="M50.15 39.4 L50.6 39.85 Q50.8 38.8 51.55 37.75 52.4 36.15 54.85 35.25 L54.95 35.2 58.75 35.1 59.25 35.25 Q61.4 36.1 62.4 38 L62.5 38.25 Q67.5 48.65 57.55 58.85 L57.35 59 57.2 59.2 Q55.7 64.2 50 64 L15 64 Q8.5 64.05 6.45 61.35 L6.4 61.35 Q4.1 58.95 3.35 56.5 L2.5 55.75 Q-0.05 53.2 0 49.95 -0.05 46.55 2.5 44.1 4.85 41.7 8.2 41.7 L9.95 41.9 10.8 40.35 10.8 40.3 Q11.95 38.35 13.2 36.8 L12.85 34.7 Q12.3 30.15 14.9 25.5 L14.9 25.45 Q17.45 20.8 21.55 18.8 26.7 16.1 30.75 18.55 L30.95 18.65 Q33.25 20 34.8 21.95 37.05 22.65 38.65 24.45 L38.85 24.7 Q42.05 28.6 42.05 33.6 L42.15 33.65 42.2 33.7 45.3 35.55 Q47.8 37.2 50.15 39.4"/>
    <path stroke="none" fill="#93A4B4" d="M34.65 40.8 Q31.65 43.4 27.7 43.05 23.75 42.9 21.15 39.9 L21.1 39.8 Q19.3 37.8 20.15 34.45 20.95 31.15 24 28.55 27.05 25.9 30.4 25.5 33.85 25.1 35.65 27.1 L35.75 27.2 Q38.2 30.2 38 34.1 37.7 38.15 34.65 40.8"/>
    <path stroke="none" fill="#F3B9CB" d="M54.9 39.95 Q55.25 39.35 56.2 39 L57.75 38.95 Q58.5 39.25 58.85 39.9 62.5 48 54.65 56.05 54.05 56.6 53.45 56.8 L52.45 56.95 Q51.2 56.9 50.5 55.9 50.1 55.45 50 54.8 49.9 54.3 50.05 53.85 50.15 52.6 51 51.8 56.35 46.8 54.6 41.25 54.4 40.6 54.9 39.95"/>
    <path stroke="none" fill="#D6DCE0" d="M11.7 48 Q12.7 45 14.25 42.3 15.4 40.35 16.7 38.85 17.35 37.95 18.15 37.2 21.45 34.25 25.45 34 L26.6 34 27.5 34 27.85 34 29.85 34.15 Q35.55 34.75 40.3 37.2 L43.05 38.85 47.4 42.3 Q52.15 46.8 53.3 52.55 53.9 55.65 53.45 57.45 L53.3 56.55 Q52.15 50.8 47.4 46.3 L43.05 42.85 40.3 41.2 Q35.55 38.75 29.85 38.15 L27.85 38 27.5 38 26.6 38 25.45 38 Q21.45 38.25 18.15 41.2 17.35 41.95 16.7 42.85 15.4 44.35 14.25 46.3 L13.15 48.5 11.7 48"/>
    <path stroke="none" fill="#BBC4CB" d="M11.7 48 L13.15 48.5 14.25 46.3 Q15.4 44.35 16.7 42.85 17.35 41.95 18.15 41.2 21.45 38.25 25.45 38 L26.6 38 27.5 38 27.85 38 29.85 38.15 Q35.55 38.75 40.3 41.2 L43.05 42.85 47.4 46.3 Q52.15 50.8 53.3 56.55 L53.45 57.45 Q52.8 60.1 50 60 L15 60 Q10.75 60.05 9.3 58.55 8.05 57.25 7.45 55.9 7.05 55 6.95 54.05 6.85 51.65 8.9 50.7 9.8 50.3 10.95 50.3 L11.7 48"/>
    <path stroke="none" fill="#F3B9CB" d="M11.15 46.9 Q12.45 48.2 12.45 49.95 12.45 51.6 11.15 52.9 9.95 54.1 8.2 54.1 6.5 54.1 5.3 52.9 4 51.6 4 49.95 4 48.2 5.3 46.9 6.5 45.7 8.2 45.7 9.95 45.7 11.15 46.9"/>
    <path stroke="none" fill="#353541" d="M22.7 48.35 Q23.2 47.85 23.2 47.2 23.2 46.55 22.7 46.05 22.2 45.6 21.55 45.6 20.9 45.6 20.45 46.05 20 46.55 20 47.2 20 47.85 20.45 48.35 L21.55 48.8 22.7 48.35 M22.8 50.85 Q21.65 52 20 52 18.35 52 17.2 50.85 16 49.65 16 48 16 46.35 17.2 45.2 18.35 44 20 44 21.65 44 22.8 45.2 24 46.35 24 48 24 49.65 22.8 50.85"/>
    <path stroke="none" fill="#5D5D67" d="M22.7 48.35 L21.55 48.8 20.45 48.35 Q20 47.85 20 47.2 20 46.55 20.45 46.05 20.9 45.6 21.55 45.6 22.2 45.6 22.7 46.05 23.2 46.55 23.2 47.2 23.2 47.85 22.7 48.35"/>
    <path stroke="none" fill="#BBC4CB" d="M32.65 35.2 Q30.7 38.7 26.85 39.75 23.1 40.95 19.65 39.05 L19.55 39 Q17.15 37.7 16.8 34.3 16.45 30.9 18.4 27.4 20.3 23.9 23.35 22.35 26.45 20.75 28.85 22.05 L28.95 22.1 Q32.3 24.05 33.4 27.8 34.55 31.7 32.65 35.2"/>
  </g>
</svg>