<svg width="64" height="64" xmlns="http://www.w3.org/2000/svg" xmlns:xlink="http://www.w3.org/1999/xlink">
  <defs/>
  <g>
    <path stroke="none" fill="#353541" d="M30.95 16.65 Q33.25 18 34.8 19.95 37.05 20.65 38.65 22.45 L38.85 22.7 Q42.25 26.85 42 32.25 L44.65 34.15 Q46.95 35.9 49.15 38.25 L49.2 38.25 49.2 38.3 49.55 37.8 Q50.4 36.15 52.85 35.25 L52.95 35.2 56.75 35.1 57.25 35.25 Q59.4 36.1 60.4 38 L60.5 38.25 Q65.5 48.6 55.55 58.85 54 64.4 48.45 64 L16.15 64 Q9.8 64.05 7.8 61.05 L7.75 61 Q6.2 59.1 5.4 57.15 L5.35 56.95 5.15 56.35 4.5 55.75 Q1.95 53.2 2 49.95 1.95 46.55 4.5 44.1 6.85 41.7 10.2 41.7 L10.75 41.75 Q11.25 40.4 11.9 39.15 12.7 37.5 13.65 36.1 13 34.6 12.85 32.7 12.3 28.15 14.9 23.5 L14.9 23.45 Q17.45 18.8 21.55 16.8 26.7 14.1 30.75 16.55 L30.95 16.65"/>
    <path stroke="none" fill="#93A4B4" d="M34.65 38.8 Q31.65 41.4 27.7 41.05 23.75 40.9 21.15 37.9 L21.1 37.8 Q19.3 35.8 20.15 32.45 20.95 29.15 24 26.55 27.05 23.9 30.4 23.5 33.85 23.1 35.65 25.1 L35.75 25.2 Q38.2 28.2 38 32.1 37.7 36.15 34.65 38.8"/>
    <path stroke="none" fill="#F3B9CB" d="M52.9 39.95 Q53.25 39.35 54.2 39 L55.75 38.95 Q56.5 39.25 56.85 39.9 60.5 48 52.65 56.05 52.05 56.6 51.45 56.8 L50.45 56.95 Q49.2 56.9 48.5 55.9 48.1 55.45 48 54.8 L48.05 53.85 Q48.15 52.6 49 51.8 54.35 46.8 52.6 41.25 52.4 40.6 52.9 39.95"/>
    <path stroke="none" fill="#D6DCE0" d="M13.05 47.1 Q14 43.85 15.45 40.95 16.5 38.85 17.7 37.25 L19.05 35.45 Q22.1 32.25 25.8 32 L26.9 32 27.7 32 28.05 32 29.9 32.15 Q35.2 32.8 39.6 35.45 L42.15 37.25 Q44.25 38.85 46.2 40.95 50.6 45.8 51.65 52 52.2 55.3 51.8 57.25 L51.65 56.3 Q50.6 50.1 46.2 45.25 44.25 43.15 42.15 41.55 L39.6 39.75 Q35.2 37.1 29.9 36.45 L28.05 36.3 27.7 36.3 26.9 36.3 25.8 36.3 Q22.1 36.6 19.05 39.75 L17.7 41.55 Q16.5 43.15 15.45 45.25 14.85 46.4 14.4 47.6 L13.05 47.1"/>
    <path stroke="none" fill="#BBC4CB" d="M13.05 47.1 L14.4 47.6 Q14.85 46.4 15.45 45.25 16.5 43.15 17.7 41.55 L19.05 39.75 Q22.1 36.6 25.8 36.3 L26.9 36.3 27.7 36.3 28.05 36.3 29.9 36.45 Q35.2 37.1 39.6 39.75 L42.15 41.55 Q44.25 43.15 46.2 45.25 50.6 50.1 51.65 56.3 L51.8 57.25 Q51.2 60.1 48.6 60 L16.15 60 Q12.2 60.05 10.85 58.45 9.7 57.05 9.1 55.6 8.75 54.6 8.65 53.6 8.55 51 10.45 50 11.3 49.55 12.35 49.55 L13.05 47.1"/>
    <path stroke="none" fill="#F3B9CB" d="M13.15 46.9 Q14.45 48.2 14.45 49.95 14.45 51.6 13.15 52.9 11.95 54.1 10.2 54.1 8.5 54.1 7.3 52.9 6 51.6 6 49.95 6 48.2 7.3 46.9 8.5 45.7 10.2 45.7 11.95 45.7 13.15 46.9"/>
    <path stroke="none" fill="#BBC4CB" d="M32.65 33.2 Q30.7 36.7 26.85 37.75 23.1 38.95 19.65 37.05 L19.55 37 Q17.15 35.7 16.8 32.3 16.45 28.9 18.4 25.4 20.3 21.9 23.35 20.35 26.45 18.75 28.85 20.05 L28.95 20.1 Q32.3 22.05 33.4 25.8 34.55 29.7 32.65 33.2"/>
    <path stroke="none" fill="#353541" d="M23.8 49.85 Q22.65 51 21 51 19.35 51 18.2 49.85 17 48.65 17 47 17 45.35 18.2 44.2 19.35 43 21 43 22.65 43 23.8 44.2 25 45.35 25 47 25 48.65 23.8 49.85 M23.7 47.35 Q24.2 46.85 24.2 46.2 24.2 45.55 23.7 45.05 23.2 44.6 22.55 44.6 21.9 44.6 21.45 45.05 21 45.55 21 46.2 21 46.85 21.45 47.35 L22.55 47.8 Q23.2 47.8 23.7 47.35"/>
    <path stroke="none" fill="#5D5D67" d="M23.7 47.35 Q23.2 47.8 22.55 47.8 L21.45 47.35 Q21 46.85 21 46.2 21 45.55 21.45 45.05 21.9 44.6 22.55 44.6 23.2 44.6 23.7 45.05 24.2 45.55 24.2 46.2 24.2 46.85 23.7 47.35"/>
  </g>
</svg>