<svg width="64" height="64" xmlns="http://www.w3.org/2000/svg" xmlns:xlink="http://www.w3.org/1999/xlink">
  <defs/>
  <g>
    <path stroke="none" fill="#353541" d="M34.15 0.35 L34.35 0.4 Q36.55 1 38.05 2.7 L38.1 2.75 42.2 7.45 48.45 7 48.35 7.05 Q50.6 6.8 52.7 8 L54.65 9.45 56 11.3 Q57.2 13.4 57 15.65 L57 15.6 56.6 21.85 61.3 25.95 Q63 27.45 63.65 29.7 L63.7 29.85 64 32 63.7 34.15 63.65 34.35 Q63 36.55 61.3 38.05 L61.3 38.1 56.6 42.2 57 48.45 57 48.35 Q57.2 50.6 56 52.7 L54.65 54.6 52.7 56 Q50.6 57.2 48.35 57 L48.45 57 42.2 56.6 38.1 61.3 38.05 61.3 Q36.55 63 34.35 63.65 L34.15 63.7 32 64 29.85 63.7 29.7 63.65 Q27.45 63 25.95 61.3 L21.85 56.6 15.6 57 15.65 57 Q13.4 57.2 11.3 56 10.25 55.45 9.45 54.65 L8 52.7 Q6.8 50.6 7.05 48.35 L7 48.45 7.45 42.15 2.75 38.1 2.7 38.05 Q1 36.55 0.4 34.35 L0.35 34.15 Q0 33.1 0.05 32 0 30.95 0.35 29.85 L0.4 29.7 Q1 27.45 2.7 25.95 L2.75 25.95 7.45 21.85 7 15.6 7.05 15.65 Q6.8 13.4 8 11.3 8.6 10.2 9.45 9.4 10.25 8.55 11.3 8 13.4 6.8 15.65 7.05 L15.6 7 21.85 7.45 25.95 2.75 25.95 2.7 Q27.45 1 29.7 0.4 L29.85 0.35 32 0.05 34.15 0.35 M40.5 11.6 L35.05 5.35 Q34.3 4.5 33.15 4.2 L32 4.05 30.85 4.2 Q29.7 4.5 28.95 5.35 L23.55 11.6 15.3 11 Q14.2 10.9 13.15 11.55 12.65 11.8 12.25 12.2 11.85 12.6 11.55 13.15 10.9 14.2 11 15.3 L11.6 23.55 5.35 28.95 Q4.5 29.7 4.2 30.85 4.05 31.45 4.05 32 L4.2 33.15 Q4.5 34.3 5.35 35.05 L11.6 40.45 11 48.7 Q10.9 49.8 11.55 50.85 L12.25 51.8 13.15 52.45 Q14.2 53.1 15.3 53 L23.55 52.45 28.95 58.65 Q29.7 59.5 30.85 59.8 L32 60 33.15 59.8 Q34.3 59.5 35.05 58.65 L40.5 52.45 48.7 53 Q49.8 53.1 50.85 52.45 L51.8 51.75 52.45 50.85 Q53.1 49.8 53 48.7 L52.45 40.5 58.65 35.05 Q59.5 34.3 59.8 33.15 L60 32 59.8 30.85 Q59.5 29.7 58.65 28.95 L52.45 23.55 53 15.3 Q53.1 14.2 52.45 13.15 L51.8 12.25 Q51.4 11.85 50.85 11.55 49.8 10.9 48.7 11 L40.5 11.6"/>
    <path stroke="none" fill="#BBC4CB" d="M40.5 11.6 L38.95 15.35 Q35.75 14 32.05 14 L32 4.05 33.15 4.2 Q34.3 4.5 35.05 5.35 L40.5 11.6 M51.8 12.25 L52.45 13.15 Q53.1 14.2 53 15.3 L52.45 23.55 48.7 25.1 Q47.4 21.95 44.8 19.3 L51.8 12.25 M60 32 L59.8 33.15 Q59.5 34.3 58.65 35.05 L52.45 40.5 48.7 38.95 Q50 35.75 50 32 L60 32 M51.8 51.75 L50.85 52.45 Q49.8 53.1 48.7 53 L40.5 52.45 38.95 48.7 Q42.1 47.35 44.75 44.75 L44.75 44.7 51.8 51.75 M32 60 L30.85 59.8 Q29.7 59.5 28.95 58.65 L23.55 52.45 25.1 48.7 Q28.3 50 32 50 L32.05 50 32 60 M12.25 51.8 L11.55 50.85 Q10.9 49.8 11 48.7 L11.6 40.45 15.3 38.95 Q16.6 42.1 19.2 44.7 L19.3 44.8 12.25 51.8 M4.05 32 Q4.05 31.45 4.2 30.85 4.5 29.7 5.35 28.95 L11.6 23.55 15.3 25.1 Q14 28.25 14 32 L4.05 32 M12.25 12.2 Q12.65 11.8 13.15 11.55 14.2 10.9 15.3 11 L23.55 11.6 25.1 15.3 Q21.9 16.6 19.25 19.2 L12.25 12.2"/>
    <path stroke="none" fill="#A8B2BB" d="M12.25 12.2 L19.25 19.2 19.2 19.25 Q16.6 21.9 15.3 25.1 L11.6 23.55 11 15.3 Q10.9 14.2 11.55 13.15 11.85 12.6 12.25 12.2 M40.5 11.6 L48.7 11 Q49.8 10.9 50.85 11.55 51.4 11.85 51.8 12.25 L44.8 19.3 44.7 19.2 Q42.1 16.65 38.95 15.35 L40.5 11.6 M52.45 23.55 L58.65 28.95 Q59.5 29.7 59.8 30.85 L60 32 50 32 Q50 28.3 48.7 25.1 L52.45 23.55 M52.45 40.5 L53 48.7 Q53.1 49.8 52.45 50.85 L51.8 51.75 44.75 44.7 Q47.35 42.1 48.7 38.95 L52.45 40.5 M40.5 52.45 L35.05 58.65 Q34.3 59.5 33.15 59.8 L32 60 32.05 50 Q35.75 50 38.95 48.7 L40.5 52.45 M23.55 52.45 L15.3 53 Q14.2 53.1 13.15 52.45 L12.25 51.8 19.3 44.8 Q21.95 47.4 25.1 48.7 L23.55 52.45 M11.6 40.45 L5.35 35.05 Q4.5 34.3 4.2 33.15 L4.05 32 14 32 Q14 35.75 15.3 38.95 L11.6 40.45 M23.55 11.6 L28.95 5.35 Q29.7 4.5 30.85 4.2 L32 4.05 32.05 14 32 14 Q28.3 14 25.1 15.3 L23.55 11.6"/>
    <path stroke="none" fill="#D6DCE0" d="M32.05 14 Q35.75 14 38.95 15.35 42.1 16.65 44.7 19.2 L44.8 19.3 Q47.4 21.95 48.7 25.1 50 28.3 50 32 50 35.75 48.7 38.95 47.35 42.1 44.75 44.7 L44.75 44.75 Q42.1 47.35 38.95 48.7 35.75 50 32.05 50 L32 50 Q28.3 50 25.1 48.7 21.95 47.4 19.3 44.8 L19.2 44.7 Q16.6 42.1 15.3 38.95 14 35.75 14 32 14 28.25 15.3 25.1 16.6 21.9 19.2 19.25 L19.25 19.2 Q21.9 16.6 25.1 15.3 28.3 14 32 14 L32.05 14 M38.2 17.2 Q35.35 16 32.05 16 L32 16 Q28.7 16 25.9 17.15 23.05 18.3 20.7 20.6 L20.65 20.6 20.65 20.65 Q18.3 23 17.15 25.9 16 28.7 16 32 16 35.3 17.2 38.15 18.3 40.95 20.65 43.3 L20.65 43.35 20.7 43.4 Q23.05 45.7 25.9 46.85 28.7 48 32 48 L32.05 48 Q35.35 48 38.15 46.85 L38.2 46.85 Q41 45.65 43.35 43.35 L43.35 43.3 Q45.65 40.95 46.85 38.15 48 35.3 48 32 48 28.7 46.85 25.9 45.7 23.05 43.4 20.7 L43.35 20.65 43.3 20.65 Q41 18.35 38.2 17.2"/>
    <path stroke="none" fill="#919EAA" d="M38.2 17.2 Q41 18.35 43.3 20.65 L43.35 20.65 43.4 20.7 Q45.7 23.05 46.85 25.9 48 28.7 48 32 48 35.3 46.85 38.15 45.65 40.95 43.35 43.3 L43.35 43.35 Q41 45.65 38.2 46.85 L38.15 46.85 Q35.35 48 32.05 48 L32 48 Q28.7 48 25.9 46.85 23.05 45.7 20.7 43.4 L20.65 43.35 20.65 43.3 Q18.3 40.95 17.2 38.15 16 35.3 16 32 16 28.7 17.15 25.9 18.3 23 20.65 20.65 L20.65 20.6 20.7 20.6 Q23.05 18.3 25.9 17.15 28.7 16 32 16 L32.05 16 Q35.35 16 38.2 17.2"/>
    <path stroke="none" fill="#353541" d="M27.55 35.35 Q25.9 37 23.5 37 21.15 37 19.5 35.35 18.4 34.25 18.05 32.9 17.9 32.25 18.25 31.75 18.5 31.2 19.15 31.05 L20.3 31.2 Q20.8 31.5 20.95 32.1 L21.65 33.2 Q22.45 34 23.5 34 24.6 34 25.45 33.2 L26.15 32.05 Q26.35 31.45 26.9 31.15 L28 31.1 Q28.6 31.25 28.95 31.8 29.2 32.35 29 32.95 28.55 34.3 27.55 35.35"/>
    <path stroke="none" fill="#353541" d="M44.55 35.35 Q42.9 37 40.5 37 38.15 37 36.5 35.35 35.4 34.25 35.05 32.9 34.9 32.25 35.25 31.75 35.5 31.2 36.15 31.05 L37.3 31.2 Q37.8 31.5 37.95 32.1 L38.65 33.2 Q39.45 34 40.5 34 41.6 34 42.45 33.2 L43.15 32.05 Q43.35 31.45 43.9 31.15 L45 31.1 45.95 31.8 Q46.2 32.35 46 32.95 45.55 34.3 44.55 35.35"/>
  </g>
</svg>