<svg width="64" height="64" xmlns="http://www.w3.org/2000/svg" xmlns:xlink="http://www.w3.org/1999/xlink">
  <defs/>
  <g>
    <path stroke="none" fill="#353541" d="M46.7 3.9 L46.85 4 Q48.65 5.45 49.35 7.65 L49.4 7.7 51.25 13.65 57.1 15.7 57 15.75 Q59.2 16.45 60.6 18.4 L61.85 20.45 62.3 22.7 Q62.55 25.1 61.5 27.1 L61.5 27.05 58.6 32.6 61.25 38.25 Q62.25 40.35 61.9 42.65 L61.85 42.8 61.3 44.9 60.15 46.7 60 46.9 Q58.55 48.65 56.35 49.35 L56.35 49.4 50.4 51.25 48.3 57.1 48.3 57 Q47.55 59.2 45.6 60.6 L43.65 61.8 41.3 62.3 Q38.9 62.55 36.9 61.5 L37 61.5 31.45 58.6 25.8 61.25 25.75 61.25 Q23.65 62.25 21.4 61.9 L21.2 61.85 19.1 61.3 Q18.15 60.9 17.3 60.15 L17.15 60 Q15.35 58.55 14.65 56.35 L12.8 50.4 6.95 48.3 7 48.3 Q4.8 47.55 3.4 45.6 2.65 44.7 2.25 43.65 1.8 42.55 1.7 41.3 1.45 38.95 2.5 37 L5.45 31.4 2.8 25.8 2.75 25.75 Q1.75 23.65 2.1 21.45 L2.2 21.2 Q2.25 20.1 2.75 19.15 3.1 18.15 3.9 17.3 L4 17.2 Q5.45 15.35 7.65 14.65 L7.7 14.65 13.65 12.8 15.7 6.95 15.75 7 Q16.45 4.8 18.4 3.4 19.4 2.65 20.45 2.2 L22.7 1.7 Q25.1 1.45 27.1 2.55 L27.05 2.5 32.6 5.45 Q35.45 4.15 38.25 2.8 L38.25 2.75 Q40.35 1.75 42.6 2.1 L42.8 2.2 Q43.95 2.3 44.85 2.75 45.9 3.15 46.7 3.9 M48 16.75 L45.55 8.85 Q45.15 7.8 44.25 7 L43.25 6.4 42.15 6.1 39.95 6.35 32.45 9.95 25.15 6.1 Q24.2 5.55 23 5.7 L21.85 5.95 20.9 6.5 Q19.85 7.2 19.5 8.25 L16.75 16.05 8.85 18.45 Q7.8 18.85 7 19.75 L6.4 20.75 6.1 21.85 Q5.9 23.05 6.35 24.05 L9.95 31.55 6.1 38.85 Q5.55 39.8 5.7 41 L5.95 42.15 6.5 43.1 Q7.2 44.15 8.25 44.5 L16 47.3 18.45 55.15 Q18.85 56.2 19.75 57 L20.75 57.65 21.85 57.9 24.05 57.65 31.55 54.1 38.85 57.9 Q39.8 58.45 41 58.3 L42.15 58.05 43.1 57.5 Q44.15 56.8 44.5 55.75 L47.3 48.05 55.15 45.55 Q56.2 45.15 57 44.25 L57.65 43.25 57.9 42.15 Q58.1 40.95 57.65 39.95 L54.1 32.5 57.9 25.15 Q58.45 24.2 58.3 23 L58.05 21.85 57.5 20.9 Q56.8 19.85 55.75 19.5 L48 16.75"/>
    <path stroke="none" fill="#A8B2BB" d="M48 16.75 L55.75 19.5 Q56.8 19.85 57.5 20.9 L58.05 21.85 48.8 25.5 48.8 25.4 Q47.45 22 45.05 19.55 L48 16.75 M54.1 32.5 L57.65 39.95 Q58.1 40.95 57.9 42.15 L57.65 43.25 48.5 39.25 Q50 35.85 50.1 32.4 L54.1 32.5 M47.3 48.05 L44.5 55.75 Q44.15 56.8 43.1 57.5 L42.15 58.05 38.55 48.8 Q42 47.45 44.5 45.05 L47.3 48.05 M31.55 54.1 L24.05 57.65 21.85 57.9 20.75 57.65 24.8 48.5 Q28.2 50 31.65 50.1 L31.55 54.1 M16 47.3 L8.25 44.5 Q7.2 44.15 6.5 43.1 L5.95 42.15 15.2 38.6 Q16.6 42.05 19 44.5 L16 47.3 M9.95 31.55 L6.35 24.05 Q5.9 23.05 6.1 21.85 L6.4 20.75 15.5 24.75 Q14 28.2 13.9 31.65 L9.95 31.55 M16.75 16.05 L19.5 8.25 Q19.85 7.2 20.9 6.5 L21.85 5.95 25.5 15.15 25.45 15.2 Q21.95 16.55 19.5 19 L16.75 16.05 M32.45 9.95 L39.95 6.35 42.15 6.1 43.25 6.4 39.3 15.5 39.25 15.5 Q35.85 14 32.4 13.9 L32.45 9.95"/>
    <path stroke="none" fill="#BBC4CB" d="M32.45 9.95 L32.4 13.9 Q28.95 13.85 25.5 15.15 L21.85 5.95 23 5.7 Q24.2 5.55 25.15 6.1 L32.45 9.95 M43.25 6.4 L44.25 7 Q45.15 7.8 45.55 8.85 L48 16.75 45.05 19.55 Q42.7 17 39.3 15.5 L43.25 6.4 M58.05 21.85 L58.3 23 Q58.45 24.2 57.9 25.15 L54.1 32.5 50.1 32.4 Q50.15 29 48.8 25.5 L58.05 21.85 M57.65 43.25 L57 44.25 Q56.2 45.15 55.15 45.55 L47.3 48.05 44.5 45.05 Q47 42.7 48.5 39.25 L57.65 43.25 M42.15 58.05 L41 58.3 Q39.8 58.45 38.85 57.9 L31.55 54.1 31.65 50.1 Q35.05 50.1 38.5 48.8 L38.55 48.8 42.15 58.05 M20.75 57.65 L19.75 57 Q18.85 56.2 18.45 55.15 L16 47.3 19 44.5 Q21.35 47 24.75 48.5 L24.8 48.5 20.75 57.65 M5.95 42.15 L5.7 41 Q5.55 39.8 6.1 38.85 L9.95 31.55 13.9 31.65 Q13.85 35.05 15.2 38.5 L15.2 38.6 5.95 42.15 M6.4 20.75 L7 19.75 Q7.8 18.85 8.85 18.45 L16.75 16.05 19.5 19 Q17 21.3 15.5 24.75 L6.4 20.75"/>
    <path stroke="none" fill="#D6DCE0" d="M39.3 15.5 Q42.7 17 45.05 19.55 47.45 22 48.8 25.4 L48.8 25.5 Q50.15 29 50.1 32.4 50 35.85 48.5 39.25 47 42.7 44.5 45.05 42 47.45 38.55 48.8 L38.5 48.8 Q35.05 50.1 31.65 50.1 28.2 50 24.8 48.5 L24.75 48.5 Q21.35 47 19 44.5 16.6 42.05 15.2 38.6 L15.2 38.5 Q13.85 35.05 13.9 31.65 14 28.2 15.5 24.75 17 21.3 19.5 19 21.95 16.55 25.45 15.2 L25.5 15.15 Q28.95 13.85 32.4 13.9 35.85 14 39.25 15.5 L39.3 15.5 M43.65 20.95 Q41.5 18.7 38.5 17.35 L38.45 17.35 Q35.45 16 32.4 15.95 29.3 15.85 26.25 17 L26.2 17 26.15 17.05 Q23.05 18.25 20.85 20.4 18.7 22.55 17.35 25.55 16 28.55 15.95 31.7 15.85 34.7 17.05 37.8 L17.05 37.9 Q18.3 40.95 20.4 43.15 22.55 45.3 25.55 46.65 L25.6 46.65 Q28.6 48 31.65 48.1 L31.7 48.1 Q34.75 48.1 37.85 46.95 L37.85 46.9 Q40.9 45.7 43.1 43.65 45.3 41.45 46.65 38.45 48 35.45 48.05 32.4 48.15 29.3 47 26.25 L46.95 26.15 46.9 26.15 Q45.75 23.1 43.65 20.95"/>
    <path stroke="none" fill="#919EAA" d="M43.65 20.95 Q45.75 23.1 46.9 26.15 L46.95 26.15 47 26.25 Q48.15 29.3 48.05 32.4 48 35.45 46.65 38.45 45.3 41.45 43.1 43.65 40.9 45.7 37.85 46.9 L37.85 46.95 Q34.75 48.1 31.7 48.1 L31.65 48.1 Q28.6 48 25.6 46.65 L25.55 46.65 Q22.55 45.3 20.4 43.15 18.3 40.95 17.05 37.9 L17.05 37.8 Q15.85 34.7 15.95 31.7 16 28.55 17.35 25.55 18.7 22.55 20.85 20.4 23.05 18.25 26.15 17.05 L26.2 17 26.25 17 Q29.3 15.85 32.4 15.95 35.45 16 38.45 17.35 L38.5 17.35 Q41.5 18.7 43.65 20.95"/>
    <path stroke="none" fill="#353541" d="M43.05 29.3 L44 28.95 Q45 30.25 45 32 45 34.05 43.5 35.5 42.05 37 40 37 37.85 37 36.45 35.5 35 34.05 35 32 L40.15 30.25 Q40 30.6 40 31 40 31.8 40.6 32.4 41.15 33 42 33 42.8 33 43.4 32.4 44 31.8 44 31 44 30.15 43.4 29.55 L43.05 29.3 M24.1 30.35 L24 31 Q24 31.8 24.6 32.4 25.15 33 26 33 26.8 33 27.4 32.4 L27.9 31.65 29 32 Q29 34.05 27.5 35.5 26.05 37 24 37 21.85 37 20.45 35.5 19 34.05 19 32 19 30.25 20 28.95 L24.1 30.35"/>
    <path stroke="none" fill="#5D5D67" d="M24.1 30.35 L27.9 31.65 27.4 32.4 Q26.8 33 26 33 25.15 33 24.6 32.4 24 31.8 24 31 L24.1 30.35 M40.15 30.25 L43.05 29.3 43.4 29.55 Q44 30.15 44 31 44 31.8 43.4 32.4 42.8 33 42 33 41.15 33 40.6 32.4 40 31.8 40 31 40 30.6 40.15 30.25"/>
  </g>
</svg>