<svg width="64" height="64" xmlns="http://www.w3.org/2000/svg" xmlns:xlink="http://www.w3.org/1999/xlink">
  <defs>
    <linearGradient gradientUnits="userSpaceOnUse" x1="-819.2" x2="819.2" spreadMethod="pad" gradientTransform="matrix(0 0.01080322265625 -0.00762939453125 0 35.95 24.5)" id="gradient0">
      <stop offset="0" stop-color="#D6DCE0"/>
      <stop offset="1" stop-color="#A8B2BB"/>
    </linearGradient>
  </defs>
  <g>
    <path stroke="none" fill="#353541" d="M37.4 14.3 L42.15 23.8 42.15 23.9 Q43.3 24.3 44.3 25.3 46 26.9 46 29.5 L46 30.3 Q50.4 31.85 54.15 34.55 L54.2 34.55 Q64.15 41.7 64 51.85 L64 52.4 64 52.75 63.8 54.25 63.75 54.35 Q61.95 63.6 51.4 64.05 L51.2 64.05 13.6 64.05 13.15 64.05 Q2.1 62.7 0.4 54.55 L0.35 54.45 0.35 54.35 0.05 52.8 0 52.4 0 51.85 Q-0.15 41.7 9.9 34.55 13.65 31.9 18 30.3 L18 29.5 Q18.05 27.05 19.65 25.4 L19.8 25.3 19.9 25.15 Q20.75 24.3 21.85 23.9 L21.9 23.8 26.65 14.3 Q27.7 12.15 30.05 11.35 L32 11 34.15 11.4 34.1 11.4 Q36.3 12.15 37.4 14.3"/>
    <path stroke="none" fill="url(#gradient0)" d="M32 15 L32.75 15.15 Q33.45 15.4 33.8 16.1 L38.55 25.6 Q38.85 26.25 38.7 26.95 L38.5 27.5 32 27.5 32 15"/>
    <path stroke="none" fill="#92A1AD" d="M38.5 27.5 L40 27.5 Q40.85 27.5 41.45 28.1 42 28.65 42 29.5 L42 33.5 Q42 34.35 41.45 34.95 40.85 35.5 40 35.5 L24 35.5 Q23.15 35.5 22.6 34.95 22 34.35 22 33.5 L22 29.5 Q22 28.65 22.6 28.1 23.15 27.5 24 27.5 L25.55 27.5 32 27.5 38.5 27.5"/>
    <path stroke="none" fill="#BBC4CB" d="M25.55 27.5 L25.3 26.95 Q25.15 26.25 25.45 25.6 L30.2 16.1 Q30.55 15.4 31.3 15.15 L32 15 32 27.5 25.55 27.5"/>
    <path stroke="none" fill="#59F0B0" d="M4.2 53.4 L4 52.4 4 51.85 Q4 43.65 12.2 37.8 20.4 32 32.05 32 43.65 32 51.85 37.8 60 43.65 60 51.85 L60 52.4 59.85 53.5 Q58.8 46.8 51.85 41.8 43.65 36 32.05 36 20.4 36 12.2 41.8 5.25 46.75 4.2 53.4"/>
    <path stroke="none" fill="#2CC987" d="M4.2 53.4 Q5.25 46.75 12.2 41.8 20.4 36 32.05 36 43.65 36 51.85 41.8 58.8 46.8 59.85 53.5 58.5 59.75 51.2 60.05 L13.6 60.05 Q5.6 59.1 4.2 53.4"/>
    <path stroke="none" fill="#59F0B0" d="M40.75 38.55 Q42.35 36.95 44.6 36.95 46.9 36.95 48.55 38.55 50.15 40.25 50.15 42.5 50.15 44.8 48.55 46.4 46.9 48.05 44.6 48.05 42.35 48.05 40.75 46.4 39.05 44.8 39.05 42.5 39.05 40.25 40.75 38.55"/>
    <path stroke="none" fill="#FABA2D" d="M19.4 49.45 Q20 48.85 20 48.05 20 47.2 19.4 46.6 18.8 46.05 17.95 46.05 17.15 46.05 16.6 46.6 16 47.2 16 48.05 16 48.85 16.6 49.45 17.15 50.05 17.95 50.05 18.8 50.05 19.4 49.45 M19.55 52.6 Q18.05 54.05 16 54.05 13.95 54.05 12.5 52.6 11 51.1 11 49.05 11 47 12.5 45.5 13.95 44.05 16 44.05 18.05 44.05 19.55 45.5 21.05 47 21.05 49.05 21.05 51.1 19.55 52.6"/>
    <path stroke="none" fill="#FFFFFF" d="M19.4 49.45 Q18.8 50.05 17.95 50.05 17.15 50.05 16.6 49.45 16 48.85 16 48.05 16 47.2 16.6 46.6 17.15 46.05 17.95 46.05 18.8 46.05 19.4 46.6 20 47.2 20 48.05 20 48.85 19.4 49.45"/>
  </g>
</svg>