<svg width="64" height="64" xmlns="http://www.w3.org/2000/svg" xmlns:xlink="http://www.w3.org/1999/xlink">
  <defs/>
  <g>
    <path stroke="none" fill="#353541" d="M59.85 53.5 L60 52.4 60 51.85 Q60 43.65 51.85 37.8 43.65 32 32.05 32 20.4 32 12.2 37.8 4 43.65 4 51.85 L4 52.4 4.2 53.4 Q5.6 59.1 13.6 60.05 L51.2 60.05 Q58.5 59.75 59.85 53.5 M9.9 34.55 Q19.05 28 32.05 28 45 28 54.15 34.55 L54.2 34.55 Q64.15 41.7 64 51.85 L64 52.4 64 52.9 Q62.75 63.6 51.35 64.05 L51.2 64.05 13.6 64.05 13.15 64.05 Q0.95 62.55 0.05 52.95 L0 52.4 0 51.85 Q-0.15 41.7 9.9 34.55"/>
    <path stroke="none" fill="#D699FA" d="M4.2 53.4 L4 52.4 4 51.85 Q4 43.65 12.2 37.8 20.4 32 32.05 32 43.65 32 51.85 37.8 60 43.65 60 51.85 L60 52.4 59.85 53.5 Q58.8 46.8 51.85 41.8 43.65 36 32.05 36 20.4 36 12.2 41.8 5.25 46.75 4.2 53.4"/>
    <path stroke="none" fill="#BA6BE9" d="M4.2 53.4 Q5.25 46.75 12.2 41.8 20.4 36 32.05 36 43.65 36 51.85 41.8 58.8 46.8 59.85 53.5 58.5 59.75 51.2 60.05 L13.6 60.05 Q5.6 59.1 4.2 53.4"/>
    <path stroke="none" fill="#D699FA" d="M40.75 38.55 Q42.35 36.95 44.6 36.95 46.9 36.95 48.55 38.55 50.15 40.25 50.15 42.5 50.15 44.8 48.55 46.4 46.9 48.05 44.6 48.05 42.35 48.05 40.75 46.4 39.05 44.8 39.05 42.5 39.05 40.25 40.75 38.55"/>
    <path stroke="none" fill="#FABA2D" d="M19.4 49.45 Q20 48.85 20 48.05 20 47.2 19.4 46.6 18.8 46.05 17.95 46.05 17.15 46.05 16.6 46.6 16 47.2 16 48.05 16 48.85 16.6 49.45 17.15 50.05 17.95 50.05 18.8 50.05 19.4 49.45 M19.55 52.6 Q18.05 54.05 16 54.05 13.95 54.05 12.5 52.6 11 51.1 11 49.05 11 47 12.5 45.5 13.95 44.05 16 44.05 18.05 44.05 19.55 45.5 21.05 47 21.05 49.05 21.05 51.1 19.55 52.6"/>
    <path stroke="none" fill="#FFFFFF" d="M19.4 49.45 Q18.8 50.05 17.95 50.05 17.15 50.05 16.6 49.45 16 48.85 16 48.05 16 47.2 16.6 46.6 17.15 46.05 17.95 46.05 18.8 46.05 19.4 46.6 20 47.2 20 48.05 20 48.85 19.4 49.45"/>
  </g>
</svg>