<svg width="64" height="64" xmlns="http://www.w3.org/2000/svg" xmlns:xlink="http://www.w3.org/1999/xlink">
  <defs>
    <linearGradient gradientUnits="userSpaceOnUse" x1="-819.2" x2="819.2" spreadMethod="pad" gradientTransform="matrix(-0.0129547119140625 0.0129547119140625 0.014678955078125 0.014678955078125 30.35 38.45)" id="gradient0">
      <stop offset="0" stop-color="#FF9935"/>
      <stop offset="0.48627450980392156" stop-color="#FA7F20"/>
      <stop offset="1" stop-color="#D9673B"/>
    </linearGradient>
  </defs>
  <g>
    <path stroke="none" fill="#353541" d="M50.9 17.05 L51.6 17.15 Q55.2 17.65 57.5 20.5 L57.35 20.25 Q60.2 23.2 59.5 27.85 L59.4 28.3 Q58.9 31.35 56.2 33.75 L56.35 33.65 55 35.15 Q64.15 42.15 64 51.85 L64 52.4 64 52.75 63.8 54.25 63.75 54.35 Q61.95 63.6 51.4 64.05 L51.2 64.05 13.6 64.05 13.15 64.05 Q2.1 62.7 0.4 54.55 L0.35 54.45 0.35 54.35 0.05 52.8 0 52.4 0 51.85 Q-0.15 41.7 9.9 34.55 L10.7 34 12.7 32.75 Q13.95 29.15 16.5 25.75 L16.9 25.3 17.1 25.05 Q19.95 21.5 24 19.3 27.6 17.35 32.2 16.45 L32.3 16.45 Q36.35 15.55 39.55 17.8 L39.55 17.85 39.8 17.95 Q45.1 16.7 50.9 17.05"/>
    <path stroke="none" fill="url(#gradient0)" d="M19.4 41.7 L19.35 41.65 Q19.15 40.35 19.5 39 19.95 34.55 22.95 30.45 L23 30.4 Q26.9 25.6 33.95 24.25 34.6 24.1 35.1 24.5 35.6 24.8 35.65 25.45 35.7 26.1 35.25 26.65 34.4 27.6 34 28.8 41.45 24.45 50.45 25.05 51 25.1 51.35 25.55 51.7 26 51.55 26.65 L51 27.7 Q45.6 32.8 44.35 40.25 44.25 46.55 39.85 50.15 35 53.7 29.9 52.2 L29.75 52.05 30.7 51.4 30.9 51.3 Q33.75 48.95 33.9 44.9 34.4 42.7 36.05 41.05 37 40.2 37.2 39 L37.2 39.05 Q37.5 37.6 36.6 36.5 35.9 35.3 34.2 35.2 L34.25 35.25 Q30.95 34.95 23.45 38.45 L22.8 38.7 Q20.55 40.25 19.4 41.7"/>
    <path stroke="none" fill="#F7B34B" d="M19.4 41.7 L19.25 41.85 Q18.75 42.45 18.8 43.2 18.85 43.95 19.4 44.5 L26.85 51.95 Q27.3 52.4 27.9 52.5 L29.05 52.35 29.75 52.05 29.9 52.2 Q35 53.7 39.85 50.15 44.25 46.55 44.35 40.25 45.6 32.8 51 27.7 L51.55 26.65 Q51.7 26 51.35 25.55 51 25.1 50.45 25.05 41.45 24.45 34 28.8 34.4 27.6 35.25 26.65 35.7 26.1 35.65 25.45 35.6 24.8 35.1 24.5 34.6 24.1 33.95 24.25 26.9 25.6 23 30.4 L22.95 30.45 Q19.95 34.55 19.5 39 19.15 40.35 19.35 41.65 L19.4 41.7 M50.65 21.05 L50.9 21.1 Q53.05 21.35 54.4 23 55.95 24.65 55.55 27.25 L55.5 27.3 Q55.25 29.25 53.55 30.75 49.4 34.8 48.3 40.7 48.1 48.7 42.35 53.25 L42.25 53.35 Q35.65 58.25 28.75 56.05 27.8 55.7 27.1 55 L16.55 44.45 Q15.6 43.5 15.35 42.15 15.15 40.35 15.5 38.4 16.05 33.05 19.7 28.1 L20.05 27.75 Q24.65 21.95 33.05 20.35 35.5 19.8 37.4 21.2 L38.7 22.4 Q44.35 20.65 50.65 21.05"/>
    <path stroke="none" fill="#FFCC00" d="M19.4 41.7 Q20.55 40.25 22.8 38.7 L23.45 38.45 Q30.95 34.95 34.25 35.25 L34.2 35.2 Q35.9 35.3 36.6 36.5 37.5 37.6 37.2 39.05 L37.2 39 Q37 40.2 36.05 41.05 34.4 42.7 33.9 44.9 33.75 48.95 30.9 51.3 L30.7 51.4 29.75 52.05 29.05 52.35 27.9 52.5 Q27.3 52.4 26.85 51.95 L19.4 44.5 Q18.85 43.95 18.8 43.2 18.75 42.45 19.25 41.85 L19.4 41.7"/>
    <path stroke="none" fill="#F17575" d="M4.2 53.4 L4 52.4 4 51.85 Q4 43.65 12.2 37.8 20.4 32 32.05 32 43.65 32 51.85 37.8 60 43.65 60 51.85 L60 52.4 59.85 53.5 Q58.8 46.8 51.85 41.8 43.65 36 32.05 36 20.4 36 12.2 41.8 5.25 46.75 4.2 53.4"/>
    <path stroke="none" fill="#E54341" d="M4.2 53.4 Q5.25 46.75 12.2 41.8 20.4 36 32.05 36 43.65 36 51.85 41.8 58.8 46.8 59.85 53.5 58.5 59.75 51.2 60.05 L13.6 60.05 Q5.6 59.1 4.2 53.4"/>
    <path stroke="none" fill="#F17575" d="M40.75 38.55 Q42.35 36.95 44.6 36.95 46.9 36.95 48.55 38.55 50.15 40.25 50.15 42.5 50.15 44.8 48.55 46.4 46.9 48.05 44.6 48.05 42.35 48.05 40.75 46.4 39.05 44.8 39.05 42.5 39.05 40.25 40.75 38.55"/>
    <path stroke="none" fill="#FABA2D" d="M19.55 52.6 Q18.05 54.05 16 54.05 13.95 54.05 12.5 52.6 11 51.1 11 49.05 11 47 12.5 45.5 13.95 44.05 16 44.05 18.05 44.05 19.55 45.5 21.05 47 21.05 49.05 21.05 51.1 19.55 52.6 M19.4 49.45 Q20 48.85 20 48.05 20 47.2 19.4 46.6 18.8 46.05 17.95 46.05 17.15 46.05 16.6 46.6 16 47.2 16 48.05 16 48.85 16.6 49.45 17.15 50.05 17.95 50.05 18.8 50.05 19.4 49.45"/>
    <path stroke="none" fill="#FFFFFF" d="M19.4 49.45 Q18.8 50.05 17.95 50.05 17.15 50.05 16.6 49.45 16 48.85 16 48.05 16 47.2 16.6 46.6 17.15 46.05 17.95 46.05 18.8 46.05 19.4 46.6 20 47.2 20 48.05 20 48.85 19.4 49.45"/>
  </g>
</svg>