<svg width="64" height="64" xmlns="http://www.w3.org/2000/svg" xmlns:xlink="http://www.w3.org/1999/xlink">
  <defs>
    <linearGradient gradientUnits="userSpaceOnUse" x1="-819.2" x2="819.2" spreadMethod="pad" gradientTransform="matrix(0 0.01080322265625 -0.00762939453125 0 35.95 41.5)" id="gradient0">
      <stop offset="0" stop-color="#D6DCE0"/>
      <stop offset="1" stop-color="#A8B2BB"/>
    </linearGradient>
  </defs>
  <g>
    <path stroke="none" fill="#353541" d="M59.6 53.9 Q60.05 55.05 60.05 56.45 L60.05 56.7 59.95 57.7 Q59.25 63.75 48.6 64 L16.2 64 15.95 64 Q4.65 63.3 4.15 57.75 L4 56.7 4 56.45 Q4 55 4.55 53.8 5.65 49.5 13.65 46.7 L13.7 46.7 Q15.75 45.95 18.1 45.4 L21.4 44.8 Q20.95 42.8 21.85 40.95 L21.85 40.9 21.9 40.8 26.65 31.3 Q27.7 29.15 30.05 28.35 L32 28 34.15 28.4 34.1 28.4 Q36.3 29.15 37.4 31.3 L42.15 40.8 42.15 40.9 Q43.3 41.3 44.3 42.3 45.6 43.55 45.95 45.4 L50.4 46.7 Q58.45 49.55 59.6 53.85 L59.6 53.9"/>
    <path stroke="none" fill="url(#gradient0)" d="M32 32 L32.75 32.15 Q33.45 32.4 33.8 33.1 L38.55 42.6 Q38.85 43.25 38.7 43.95 L38.5 44.5 32 44.5 32 32"/>
    <path stroke="none" fill="#92A1AD" d="M38.5 44.5 L40 44.5 Q40.85 44.5 41.45 45.1 42 45.65 42 46.5 L42 50.5 Q42 51.35 41.45 51.95 40.85 52.5 40 52.5 L24 52.5 Q23.15 52.5 22.6 51.95 22 51.35 22 50.5 L22 46.5 Q22 45.65 22.6 45.1 23.15 44.5 24 44.5 L25.55 44.5 32 44.5 38.5 44.5"/>
    <path stroke="none" fill="#BBC4CB" d="M25.55 44.5 L25.3 43.95 Q25.15 43.25 25.45 42.6 L30.2 33.1 Q30.55 32.4 31.3 32.15 L32 32 32 44.5 25.55 44.5"/>
    <path stroke="none" fill="#59F0B0" d="M8.25 55.25 Q9.25 52.5 15 50.45 22.05 48 32.05 48 42 48 49.05 50.45 54.8 52.5 55.85 55.25 L53.4 54.45 Q44.55 52 32.05 52 19.5 52 10.65 54.45 L8.25 55.25"/>
    <path stroke="none" fill="#2CC987" d="M8.25 55.25 L10.65 54.45 Q19.5 52 32.05 52 44.55 52 53.4 54.45 L55.85 55.25 56.05 56.45 56.05 56.7 Q55.25 59.85 48.5 60 L16.2 60 Q8.75 59.55 8 56.7 L8 56.45 Q8 55.8 8.25 55.25"/>
    <path stroke="none" fill="#353541" d="M24.55 56.35 Q22.9 58 20.5 58 18.15 58 16.5 56.35 15.4 55.25 15.05 53.9 14.9 53.25 15.25 52.75 15.5 52.2 16.15 52.05 L17.3 52.2 Q17.8 52.5 17.95 53.1 18.15 53.7 18.65 54.2 19.45 55 20.5 55 21.6 55 22.45 54.2 L23.15 53.05 Q23.35 52.45 23.9 52.15 L25 52.1 25.95 52.8 Q26.2 53.35 26 53.95 25.55 55.3 24.55 56.35"/>
    <path stroke="none" fill="#59F0B0" d="M39.2 50.15 Q40.35 49 42 49 43.65 49 44.85 50.15 46 51.4 46 53 46 54.7 44.85 55.85 43.65 57 42 57 L41.25 57 41.25 56.85 40.8 56.85 Q39.9 56.55 39.2 55.85 38 54.7 38 53 38 51.4 39.2 50.15"/>
  </g>
</svg>