<svg width="64" height="64" xmlns="http://www.w3.org/2000/svg" xmlns:xlink="http://www.w3.org/1999/xlink">
  <defs/>
  <g>
    <path stroke="none" fill="#59F0B0" d="M8 19.75 L8 16 Q8 12 12 12 L52 12 Q56 12 56 16 L56 19.75 Q55.85 16 52 16 L12 16 Q8.15 16 8 19.75"/>
    <path stroke="none" fill="#2CC987" d="M8 19.75 Q8.15 16 12 16 L52 16 Q55.85 16 56 19.75 L56 56.4 Q55.8 60 52 60 L12 60 Q8.2 60 8 56.4 L8 19.75"/>
    <path stroke="none" fill="#353541" d="M8 19.75 L8 56.4 Q8.2 60 12 60 L52 60 Q55.8 60 56 56.4 L56 19.75 56 16 Q56 12 52 12 L12 12 Q8 12 8 16 L8 19.75 M4 56.5 L4 16 Q4 8 12 8 L52 8 Q60 8 60 16 L60 56.5 Q59.75 63.85 52.35 64 L11.65 64 Q4.25 63.85 4 56.5"/>
    <path stroke="none" fill="#1AA074" d="M34.25 44.1 L35.9 45.75 Q36.9 46.7 36.9 48.05 36.9 49.4 35.9 50.4 L34.25 52.05 Q33.4 52.9 32.05 52.9 30.7 52.9 29.75 51.95 L28.1 50.3 Q27.15 49.4 27.1 48 27.15 46.7 28.1 45.8 L29.75 44.15 Q30.7 43.15 31.95 43.1 33.4 43.15 34.25 44.1"/>
    <path stroke="none" fill="#FABA2D" d="M48.05 36.05 Q46.55 37.5 44.5 37.5 42.45 37.5 41 36.05 39.5 34.55 39.5 32.5 39.5 30.45 41 28.95 42.45 27.5 44.5 27.5 46.55 27.5 48.05 28.95 49.55 30.45 49.55 32.5 49.55 34.55 48.05 36.05 M47.9 32.9 Q48.5 32.3 48.5 31.5 48.5 30.65 47.9 30.05 47.3 29.5 46.45 29.5 45.65 29.5 45.1 30.05 44.5 30.65 44.5 31.5 44.5 32.3 45.1 32.9 45.65 33.5 46.45 33.5 47.3 33.5 47.9 32.9 M22.9 32.9 Q23.5 32.3 23.5 31.5 23.5 30.65 22.9 30.05 22.3 29.5 21.45 29.5 20.65 29.5 20.1 30.05 19.5 30.65 19.5 31.5 19.5 32.3 20.1 32.9 20.65 33.5 21.45 33.5 22.3 33.5 22.9 32.9 M23.05 36.05 Q21.55 37.5 19.5 37.5 17.45 37.5 16 36.05 14.5 34.55 14.5 32.5 14.5 30.45 16 28.95 17.45 27.5 19.5 27.5 21.55 27.5 23.05 28.95 24.55 30.45 24.55 32.5 24.55 34.55 23.05 36.05"/>
    <path stroke="none" fill="#FFFFFF" d="M47.9 32.9 Q47.3 33.5 46.45 33.5 45.65 33.5 45.1 32.9 44.5 32.3 44.5 31.5 44.5 30.65 45.1 30.05 45.65 29.5 46.45 29.5 47.3 29.5 47.9 30.05 48.5 30.65 48.5 31.5 48.5 32.3 47.9 32.9 M43.8 47.6 Q43 48 42 48 L22 48 Q21.05 48 20.2 47.6 L22 44 20.2 40.4 22 40 42 40 43.8 40.4 42 44 43.8 47.6 M22.9 32.9 Q22.3 33.5 21.45 33.5 20.65 33.5 20.1 32.9 19.5 32.3 19.5 31.5 19.5 30.65 20.1 30.05 20.65 29.5 21.45 29.5 22.3 29.5 22.9 30.05 23.5 30.65 23.5 31.5 23.5 32.3 22.9 32.9"/>
    <path stroke="none" fill="#353541" d="M43.8 40.4 L44.8 41.15 Q46 42.35 46 44 46 45.65 44.8 46.8 L43.8 47.6 42 44 43.8 40.4 M20.2 47.6 L19.15 46.8 Q18 45.65 18 44 18 42.35 19.15 41.15 19.65 40.7 20.2 40.4 L22 44 20.2 47.6"/>
    <path stroke="none" fill="#59F0B0" d="M38 16.15 Q38 17.8 36.8 19.05 L34.75 21.05 Q33.7 22.1 32.05 22.1 30.4 22.1 29.25 20.95 L27.2 18.9 Q26.05 17.8 26 16.1 L26.2 14.95 37.85 14.95 38 16.15"/>
  </g>
</svg>