<svg width="64" height="64" xmlns="http://www.w3.org/2000/svg" xmlns:xlink="http://www.w3.org/1999/xlink">
  <defs>
    <linearGradient gradientUnits="userSpaceOnUse" x1="-819.2" x2="819.2" spreadMethod="pad" gradientTransform="matrix(-0.0129547119140625 0.0129547119140625 0.014678955078125 0.014678955078125 30.35 55.95)" id="gradient0">
      <stop offset="0" stop-color="#FF9935"/>
      <stop offset="0.48627450980392156" stop-color="#FA7F20"/>
      <stop offset="1" stop-color="#D9673B"/>
    </linearGradient>
  </defs>
  <g>
    <path stroke="none" fill="#353541" d="M60.05 56.45 L60.05 56.7 59.95 57.7 Q59.25 63.75 48.6 64 L48.5 64 16.2 64 15.95 64 Q4.65 63.3 4.15 57.75 L4 56.7 4 56.45 Q4 55 4.55 53.75 5.65 49.75 12.8 47 L12.85 47 13.65 46.7 13.7 46.7 14.45 46.45 Q15.3 44.8 16.5 43.25 L16.9 42.8 17.1 42.55 Q22.45 35.85 32.2 33.95 L32.3 33.95 Q36.45 33.05 39.65 35.4 L39.75 35.45 39.8 35.45 Q45.1 34.2 50.9 34.55 L51.6 34.65 Q55.2 35.15 57.5 38 L57.35 37.75 Q60.2 40.7 59.5 45.35 L59.4 45.8 Q59 48.3 57.15 50.3 59.05 51.95 59.6 53.85 L59.6 53.9 Q60.05 55.05 60.05 56.45"/>
    <path stroke="none" fill="#F7B34B" d="M19.55 56 L15.5 56 15.5 55.9 Q16.05 50.55 19.7 45.6 L20.05 45.25 Q24.65 39.45 33.05 37.85 35.5 37.3 37.4 38.7 L38.7 39.9 Q44.35 38.15 50.65 38.55 L50.9 38.6 Q53.05 38.85 54.4 40.5 55.95 42.15 55.55 44.75 L55.5 44.8 Q55.25 46.75 53.55 48.25 50.2 51.5 48.85 56 L44.7 56 Q46.25 49.7 51 45.2 L51.55 44.15 Q51.7 43.5 51.35 43.05 51 42.6 50.45 42.55 41.45 41.95 34 46.3 34.4 45.1 35.25 44.15 35.7 43.6 35.65 42.95 35.6 42.3 35.1 42 34.6 41.6 33.95 41.75 26.9 43.1 23 47.9 L22.95 47.95 Q20.1 51.8 19.55 56"/>
    <path stroke="none" fill="url(#gradient0)" d="M19.55 56 Q20.1 51.8 22.95 47.95 L23 47.9 Q26.9 43.1 33.95 41.75 34.6 41.6 35.1 42 35.6 42.3 35.65 42.95 35.7 43.6 35.25 44.15 34.4 45.1 34 46.3 41.45 41.95 50.45 42.55 51 42.6 51.35 43.05 51.7 43.5 51.55 44.15 L51 45.2 Q46.25 49.7 44.7 56 L37.3 56 Q37.35 54.9 36.6 54 35.9 52.8 34.2 52.7 L34.25 52.75 Q30.95 52.45 23.45 55.95 L23.25 56 19.55 56"/>
    <path stroke="none" fill="#FFCC00" d="M37.3 56 L23.25 56 23.45 55.95 Q30.95 52.45 34.25 52.75 L34.2 52.7 Q35.9 52.8 36.6 54 37.35 54.9 37.3 56"/>
    <path stroke="none" fill="#E54341" d="M55.85 55.25 L56.05 56.45 56.05 56.7 Q55.25 59.85 48.5 60 L16.2 60 Q8.75 59.55 8 56.7 L8 56.45 Q8 55.8 8.25 55.25 L10.65 54.45 14.25 53.6 Q21.95 52 32.05 52 L46.5 53 Q50.2 53.55 53.4 54.45 L55.85 55.25"/>
    <path stroke="none" fill="#F17575" d="M55.85 55.25 L53.4 54.45 Q50.2 53.55 46.5 53 L32.05 52 Q21.95 52 14.25 53.6 L10.65 54.45 8.25 55.25 Q9.2 52.7 14.25 50.75 L15 50.45 Q22.05 48 32.05 48 40.25 48 46.5 49.7 L49.05 50.45 Q54.8 52.5 55.85 55.25"/>
    <path stroke="none" fill="#353541" d="M24.55 56.35 Q22.9 58 20.5 58 18.15 58 16.5 56.35 15.4 55.25 15.05 53.9 14.9 53.25 15.25 52.75 15.5 52.2 16.15 52.05 L17.3 52.2 Q17.8 52.5 17.95 53.1 18.15 53.7 18.65 54.2 19.45 55 20.5 55 21.6 55 22.45 54.2 L23.15 53.05 Q23.35 52.45 23.9 52.15 L25 52.1 25.95 52.8 Q26.2 53.35 26 53.95 25.55 55.3 24.55 56.35"/>
    <path stroke="none" fill="#F17575" d="M39.2 50.15 Q40.35 49 42 49 43.65 49 44.85 50.15 46 51.4 46 53 46 54.7 44.85 55.85 43.65 57 42 57 L41.25 57 41.25 56.85 40.8 56.85 Q39.9 56.55 39.2 55.85 38 54.7 38 53 38 51.4 39.2 50.15"/>
  </g>
</svg>