<svg width="64" height="64" xmlns="http://www.w3.org/2000/svg" xmlns:xlink="http://www.w3.org/1999/xlink">
  <defs/>
  <g>
    <path stroke="none" fill="#353541" d="M60 27.75 L60 24 Q60 20 56 20 L8 20 Q4 20 4 24 L4 27.75 4 56.4 Q4.2 60 8 60 L56 60 Q59.8 60 60 56.4 L60 27.75 M56.35 64 L7.65 64 Q0.25 63.85 0 56.5 L0 24 Q0 16 8 16 L56 16 Q64 16 64 24 L64 56.5 Q63.75 63.85 56.35 64"/>
    <path stroke="none" fill="#59F0B0" d="M60 27.75 Q59.85 24 56 24 L8 24 Q4.15 24 4 27.75 L4 24 Q4 20 8 20 L56 20 Q60 20 60 24 L60 27.75"/>
    <path stroke="none" fill="#2CC987" d="M60 27.75 L60 56.4 Q59.8 60 56 60 L8 60 Q4.2 60 4 56.4 L4 27.75 Q4.15 24 8 24 L56 24 Q59.85 24 60 27.75"/>
    <path stroke="none" fill="#1AA074" d="M34.25 48.1 L35.9 49.75 Q36.9 50.7 36.9 52.05 36.9 53.4 35.9 54.4 L34.25 56.05 Q33.4 56.9 32.05 56.9 30.7 56.9 29.75 55.95 L28.1 54.3 Q27.15 53.4 27.1 52 27.15 50.7 28.1 49.8 L29.75 48.15 Q30.7 47.15 31.95 47.1 33.4 47.15 34.25 48.1"/>
    <path stroke="none" fill="#FABA2D" d="M47.9 36.9 Q48.5 36.3 48.5 35.5 48.5 34.65 47.9 34.05 47.3 33.5 46.45 33.5 45.65 33.5 45.1 34.05 44.5 34.65 44.5 35.5 44.5 36.3 45.1 36.9 45.65 37.5 46.45 37.5 47.3 37.5 47.9 36.9 M48.05 40.05 Q46.55 41.5 44.5 41.5 42.45 41.5 41 40.05 39.5 38.55 39.5 36.5 39.5 34.45 41 32.95 42.45 31.5 44.5 31.5 46.55 31.5 48.05 32.95 49.55 34.45 49.55 36.5 49.55 38.55 48.05 40.05 M23.05 40.05 Q21.55 41.5 19.5 41.5 17.45 41.5 16 40.05 14.5 38.55 14.5 36.5 14.5 34.45 16 32.95 17.45 31.5 19.5 31.5 21.55 31.5 23.05 32.95 24.55 34.45 24.55 36.5 24.55 38.55 23.05 40.05 M22.9 36.9 Q23.5 36.3 23.5 35.5 23.5 34.65 22.9 34.05 22.3 33.5 21.45 33.5 20.65 33.5 20.1 34.05 19.5 34.65 19.5 35.5 19.5 36.3 20.1 36.9 20.65 37.5 21.45 37.5 22.3 37.5 22.9 36.9"/>
    <path stroke="none" fill="#FFFFFF" d="M22.9 36.9 Q22.3 37.5 21.45 37.5 20.65 37.5 20.1 36.9 19.5 36.3 19.5 35.5 19.5 34.65 20.1 34.05 20.65 33.5 21.45 33.5 22.3 33.5 22.9 34.05 23.5 34.65 23.5 35.5 23.5 36.3 22.9 36.9 M47.9 36.9 Q47.3 37.5 46.45 37.5 45.65 37.5 45.1 36.9 44.5 36.3 44.5 35.5 44.5 34.65 45.1 34.05 45.65 33.5 46.45 33.5 47.3 33.5 47.9 34.05 48.5 34.65 48.5 35.5 48.5 36.3 47.9 36.9 M43.8 51.6 Q43 52 42 52 L22 52 Q21.05 52 20.2 51.6 L22 48 20.2 44.4 22 44 42 44 43.8 44.4 42 48 43.8 51.6"/>
    <path stroke="none" fill="#353541" d="M43.8 51.6 L42 48 43.8 44.4 44.8 45.15 Q46 46.35 46 48 46 49.65 44.8 50.8 L43.8 51.6 M20.2 51.6 L19.15 50.8 Q18 49.65 18 48 18 46.35 19.15 45.15 19.65 44.7 20.2 44.4 L22 48 20.2 51.6"/>
    <path stroke="none" fill="#59F0B0" d="M38 24.15 Q38 25.8 36.8 27.05 L34.75 29.05 Q33.7 30.1 32.05 30.1 30.4 30.1 29.25 28.95 L27.2 26.9 Q26.05 25.8 26 24.1 L26.2 22.95 37.85 22.95 38 24.15"/>
  </g>
</svg>