<svg width="64" height="64" xmlns="http://www.w3.org/2000/svg" xmlns:xlink="http://www.w3.org/1999/xlink">
  <defs/>
  <g>
    <path stroke="none" fill="#353541" d="M8.25 55.25 Q8 55.8 8 56.45 L8 56.7 Q8.75 59.55 16.2 60 L48.5 60 Q55.25 59.85 56.05 56.7 L56.05 56.45 55.85 55.25 Q54.8 52.5 49.05 50.45 42 48 32.05 48 22.05 48 15 50.45 9.25 52.5 8.25 55.25 M50.4 46.7 Q60.8 50.4 60.05 56.45 L60.05 56.7 60 57.25 59.95 57.7 Q59.25 63.75 48.6 64 L16.2 64 15.95 64 Q4.65 63.3 4.15 57.75 L4.05 57.25 4 56.7 4 56.45 Q3.25 50.4 13.65 46.7 L13.7 46.7 Q21.25 44 32.05 44 42.8 44 50.4 46.7"/>
    <path stroke="none" fill="#BA6BE9" d="M55.85 55.25 L56.05 56.45 56.05 56.7 Q55.25 59.85 48.5 60 L16.2 60 Q8.75 59.55 8 56.7 L8 56.45 Q8 55.8 8.25 55.25 L10.65 54.45 Q19.5 52 32.05 52 44.55 52 53.4 54.45 L55.85 55.25"/>
    <path stroke="none" fill="#D699FA" d="M55.85 55.25 L53.4 54.45 Q44.55 52 32.05 52 19.5 52 10.65 54.45 L8.25 55.25 Q9.25 52.5 15 50.45 22.05 48 32.05 48 42 48 49.05 50.45 54.8 52.5 55.85 55.25"/>
    <path stroke="none" fill="#353541" d="M24.55 56.35 Q22.9 58 20.5 58 18.15 58 16.5 56.35 15.4 55.25 15.05 53.9 14.9 53.25 15.25 52.75 15.5 52.2 16.15 52.05 L17.3 52.2 Q17.8 52.5 17.95 53.1 18.15 53.7 18.65 54.2 19.45 55 20.5 55 21.6 55 22.45 54.2 L23.15 53.05 Q23.35 52.45 23.9 52.15 L25 52.1 25.95 52.8 Q26.2 53.35 26 53.95 25.55 55.3 24.55 56.35"/>
    <path stroke="none" fill="#D699FA" d="M39.2 50.15 Q40.35 49 42 49 43.65 49 44.85 50.15 46 51.4 46 53 46 54.7 44.85 55.85 43.65 57 42 57 L41.25 57 41.25 56.85 40.8 56.85 Q39.9 56.55 39.2 55.85 38 54.7 38 53 38 51.4 39.2 50.15"/>
  </g>
</svg>