<svg width="64" height="64" xmlns="http://www.w3.org/2000/svg" xmlns:xlink="http://www.w3.org/1999/xlink">
  <defs/>
  <g>
    <path stroke="none" fill="#353541" d="M52 11.75 L52 8 Q52 4 48 4 L16 4 Q12 4 12 8 L12 11.75 12 56.4 Q12.2 60 16 60 L48 60 Q51.8 60 52 56.4 L52 11.75 M48.35 64 L15.65 64 Q8.25 63.85 8 56.5 L8 8 Q8 0 16 0 L48 0 Q56 0 56 8 L56 56.5 Q55.75 63.85 48.35 64"/>
    <path stroke="none" fill="#59F0B0" d="M52 11.75 Q51.85 8 48 8 L16 8 Q12.15 8 12 11.75 L12 8 Q12 4 16 4 L48 4 Q52 4 52 8 L52 11.75"/>
    <path stroke="none" fill="#2CC987" d="M52 11.75 L52 56.4 Q51.8 60 48 60 L16 60 Q12.2 60 12 56.4 L12 11.75 Q12.15 8 16 8 L48 8 Q51.85 8 52 11.75"/>
    <path stroke="none" fill="#1AA074" d="M34.25 40.1 L35.9 41.75 Q36.9 42.7 36.9 44.05 36.9 45.4 35.9 46.4 L34.25 48.05 Q33.4 48.9 32.05 48.9 30.7 48.9 29.75 47.95 L28.1 46.3 Q27.15 45.4 27.1 44 27.15 42.7 28.1 41.8 L29.75 40.15 Q30.7 39.15 31.95 39.1 33.4 39.15 34.25 40.1"/>
    <path stroke="none" fill="#FABA2D" d="M46.05 32.05 Q44.55 33.5 42.5 33.5 40.45 33.5 39 32.05 37.5 30.55 37.5 28.5 37.5 26.45 39 24.95 40.45 23.5 42.5 23.5 44.55 23.5 46.05 24.95 47.55 26.45 47.55 28.5 47.55 30.55 46.05 32.05 M45.9 28.9 Q46.5 28.3 46.5 27.5 46.5 26.65 45.9 26.05 45.3 25.5 44.45 25.5 43.65 25.5 43.1 26.05 42.5 26.65 42.5 27.5 42.5 28.3 43.1 28.9 43.65 29.5 44.45 29.5 45.3 29.5 45.9 28.9 M25.05 32.05 Q23.55 33.5 21.5 33.5 19.45 33.5 18 32.05 16.5 30.55 16.5 28.5 16.5 26.45 18 24.95 19.45 23.5 21.5 23.5 23.55 23.5 25.05 24.95 26.55 26.45 26.55 28.5 26.55 30.55 25.05 32.05 M24.9 28.9 Q25.5 28.3 25.5 27.5 25.5 26.65 24.9 26.05 24.3 25.5 23.45 25.5 22.65 25.5 22.1 26.05 21.5 26.65 21.5 27.5 21.5 28.3 22.1 28.9 22.65 29.5 23.45 29.5 24.3 29.5 24.9 28.9"/>
    <path stroke="none" fill="#FFFFFF" d="M24.9 28.9 Q24.3 29.5 23.45 29.5 22.65 29.5 22.1 28.9 21.5 28.3 21.5 27.5 21.5 26.65 22.1 26.05 22.65 25.5 23.45 25.5 24.3 25.5 24.9 26.05 25.5 26.65 25.5 27.5 25.5 28.3 24.9 28.9 M45.9 28.9 Q45.3 29.5 44.45 29.5 43.65 29.5 43.1 28.9 42.5 28.3 42.5 27.5 42.5 26.65 43.1 26.05 43.65 25.5 44.45 25.5 45.3 25.5 45.9 26.05 46.5 26.65 46.5 27.5 46.5 28.3 45.9 28.9 M41.8 43.6 Q41 44 40 44 L24 44 Q23.05 44 22.2 43.6 L24 40 22.2 36.4 24 36 40 36 41.8 36.4 40 40 41.8 43.6"/>
    <path stroke="none" fill="#353541" d="M41.8 43.6 L40 40 41.8 36.4 42.8 37.15 Q44 38.35 44 40 44 41.65 42.8 42.8 L41.8 43.6 M22.2 43.6 L21.15 42.8 Q20 41.65 20 40 20 38.35 21.15 37.15 21.65 36.7 22.2 36.4 L24 40 22.2 43.6"/>
    <path stroke="none" fill="#59F0B0" d="M38 8.15 Q38 9.8 36.8 11.05 L34.75 13.05 Q33.7 14.1 32.05 14.1 30.4 14.1 29.25 12.95 L27.2 10.9 Q26.05 9.8 26 8.1 L26.2 6.95 37.85 6.95 38 8.15"/>
  </g>
</svg>