<svg width="64" height="64" xmlns="http://www.w3.org/2000/svg" xmlns:xlink="http://www.w3.org/1999/xlink">
  <defs/>
  <g>
    <path stroke="none" fill="#353541" d="M12.2 30.25 Q20.4 22 32.05 22 43.65 22 51.9 30.25 60.05 38.45 60.05 50.05 L60.05 50.75 60.05 51.1 Q58.9 63.9 48.7 64 L48.5 64 16.2 64 15.55 63.95 Q5.05 62.3 4.05 51.15 L4 50.75 4 50.05 Q4 38.45 12.15 30.25 L12.2 30.25 M8 50.4 L8 50.75 Q8.4 54.75 10.45 57.1 12.5 59.4 16.2 60 L48.5 60 Q52.15 59.8 54.05 57.15 55.7 54.85 56.05 50.75 L56.05 50.4 56.05 50.05 Q56.05 40.1 49.05 33.05 42 26 32.05 26 22.05 26 15 33.05 8 40.1 8 50.05 L8 50.4"/>
    <path stroke="none" fill="#BA6BE9" d="M8 50.4 Q8.25 42.25 15 36.5 22.05 30.45 32.05 30.45 42 30.45 49.05 36.5 55.8 42.25 56.05 50.4 L56.05 50.75 Q55.7 54.85 54.05 57.15 52.15 59.8 48.5 60 L16.2 60 Q12.5 59.4 10.45 57.1 8.4 54.75 8 50.75 L8 50.4"/>
    <path stroke="none" fill="#D699FA" d="M8 50.4 L8 50.05 Q8 40.1 15 33.05 22.05 26 32.05 26 42 26 49.05 33.05 56.05 40.1 56.05 50.05 L56.05 50.4 Q55.8 42.25 49.05 36.5 42 30.45 32.05 30.45 22.05 30.45 15 36.5 8.25 42.25 8 50.4"/>
    <path stroke="none" fill="#D699FA" d="M37.75 33.5 Q39.35 31.9 41.6 31.9 43.9 31.9 45.55 33.5 47.15 35.2 47.15 37.45 47.15 39.75 45.55 41.35 43.9 43 41.6 43 39.35 43 37.75 41.35 36.05 39.75 36.05 37.45 36.05 35.2 37.75 33.5"/>
    <path stroke="none" fill="#FABA2D" d="M22.4 48.4 Q23 47.8 23 47 23 46.15 22.4 45.55 21.8 45 20.95 45 20.15 45 19.6 45.55 19 46.15 19 47 19 47.8 19.6 48.4 20.15 49 20.95 49 21.8 49 22.4 48.4 M22.55 51.55 Q21.05 53 19 53 16.95 53 15.5 51.55 14 50.05 14 48 14 45.95 15.5 44.45 16.95 43 19 43 21.05 43 22.55 44.45 24.05 45.95 24.05 48 24.05 50.05 22.55 51.55"/>
    <path stroke="none" fill="#FFFFFF" d="M22.4 48.4 Q21.8 49 20.95 49 20.15 49 19.6 48.4 19 47.8 19 47 19 46.15 19.6 45.55 20.15 45 20.95 45 21.8 45 22.4 45.55 23 46.15 23 47 23 47.8 22.4 48.4"/>
  </g>
</svg>