<svg width="64" height="64" xmlns="http://www.w3.org/2000/svg" xmlns:xlink="http://www.w3.org/1999/xlink">
  <defs/>
  <g>
    <path stroke="none" fill="#353541" d="M12.2 30.25 Q20.4 22 32.05 22 43.65 22 51.9 30.25 60.05 38.45 60.05 50.05 L60.05 50.75 60.05 51.1 Q58.9 63.9 48.7 64 L48.5 64 16.2 64 15.55 63.95 Q5.05 62.3 4.05 51.15 L4 50.75 4 50.05 Q4 38.45 12.15 30.25 L12.2 30.25 M56.05 50.4 L56.05 50.05 Q56.05 40.1 49.05 33.05 42 26 32.05 26 22.05 26 15 33.05 8 40.1 8 50.05 L8 50.4 8 50.75 Q8.4 54.75 10.45 57.1 12.5 59.4 16.2 60 L48.5 60 Q52.15 59.8 54.05 57.15 55.7 54.85 56.05 50.75 L56.05 50.4"/>
    <path stroke="none" fill="#D699FA" d="M56.05 50.4 Q55.8 42.25 49.05 36.5 42 30.45 32.05 30.45 22.05 30.45 15 36.5 8.25 42.25 8 50.4 L8 50.05 Q8 40.1 15 33.05 22.05 26 32.05 26 42 26 49.05 33.05 56.05 40.1 56.05 50.05 L56.05 50.4"/>
    <path stroke="none" fill="#BA6BE9" d="M56.05 50.4 L56.05 50.75 Q55.7 54.85 54.05 57.15 52.15 59.8 48.5 60 L16.2 60 Q12.5 59.4 10.45 57.1 8.4 54.75 8 50.75 L8 50.4 Q8.25 42.25 15 36.5 22.05 30.45 32.05 30.45 42 30.45 49.05 36.5 55.8 42.25 56.05 50.4"/>
    <path stroke="none" fill="#D699FA" d="M37.75 33.5 Q39.35 31.9 41.6 31.9 43.9 31.9 45.55 33.5 47.15 35.2 47.15 37.45 47.15 39.75 45.55 41.35 43.9 43 41.6 43 L40.6 42.95 40.6 42.75 39.95 42.75 Q38.7 42.35 37.75 41.35 36.05 39.75 36.05 37.45 36.05 35.2 37.75 33.5"/>
    <path stroke="none" fill="#353541" d="M23.55 50.35 Q21.9 52 19.5 52 17.15 52 15.5 50.35 14.4 49.25 14.05 47.9 13.9 47.25 14.25 46.75 14.5 46.2 15.15 46.05 L16.3 46.2 Q16.8 46.5 16.95 47.1 17.15 47.7 17.65 48.2 18.45 49 19.5 49 20.6 49 21.45 48.2 L22.15 47.05 Q22.35 46.45 22.9 46.15 L24 46.1 24.95 46.8 Q25.2 47.35 25 47.95 24.55 49.3 23.55 50.35"/>
  </g>
</svg>