<svg width="64" height="64" xmlns="http://www.w3.org/2000/svg" xmlns:xlink="http://www.w3.org/1999/xlink">
  <defs>
    <linearGradient gradientUnits="userSpaceOnUse" x1="-819.2" x2="819.2" spreadMethod="pad" gradientTransform="matrix(-0.0129547119140625 0.0129547119140625 0.014678955078125 0.014678955078125 30.35 33.45)" id="gradient0">
      <stop offset="0" stop-color="#FF9935"/>
      <stop offset="0.48627450980392156" stop-color="#FA7F20"/>
      <stop offset="1" stop-color="#D9673B"/>
    </linearGradient>
  </defs>
  <g>
    <path stroke="none" fill="#353541" d="M50.9 12.05 L51.6 12.15 Q55.2 12.65 57.5 15.5 L57.35 15.25 Q60.2 18.2 59.5 22.85 L59.4 23.3 Q58.9 26.35 56.2 28.75 L56.35 28.65 Q54.7 30.2 53.7 32.2 60.05 39.8 60.05 50.05 L60.05 50.4 60.05 50.75 60.05 51.1 Q59.55 56.5 57.3 59.5 54.4 63.7 48.75 64 L48.5 64 16.15 64 15.55 63.95 Q10.3 63.1 7.5 59.75 L7.45 59.75 Q4.55 56.55 4.05 51.15 L4 50.75 4 50.4 4 50.05 Q4 38.6 11.95 30.45 13 25.45 16.5 20.75 L16.9 20.3 17.1 20.05 Q22.45 13.35 32.2 11.45 L32.3 11.45 Q36.35 10.55 39.55 12.8 L39.55 12.85 39.8 12.95 Q45.1 11.7 50.9 12.05"/>
    <path stroke="none" fill="#F7B34B" d="M50.65 16.05 L50.9 16.1 Q53.05 16.35 54.4 18 55.95 19.65 55.55 22.25 L55.5 22.3 Q55.25 24.25 53.55 25.75 49.4 29.8 48.3 35.7 48.1 43.7 42.35 48.25 L42.25 48.35 Q35.65 53.25 28.75 51.05 27.8 50.7 27.1 50 L16.55 39.45 Q15.6 38.5 15.35 37.15 15.15 35.35 15.5 33.4 16.05 28.05 19.7 23.1 L20.05 22.75 Q24.65 16.95 33.05 15.35 35.5 14.8 37.4 16.2 L38.7 17.4 Q44.35 15.65 50.65 16.05 M29.75 47.05 L29.9 47.2 Q35 48.7 39.85 45.15 44.25 41.55 44.35 35.25 45.6 27.8 51 22.7 L51.55 21.65 Q51.7 21 51.35 20.55 51 20.1 50.45 20.05 41.45 19.45 34 23.8 34.4 22.6 35.25 21.65 35.7 21.1 35.65 20.45 35.6 19.8 35.1 19.5 34.6 19.1 33.95 19.25 26.9 20.6 23 25.4 L22.95 25.45 Q19.95 29.55 19.5 34 19.15 35.35 19.35 36.65 L19.4 36.7 19.25 36.85 Q18.75 37.45 18.8 38.2 18.85 38.95 19.4 39.5 L26.85 46.95 Q27.3 47.4 27.9 47.5 L29.05 47.35 29.75 47.05"/>
    <path stroke="none" fill="url(#gradient0)" d="M29.75 47.05 L30.7 46.4 30.9 46.3 Q33.75 43.95 33.9 39.9 34.4 37.7 36.05 36.05 37 35.2 37.2 34 L37.2 34.05 Q37.5 32.6 36.6 31.5 35.9 30.3 34.2 30.2 L34.25 30.25 Q30.95 29.95 23.45 33.45 L22.8 33.7 Q20.55 35.25 19.4 36.7 L19.35 36.65 Q19.15 35.35 19.5 34 19.95 29.55 22.95 25.45 L23 25.4 Q26.9 20.6 33.95 19.25 34.6 19.1 35.1 19.5 35.6 19.8 35.65 20.45 35.7 21.1 35.25 21.65 34.4 22.6 34 23.8 41.45 19.45 50.45 20.05 51 20.1 51.35 20.55 51.7 21 51.55 21.65 L51 22.7 Q45.6 27.8 44.35 35.25 44.25 41.55 39.85 45.15 35 48.7 29.9 47.2 L29.75 47.05"/>
    <path stroke="none" fill="#FFCC00" d="M29.75 47.05 L29.05 47.35 27.9 47.5 Q27.3 47.4 26.85 46.95 L19.4 39.5 Q18.85 38.95 18.8 38.2 18.75 37.45 19.25 36.85 L19.4 36.7 Q20.55 35.25 22.8 33.7 L23.45 33.45 Q30.95 29.95 34.25 30.25 L34.2 30.2 Q35.9 30.3 36.6 31.5 37.5 32.6 37.2 34.05 L37.2 34 Q37 35.2 36.05 36.05 34.4 37.7 33.9 39.9 33.75 43.95 30.9 46.3 L30.7 46.4 29.75 47.05"/>
    <path stroke="none" fill="#F17575" d="M56.05 50.4 Q55.8 42.25 49.05 36.5 42 30.45 32.05 30.45 22.05 30.45 15 36.5 8.25 42.25 8 50.4 L8 50.05 Q8 40.1 15 33.05 22.05 26 32.05 26 42 26 49.05 33.05 56.05 40.1 56.05 50.05 L56.05 50.4"/>
    <path stroke="none" fill="#E54341" d="M56.05 50.4 L56.05 50.75 Q55.7 54.85 54.05 57.15 52.15 59.8 48.5 60 L16.2 60 Q12.5 59.4 10.45 57.1 8.4 54.75 8 50.75 L8 50.4 Q8.25 42.25 15 36.5 22.05 30.45 32.05 30.45 42 30.45 49.05 36.5 55.8 42.25 56.05 50.4"/>
    <path stroke="none" fill="#F17575" d="M37.75 33.5 Q39.35 31.9 41.6 31.9 43.9 31.9 45.55 33.5 47.15 35.2 47.15 37.45 47.15 39.75 45.55 41.35 43.9 43 41.6 43 L40.6 42.95 40.6 42.75 39.95 42.75 Q38.7 42.35 37.75 41.35 36.05 39.75 36.05 37.45 36.05 35.2 37.75 33.5"/>
    <path stroke="none" fill="#353541" d="M23.55 50.35 Q21.9 52 19.5 52 17.15 52 15.5 50.35 14.4 49.25 14.05 47.9 13.9 47.25 14.25 46.75 14.5 46.2 15.15 46.05 L16.3 46.2 Q16.8 46.5 16.95 47.1 17.15 47.7 17.65 48.2 18.45 49 19.5 49 20.6 49 21.45 48.2 L22.15 47.05 Q22.35 46.45 22.9 46.15 L24 46.1 24.95 46.8 Q25.2 47.35 25 47.95 24.55 49.3 23.55 50.35"/>
  </g>
</svg>