<svg width="64" height="64" xmlns="http://www.w3.org/2000/svg" xmlns:xlink="http://www.w3.org/1999/xlink">
  <defs/>
  <g>
    <path stroke="none" fill="#353541" d="M56 19.75 L56 16 Q56 12 52 12 L12 12 Q8 12 8 16 L8 19.75 8 56.4 Q8.2 60 12 60 L52 60 Q55.8 60 56 56.4 L56 19.75 M4 56.5 L4 16 Q4 8 12 8 L52 8 Q60 8 60 16 L60 56.5 Q59.75 63.85 52.35 64 L11.65 64 Q4.25 63.85 4 56.5"/>
    <path stroke="none" fill="#59F0B0" d="M56 19.75 Q55.85 16 52 16 L12 16 Q8.15 16 8 19.75 L8 16 Q8 12 12 12 L52 12 Q56 12 56 16 L56 19.75"/>
    <path stroke="none" fill="#2CC987" d="M56 19.75 L56 56.4 Q55.8 60 52 60 L12 60 Q8.2 60 8 56.4 L8 19.75 Q8.15 16 12 16 L52 16 Q55.85 16 56 19.75"/>
    <path stroke="none" fill="#1AA074" d="M34.25 44.1 L35.9 45.75 Q36.9 46.7 36.9 48.05 36.9 49.4 35.9 50.4 L34.25 52.05 Q33.4 52.9 32.05 52.9 30.7 52.9 29.75 51.95 L28.1 50.3 Q27.15 49.4 27.1 48 27.15 46.7 28.1 45.8 L29.75 44.15 Q30.7 43.15 31.95 43.1 33.4 43.15 34.25 44.1"/>
    <path stroke="none" fill="#353541" d="M43.8 40.4 L44.8 41.15 Q46 42.35 46 44 46 45.65 44.8 46.8 L43.8 47.6 42 44 43.8 40.4 M20.2 47.6 L19.15 46.8 Q18 45.65 18 44 18 42.35 19.15 41.15 19.65 40.7 20.2 40.4 L22 44 20.2 47.6"/>
    <path stroke="none" fill="#FFFFFF" d="M20.2 47.6 L22 44 20.2 40.4 22 40 42 40 43.8 40.4 42 44 43.8 47.6 Q43 48 42 48 L22 48 Q21.05 48 20.2 47.6"/>
    <path stroke="none" fill="#59F0B0" d="M38 16.15 Q38 17.8 36.8 19.05 L34.75 21.05 Q33.7 22.1 32.05 22.1 30.4 22.1 29.25 20.95 L27.2 18.9 Q26.05 17.8 26 16.1 L26.2 14.95 37.85 14.95 38 16.15"/>
    <path stroke="none" fill="#353541" d="M48.55 34.35 Q46.9 36 44.5 36 42.15 36 40.5 34.35 39.4 33.25 39.05 31.9 38.9 31.25 39.25 30.75 39.5 30.2 40.15 30.05 L41.3 30.2 Q41.8 30.5 41.95 31.1 L42.65 32.2 Q43.45 33 44.5 33 45.6 33 46.45 32.2 L47.15 31.05 Q47.35 30.45 47.9 30.15 L49 30.1 Q49.6 30.25 49.95 30.8 L50 31.95 Q49.55 33.3 48.55 34.35"/>
    <path stroke="none" fill="#353541" d="M23.55 34.35 Q21.9 36 19.5 36 17.15 36 15.5 34.35 14.4 33.25 14.05 31.9 13.9 31.25 14.25 30.75 14.5 30.2 15.15 30.05 L16.3 30.2 Q16.8 30.5 16.95 31.1 17.15 31.7 17.65 32.2 18.45 33 19.5 33 20.6 33 21.45 32.2 L22.15 31.05 Q22.35 30.45 22.9 30.15 L24 30.1 24.95 30.8 Q25.2 31.35 25 31.95 24.55 33.3 23.55 34.35"/>
  </g>
</svg>