<svg width="64" height="64" xmlns="http://www.w3.org/2000/svg" xmlns:xlink="http://www.w3.org/1999/xlink">
  <defs>
    <linearGradient gradientUnits="userSpaceOnUse" x1="-819.2" x2="819.2" spreadMethod="pad" gradientTransform="matrix(0 0.01080322265625 -0.00762939453125 0 35.95 19.5)" id="gradient0">
      <stop offset="0" stop-color="#D6DCE0"/>
      <stop offset="1" stop-color="#A8B2BB"/>
    </linearGradient>
  </defs>
  <g>
    <path stroke="none" fill="#353541" d="M34.1 6.4 Q36.3 7.15 37.4 9.3 L42.15 18.8 42.15 18.9 Q43.3 19.3 44.3 20.3 46 21.9 46 24.5 L46 25.65 Q49.15 27.5 51.9 30.25 60.05 38.45 60.05 50.05 L60.05 50.4 60.05 50.75 60.05 51.1 Q59.55 56.5 57.3 59.5 54.4 63.7 48.75 64 L48.5 64 16.2 64 15.55 63.95 Q10.3 63.1 7.5 59.75 L7.45 59.75 Q4.55 56.55 4.05 51.15 L4 50.75 4 50.4 4 50.05 Q4 38.45 12.15 30.25 L12.2 30.25 Q14.9 27.5 18 25.7 L18 24.5 Q18.05 22.05 19.65 20.4 L19.8 20.3 19.9 20.15 Q20.75 19.3 21.85 18.9 L21.9 18.8 26.65 9.3 Q27.7 7.15 30.05 6.35 L32 6 34.15 6.4 34.1 6.4"/>
    <path stroke="none" fill="url(#gradient0)" d="M32 10 L32.75 10.15 Q33.45 10.4 33.8 11.1 L38.55 20.6 Q38.85 21.25 38.7 21.95 L38.5 22.5 32 22.5 32 10"/>
    <path stroke="none" fill="#92A1AD" d="M38.5 22.5 L40 22.5 Q40.85 22.5 41.45 23.1 42 23.65 42 24.5 L42 28.5 Q42 29.35 41.45 29.95 40.85 30.5 40 30.5 L24 30.5 Q23.15 30.5 22.6 29.95 22 29.35 22 28.5 L22 24.5 Q22 23.65 22.6 23.1 23.15 22.5 24 22.5 L25.55 22.5 32 22.5 38.5 22.5"/>
    <path stroke="none" fill="#BBC4CB" d="M25.55 22.5 L25.3 21.95 Q25.15 21.25 25.45 20.6 L30.2 11.1 Q30.55 10.4 31.3 10.15 L32 10 32 22.5 25.55 22.5"/>
    <path stroke="none" fill="#59F0B0" d="M8 50.4 L8 50.05 Q8 40.1 15 33.05 22.05 26 32.05 26 42 26 49.05 33.05 56.05 40.1 56.05 50.05 L56.05 50.4 Q55.8 42.25 49.05 36.5 42 30.45 32.05 30.45 22.05 30.45 15 36.5 8.25 42.25 8 50.4"/>
    <path stroke="none" fill="#2CC987" d="M8 50.4 Q8.25 42.25 15 36.5 22.05 30.45 32.05 30.45 42 30.45 49.05 36.5 55.8 42.25 56.05 50.4 L56.05 50.75 Q55.7 54.85 54.05 57.15 52.15 59.8 48.5 60 L16.2 60 Q12.5 59.4 10.45 57.1 8.4 54.75 8 50.75 L8 50.4"/>
    <path stroke="none" fill="#59F0B0" d="M37.75 33.5 Q39.35 31.9 41.6 31.9 43.9 31.9 45.55 33.5 47.15 35.2 47.15 37.45 47.15 39.75 45.55 41.35 43.9 43 41.6 43 39.35 43 37.75 41.35 36.05 39.75 36.05 37.45 36.05 35.2 37.75 33.5"/>
    <path stroke="none" fill="#FABA2D" d="M22.55 51.55 Q21.05 53 19 53 16.95 53 15.5 51.55 14 50.05 14 48 14 45.95 15.5 44.45 16.95 43 19 43 21.05 43 22.55 44.45 24.05 45.95 24.05 48 24.05 50.05 22.55 51.55 M22.4 48.4 Q23 47.8 23 47 23 46.15 22.4 45.55 21.8 45 20.95 45 20.15 45 19.6 45.55 19 46.15 19 47 19 47.8 19.6 48.4 20.15 49 20.95 49 21.8 49 22.4 48.4"/>
    <path stroke="none" fill="#FFFFFF" d="M22.4 48.4 Q21.8 49 20.95 49 20.15 49 19.6 48.4 19 47.8 19 47 19 46.15 19.6 45.55 20.15 45 20.95 45 21.8 45 22.4 45.55 23 46.15 23 47 23 47.8 22.4 48.4"/>
  </g>
</svg>