<svg width="64" height="64" xmlns="http://www.w3.org/2000/svg" xmlns:xlink="http://www.w3.org/1999/xlink">
  <defs/>
  <g>
    <path stroke="none" fill="#353541" d="M18.25 27.7 Q27.95 22.1 38.75 24.95 L38.8 24.95 Q49.55 27.8 55.2 37.45 L55.2 37.4 Q59.8 45.15 58.8 53.65 58.15 59.1 53.8 61.15 L53.65 61.2 Q50.65 62.55 44.9 63.4 L44.95 63.35 37.95 63.95 31.1 63.95 31 63.95 26.95 63.6 22.8 63.2 22.85 63.25 Q17.1 62.45 13.25 61.1 L13.2 61.1 Q7.75 59.15 5.9 54 L5.8 53.75 5.25 51.2 5.3 51.4 Q4.55 47.6 5.6 43.8 L5.8 42.9 5.85 42.8 Q9 32.85 18.25 27.65 L18.25 27.7 M9.65 44 L9.45 44.75 Q8.65 47.7 9.2 50.65 L9.65 52.6 Q10.9 56 14.55 57.35 18.1 58.55 23.35 59.25 L27.25 59.6 31.2 59.95 37.8 59.95 44.35 59.4 Q49.4 58.7 52 57.55 54.45 56.35 54.85 53.2 55.65 46 51.75 39.45 46.95 31.25 37.75 28.8 28.5 26.4 20.2 31.15 12.35 35.55 9.65 44"/>
    <path stroke="none" fill="#BA6BE9" d="M9.65 44 Q12.35 35.55 20.2 31.15 28.5 26.4 37.75 28.8 46.95 31.25 51.75 39.45 55.65 46 54.85 53.2 54.45 56.35 52 57.55 49.4 58.7 44.35 59.4 L37.8 59.95 31.2 59.95 27.25 59.6 23.35 59.25 Q18.1 58.55 14.55 57.35 10.9 56 9.65 52.6 L9.2 50.65 Q8.65 47.7 9.45 44.75 L9.65 44 M33 40.65 Q31.2 41.65 30.65 43.55 L30.6 43.65 Q30.35 44.45 30.55 45.05 30.7 45.95 31.3 46.8 32.25 48 33.65 48.55 L34.65 48.9 35.5 49.05 37 49.05 38.4 48.7 Q40.25 47.95 40.8 46.45 L40.8 46.25 Q41.2 44.3 40.1 42.55 39.1 40.7 37 40.1 34.85 39.6 33 40.65 M29.4 37.7 Q33.05 35.65 37.15 36.75 41.2 37.85 43.25 41.5 45.3 44.85 44.4 48.65 L44.35 48.95 Q43.45 51.95 40 53.45 38.65 54 37.15 54.15 L34.25 54.1 32.5 53.8 30.8 53.2 Q27.85 52.1 26.15 49.75 24.85 48.1 24.55 46.4 24.3 45.05 24.7 43.7 L24.8 43.45 Q25.95 39.7 29.4 37.7 M15.7 43.6 Q15.55 43.75 15.5 44.25 14.8 46.5 15.2 48.7 15.6 50.9 17 53.1 18.45 55.65 22.15 56.7 L22.55 56.8 26.15 57.45 29.05 57.7 32.1 57.9 37.15 57.9 42.15 57.5 45.3 56.95 Q48.9 55.75 49.75 52.8 L49.8 52.55 Q51.3 46.05 47.85 40.1 44.1 33.85 37.15 32 30 30.15 23.65 33.75 17.7 37.15 15.7 43.6"/>
    <path stroke="none" fill="#D699FA" d="M15.7 43.6 Q17.7 37.15 23.65 33.75 30 30.15 37.15 32 44.1 33.85 47.85 40.1 51.3 46.05 49.8 52.55 L49.75 52.8 Q48.9 55.75 45.3 56.95 L42.15 57.5 37.15 57.9 32.1 57.9 29.05 57.7 26.15 57.45 22.55 56.8 22.15 56.7 Q18.45 55.65 17 53.1 15.6 50.9 15.2 48.7 14.8 46.5 15.5 44.25 15.55 43.75 15.7 43.6 M33 40.65 Q34.85 39.6 37 40.1 39.1 40.7 40.1 42.55 41.2 44.3 40.8 46.25 L40.8 46.45 Q40.25 47.95 38.4 48.7 L37 49.05 35.5 49.05 34.65 48.9 33.65 48.55 Q32.25 48 31.3 46.8 30.7 45.95 30.55 45.05 30.35 44.45 30.6 43.65 L30.65 43.55 Q31.2 41.65 33 40.65 M29.4 37.7 Q25.95 39.7 24.8 43.45 L24.7 43.7 Q24.3 45.05 24.55 46.4 24.85 48.1 26.15 49.75 27.85 52.1 30.8 53.2 L32.5 53.8 34.25 54.1 37.15 54.15 Q38.65 54 40 53.45 43.45 51.95 44.35 48.95 L44.4 48.65 Q45.3 44.85 43.25 41.5 41.2 37.85 37.15 36.75 33.05 35.65 29.4 37.7"/>
    <path stroke="none" fill="#BA6BE9" d="M15.6 50.75 Q14.9 51.5 13.7 51.55 12.7 51.5 11.9 50.7 L10.55 49.35 Q9.8 48.6 9.75 47.55 9.8 46.4 10.55 45.7 L11.9 44.35 Q12.7 43.55 13.8 43.55 14.9 43.55 15.6 44.25 L16.95 45.6 Q17.75 46.4 17.75 47.5 17.75 48.6 16.95 49.4 L15.6 50.75"/>
    <path stroke="none" fill="#BA6BE9" d="M40.6 34.6 L39.3 34.75 Q38.65 34.6 38.35 33.95 L37.75 32.95 Q37.45 32.35 37.6 31.7 37.8 31 38.35 30.7 L39.4 30.1 Q39.95 29.75 40.65 29.9 41.3 30.1 41.65 30.7 L42.25 31.7 Q42.6 32.3 42.4 32.95 L41.65 34.05 40.6 34.6"/>
  </g>
</svg>