<svg width="64" height="64" xmlns="http://www.w3.org/2000/svg" xmlns:xlink="http://www.w3.org/1999/xlink">
  <defs/>
  <g>
    <path stroke="none" fill="#353541" d="M26.2 16.5 Q35.2 11.2 45.3 13.9 55.3 16.6 60.45 25.75 L60.5 25.8 Q65.45 34.3 63.35 43.9 L63.2 44.55 63.15 44.7 63.15 44.75 Q62.45 47.2 61.2 49.25 L61.95 51.45 Q63.35 57.2 61.6 60 59.85 64.05 54.1 64 L11.05 64 10.85 64 Q5.35 63.7 3.2 60.95 0.3 58.2 1.3 52.95 L1.3 52.75 Q2.8 46.4 6.35 41.35 4.45 40.6 2.9 39.05 L2.85 39 Q0 36.05 0 32 0 27.9 2.8 24.95 L2.95 24.8 Q5.9 22 10 22 14.05 22 17 24.85 L17.05 24.9 17.3 25.15 Q20.5 19.8 26.2 16.5"/>
    <path stroke="none" fill="#E28F2B" d="M21.6 50.2 Q21.65 51.65 20.65 52.75 19.6 53.85 18.15 53.9 16.65 53.95 15.55 52.95 14.45 51.9 14.4 50.45 14.05 40.55 8.9 34.1 7.95 32.9 8.15 31.45 8.3 29.95 9.45 29 10.6 28.05 12.1 28.25 13.55 28.4 14.5 29.55 21.15 37.65 21.6 50.2"/>
    <path stroke="none" fill="#FABA2D" d="M5.7 51.8 L6.4 49.75 Q7.8 46.1 10.1 43 12.3 40.05 14.95 38.1 18.95 35.25 23.9 35 L25.25 35 26.4 35 26.85 35 29.35 35.1 Q36.35 35.65 42.2 38.1 46.85 40.05 50.9 43 L54.4 46.05 Q56.5 48.35 57.55 50.8 L58.05 52.4 Q58.55 54.3 58.55 55.75 L56.65 54.15 Q55.45 52.95 54.25 52.3 52.7 51.5 51.15 51.55 49.6 51.5 48.1 52.3 46.9 52.95 45.65 54.15 44.65 55.25 43.6 55.85 42.35 56.7 41.05 56.95 L40.2 57 Q37.6 57 34.8 54.15 33.6 52.95 32.4 52.3 L31.35 51.85 29.3 51.55 Q27.75 51.5 26.25 52.3 25.95 52.4 25.75 52.6 L23.8 54.15 21.75 55.85 Q20.05 57 18.35 57 15.75 57 12.95 54.15 L10.55 52.3 Q9 51.5 7.45 51.55 L5.7 51.8"/>
    <path stroke="none" fill="#E28F2B" d="M5.7 51.8 L7.45 51.55 Q9 51.5 10.55 52.3 L12.95 54.15 Q15.75 57 18.35 57 20.05 57 21.75 55.85 L23.8 54.15 25.75 52.6 Q25.95 52.4 26.25 52.3 27.75 51.5 29.3 51.55 L31.35 51.85 32.4 52.3 Q33.6 52.95 34.8 54.15 37.6 57 40.2 57 L41.05 56.95 Q42.35 56.7 43.6 55.85 44.65 55.25 45.65 54.15 46.9 52.95 48.1 52.3 49.6 51.5 51.15 51.55 52.7 51.5 54.25 52.3 55.45 52.95 56.65 54.15 L58.55 55.75 Q58.55 60.1 54.1 60 L11.05 60 Q4.1 59.6 5.2 53.65 L5.7 51.8"/>
    <path stroke="none" fill="#BA6BE9" d="M39.9 28.85 Q38.25 29.8 37.75 31.6 L37.7 31.7 Q37.5 32.45 37.65 33 37.8 33.85 38.35 34.65 39.2 35.75 40.5 36.3 L41.4 36.6 42.2 36.75 43.55 36.75 44.85 36.4 Q46.5 35.7 47 34.3 L47 34.1 Q47.4 32.3 46.4 30.65 45.45 28.9 43.55 28.35 41.6 27.9 39.9 28.85 M36.6 26.1 Q39.95 24.2 43.7 25.2 47.4 26.25 49.25 29.65 51.15 32.8 50.3 36.35 L50.25 36.65 Q49.45 39.45 46.3 40.85 45.05 41.4 43.7 41.55 L41.05 41.5 39.45 41.2 37.9 40.65 Q35.2 39.6 33.65 37.4 32.45 35.85 32.2 34.25 31.95 33 32.3 31.75 L32.4 31.5 Q33.45 28 36.6 26.1 M18.6 32 Q21.05 24.1 28.2 19.95 35.8 15.5 44.25 17.75 52.65 20.05 57 27.75 61.2 34.95 59.45 43.05 L59.25 43.7 Q57.5 50.2 50.25 53.25 47.4 54.5 44.3 54.85 41.35 55.15 38.25 54.75 L34.65 53.95 31.1 52.8 Q25.1 50.35 21.45 45.45 18.7 41.85 18.15 38.25 17.65 35.5 18.4 32.7 L18.6 32 M24.1 31.65 Q23.95 31.8 23.9 32.25 23.3 34.35 23.65 36.4 24.15 39.2 26.2 41.9 29.05 45.65 33.65 47.6 L36.3 48.45 39.1 49 Q41.45 49.35 43.7 49.05 L48.25 47.85 Q53.7 45.55 55.1 40.6 L55.25 40.05 Q56.6 33.95 53.45 28.35 50.05 22.5 43.7 20.75 37.15 19.05 31.35 22.4 25.95 25.6 24.1 31.65"/>
    <path stroke="none" fill="#D699FA" d="M24.1 31.65 Q25.95 25.6 31.35 22.4 37.15 19.05 43.7 20.75 50.05 22.5 53.45 28.35 56.6 33.95 55.25 40.05 L55.1 40.6 Q53.7 45.55 48.25 47.85 L43.7 49.05 Q41.45 49.35 39.1 49 L36.3 48.45 33.65 47.6 Q29.05 45.65 26.2 41.9 24.15 39.2 23.65 36.4 23.3 34.35 23.9 32.25 23.95 31.8 24.1 31.65 M39.9 28.85 Q41.6 27.9 43.55 28.35 45.45 28.9 46.4 30.65 47.4 32.3 47 34.1 L47 34.3 Q46.5 35.7 44.85 36.4 L43.55 36.75 42.2 36.75 41.4 36.6 40.5 36.3 Q39.2 35.75 38.35 34.65 37.8 33.85 37.65 33 37.5 32.45 37.7 31.7 L37.75 31.6 Q38.25 29.8 39.9 28.85 M36.6 26.1 Q33.45 28 32.4 31.5 L32.3 31.75 Q31.95 33 32.2 34.25 32.45 35.85 33.65 37.4 35.2 39.6 37.9 40.65 L39.45 41.2 41.05 41.5 43.7 41.55 Q45.05 41.4 46.3 40.85 49.45 39.45 50.25 36.65 L50.3 36.35 Q51.15 32.8 49.25 29.65 47.4 26.25 43.7 25.2 39.95 24.2 36.6 26.1"/>
    <path stroke="none" fill="#FABA2D" d="M16 32 Q16 34.45 14.2 36.2 12.45 38 10 38 7.5 38 5.7 36.2 4 34.45 4 32 4 29.5 5.7 27.7 7.5 26 10 26 12.45 26 14.2 27.7 16 29.5 16 32"/>
    <path stroke="none" fill="#9F4F0E" d="M19.55 50.35 Q17.9 52 15.5 52 13.15 52 11.5 50.35 10.4 49.25 10.05 47.9 9.9 47.25 10.25 46.75 10.5 46.2 11.15 46.05 L12.3 46.2 Q12.8 46.5 12.95 47.1 L13.65 48.2 Q14.45 49 15.5 49 16.6 49 17.45 48.2 L18.15 47.05 Q18.35 46.45 18.9 46.15 L20 46.1 20.95 46.8 Q21.2 47.35 21 47.95 20.55 49.3 19.55 50.35"/>
    <path stroke="none" fill="#BA6BE9" d="M25.4 41.2 Q24.95 42.15 23.75 42.5 22.8 42.7 21.85 42.1 L21.75 42.05 21.75 34.75 21.8 34.7 Q22.9 34.45 23.7 34.95 L25.35 35.9 Q26.4 36.45 26.65 37.5 26.95 38.6 26.35 39.55 L25.4 41.2"/>
    <path stroke="none" fill="#BA6BE9" d="M47.4 23 L46.1 23.15 Q45.45 23 45.15 22.35 L44.55 21.35 Q44.25 20.75 44.4 20.1 L44.65 19.6 48.75 19.6 49.05 20.1 Q49.4 20.7 49.2 21.35 L48.45 22.45 Q47.95 22.75 47.4 23"/>
  </g>
</svg>