<svg width="64" height="64" xmlns="http://www.w3.org/2000/svg" xmlns:xlink="http://www.w3.org/1999/xlink">
  <defs/>
  <g>
    <path stroke="none" fill="#353541" d="M45.3 11.9 Q55.25 14.6 60.45 23.75 L60.5 23.8 Q65.45 32.3 63.35 41.9 L63.2 42.55 63.15 42.7 63.15 42.75 Q61.9 47.25 58.65 50.5 L59 54.55 Q59 58.95 57.25 61.05 55.2 64.1 51.05 64 L41.6 64 41.05 64 12.4 64 12.1 64 Q4.45 63.35 3.25 56.5 2.8 54.3 3.2 51.4 L3.25 51.15 3.65 48.85 3.7 48.8 Q3.95 47.15 4.45 45.7 5.6 41.35 7.4 37.7 4.85 37 2.9 35.05 L2.85 35 Q0 32.05 0 28 0 23.9 2.8 20.95 L2.95 20.8 Q5.9 18 10 18 14.05 18 17 20.85 L17.05 20.9 18.05 22 Q21.1 17.45 26.2 14.5 35.2 9.2 45.3 11.9"/>
    <path stroke="none" fill="#E28F2B" d="M21.6 46.2 Q21.65 47.65 20.65 48.75 19.6 49.85 18.15 49.9 16.65 49.95 15.55 48.95 14.45 47.9 14.4 46.45 14.05 36.55 8.9 30.1 7.95 28.9 8.15 27.45 8.3 25.95 9.45 25 10.6 24.05 12.1 24.25 13.55 24.4 14.5 25.55 21.15 33.65 21.6 46.2"/>
    <path stroke="none" fill="#FABA2D" d="M54.65 50.65 Q53.85 51.3 53.15 52.35 L53 52.55 51.15 54.7 Q49.65 56.2 48.1 56.2 46.6 56.2 45 54.7 L45 54.6 45 54.55 44.9 54.45 43.4 52.65 43.35 52.7 43.25 52.55 Q42.25 51.05 41.2 50.25 L41.1 50.15 Q39.75 49.2 38.4 49.2 L38.3 49.2 36.75 49.5 35.65 50.15 Q34.6 50.95 33.6 52.4 L33.45 52.55 31.6 54.7 Q30.5 55.8 29.3 56.1 L28.55 56.2 Q26.8 56.2 24.95 54.15 L23.8 52.65 23.7 52.55 Q22.65 51 21.55 50.15 L20.6 49.6 18.8 49.2 Q17.4 49.15 16.05 50.15 15.75 50.3 15.6 50.55 14.75 51.2 14 52.4 L13.85 52.55 12 54.7 Q10.5 56.2 8.95 56.2 8.05 56.2 7.2 55.7 6.85 54.1 7.15 51.9 L7.6 49.5 Q7.85 48.15 8.25 46.9 9.5 42.2 11.55 38.25 13.5 34.45 15.9 31.95 19.5 28.3 23.95 28 L25.15 28 26.2 28 26.6 28 28.8 28.1 Q35.1 28.85 40.35 31.95 44.5 34.45 48.15 38.25 49.95 40.15 51.3 42.15 53.2 45.1 54.1 48.25 L54.55 50.3 54.65 50.65"/>
    <path stroke="none" fill="#E28F2B" d="M54.65 50.65 L55 54.55 Q55 60.15 51.05 60 L41.45 60 41.05 60 12.4 60 Q7.95 59.65 7.2 55.7 8.05 56.2 8.95 56.2 10.5 56.2 12 54.7 L13.85 52.55 14 52.4 Q14.75 51.2 15.6 50.55 15.75 50.3 16.05 50.15 17.4 49.15 18.8 49.2 L20.6 49.6 21.55 50.15 Q22.65 51 23.7 52.55 L23.8 52.65 24.95 54.15 Q26.8 56.2 28.55 56.2 L29.3 56.1 Q30.5 55.8 31.6 54.7 L33.45 52.55 33.6 52.4 Q34.6 50.95 35.65 50.15 L36.75 49.5 38.3 49.2 38.4 49.2 Q39.75 49.2 41.1 50.15 L41.2 50.25 Q42.25 51.05 43.25 52.55 L43.35 52.7 43.4 52.65 44.9 54.45 45 54.55 45 54.6 45 54.7 Q46.6 56.2 48.1 56.2 49.65 56.2 51.15 54.7 L53 52.55 53.15 52.35 Q53.85 51.3 54.65 50.65"/>
    <path stroke="none" fill="#BA6BE9" d="M36.6 24.1 Q39.95 22.2 43.7 23.2 47.4 24.25 49.25 27.65 51.15 30.8 50.3 34.35 L50.25 34.65 Q49.45 37.45 46.3 38.85 45.05 39.4 43.7 39.55 L41.05 39.5 39.45 39.2 37.9 38.65 Q35.2 37.6 33.65 35.4 32.45 33.85 32.2 32.25 31.95 31 32.3 29.75 L32.4 29.5 Q33.45 26 36.6 24.1 M39.9 26.85 Q38.25 27.8 37.75 29.6 L37.7 29.7 Q37.5 30.45 37.65 31 37.8 31.85 38.35 32.65 39.2 33.75 40.5 34.3 L41.4 34.6 42.2 34.75 43.55 34.75 44.85 34.4 Q46.5 33.7 47 32.3 L47 32.1 Q47.4 30.3 46.4 28.65 45.45 26.9 43.55 26.35 41.6 25.9 39.9 26.85 M18.6 30 Q21.05 22.1 28.2 17.95 35.8 13.5 44.25 15.75 52.65 18.05 57 25.75 61.2 32.95 59.45 41.05 L59.25 41.7 Q57.5 48.2 50.25 51.25 47.4 52.5 44.3 52.85 41.35 53.15 38.25 52.75 L34.65 51.95 31.1 50.8 Q25.1 48.35 21.45 43.45 18.7 39.85 18.15 36.25 17.65 33.5 18.4 30.7 L18.6 30 M24.1 29.65 Q23.95 29.8 23.9 30.25 23.3 32.35 23.65 34.4 24.15 37.2 26.2 39.9 29.05 43.65 33.65 45.6 L36.3 46.45 39.1 47 Q41.45 47.35 43.7 47.05 L48.25 45.85 Q53.7 43.55 55.1 38.6 L55.25 38.05 Q56.6 31.95 53.45 26.35 50.05 20.5 43.7 18.75 37.15 17.05 31.35 20.4 25.95 23.6 24.1 29.65"/>
    <path stroke="none" fill="#D699FA" d="M24.1 29.65 Q25.95 23.6 31.35 20.4 37.15 17.05 43.7 18.75 50.05 20.5 53.45 26.35 56.6 31.95 55.25 38.05 L55.1 38.6 Q53.7 43.55 48.25 45.85 L43.7 47.05 Q41.45 47.35 39.1 47 L36.3 46.45 33.65 45.6 Q29.05 43.65 26.2 39.9 24.15 37.2 23.65 34.4 23.3 32.35 23.9 30.25 23.95 29.8 24.1 29.65 M36.6 24.1 Q33.45 26 32.4 29.5 L32.3 29.75 Q31.95 31 32.2 32.25 32.45 33.85 33.65 35.4 35.2 37.6 37.9 38.65 L39.45 39.2 41.05 39.5 43.7 39.55 Q45.05 39.4 46.3 38.85 49.45 37.45 50.25 34.65 L50.3 34.35 Q51.15 30.8 49.25 27.65 47.4 24.25 43.7 23.2 39.95 22.2 36.6 24.1 M39.9 26.85 Q41.6 25.9 43.55 26.35 45.45 26.9 46.4 28.65 47.4 30.3 47 32.1 L47 32.3 Q46.5 33.7 44.85 34.4 L43.55 34.75 42.2 34.75 41.4 34.6 40.5 34.3 Q39.2 33.75 38.35 32.65 37.8 31.85 37.65 31 37.5 30.45 37.7 29.7 L37.75 29.6 Q38.25 27.8 39.9 26.85"/>
    <path stroke="none" fill="#FABA2D" d="M16 28 Q16 30.45 14.2 32.2 12.45 34 10 34 7.5 34 5.7 32.2 4 30.45 4 28 4 25.5 5.7 23.7 7.5 22 10 22 12.45 22 14.2 23.7 16 25.5 16 28"/>
    <path stroke="none" fill="#9F4F0E" d="M17.05 48.15 Q16.2 49 14.95 49 13.75 49 12.85 48.15 12 47.25 12 45.95 12 44.75 12.85 43.85 13.75 43 14.95 43 16.2 43 17.05 43.85 18 44.75 18 45.95 18 47.25 17.05 48.15"/>
    <path stroke="none" fill="#BA6BE9" d="M25.4 39.2 Q24.95 40.15 23.75 40.5 22.8 40.7 21.85 40.1 L21.75 40.05 21.75 32.75 21.8 32.7 Q22.9 32.45 23.7 32.95 L25.35 33.9 Q26.4 34.45 26.65 35.5 26.95 36.6 26.35 37.55 L25.4 39.2"/>
    <path stroke="none" fill="#BA6BE9" d="M47.4 21 L46.1 21.15 Q45.45 21 45.15 20.35 L44.55 19.35 Q44.25 18.75 44.4 18.1 L44.65 17.6 48.75 17.6 49.05 18.1 Q49.4 18.7 49.2 19.35 L48.45 20.45 Q47.95 20.75 47.4 21"/>
  </g>
</svg>