<svg width="64" height="64" xmlns="http://www.w3.org/2000/svg" xmlns:xlink="http://www.w3.org/1999/xlink">
  <defs/>
  <g>
    <path stroke="none" fill="#353541" d="M2.45 43.1 Q5.3 39.55 9.85 38.95 L9.95 38.95 Q14.4 38.5 17.95 41.1 24.85 35.7 31.85 36 L32.2 36 Q39.2 35.7 46.1 41.1 49.55 38.5 54.05 38.95 L54.2 38.95 Q58.7 39.55 61.6 43.05 L61.75 43.25 62.7 44.8 62.75 44.8 Q63.9 47 64 49.65 L64 49.75 64 50.1 63.95 51.2 63.95 51.25 63.95 51.35 Q63.7 53.45 62.75 55.25 L62.7 55.35 Q61.65 57.25 59.9 58.7 L59.85 58.75 Q53.5 63.75 47.15 64 L45.05 64 Q38.75 63.8 32.45 58.8 L31.85 58.75 31.8 58.75 31.8 58.65 Q31.7 58.65 31.65 58.75 25.35 63.75 19 64 L17 64 Q10.5 63.8 4.2 58.75 L4.25 58.75 Q2.3 57.25 1.3 55.25 0.4 53.5 0.1 51.5 L0.1 51.3 0 50.1 0 49.75 0 49.65 Q0.1 47 1.35 44.8 L1.4 44.75 2.35 43.25 2.45 43.1 M4.1 51 Q4.25 52.3 4.85 53.4 5.5 54.65 6.7 55.6 11.9 59.75 17.2 60 L18.75 60 Q23.95 59.75 29.15 55.6 30.25 54.65 32 54.75 L33.65 54.9 34.9 55.6 Q40.1 59.75 45.25 60 L46.85 60 Q52.1 59.75 57.35 55.6 58.5 54.65 59.2 53.4 59.8 52.3 59.95 51 L59.95 50.9 59.95 50.8 60 50.1 60 49.75 Q59.95 48.1 59.2 46.7 L58.5 45.6 Q56.6 43.3 53.65 42.9 50.65 42.6 48.35 44.4 46.1 46.2 43.85 44.4 37.95 39.75 32 40 26.1 39.75 20.2 44.4 17.95 46.2 15.7 44.4 13.35 42.6 10.35 42.9 7.4 43.3 5.55 45.6 L4.85 46.7 Q4.05 48.1 4 49.75 L4 50.1 4.05 50.8 4.05 50.9 4.1 51"/>
    <path stroke="none" fill="#419FDD" d="M4.1 51 Q4.25 49.75 4.85 48.7 L5.55 47.6 Q7.4 45.3 10.35 44.9 13.35 44.6 15.7 46.4 17.95 48.2 20.2 46.4 26.1 41.75 32 42 37.95 41.75 43.85 46.4 46.1 48.2 48.35 46.4 50.65 44.6 53.65 44.9 56.6 45.3 58.5 47.6 L59.2 48.7 Q59.8 49.75 59.95 51 59.8 52.3 59.2 53.4 58.5 54.65 57.35 55.6 52.1 59.75 46.85 60 L45.25 60 Q40.1 59.75 34.9 55.6 L33.65 54.9 32 54.75 Q30.25 54.65 29.15 55.6 23.95 59.75 18.75 60 L17.2 60 Q11.9 59.75 6.7 55.6 5.5 54.65 4.85 53.4 4.25 52.3 4.1 51"/>
    <path stroke="none" fill="#8FCAF0" d="M4.1 51 L4.05 50.9 4.05 50.8 4 50.1 4 49.75 Q4.05 48.1 4.85 46.7 L5.55 45.6 Q7.4 43.3 10.35 42.9 13.35 42.6 15.7 44.4 17.95 46.2 20.2 44.4 26.1 39.75 32 40 37.95 39.75 43.85 44.4 46.1 46.2 48.35 44.4 50.65 42.6 53.65 42.9 56.6 43.3 58.5 45.6 L59.2 46.7 Q59.95 48.1 60 49.75 L60 50.1 59.95 50.8 59.95 50.9 59.95 51 Q59.8 49.75 59.2 48.7 L58.5 47.6 Q56.6 45.3 53.65 44.9 50.65 44.6 48.35 46.4 46.1 48.2 43.85 46.4 37.95 41.75 32 42 26.1 41.75 20.2 46.4 17.95 48.2 15.7 46.4 13.35 44.6 10.35 44.9 7.4 45.3 5.55 47.6 L4.85 48.7 Q4.25 49.75 4.1 51"/>
    <path stroke="none" fill="#366FBF" d="M40.3 47.05 L41.65 48.4 Q42.45 49.2 42.45 50.3 42.45 51.4 41.65 52.2 L40.3 53.55 Q39.6 54.25 38.5 54.25 37.4 54.25 36.6 53.45 L35.25 52.1 Q34.5 51.4 34.45 50.25 34.5 49.2 35.25 48.45 L36.6 47.1 Q37.4 46.3 38.4 46.25 39.6 46.3 40.3 47.05"/>
    <path stroke="none" fill="#366FBF" d="M49.15 51.45 L50 52.3 Q50.5 52.8 50.5 53.5 50.5 54.2 50 54.7 L49.15 55.5 Q48.7 56 48 56 47.3 56 46.8 55.5 L46 54.65 Q45.5 54.2 45.5 53.45 45.5 52.8 46 52.35 L46.8 51.5 Q47.3 51 47.95 51 48.7 51 49.15 51.45"/>
    <path stroke="none" fill="#2F496D" d="M9.45 48.05 Q10.5 47 12 47 13.5 47 14.55 48.05 15.65 49.15 15.65 50.65 15.65 52.1 14.55 53.2 13.5 54.25 12 54.25 10.5 54.25 9.45 53.2 8.35 52.1 8.35 50.65 8.35 49.15 9.45 48.05"/>
    <path stroke="none" fill="#8FCAF0" d="M25.15 49.7 L26 50.55 Q26.5 51.05 26.5 51.75 26.5 52.45 26 52.95 L25.15 53.75 Q24.7 54.25 24 54.25 23.3 54.25 22.8 53.75 L22 52.9 Q21.5 52.45 21.5 51.7 21.5 51.05 22 50.6 L22.8 49.75 Q23.3 49.25 23.95 49.25 24.7 49.25 25.15 49.7"/>
  </g>
</svg>