<svg width="64" height="64" xmlns="http://www.w3.org/2000/svg" xmlns:xlink="http://www.w3.org/1999/xlink">
  <defs/>
  <g>
    <path stroke="none" fill="#8FCAF0" d="M59.95 53 Q59.65 50.35 57.65 48.35 55.3 46 52 46 L12 46 Q8.7 46 6.35 48.35 4.35 50.35 4.05 53 L4 52 Q4 48.7 6.35 46.35 8.7 44 12 44 L52 44 Q55.3 44 57.65 46.35 60 48.7 60 52 L59.95 53"/>
    <path stroke="none" fill="#419FDD" d="M59.95 53 Q59.65 55.65 57.65 57.65 55.3 60 52 60 L12 60 Q8.7 60 6.35 57.65 4.35 55.65 4.05 53 4.35 50.35 6.35 48.35 8.7 46 12 46 L52 46 Q55.3 46 57.65 48.35 59.65 50.35 59.95 53"/>
    <path stroke="none" fill="#353541" d="M59.95 53 L60 52 Q60 48.7 57.65 46.35 55.3 44 52 44 L12 44 Q8.7 44 6.35 46.35 4 48.7 4 52 L4.05 53 Q4.35 55.65 6.35 57.65 8.7 60 12 60 L52 60 Q55.3 60 57.65 57.65 59.65 55.65 59.95 53 M52 40 Q56.95 40 60.5 43.55 64 47.05 64 52 64 56.95 60.5 60.5 56.95 64 52 64 L12 64 Q7.05 64 3.55 60.5 0 56.95 0 52 0 47.05 3.55 43.55 7.05 40 12 40 L52 40"/>
    <path stroke="none" fill="#366FBF" d="M39.85 56.2 Q39.15 56.95 37.95 57 36.95 56.95 36.15 56.15 L34.8 54.8 Q34.05 54.05 34 53 34.05 51.85 34.8 51.15 L36.15 49.8 Q36.95 49 38.05 49 39.15 49 39.85 49.7 L41.2 51.05 Q42 51.85 42 52.95 42 54.05 41.2 54.85 L39.85 56.2"/>
    <path stroke="none" fill="#366FBF" d="M49.65 52.55 Q49.2 53 48.45 53 47.8 53 47.3 52.5 L46.5 51.65 Q46 51.2 46 50.55 46 49.8 46.5 49.35 L47.3 48.5 Q47.8 48 48.5 48 49.2 48 49.65 48.5 L50.5 49.3 Q51 49.8 51 50.5 51 51.2 50.5 51.7 L49.65 52.55"/>
    <path stroke="none" fill="#8FCAF0" d="M25.65 56.55 Q25.2 57 24.45 57 23.8 57 23.3 56.5 L22.5 55.65 Q22 55.2 22 54.55 22 53.8 22.5 53.35 L23.3 52.5 Q23.8 52 24.5 52 25.2 52 25.65 52.5 L26.5 53.3 Q27 53.8 27 54.5 27 55.2 26.5 55.7 L25.65 56.55"/>
    <path stroke="none" fill="#353541" d="M17.55 54.35 Q15.9 56 13.5 56 11.15 56 9.5 54.35 8.4 53.25 8.05 51.9 7.9 51.25 8.25 50.75 L9.15 50.05 10.3 50.2 Q10.8 50.5 10.95 51.1 11.15 51.7 11.65 52.2 12.45 53 13.5 53 14.6 53 15.45 52.2 L16.15 51.05 Q16.35 50.45 16.9 50.15 L18 50.1 18.95 50.8 19 51.95 Q18.55 53.3 17.55 54.35"/>
  </g>
</svg>