<svg width="64" height="64" xmlns="http://www.w3.org/2000/svg" xmlns:xlink="http://www.w3.org/1999/xlink">
  <defs/>
  <g>
    <path stroke="none" fill="#353541" d="M2.45 56.9 L2.35 56.75 1.4 55.25 1.35 55.2 Q0.1 53.05 0 50.4 L0 50.3 0 49.95 0.1 48.75 0.1 48.55 Q0.4 46.55 1.3 44.8 2.3 42.8 4.25 41.3 L4.2 41.3 Q10.5 36.25 17 36.05 L19 36.05 Q25.35 36.3 31.65 41.3 L31.8 41.4 31.8 41.3 31.85 41.3 32.45 41.25 Q38.75 36.25 45.05 36.05 L47.15 36.05 Q53.5 36.3 59.85 41.3 L59.9 41.35 Q61.65 42.8 62.7 44.7 L62.75 44.8 Q63.7 46.6 63.95 48.7 L63.95 48.8 63.95 48.85 64 49.95 64 50.3 64 50.4 Q63.9 53.05 62.75 55.2 L62.7 55.2 61.75 56.75 61.6 56.95 Q58.7 60.45 54.2 61.05 L54.05 61.05 Q49.55 61.5 46.1 58.9 39.2 64.3 32.2 64 L31.85 64 Q24.85 64.3 17.95 58.9 14.4 61.5 9.95 61.05 L9.85 61.05 Q5.3 60.45 2.45 56.9 M59.95 51 L60 50.3 60 49.95 59.95 49.25 59.95 49.15 59.95 49.05 Q59.8 47.75 59.2 46.65 58.5 45.4 57.35 44.45 52.1 40.3 46.85 40.05 L45.25 40.05 Q40.1 40.3 34.9 44.45 L33.65 45.15 32 45.3 Q30.25 45.4 29.15 44.45 23.95 40.3 18.75 40.05 L17.2 40.05 Q11.9 40.3 6.7 44.45 5.5 45.4 4.85 46.65 4.25 47.75 4.1 49.05 L4.05 49.15 4.05 49.25 4 49.95 4 50.3 4.1 51.1 Q4.25 52.3 4.85 53.35 L5.55 54.4 Q7.4 56.7 10.35 57.1 13.35 57.4 15.7 55.6 17.95 53.85 20.2 55.6 26.1 60.25 32 60 37.95 60.25 43.85 55.6 46.1 53.85 48.35 55.6 50.65 57.4 53.65 57.1 56.6 56.7 58.5 54.4 L59.2 53.35 59.95 51"/>
    <path stroke="none" fill="#8FCAF0" d="M59.95 51 Q59.8 49.75 59.2 48.65 58.5 47.4 57.35 46.45 52.1 42.3 46.85 42.05 L45.25 42.05 Q40.1 42.3 34.9 46.45 L33.65 47.15 32 47.3 Q30.25 47.4 29.15 46.45 23.95 42.3 18.75 42.05 L17.2 42.05 Q11.9 42.3 6.7 46.45 5.5 47.4 4.85 48.65 4.25 49.75 4.1 51.05 L4.1 51.1 4 50.3 4 49.95 4.05 49.25 4.05 49.15 4.1 49.05 Q4.25 47.75 4.85 46.65 5.5 45.4 6.7 44.45 11.9 40.3 17.2 40.05 L18.75 40.05 Q23.95 40.3 29.15 44.45 30.25 45.4 32 45.3 L33.65 45.15 34.9 44.45 Q40.1 40.3 45.25 40.05 L46.85 40.05 Q52.1 40.3 57.35 44.45 58.5 45.4 59.2 46.65 59.8 47.75 59.95 49.05 L59.95 49.15 59.95 49.25 60 49.95 60 50.3 59.95 51"/>
    <path stroke="none" fill="#419FDD" d="M59.95 51 L59.2 53.35 58.5 54.4 Q56.6 56.7 53.65 57.1 50.65 57.4 48.35 55.6 46.1 53.85 43.85 55.6 37.95 60.25 32 60 26.1 60.25 20.2 55.6 17.95 53.85 15.7 55.6 13.35 57.4 10.35 57.1 7.4 56.7 5.55 54.4 L4.85 53.35 Q4.25 52.3 4.1 51.1 L4.1 51.05 Q4.25 49.75 4.85 48.65 5.5 47.4 6.7 46.45 11.9 42.3 17.2 42.05 L18.75 42.05 Q23.95 42.3 29.15 46.45 30.25 47.4 32 47.3 L33.65 47.15 34.9 46.45 Q40.1 42.3 45.25 42.05 L46.85 42.05 Q52.1 42.3 57.35 46.45 58.5 47.4 59.2 48.65 59.8 49.75 59.95 51"/>
    <path stroke="none" fill="#366FBF" d="M40.3 54 Q39.6 54.75 38.4 54.8 37.4 54.75 36.6 53.95 L35.25 52.6 Q34.5 51.85 34.45 50.8 34.5 49.65 35.25 48.95 L36.6 47.6 Q37.4 46.8 38.5 46.8 39.6 46.8 40.3 47.5 L41.65 48.85 Q42.45 49.65 42.45 50.75 42.45 51.85 41.65 52.65 L40.3 54"/>
    <path stroke="none" fill="#366FBF" d="M49.15 51.6 L47.95 52.05 Q47.3 52.05 46.8 51.55 L46 50.7 Q45.5 50.25 45.5 49.6 45.5 48.85 46 48.4 L46.8 47.55 Q47.3 47.05 48 47.05 48.7 47.05 49.15 47.55 L50 48.35 Q50.5 48.85 50.5 49.55 50.5 50.25 50 50.75 L49.15 51.6"/>
    <path stroke="none" fill="#2F496D" d="M9.45 52 Q8.35 50.9 8.35 49.4 8.35 47.95 9.45 46.85 10.5 45.8 12 45.8 13.5 45.8 14.55 46.85 15.65 47.95 15.65 49.4 15.65 50.9 14.55 52 13.5 53.05 12 53.05 10.5 53.05 9.45 52"/>
    <path stroke="none" fill="#8FCAF0" d="M25.15 53.35 L23.95 53.8 Q23.3 53.8 22.8 53.3 L22 52.45 Q21.5 52 21.5 51.35 21.5 50.6 22 50.15 L22.8 49.3 Q23.3 48.8 24 48.8 24.7 48.8 25.15 49.3 L26 50.1 Q26.5 50.6 26.5 51.3 26.5 52 26 52.5 L25.15 53.35"/>
  </g>
</svg>