<svg width="64" height="64" xmlns="http://www.w3.org/2000/svg" xmlns:xlink="http://www.w3.org/1999/xlink">
  <defs/>
  <g>
    <path stroke="none" fill="#353541" d="M64 50.1 L63.95 51.15 63.95 51.45 Q63.65 53.55 62.7 55.35 61.65 57.25 59.9 58.7 L59.85 58.75 Q53.5 63.75 47.15 64 L45.05 64 Q40.9 63.85 36.75 61.65 L34.6 62 29.5 62 27.3 61.6 Q23.15 63.85 19 64 L17 64 Q10.5 63.8 4.2 58.75 L4.25 58.75 Q2.35 57.3 1.35 55.35 L1.3 55.25 Q0.6 53.95 0.3 52.45 -0.05 51.75 0.05 51 L0.05 50.9 0 50.1 0 49.75 0 49.65 Q0.1 47 1.35 44.8 L1.4 44.75 2.35 43.25 2.45 43.1 Q5.3 39.55 9.85 38.95 L9.95 38.95 Q14.4 38.5 17.95 41.1 19.9 39.55 21.9 38.5 L22.65 36.9 22.65 36.95 Q23.85 35.05 26 34.5 32.05 32.8 38.05 34.5 L38.1 34.5 Q40.15 35.1 41.4 36.9 L41.45 37 42.15 38.5 Q44.15 39.55 46.1 41.1 49.55 38.5 54.05 38.95 L54.2 38.95 Q58.7 39.55 61.6 43.05 L61.75 43.25 62.7 44.8 62.75 44.8 Q63.9 47 64 49.65 L64 49.75 64 50.1"/>
    <path stroke="none" fill="#FABA2D" d="M4.1 51 Q4.25 49.75 4.85 48.7 L5.55 47.6 Q7.4 45.3 10.35 44.9 13.35 44.6 15.7 46.4 17.95 48.2 20.2 46.4 26.1 41.75 32 42 37.95 41.75 43.85 46.4 46.1 48.2 48.35 46.4 50.65 44.6 53.65 44.9 56.6 45.3 58.5 47.6 L59.2 48.7 Q59.8 49.75 59.95 51 59.8 52.3 59.2 53.4 58.5 54.65 57.35 55.6 52.1 59.75 46.85 60 L45.25 60 Q40.1 59.75 34.9 55.6 L33.65 54.9 32 54.75 Q30.25 54.65 29.15 55.6 23.95 59.75 18.75 60 L17.2 60 Q11.9 59.75 6.7 55.6 5.5 54.65 4.85 53.4 4.25 52.3 4.1 51"/>
    <path stroke="none" fill="#FFD751" d="M4.1 51 L4.05 50.9 4.05 50.8 4 50.1 4 49.75 Q4.05 48.1 4.85 46.7 L5.55 45.6 Q7.4 43.3 10.35 42.9 13.35 42.6 15.7 44.4 17.95 46.2 20.2 44.4 26.1 39.75 32 40 37.95 39.75 43.85 44.4 46.1 46.2 48.35 44.4 50.65 42.6 53.65 42.9 56.6 43.3 58.5 45.6 L59.2 46.7 Q59.95 48.1 60 49.75 L60 50.1 59.95 50.8 59.95 50.9 59.95 51 Q59.8 49.75 59.2 48.7 L58.5 47.6 Q56.6 45.3 53.65 44.9 50.65 44.6 48.35 46.4 46.1 48.2 43.85 46.4 37.95 41.75 32 42 26.1 41.75 20.2 46.4 17.95 48.2 15.7 46.4 13.35 44.6 10.35 44.9 7.4 45.3 5.55 47.6 L4.85 48.7 Q4.25 49.75 4.1 51"/>
    <path stroke="none" fill="#E28F2B" d="M44.15 52.2 L45 53.05 Q45.5 53.55 45.5 54.25 45.5 54.95 45 55.45 L44.15 56.25 Q43.7 56.75 43 56.75 42.3 56.75 41.8 56.25 L41 55.4 Q40.5 54.95 40.5 54.2 40.5 53.55 41 53.1 L41.8 52.25 Q42.3 51.75 42.95 51.75 43.7 51.75 44.15 52.2"/>
    <path stroke="none" fill="#9F4F0E" d="M9.45 48.05 Q10.5 47 12 47 13.5 47 14.55 48.05 15.65 49.15 15.65 50.65 15.65 52.1 14.55 53.2 13.5 54.25 12 54.25 10.5 54.25 9.45 53.2 8.35 52.1 8.35 50.65 8.35 49.15 9.45 48.05"/>
    <path stroke="none" fill="#FFD751" d="M23.45 48.4 L24.3 49.25 Q24.8 49.75 24.8 50.45 24.8 51.15 24.3 51.65 L23.45 52.45 Q23 52.95 22.3 52.95 21.6 52.95 21.1 52.45 L20.3 51.6 Q19.8 51.15 19.8 50.4 19.8 49.75 20.3 49.3 L21.1 48.45 Q21.6 47.95 22.25 47.95 23 47.95 23.45 48.4"/>
    <path stroke="none" fill="#E28F2B" d="M38.4 40.5 L36.55 56.25 35.9 57.5 Q35.35 58 34.6 58 L29.5 58 Q28.7 58 28.15 57.5 27.6 57 27.5 56.25 L25.65 40.5 Q25.55 39.75 26 39.15 26.4 38.5 27.1 38.35 32.05 36.95 37 38.35 L38.1 39.15 Q38.5 39.75 38.4 40.5"/>
  </g>
</svg>