<svg width="64" height="64" xmlns="http://www.w3.org/2000/svg" xmlns:xlink="http://www.w3.org/1999/xlink">
  <defs/>
  <g>
    <path stroke="none" fill="#353541" d="M64 49.95 L64 50.3 64 50.45 63.95 51.45 63.95 51.55 Q63.65 53.5 62.75 55.25 L62.7 55.3 61.65 56.9 61.6 56.95 Q58.7 60.45 54.2 61.1 L54.05 61.1 Q49.55 61.5 46.1 58.95 41.65 62.4 37.1 63.45 35.95 64 34.6 64 L33.4 64 32.2 64 32 64 31.85 64 30.8 64 29.5 64 27.1 63.55 Q22.5 62.45 17.95 58.95 14.4 61.5 9.95 61.1 L9.85 61.1 Q5.3 60.45 2.45 56.9 L1.4 55.35 1.35 55.3 Q0.4 53.6 0.15 51.7 L0.15 51.75 0 50.45 0 50.3 0 49.95 0.05 49.15 0.05 49.05 Q-0.05 48.3 0.3 47.6 0.6 46.05 1.35 44.75 L1.3 44.8 Q2.3 42.8 4.25 41.35 L4.2 41.35 Q10.5 36.3 16.95 36.05 L18.95 36.05 Q21.85 36.2 24.8 37.3 25.35 37 26 36.85 32.05 35.15 38.1 36.85 L38.2 36.9 39.25 37.3 Q42.15 36.2 45.05 36.05 L47.05 36.05 Q53.45 36.25 59.85 41.3 L59.9 41.4 Q61.65 42.8 62.7 44.7 L62.7 44.75 Q63.65 46.5 63.95 48.6 L63.95 48.95 64 49.95"/>
    <path stroke="none" fill="#FFD751" d="M4.1 51.1 L4 50.3 4 49.95 4.05 49.25 4.05 49.15 4.1 49.05 Q4.25 47.75 4.85 46.65 5.5 45.4 6.7 44.45 11.9 40.3 17.2 40.05 L18.75 40.05 Q23.95 40.3 29.15 44.45 30.25 45.4 32 45.3 L33.65 45.15 34.9 44.45 Q40.1 40.3 45.25 40.05 L46.85 40.05 Q52.1 40.3 57.35 44.45 58.5 45.4 59.2 46.65 59.8 47.75 59.95 49.05 L59.95 49.15 59.95 49.25 60 49.95 60 50.3 59.95 51 Q59.8 49.75 59.2 48.65 58.5 47.4 57.35 46.45 52.1 42.3 46.85 42.05 L45.25 42.05 Q40.1 42.3 34.9 46.45 L33.65 47.15 32 47.3 Q30.25 47.4 29.15 46.45 23.95 42.3 18.75 42.05 L17.2 42.05 Q11.9 42.3 6.7 46.45 5.5 47.4 4.85 48.65 4.25 49.75 4.1 51.05 L4.1 51.1"/>
    <path stroke="none" fill="#FABA2D" d="M4.1 51.1 L4.1 51.05 Q4.25 49.75 4.85 48.65 5.5 47.4 6.7 46.45 11.9 42.3 17.2 42.05 L18.75 42.05 Q23.95 42.3 29.15 46.45 30.25 47.4 32 47.3 L33.65 47.15 34.9 46.45 Q40.1 42.3 45.25 42.05 L46.85 42.05 Q52.1 42.3 57.35 46.45 58.5 47.4 59.2 48.65 59.8 49.75 59.95 51 L59.2 53.35 58.5 54.4 Q56.6 56.7 53.65 57.1 50.65 57.4 48.35 55.6 46.1 53.85 43.85 55.6 37.95 60.25 32 60 26.1 60.25 20.2 55.6 17.95 53.85 15.7 55.6 13.35 57.4 10.35 57.1 7.4 56.7 5.55 54.4 L4.85 53.35 Q4.25 52.3 4.1 51.1"/>
    <path stroke="none" fill="#E28F2B" d="M44.15 51.6 Q43.7 52.05 42.95 52.05 42.3 52.05 41.8 51.55 L41 50.7 Q40.5 50.25 40.5 49.6 40.5 48.85 41 48.4 L41.8 47.55 Q42.3 47.05 43 47.05 43.7 47.05 44.15 47.55 L45 48.35 Q45.5 48.85 45.5 49.55 45.5 50.25 45 50.75 L44.15 51.6"/>
    <path stroke="none" fill="#9F4F0E" d="M9.45 52 Q8.35 50.9 8.35 49.4 8.35 47.95 9.45 46.85 10.5 45.8 12 45.8 13.5 45.8 14.55 46.85 15.65 47.95 15.65 49.4 15.65 50.9 14.55 52 13.5 53.05 12 53.05 10.5 53.05 9.45 52"/>
    <path stroke="none" fill="#FFD751" d="M22.65 50.6 L21.45 51.05 Q20.8 51.05 20.3 50.55 L19.5 49.7 Q19 49.25 19 48.6 19 47.85 19.5 47.4 L20.3 46.55 Q20.8 46.05 21.5 46.05 22.2 46.05 22.65 46.55 L23.5 47.35 Q24 47.85 24 48.55 24 49.25 23.5 49.75 L22.65 50.6"/>
    <path stroke="none" fill="#E28F2B" d="M38.4 42.8 L36.55 58.3 35.9 59.5 Q35.35 60 34.6 60 L29.5 60 Q28.7 60 28.15 59.5 27.6 59 27.5 58.3 L25.65 42.8 Q25.55 42.05 26 41.5 26.4 40.85 27.1 40.7 32.05 39.3 37 40.7 L38.1 41.5 Q38.5 42.05 38.4 42.8"/>
  </g>
</svg>