<svg width="64" height="64" xmlns="http://www.w3.org/2000/svg" xmlns:xlink="http://www.w3.org/1999/xlink">
  <defs/>
  <g>
    <path stroke="none" fill="#353541" d="M0 56.5 L0 8 Q0 4 2 2 4 0 8 0 L56 0 Q60 0 62 2 64 4 64 8 L64 56.5 Q63.9 60.15 62 62 60.1 63.9 56.35 64 L7.65 64 Q3.9 63.9 2 62 0.1 60.15 0 56.5 M60 9.8 L60 8 Q60 6 59 5 58 4 56 4 L8 4 Q6 4 5 5 4 6 4 8 L4 9.8 4 56.4 Q4.1 58.1 5 59 5.5 59.5 6.25 59.75 L8 60 56 60 57.75 59.75 59 59 Q59.9 58.1 60 56.4 L60 9.8"/>
    <path stroke="none" fill="#DE7E4F" d="M60 9.8 Q59.95 7.95 59 7 58.5 6.5 57.75 6.25 L59 5 Q60 6 60 8 L60 9.8 M6.25 6.25 L8 6 56 6 57.75 6.25 52 12 12 12 6.25 6.25 Q5.5 6.5 5 7 4.05 7.95 4 9.8 L4 8 Q4 6 5 5 L6.25 6.25 M25.3 26.4 L30.5 23.4 Q31.2 23 32 23 32.8 23 33.55 23.4 L38.75 26.4 39.85 27.45 Q40.25 28.2 40.25 29 L40.25 34.95 Q40.25 35.8 39.85 36.45 L38.75 37.6 33.55 40.6 32.05 41 30.5 40.6 25.3 37.6 Q24.55 37.2 24.15 36.45 23.75 35.8 23.75 34.95 L23.75 29 Q23.75 28.2 24.15 27.45 24.55 26.8 25.3 26.4 M31.45 37.25 L32.05 37.4 32.6 37.25 36.3 35.1 36.7 34.7 36.85 34.15 36.85 29.85 36.7 29.3 36.3 28.95 32.55 26.75 32 26.6 Q31.7 26.6 31.45 26.75 29.6 27.85 27.7 28.9 L27.3 29.3 27.1 29.85 27.1 34.15 27.3 34.7 27.7 35.1 31.45 37.25 M31.95 29.75 Q32.65 29.75 33 30.1 33.45 30.45 33.45 30.9 L33.45 33.15 33 33.9 Q32.65 34.25 31.95 34.25 31.35 34.25 30.9 33.9 30.45 33.6 30.45 33.15 L30.45 30.9 Q30.45 30.45 30.9 30.1 31.35 29.75 31.95 29.75"/>
    <path stroke="none" fill="#CA6D46" d="M57.75 6.25 Q58.5 6.5 59 7 59.95 7.95 60 9.8 L60 56.4 Q59.9 58.1 59 59 L52 52 52 12 57.75 6.25 M6.25 6.25 L12 12 12 52 5 59 Q4.1 58.1 4 56.4 L4 9.8 Q4.05 7.95 5 7 5.5 6.5 6.25 6.25"/>
    <path stroke="none" fill="#FA9F72" d="M6.25 6.25 L5 5 Q6 4 8 4 L56 4 Q58 4 59 5 L57.75 6.25 56 6 8 6 6.25 6.25"/>
    <path stroke="none" fill="#BD6341" d="M12 12 L52 12 52 52 12 52 12 12 M35.05 20.8 L34.95 20.75 Q33.5 20 32 20 30.4 20 29 20.8 L23.8 23.8 Q22.35 24.6 21.6 25.9 L21.5 26.05 Q20.75 27.5 20.75 29 L20.75 34.95 Q20.75 36.6 21.5 37.85 L21.6 38.05 Q22.4 39.4 23.8 40.2 L29 43.2 Q30.4 44 32.05 44 33.5 44 34.95 43.25 L35.05 43.2 40.25 40.2 40.35 40.15 Q41.55 39.4 42.45 38 L42.4 38.05 Q43.25 36.7 43.25 34.95 L43.25 29 Q43.25 27.5 42.5 26.05 L42.35 25.75 Q41.5 24.55 40.35 23.85 L40.25 23.8 35.05 20.8"/>
    <path stroke="none" fill="#9F5438" d="M35.05 20.8 L40.25 23.8 40.35 23.85 Q41.5 24.55 42.35 25.75 L42.5 26.05 Q43.25 27.5 43.25 29 L43.25 34.95 Q43.25 36.7 42.4 38.05 L42.45 38 Q41.55 39.4 40.35 40.15 L40.25 40.2 35.05 43.2 34.95 43.25 Q33.5 44 32.05 44 30.4 44 29 43.2 L23.8 40.2 Q22.4 39.4 21.6 38.05 L21.5 37.85 Q20.75 36.6 20.75 34.95 L20.75 29 Q20.75 27.5 21.5 26.05 L21.6 25.9 Q22.35 24.6 23.8 23.8 L29 20.8 Q30.4 20 32 20 33.5 20 34.95 20.75 L35.05 20.8 M25.3 26.4 Q24.55 26.8 24.15 27.45 23.75 28.2 23.75 29 L23.75 34.95 Q23.75 35.8 24.15 36.45 24.55 37.2 25.3 37.6 L30.5 40.6 32.05 41 33.55 40.6 38.75 37.6 39.85 36.45 Q40.25 35.8 40.25 34.95 L40.25 29 Q40.25 28.2 39.85 27.45 L38.75 26.4 33.55 23.4 Q32.8 23 32 23 31.2 23 30.5 23.4 L25.3 26.4 M5 59 L12 52 52 52 59 59 57.75 59.75 56 60 8 60 6.25 59.75 Q5.5 59.5 5 59 M31.45 37.25 L27.7 35.1 27.3 34.7 27.1 34.15 27.1 29.85 27.3 29.3 27.7 28.9 Q29.6 27.85 31.45 26.75 31.7 26.6 32 26.6 L32.55 26.75 36.3 28.95 36.7 29.3 36.85 29.85 36.85 34.15 36.7 34.7 36.3 35.1 32.6 37.25 32.05 37.4 31.45 37.25 M31.95 29.75 Q31.35 29.75 30.9 30.1 30.45 30.45 30.45 30.9 L30.45 33.15 Q30.45 33.6 30.9 33.9 31.35 34.25 31.95 34.25 32.65 34.25 33 33.9 L33.45 33.15 33.45 30.9 Q33.45 30.45 33 30.1 32.65 29.75 31.95 29.75"/>
  </g>
</svg>