<svg width="64" height="64" xmlns="http://www.w3.org/2000/svg" xmlns:xlink="http://www.w3.org/1999/xlink">
  <defs/>
  <g>
    <path stroke="none" fill="#353541" d="M0 56.5 L0 8 Q0 4 2 2 4 0 8 0 L56 0 Q60 0 62 2 64 4 64 8 L64 56.5 Q63.9 60.15 62 62 60.1 63.9 56.35 64 L7.65 64 Q3.9 63.9 2 62 0.1 60.15 0 56.5 M60 9.8 L60 8 Q60 6 59 5 58 4 56 4 L8 4 Q6 4 5 5 4 6 4 8 L4 9.8 4 56.4 Q4.1 58.1 5 59 5.5 59.5 6.25 59.75 L8 60 56 60 57.75 59.75 59 59 Q59.9 58.1 60 56.4 L60 9.8"/>
    <path stroke="none" fill="#DE7E4F" d="M60 9.8 Q59.95 7.95 59 7 58.5 6.5 57.75 6.25 L59 5 Q60 6 60 8 L60 9.8 M6.25 6.25 L8 6 56 6 57.75 6.25 52 12 12 12 6.25 6.25 Q5.5 6.5 5 7 4.05 7.95 4 9.8 L4 8 Q4 6 5 5 L6.25 6.25"/>
    <path stroke="none" fill="#CA6D46" d="M6.25 6.25 L12 12 12 52 5 59 Q4.1 58.1 4 56.4 L4 9.8 Q4.05 7.95 5 7 5.5 6.5 6.25 6.25 M57.75 6.25 Q58.5 6.5 59 7 59.95 7.95 60 9.8 L60 56.4 Q59.9 58.1 59 59 L52 52 52 12 57.75 6.25"/>
    <path stroke="none" fill="#FA9F72" d="M57.75 6.25 L56 6 8 6 6.25 6.25 5 5 Q6 4 8 4 L56 4 Q58 4 59 5 L57.75 6.25"/>
    <path stroke="none" fill="#9F5438" d="M5 59 L12 52 52 52 59 59 57.75 59.75 56 60 8 60 6.25 59.75 Q5.5 59.5 5 59"/>
    <path stroke="none" fill="#BD6341" d="M12 12 L52 12 52 52 12 52 12 12"/>
  </g>
</svg>