<svg width="64" height="64" xmlns="http://www.w3.org/2000/svg" xmlns:xlink="http://www.w3.org/1999/xlink">
  <defs/>
  <g>
    <path stroke="none" fill="#353541" d="M33.8 0.45 L40 3.55 46.15 0.45 Q46.9 0.05 47.65 0 L48.25 0 49.2 0.2 Q50.75 0.7 51.55 2.2 L55 9.05 61.8 12.4 Q63.25 13.1 63.8 14.7 L64 15.6 64 16.3 63.6 17.75 60.5 24 63.6 30.25 64 31.9 64 32.15 63.6 33.8 60.5 40 63.6 46.15 64 47.65 64 48.25 63.8 49.2 Q63.3 50.75 61.8 51.55 L55 55 51.65 61.8 Q50.9 63.25 49.35 63.8 L48.4 64 47.7 64 46.25 63.6 40.05 60.5 33.8 63.6 32.15 64 31.9 64 30.2 63.6 24 60.5 17.85 63.6 16.4 64 15.75 64 14.8 63.8 Q13.25 63.3 12.5 61.8 L9.05 55 2.2 51.55 Q0.7 50.75 0.2 49.2 L0 48.25 0 47.65 Q0.05 46.9 0.45 46.15 L3.55 40 0.45 33.8 Q0.05 33 0 32.15 L0 31.9 Q0.05 31 0.45 30.25 L3.55 24 0.45 17.75 Q0.05 17.05 0 16.35 L0 15.6 0.2 14.7 Q0.75 13.1 2.25 12.4 L9.05 9.05 12.4 2.25 Q13.1 0.75 14.7 0.2 L15.6 0 16.35 0 Q17.05 0.05 17.75 0.45 L24 3.55 30.25 0.45 Q31 0.05 31.9 0 L32.15 0 Q33 0.05 33.8 0.45 M12 12 L4 15.95 8 23.95 4 32 8 40 4 47.95 12 52 16.05 60 24 56 32 60 40.05 56 48.05 60 52 52 60 47.95 56 40 60 32 56 23.95 60 15.95 Q56 14 52 12 L47.95 4 40 8 32 4 23.95 8 15.95 4 12 12"/>
    <path stroke="none" fill="#B9C2CA" d="M12 12 L15.95 4 23.95 8 32 4 40 8 47.95 4 52 12 Q56 14 60 15.95 L56 23.95 60 32 56 40 60 47.95 52 52 48.05 60 40.05 56 32 60 24 56 16.05 60 12 52 4 47.95 8 40 4 32 8 23.95 4 15.95 12 12 M51.15 13.8 Q50.55 13.5 50.25 12.9 L47.1 6.7 40.9 9.8 40 10 39.1 9.8 32 6.25 24.85 9.8 23.95 10 23.05 9.8 16.85 6.7 13.8 12.9 12.9 13.8 6.7 16.85 9.8 23.05 10 23.95 9.8 24.85 6.25 32 9.8 39.1 10 40 9.8 40.9 6.7 47.1 12.9 50.25 13.8 51.1 16.95 57.35 23.1 54.25 24 54 24.9 54.2 32 57.75 39.15 54.2 40.05 54 40.95 54.2 47.15 57.3 50.2 51.15 Q50.5 50.55 51.1 50.25 L57.35 47.1 54.25 40.9 54 40 54.2 39.1 57.75 32 54.2 24.85 54 23.95 54.2 23.05 57.3 16.85 51.15 13.8"/>
    <path stroke="none" fill="#92A1AD" d="M51.15 13.8 L57.3 16.85 54.2 23.05 54 23.95 54.2 24.85 57.75 32 54.2 39.1 54 40 54.25 40.9 57.35 47.1 51.1 50.25 Q50.5 50.55 50.2 51.15 L47.15 57.3 40.95 54.2 40.05 54 39.15 54.2 32 57.75 24.9 54.2 24 54 23.1 54.25 16.95 57.35 13.8 51.1 12.9 50.25 6.7 47.1 9.8 40.9 10 40 9.8 39.1 6.25 32 9.8 24.85 10 23.95 9.8 23.05 6.7 16.85 12.9 13.8 13.8 12.9 16.85 6.7 23.05 9.8 23.95 10 24.85 9.8 32 6.25 39.1 9.8 40 10 40.9 9.8 47.1 6.7 50.25 12.9 Q50.55 13.5 51.15 13.8"/>
    <path stroke="none" fill="#E8EBEE" d="M14 19.9 L14 18 Q14 16.35 15.2 15.2 16.35 14 18 14 L46 14 Q47.65 14 48.85 15.2 50 16.35 50 18 L50 19.9 Q49.95 18.3 48.85 17.2 47.65 16 46 16 L18 16 Q16.35 16 15.2 17.2 14.05 18.3 14 19.9"/>
    <path stroke="none" fill="#B9C2CA" d="M14 19.9 Q14.05 18.3 15.2 17.2 16.35 16 18 16 L46 16 Q47.65 16 48.85 17.2 49.95 18.3 50 19.9 L50 46.15 Q49.95 47.7 48.85 48.85 47.65 50 46 50 L18 50 Q16.35 50 15.2 48.85 14.05 47.7 14 46.15 L14 19.9"/>
    <path stroke="none" fill="#767D83" d="M45 22 Q45 23.25 44.1 24.1 43.25 25 42 25 40.75 25 39.85 24.1 39 23.25 39 22 39 20.75 39.85 19.85 40.75 19 42 19 43.25 19 44.1 19.85 45 20.75 45 22 M45 42 Q45 43.25 44.1 44.1 43.25 45 42 45 40.75 45 39.85 44.1 39 43.25 39 42 39 40.75 39.85 39.85 40.75 39 42 39 43.25 39 44.1 39.85 45 40.75 45 42 M25 22 Q25 23.25 24.1 24.1 23.25 25 22 25 20.75 25 19.85 24.1 19 23.25 19 22 19 20.75 19.85 19.85 20.75 19 22 19 23.25 19 24.1 19.85 25 20.75 25 22 M25 42 Q25 43.25 24.1 44.1 23.25 45 22 45 20.75 45 19.85 44.1 19 43.25 19 42 19 40.75 19.85 39.85 20.75 39 22 39 23.25 39 24.1 39.85 25 40.75 25 42"/>
  </g>
</svg>