<svg width="64" height="64" xmlns="http://www.w3.org/2000/svg" xmlns:xlink="http://www.w3.org/1999/xlink">
  <defs/>
  <g>
    <path stroke="none" fill="#353541" d="M60 11.75 L60 8 Q60 4 56 4 L8 4 Q4 4 4 8 L4 11.75 4 56.4 Q4.2 60 8 60 L56 60 Q59.8 60 60 56.4 L60 11.75 M0 56.5 L0 8 Q0 0 8 0 L56 0 Q64 0 64 8 L64 56.5 Q63.75 63.85 56.35 64 L7.65 64 Q0.25 63.85 0 56.5"/>
    <path stroke="none" fill="#FA9F72" d="M4 11.75 L4 8 Q4 4 8 4 L56 4 Q60 4 60 8 L60 11.75 Q59.85 8 56 8 L8 8 Q4.15 8 4 11.75 M38 25 Q38 29.95 36.25 33.5 34.5 37 32 37 29.5 37 27.75 33.5 26 29.95 26 25 26 22.55 27.75 20.8 29.5 19 32 19 34.5 19 36.25 20.8 38 22.55 38 25 M36 44 Q36 45.65 34.85 46.8 33.65 48 32 48 30.35 48 29.15 46.8 28 45.65 28 44 28 42.4 29.15 41.2 30.35 40 32 40 33.65 40 34.85 41.2 36 42.4 36 44"/>
    <path stroke="none" fill="#DE7E4F" d="M60 11.75 L60 56.4 Q59.8 60 56 60 L8 60 Q4.2 60 4 56.4 L4 11.75 Q4.15 8 8 8 L56 8 Q59.85 8 60 11.75 M54 51 Q54 49.35 52.8 48.15 51.65 47 50 47 48.35 47 47.15 48.15 46 49.35 46 51 46 52.65 47.15 53.8 48.35 55 50 55 51.65 55 52.8 53.8 54 52.65 54 51 M54 16 Q54 14.35 52.8 13.15 51.65 12 50 12 48.35 12 47.15 13.15 46 14.35 46 16 46 17.65 47.15 18.8 48.35 20 50 20 51.65 20 52.8 18.8 54 17.65 54 16 M32 16 Q28.25 16 25.65 18.7 L25.6 18.7 Q23 21.35 23 25 23 30.75 25.05 34.85 L25.1 34.85 Q26.25 37.2 27.7 38.5 L27.05 39.1 27 39.15 Q25 41.2 25 44 25 46.9 27.05 48.95 29.1 51 32 51 34.9 51 37 48.95 39 46.9 39 44 39 41.2 37.05 39.15 L37 39.1 36.35 38.5 Q37.75 37.2 38.95 34.85 41 30.75 41 25 41 21.35 38.4 18.7 35.75 16 32 16 M18 51 Q18 49.35 16.8 48.15 15.65 47 14 47 12.35 47 11.15 48.15 10 49.35 10 51 10 52.65 11.15 53.8 12.35 55 14 55 15.65 55 16.8 53.8 18 52.65 18 51 M18 16 Q18 14.35 16.8 13.15 15.65 12 14 12 12.35 12 11.15 13.15 10 14.35 10 16 10 17.65 11.15 18.8 12.35 20 14 20 15.65 20 16.8 18.8 18 17.65 18 16"/>
    <path stroke="none" fill="#BD6341" d="M18 16 Q18 17.65 16.8 18.8 15.65 20 14 20 12.35 20 11.15 18.8 10 17.65 10 16 10 14.35 11.15 13.15 12.35 12 14 12 15.65 12 16.8 13.15 18 14.35 18 16 M54 16 Q54 17.65 52.8 18.8 51.65 20 50 20 48.35 20 47.15 18.8 46 17.65 46 16 46 14.35 47.15 13.15 48.35 12 50 12 51.65 12 52.8 13.15 54 14.35 54 16 M54 51 Q54 52.65 52.8 53.8 51.65 55 50 55 48.35 55 47.15 53.8 46 52.65 46 51 46 49.35 47.15 48.15 48.35 47 50 47 51.65 47 52.8 48.15 54 49.35 54 51 M32 16 Q35.75 16 38.4 18.7 41 21.35 41 25 41 30.75 38.95 34.85 37.75 37.2 36.35 38.5 L37 39.1 37.05 39.15 Q39 41.2 39 44 39 46.9 37 48.95 34.9 51 32 51 29.1 51 27.05 48.95 25 46.9 25 44 25 41.2 27 39.15 L27.05 39.1 27.7 38.5 Q26.25 37.2 25.1 34.85 L25.05 34.85 Q23 30.75 23 25 23 21.35 25.6 18.7 L25.65 18.7 Q28.25 16 32 16 M38 25 Q38 22.55 36.25 20.8 34.5 19 32 19 29.5 19 27.75 20.8 26 22.55 26 25 26 29.95 27.75 33.5 29.5 37 32 37 34.5 37 36.25 33.5 38 29.95 38 25 M18 51 Q18 52.65 16.8 53.8 15.65 55 14 55 12.35 55 11.15 53.8 10 52.65 10 51 10 49.35 11.15 48.15 12.35 47 14 47 15.65 47 16.8 48.15 18 49.35 18 51 M36 44 Q36 42.4 34.85 41.2 33.65 40 32 40 30.35 40 29.15 41.2 28 42.4 28 44 28 45.65 29.15 46.8 30.35 48 32 48 33.65 48 34.85 46.8 36 45.65 36 44"/>
  </g>
</svg>