<svg width="64" height="64" xmlns="http://www.w3.org/2000/svg" xmlns:xlink="http://www.w3.org/1999/xlink">
  <defs/>
  <g>
    <path stroke="none" fill="#FA9F72" d="M60 11.75 Q59.85 8 56 8 L8 8 Q4.15 8 4 11.75 L4 8 Q4 4 8 4 L56 4 Q60 4 60 8 L60 11.75"/>
    <path stroke="none" fill="#DE7E4F" d="M60 11.75 L60 56.4 Q59.8 60 56 60 L8 60 Q4.2 60 4 56.4 L4 11.75 Q4.15 8 8 8 L56 8 Q59.85 8 60 11.75 M52 20.75 L52 17.85 Q52 17.15 51.45 16.6 50.85 16 50 16 L14 16 Q13.15 16 12.6 16.6 12 17.15 12 17.85 L12 20.75 12 50.15 Q12 50.85 12.6 51.45 13.15 52 14 52 L50 52 Q50.85 52 51.45 51.45 52 50.85 52 50.15 L52 20.75"/>
    <path stroke="none" fill="#353541" d="M60 11.75 L60 8 Q60 4 56 4 L8 4 Q4 4 4 8 L4 11.75 4 56.4 Q4.2 60 8 60 L56 60 Q59.8 60 60 56.4 L60 11.75 M0 56.5 L0 8 Q0 0 8 0 L56 0 Q64 0 64 8 L64 56.5 Q63.75 63.85 56.35 64 L7.65 64 Q0.25 63.85 0 56.5"/>
    <path stroke="none" fill="#9F5438" d="M12 20.75 L12 17.85 Q12 17.15 12.6 16.6 13.15 16 14 16 L50 16 Q50.85 16 51.45 16.6 52 17.15 52 17.85 L52 20.75 Q52 20.15 51.45 19.6 50.85 19 50 19 L14 19 Q13.15 19 12.6 19.6 12 20.15 12 20.75"/>
    <path stroke="none" fill="#BD6341" d="M12 20.75 Q12 20.15 12.6 19.6 13.15 19 14 19 L50 19 Q50.85 19 51.45 19.6 52 20.15 52 20.75 L52 50.15 Q52 50.85 51.45 51.45 50.85 52 50 52 L14 52 Q13.15 52 12.6 51.45 12 50.85 12 50.15 L12 20.75"/>
    <path stroke="none" fill="#8E4A32" d="M29 40.45 L29.05 40.5 Q32.05 38.85 35 40.5 L35.05 40.5 48.8 48.4 Q50.5 49.35 51.5 47.8 L53.1 45 54.05 43.35 Q55.05 41.6 53.3 40.6 L44.1 35.3 44.1 35.25 Q42.35 33.55 44.05 31.8 L53.3 26.45 Q55 25.45 54.15 23.85 L52.5 21.05 51.55 19.4 Q50.55 17.65 48.8 18.65 L35.05 26.6 Q32.3 28.35 29.55 26.9 L15.2 18.6 Q13.45 17.6 12.45 19.35 L11.5 21 9.9 23.8 Q9 25.45 10.7 26.4 L20 31.8 Q21.95 33.5 20 35.25 L10.7 40.6 Q8.95 41.6 9.95 43.35 L10.9 45 12.55 47.8 Q13.5 49.4 15.2 48.4 L29 40.45 M7.35 44.85 Q4.85 40.5 9.2 38 L17 33.5 9.2 29 Q8.2 28.45 7.6 27.8 6.45 26.6 6.5 25.1 6.5 23.85 7.25 22.4 L9.85 17.85 Q12.35 13.5 16.7 16 L32.05 24.85 47.3 16.05 Q51.65 13.55 54.15 17.9 L56.8 22.45 Q57.55 23.85 57.5 25.1 57.55 26.65 56.4 27.85 L54.8 29.05 47.05 33.55 54.8 38 Q59.15 40.5 56.65 44.85 L54.05 49.4 Q53.2 50.75 52.1 51.4 50.75 52.2 49.2 51.8 L47.3 51 32.05 42.2 16.7 51 14.8 51.8 Q13.25 52.2 11.9 51.45 10.85 50.8 10 49.4 L7.35 44.85"/>
    <path stroke="none" fill="#EE9366" d="M35.05 26.6 L48.8 18.65 Q50.55 17.65 51.55 19.4 L52.5 21.05 Q51.5 19.4 49.8 20.4 L37.05 27.75 35.05 26.6 M44.1 35.3 L53.3 40.6 Q55.05 41.6 54.05 43.35 L53.1 45 Q54 43.3 52.3 42.35 L14.2 20.35 Q12.5 19.4 11.5 21 L12.45 19.35 Q13.45 17.6 15.2 18.6 L29.55 26.9 44.1 35.3 M10.9 45 L9.95 43.35 Q8.95 41.6 10.7 40.6 L20 35.25 22.05 36.4 11.7 42.35 Q10 43.35 10.9 45"/>
    <path stroke="none" fill="#BD6341" d="M44.05 31.8 Q42.35 33.55 44.1 35.25 L44.1 35.3 29.55 26.9 Q32.3 28.35 35.05 26.6 L37.05 27.75 44.05 31.8 M35.05 40.5 L35 40.5 Q32.05 38.85 29.05 40.5 L29 40.45 29.05 40.45 27.7 39.7 27.3 39.45 22.05 36.4 20 35.25 Q21.95 33.5 20 31.8 L35.05 40.5"/>
    <path stroke="none" fill="#DE7E4F" d="M35.05 40.5 L20 31.8 10.7 26.4 Q9 25.45 9.9 23.8 L11.5 21 Q12.5 19.4 14.2 20.35 L52.3 42.35 Q54 43.3 53.1 45 L51.5 47.8 Q50.5 49.35 48.8 48.4 L35.05 40.5 M52.5 21.05 L54.15 23.85 Q55 25.45 53.3 26.45 L44.05 31.8 37.05 27.75 49.8 20.4 Q51.5 19.4 52.5 21.05 M29 40.45 L15.2 48.4 Q13.5 49.4 12.55 47.8 L10.9 45 Q10 43.35 11.7 42.35 L22.05 36.4 27.3 39.45 27.7 39.7 29.05 40.45 29 40.45"/>
  </g>
</svg>