<svg width="64" height="64" xmlns="http://www.w3.org/2000/svg" xmlns:xlink="http://www.w3.org/1999/xlink">
  <defs/>
  <g>
    <path stroke="none" fill="#FA9F72" d="M60 11.75 Q59.85 8 56 8 L8 8 Q4.15 8 4 11.75 L4 8 Q4 4 8 4 L56 4 Q60 4 60 8 L60 11.75"/>
    <path stroke="none" fill="#DE7E4F" d="M60 11.75 L60 56.4 Q59.8 60 56 60 L8 60 Q4.2 60 4 56.4 L4 11.75 Q4.15 8 8 8 L56 8 Q59.85 8 60 11.75 M52 20.75 L52 17.85 Q52 17.15 51.45 16.6 50.85 16 50 16 L14 16 Q13.15 16 12.6 16.6 12 17.15 12 17.85 L12 20.75 12 50.15 Q12 50.85 12.6 51.45 13.15 52 14 52 L50 52 Q50.85 52 51.45 51.45 52 50.85 52 50.15 L52 20.75"/>
    <path stroke="none" fill="#353541" d="M60 11.75 L60 8 Q60 4 56 4 L8 4 Q4 4 4 8 L4 11.75 4 56.4 Q4.2 60 8 60 L56 60 Q59.8 60 60 56.4 L60 11.75 M0 56.5 L0 8 Q0 0 8 0 L56 0 Q64 0 64 8 L64 56.5 Q63.75 63.85 56.35 64 L7.65 64 Q0.25 63.85 0 56.5"/>
    <path stroke="none" fill="#9F5438" d="M12 20.75 L12 17.85 Q12 17.15 12.6 16.6 13.15 16 14 16 L50 16 Q50.85 16 51.45 16.6 52 17.15 52 17.85 L52 20.75 Q52 20.15 51.45 19.6 50.85 19 50 19 L14 19 Q13.15 19 12.6 19.6 12 20.15 12 20.75"/>
    <path stroke="none" fill="#BD6341" d="M12 20.75 Q12 20.15 12.6 19.6 13.15 19 14 19 L50 19 Q50.85 19 51.45 19.6 52 20.15 52 20.75 L52 50.15 Q52 50.85 51.45 51.45 50.85 52 50 52 L14 52 Q13.15 52 12.6 51.45 12 50.85 12 50.15 L12 20.75"/>
  </g>
</svg>