<svg width="64" height="64" xmlns="http://www.w3.org/2000/svg" xmlns:xlink="http://www.w3.org/1999/xlink">
  <defs/>
  <g>
    <path stroke="none" fill="#353541" d="M59 5 Q58 4 56 4 L8 4 Q6 4 5 5 4 6 4 8 L4 56.4 Q4.1 58.1 5 59 6 60 8 60 L56 60 Q58 60 59 59 59.9 58.1 60 56.4 L60 8 Q60 6 59 5 M0 56.5 L0 8 Q0 4 2 2 4 0 8 0 L56 0 Q60 0 62 2 64 4 64 8 L64 56.5 Q63.9 60.15 62 62 60.1 63.9 56.35 64 L7.65 64 Q3.9 63.9 2 62 0.1 60.15 0 56.5"/>
    <path stroke="none" fill="#BD6341" d="M57.75 6.25 L59 5 Q60 6 60 8 L60 56.4 Q59.9 58.1 59 59 L52 52 52 12 57.75 6.25 M5 5 L6.25 6.25 12 12 12 52 5 59 Q4.1 58.1 4 56.4 L4 8 Q4 6 5 5"/>
    <path stroke="none" fill="#DE7E4F" d="M6.25 6.25 L8 6 56 6 57.75 6.25 52 12 12 12 6.25 6.25"/>
    <path stroke="none" fill="#FA9F72" d="M6.25 6.25 L5 5 Q6 4 8 4 L56 4 Q58 4 59 5 L57.75 6.25 56 6 8 6 6.25 6.25"/>
    <path stroke="none" fill="#9F5438" d="M59 59 Q58 60 56 60 L8 60 Q6 60 5 59 L12 52 52 52 59 59"/>
    <path stroke="none" fill="#FABA2D" d="M12 12 L52 12 52 52 12 52 12 12"/>
    <path stroke="none" fill="#E28F2B" d="M33.65 38.2 Q33.65 38.85 33.2 39.3 32.7 39.8 32 39.8 31.35 39.8 30.85 39.3 30.4 38.85 30.4 38.2 30.4 37.55 30.85 37.05 31.35 36.55 32 36.55 32.7 36.55 33.2 37.05 33.65 37.55 33.65 38.2 M34.3 18.45 Q36.4 19.3 37.5 21.4 L45.35 37.1 Q46.3 39.05 45.9 41.05 L45.9 41.2 Q45.4 43.3 43.65 44.7 L43.7 44.65 Q42 46 39.85 46 L24.15 46 Q22 46 20.3 44.65 L20.35 44.7 Q18.55 43.25 18.15 41.05 L18.2 41.2 Q17.65 39.1 18.7 37.1 L26.55 21.4 Q27.6 19.25 29.8 18.4 L29.9 18.4 Q31.95 17.6 34.15 18.4 L34.3 18.45 M34.45 30.45 Q34.45 32.45 33.75 33.9 33.05 35.35 32 35.35 31 35.35 30.3 33.9 29.55 32.45 29.55 30.45 29.55 29.45 30.3 28.75 31 28 32 28 33.05 28 33.75 28.75 34.45 29.45 34.45 30.45 M34.8 22.75 Q34.25 21.65 33.15 21.2 32 20.8 30.9 21.2 29.75 21.65 29.2 22.75 L21.35 38.45 Q20.85 39.45 21.1 40.5 21.3 41.6 22.2 42.3 23.05 43 24.15 43 L39.85 43 Q40.95 43 41.8 42.3 42.7 41.6 42.95 40.5 43.15 39.45 42.65 38.45 L34.8 22.75"/>
    <path stroke="none" fill="#FFFFFF" d="M34.45 30.45 Q34.45 29.45 33.75 28.75 33.05 28 32 28 31 28 30.3 28.75 29.55 29.45 29.55 30.45 29.55 32.45 30.3 33.9 31 35.35 32 35.35 33.05 35.35 33.75 33.9 34.45 32.45 34.45 30.45 M34.8 22.75 L42.65 38.45 Q43.15 39.45 42.95 40.5 42.7 41.6 41.8 42.3 40.95 43 39.85 43 L24.15 43 Q23.05 43 22.2 42.3 21.3 41.6 21.1 40.5 20.85 39.45 21.35 38.45 L29.2 22.75 Q29.75 21.65 30.9 21.2 32 20.8 33.15 21.2 34.25 21.65 34.8 22.75 M33.65 38.2 Q33.65 37.55 33.2 37.05 32.7 36.55 32 36.55 31.35 36.55 30.85 37.05 30.4 37.55 30.4 38.2 30.4 38.85 30.85 39.3 31.35 39.8 32 39.8 32.7 39.8 33.2 39.3 33.65 38.85 33.65 38.2"/>
  </g>
</svg>