<svg width="64" height="64" xmlns="http://www.w3.org/2000/svg" xmlns:xlink="http://www.w3.org/1999/xlink">
  <defs/>
  <g>
    <path stroke="none" fill="#FFD751" d="M4 11.75 L4 8 Q4 4 8 4 L56 4 Q60 4 60 8 L60 11.75 Q59.85 8 56 8 L8 8 Q4.15 8 4 11.75"/>
    <path stroke="none" fill="#FABA2D" d="M4 11.75 Q4.15 8 8 8 L56 8 Q59.85 8 60 11.75 L60 56.4 Q59.8 60 56 60 L8 60 Q4.2 60 4 56.4 L4 11.75 M54 51 Q54 49.35 52.8 48.15 51.65 47 50 47 48.35 47 47.15 48.15 46 49.35 46 51 46 52.65 47.15 53.8 48.35 55 50 55 51.65 55 52.8 53.8 54 52.65 54 51 M54 16 Q54 14.35 52.8 13.15 51.65 12 50 12 48.35 12 47.15 13.15 46 14.35 46 16 46 17.65 47.15 18.8 48.35 20 50 20 51.65 20 52.8 18.8 54 17.65 54 16 M18 51 Q18 49.35 16.8 48.15 15.65 47 14 47 12.35 47 11.15 48.15 10 49.35 10 51 10 52.65 11.15 53.8 12.35 55 14 55 15.65 55 16.8 53.8 18 52.65 18 51 M18 16 Q18 14.35 16.8 13.15 15.65 12 14 12 12.35 12 11.15 13.15 10 14.35 10 16 10 17.65 11.15 18.8 12.35 20 14 20 15.65 20 16.8 18.8 18 17.65 18 16"/>
    <path stroke="none" fill="#353541" d="M60 11.75 L60 8 Q60 4 56 4 L8 4 Q4 4 4 8 L4 11.75 4 56.4 Q4.2 60 8 60 L56 60 Q59.8 60 60 56.4 L60 11.75 M0 56.5 L0 8 Q0 0 8 0 L56 0 Q64 0 64 8 L64 56.5 Q63.75 63.85 56.35 64 L7.65 64 Q0.25 63.85 0 56.5"/>
    <path stroke="none" fill="#E28F2B" d="M54 16 Q54 17.65 52.8 18.8 51.65 20 50 20 48.35 20 47.15 18.8 46 17.65 46 16 46 14.35 47.15 13.15 48.35 12 50 12 51.65 12 52.8 13.15 54 14.35 54 16 M54 51 Q54 52.65 52.8 53.8 51.65 55 50 55 48.35 55 47.15 53.8 46 52.65 46 51 46 49.35 47.15 48.15 48.35 47 50 47 51.65 47 52.8 48.15 54 49.35 54 51 M18 16 Q18 17.65 16.8 18.8 15.65 20 14 20 12.35 20 11.15 18.8 10 17.65 10 16 10 14.35 11.15 13.15 12.35 12 14 12 15.65 12 16.8 13.15 18 14.35 18 16 M18 51 Q18 52.65 16.8 53.8 15.65 55 14 55 12.35 55 11.15 53.8 10 52.65 10 51 10 49.35 11.15 48.15 12.35 47 14 47 15.65 47 16.8 48.15 18 49.35 18 51"/>
    <path stroke="none" fill="#E28F2B" d="M42.65 22.95 Q44.15 23.85 45.05 25.4 L45.1 25.45 Q46.05 27.1 46.05 29 L46.05 36.95 Q46.05 38.85 45.1 40.45 L45.05 40.55 Q44.15 42.1 42.65 43 L42.55 43.05 35.6 47.05 Q33.95 48 32.1 48 30.2 48 28.55 47.05 L21.6 43.05 Q20 42.1 19.05 40.55 L19 40.45 Q18.05 38.85 18.05 36.95 L18.05 29 Q18.05 27.1 19 25.45 L19.05 25.4 Q20 23.85 21.6 22.9 L28.55 18.9 28.65 18.85 Q30.25 18 32.05 18 33.85 18 35.55 18.95 L35.6 18.95 42.55 22.9 42.65 22.95 M32 30 Q31.2 30 30.6 30.45 30 30.9 30 31.5 L30 34.5 Q30 35.1 30.6 35.55 L32 36 Q32.9 36 33.4 35.55 34 35.1 34 34.5 L34 31.5 Q34 30.9 33.4 30.45 32.9 30 32 30 M31.35 40 L26.3 37.15 25.8 36.6 25.55 35.85 25.55 30.15 Q25.55 29.75 25.8 29.4 25.95 29.05 26.3 28.85 L31.3 26 32.05 25.8 32.8 26 37.8 28.9 38.35 29.4 38.55 30.15 38.55 35.85 38.35 36.6 37.8 37.15 32.85 40 32.1 40.2 31.35 40 M23.1 25.5 Q22.15 26.05 21.6 26.95 21.05 27.9 21.05 29 L21.05 36.95 Q21.05 38.05 21.6 38.95 22.15 39.9 23.1 40.45 L30.05 44.45 Q31 45 32.1 45 33.15 45 34.1 44.45 L41.05 40.45 Q41.95 39.9 42.5 38.95 43.05 38.05 43.05 36.95 L43.05 29 Q43.05 27.9 42.5 26.95 41.95 26.05 41.05 25.5 L34.1 21.55 Q33.1 21 32.05 21 31 21 30.05 21.5 L23.1 25.5"/>
    <path stroke="none" fill="#FFFFFF" d="M23.1 25.5 L30.05 21.5 Q31 21 32.05 21 33.1 21 34.1 21.55 L41.05 25.5 Q41.95 26.05 42.5 26.95 43.05 27.9 43.05 29 L43.05 36.95 Q43.05 38.05 42.5 38.95 41.95 39.9 41.05 40.45 L34.1 44.45 Q33.15 45 32.1 45 31 45 30.05 44.45 L23.1 40.45 Q22.15 39.9 21.6 38.95 21.05 38.05 21.05 36.95 L21.05 29 Q21.05 27.9 21.6 26.95 22.15 26.05 23.1 25.5 M32 30 Q32.9 30 33.4 30.45 34 30.9 34 31.5 L34 34.5 Q34 35.1 33.4 35.55 32.9 36 32 36 L30.6 35.55 Q30 35.1 30 34.5 L30 31.5 Q30 30.9 30.6 30.45 31.2 30 32 30 M31.35 40 L32.1 40.2 32.85 40 37.8 37.15 38.35 36.6 38.55 35.85 38.55 30.15 38.35 29.4 37.8 28.9 32.8 26 32.05 25.8 31.3 26 26.3 28.85 Q25.95 29.05 25.8 29.4 25.55 29.75 25.55 30.15 L25.55 35.85 25.8 36.6 26.3 37.15 31.35 40"/>
  </g>
</svg>