<svg width="64" height="64" xmlns="http://www.w3.org/2000/svg" xmlns:xlink="http://www.w3.org/1999/xlink">
  <defs/>
  <g>
    <path stroke="none" fill="#353541" d="M44 31.75 L44 28 Q44 24 40 24 L24 24 Q20 24 20 28 L20 31.75 20 36.25 Q20.15 40 24 40 L40 40 Q43.85 40 44 36.25 L44 31.75 M48 36.4 Q47.75 44 40 44 L24 44 Q16.25 44 16 36.4 L16 36.25 16 28 Q16 20 24 20 L40 20 Q48 20 48 28 L48 36.25 48 36.4"/>
    <path stroke="none" fill="#FA9F72" d="M44 31.75 Q43.85 28 40 28 L24 28 Q20.15 28 20 31.75 L20 28 Q20 24 24 24 L40 24 Q44 24 44 28 L44 31.75"/>
    <path stroke="none" fill="#DE7E4F" d="M44 31.75 L44 36.25 Q43.85 40 40 40 L24 40 Q20.15 40 20 36.25 L20 31.75 Q20.15 28 24 28 L40 28 Q43.85 28 44 31.75"/>
  </g>
</svg>