<svg width="64" height="64" xmlns="http://www.w3.org/2000/svg" xmlns:xlink="http://www.w3.org/1999/xlink">
  <defs/>
  <g>
    <path stroke="none" fill="#BBC4CB" d="M56 37.15 L56 33 Q56 29 52 29 L44 29 Q40 29 40 33 L40 37.15 40 39.5 Q40 43.5 44 43.5 L52 43.5 Q56 43.5 56 39.5 L56 37.15 M4 11.75 Q4.15 8 8 8 L56 8 Q59.85 8 60 11.75 L60 56.4 Q59.8 60 56 60 L8 60 Q4.2 60 4 56.4 L4 11.75 M34 47 Q32 47 32 49 L32 53 Q32 55 34 55 L42 55 Q44 55 44 53 L44 49 Q44 47 42 47 L34 47 M26 12 Q24 12 24 14 L24 18 Q24 20 26 20 L34 20 Q36 20 36 18 L36 14 Q36 12 34 12 L26 12 M24 30.15 L24 26 Q24 22 20 22 L12 22 Q8 22 8 26 L8 30.15 8 32.5 Q8 36.5 12 36.5 L20 36.5 Q24 36.5 24 32.5 L24 30.15 M19 42 Q17 42 17 44 L17 48 Q17 50 19 50 L27 50 Q29 50 29 48 L29 44 Q29 42 27 42 L19 42"/>
    <path stroke="none" fill="#92A1AD" d="M19 42 L27 42 Q29 42 29 44 L29 48 Q29 50 27 50 L19 50 Q17 50 17 48 L17 44 Q17 42 19 42 M56 37.15 L56 39.5 Q56 43.5 52 43.5 L44 43.5 Q40 43.5 40 39.5 L40 37.15 Q40.1 41 44 41 L52 41 Q55.9 41 56 37.15 M26 12 L34 12 Q36 12 36 14 L36 18 Q36 20 34 20 L26 20 Q24 20 24 18 L24 14 Q24 12 26 12 M34 47 L42 47 Q44 47 44 49 L44 53 Q44 55 42 55 L34 55 Q32 55 32 53 L32 49 Q32 47 34 47 M24 30.15 L24 32.5 Q24 36.5 20 36.5 L12 36.5 Q8 36.5 8 32.5 L8 30.15 Q8.1 34 12 34 L20 34 Q23.9 34 24 30.15"/>
    <path stroke="none" fill="#353541" d="M0 56.5 L0 8 Q0 0 8 0 L56 0 Q64 0 64 8 L64 56.5 Q63.75 63.85 56.35 64 L7.65 64 Q0.25 63.85 0 56.5 M60 11.75 L60 8 Q60 4 56 4 L8 4 Q4 4 4 8 L4 11.75 4 56.4 Q4.2 60 8 60 L56 60 Q59.8 60 60 56.4 L60 11.75"/>
    <path stroke="none" fill="#E8EBEE" d="M60 11.75 Q59.85 8 56 8 L8 8 Q4.15 8 4 11.75 L4 8 Q4 4 8 4 L56 4 Q60 4 60 8 L60 11.75 M40 37.15 L40 33 Q40 29 44 29 L52 29 Q56 29 56 33 L56 37.15 Q55.9 41 52 41 L44 41 Q40.1 41 40 37.15 M8 30.15 L8 26 Q8 22 12 22 L20 22 Q24 22 24 26 L24 30.15 Q23.9 34 20 34 L12 34 Q8.1 34 8 30.15"/>
  </g>
</svg>