<svg width="64" height="64" xmlns="http://www.w3.org/2000/svg" xmlns:xlink="http://www.w3.org/1999/xlink">
  <defs/>
  <g>
    <path stroke="none" fill="#353541" d="M34.8 15 Q37.7 14.8 40.45 17.6 L40.45 17.55 46.3 23.35 46.45 23.55 Q50.75 28.35 47.35 33.1 L47.15 33.3 46.1 34.55 34.8 45.85 Q29.25 51.35 23.75 46.15 L23.65 46.05 17.8 40.25 16.7 39 16.65 38.9 Q12.85 33.85 17.85 28.9 L29.15 17.6 Q31.95 14.8 34.8 15 M19.9 36.6 L20.6 37.4 26.45 43.2 Q29.2 45.75 31.95 43 L43.25 31.7 44 30.85 Q45.55 28.55 43.45 26.2 L37.6 20.4 Q34.8 17.55 31.95 20.4 L20.65 31.7 Q18.2 34.15 19.9 36.6"/>
    <path stroke="none" fill="#E8EBEE" d="M19.9 36.6 Q18.2 34.15 20.65 31.7 L31.95 20.4 Q34.8 17.55 37.6 20.4 L43.45 26.2 Q45.55 28.55 44 30.85 L43.45 30.2 37.6 24.4 Q34.8 21.55 31.95 24.4 L20.65 35.7 19.9 36.6"/>
    <path stroke="none" fill="#BBC4CB" d="M19.9 36.6 L20.65 35.7 31.95 24.4 Q34.8 21.55 37.6 24.4 L43.45 30.2 44 30.85 43.25 31.7 31.95 43 Q29.2 45.75 26.45 43.2 L20.6 37.4 19.9 36.6"/>
  </g>
</svg>