<svg width="64" height="64" xmlns="http://www.w3.org/2000/svg" xmlns:xlink="http://www.w3.org/1999/xlink">
  <defs/>
  <g>
    <path stroke="none" fill="#353541" d="M50.65 0 Q56.15 0 60.05 3.85 L60.1 3.9 Q64 7.8 64 13.3 L63.95 14.7 Q63.5 19.3 60.1 22.7 L60.05 22.7 Q56.15 26.6 50.65 26.6 45.2 26.6 41.25 22.7 37.85 19.3 37.45 14.7 L37.35 13.3 Q37.35 7.8 41.2 3.9 L41.3 3.85 Q45.2 0 50.65 0"/>
    <path stroke="none" fill="#353541" d="M32 0 Q37.5 0 41.4 3.85 L41.45 3.9 Q45.3 7.8 45.3 13.3 L45.25 14.7 Q44.8 19.3 41.45 22.7 L41.4 22.7 Q37.5 26.6 32 26.6 26.55 26.6 22.55 22.7 19.15 19.3 18.75 14.7 L18.65 13.3 Q18.65 7.8 22.5 3.9 L22.6 3.85 Q26.55 0 32 0"/>
    <path stroke="none" fill="#353541" d="M13.35 0 Q18.85 0 22.75 3.85 L22.8 3.9 Q26.65 7.8 26.65 13.3 L26.6 14.7 Q26.15 19.3 22.8 22.7 L22.75 22.7 Q18.85 26.6 13.35 26.6 7.9 26.6 3.9 22.7 0.5 19.3 0.1 14.7 L0 13.3 Q0 7.8 3.85 3.9 L3.95 3.85 Q7.9 0 13.35 0"/>
    <path stroke="none" fill="#FA9F72" d="M4.05 14.3 L4 13.3 Q4 9.45 6.7 6.7 9.5 4 13.35 4 17.2 4 19.95 6.7 22.7 9.45 22.7 13.3 L22.65 14.3 Q22.35 11.1 19.95 8.7 17.2 6 13.35 6 9.5 6 6.7 8.7 4.35 11.1 4.05 14.3"/>
    <path stroke="none" fill="#DE7E4F" d="M4.05 14.3 Q4.35 11.1 6.7 8.7 9.5 6 13.35 6 17.2 6 19.95 8.7 22.35 11.1 22.65 14.3 22.35 17.5 19.95 19.85 17.2 22.6 13.35 22.6 9.5 22.6 6.7 19.85 4.35 17.5 4.05 14.3 M17.15 9.55 Q15.55 8 13.35 8 11.15 8 9.55 9.5 L9.5 9.6 Q8 11.15 8 13.3 8 15.45 9.5 17 L9.55 17.05 Q11.15 18.6 13.35 18.6 15.55 18.6 17.15 17.05 L17.15 17 Q18.7 15.45 18.7 13.3 18.7 11.1 17.15 9.55 M13.35 12 Q13.9 12 14.3 12.35 L14.35 12.4 14.7 13.3 Q14.7 13.8 14.35 14.15 L14.3 14.2 Q13.9 14.6 13.4 14.6 12.8 14.6 12.35 14.2 L12.3 14.15 Q12 13.8 12 13.3 12 12.75 12.35 12.4 L12.4 12.35 Q12.8 12 13.35 12"/>
    <path stroke="none" fill="#BD6341" d="M13.35 12 Q12.8 12 12.4 12.35 L12.35 12.4 Q12 12.75 12 13.3 12 13.8 12.3 14.15 L12.35 14.2 Q12.8 14.6 13.4 14.6 13.9 14.6 14.3 14.2 L14.35 14.15 Q14.7 13.8 14.7 13.3 L14.35 12.4 14.3 12.35 Q13.9 12 13.35 12 M17.15 9.55 Q18.7 11.1 18.7 13.3 18.7 15.45 17.15 17 L17.15 17.05 Q15.55 18.6 13.35 18.6 11.15 18.6 9.55 17.05 L9.5 17 Q8 15.45 8 13.3 8 11.15 9.5 9.6 L9.55 9.5 Q11.15 8 13.35 8 15.55 8 17.15 9.55"/>
    <path stroke="none" fill="#FA9F72" d="M22.7 14.3 L22.65 13.3 Q22.65 9.45 25.35 6.7 28.15 4 32 4 35.85 4 38.6 6.7 41.35 9.45 41.35 13.3 L41.3 14.3 Q41 11.1 38.6 8.7 35.85 6 32 6 28.15 6 25.35 8.7 23 11.1 22.7 14.3"/>
    <path stroke="none" fill="#DE7E4F" d="M41.3 14.3 Q41 17.5 38.6 19.85 35.85 22.6 32 22.6 28.15 22.6 25.35 19.85 23 17.5 22.7 14.3 23 11.1 25.35 8.7 28.15 6 32 6 35.85 6 38.6 8.7 41 11.1 41.3 14.3 M35.8 9.55 Q34.2 8 32 8 29.8 8 28.2 9.5 L28.15 9.6 Q26.65 11.15 26.65 13.3 26.65 15.45 28.15 17 L28.2 17.05 Q29.8 18.6 32 18.6 34.2 18.6 35.8 17.05 L35.8 17 Q37.35 15.45 37.35 13.3 37.35 11.1 35.8 9.55 M32 12 Q32.55 12 32.95 12.35 L33 12.4 Q33.35 12.8 33.35 13.3 L33 14.15 32.95 14.2 Q32.55 14.6 32.05 14.6 31.45 14.6 31 14.2 L30.95 14.15 Q30.65 13.8 30.65 13.3 30.65 12.75 31 12.4 L31.05 12.35 Q31.45 12 32 12"/>
    <path stroke="none" fill="#BD6341" d="M32 12 Q31.45 12 31.05 12.35 L31 12.4 Q30.65 12.75 30.65 13.3 30.65 13.8 30.95 14.15 L31 14.2 Q31.45 14.6 32.05 14.6 32.55 14.6 32.95 14.2 L33 14.15 33.35 13.3 Q33.35 12.8 33 12.4 L32.95 12.35 Q32.55 12 32 12 M35.8 9.55 Q37.35 11.1 37.35 13.3 37.35 15.45 35.8 17 L35.8 17.05 Q34.2 18.6 32 18.6 29.8 18.6 28.2 17.05 L28.15 17 Q26.65 15.45 26.65 13.3 26.65 11.15 28.15 9.6 L28.2 9.5 Q29.8 8 32 8 34.2 8 35.8 9.55"/>
    <path stroke="none" fill="#FA9F72" d="M41.4 14.3 L41.35 13.3 Q41.35 9.45 44 6.7 46.8 4 50.65 4 54.5 4 57.25 6.7 60 9.45 60 13.3 L59.95 14.3 Q59.65 11.1 57.25 8.7 54.5 6 50.65 6 46.8 6 44 8.7 41.7 11.1 41.4 14.3"/>
    <path stroke="none" fill="#BD6341" d="M50.65 12 Q50.1 12 49.7 12.35 L49.65 12.4 Q49.3 12.75 49.3 13.3 49.3 13.8 49.6 14.15 L49.65 14.2 Q50.1 14.6 50.7 14.6 51.2 14.6 51.6 14.2 L51.65 14.15 Q52 13.8 52 13.3 52 12.8 51.65 12.4 L51.6 12.35 Q51.2 12 50.65 12 M54.45 9.55 Q56 11.1 56 13.3 56 15.45 54.45 17 L54.45 17.05 Q52.85 18.6 50.65 18.6 48.45 18.6 46.85 17.05 L46.8 17 Q45.3 15.45 45.3 13.3 45.3 11.15 46.8 9.6 L46.85 9.5 Q48.45 8 50.65 8 52.85 8 54.45 9.55"/>
    <path stroke="none" fill="#DE7E4F" d="M54.45 9.55 Q52.85 8 50.65 8 48.45 8 46.85 9.5 L46.8 9.6 Q45.3 11.15 45.3 13.3 45.3 15.45 46.8 17 L46.85 17.05 Q48.45 18.6 50.65 18.6 52.85 18.6 54.45 17.05 L54.45 17 Q56 15.45 56 13.3 56 11.1 54.45 9.55 M59.95 14.3 Q59.65 17.5 57.25 19.85 54.5 22.6 50.65 22.6 46.8 22.6 44 19.85 41.7 17.5 41.4 14.3 41.7 11.1 44 8.7 46.8 6 50.65 6 54.5 6 57.25 8.7 59.65 11.1 59.95 14.3 M50.65 12 Q51.2 12 51.6 12.35 L51.65 12.4 Q52 12.8 52 13.3 52 13.8 51.65 14.15 L51.6 14.2 Q51.2 14.6 50.7 14.6 50.1 14.6 49.65 14.2 L49.6 14.15 Q49.3 13.8 49.3 13.3 49.3 12.75 49.65 12.4 L49.7 12.35 Q50.1 12 50.65 12"/>
  </g>
</svg>