<svg width="64" height="64" xmlns="http://www.w3.org/2000/svg" xmlns:xlink="http://www.w3.org/1999/xlink">
  <defs/>
  <g>
    <path stroke="none" fill="#353541" d="M60 15.5 L60 12 Q60 4 52 4 L12 4 Q4 4 4 12 L4 15.5 4 22.5 Q4.25 30 12 30 L52 30 Q59.75 30 60 22.5 L60 15.5 M53 34 L11.05 34 Q0 33.5 0 22 L0 12 Q0 0 12 0 L52 0 Q64 0 64 12 L64 22 Q64 33.5 53 34"/>
    <path stroke="none" fill="#DE7E4F" d="M60 15.5 L60 22.5 Q59.75 30 52 30 L12 30 Q4.25 30 4 22.5 L4 15.5 Q4.25 8 12 8 L52 8 Q59.75 8 60 15.5"/>
    <path stroke="none" fill="#FA9F72" d="M60 15.5 Q59.75 8 52 8 L12 8 Q4.25 8 4 15.5 L4 12 Q4 4 12 4 L52 4 Q60 4 60 12 L60 15.5"/>
    <path stroke="none" fill="#BD6341" d="M18 18 Q18 19.65 16.8 20.8 15.65 22 14 22 12.35 22 11.15 20.8 10 19.65 10 18 10 16.35 11.15 15.15 12.35 14 14 14 15.65 14 16.8 15.15 18 16.35 18 18"/>
    <path stroke="none" fill="#BD6341" d="M54 18 Q54 19.65 52.8 20.8 51.65 22 50 22 48.35 22 47.15 20.8 46 19.65 46 18 46 16.35 47.15 15.15 48.35 14 50 14 51.65 14 52.8 15.15 54 16.35 54 18"/>
  </g>
</svg>