<svg width="64" height="64" xmlns="http://www.w3.org/2000/svg" xmlns:xlink="http://www.w3.org/1999/xlink">
  <defs>
    <linearGradient gradientUnits="userSpaceOnUse" x1="-819.2" x2="819.2" spreadMethod="pad" gradientTransform="matrix(0.001007080078125 -0.00372314453125 0.003997802734375 0.001068115234375 37 33.7)" id="gradient0">
      <stop offset="0" stop-color="#2CC987"/>
      <stop offset="1" stop-color="#59F0B0"/>
    </linearGradient>
    <linearGradient gradientUnits="userSpaceOnUse" x1="-819.2" x2="819.2" spreadMethod="pad" gradientTransform="matrix(0.0044403076171875 -0.0044403076171875 0.0047454833984375 0.0047454833984375 43.3 37.2)" id="gradient1">
      <stop offset="0" stop-color="#2CC987"/>
      <stop offset="1" stop-color="#59F0B0"/>
    </linearGradient>
    <linearGradient gradientUnits="userSpaceOnUse" x1="-819.2" x2="819.2" spreadMethod="pad" gradientTransform="matrix(-0.00372314453125 0.0009918212890625 -0.001068115234375 -0.003997802734375 10.45 57.6)" id="gradient2">
      <stop offset="0" stop-color="#2CC987"/>
      <stop offset="1" stop-color="#59F0B0"/>
    </linearGradient>
    <linearGradient gradientUnits="userSpaceOnUse" x1="-819.2" x2="819.2" spreadMethod="pad" gradientTransform="matrix(-0.0054168701171875 -0.003143310546875 0.00335693359375 -0.00579833984375 10.45 49.3)" id="gradient3">
      <stop offset="0" stop-color="#2CC987"/>
      <stop offset="1" stop-color="#59F0B0"/>
    </linearGradient>
  </defs>
  <g>
    <path stroke="none" fill="#353541" d="M7.1 64 L2.15 64 Q0 60.45 0 56 0 52.35 1.4 49.35 0.6 46.65 2.05 44.55 L2.1 44.5 Q3.55 41.15 8.65 41.25 L8.7 41.25 Q8.35 40.4 8.5 39.4 8.15 36.7 10.85 35 10.7 32.3 12.5 30.95 14.2 28.75 17.4 29.5 19.35 27.8 21.5 26.6 26.2 24 32 24 37.8 24 42.5 26.6 L45.3 28.45 Q48.3 28.3 50 30.3 L50.05 30.35 Q52.6 32.35 51.85 36.35 L53.15 39.75 53.65 41.8 55.85 42.05 56 42.1 Q58.6 42.6 59.6 45.5 62.25 46 63.1 48.1 64.9 50.7 62.85 53.85 64 56.7 64 60 64 62.1 63.55 64 L59.35 64 Q60 62.15 60 60 60 55 56.45 51.5 53.65 48.7 49.9 48.15 L50 46 Q50 43.3 49.3 40.85 48.05 36.6 44.7 33.25 39.45 28 32 28 24.55 28 19.25 33.25 15.9 36.65 14.7 40.85 14.25 42.45 14.1 44.15 10.35 44.7 7.5 47.5 4 51 4 56 4 60.65 7.1 64"/>
    <path stroke="none" fill="#2CC987" d="M7.1 64 Q4 60.65 4 56 4 51 7.5 47.5 10.35 44.7 14.1 44.15 14.25 42.45 14.7 40.85 15.9 36.65 19.25 33.25 24.55 28 32 28 39.45 28 44.7 33.25 48.05 36.6 49.3 40.85 50 43.3 50 46 L49.9 48.15 Q53.65 48.7 56.45 51.5 60 55 60 60 60 62.15 59.35 64 L7.1 64"/>
    <path stroke="none" fill="url(#gradient0)" d="M38.95 35.35 Q38.65 36.25 37.9 36.65 L36.15 36.95 Q35.25 36.7 34.75 35.85 34.3 35.1 34.55 34.15 35.05 32.3 36 31.1 37 30.15 37.9 30.4 38.8 30.6 39.1 31.95 39.45 33.45 38.95 35.35"/>
    <path stroke="none" fill="#2CC987" d="M53.3 51.7 Q52.5 51.5 52.05 50.75 51.7 50.1 51.95 49.25 52.35 47.65 53.2 46.6 54.05 45.7 54.85 45.9 55.7 46.15 55.95 47.3 L55.9 49.95 Q56.95 49.45 57.9 49.3 59.2 49.35 59.6 50.05 60.05 50.85 59.35 51.85 58.6 52.9 57.1 53.75 L55.6 54 Q54.85 53.85 54.4 53.05 54.05 52.45 54.15 51.75 L53.3 51.7 M18.5 39.4 Q18.5 40.25 17.9 40.85 17.35 41.4 16.5 41.4 14.8 41.4 13.6 40.85 12.5 40.25 12.5 39.4 12.5 38.55 13.6 38 14.65 37.45 16.15 37.4 15.4 36.5 15 35.6 14.7 34.35 15.3 33.75 15.9 33.15 17.05 33.55 18.3 34 19.5 35.2 20.1 35.8 20.1 36.6 20.15 37.4 19.55 38 19.05 38.5 18.35 38.65 L18.5 39.4"/>
    <path stroke="none" fill="url(#gradient1)" d="M44.65 41 Q43.55 42.1 42.1 42 40.55 42.05 39.45 41 38.35 39.9 38.35 38.3 38.35 36.9 39.45 35.8 41.7 33.6 43.95 32.7 46.15 32.1 47.25 33.2 48.35 34.25 47.7 36.4 46.9 38.8 44.65 41"/>
    <path stroke="none" fill="url(#gradient2)" d="M10.95 55.1 L12.6 55.35 Q13.45 55.85 13.75 56.7 13.95 57.6 13.5 58.5 13.05 59.2 12.1 59.5 L8.7 59.75 Q7.4 59.4 7.15 58.45 6.9 57.55 7.9 56.65 9.05 55.6 10.95 55.1"/>
    <path stroke="none" fill="url(#gradient3)" d="M13.8 47 Q15.15 47.75 15.4 49.2 15.85 50.7 15.1 52 14.35 53.35 12.8 53.8 11.45 54.15 10.1 53.4 7.35 51.75 5.95 49.8 4.8 47.85 5.55 46.5 6.3 45.2 8.55 45.25 11.05 45.4 13.8 47"/>
  </g>
</svg>