<svg width="64" height="64" xmlns="http://www.w3.org/2000/svg" xmlns:xlink="http://www.w3.org/1999/xlink">
  <defs>
    <linearGradient gradientUnits="userSpaceOnUse" x1="-819.2" x2="819.2" spreadMethod="pad" gradientTransform="matrix(0.0206756591796875 -0.011932373046875 0.0094451904296875 0.016357421875 41 45.7)" id="gradient0">
      <stop offset="0" stop-color="#1C6944"/>
      <stop offset="1" stop-color="#2CC987"/>
    </linearGradient>
    <linearGradient gradientUnits="userSpaceOnUse" x1="-819.2" x2="819.2" spreadMethod="pad" gradientTransform="matrix(-0.01885986328125 0.0050506591796875 -0.0048828125 -0.01824951171875 29.3 46.85)" id="gradient1">
      <stop offset="0" stop-color="#1C6944"/>
      <stop offset="1" stop-color="#2CC987"/>
    </linearGradient>
  </defs>
  <g>
    <path stroke="none" fill="#353541" d="M44.05 64 L19.95 64 19.4 60.2 Q12.1 59.3 6.65 53.8 L6.7 53.8 6.6 53.7 6.55 53.7 Q0 47.05 0 37.75 L0 32 Q0.1 27.6 3.05 24.6 L3.1 24.6 Q6.2 21.45 10.6 21.45 13.7 21.45 16.2 23.05 L16 16.05 16 16 Q16 9.4 20.75 4.7 25.4 0 32 0 38.6 0 43.3 4.7 47.1 8.5 47.85 13.6 49.35 12.6 51.1 12.25 L51.25 12.25 53.4 12 Q57.85 12 60.95 15.15 L60.9 15.15 Q63.9 18.15 64 22.55 L64 28.3 Q64 37.6 57.45 44.25 L57.35 44.35 Q52.35 49.35 45.85 50.55 L44.05 64"/>
    <path stroke="none" fill="#59F0B0" d="M46.85 24.35 L46.85 22.6 Q46.85 19.85 48.8 17.95 50.2 16.5 52 16.15 L53.4 16 Q56.15 16 58.05 17.95 59.95 19.85 60 22.6 L60 24.6 Q59.95 21.85 58.05 19.95 56.15 18 53.4 18 L52 18.15 Q50.2 18.5 48.8 19.95 46.95 21.75 46.85 24.35"/>
    <path stroke="none" fill="url(#gradient0)" d="M46.85 24.35 Q46.95 21.75 48.8 19.95 50.2 18.5 52 18.15 L53.4 18 Q56.15 18 58.05 19.95 59.95 21.85 60 24.6 L60 28.8 Q59.8 36.15 54.6 41.4 L54.5 41.5 Q49.1 46.95 41.5 46.95 38.8 46.9 36.9 45 35.35 43.4 35.1 41.3 L35 40.3 Q35 37.55 36.9 35.65 L37.4 35.2 Q39.15 33.7 41.5 33.7 43.7 33.65 45.25 32.1 L45.3 32.05 Q46.8 30.5 46.85 28.3 L46.85 24.35"/>
    <path stroke="none" fill="#59F0B0" d="M4 34.05 L4 32.05 Q4.05 29.3 5.9 27.4 7.85 25.45 10.6 25.45 13.3 25.45 15.2 27.4 17.1 29.3 17.1 32.05 L17.1 33.8 Q17 31.2 15.2 29.4 13.3 27.45 10.6 27.45 7.85 27.45 5.9 29.4 4.05 31.3 4 34.05"/>
    <path stroke="none" fill="url(#gradient1)" d="M4 34.05 Q4.05 31.3 5.9 29.4 7.85 27.45 10.6 27.45 13.3 27.45 15.2 29.4 17 31.2 17.1 33.8 L17.1 37.75 Q17.15 39.95 18.7 41.5 L18.75 41.55 Q20.3 43.1 22.45 43.15 25.2 43.15 27.05 45.1 29 47 29 49.75 L28.95 50.75 Q28.65 52.85 27.05 54.45 25.2 56.35 22.45 56.4 14.9 56.4 9.5 50.95 L9.4 50.85 Q4.2 45.6 4 38.25 L4 34.05"/>
    <path stroke="none" fill="#59F0B0" d="M20.05 18.85 L20 16 Q20 11.05 23.55 7.5 27.05 4 32 4 36.95 4 40.45 7.5 44 11.05 44 16 L43.95 18.85 Q43.6 14.65 40.45 11.5 36.95 8 32 8 27.05 8 23.55 11.5 20.4 14.65 20.05 18.85"/>
    <path stroke="none" fill="#2CC987" d="M20.05 18.85 Q20.4 14.65 23.55 11.5 27.05 8 32 8 36.95 8 40.45 11.5 43.6 14.65 43.95 18.85 43.45 42.5 40 64 L24 64 Q20.55 42.5 20.05 18.85"/>
  </g>
</svg>