<svg width="64" height="64" xmlns="http://www.w3.org/2000/svg" xmlns:xlink="http://www.w3.org/1999/xlink">
  <defs/>
  <g>
    <path stroke="none" fill="#E8EBEE" d="M38 2.15 L38 4 Q38 6.5 36.25 8.25 34.5 10 32 10 29.5 10 27.75 8.25 26 6.5 26 4 L26 2.15 Q26.05 4.55 27.75 6.25 29.5 8 32 8 34.5 8 36.25 6.25 37.95 4.55 38 2.15 M18 63.5 L18 62 Q18 56.2 22.1 52.1 26.2 48 32 48 37.8 48 41.9 52.1 46 56.2 46 62 L46 63.5 Q45.8 58 41.9 54.1 37.8 50 32 50 26.2 50 22.1 54.1 18.2 58 18 63.5"/>
    <path stroke="none" fill="#BBC4CB" d="M18 63.5 Q18.2 58 22.1 54.1 26.2 50 32 50 37.8 50 41.9 54.1 45.8 58 46 63.5 L46 64 38 64 38 62 Q38 59.5 36.25 57.75 34.5 56 32 56 29.5 56 27.75 57.75 26 59.5 26 62 L26 64 18 64 18 63.5 M26 2.15 L26 4 Q26 6.5 27.75 8.25 29.5 10 32 10 34.5 10 36.25 8.25 38 6.5 38 4 L38 2.15 38 0 46 0 46 2.5 Q45.8 8 41.9 11.9 37.8 16 32 16 26.2 16 22.1 11.9 18.2 8 18 2.5 L18 0 26 0 26 2.15"/>
    <path stroke="none" fill="#353541" d="M26 2.15 L26 0 38 0 38 2.15 Q37.95 4.55 36.25 6.25 34.5 8 32 8 29.5 8 27.75 6.25 26.05 4.55 26 2.15 M18 0 L18 2.5 Q18.2 8 22.1 11.9 26.2 16 32 16 37.8 16 41.9 11.9 45.8 8 46 2.5 L46 0 50 0 50 2 Q50 9.45 44.75 14.75 L43.35 16 44.75 17.3 Q50 22.55 50 30 L50 34 Q50 41.45 44.75 46.75 L43.35 48 44.75 49.3 Q50 54.55 50 62 L50 64 46 64 46 63.5 46 62 Q46 56.2 41.9 52.1 37.8 48 32 48 26.2 48 22.1 52.1 18 56.2 18 62 L18 63.5 18 64 14 64 14 62 Q14 54.55 19.3 49.3 L20.7 48 19.3 46.75 Q14 41.45 14 34 L14 30 Q14 22.55 19.3 17.3 L20.7 16 19.3 14.75 Q14 9.45 14 2 L14 0 18 0 M38 64 L26 64 26 62 Q26 59.5 27.75 57.75 29.5 56 32 56 34.5 56 36.25 57.75 38 59.5 38 62 L38 64"/>
    <path stroke="none" fill="#BBC4CB" d="M18 31.5 Q18.2 26 22.1 22.1 26.2 18 32 18 37.8 18 41.9 22.1 45.8 26 46 31.5 L46 34.5 Q45.8 40 41.9 43.9 37.8 48 32 48 26.2 48 22.1 43.9 18.2 40 18 34.5 L18 31.5 M38 34.15 L38 30 Q38 27.5 36.25 25.75 34.5 24 32 24 29.5 24 27.75 25.75 26 27.5 26 30 L26 34.15 26 36 Q26 38.5 27.75 40.25 29.5 42 32 42 34.5 42 36.25 40.25 38 38.5 38 36 L38 34.15"/>
    <path stroke="none" fill="#E8EBEE" d="M38 34.15 L38 36 Q38 38.5 36.25 40.25 34.5 42 32 42 29.5 42 27.75 40.25 26 38.5 26 36 L26 34.15 Q26.05 36.55 27.75 38.25 29.5 40 32 40 34.5 40 36.25 38.25 37.95 36.55 38 34.15 M18 31.5 L18 30 Q18 24.2 22.1 20.1 26.2 16 32 16 37.8 16 41.9 20.1 46 24.2 46 30 L46 31.5 Q45.8 26 41.9 22.1 37.8 18 32 18 26.2 18 22.1 22.1 18.2 26 18 31.5"/>
    <path stroke="none" fill="#767D83" d="M32 4 Q30.35 4 29.15 5.15 28 6.35 28 8 L28 24 Q28 25.65 29.15 26.8 30.35 28 32 28 33.65 28 34.8 26.8 36 25.65 36 24 L36 8 Q36 6.35 34.8 5.15 33.65 4 32 4 M32 1 Q34.9 1 36.95 3.05 39 5.1 39 8 L39 24 Q39 26.85 37 28.9 L36.9 29 Q34.85 31 32 31 29.1 31 27.05 28.95 25 26.9 25 24 L25 8 Q25 5.15 27 3.1 L27.1 3 Q29.15 1 32 1 M32 36 Q30.35 36 29.15 37.15 28 38.35 28 40 L28 56 Q28 57.65 29.15 58.8 30.35 60 32 60 33.65 60 34.8 58.8 36 57.65 36 56 L36 40 Q36 38.35 34.8 37.15 33.65 36 32 36 M27.05 60.95 Q25 58.9 25 56 L25 40 Q25 37.15 27 35.1 L27.1 35 Q29.15 33 32 33 34.9 33 36.95 35.05 39 37.1 39 40 L39 56 Q39 58.85 37 60.9 L36.9 61 Q34.85 63 32 63 29.1 63 27.05 60.95"/>
    <path stroke="none" fill="#BBC4CB" d="M32 4 Q33.65 4 34.8 5.15 36 6.35 36 8 L36 24 Q36 25.65 34.8 26.8 33.65 28 32 28 30.35 28 29.15 26.8 28 25.65 28 24 L28 8 Q28 6.35 29.15 5.15 30.35 4 32 4 M32 36 Q33.65 36 34.8 37.15 36 38.35 36 40 L36 56 Q36 57.65 34.8 58.8 33.65 60 32 60 30.35 60 29.15 58.8 28 57.65 28 56 L28 40 Q28 38.35 29.15 37.15 30.35 36 32 36"/>
  </g>
</svg>