<svg width="64" height="64" xmlns="http://www.w3.org/2000/svg" xmlns:xlink="http://www.w3.org/1999/xlink">
  <defs/>
  <g>
    <path stroke="none" fill="#353541" d="M36 24 L36 20 Q36 18.35 34.8 17.15 33.65 16 32 16 30.35 16 29.15 17.15 28 18.35 28 20 L28 24 28 40 28 44 Q28 45.65 29.15 46.8 30.35 48 32 48 33.65 48 34.8 46.8 36 45.65 36 44 L36 40 36 24 M32 12 Q35.3 12 37.65 14.35 40 16.7 40 20 L40 44 Q40 47.25 37.7 49.6 L37.6 49.7 Q35.25 52 32 52 28.7 52 26.35 49.65 24 47.3 24 44 L24 20 Q24 16.75 26.25 14.4 L26.4 14.25 Q28.75 12 32 12"/>
    <path stroke="none" fill="#D6DCE0" d="M28 24 L28 20 Q28 18.35 29.15 17.15 30.35 16 32 16 33.65 16 34.8 17.15 36 18.35 36 20 L36 24 28 24"/>
    <path stroke="none" fill="#C8D0D5" d="M28 24 L36 24 36 40 28 40 28 24"/>
    <path stroke="none" fill="#A8B2BB" d="M36 40 L36 44 Q36 45.65 34.8 46.8 33.65 48 32 48 30.35 48 29.15 46.8 28 45.65 28 44 L28 40 36 40"/>
  </g>
</svg>