<svg width="64" height="64" xmlns="http://www.w3.org/2000/svg" xmlns:xlink="http://www.w3.org/1999/xlink">
  <defs>
    <linearGradient gradientUnits="userSpaceOnUse" x1="-819.2" x2="819.2" spreadMethod="pad" gradientTransform="matrix(0 0.03900146484375 -0.01959228515625 0 31.65 32.05)" id="gradient0">
      <stop offset="0" stop-color="#D6DCE0"/>
      <stop offset="1" stop-color="#BBC4CB"/>
    </linearGradient>
    <linearGradient gradientUnits="userSpaceOnUse" x1="-819.2" x2="819.2" spreadMethod="pad" gradientTransform="matrix(0 -0.0054931640625 0.011749267578125 0 34.3 27.25)" id="gradient1">
      <stop offset="0" stop-color="#A8B2BB"/>
      <stop offset="1" stop-color="#919EAA"/>
    </linearGradient>
  </defs>
  <g>
    <path stroke="none" fill="#353541" d="M50.3 26.7 L50.3 37.35 Q50.3 39.9 49 42.1 47.8 44.2 45.65 45.5 L45.6 45.55 Q40.6 51.2 36.3 50.9 34.15 52.1 31.7 52.1 29.2 52.1 27.05 50.9 L17.7 45.55 17.65 45.5 Q15.45 44.15 14.25 42 L14.35 42.1 Q13 39.9 13 37.35 L13 26.7 Q13 24.15 14.35 21.95 L14.25 22.05 Q15.45 19.85 17.75 18.55 L27.05 13.2 Q29.2 12 31.65 12 34.1 12 36.35 13.3 L45.55 18.55 45.6 18.6 Q47.8 19.85 49.05 22.05 L49 21.95 Q50.3 24.15 50.3 26.7 M19.75 22 Q18.45 22.75 17.75 24 17 25.25 17 26.7 L17 37.35 Q17 38.8 17.75 40.05 18.45 41.3 19.7 42.05 L29 47.4 Q30.25 48.1 31.7 48.1 33.1 48.1 34.35 47.4 L43.6 42.05 Q44.85 41.3 45.55 40.05 46.3 38.8 46.3 37.35 L46.3 26.7 Q46.3 25.25 45.55 24 44.85 22.75 43.6 22.05 L34.35 16.75 Q33.05 16 31.65 16 30.25 16 29 16.7 L19.75 22"/>
    <path stroke="none" fill="url(#gradient0)" d="M19.75 22 L29 16.7 Q30.25 16 31.65 16 33.05 16 34.35 16.75 L43.6 22.05 Q44.85 22.75 45.55 24 46.3 25.25 46.3 26.7 L46.3 37.35 Q46.3 38.8 45.55 40.05 44.85 41.3 43.6 42.05 L34.35 47.4 Q33.1 48.1 31.7 48.1 30.25 48.1 29 47.4 L19.7 42.05 Q18.45 41.3 17.75 40.05 17 38.8 17 37.35 L17 26.7 Q17 25.25 17.75 24 18.45 22.75 19.75 22 M30.7 41.45 L31.7 41.7 32.7 41.45 39.3 37.6 40.05 36.9 40.3 35.9 40.3 28.25 40.05 27.25 39.3 26.55 32.65 22.7 31.65 22.45 30.65 22.7 24 26.5 23.3 27.25 Q23 27.7 23 28.25 L23 35.9 Q23 36.4 23.3 36.9 L24 37.6 30.7 41.45"/>
    <path stroke="none" fill="url(#gradient1)" d="M30.7 41.45 L24 37.6 23.3 36.9 Q23 36.4 23 35.9 L23 28.25 Q23 27.7 23.3 27.25 L24 26.5 30.65 22.7 31.65 22.45 32.65 22.7 39.3 26.55 40.05 27.25 40.3 28.25 40.3 35.9 40.05 36.9 39.3 37.6 32.7 41.45 31.7 41.7 30.7 41.45 M31.65 28.05 Q30.85 28.05 30.25 28.65 29.65 29.25 29.65 30.05 L29.65 34.05 Q29.65 34.9 30.25 35.45 30.85 36.05 31.65 36.05 32.5 36.05 33.05 35.45 33.65 34.9 33.65 34.05 L33.65 30.05 Q33.65 29.25 33.05 28.65 32.5 28.05 31.65 28.05"/>
    <path stroke="none" fill="#C8D0D5" d="M31.65 28.05 Q32.5 28.05 33.05 28.65 33.65 29.25 33.65 30.05 L33.65 34.05 Q33.65 34.9 33.05 35.45 32.5 36.05 31.65 36.05 30.85 36.05 30.25 35.45 29.65 34.9 29.65 34.05 L29.65 30.05 Q29.65 29.25 30.25 28.65 30.85 28.05 31.65 28.05"/>
  </g>
</svg>