<svg width="64" height="64" xmlns="http://www.w3.org/2000/svg" xmlns:xlink="http://www.w3.org/1999/xlink">
  <defs/>
  <g>
    <path stroke="none" fill="#BBC4CB" d="M4 11.75 Q4.15 8 8 8 L56 8 Q59.85 8 60 11.75 L60 56.4 Q59.8 60 56 60 L8 60 Q4.2 60 4 56.4 L4 11.75 M52 16 L52 12 12 12 12 16 12 52 52 52 52 16"/>
    <path stroke="none" fill="#353541" d="M52 16 L12 16 12 12 52 12 52 16 M0 56.5 L0 8 Q0 0 8 0 L56 0 Q64 0 64 8 L64 56.5 Q63.75 63.85 56.35 64 L7.65 64 Q0.25 63.85 0 56.5 M60 11.75 L60 8 Q60 4 56 4 L8 4 Q4 4 4 8 L4 11.75 4 56.4 Q4.2 60 8 60 L56 60 Q59.8 60 60 56.4 L60 11.75"/>
    <path stroke="none" fill="#E8EBEE" d="M60 11.75 Q59.85 8 56 8 L8 8 Q4.15 8 4 11.75 L4 8 Q4 4 8 4 L56 4 Q60 4 60 8 L60 11.75"/>
    <path stroke="none" fill="#474758" d="M52 16 L52 52 12 52 12 16 52 16"/>
    <path stroke="none" fill="#353541" d="M44 32 Q44 34.9 41.95 36.95 L33.95 44.95 Q31.9 47 29 47 26.1 47 24.05 44.95 22 42.9 22 40 22 37.1 24.05 35.05 L27.1 32 24.05 28.95 Q22 26.9 22 24 22 21.1 24.05 19.05 26.1 17 29 17 31.9 17 33.95 19.05 L41.95 27.05 Q44 29.1 44 32"/>
    <path stroke="none" fill="#FE9632" d="M39.85 29.2 Q41 30.35 41 32 41 33.65 39.85 34.85 L31.85 42.85 Q30.65 44 29 44 27.35 44 26.2 42.85 25 41.65 25 40 25 38.35 26.2 37.2 L31.35 32 26.2 26.85 Q25 25.65 25 24 25 22.35 26.2 21.2 27.35 20 29 20 30.65 20 31.85 21.2 L39.85 29.2"/>
  </g>
</svg>