<svg width="64" height="64" xmlns="http://www.w3.org/2000/svg" xmlns:xlink="http://www.w3.org/1999/xlink">
  <defs/>
  <g>
    <path stroke="none" fill="#DE7E4F" d="M50 0 L50 64 14 64 14 0 50 0 M44 10 L44 6 20 6 20 10 20 58 44 58 44 10"/>
    <path stroke="none" fill="#9F5438" d="M44 10 L20 10 20 6 44 6 44 10"/>
    <path stroke="none" fill="#353541" d="M60 64 L60 0 64 0 64 64 60 64 M4 0 L4 64 0 64 0 0 4 0"/>
    <path stroke="none" fill="#BBC4CB" d="M4 0 L14 0 14 64 4 64 4 0 M50 0 L60 0 60 64 50 64 50 0"/>
    <path stroke="none" fill="#BD6341" d="M44 10 L44 58 20 58 20 10 44 10"/>
    <path stroke="none" fill="#353541" d="M24.1 26 Q23.85 25.05 23.85 24 23.85 20.7 26.2 18.35 28.55 16 31.85 16 35.15 16 37.5 18.35 39.85 20.7 39.85 24 L39.65 26 Q39.1 23.95 37.5 22.35 35.15 20 31.85 20 28.55 20 26.2 22.35 24.6 23.95 24.1 26"/>
    <path stroke="none" fill="#474758" d="M24.1 26 Q24.6 23.95 26.2 22.35 28.55 20 31.85 20 35.15 20 37.5 22.35 39.1 23.95 39.65 26 39.1 28.05 37.5 29.65 L35.85 30.95 35.85 36.1 Q35.8 37.7 34.65 38.8 33.5 40 31.85 40 30.2 40 29 38.8 27.9 37.7 27.85 36.1 L27.85 30.95 26.2 29.65 Q24.6 28.05 24.1 26"/>
  </g>
</svg>