<svg width="64" height="64" xmlns="http://www.w3.org/2000/svg" xmlns:xlink="http://www.w3.org/1999/xlink">
  <defs/>
  <g>
    <path stroke="none" fill="#353541" d="M60 35.3 L60 31.3 Q59.75 20.15 51.8 12.2 48.2 8.6 44 6.6 38.55 4 32 4 25.45 4 20 6.6 15.8 8.6 12.2 12.2 8.5 15.9 6.45 20.35 4.15 25.35 4 31.3 L4 35.3 4 64 0 64 0 31.3 0 31.2 Q0.2 24.4 2.85 18.7 5.15 13.6 9.4 9.4 13.5 5.25 18.3 3 24.5 0 32 0 39.5 0 45.75 3 50.5 5.25 54.65 9.4 63.7 18.45 64 31.2 L64 31.3 64 64 60 64 60 35.3"/>
    <path stroke="none" fill="#E8EBEE" d="M60 35.3 Q59.75 24.15 51.8 16.2 48.2 12.6 44 10.6 38.55 8 32 8 25.45 8 20 10.6 15.8 12.6 12.2 16.2 8.5 19.9 6.45 24.35 4.15 29.35 4 35.3 L4 31.3 Q4.15 25.35 6.45 20.35 8.5 15.9 12.2 12.2 15.8 8.6 20 6.6 25.45 4 32 4 38.55 4 44 6.6 48.2 8.6 51.8 12.2 59.75 20.15 60 31.3 L60 35.3"/>
    <path stroke="none" fill="#BBC4CB" d="M60 35.3 L60 64 50 64 50 35.4 50 31.65 Q49.9 24.5 44.8 19.3 L44.75 19.25 44.7 19.25 Q42.6 17.15 40.15 15.9 L39.3 15.5 Q35.9 14 32 14 28.1 14 24.75 15.5 24.3 15.55 23.9 15.9 21.55 17.1 19.6 19 L19.25 19.3 Q14.1 24.5 14 31.65 L14 35.4 14 64 4 64 4 35.3 Q4.15 29.35 6.45 24.35 8.5 19.9 12.2 16.2 15.8 12.6 20 10.6 25.45 8 32 8 38.55 8 44 10.6 48.2 12.6 51.8 16.2 59.75 24.15 60 35.3"/>
    <path stroke="none" fill="#BD6341" d="M14 35.4 L14 31.65 Q14.1 24.5 19.25 19.3 L19.6 19 Q21.55 17.1 23.9 15.9 24.3 15.55 24.75 15.5 28.1 14 32 14 35.9 14 39.3 15.5 L40.15 15.9 Q42.6 17.15 44.7 19.25 L44.75 19.25 44.8 19.3 Q49.9 24.5 50 31.65 L50 35.4 Q49.8 28.4 44.8 23.3 L44.75 23.25 44.7 23.25 Q42.6 21.15 40.15 19.9 L39.3 19.5 Q35.9 18 32 18 28.1 18 24.75 19.5 24.3 19.55 23.9 19.9 21.55 21.1 19.6 23 L19.25 23.3 Q14.2 28.4 14 35.4 M44 35.65 L44 58 20 58 20 35.75 Q20.1 30.95 23.5 27.55 L23.65 27.4 23.75 27.3 Q25.05 26.05 26.6 25.25 L26.95 25.05 27.15 25 Q29.4 24 32 24 34.6 24 36.85 25 L37.1 25.1 37.4 25.25 Q39.05 26.1 40.5 27.55 43.85 30.95 44 35.65"/>
    <path stroke="none" fill="#DE7E4F" d="M44 35.65 L44 31.65 Q43.85 26.95 40.5 23.55 39.05 22.1 37.4 21.25 L37.1 21.1 36.85 21 Q34.6 20 32 20 29.4 20 27.15 21 L26.95 21.05 26.6 21.25 Q25.05 22.05 23.75 23.3 L23.65 23.4 23.5 23.55 Q20.1 26.95 20 31.75 L20 35.75 20 58 44 58 44 35.65 M50 35.4 L50 64 14 64 14 35.4 Q14.2 28.4 19.25 23.3 L19.6 23 Q21.55 21.1 23.9 19.9 24.3 19.55 24.75 19.5 28.1 18 32 18 35.9 18 39.3 19.5 L40.15 19.9 Q42.6 21.15 44.7 23.25 L44.75 23.25 44.8 23.3 Q49.8 28.4 50 35.4"/>
    <path stroke="none" fill="#9F5438" d="M20 35.75 L20 31.75 Q20.1 26.95 23.5 23.55 L23.65 23.4 23.75 23.3 Q25.05 22.05 26.6 21.25 L26.95 21.05 27.15 21 Q29.4 20 32 20 34.6 20 36.85 21 L37.1 21.1 37.4 21.25 Q39.05 22.1 40.5 23.55 43.85 26.95 44 31.65 L44 35.65 Q43.85 30.95 40.5 27.55 39.05 26.1 37.4 25.25 L37.1 25.1 36.85 25 Q34.6 24 32 24 29.4 24 27.15 25 L26.95 25.05 26.6 25.25 Q25.05 26.05 23.75 27.3 L23.65 27.4 23.5 27.55 Q20.1 30.95 20 35.75"/>
  </g>
</svg>