<svg width="64" height="64" xmlns="http://www.w3.org/2000/svg" xmlns:xlink="http://www.w3.org/1999/xlink">
  <defs/>
  <g>
    <path stroke="none" fill="#353541" d="M4 64 L0 64 0 28.85 Q0.05 26.3 1.8 24.65 L7.65 18.75 7.8 18.65 Q9.45 16.9 12 16.85 14.5 16.85 16.3 18.65 L22.3 24.65 Q23.7 26 23.95 28 L40.05 28 Q40.35 26 41.8 24.65 L47.8 18.65 Q48.7 17.6 50.1 17.15 L52 16.85 53.95 17.15 Q55.25 17.6 56.3 18.65 L62.3 24.65 Q64 26.25 64 28.85 L64 64 60 64 60 32.6 60 28.85 Q60 28 59.45 27.45 L53.45 21.45 52.65 20.95 52 20.85 51.35 20.95 Q50.9 21.1 50.6 21.45 L44.6 27.45 Q44 28 44 28.85 L44 32 40 32 24 32 20 32 20 28.85 Q20 28 19.45 27.45 L13.45 21.45 Q12.85 20.85 12 20.85 11.15 20.85 10.6 21.45 L4.6 27.45 Q4 28 4 28.85 L4 32.6 4 64 M44 64 L20 64 20 58.4 23 59.2 36.5 62.85 37.9 62.7 38.85 61.7 Q39.15 60.95 38.9 60.25 L37.8 57 40.4 54.7 41.05 53.45 Q41.15 52.7 40.75 52.1 40.3 51.45 39.6 51.3 L24 47.1 20 46 20 44 24 44 40 44 44 44 44 64"/>
    <path stroke="none" fill="#FA9F72" d="M4 32.6 L4 28.85 Q4 28 4.6 27.45 L10.6 21.45 Q11.15 20.85 12 20.85 12.85 20.85 13.45 21.45 L19.45 27.45 Q20 28 20 28.85 L20 32 20 32.6 Q20 32 19.45 31.45 L13.45 25.45 Q12.85 24.85 12 24.85 11.15 24.85 10.6 25.45 L4.6 31.45 Q4 32 4 32.6 M44 32 L44 28.85 Q44 28 44.6 27.45 L50.6 21.45 Q50.9 21.1 51.35 20.95 L52 20.85 52.65 20.95 53.45 21.45 59.45 27.45 Q60 28 60 28.85 L60 32.6 Q60 32 59.45 31.45 L53.45 25.45 52.65 24.95 52 24.85 51.35 24.95 Q50.9 25.1 50.6 25.45 L44.6 31.45 Q44 32 44 32.6 L44 32"/>
    <path stroke="none" fill="#DE7E4F" d="M60 64 L44 64 44 44 44 32.6 Q44 32 44.6 31.45 L50.6 25.45 Q50.9 25.1 51.35 24.95 L52 24.85 52.65 24.95 53.45 25.45 59.45 31.45 Q60 32 60 32.6 L60 64 M20 64 L4 64 4 32.6 Q4 32 4.6 31.45 L10.6 25.45 Q11.15 24.85 12 24.85 12.85 24.85 13.45 25.45 L19.45 31.45 Q20 32 20 32.6 L20 44 20 46 20 58.4 20 64"/>
    <path stroke="none" fill="#9F5438" d="M20 32 L24 32 24 44 20 44 20 32.6 20 32 M40 32 L44 32 44 32.6 44 44 40 44 40 32 M20 46 L24 47.1 24 59.45 23 59.2 20 58.4 20 46"/>
    <path stroke="none" fill="#BD6341" d="M24 32 L40 32 40 44 24 44 24 32 M24 47.1 L39.6 51.3 Q40.3 51.45 40.75 52.1 41.15 52.7 41.05 53.45 L40.4 54.7 37.8 57 38.9 60.25 Q39.15 60.95 38.85 61.7 L37.9 62.7 36.5 62.85 23 59.2 24 59.45 24 47.1"/>
  </g>
</svg>