<svg width="64" height="64" xmlns="http://www.w3.org/2000/svg" xmlns:xlink="http://www.w3.org/1999/xlink">
  <defs>
    <linearGradient gradientUnits="userSpaceOnUse" x1="-819.2" x2="819.2" spreadMethod="pad" gradientTransform="matrix(0.0101776123046875 0.00775146484375 -0.009613037109375 0.012603759765625 31.3 35.6)" id="gradient0">
      <stop offset="0" stop-color="#FF9935"/>
      <stop offset="0.48627450980392156" stop-color="#FA7F20"/>
      <stop offset="1" stop-color="#D9673B"/>
    </linearGradient>
  </defs>
  <g>
    <path stroke="none" fill="#353541" d="M44.85 21.45 Q47.05 25.45 45.8 29.75 L45.8 29.7 44.6 32.65 Q45.05 32.9 45.5 33.3 L46.8 34.55 Q47.6 35.3 47.9 36.4 48.15 37.45 47.85 38.55 46.35 43.6 42.05 46.35 L42 46.35 Q39.2 48.1 35.75 48.7 L35.6 48.7 28.45 48.5 28.3 48.45 Q24.7 47.4 21.95 44.9 19.35 42.6 17.8 39.4 L17.75 39.4 Q15.85 35.55 16 31.25 16.05 28.4 16.95 26 L16.95 25.95 Q18.3 22.1 21.3 19.35 L21.35 19.3 Q24.7 16.25 27.95 15.65 L28 15.65 Q34.7 14.15 38.85 16.05 42.9 17.65 44.85 21.45 M37.3 19.75 Q34.05 18.4 28.8 19.55 26.45 20.05 24 22.25 21.75 24.35 20.7 27.3 20.05 29.15 20 31.35 19.9 34.65 21.35 37.6 22.6 40.1 24.6 41.9 26.7 43.8 29.4 44.6 L34.95 44.75 Q37.7 44.3 39.9 42.95 42.95 41 44 37.4 L42.7 36.15 41.65 36.85 Q40.1 38.15 38.5 36.7 36.85 35.1 39 33.3 41.15 31.4 41.95 28.6 42.75 25.85 41.3 23.3 40 20.8 37.3 19.75"/>
    <path stroke="none" fill="url(#gradient0)" d="M37.3 19.75 Q40 20.8 41.3 23.3 42.75 25.85 41.95 28.6 41.15 31.4 39 33.3 36.85 35.1 38.5 36.7 40.1 38.15 41.65 36.85 L42.7 36.15 44 37.4 Q42.95 41 39.9 42.95 37.7 44.3 34.95 44.75 L29.4 44.6 Q26.7 43.8 24.6 41.9 22.6 40.1 21.35 37.6 19.9 34.65 20 31.35 20.05 29.15 20.7 27.3 21.75 24.35 24 22.25 26.45 20.05 28.8 19.55 34.05 18.4 37.3 19.75 M28.55 33.75 Q27.55 33.15 26.55 33.25 25.65 33.35 25.15 34.1 24.6 35.05 24.85 36.15 25.15 37.25 26.2 37.85 27.2 38.45 28.25 38.1 29.4 37.8 29.95 36.85 30.4 36.1 29.9 35.2 29.55 34.3 28.55 33.75 M37.4 27.7 Q37.4 25.65 35.95 24.2 34.55 22.8 32.5 22.8 30.45 22.8 29 24.2 27.6 25.65 27.6 27.7 27.6 29.8 29 31.2 30.45 32.65 32.5 32.65 34.55 32.65 35.95 31.2 37.4 29.8 37.4 27.7"/>
    <path stroke="none" fill="#FF9935" d="M37.4 27.7 Q37.4 29.8 35.95 31.2 34.55 32.65 32.5 32.65 30.45 32.65 29 31.2 27.6 29.8 27.6 27.7 27.6 25.65 29 24.2 30.45 22.8 32.5 22.8 34.55 22.8 35.95 24.2 37.4 25.65 37.4 27.7 M28.55 33.75 Q29.55 34.3 29.9 35.2 30.4 36.1 29.95 36.85 29.4 37.8 28.25 38.1 27.2 38.45 26.2 37.85 25.15 37.25 24.85 36.15 24.6 35.05 25.15 34.1 25.65 33.35 26.55 33.25 27.55 33.15 28.55 33.75"/>
  </g>
</svg>