<svg width="64" height="64" xmlns="http://www.w3.org/2000/svg" xmlns:xlink="http://www.w3.org/1999/xlink">
  <defs>
    <linearGradient gradientUnits="userSpaceOnUse" x1="-819.2" x2="819.2" spreadMethod="pad" gradientTransform="matrix(0.0146484375 0 0 0.0048828125 16 20)" id="gradient0">
      <stop offset="0" stop-color="#FABA2D"/>
      <stop offset="1" stop-color="#E28F2B"/>
    </linearGradient>
    <linearGradient gradientUnits="userSpaceOnUse" x1="-819.2" x2="819.2" spreadMethod="pad" gradientTransform="matrix(0.0146484375 0 0 0.0048828125 16 36)" id="gradient1">
      <stop offset="0" stop-color="#FABA2D"/>
      <stop offset="1" stop-color="#E28F2B"/>
    </linearGradient>
  </defs>
  <g>
    <path stroke="none" fill="#353541" d="M62.5 13.55 Q64 15.65 64 18.15 L64 44.6 Q64 47 62.7 49 L62.65 49.1 Q61.25 51.05 59.2 51.95 52.5 54.85 45.3 53.55 L45.25 53.55 42.85 52.95 43 53 Q39.9 52.15 36.8 50.5 L36.1 50.2 36 50.1 Q33.6 48.85 31.2 48.3 L31.25 48.35 29.6 48.05 Q26.1 47.65 22.4 48.75 L22.3 48.8 20 49.15 20 64 0 64 0 10 Q0 5.85 2.95 2.95 5.85 0 10 0 14.15 0 17.1 2.95 18.6 4.45 19.35 6.35 25.05 4.55 30.45 5.2 L30.6 5.2 32.8 5.6 32.85 5.6 Q36.35 6.35 39.8 8.15 L39.9 8.2 40.05 8.25 Q42.6 9.65 45.1 10.35 L45.15 10.4 46.6 10.7 46.75 10.75 53.85 10.45 53.8 10.45 58.7 10.65 Q61 11.5 62.45 13.45 L62.5 13.55"/>
    <path stroke="none" fill="#EE9366" d="M4 13.9 L4 10 Q4 7.5 5.75 5.75 7.5 4 10 4 12.5 4 14.25 5.75 16 7.5 16 10 L16 13.9 Q15.95 11.45 14.25 9.75 12.5 8 10 8 7.5 8 5.75 9.75 4.05 11.45 4 13.9"/>
    <path stroke="none" fill="#DE7E4F" d="M4 13.9 Q4.05 11.45 5.75 9.75 7.5 8 10 8 12.5 8 14.25 9.75 15.95 11.45 16 13.9 L16 64 4 64 4 13.9"/>
    <path stroke="none" fill="#FABA2D" d="M20 10.4 Q25 8.7 29.75 9.15 L30 9.15 32 9.5 Q35.05 10.15 38 11.7 L38.1 11.75 Q41.1 13.4 44 14.2 L46 14.65 51.75 14.9 54.9 14.3 57.3 14.4 57.75 14.6 Q58.65 15.05 59.25 15.85 60 16.9 60 18.15 L60 44.6 Q60 45.8 59.35 46.8 58.65 47.8 57.6 48.25 54.7 49.5 51.7 49.85 L46 49.6 44 49.1 Q41.2 48.35 38.3 46.8 L38 46.65 Q35.05 45.05 32 44.4 L30 44.05 29.85 44.05 Q26.1 43.65 22.15 44.7 L21.15 44.95 20 45.15 20 10.4"/>
    <path stroke="none" fill="#E28F2B" d="M20 10.4 L20 45.15 18.7 44.9 Q17.5 44.5 16.75 43.45 16 42.45 16 41.15 L16 14.6 Q16 13.4 16.7 12.35 17.4 11.35 18.55 10.9 L20 10.4"/>
    <path stroke="none" fill="url(#gradient0)" d="M4 16 L16 16 16 24 4 24 4 16"/>
    <path stroke="none" fill="url(#gradient1)" d="M4 32 L16 32 16 40 4 40 4 32"/>
  </g>
</svg>