<svg width="64" height="64" xmlns="http://www.w3.org/2000/svg" xmlns:xlink="http://www.w3.org/1999/xlink">
  <defs/>
  <g>
    <path stroke="none" fill="#353541" d="M4 64 L0 64 0 10 Q0 5.85 2.95 2.95 5.85 0 10 0 14.15 0 17.1 2.95 20 5.85 20 10 L20 64 16 64 16 13.9 16 10 Q16 7.5 14.25 5.75 12.5 4 10 4 7.5 4 5.75 5.75 4 7.5 4 10 L4 13.9 4 64"/>
    <path stroke="none" fill="#EE9366" d="M4 13.9 L4 10 Q4 7.5 5.75 5.75 7.5 4 10 4 12.5 4 14.25 5.75 16 7.5 16 10 L16 13.9 Q15.95 11.45 14.25 9.75 12.5 8 10 8 7.5 8 5.75 9.75 4.05 11.45 4 13.9"/>
    <path stroke="none" fill="#DE7E4F" d="M4 13.9 Q4.05 11.45 5.75 9.75 7.5 8 10 8 12.5 8 14.25 9.75 15.95 11.45 16 13.9 L16 64 4 64 4 13.9"/>
  </g>
</svg>