<svg width="64" height="64" xmlns="http://www.w3.org/2000/svg" xmlns:xlink="http://www.w3.org/1999/xlink">
  <defs>
    <linearGradient gradientUnits="userSpaceOnUse" x1="-819.2" x2="819.2" spreadMethod="pad" gradientTransform="matrix(0 0.01220703125 -0.0073089599609375 0 40 24)" id="gradient0">
      <stop offset="0" stop-color="#59F0B0"/>
      <stop offset="1" stop-color="#2CC987"/>
    </linearGradient>
    <linearGradient gradientUnits="userSpaceOnUse" x1="-819.2" x2="819.2" spreadMethod="pad" gradientTransform="matrix(0 0.0152587890625 -0.0091552734375 0 24 37.5)" id="gradient1">
      <stop offset="0" stop-color="#2CC987"/>
      <stop offset="1" stop-color="#1AA074"/>
    </linearGradient>
  </defs>
  <g>
    <path stroke="none" fill="#353541" d="M51.3 24.35 Q51.95 25.75 52 27.45 L52 27.55 52 32.15 52 32.25 Q51.95 34 51.15 35.6 L51.15 35.55 50.95 36 50.85 36.1 48.95 38.3 48.6 38.55 36.75 47.45 36.65 47.5 Q34.55 49 32 49 29.45 49 27.35 47.5 L27.3 47.45 15.4 38.55 15.05 38.3 Q13.9 37.35 13.15 36.1 L13.1 36 12.85 35.55 12.85 35.6 Q12.05 34 12 32.25 L12 32.15 12 27.55 12 27.45 Q12.05 25.75 12.75 24.35 L12.7 24.35 Q13.25 23.15 14.25 22.15 L14.3 22.1 20.1 16.3 20.15 16.2 Q22.35 14.05 25.45 14 L25.55 14 38.45 14 38.55 14 Q41.65 14.05 43.9 16.2 L43.95 16.3 49.8 22.15 Q50.75 23.15 51.3 24.35 M48 31.25 L48 27.55 Q48 26.7 47.65 26 L46.9 24.9 41.1 19.1 Q40 18.05 38.45 18 L25.55 18 Q24 18.05 22.9 19.1 L17.1 24.9 Q16.6 25.4 16.35 26 16 26.7 16 27.55 L16 31.25 16 32.15 Q16.05 33 16.45 33.8 L16.55 34 17.55 35.2 17.6 35.2 29.7 44.25 Q30.7 45 32 45 33.3 45 34.35 44.25 L46.4 35.2 46.45 35.2 47.45 34 47.6 33.8 48 32.15 48 31.25"/>
    <path stroke="none" fill="#59F0B0" d="M48 31.25 Q48 30.55 47.65 30 L46.9 28.9 41.1 23.1 Q40 22.05 38.45 22 L32 22 25.55 22 Q24 22.05 22.9 23.1 L17.1 28.9 Q16.6 29.4 16.35 30 16 30.55 16 31.25 L16 27.55 Q16 26.7 16.35 26 16.6 25.4 17.1 24.9 L22.9 19.1 Q24 18.05 25.55 18 L38.45 18 Q40 18.05 41.1 19.1 L46.9 24.9 47.65 26 Q48 26.7 48 27.55 L48 31.25"/>
    <path stroke="none" fill="url(#gradient0)" d="M32 22 L38.45 22 Q40 22.05 41.1 23.1 L46.9 28.9 47.65 30 32 30 32 22"/>
    <path stroke="none" fill="#2CC987" d="M32 22 L32 30 47.65 30 Q48 30.55 48 31.25 L48 32.15 47.6 33.8 47.45 34 46.45 35.2 46.4 35.2 34.35 44.25 Q33.3 45 32 45 L32 30 16.35 30 Q16.6 29.4 17.1 28.9 L22.9 23.1 Q24 22.05 25.55 22 L32 22"/>
    <path stroke="none" fill="url(#gradient1)" d="M16 31.25 Q16 30.55 16.35 30 L32 30 32 45 Q30.7 45 29.7 44.25 L17.6 35.2 17.55 35.2 16.55 34 16.45 33.8 Q16.05 33 16 32.15 L16 31.25"/>
  </g>
</svg>