<svg width="64" height="64" xmlns="http://www.w3.org/2000/svg" xmlns:xlink="http://www.w3.org/1999/xlink">
  <defs/>
  <g>
    <path stroke="none" fill="#353541" d="M14 27.65 Q14 22.9 17.25 19.5 L17.4 19.35 Q20.7 16.2 25.5 16 L25.55 16 Q28.9 15.8 32 17.9 35.05 15.85 38.45 16 43.2 16.15 46.6 19.35 L46.75 19.5 Q50 22.9 50 27.65 L49.9 29.7 49.85 30 Q49.1 33.5 46.65 35.85 L46.6 35.9 Q33.1 48.8 32 48 30.8 48.8 17.45 35.9 L17.4 35.85 Q14.85 33.45 14.2 29.9 L14.25 29.95 14 27.65 M32 44 L43.85 32.95 Q45.45 31.45 45.9 29.2 L46 27.65 Q46 24.5 43.85 22.25 41.55 20.1 38.3 20 35.95 19.9 33.85 21.5 32.7 22.25 32 23.35 31.25 22.25 30.15 21.5 28 19.9 25.65 20 22.4 20.1 20.15 22.25 18 24.5 18 27.65 L18.15 29.2 Q18.55 31.45 20.15 32.95 31.6 44 32 44"/>
    <path stroke="none" fill="#F17575" d="M32 44 Q31.6 44 20.15 32.95 18.55 31.45 18.15 29.2 L18 27.65 Q18 24.5 20.15 22.25 22.4 20.1 25.65 20 28 19.9 30.15 21.5 31.25 22.25 32 23.35 32.7 22.25 33.85 21.5 35.95 19.9 38.3 20 41.55 20.1 43.85 22.25 46 24.5 46 27.65 L45.9 29.2 Q45.45 31.45 43.85 32.95 L32 44 M21.55 31.5 Q32 41.6 32 42 31.95 41.6 42.5 31.5 43.6 30.45 43.95 28.9 L44 27.65 Q44 25.35 42.5 23.7 L42.4 23.65 Q40.65 22.05 38.25 22 36.55 21.95 35.05 23.1 L34.95 23.2 Q34.15 23.7 33.7 24.45 L32.7 25.25 Q32.05 25.45 31.4 25.25 30.75 25.05 30.35 24.5 L29.05 23.15 28.95 23.1 Q27.4 21.95 25.75 22 L25.7 22 Q23.3 22.05 21.6 23.65 L21.55 23.7 Q20 25.35 20 27.65 L20.15 28.85 Q20.4 30.45 21.55 31.5"/>
    <path stroke="none" fill="#E54341" d="M21.55 31.5 Q20.4 30.45 20.15 28.85 L20 27.65 Q20 25.35 21.55 23.7 L21.6 23.65 Q23.3 22.05 25.7 22 L25.75 22 Q27.4 21.95 28.95 23.1 L29.05 23.15 30.35 24.5 Q30.75 25.05 31.4 25.25 32.05 25.45 32.7 25.25 L33.7 24.45 Q34.15 23.7 34.95 23.2 L35.05 23.1 Q36.55 21.95 38.25 22 40.65 22.05 42.4 23.65 L42.5 23.7 Q44 25.35 44 27.65 L43.95 28.9 Q43.6 30.45 42.5 31.5 31.95 41.6 32 42 32 41.6 21.55 31.5"/>
  </g>
</svg>