<svg width="64" height="64" xmlns="http://www.w3.org/2000/svg" xmlns:xlink="http://www.w3.org/1999/xlink">
  <defs/>
  <g>
    <path stroke="none" fill="#353541" d="M50.3 10.8 Q47.35 8.2 44 6.6 38.55 4 32 4 25.45 4 20 6.6 15.8 8.6 12.2 12.2 8.5 15.9 6.45 20.35 4.9 23.7 4.35 27.5 L4.35 27.55 Q4.05 29.35 4 31.3 L4 35.3 4 59.95 4 64 0 64 0 31.3 0 31.2 Q0.2 24.4 2.85 18.7 5.15 13.6 9.4 9.4 13.5 5.25 18.3 3 24.5 0 32 0 39.5 0 45.75 3 50.35 5.15 54.4 9.15 L54.5 9.25 54.65 9.4 Q57.9 12.65 60 16.35 63.8 23 64 31.2 L64 31.3 64 64 60 64 60 36 60 35.3 60 31.3 Q59.75 20.15 51.8 12.2 L50.3 10.8"/>
    <path stroke="none" fill="#59F0B0" d="M50.3 10.8 L46.45 11.9 46.4 11.9 45.8 11.55 44 10.6 Q38.55 8 32 8 25.45 8 20 10.6 15.8 12.6 12.2 16.2 8.5 19.9 6.45 24.35 L6 25.5 4.35 27.5 Q4.9 23.7 6.45 20.35 8.5 15.9 12.2 12.2 15.8 8.6 20 6.6 25.45 4 32 4 38.55 4 44 6.6 47.35 8.2 50.3 10.8"/>
    <path stroke="none" fill="#2CC987" d="M50.3 10.8 L51.8 12.2 Q59.75 20.15 60 31.3 L60 35.3 Q59.75 24.15 51.8 16.2 49.25 13.65 46.45 11.9 L50.3 10.8 M60 36 L60 64 4 64 4 59.95 Q5.75 57.5 6.85 56.5 8.6 54.95 11.5 53.9 L52.25 42.25 Q55.4 41.3 57.2 39.6 L60 36 M4 35.3 L4 31.3 Q4.05 29.35 4.35 27.55 L4.35 27.5 6 25.5 6.45 24.35 Q8.5 19.9 12.2 16.2 15.8 12.6 20 10.6 25.45 8 32 8 38.55 8 44 10.6 L45.8 11.55 46.4 11.9 46.45 11.9 11.3 21.95 Q8.4 23.2 6.75 24.7 L6 25.5 5.85 25.8 Q4.15 30.2 4 35.3"/>
    <path stroke="none" fill="#23B67E" d="M4 35.3 Q4.15 30.2 5.85 25.8 L6 25.5 6.75 24.7 Q8.4 23.2 11.3 21.95 L46.45 11.9 Q49.25 13.65 51.8 16.2 59.75 24.15 60 35.3 L60 36 57.2 39.6 Q55.4 41.3 52.25 42.25 L11.5 53.9 Q8.6 54.95 6.85 56.5 5.75 57.5 4 59.95 L4 35.3"/>
  </g>
</svg>