<svg width="64" height="64" xmlns="http://www.w3.org/2000/svg" xmlns:xlink="http://www.w3.org/1999/xlink">
  <defs/>
  <g>
    <path stroke="none" fill="#353541" d="M4 64 L0 64 0 31.3 0 31.2 Q0.2 24.4 2.85 18.7 5.15 13.6 9.4 9.4 13.5 5.25 18.3 3 24.5 0 32 0 39.5 0 45.75 3 50.35 5.15 54.4 9.15 L54.5 9.25 54.65 9.4 Q57.9 12.65 60 16.35 63.8 23 64 31.2 L64 31.3 64 64 60 64 60 36 60 35.3 60 31.3 Q59.75 20.15 51.8 12.2 L50.3 10.8 Q47.35 8.2 44 6.6 38.55 4 32 4 25.45 4 20 6.6 15.8 8.6 12.2 12.2 8.5 15.9 6.45 20.35 4.9 23.7 4.35 27.5 L4.35 27.55 Q4.05 29.35 4 31.3 L4 35.3 4 59.95 4 64"/>
    <path stroke="none" fill="#59F0B0" d="M4.35 27.5 Q4.9 23.7 6.45 20.35 8.5 15.9 12.2 12.2 15.8 8.6 20 6.6 25.45 4 32 4 38.55 4 44 6.6 47.35 8.2 50.3 10.8 L46.45 11.9 46.4 11.9 45.8 11.55 44 10.6 Q38.55 8 32 8 25.45 8 20 10.6 15.8 12.6 12.2 16.2 8.5 19.9 6.45 24.35 L6 25.5 4.35 27.5"/>
    <path stroke="none" fill="#2CC987" d="M4.35 27.5 L6 25.5 6.45 24.35 Q8.5 19.9 12.2 16.2 15.8 12.6 20 10.6 25.45 8 32 8 38.55 8 44 10.6 L45.8 11.55 46.4 11.9 46.45 11.9 50.3 10.8 51.8 12.2 Q59.75 20.15 60 31.3 L60 35.3 Q59.75 24.15 51.8 16.2 49.25 13.65 46.45 11.9 L11.3 21.95 Q8.4 23.2 6.75 24.7 L6 25.5 5.85 25.8 Q4.15 30.2 4 35.3 L4 31.3 Q4.05 29.35 4.35 27.55 L4.35 27.5 M60 64 L4 64 4 59.95 Q5.75 57.5 6.85 56.5 8.6 54.95 11.5 53.9 L52.25 42.25 Q55.4 41.3 57.2 39.6 L60 36 60 64"/>
    <path stroke="none" fill="#23B67E" d="M4 59.95 L4 35.3 Q4.15 30.2 5.85 25.8 L6 25.5 6.75 24.7 Q8.4 23.2 11.3 21.95 L46.45 11.9 Q49.25 13.65 51.8 16.2 59.75 24.15 60 35.3 L60 36 57.2 39.6 Q55.4 41.3 52.25 42.25 L11.5 53.9 Q8.6 54.95 6.85 56.5 5.75 57.5 4 59.95"/>
    <path stroke="none" fill="#353541" d="M38.05 41.5 L38 41 Q38 38.5 39.75 36.75 41.5 35 44 35 46.5 35 48.25 36.75 50 38.5 50 41 L50 41.5 Q49.8 43.7 48.25 45.25 46.5 47 44 47 41.5 47 39.75 45.25 38.2 43.7 38.05 41.5"/>
    <path stroke="none" fill="#59F0B0" d="M38.05 41.5 Q38.2 43.7 39.75 45.25 41.5 47 44 47 46.5 47 48.25 45.25 49.8 43.7 50 41.5 L50 42 50 42.5 50 43 Q50 45.5 48.25 47.25 46.5 49 44 49 41.5 49 39.75 47.25 38 45.5 38 43 L38.05 42.5 38 42 38.05 41.5"/>
    <path stroke="none" fill="#353541" d="M26 41.5 Q25.8 43.7 24.25 45.25 22.5 47 20 47 17.5 47 15.75 45.25 14.2 43.7 14.05 41.5 L14 41 Q14 38.5 15.75 36.75 17.5 35 20 35 22.5 35 24.25 36.75 26 38.5 26 41 L26 41.5"/>
    <path stroke="none" fill="#59F0B0" d="M26 41.5 L26 42 26 42.5 26 43 Q26 45.5 24.25 47.25 22.5 49 20 49 17.5 49 15.75 47.25 14 45.5 14 43 L14.05 42.5 14 42 14.05 41.5 Q14.2 43.7 15.75 45.25 17.5 47 20 47 22.5 47 24.25 45.25 25.8 43.7 26 41.5"/>
    <path stroke="none" fill="#353541" d="M23.05 51.55 Q22.9 51.05 23.05 50.55 23.25 49.75 23.95 49.3 24.65 48.85 25.5 49.05 26.25 49.25 26.75 49.95 L27.8 51.25 Q29.55 53 32 53 34.45 53 36.3 51.25 L37.3 49.95 Q37.75 49.25 38.55 49.05 L40.05 49.3 Q40.75 49.75 40.95 50.55 L40.95 51.55 40.7 52.05 39.15 54.1 Q36.2 57 32 57 27.85 57 24.9 54.1 23.95 53.15 23.3 52.05 L23.05 51.55"/>
    <path stroke="none" fill="#59F0B0" d="M23.05 51.55 L23.3 52.05 Q23.95 53.15 24.9 54.1 27.85 57 32 57 36.2 57 39.15 54.1 L40.7 52.05 40.95 51.55 40.95 52.55 Q41.15 53.35 40.7 54.05 L39.15 56.1 Q36.2 59 32 59 27.85 59 24.9 56.1 23.95 55.15 23.3 54.05 22.85 53.35 23.05 52.55 22.9 52.05 23.05 51.55"/>
  </g>
</svg>