<svg width="64" height="64" xmlns="http://www.w3.org/2000/svg" xmlns:xlink="http://www.w3.org/1999/xlink">
  <defs>
    <linearGradient gradientUnits="userSpaceOnUse" x1="-819.2" x2="819.2" spreadMethod="pad" gradientTransform="matrix(0 0.0341949462890625 -0.017181396484375 0 31.65 32.05)" id="gradient0">
      <stop offset="0" stop-color="#FABA2D"/>
      <stop offset="1" stop-color="#E28F2B"/>
    </linearGradient>
    <linearGradient gradientUnits="userSpaceOnUse" x1="-819.2" x2="819.2" spreadMethod="pad" gradientTransform="matrix(0 -0.0088348388671875 0.0102996826171875 0 34.25 30.6)" id="gradient1">
      <stop offset="0" stop-color="#E28F2B"/>
      <stop offset="1" stop-color="#B76019"/>
    </linearGradient>
  </defs>
  <g>
    <path stroke="none" fill="#FFFFFF" d="M37.75 12.15 L45.85 16.75 46.4 17.1 Q48.9 18.7 50.4 21.35 L50.65 21.9 51.2 23.35 51.25 23.55 Q52.05 26 52 27.35 L52 36.7 Q52 40.05 50.3 42.95 48.75 45.55 46.15 47.2 L46 47.3 45.85 47.4 37.7 52.05 Q34.9 53.6 31.7 53.6 28.45 53.6 25.7 52.05 L17.45 47.4 16.9 47 Q14.35 45.3 12.9 42.7 L12.75 42.35 Q11.2 38.8 11.3 36.7 L11.3 27.35 Q11.3 23.95 13.15 21.1 L13.05 21.2 Q13.6 20.25 14.5 19.25 16.15 17.45 17.45 16.75 L25.6 12.05 25.7 12 Q28.5 10.45 31.65 10.45 34.85 10.45 37.75 12.15 M48 27.35 Q48 26.45 47.45 24.75 L46.9 23.3 Q45.8 21.35 43.85 20.25 L43.85 20.2 35.75 15.6 Q33.8 14.45 31.65 14.45 29.5 14.45 27.6 15.5 L19.45 20.2 Q18.6 20.7 17.45 21.95 L16.5 23.2 Q15.3 25.1 15.3 27.35 L15.3 36.7 Q15.3 38.2 16.4 40.75 17.45 42.65 19.35 43.85 L19.4 43.9 27.6 48.55 Q29.5 49.6 31.7 49.6 33.85 49.6 35.7 48.55 L43.85 43.9 43.9 43.85 Q45.8 42.7 46.85 40.85 48 38.95 48 36.7 L48 27.35"/>
    <path stroke="none" fill="#353541" d="M48 27.35 L48 36.7 Q48 38.95 46.85 40.85 45.8 42.7 43.9 43.85 L43.85 43.9 35.7 48.55 Q33.85 49.6 31.7 49.6 29.5 49.6 27.6 48.55 L19.4 43.9 19.35 43.85 Q17.45 42.65 16.4 40.75 15.3 38.2 15.3 36.7 L15.3 27.35 Q15.3 25.1 16.5 23.2 L17.45 21.95 Q18.6 20.7 19.45 20.2 L27.6 15.5 Q29.5 14.45 31.65 14.45 33.8 14.45 35.75 15.6 L43.85 20.2 43.85 20.25 Q45.8 21.35 46.9 23.3 L47.45 24.75 Q48 26.45 48 27.35 M21.2 23.25 Q20.05 23.9 19.45 25 18.8 26.1 18.8 27.35 L18.8 36.7 Q18.8 37.95 19.45 39.05 20.05 40.15 21.15 40.8 L29.3 45.5 Q30.4 46.1 31.7 46.1 32.9 46.1 34 45.5 L42.1 40.8 43.85 39.05 Q44.5 37.95 44.5 36.7 L44.5 27.35 Q44.5 26.1 43.85 25 43.2 23.9 42.1 23.3 L34 18.65 Q32.85 17.95 31.65 17.95 30.4 17.95 29.3 18.6 L21.2 23.25"/>
    <path stroke="none" fill="url(#gradient0)" d="M21.2 23.25 L29.3 18.6 Q30.4 17.95 31.65 17.95 32.85 17.95 34 18.65 L42.1 23.3 Q43.2 23.9 43.85 25 44.5 26.1 44.5 27.35 L44.5 36.7 Q44.5 37.95 43.85 39.05 L42.1 40.8 34 45.5 Q32.9 46.1 31.7 46.1 30.4 46.1 29.3 45.5 L21.15 40.8 Q20.05 40.15 19.45 39.05 18.8 37.95 18.8 36.7 L18.8 27.35 Q18.8 26.1 19.45 25 20.05 23.9 21.2 23.25 M30.8 40.3 L31.7 40.5 32.55 40.3 38.35 36.9 39 36.3 39.25 35.4 39.25 28.7 39 27.85 38.35 27.2 32.5 23.85 31.65 23.65 30.75 23.85 24.95 27.2 Q24.55 27.4 24.3 27.85 L24.05 28.7 24.05 35.4 Q24.05 35.85 24.3 36.3 L24.95 36.9 30.8 40.3"/>
    <path stroke="none" fill="url(#gradient1)" d="M30.8 40.3 L24.95 36.9 24.3 36.3 Q24.05 35.85 24.05 35.4 L24.05 28.7 24.3 27.85 Q24.55 27.4 24.95 27.2 L30.75 23.85 31.65 23.65 32.5 23.85 38.35 27.2 39 27.85 39.25 28.7 39.25 35.4 39 36.3 38.35 36.9 32.55 40.3 31.7 40.5 30.8 40.3 M31.65 28.55 Q30.95 28.55 30.4 29.05 29.9 29.6 29.9 30.3 L29.9 33.8 Q29.9 34.55 30.4 35 30.95 35.55 31.65 35.55 32.4 35.55 32.85 35 33.4 34.55 33.4 33.8 L33.4 30.3 Q33.4 29.6 32.85 29.05 32.4 28.55 31.65 28.55"/>
    <path stroke="none" fill="#FABA2D" d="M31.65 28.55 Q32.4 28.55 32.85 29.05 33.4 29.6 33.4 30.3 L33.4 33.8 Q33.4 34.55 32.85 35 32.4 35.55 31.65 35.55 30.95 35.55 30.4 35 29.9 34.55 29.9 33.8 L29.9 30.3 Q29.9 29.6 30.4 29.05 30.95 28.55 31.65 28.55"/>
  </g>
</svg>