<svg width="64" height="64" xmlns="http://www.w3.org/2000/svg" xmlns:xlink="http://www.w3.org/1999/xlink">
  <defs/>
  <g>
    <path stroke="none" fill="#474758" d="M48 44.05 Q52 38.85 52 32 52 23.75 46.15 17.9 40.3 12 32 12 23.75 12 17.9 17.9 12 23.75 12 32 12 38.85 16 44 L17.9 46.15 Q23.75 52 32 52 40.3 52 46.15 46.15 L48 44.05 M32 8 Q41.95 8 49 15.1 56 22.1 56 32 56 41.95 49 49 L48 49.9 Q45.1 52.5 41.8 54 38.5 55.45 34.8 55.85 L32.3 56 32 56 31.9 56 29.35 55.85 Q25.55 55.5 22.25 54 18.9 52.5 16 49.85 L15.1 49 Q8 41.95 8 32 8 22.1 15.05 15.1 L15.1 15.05 Q22.1 8 32 8"/>
    <path stroke="none" fill="#656574" d="M16 44 Q12 38.85 12 32 12 23.75 17.9 17.9 23.75 12 32 12 40.3 12 46.15 17.9 52 23.75 52 32 52 38.85 48 44.05 L48 32 Q48 25.4 43.3 20.7 38.6 16 32 16 25.4 16 20.7 20.7 16 25.4 16 32 L16 44"/>
    <path stroke="none" fill="#C7B6FF" d="M16 44 L16 32 Q16 25.4 20.7 20.7 25.4 16 32 16 38.6 16 43.3 20.7 48 25.4 48 32 L48 44.05 46.15 46.15 Q40.3 52 32 52 23.75 52 17.9 46.15 L16 44"/>
    <path stroke="none" fill="#FFFFFF" d="M32 4 Q43.6 4 51.8 12.25 60 20.45 60 32 60 43.6 51.8 51.8 43.6 60 32 60 20.45 60 12.25 51.8 4 43.6 4 32 4 20.45 12.2 12.25 L12.25 12.2 Q20.45 4 32 4 M32 8 Q22.1 8 15.1 15.05 L15.05 15.1 Q8 22.1 8 32 8 41.95 15.1 49 L16 49.85 Q18.9 52.5 22.25 54 25.55 55.5 29.35 55.85 L31.9 56 32 56 32.3 56 34.8 55.85 Q38.5 55.45 41.8 54 45.1 52.5 48 49.9 L49 49 Q56 41.95 56 32 56 22.1 49 15.1 41.95 8 32 8"/>
    <path stroke="none" fill="#353541" d="M35.2 29.2 Q35.2 28.5 34.7 28.05 34.25 27.6 33.6 27.6 32.9 27.6 32.5 28.05 32 28.5 32 29.2 32 29.85 32.5 30.3 32.9 30.8 33.6 30.8 34.25 30.8 34.7 30.3 35.2 29.85 35.2 29.2 M36 30 Q36 31.65 34.8 32.8 33.65 34 32 34 30.3 34 29.15 32.8 L28.65 32.2 Q28 31.2 28 30 28 28.75 28.65 27.75 L29.15 27.1 Q30.3 26 32 26 33.65 26 34.8 27.1 36 28.3 36 30 M41.6 36.4 Q41.6 35.7 41.1 35.25 40.65 34.8 40 34.8 39.3 34.8 38.9 35.25 38.4 35.7 38.4 36.4 38.4 37.05 38.9 37.5 39.3 38 40 38 40.65 38 41.1 37.5 41.6 37.05 41.6 36.4 M42.4 37.2 Q42.4 38.85 41.2 40 40.05 41.2 38.4 41.2 36.7 41.2 35.55 40 L35.05 39.4 Q34.4 38.4 34.4 37.2 34.4 35.95 35.05 34.95 L35.55 34.3 Q36.7 33.2 38.4 33.2 40.05 33.2 41.2 34.3 42.4 35.5 42.4 37.2 M28.8 36.4 Q28.8 35.7 28.3 35.25 27.85 34.8 27.2 34.8 26.5 34.8 26.1 35.25 25.6 35.7 25.6 36.4 25.6 37.05 26.1 37.5 26.5 38 27.2 38 27.85 38 28.3 37.5 28.8 37.05 28.8 36.4 M29.6 37.2 Q29.6 38.85 28.4 40 27.25 41.2 25.6 41.2 23.9 41.2 22.75 40 21.6 38.85 21.6 37.2 21.6 35.5 22.75 34.3 23.9 33.2 25.6 33.2 27.25 33.2 28.4 34.3 29.6 35.5 29.6 37.2"/>
    <path stroke="none" fill="#5D5D67" d="M35.2 29.2 Q35.2 29.85 34.7 30.3 34.25 30.8 33.6 30.8 32.9 30.8 32.5 30.3 32 29.85 32 29.2 32 28.5 32.5 28.05 32.9 27.6 33.6 27.6 34.25 27.6 34.7 28.05 35.2 28.5 35.2 29.2 M41.6 36.4 Q41.6 37.05 41.1 37.5 40.65 38 40 38 39.3 38 38.9 37.5 38.4 37.05 38.4 36.4 38.4 35.7 38.9 35.25 39.3 34.8 40 34.8 40.65 34.8 41.1 35.25 41.6 35.7 41.6 36.4 M28.8 36.4 Q28.8 37.05 28.3 37.5 27.85 38 27.2 38 26.5 38 26.1 37.5 25.6 37.05 25.6 36.4 25.6 35.7 26.1 35.25 26.5 34.8 27.2 34.8 27.85 34.8 28.3 35.25 28.8 35.7 28.8 36.4"/>
    <path stroke="none" fill="#7161AA" d="M33.65 42.5 L33.7 42.35 34.2 42 34.8 42.1 35.2 42.6 35.1 43.2 34.6 43.75 Q33.5 44.8 32 44.8 30.5 44.8 29.3 43.7 L29 43.3 Q28.75 43.05 28.8 42.7 L29.1 42.15 29.7 42 30.25 42.3 30.45 42.55 30.45 42.5 Q31.1 43.2 32 43.2 32.9 43.2 33.55 42.55 L33.65 42.5"/>
    <path stroke="none" fill="#C7B6FF" d="M28.8 12.6 L30.25 14.25 31.25 15.8 32.35 14.3 Q33.65 12.8 34.4 12.25 36.25 10.9 37.4 11.5 38.55 12.2 38.35 14.55 38.3 15.4 37.5 17.3 L36.75 19.1 Q36.1 20.25 34.8 20.6 33.5 20.9 32.35 20.25 31.2 19.6 30.9 18.35 L30.75 17.4 30.15 17.9 28.5 18.15 Q27.7 17.9 27.25 17.1 L26.75 15.9 26.2 14.1 Q26.05 12.55 26.85 12.1 27.6 11.7 28.8 12.6"/>
    <path stroke="none" fill="#FFFFFF" fill-opacity="0.2" d="M25.95 26.35 Q25.95 27.55 25.05 28.4 24.2 29.25 23 29.25 21.8 29.25 20.95 28.4 20.1 27.55 20.1 26.35 20.1 25.15 20.95 24.3 21.8 23.45 23 23.45 24.2 23.45 25.05 24.3 25.95 25.15 25.95 26.35"/>
    <path stroke="none" fill="#FFFFFF" fill-opacity="0.2" d="M49 21.55 Q49 25.15 46.4 27.65 43.85 30.25 40.25 30.25 36.65 30.25 34.05 27.65 31.55 25.15 31.55 21.55 31.55 17.95 34.05 15.3 36.65 12.8 40.25 12.8 43.85 12.8 46.4 15.3 49 17.95 49 21.55"/>
  </g>
</svg>