<svg width="64" height="64" xmlns="http://www.w3.org/2000/svg" xmlns:xlink="http://www.w3.org/1999/xlink">
  <defs/>
  <g>
    <path stroke="none" fill="#E7E0FF" d="M32 14 Q24.6 14 19.35 19.3 L19.3 19.35 Q14 24.6 14 32 14 39.45 19.3 44.75 L19.35 44.75 Q24.6 50 32 50 39.45 50 44.75 44.75 50 39.45 50 32 50 24.6 44.75 19.35 L44.75 19.3 Q39.45 14 32 14 M52 32 Q52 40.3 46.15 46.15 40.3 52 32 52 23.75 52 17.9 46.15 12 40.3 12 32 12 23.75 17.9 17.9 23.75 12 32 12 40.3 12 46.15 17.9 52 23.75 52 32"/>
    <path stroke="none" fill="#C7B6FF" d="M32 14 Q39.45 14 44.75 19.3 L44.75 19.35 Q50 24.6 50 32 50 39.45 44.75 44.75 39.45 50 32 50 24.6 50 19.35 44.75 L19.3 44.75 Q14 39.45 14 32 14 24.6 19.3 19.35 L19.35 19.3 Q24.6 14 32 14"/>
    <path stroke="none" fill="#5E4F9C" d="M32 8 Q41.95 8 49 15.1 56 22.1 56 32 56 41.95 49 49 41.95 56 32 56 22.1 56 15.1 49 8 41.95 8 32 8 22.1 15.05 15.1 L15.1 15.05 Q22.1 8 32 8 M52 32 Q52 23.75 46.15 17.9 40.3 12 32 12 23.75 12 17.9 17.9 12 23.75 12 32 12 40.3 17.9 46.15 23.75 52 32 52 40.3 52 46.15 46.15 52 40.3 52 32"/>
    <path stroke="none" fill="#FFFFFF" d="M32 4 Q43.6 4 51.8 12.25 60 20.45 60 32 60 43.6 51.8 51.8 43.6 60 32 60 20.45 60 12.25 51.8 4 43.6 4 32 4 20.45 12.2 12.25 L12.25 12.2 Q20.45 4 32 4 M32 8 Q22.1 8 15.1 15.05 L15.05 15.1 Q8 22.1 8 32 8 41.95 15.1 49 22.1 56 32 56 41.95 56 49 49 56 41.95 56 32 56 22.1 49 15.1 41.95 8 32 8"/>
    <path stroke="none" fill="#353541" d="M36 25 Q36 24.15 35.4 23.55 34.8 23 34 23 33.15 23 32.6 23.55 32 24.15 32 25 32 25.8 32.6 26.4 33.15 27 34 27 34.8 27 35.4 26.4 36 25.8 36 25 M37 26 Q37 28.05 35.5 29.5 34.05 31 32 31 29.85 31 28.45 29.5 L27.8 28.75 Q27 27.5 27 26 27 24.45 27.8 23.2 L28.45 22.4 Q29.85 21 32 21 34.05 21 35.5 22.4 37 23.9 37 26 M45 35 Q45 37.05 43.5 38.5 42.05 40 40 40 37.85 40 36.45 38.5 L35.8 37.75 Q35 36.5 35 35 35 33.45 35.8 32.2 L36.45 31.4 Q37.85 30 40 30 42.05 30 43.5 31.4 45 32.9 45 35 M44 34 Q44 33.15 43.4 32.55 42.8 32 42 32 41.15 32 40.6 32.55 40 33.15 40 34 40 34.8 40.6 35.4 41.15 36 42 36 42.8 36 43.4 35.4 44 34.8 44 34 M29 35 Q29 37.05 27.5 38.5 26.05 40 24 40 21.85 40 20.45 38.5 19 37.05 19 35 19 32.9 20.45 31.4 21.85 30 24 30 26.05 30 27.5 31.4 29 32.9 29 35 M28 34 Q28 33.15 27.4 32.55 26.8 32 26 32 25.15 32 24.6 32.55 24 33.15 24 34 24 34.8 24.6 35.4 25.15 36 26 36 26.8 36 27.4 35.4 28 34.8 28 34"/>
    <path stroke="none" fill="#5D5D67" d="M28 34 Q28 34.8 27.4 35.4 26.8 36 26 36 25.15 36 24.6 35.4 24 34.8 24 34 24 33.15 24.6 32.55 25.15 32 26 32 26.8 32 27.4 32.55 28 33.15 28 34 M36 25 Q36 25.8 35.4 26.4 34.8 27 34 27 33.15 27 32.6 26.4 32 25.8 32 25 32 24.15 32.6 23.55 33.15 23 34 23 34.8 23 35.4 23.55 36 24.15 36 25 M44 34 Q44 34.8 43.4 35.4 42.8 36 42 36 41.15 36 40.6 35.4 40 34.8 40 34 40 33.15 40.6 32.55 41.15 32 42 32 42.8 32 43.4 32.55 44 33.15 44 34"/>
    <path stroke="none" fill="#7161AA" d="M34.05 41.6 L34.15 41.45 Q34.35 41.1 34.75 41 L35.5 41.15 36 41.75 35.85 42.5 35.25 43.2 Q33.9 44.5 32 44.5 30.1 44.5 28.65 43.1 L28.25 42.6 Q27.95 42.3 28 41.9 28.05 41.5 28.4 41.2 28.7 40.95 29.1 41 29.5 41.05 29.8 41.35 L30.05 41.7 30.05 41.65 Q30.9 42.5 32 42.5 33.15 42.5 33.95 41.7 L34.05 41.6"/>
  </g>
</svg>