<svg width="64" height="64" xmlns="http://www.w3.org/2000/svg" xmlns:xlink="http://www.w3.org/1999/xlink">
  <defs/>
  <g>
    <path stroke="none" fill="#92A1AD" d="M36.5 11.35 Q39.2 12.1 41.45 13.7 L41.4 13.65 Q43.85 15.3 45.35 17.9 L45.35 17.85 Q46.9 20.45 47 24 L47 24.05 Q47 27.45 45.9 29.85 L45.55 30.55 46.65 32.25 Q48.2 35.05 48.2 39.3 L48.2 39.35 Q48.15 44.1 45.65 47.25 L45.65 47.2 Q43.35 50.3 39.65 51.9 36.2 53.35 32.3 53.35 29.55 53.35 26.85 52.6 24 51.85 21.6 50.25 19 48.45 17.45 45.75 15.8 43.05 15.8 39.15 15.8 35.05 17.25 32.35 17.65 31.45 18.2 30.7 L17.8 29.9 17.8 29.85 Q16.7 27.45 16.7 23.95 L16.7 23.9 Q16.75 20.35 18.3 17.85 L18.35 17.75 Q19.8 15.3 22.1 13.7 L22.2 13.65 Q24.35 12.05 26.9 11.3 L31.7 10.6 Q34.1 10.6 36.5 11.35 M19.8 39.15 Q19.8 41.85 20.9 43.75 22 45.65 23.85 46.9 25.7 48.15 27.9 48.75 L32.3 49.35 Q35.35 49.35 38.05 48.2 40.75 47.05 42.45 44.8 44.15 42.6 44.2 39.3 44.2 36.2 43.1 34.15 42 32.1 40.2 30.95 41.5 29.9 42.25 28.2 43 26.5 43 24.05 42.95 21.65 41.9 19.9 40.85 18.1 39.15 16.95 37.45 15.75 35.45 15.2 L31.7 14.6 28 15.15 Q26.1 15.7 24.45 16.9 22.8 18.05 21.75 19.8 20.75 21.55 20.7 23.95 20.7 26.5 21.45 28.25 22.2 29.95 23.5 31 21.8 32.15 20.8 34.15 19.8 36.15 19.8 39.15 M31.8 26.15 Q30.45 26.15 29.85 25.55 29.2 24.95 29.2 23.85 29.2 22.85 29.85 22.2 30.5 21.55 31.9 21.5 33.2 21.55 33.8 22.2 34.4 22.9 34.4 24 34.4 25.05 33.75 25.6 33.1 26.15 31.8 26.15 M29.05 38.25 Q29.05 37 29.8 36.1 30.55 35.2 32.15 35.15 33.75 35.2 34.45 36.1 35.2 37.05 35.2 38.5 35.2 39.85 34.4 40.6 33.6 41.3 32.05 41.3 30.5 41.3 29.75 40.5 29.05 39.7 29.05 38.25"/>
    <path stroke="none" fill="#FFFFFF" d="M29.05 38.25 Q29.05 39.7 29.75 40.5 30.5 41.3 32.05 41.3 33.6 41.3 34.4 40.6 35.2 39.85 35.2 38.5 35.2 37.05 34.45 36.1 33.75 35.2 32.15 35.15 30.55 35.2 29.8 36.1 29.05 37 29.05 38.25 M31.8 26.15 Q33.1 26.15 33.75 25.6 34.4 25.05 34.4 24 34.4 22.9 33.8 22.2 33.2 21.55 31.9 21.5 30.5 21.55 29.85 22.2 29.2 22.85 29.2 23.85 29.2 24.95 29.85 25.55 30.45 26.15 31.8 26.15 M19.8 39.15 Q19.8 36.15 20.8 34.15 21.8 32.15 23.5 31 22.2 29.95 21.45 28.25 20.7 26.5 20.7 23.95 20.75 21.55 21.75 19.8 22.8 18.05 24.45 16.9 26.1 15.7 28 15.15 L31.7 14.6 35.45 15.2 Q37.45 15.75 39.15 16.95 40.85 18.1 41.9 19.9 42.95 21.65 43 24.05 43 26.5 42.25 28.2 41.5 29.9 40.2 30.95 42 32.1 43.1 34.15 44.2 36.2 44.2 39.3 44.15 42.6 42.45 44.8 40.75 47.05 38.05 48.2 35.35 49.35 32.3 49.35 L27.9 48.75 Q25.7 48.15 23.85 46.9 22 45.65 20.9 43.75 19.8 41.85 19.8 39.15"/>
  </g>
</svg>