<svg width="64" height="64" xmlns="http://www.w3.org/2000/svg" xmlns:xlink="http://www.w3.org/1999/xlink">
  <defs/>
  <g>
    <path stroke="none" fill="#FCE9D9" d="M32 14 Q24.6 14 19.35 19.3 L19.3 19.35 Q14 24.6 14 32 14 39.45 19.3 44.75 L19.35 44.75 Q24.6 50 32 50 39.45 50 44.75 44.75 50 39.45 50 32 50 24.6 44.75 19.35 L44.75 19.3 Q39.45 14 32 14 M52 32 Q52 40.3 46.15 46.15 40.3 52 32 52 23.75 52 17.9 46.15 12 40.3 12 32 12 23.75 17.9 17.9 23.75 12 32 12 40.3 12 46.15 17.9 52 23.75 52 32"/>
    <path stroke="none" fill="#E2C3AB" d="M32 14 Q39.45 14 44.75 19.3 L44.75 19.35 Q50 24.6 50 32 50 39.45 44.75 44.75 39.45 50 32 50 24.6 50 19.35 44.75 L19.3 44.75 Q14 39.45 14 32 14 24.6 19.3 19.35 L19.35 19.3 Q24.6 14 32 14"/>
    <path stroke="none" fill="#FFFFFF" d="M32 4 Q43.6 4 51.8 12.25 60 20.45 60 32 60 43.6 51.8 51.8 43.6 60 32 60 20.45 60 12.25 51.8 4 43.6 4 32 4 20.45 12.2 12.25 L12.25 12.2 Q20.45 4 32 4 M32 8 Q22.1 8 15.1 15.05 L15.05 15.1 Q8 22.1 8 32 8 41.95 15.1 49 22.1 56 32 56 41.95 56 49 49 56 41.95 56 32 56 22.1 49 15.1 41.95 8 32 8"/>
    <path stroke="none" fill="#AF815D" d="M32 8 Q41.95 8 49 15.1 56 22.1 56 32 56 41.95 49 49 41.95 56 32 56 22.1 56 15.1 49 8 41.95 8 32 8 22.1 15.05 15.1 L15.1 15.05 Q22.1 8 32 8 M52 32 Q52 23.75 46.15 17.9 40.3 12 32 12 23.75 12 17.9 17.9 12 23.75 12 32 12 40.3 17.9 46.15 23.75 52 32 52 40.3 52 46.15 46.15 52 40.3 52 32"/>
    <path stroke="none" fill="#916E53" d="M35.25 42.2 Q33.9 43.5 32 43.5 30.1 43.5 28.65 42.15 L28.65 42.1 28.25 41.65 Q27.95 41.3 28 40.9 28.05 40.5 28.4 40.25 28.7 39.95 29.1 40 29.5 40.05 29.8 40.4 L30.05 40.7 Q30.9 41.5 32 41.5 33.15 41.5 33.95 40.7 L34.05 40.6 34.15 40.5 Q34.35 40.1 34.75 40.05 L35.5 40.15 36 40.75 35.85 41.55 35.25 42.2"/>
    <path stroke="none" fill="#353541" d="M43.05 29 Q43.05 28.15 42.45 27.55 41.85 27 41.05 27 40.2 27 39.65 27.55 39.05 28.15 39.05 29 39.05 29.8 39.65 30.4 40.2 31 41.05 31 41.85 31 42.45 30.4 43.05 29.8 43.05 29 M24 25 L39.9 25 Q42.4 25 44.2 26.75 46 28.5 46 31 46 33.5 44.2 35.3 42.4 37.05 39.9 37.05 L24 37.05 Q21.5 37.05 19.75 35.3 18 33.5 18 31 18 28.5 19.75 26.75 21.5 25 24 25"/>
    <path stroke="none" fill="#5D5D67" d="M43.05 29 Q43.05 29.8 42.45 30.4 41.85 31 41.05 31 40.2 31 39.65 30.4 39.05 29.8 39.05 29 39.05 28.15 39.65 27.55 40.2 27 41.05 27 41.85 27 42.45 27.55 43.05 28.15 43.05 29"/>
  </g>
</svg>