<svg width="64" height="64" xmlns="http://www.w3.org/2000/svg" xmlns:xlink="http://www.w3.org/1999/xlink">
  <defs/>
  <g>
    <path stroke="none" fill="#92A1AD" d="M22.1 45.1 L24.4 46.4 27.65 47.75 30.6 48.8 31.9 49.25 32.65 47.65 34.5 43.4 37 37.6 39.8 31.3 42.3 25.55 44.15 21.3 44.85 19.65 44.35 18.9 43.2 17.3 42 15.7 41.4 15 39.8 14.95 35.85 14.85 30.7 14.75 25.45 14.75 21.25 14.95 19.25 15.35 Q18.95 15.7 19 17.05 L19.2 20.2 19.75 23.8 20.25 26.75 20.5 28 21.7 28 24.2 27.9 26.65 27.8 27.75 27.75 27.55 23.5 33 23.55 22.1 45.1 M43.2 11.45 Q43.7 11.35 45.15 13.25 L45.2 13.25 46.45 14.95 47.6 16.6 Q49.45 19.15 48.85 19.65 49.15 19.85 47.85 22.9 L46 27.15 45.95 27.2 43.5 32.9 43.45 32.95 40.7 39.2 40.65 39.25 38.2 45 36.35 49.25 36.3 49.3 Q35.05 52.1 34.75 52.1 33.55 53.25 31.9 53.25 L29.2 52.55 29.4 52.6 26.25 51.5 22.75 50.05 19.6 48.25 Q18.5 47.35 18.2 45.95 17.9 44.55 18.55 43.3 L24.3 31.9 21.9 32 Q18.95 32.15 18.7 31.6 17.7 31.05 17.1 30.1 16.5 29.15 16.5 28 L16.35 27.6 15.85 24.6 15.25 20.65 15 17.2 15 17.05 Q14.9 13.55 16.25 12.75 L16.65 12.35 Q17.3 11.2 21 10.95 L20.9 11 25.4 10.75 30.8 10.75 35.95 10.85 39.95 10.95 41.4 11 Q42.35 11 43.2 11.45"/>
    <path stroke="none" fill="#FFFFFF" d="M22.1 45.1 L33 23.55 27.55 23.5 27.75 27.75 26.65 27.8 24.2 27.9 21.7 28 20.5 28 20.25 26.75 19.75 23.8 19.2 20.2 19 17.05 Q18.95 15.7 19.25 15.35 L21.25 14.95 25.45 14.75 30.7 14.75 35.85 14.85 39.8 14.95 41.4 15 42 15.7 43.2 17.3 44.35 18.9 44.85 19.65 44.15 21.3 42.3 25.55 39.8 31.3 37 37.6 34.5 43.4 32.65 47.65 31.9 49.25 30.6 48.8 27.65 47.75 24.4 46.4 22.1 45.1"/>
  </g>
</svg>