<svg width="64" height="64" xmlns="http://www.w3.org/2000/svg" xmlns:xlink="http://www.w3.org/1999/xlink">
  <defs/>
  <g>
    <path stroke="none" fill="#474758" d="M16 44 L17.9 46.15 Q23.75 52 32 52 40.3 52 46.15 46.15 L48 44.05 Q52 38.85 52 32 52 23.75 46.15 17.9 40.3 12 32 12 23.75 12 17.9 17.9 12 23.75 12 32 12 38.85 16 44 M32 8 Q41.95 8 49 15.1 56 22.1 56 32 56 41.95 49 49 L48 49.9 Q45.1 52.5 41.8 54 38.5 55.45 34.8 55.85 L32.3 56 32 56 31.9 56 29.35 55.85 Q25.55 55.5 22.25 54 18.9 52.5 16 49.85 L15.1 49 Q8 41.95 8 32 8 22.1 15.05 15.1 L15.1 15.05 Q22.1 8 32 8"/>
    <path stroke="none" fill="#656574" d="M16 44 Q12 38.85 12 32 12 23.75 17.9 17.9 23.75 12 32 12 40.3 12 46.15 17.9 52 23.75 52 32 52 38.85 48 44.05 L46.15 46.15 Q40.3 52 32 52 23.75 52 17.9 46.15 L16 44"/>
    <path stroke="none" fill="#FFFFFF" d="M32 4 Q43.6 4 51.8 12.25 60 20.45 60 32 60 43.6 51.8 51.8 43.6 60 32 60 20.45 60 12.25 51.8 4 43.6 4 32 4 20.45 12.2 12.25 L12.25 12.2 Q20.45 4 32 4 M32 8 Q22.1 8 15.1 15.05 L15.05 15.1 Q8 22.1 8 32 8 41.95 15.1 49 L16 49.85 Q18.9 52.5 22.25 54 25.55 55.5 29.35 55.85 L31.9 56 32 56 32.3 56 34.8 55.85 Q38.5 55.45 41.8 54 45.1 52.5 48 49.9 L49 49 Q56 41.95 56 32 56 22.1 49 15.1 41.95 8 32 8"/>
    <path stroke="none" fill="#FABA2D" d="M16 44 L16 27.75 Q16.15 23.9 20.7 21.15 25.4 18.3 32 18.3 38.6 18.3 43.3 21.15 47.85 23.9 48 27.75 L48 44.05 46.15 46.15 Q40.3 52 32 52 23.75 52 17.9 46.15 L16 44"/>
    <path stroke="none" fill="#B76019" d="M34.6 40.95 Q33.5 42 32 42 30.5 42 29.3 40.9 L29 40.5 Q28.75 40.25 28.8 39.9 L29.1 39.4 Q29.35 39.15 29.7 39.2 L30.25 39.5 30.45 39.75 Q31.1 40.4 32 40.4 32.9 40.4 33.55 39.75 L33.65 39.7 33.7 39.6 34.2 39.25 34.8 39.3 35.2 39.8 35.1 40.45 34.6 40.95"/>
    <path stroke="none" fill="#353541" d="M35.55 33.1 L35.65 33.1 Q36.7 32 38.4 32 40 32 41.15 33.1 L41.2 33.1 41.25 33.15 Q42.4 34.3 42.4 36 L41.95 37.1 Q41.5 37.6 40.8 37.6 L36 37.6 Q35.3 37.6 34.9 37.1 34.4 36.65 34.4 36 34.4 34.35 35.55 33.15 L35.55 33.1 M41.6 35.2 Q41.6 34.5 41.1 34.05 40.65 33.6 40 33.6 39.3 33.6 38.9 34.05 38.4 34.5 38.4 35.2 38.4 35.85 38.9 36.3 39.3 36.8 40 36.8 40.65 36.8 41.1 36.3 41.6 35.85 41.6 35.2 M22.85 33.1 Q23.9 32 25.6 32 27.2 32 28.35 33.1 L28.4 33.1 28.45 33.15 Q29.6 34.3 29.6 36 29.6 36.65 29.15 37.1 28.7 37.6 28 37.6 L23.2 37.6 Q22.5 37.6 22.1 37.1 21.6 36.65 21.6 36 21.6 34.35 22.75 33.15 L22.75 33.1 22.85 33.1 M28.8 35.2 Q28.8 34.5 28.3 34.05 27.85 33.6 27.2 33.6 26.5 33.6 26.1 34.05 25.6 34.5 25.6 35.2 25.6 35.85 26.1 36.3 26.5 36.8 27.2 36.8 27.85 36.8 28.3 36.3 28.8 35.85 28.8 35.2"/>
    <path stroke="none" fill="#5D5D67" d="M28.8 35.2 Q28.8 35.85 28.3 36.3 27.85 36.8 27.2 36.8 26.5 36.8 26.1 36.3 25.6 35.85 25.6 35.2 25.6 34.5 26.1 34.05 26.5 33.6 27.2 33.6 27.85 33.6 28.3 34.05 28.8 34.5 28.8 35.2 M41.6 35.2 Q41.6 35.85 41.1 36.3 40.65 36.8 40 36.8 39.3 36.8 38.9 36.3 38.4 35.85 38.4 35.2 38.4 34.5 38.9 34.05 39.3 33.6 40 33.6 40.65 33.6 41.1 34.05 41.6 34.5 41.6 35.2"/>
    <path stroke="none" fill="#FFFFFF" fill-opacity="0.2" d="M25.95 26.35 Q25.95 27.55 25.05 28.4 24.2 29.25 23 29.25 21.8 29.25 20.95 28.4 20.1 27.55 20.1 26.35 20.1 25.15 20.95 24.3 21.8 23.45 23 23.45 24.2 23.45 25.05 24.3 25.95 25.15 25.95 26.35"/>
    <path stroke="none" fill="#FFFFFF" fill-opacity="0.2" d="M49 21.55 Q49 25.15 46.4 27.65 43.85 30.25 40.25 30.25 36.65 30.25 34.05 27.65 31.55 25.15 31.55 21.55 31.55 17.95 34.05 15.3 36.65 12.8 40.25 12.8 43.85 12.8 46.4 15.3 49 17.95 49 21.55"/>
  </g>
</svg>