<svg width="64" height="64" xmlns="http://www.w3.org/2000/svg" xmlns:xlink="http://www.w3.org/1999/xlink">
  <defs/>
  <g>
    <path stroke="none" fill="#92A1AD" d="M31.25 10.9 L31.3 10.9 Q35.3 10.85 38.55 12.05 L38.65 12.1 Q42.3 13.5 44.55 16.3 L44.6 16.4 Q46.9 19.3 47 24 L47 24.1 Q47.05 26 46.6 27.85 46.15 29.6 44.95 31.85 L44.9 31.9 41.85 36.6 42.95 36.55 Q44 36.55 44.95 37.05 45.9 37.6 46.45 38.5 46.95 39.05 47.25 41.2 L47.25 41.25 47.35 43.8 47.3 46.4 47.15 48.6 Q46.95 51.05 44.25 52.2 42.55 52.9 41.15 52.9 L37.25 52.95 32.2 53.05 32.1 53.05 27.2 53.1 27.1 53.1 23.25 53.1 20.35 52.85 18.8 51.55 Q17.7 50.25 17.4 49.05 L17.4 49 17 46.75 17 46.6 16.7 44.15 16.65 44 Q16.6 42.55 16.7 41.85 16.8 40.65 17.55 39.75 L23.9 31.95 25 30.6 Q23.7 30.05 22.15 28.4 L20.1 25.9 20.05 25.85 18.35 23.2 Q17.1 21.05 17.15 20.4 L17.1 19.75 Q16.65 18.6 18.65 16.15 L18.75 16.05 Q19.6 14.95 21.35 13.8 L21.4 13.75 Q23.05 12.55 25.7 11.75 28.05 10.9 31.25 10.9 M21.6 49.05 L23.25 49.1 27.1 49.1 32.1 49.05 37.15 48.95 41.15 48.9 42.95 48.95 43.15 48.15 43.3 46.2 43.35 43.8 43.25 41.65 43 40.55 33.7 40.7 38.6 34.25 41.4 29.95 Q42.35 28.2 42.7 26.85 43.05 25.5 43 24.15 42.95 20.85 41.4 18.8 39.8 16.8 37.2 15.8 34.55 14.85 31.3 14.9 L26.85 15.55 Q24.9 16.15 23.65 17.05 L21.75 18.65 Q21.1 19.45 21.1 19.75 L21.8 21.15 23.35 23.55 25.05 25.65 Q25.85 26.5 26.15 26.3 L26.65 25.75 Q27.15 25.15 28.15 24.6 29.15 24.05 30.65 24 31.35 24.05 31.9 24.6 32.45 25.1 32.5 25.7 L32.15 27.5 30.6 29.95 27 34.45 20.65 42.25 20.65 43.8 20.95 46.05 21.3 48.1 21.6 49.05"/>
    <path stroke="none" fill="#FFFFFF" d="M21.6 49.05 L21.3 48.1 20.95 46.05 20.65 43.8 20.65 42.25 27 34.45 30.6 29.95 32.15 27.5 32.5 25.7 Q32.45 25.1 31.9 24.6 31.35 24.05 30.65 24 29.15 24.05 28.15 24.6 27.15 25.15 26.65 25.75 L26.15 26.3 Q25.85 26.5 25.05 25.65 L23.35 23.55 21.8 21.15 21.1 19.75 Q21.1 19.45 21.75 18.65 L23.65 17.05 Q24.9 16.15 26.85 15.55 L31.3 14.9 Q34.55 14.85 37.2 15.8 39.8 16.8 41.4 18.8 42.95 20.85 43 24.15 43.05 25.5 42.7 26.85 42.35 28.2 41.4 29.95 L38.6 34.25 33.7 40.7 43 40.55 43.25 41.65 43.35 43.8 43.3 46.2 43.15 48.15 42.95 48.95 41.15 48.9 37.15 48.95 32.1 49.05 27.1 49.1 23.25 49.1 21.6 49.05"/>
  </g>
</svg>