<svg width="64" height="64" xmlns="http://www.w3.org/2000/svg" xmlns:xlink="http://www.w3.org/1999/xlink">
  <defs/>
  <g>
    <path stroke="none" fill="#FFFFFF" d="M14 27.65 L14.2 29.9 Q14.85 33.45 17.4 35.85 31.05 47.95 32 48 33.25 48.1 46.6 35.85 49.15 33.45 49.8 29.9 L50 27.65 Q50 22.9 46.75 19.5 L46.6 19.35 Q43.3 16.2 38.5 16 L36.35 16.2 Q33.85 16.6 32 17.9 30.15 16.6 27.65 16.2 L25.5 16 Q20.7 16.2 17.4 19.35 L17.25 19.5 Q14 22.9 14 27.65 M32 13.35 Q33 12.85 35 12.45 L38.7 12 Q44.35 12.3 49.05 16.2 51.15 17.95 52.6 21.25 54 24.55 54 27.65 L53.75 30.65 Q52.85 35.5 49.35 38.8 L49.3 38.8 Q34.75 52.15 32 52.05 L31.8 52 Q31.1 52.2 22.8 45.5 L14.65 38.8 Q12.3 36.6 10.25 30.45 L10 27.65 Q10 21.4 14.2 16.9 17.9 13.95 19.65 13.3 22.15 12.35 25.9 12.4 30.85 12.8 32 13.35"/>
    <path stroke="none" fill="#353541" d="M14 27.65 Q14 22.9 17.25 19.5 L17.4 19.35 Q20.7 16.2 25.5 16 L27.65 16.2 Q30.15 16.6 32 17.9 33.85 16.6 36.35 16.2 L38.5 16 Q43.3 16.2 46.6 19.35 L46.75 19.5 Q50 22.9 50 27.65 L49.8 29.9 Q49.15 33.45 46.6 35.85 33.25 48.1 32 48 31.05 47.95 17.4 35.85 14.85 33.45 14.2 29.9 L14 27.65 M32 23.35 Q31.25 22.25 30.15 21.5 28 19.9 25.65 20 22.4 20.1 20.15 22.25 18 24.5 18 27.65 L18.15 29.2 Q18.55 31.45 20.15 32.95 31.6 44 32 44 L43.85 32.95 Q45.45 31.45 45.85 29.2 L46 27.65 Q46 24.5 43.85 22.25 41.6 20.1 38.35 20 36 19.9 33.85 21.5 32.75 22.25 32 23.35"/>
    <path stroke="none" fill="#E8EBEE" d="M32 23.35 Q32.75 22.25 33.85 21.5 36 19.9 38.35 20 41.6 20.1 43.85 22.25 46 24.5 46 27.65 L45.85 29.2 Q45.45 31.45 43.85 32.95 L32 44 Q31.6 44 20.15 32.95 18.55 31.45 18.15 29.2 L18 27.65 Q18 24.5 20.15 22.25 22.4 20.1 25.65 20 28 19.9 30.15 21.5 31.25 22.25 32 23.35 M32 25.35 L31.4 25.25 Q30.75 25.05 30.35 24.5 L29.05 23.15 28.95 23.1 Q27.4 21.95 25.75 22 L25.7 22 Q23.3 22.05 21.6 23.65 L21.55 23.7 Q20 25.35 20 27.65 L20.15 28.85 Q20.4 30.45 21.55 31.5 32 41.6 32 42 32 41.6 42.45 31.5 43.6 30.45 43.85 28.85 L44 27.65 Q44 25.35 42.45 23.7 L42.4 23.65 Q40.7 22.05 38.3 22 L38.25 22 Q36.6 21.95 35.05 23.1 L34.95 23.15 Q34.2 23.7 33.65 24.5 L32.6 25.25 32 25.35"/>
    <path stroke="none" fill="#92A1AD" d="M32 25.35 L32.6 25.25 33.65 24.5 Q34.2 23.7 34.95 23.15 L35.05 23.1 Q36.6 21.95 38.25 22 L38.3 22 Q40.7 22.05 42.4 23.65 L42.45 23.7 Q44 25.35 44 27.65 L43.85 28.85 Q43.6 30.45 42.45 31.5 32 41.6 32 42 32 41.6 21.55 31.5 20.4 30.45 20.15 28.85 L20 27.65 Q20 25.35 21.55 23.7 L21.6 23.65 Q23.3 22.05 25.7 22 L25.75 22 Q27.4 21.95 28.95 23.1 L29.05 23.15 30.35 24.5 Q30.75 25.05 31.4 25.25 L32 25.35"/>
  </g>
</svg>