<svg width="64" height="64" xmlns="http://www.w3.org/2000/svg" xmlns:xlink="http://www.w3.org/1999/xlink">
  <defs/>
  <g>
    <path stroke="none" fill="#92A1AD" d="M41.25 16.05 L41.85 16.45 42.55 17 42.7 17.1 43.15 17.5 44.3 18.6 44.35 18.65 Q48.45 22.75 45.3 25.4 L44.35 26.85 42.4 29.7 42.15 30.05 41.75 30.6 Q42.85 30.8 43.75 31.25 L43.85 31.3 Q45.95 32.3 47.1 34.1 48.4 35.9 48.5 38.55 L48.5 38.7 Q48.45 41 47.4 42.85 L47.55 42.65 Q46.55 44.65 44.5 45.9 L44.35 46 Q42.45 47.1 39.65 47.1 37.35 47.1 35.55 46.4 L35.45 46.35 Q33.25 45.4 32.05 43.7 L30.3 46.05 29.85 46.5 Q25.65 51.2 23.35 48.6 L22.85 48.35 21.25 47.15 21.2 47.1 20.15 46.05 20 45.9 19.9 45.8 19.85 45.75 19.35 45.3 19.15 45.15 Q14.65 41.1 17.55 38.8 17.9 38.05 18.5 37.45 L18.55 37.4 18.95 36.85 21.3 33.75 21.25 33.75 21.6 33.3 20.15 32.85 20.2 32.85 Q17.95 32.05 16.65 30.15 15.25 28.5 15.25 25.5 15.25 22.5 16.75 20.8 18.05 19 20.2 18.2 L20.4 18.15 Q22.05 17.6 23.95 17.6 26.3 17.6 28 18.4 29.85 19.25 31.05 20.85 L33.1 18.2 33.25 18 Q35.6 15.1 36.75 15 38.15 14 41.25 16.05 M36.35 20.55 L36.3 20.55 34.05 23.55 34 23.55 30.9 27.6 27.5 32.1 24.45 36.15 22.15 39.2 Q21.7 39.8 22.05 39.95 21.65 39.95 21.35 40.25 21.05 40.55 21.05 40.95 20.8 41.25 21.8 42.1 L21.85 42.15 22.8 43.05 22.85 43.1 23.9 44.15 24.8 44.85 25.3 45 Q25.65 45.25 27.05 43.6 L27.1 43.6 29.45 40.6 29.45 40.55 32.5 36.45 35.85 31.9 38.9 27.75 38.9 27.7 41.1 24.55 42.05 22.95 42.05 23 Q42.5 22.45 41.45 21.4 L40.45 20.4 40.35 20.35 39.35 19.55 39.3 19.55 Q38.35 18.9 38.1 19 L37.65 19.1 Q37.45 19.1 36.35 20.55 M34.55 38.7 Q34.55 40.3 35.2 41.2 35.8 42.15 37 42.65 L39.65 43.1 Q41.3 43.1 42.4 42.5 43.45 41.85 43.95 40.85 44.5 39.9 44.5 38.7 44.45 37.3 43.8 36.35 43.2 35.4 42.1 34.9 41.05 34.4 39.6 34.4 L37.05 34.8 Q35.85 35.2 35.2 36.15 34.55 37.15 34.55 38.7 M24 29.5 Q25.55 29.5 26.55 28.95 L28.05 27.5 Q28.55 26.55 28.55 25.5 28.55 24.25 27.95 23.4 27.35 22.5 26.35 22.05 25.35 21.6 23.95 21.6 L21.6 21.95 Q20.55 22.35 19.9 23.2 19.25 24.05 19.25 25.5 19.25 26.95 19.85 27.75 20.45 28.7 21.55 29.1 L24 29.5"/>
    <path stroke="none" fill="#FFFFFF" d="M24 29.5 L21.55 29.1 Q20.45 28.7 19.85 27.75 19.25 26.95 19.25 25.5 19.25 24.05 19.9 23.2 20.55 22.35 21.6 21.95 L23.95 21.6 Q25.35 21.6 26.35 22.05 27.35 22.5 27.95 23.4 28.55 24.25 28.55 25.5 28.55 26.55 28.05 27.5 L26.55 28.95 Q25.55 29.5 24 29.5 M36.35 20.55 Q37.45 19.1 37.65 19.1 L38.1 19 Q38.35 18.9 39.3 19.55 L39.35 19.55 40.35 20.35 40.45 20.4 41.45 21.4 Q42.5 22.45 42.05 23 L42.05 22.95 41.1 24.55 38.9 27.7 38.9 27.75 35.85 31.9 32.5 36.45 29.45 40.55 29.45 40.6 27.1 43.6 27.05 43.6 Q25.65 45.25 25.3 45 L24.8 44.85 23.9 44.15 22.85 43.1 22.8 43.05 21.85 42.15 21.8 42.1 Q20.8 41.25 21.05 40.95 21.05 40.55 21.35 40.25 21.65 39.95 22.05 39.95 21.7 39.8 22.15 39.2 L24.45 36.15 27.5 32.1 30.9 27.6 34 23.55 34.05 23.55 36.3 20.55 36.35 20.55 M34.55 38.7 Q34.55 37.15 35.2 36.15 35.85 35.2 37.05 34.8 L39.6 34.4 Q41.05 34.4 42.1 34.9 43.2 35.4 43.8 36.35 44.45 37.3 44.5 38.7 44.5 39.9 43.95 40.85 43.45 41.85 42.4 42.5 41.3 43.1 39.65 43.1 L37 42.65 Q35.8 42.15 35.2 41.2 34.55 40.3 34.55 38.7"/>
  </g>
</svg>