<svg width="64" height="64" xmlns="http://www.w3.org/2000/svg" xmlns:xlink="http://www.w3.org/1999/xlink">
  <defs>
    <linearGradient gradientUnits="userSpaceOnUse" x1="-819.2" x2="819.2" spreadMethod="pad" gradientTransform="matrix(-0.0027618408203125 -0.0027618408203125 0.0027618408203125 -0.0027618408203125 42.35 31.15)" id="gradient0">
      <stop offset="0" stop-color="#E54341"/>
      <stop offset="1" stop-color="#BC2423"/>
    </linearGradient>
  </defs>
  <g>
    <path stroke="none" fill="#353541" d="M27.6 24 L30.85 24.45 36.65 18.65 Q38.5 16.8 41.2 16.8 43.9 16.8 45.75 18.65 47.6 20.5 47.6 23.15 L47.55 23.25 47.4 24.9 49.1 26.6 Q52.45 29.95 49.25 33.25 L44.6 37.9 Q42.35 40.15 40.15 39.45 39.45 43.05 36.65 45.85 32.95 49.55 27.65 49.55 22.3 49.6 18.55 45.85 14.8 42.1 14.8 36.8 L14.85 36.75 Q14.85 31.45 18.55 27.75 22.3 24 27.6 24 M43.45 25.45 L43.5 25.4 Q44.4 24.5 44.4 23.2 44.4 21.9 43.45 20.95 42.5 20 41.2 20 39.9 20 38.95 20.95 L31.8 28.1 Q29 27.2 27.6 27.2 23.6 27.2 20.8 30 18 32.8 18 36.8 18.05 40.75 20.85 43.55 23.65 46.35 27.6 46.4 31.6 46.4 34.4 43.6 37 41 37.2 37.4 L37.2 36.8 Q37.2 34.5 36.3 32.6 L36.65 32.25 40.05 35.65 Q41.2 36.8 42.35 35.65 L43.5 34.5 42.35 33.35 44.6 31.1 45.75 32.25 46.95 31.05 Q47.95 29.95 46.85 28.85 L43.45 25.45 M29.9 34.5 Q30.85 35.45 30.8 36.8 30.8 38.1 29.85 39.05 28.95 39.95 27.6 40 26.3 40 25.35 39.05 24.4 38.1 24.4 36.8 24.45 35.45 25.35 34.55 26.3 33.6 27.6 33.6 28.95 33.55 29.9 34.5"/>
    <path stroke="none" fill="#E54341" d="M29.9 34.5 Q28.95 33.55 27.6 33.6 26.3 33.6 25.35 34.55 24.45 35.45 24.4 36.8 24.4 38.1 25.35 39.05 26.3 40 27.6 40 28.95 39.95 29.85 39.05 30.8 38.1 30.8 36.8 30.85 35.45 29.9 34.5 M36.65 32.25 L36.3 32.6 Q37.2 34.5 37.2 36.8 L37.2 37.4 Q37 41 34.4 43.6 31.6 46.4 27.6 46.4 23.65 46.35 20.85 43.55 18.05 40.75 18 36.8 18 32.8 20.8 30 23.6 27.2 27.6 27.2 29 27.2 31.8 28.1 L38.95 20.95 Q39.9 20 41.2 20 42.5 20 43.45 20.95 44.4 21.9 44.4 23.2 44.4 24.5 43.5 25.4 L43.45 25.45 36.65 32.25"/>
    <path stroke="none" fill="#FFFFFF" d="M27.6 24 Q22.3 24 18.55 27.75 14.85 31.45 14.85 36.75 L14.8 36.8 Q14.8 42.1 18.55 45.85 22.3 49.6 27.65 49.55 32.95 49.55 36.65 45.85 39.45 43.05 40.15 39.45 42.35 40.15 44.6 37.9 L49.25 33.25 Q52.45 29.95 49.1 26.6 L47.4 24.9 47.55 23.25 47.6 23.15 Q47.6 20.5 45.75 18.65 43.9 16.8 41.2 16.8 38.5 16.8 36.65 18.65 L30.85 24.45 27.6 24 M41.2 12.8 Q45.55 12.8 48.6 15.85 51.6 18.85 51.6 23.15 L51.65 23.5 51.95 23.8 Q58.1 29.95 52.15 36.05 L47.45 40.75 Q45.25 42.9 43.1 43.5 41.85 46.3 39.5 48.7 34.6 53.55 27.7 53.55 L27.65 53.55 Q20.65 53.6 15.75 48.7 10.8 43.75 10.8 36.8 L10.9 36.1 Q11.1 29.55 15.75 24.95 20.6 20.05 27.45 20 L27.6 20 29.55 20.15 33.85 15.85 Q36.85 12.8 41.2 12.8"/>
    <path stroke="none" fill="url(#gradient0)" d="M43.45 25.45 L46.85 28.85 Q47.95 29.95 46.95 31.05 L45.75 32.25 44.6 31.1 42.35 33.35 43.5 34.5 42.35 35.65 Q41.2 36.8 40.05 35.65 L36.65 32.25 43.45 25.45"/>
  </g>
</svg>