<svg width="64" height="64" xmlns="http://www.w3.org/2000/svg" xmlns:xlink="http://www.w3.org/1999/xlink">
  <defs/>
  <g>
    <path stroke="none" fill="#92A1AD" d="M44.3 21.8 Q43.7 25.05 42.9 25.2 L41.45 26.15 41.6 26.25 41.65 26.3 Q44.1 28.15 45.75 31.05 47.45 33.95 47.5 38.3 L47.5 38.4 Q47.45 43.1 45.2 46.45 43 49.8 39.4 51.55 L39.5 51.55 Q36.1 53.25 32.2 53.3 L32 53.3 Q27.7 53.2 24.8 51.8 L24.75 51.75 Q21.7 50.3 19.9 48.4 L17.3 45.1 Q16.05 43 16.8 40.55 17.25 39.1 17.95 38.35 L19.7 36.4 19.8 36.25 20.3 35.75 19.35 34.6 Q18.25 33.35 18.35 31.7 L19.6 14.75 Q19.7 13.2 20.9 12.15 22.05 11.05 23.6 11.05 L24.65 11 27.65 10.9 31.55 10.8 35.75 10.7 39.2 10.7 39.35 10.7 42.4 11.05 Q43.6 11.45 44.35 12.55 45.1 13.55 45.1 14.85 L45 16.35 45 16.55 44.7 18.95 44.7 19.1 44.35 21.65 44.3 21.8 M20.15 41.9 L20.75 43.05 22.75 45.6 Q24.15 47.05 26.45 48.15 28.75 49.2 32.1 49.3 35.1 49.25 37.65 47.95 40.25 46.7 41.85 44.25 43.45 41.8 43.5 38.35 43.45 35.15 42.25 33 41.05 30.85 39.25 29.5 37.45 28.2 35.7 27.55 L32.7 26.6 31.4 26.4 31.75 22.7 32.6 22.7 34.6 22.6 37 22.5 39.1 22.4 40.05 22.35 40.35 21.1 40.7 18.55 41 16 41.1 14.85 39.2 14.7 35.85 14.7 31.7 14.8 27.75 14.9 24.8 15 23.6 15.05 22.35 32 23.6 33.45 26.1 33.5 29.4 34.1 Q31.05 34.5 32.2 35.55 33.35 36.6 33.4 38.45 L32.95 39.6 Q32.55 40.2 31.45 40.25 30.15 40.25 29.1 39.65 L27.35 38.2 26.15 36.75 25.55 36.15 24.55 37.05 22.7 39 20.95 41 20.15 41.9"/>
    <path stroke="none" fill="#FFFFFF" d="M20.15 41.9 L20.95 41 22.7 39 24.55 37.05 25.55 36.15 26.15 36.75 27.35 38.2 29.1 39.65 Q30.15 40.25 31.45 40.25 32.55 40.2 32.95 39.6 L33.4 38.45 Q33.35 36.6 32.2 35.55 31.05 34.5 29.4 34.1 L26.1 33.5 23.6 33.45 22.35 32 23.6 15.05 24.8 15 27.75 14.9 31.7 14.8 35.85 14.7 39.2 14.7 41.1 14.85 41 16 40.7 18.55 40.35 21.1 40.05 22.35 39.1 22.4 37 22.5 34.6 22.6 32.6 22.7 31.75 22.7 31.4 26.4 32.7 26.6 35.7 27.55 Q37.45 28.2 39.25 29.5 41.05 30.85 42.25 33 43.45 35.15 43.5 38.35 43.45 41.8 41.85 44.25 40.25 46.7 37.65 47.95 35.1 49.25 32.1 49.3 28.75 49.2 26.45 48.15 24.15 47.05 22.75 45.6 L20.75 43.05 20.15 41.9"/>
  </g>
</svg>