<svg width="64" height="64" xmlns="http://www.w3.org/2000/svg" xmlns:xlink="http://www.w3.org/1999/xlink">
  <defs/>
  <g>
    <path stroke="none" fill="#FFFFFF" d="M20.35 41.95 L21.15 41.05 22.9 39.05 24.75 37.1 25.75 36.2 26.35 36.8 27.55 38.25 Q28.3 39.05 29.3 39.7 30.35 40.3 31.7 40.3 L32.85 39.95 33.4 39.15 33.6 38.4 Q33.55 36.75 32.2 36 30.9 35.25 28.9 35.25 28.7 35.05 28.7 34.05 L28.7 31.75 28.8 29.6 28.9 28.6 31.1 28.5 Q32.2 28.4 32.95 27.75 33.65 27.15 33.7 25.7 33.65 24.6 33 23.95 32.35 23.35 31.35 23.35 30.05 23.4 29 24.1 27.9 24.85 27.3 25.6 L26.65 26.4 25.9 25.7 24.25 24.15 22.65 22.35 Q21.95 21.5 21.95 21.05 L22.7 19.55 Q23.4 18.55 24.65 17.4 25.9 16.25 27.75 15.4 29.55 14.6 31.95 14.6 35.2 14.6 37.75 15.75 40.3 16.9 41.75 19.2 43.2 21.55 43.25 24.95 43.2 26.5 42.7 27.7 L41.45 29.65 40.25 30.8 39.7 31.15 40.35 31.6 41.7 32.95 Q42.5 33.85 43.1 35.2 43.7 36.55 43.7 38.4 43.7 41.85 42.05 44.3 40.45 46.75 37.85 48 35.25 49.3 32.3 49.35 28.95 49.25 26.65 48.15 24.35 47.05 22.95 45.65 L20.95 43.1 20.35 41.95"/>
    <path stroke="none" fill="#92A1AD" d="M20.35 41.95 L20.95 43.1 22.95 45.65 Q24.35 47.05 26.65 48.15 28.95 49.25 32.3 49.35 35.25 49.3 37.85 48 40.45 46.75 42.05 44.3 43.7 41.85 43.7 38.4 43.7 36.55 43.1 35.2 42.5 33.85 41.7 32.95 L40.35 31.6 39.7 31.15 40.25 30.8 41.45 29.65 42.7 27.7 Q43.2 26.5 43.25 24.95 43.2 21.55 41.75 19.2 40.3 16.9 37.75 15.75 35.2 14.6 31.95 14.6 29.55 14.6 27.75 15.4 25.9 16.25 24.65 17.4 23.4 18.55 22.7 19.55 L21.95 21.05 Q21.95 21.5 22.65 22.35 L24.25 24.15 25.9 25.7 26.65 26.4 27.3 25.6 Q27.9 24.85 29 24.1 30.05 23.4 31.35 23.35 32.35 23.35 33 23.95 33.65 24.6 33.7 25.7 33.65 27.15 32.95 27.75 32.2 28.4 31.1 28.5 L28.9 28.6 28.8 29.6 28.7 31.75 28.7 34.05 Q28.7 35.05 28.9 35.25 30.9 35.25 32.2 36 33.55 36.75 33.6 38.4 L33.4 39.15 32.85 39.95 31.7 40.3 Q30.35 40.3 29.3 39.7 28.3 39.05 27.55 38.25 L26.35 36.8 25.75 36.2 24.75 37.1 22.9 39.05 21.15 41.05 20.35 41.95 M26.15 11.75 Q28.6 10.6 31.95 10.6 36.15 10.6 39.4 12.1 43.05 13.75 45.15 17.1 47.2 20.3 47.25 24.9 L47.25 25.1 Q47.2 27.45 46.4 29.25 L46.3 29.45 45.35 31.1 Q46.15 32.15 46.75 33.6 47.7 35.6 47.7 38.4 47.7 43.15 45.4 46.55 L45.4 46.5 Q43.2 49.85 39.6 51.6 L39.65 51.6 Q36.25 53.3 32.4 53.35 L32.2 53.35 Q27.85 53.2 24.95 51.75 21.95 50.3 20.15 48.5 L20.05 48.4 Q18.3 46.55 17.5 45.15 L17.45 45.05 Q15.95 42.25 16.35 41.95 16.35 40.3 17.55 39.15 L18.15 38.4 19.9 36.45 20 36.3 21.85 34.35 21.95 34.3 Q23.9 32.25 24.5 32.4 L24.7 32.35 24.7 31.75 24.7 31.6 24.8 29.95 23.85 29.25 23.3 28.75 21.5 27.05 21.45 27 19.55 24.9 Q17.6 22.5 17.95 21.05 L18.05 20.2 Q18.15 19.35 19.3 17.45 L19.45 17.25 Q20.35 15.95 21.95 14.45 23.6 12.9 26.1 11.8 L26.15 11.75"/>
  </g>
</svg>