<svg width="64" height="64" xmlns="http://www.w3.org/2000/svg" xmlns:xlink="http://www.w3.org/1999/xlink">
  <defs/>
  <g>
    <path stroke="none" fill="#92A1AD" d="M20.65 10.95 L28.05 10.7 Q29.1 10.65 30.1 11.2 31.05 11.75 31.6 12.7 32.15 13.6 32.15 14.7 L32.8 14.7 34.45 14.75 34.65 14.75 36.95 14.8 38.7 14.85 38.95 14.85 39.6 14.9 Q41.25 14.9 42.45 16.1 43.6 17.25 43.6 18.9 L43.65 19.5 43.65 19.75 43.7 21.6 43.7 21.75 43.7 23.05 Q46.25 23.3 46.35 24.25 47.5 25.4 47.5 27.05 L47.5 34.4 Q47.65 36.35 46.25 37.45 45.1 38.3 43.3 38.5 L43.1 38.5 42.8 38.5 41.65 38.55 41.45 38.55 41.85 38.6 41.9 38.6 43.3 38.8 44.65 39.4 45.55 40.05 Q46.6 40.35 46.95 43.55 L46.95 43.75 47 46.1 47 46.3 46.9 49.2 Q46.9 53.25 41.7 53.25 L38.8 53.3 38.7 53.3 34.85 53.3 30.95 53.3 27.9 53.3 26.65 53.3 Q24.35 53.5 23.4 52.1 22.55 50.9 22.55 48.2 L22.6 45.7 22.65 43.4 22.65 43.2 22.7 42.35 Q22.7 40.75 23.85 39.6 24.8 38.55 26.15 38.4 L24.05 38.25 21.25 38.1 21.4 38.1 20.5 38.05 Q16.3 38.05 16.5 32.65 L16.5 32.5 16.55 29.1 16.55 29 16.6 24.5 16.65 19.95 16.65 19.85 16.7 16.4 16.7 16.25 16.75 14.95 Q16.75 13.35 17.9 12.2 19 11 20.65 10.95 M26.65 49.3 L27.9 49.3 30.95 49.3 34.85 49.3 38.7 49.3 41.7 49.25 42.9 49.2 42.95 48.2 43 46.1 42.95 43.95 42.7 42.85 41.6 42.6 40.05 42.5 39.25 42.45 39.25 41.6 39.25 39.6 39.3 37.3 39.3 35.35 39.35 34.55 40 34.55 41.4 34.55 42.8 34.5 43.5 34.4 43.5 27.05 42.9 26.95 41.6 26.9 40.3 26.95 39.75 26.95 39.75 26.1 39.7 24.1 39.7 21.75 39.65 19.75 39.6 18.9 38.7 18.85 36.75 18.8 34.45 18.75 32.5 18.7 31.7 18.65 31.3 26.5 28.1 26.5 28.15 14.7 20.75 14.95 20.7 16.4 20.65 19.95 20.6 24.55 20.55 29.1 20.5 32.65 20.5 34.05 21.6 34.1 24.3 34.25 27.45 34.45 30.1 34.6 31.25 34.65 31 42.2 26.7 42.35 26.65 43.4 26.6 45.85 26.55 48.2 26.65 49.3"/>
    <path stroke="none" fill="#FFFFFF" d="M26.65 49.3 L26.55 48.2 26.6 45.85 26.65 43.4 26.7 42.35 31 42.2 31.25 34.65 30.1 34.6 27.45 34.45 24.3 34.25 21.6 34.1 20.5 34.05 20.5 32.65 20.55 29.1 20.6 24.55 20.65 19.95 20.7 16.4 20.75 14.95 28.15 14.7 28.1 26.5 31.3 26.5 31.7 18.65 32.5 18.7 34.45 18.75 36.75 18.8 38.7 18.85 39.6 18.9 39.65 19.75 39.7 21.75 39.7 24.1 39.75 26.1 39.75 26.95 40.3 26.95 41.6 26.9 42.9 26.95 43.5 27.05 43.5 34.4 42.8 34.5 41.4 34.55 40 34.55 39.35 34.55 39.3 35.35 39.3 37.3 39.25 39.6 39.25 41.6 39.25 42.45 40.05 42.5 41.6 42.6 42.7 42.85 42.95 43.95 43 46.1 42.95 48.2 42.9 49.2 41.7 49.25 38.7 49.3 34.85 49.3 30.95 49.3 27.9 49.3 26.65 49.3"/>
  </g>
</svg>