<svg width="64" height="64" xmlns="http://www.w3.org/2000/svg" xmlns:xlink="http://www.w3.org/1999/xlink">
  <defs/>
  <g>
    <path stroke="none" fill="#FFFFFF" d="M33.15 41.05 Q33.9 41.05 34.55 40.45 35.25 39.85 35.25 38.7 35.25 37.15 34.35 36.2 33.45 35.25 32.25 34.75 L30.1 34.3 Q29.65 35.1 29.55 36.2 29.45 37.3 29.8 38.4 30.1 39.5 30.95 40.25 31.75 41 33.15 41.05 M32.7 49.65 Q30.55 49.65 28.4 48.85 26.25 48 24.45 46.3 22.65 44.6 21.6 41.9 20.5 39.2 20.5 35.4 20.55 31.85 21.7 28.7 22.85 25.55 24.6 22.95 26.35 20.35 28.1 18.45 L31 15.55 32.2 14.55 Q32.25 14.5 33.3 15 L35.8 16.35 38.45 18 Q39.65 18.8 39.95 19.5 L39 20.2 36.75 21.9 34.35 24.25 Q33.2 25.55 32.6 26.95 34.5 27.3 36.35 28.2 38.25 29.1 39.85 30.5 41.45 31.95 42.4 34 43.4 36.05 43.45 38.8 43.4 42.4 41.95 44.85 40.45 47.25 38.05 48.45 35.6 49.65 32.7 49.65"/>
    <path stroke="none" fill="#92A1AD" d="M32.7 49.65 Q35.6 49.65 38.05 48.45 40.45 47.25 41.95 44.85 43.4 42.4 43.45 38.8 43.4 36.05 42.4 34 41.45 31.95 39.85 30.5 38.25 29.1 36.35 28.2 34.5 27.3 32.6 26.95 33.2 25.55 34.35 24.25 L36.75 21.9 39 20.2 39.95 19.5 Q39.65 18.8 38.45 18 L35.8 16.35 33.3 15 Q32.25 14.5 32.2 14.55 L31 15.55 28.1 18.45 Q26.35 20.35 24.6 22.95 22.85 25.55 21.7 28.7 20.55 31.85 20.5 35.4 20.5 39.2 21.6 41.9 22.65 44.6 24.45 46.3 26.25 48 28.4 48.85 30.55 49.65 32.7 49.65 M21.3 20.75 Q23.2 17.85 25.15 15.75 L28.4 12.55 29.4 11.7 Q30.05 9.05 35.05 11.4 L35.15 11.45 37.75 12.85 40.7 14.7 40.75 14.75 Q43.15 16.35 43.65 17.95 44.1 19.05 43.9 20.25 43.65 21.45 42.8 22.35 L41.35 23.45 41.25 23.5 39.3 25 39.35 25 39.15 25.15 Q40.9 26.15 42.5 27.5 L42.55 27.55 Q44.65 29.45 46 32.25 L46.05 32.35 Q47.4 35.05 47.45 38.75 L47.45 38.85 Q47.4 43.65 45.4 46.9 L45.35 47 Q43.25 50.35 39.85 52.05 L39.8 52.05 Q36.55 53.65 32.7 53.65 29.85 53.65 27 52.6 L26.95 52.6 Q24.1 51.45 21.7 49.2 19.3 46.95 17.9 43.4 L17.9 43.35 Q16.5 40.05 16.5 35.4 L16.5 35.35 Q16.55 31.1 17.95 27.35 19.25 23.7 21.3 20.75 M33.15 41.05 Q31.75 41 30.95 40.25 30.1 39.5 29.8 38.4 29.45 37.3 29.55 36.2 29.65 35.1 30.1 34.3 L32.25 34.75 Q33.45 35.25 34.35 36.2 35.25 37.15 35.25 38.7 35.25 39.85 34.55 40.45 33.9 41.05 33.15 41.05"/>
  </g>
</svg>