<svg width="64" height="64" xmlns="http://www.w3.org/2000/svg" xmlns:xlink="http://www.w3.org/1999/xlink">
  <defs/>
  <g>
    <path stroke="none" fill="#FFBDD1" d="M52 32 Q52 40.3 46.15 46.15 40.3 52 32 52 23.75 52 17.9 46.15 12 40.3 12 32 12 23.75 17.9 17.9 23.75 12 32 12 40.3 12 46.15 17.9 52 23.75 52 32 M32 14 Q24.6 14 19.35 19.3 L19.3 19.35 Q14 24.6 14 32 14 39.45 19.3 44.75 L19.35 44.75 Q24.6 50 32 50 39.45 50 44.75 44.75 50 39.45 50 32 50 24.6 44.75 19.35 L44.75 19.3 Q39.45 14 32 14"/>
    <path stroke="none" fill="#FF8AAE" d="M32 14 Q39.45 14 44.75 19.3 L44.75 19.35 Q50 24.6 50 32 50 39.45 44.75 44.75 39.45 50 32 50 24.6 50 19.35 44.75 L19.3 44.75 Q14 39.45 14 32 14 24.6 19.3 19.35 L19.35 19.3 Q24.6 14 32 14"/>
    <path stroke="none" fill="#FFFFFF" d="M32 4 Q43.6 4 51.8 12.25 60 20.45 60 32 60 43.6 51.8 51.8 43.6 60 32 60 20.45 60 12.25 51.8 4 43.6 4 32 4 20.45 12.2 12.25 L12.25 12.2 Q20.45 4 32 4 M32 8 Q22.1 8 15.1 15.05 L15.05 15.1 Q8 22.1 8 32 8 41.95 15.1 49 22.1 56 32 56 41.95 56 49 49 56 41.95 56 32 56 22.1 49 15.1 41.95 8 32 8"/>
    <path stroke="none" fill="#913F58" d="M32 8 Q41.95 8 49 15.1 56 22.1 56 32 56 41.95 49 49 41.95 56 32 56 22.1 56 15.1 49 8 41.95 8 32 8 22.1 15.05 15.1 L15.1 15.05 Q22.1 8 32 8 M52 32 Q52 23.75 46.15 17.9 40.3 12 32 12 23.75 12 17.9 17.9 12 23.75 12 32 12 40.3 17.9 46.15 23.75 52 32 52 40.3 52 46.15 46.15 52 40.3 52 32"/>
    <path stroke="none" fill="#FFFFFF" d="M40 29 Q40 32.3 37.6 34.6 35.35 37 32 37 28.6 37 26.35 34.6 24 32.3 24 29 24 25.65 26.35 23.25 28.6 21 32 21 35.35 21 37.6 23.25 40 25.65 40 29 M36 29 Q36 27.3 34.8 26.1 33.65 25 32 25 30.35 25 29.2 26.1 28 27.3 28 29 28 30.65 29.2 31.8 30.35 33 32 33 33.65 33 34.8 31.8 36 30.65 36 29"/>
    <path stroke="none" fill="#AF4D62" d="M36 29 Q36 30.65 34.8 31.8 33.65 33 32 33 30.35 33 29.2 31.8 28 30.65 28 29 28 27.3 29.2 26.1 30.35 25 32 25 33.65 25 34.8 26.1 36 27.3 36 29"/>
    <path stroke="none" fill="#AF4D62" d="M35.25 42.2 Q33.9 43.5 32 43.5 30.1 43.5 28.65 42.15 L28.65 42.1 28.25 41.65 Q27.95 41.3 28 40.9 28.05 40.5 28.4 40.25 28.7 39.95 29.1 40 29.5 40.05 29.8 40.4 L30.05 40.7 Q30.9 41.5 32 41.5 33.15 41.5 33.95 40.7 L34.05 40.6 34.15 40.5 Q34.35 40.1 34.75 40.05 L35.5 40.15 36 40.75 35.85 41.55 35.25 42.2"/>
  </g>
</svg>