<svg width="64" height="64" xmlns="http://www.w3.org/2000/svg" xmlns:xlink="http://www.w3.org/1999/xlink">
  <defs/>
  <g>
    <path stroke="none" fill="#FFFFFF" d="M32.05 49.65 L26.95 48.9 Q24.65 48.1 22.85 46.15 21.75 44.95 20.95 43.1 20.45 42.05 20.1 40.8 19.1 37.4 19.1 32.15 19.15 25.25 20.9 21.35 22.7 17.45 25.6 15.85 28.45 14.3 31.8 14.35 34.3 14.3 36.65 15.2 38.95 16.05 40.8 18.1 42.65 20.15 43.75 23.65 44.85 27.1 44.9 32.3 44.85 38.85 43.15 42.65 L42.95 43.1 Q41.35 46.55 38.6 48.05 35.7 49.7 32.05 49.65 M31.6 40.55 Q33.45 40.55 34.35 38.6 35.15 36.65 35.15 32.9 L34.85 28.25 Q34.5 26.25 33.75 25.05 33 23.9 31.75 23.85 30.5 23.9 29.75 25.05 28.95 26.25 28.6 28.15 28.2 30.05 28.2 32.35 28.2 36.2 29 38.35 29.85 40.5 31.6 40.55"/>
    <path stroke="none" fill="#92A1AD" d="M31.6 40.55 Q29.85 40.5 29 38.35 28.2 36.2 28.2 32.35 28.2 30.05 28.6 28.15 28.95 26.25 29.75 25.05 30.5 23.9 31.75 23.85 33 23.9 33.75 25.05 34.5 26.25 34.85 28.25 L35.15 32.9 Q35.15 36.65 34.35 38.6 33.45 40.55 31.6 40.55 M32.05 49.65 Q35.7 49.7 38.6 48.05 41.35 46.55 42.95 43.1 L43.15 42.65 Q44.85 38.85 44.9 32.3 44.85 27.1 43.75 23.65 42.65 20.15 40.8 18.1 38.95 16.05 36.65 15.2 34.3 14.3 31.8 14.35 28.45 14.3 25.6 15.85 22.7 17.45 20.9 21.35 19.15 25.25 19.1 32.15 19.1 37.4 20.1 40.8 20.45 42.05 20.95 43.1 21.75 44.95 22.85 46.15 24.65 48.1 26.95 48.9 L32.05 49.65 M38.05 11.45 Q41.2 12.6 43.8 15.45 46.15 18 47.6 22.45 L47.55 22.45 Q48.85 26.35 48.9 32.25 L48.9 32.35 Q48.85 38.95 47.3 43.1 L46.8 44.3 46.85 44.25 Q44.6 49.4 40.6 51.55 L40.55 51.55 Q36.75 53.7 32.05 53.65 L32 53.65 Q28.6 53.65 25.75 52.7 L25.65 52.7 Q22.4 51.6 19.9 48.9 L19.9 48.85 Q17.55 46.4 16.25 41.95 L16.3 41.95 Q15.1 38.1 15.1 32.15 15.15 25 16.85 20.65 L17.25 19.75 17.3 19.7 Q19.7 14.45 23.7 12.35 27.4 10.3 31.75 10.35 L31.85 10.35 Q35.05 10.3 38.05 11.45"/>
  </g>
</svg>