<svg width="64" height="64" xmlns="http://www.w3.org/2000/svg" xmlns:xlink="http://www.w3.org/1999/xlink">
  <defs/>
  <g>
    <path stroke="none" fill="#92A1AD" d="M41.85 18.85 L45.25 22.2 45.35 22.3 Q49.05 26.15 45.35 30 L45.3 30.1 43.25 32.1 45.25 34.05 45.4 34.2 Q49.1 38.25 45.3 41.9 L41.9 45.35 41.85 45.45 Q39.85 47.35 37.85 47.1 35.85 47.25 34.05 45.35 L32 43.35 30 45.35 Q28.05 47.25 26.1 47.05 24.05 47.25 22.2 45.35 L18.85 42 18.8 41.95 Q16.85 40.05 17.05 38.1 16.75 36.05 18.75 34.1 L20.7 32.1 18.7 30.1 18.75 30.1 Q14.8 26.15 18.75 22.25 L22.15 18.85 Q26.05 14.9 30 18.85 L32 20.85 33.95 18.9 34.05 18.8 Q35.95 16.85 38.05 17.15 39.95 16.95 41.85 18.85 M21.55 27.25 L26.35 32.1 21.55 36.9 Q20.45 38 21.6 39.1 L25 42.5 Q26.05 43.6 27.15 42.5 L31.95 37.7 36.85 42.5 39.05 42.55 42.45 39.1 Q43.5 38.05 42.45 36.9 L37.55 32.1 42.45 27.25 Q43.5 26.15 42.45 25.05 L39.05 21.7 36.85 21.65 31.95 26.5 27.15 21.65 Q26.05 20.55 24.95 21.65 L21.55 25.05 Q20.45 26.15 21.55 27.25"/>
    <path stroke="none" fill="#FFFFFF" d="M21.55 27.25 Q20.45 26.15 21.55 25.05 L24.95 21.65 Q26.05 20.55 27.15 21.65 L31.95 26.5 36.85 21.65 39.05 21.7 42.45 25.05 Q43.5 26.15 42.45 27.25 L37.55 32.1 42.45 36.9 Q43.5 38.05 42.45 39.1 L39.05 42.55 36.85 42.5 31.95 37.7 27.15 42.5 Q26.05 43.6 25 42.5 L21.6 39.1 Q20.45 38 21.55 36.9 L26.35 32.1 21.55 27.25"/>
  </g>
</svg>