<svg width="64" height="64" xmlns="http://www.w3.org/2000/svg" xmlns:xlink="http://www.w3.org/1999/xlink">
  <defs/>
  <g>
    <path stroke="none" fill="#92A1AD" d="M28.3 12.3 L29.1 11.7 Q29.9 10.85 31 10.6 L33.2 10.75 39.75 13 Q40.95 13.4 41.7 14.45 42.45 15.45 42.45 16.75 L42.4 18.6 42.4 18.7 42.35 23.25 42.25 29.2 42.15 35.05 42.15 35.15 42.15 37.85 Q43 37.95 44.25 38.65 L45.5 39.5 Q46.5 40.1 46.55 43.2 L46.55 45.95 46.45 48.45 46.45 48.65 Q46.2 51 45.9 51.2 L44.45 52.45 Q42.85 53.45 41.1 53.45 L37.55 53.5 33.2 53.5 28.8 53.5 25.35 53.5 Q23.85 53.5 22.35 52.75 19.95 51.55 19.8 48.95 L19.8 48.7 19.8 47.05 19.75 44.6 19.75 44.2 19.75 42.7 19.75 41.9 Q19.75 40.3 20.9 39.15 22 37.95 23.65 37.9 L24.9 37.9 25.05 32.65 Q23.5 33.25 21.25 30.2 L19.9 28.25 19.8 28.1 18.65 26.3 18.6 26.2 17.95 25 Q17.5 24.15 17.5 23.2 17.5 22.25 17.95 21.4 17.85 21.05 19.9 19.25 L19.95 19.2 22.6 16.95 22.65 16.9 25.7 14.4 25.75 14.35 27.15 13.2 28.3 12.3 M23.95 49.5 L25.35 49.5 28.8 49.5 33.2 49.5 37.55 49.5 40.95 49.45 42.3 49.4 42.45 48.25 42.55 45.8 42.55 43.35 Q42.55 42.25 42.35 42 L41.5 41.8 40.1 41.75 38.8 41.75 38.15 41.65 38.1 39.7 38.15 35.05 38.25 29.1 38.35 23.15 38.4 18.6 38.45 16.75 31.9 14.5 30.8 15.4 28.25 17.45 27.15 18.4 25.15 20 22.55 22.2 21.5 23.2 22.05 24.15 23.2 26 24.45 27.8 25.2 28.55 26 28.25 27.15 27.75 27.35 27.65 28.65 27.05 29.2 26.8 28.75 41.75 23.75 41.9 23.75 42.7 23.75 44.2 23.75 44.6 23.8 46.85 23.8 48.7 23.95 49.5"/>
    <path stroke="none" fill="#FFFFFF" d="M23.95 49.5 L23.8 48.7 23.8 46.85 23.75 44.6 23.75 44.2 23.75 42.7 23.75 41.9 28.75 41.75 29.2 26.8 28.65 27.05 27.35 27.65 27.15 27.75 26 28.25 25.2 28.55 24.45 27.8 23.2 26 22.05 24.15 21.5 23.2 22.55 22.2 25.15 20 27.15 18.4 28.25 17.45 30.8 15.4 31.9 14.5 38.45 16.75 38.4 18.6 38.35 23.15 38.25 29.1 38.15 35.05 38.1 39.7 38.15 41.65 38.8 41.75 40.1 41.75 41.5 41.8 42.35 42 Q42.55 42.25 42.55 43.35 L42.55 45.8 42.45 48.25 42.3 49.4 40.95 49.45 37.55 49.5 33.2 49.5 28.8 49.5 25.35 49.5 23.95 49.5"/>
  </g>
</svg>