<svg width="64" height="64" xmlns="http://www.w3.org/2000/svg" xmlns:xlink="http://www.w3.org/1999/xlink">
  <defs/>
  <g>
    <path stroke="none" fill="#83F3CB" d="M32 14 Q24.6 14 19.35 19.3 L19.3 19.35 Q14 24.6 14 32 14 39.45 19.3 44.75 L19.35 44.75 Q24.6 50 32 50 39.45 50 44.75 44.75 50 39.45 50 32 50 24.6 44.75 19.35 L44.75 19.3 Q39.45 14 32 14 M52 32 Q52 40.3 46.15 46.15 40.3 52 32 52 23.75 52 17.9 46.15 12 40.3 12 32 12 23.75 17.9 17.9 23.75 12 32 12 40.3 12 46.15 17.9 52 23.75 52 32"/>
    <path stroke="none" fill="#5DD4AA" d="M32 14 Q39.45 14 44.75 19.3 L44.75 19.35 Q50 24.6 50 32 50 39.45 44.75 44.75 39.45 50 32 50 24.6 50 19.35 44.75 L19.3 44.75 Q14 39.45 14 32 14 24.6 19.3 19.35 L19.35 19.3 Q24.6 14 32 14"/>
    <path stroke="none" fill="#FFFFFF" d="M32 8 Q22.1 8 15.1 15.05 L15.05 15.1 Q8 22.1 8 32 8 41.95 15.1 49 22.1 56 32 56 41.95 56 49 49 56 41.95 56 32 56 22.1 49 15.1 41.95 8 32 8 M32 4 Q43.6 4 51.8 12.25 60 20.45 60 32 60 43.6 51.8 51.8 43.6 60 32 60 20.45 60 12.25 51.8 4 43.6 4 32 4 20.45 12.2 12.25 L12.25 12.2 Q20.45 4 32 4"/>
    <path stroke="none" fill="#297264" d="M52 32 Q52 23.75 46.15 17.9 40.3 12 32 12 23.75 12 17.9 17.9 12 23.75 12 32 12 40.3 17.9 46.15 23.75 52 32 52 40.3 52 46.15 46.15 52 40.3 52 32 M32 8 Q41.95 8 49 15.1 56 22.1 56 32 56 41.95 49 49 41.95 56 32 56 22.1 56 15.1 49 8 41.95 8 32 8 22.1 15.05 15.1 L15.1 15.05 Q22.1 8 32 8"/>
    <path stroke="none" fill="#24483F" d="M35.25 41.2 Q33.9 42.5 32 42.5 30.1 42.5 28.65 41.15 L28.65 41.1 28.25 40.65 Q27.95 40.3 28 39.9 28.05 39.5 28.4 39.25 28.7 38.95 29.1 39 29.5 39.05 29.8 39.4 L30.05 39.7 Q30.9 40.5 32 40.5 33.15 40.5 33.95 39.7 L34.05 39.6 34.15 39.5 Q34.35 39.1 34.75 39.05 L35.5 39.15 36 39.75 35.85 40.55 35.25 41.2"/>
    <path stroke="none" fill="#353541" d="M45 33 Q45 35.05 43.5 36.5 42.05 38 40 38 37.85 38 36.45 36.5 L35.8 35.75 Q35 34.5 35 33 35 31.45 35.8 30.2 L36.45 29.4 Q37.85 28 40 28 42.05 28 43.5 29.4 45 30.9 45 33 M28 32 Q28 31.15 27.4 30.55 26.8 30 26 30 25.15 30 24.6 30.55 24 31.15 24 32 24 32.8 24.6 33.4 25.15 34 26 34 26.8 34 27.4 33.4 28 32.8 28 32 M44 32 Q44 31.15 43.4 30.55 42.8 30 42 30 41.15 30 40.6 30.55 40 31.15 40 32 40 32.8 40.6 33.4 41.15 34 42 34 42.8 34 43.4 33.4 44 32.8 44 32 M29 33 Q29 35.05 27.5 36.5 26.05 38 24 38 21.85 38 20.45 36.5 19 35.05 19 33 19 30.9 20.45 29.4 21.85 28 24 28 26.05 28 27.5 29.4 29 30.9 29 33"/>
    <path stroke="none" fill="#5D5D67" d="M44 32 Q44 32.8 43.4 33.4 42.8 34 42 34 41.15 34 40.6 33.4 40 32.8 40 32 40 31.15 40.6 30.55 41.15 30 42 30 42.8 30 43.4 30.55 44 31.15 44 32 M28 32 Q28 32.8 27.4 33.4 26.8 34 26 34 25.15 34 24.6 33.4 24 32.8 24 32 24 31.15 24.6 30.55 25.15 30 26 30 26.8 30 27.4 30.55 28 31.15 28 32"/>
  </g>
</svg>