<svg width="64" height="64" xmlns="http://www.w3.org/2000/svg" xmlns:xlink="http://www.w3.org/1999/xlink">
  <defs/>
  <g>
    <path stroke="none" fill="#474758" d="M32 8 Q41.95 8 49 15.1 56 22.1 56 32 56 41.95 49 49 L48 49.9 Q45.1 52.5 41.8 54 38.5 55.45 34.8 55.85 L32.3 56 32 56 31.9 56 29.35 55.85 Q25.55 55.5 22.25 54 18.9 52.5 16 49.85 L15.1 49 Q8 41.95 8 32 8 22.1 15.05 15.1 L15.1 15.05 Q22.1 8 32 8 M48 44.05 Q52 38.85 52 32 52 23.75 46.15 17.9 40.3 12 32 12 23.75 12 17.9 17.9 12 23.75 12 32 12 38.85 16 44 L17.9 46.15 Q23.75 52 32 52 40.3 52 46.15 46.15 L48 44.05"/>
    <path stroke="none" fill="#656574" d="M48 44.05 L48 32 Q48 25.4 43.3 20.7 38.6 16 32 16 25.4 16 20.7 20.7 16 25.4 16 32 L16 44 Q12 38.85 12 32 12 23.75 17.9 17.9 23.75 12 32 12 40.3 12 46.15 17.9 52 23.75 52 32 52 38.85 48 44.05"/>
    <path stroke="none" fill="#E2C3AB" d="M48 44.05 L46.15 46.15 Q40.3 52 32 52 23.75 52 17.9 46.15 L16 44 16 32 Q16 25.4 20.7 20.7 25.4 16 32 16 38.6 16 43.3 20.7 48 25.4 48 32 L48 44.05"/>
    <path stroke="none" fill="#FFFFFF" d="M32 8 Q22.1 8 15.1 15.05 L15.05 15.1 Q8 22.1 8 32 8 41.95 15.1 49 L16 49.85 Q18.9 52.5 22.25 54 25.55 55.5 29.35 55.85 L31.9 56 32 56 32.3 56 34.8 55.85 Q38.5 55.45 41.8 54 45.1 52.5 48 49.9 L49 49 Q56 41.95 56 32 56 22.1 49 15.1 41.95 8 32 8 M32 4 Q43.6 4 51.8 12.25 60 20.45 60 32 60 43.6 51.8 51.8 43.6 60 32 60 20.45 60 12.25 51.8 4 43.6 4 32 4 20.45 12.2 12.25 L12.25 12.2 Q20.45 4 32 4"/>
    <path stroke="none" fill="#916E53" d="M34.6 42.75 Q33.5 43.8 32 43.8 30.5 43.8 29.3 42.7 L29 42.3 Q28.75 42.05 28.8 41.7 L29.1 41.2 Q29.35 40.95 29.7 41 L30.25 41.3 30.45 41.55 Q31.1 42.2 32 42.2 32.9 42.2 33.55 41.55 L33.65 41.5 33.7 41.4 34.2 41.05 34.8 41.1 35.2 41.6 35.1 42.25 34.6 42.75"/>
    <path stroke="none" fill="#353541" d="M25.6 29 L38.3 29 Q40.3 29 41.75 30.4 43.2 31.8 43.2 33.8 43.2 35.8 41.75 37.25 40.3 38.65 38.3 38.65 L25.6 38.65 Q23.6 38.65 22.2 37.25 20.8 35.8 20.8 33.8 20.8 31.8 22.2 30.4 23.6 29 25.6 29 M40.85 32.2 Q40.85 31.5 40.35 31.05 39.9 30.6 39.25 30.6 38.55 30.6 38.1 31.05 37.65 31.5 37.65 32.2 37.65 32.85 38.1 33.3 38.55 33.8 39.25 33.8 39.9 33.8 40.35 33.3 40.85 32.85 40.85 32.2"/>
    <path stroke="none" fill="#5D5D67" d="M40.85 32.2 Q40.85 32.85 40.35 33.3 39.9 33.8 39.25 33.8 38.55 33.8 38.1 33.3 37.65 32.85 37.65 32.2 37.65 31.5 38.1 31.05 38.55 30.6 39.25 30.6 39.9 30.6 40.35 31.05 40.85 31.5 40.85 32.2"/>
    <path stroke="none" fill="#FFFFFF" fill-opacity="0.2" d="M25.95 26.35 Q25.95 27.55 25.05 28.4 24.2 29.25 23 29.25 21.8 29.25 20.95 28.4 20.1 27.55 20.1 26.35 20.1 25.15 20.95 24.3 21.8 23.45 23 23.45 24.2 23.45 25.05 24.3 25.95 25.15 25.95 26.35"/>
    <path stroke="none" fill="#FFFFFF" fill-opacity="0.2" d="M49 21.55 Q49 25.15 46.4 27.65 43.85 30.25 40.25 30.25 36.65 30.25 34.05 27.65 31.55 25.15 31.55 21.55 31.55 17.95 34.05 15.3 36.65 12.8 40.25 12.8 43.85 12.8 46.4 15.3 49 17.95 49 21.55"/>
  </g>
</svg>