<svg width="64" height="64" xmlns="http://www.w3.org/2000/svg" xmlns:xlink="http://www.w3.org/1999/xlink">
  <defs/>
  <g>
    <path stroke="none" fill="#474758" d="M32 8 Q41.95 8 49 15.1 56 22.1 56 32 56 41.95 49 49 L48 49.9 Q45.1 52.5 41.8 54 38.5 55.45 34.8 55.85 L32.3 56 32 56 31.9 56 29.35 55.85 Q25.55 55.5 22.25 54 18.9 52.5 16 49.85 L15.1 49 Q8 41.95 8 32 8 22.1 15.05 15.1 L15.1 15.05 Q22.1 8 32 8 M48 44.05 Q52 38.85 52 32 52 23.75 46.15 17.9 40.3 12 32 12 23.75 12 17.9 17.9 12 23.75 12 32 12 38.85 16 44 L17.9 46.15 Q23.75 52 32 52 40.3 52 46.15 46.15 L48 44.05"/>
    <path stroke="none" fill="#656574" d="M48 44.05 L48 32 Q48 25.4 43.3 20.7 38.6 16 32 16 25.4 16 20.7 20.7 16 25.4 16 32 L16 44 Q12 38.85 12 32 12 23.75 17.9 17.9 23.75 12 32 12 40.3 12 46.15 17.9 52 23.75 52 32 52 38.85 48 44.05"/>
    <path stroke="none" fill="#FF8AAE" d="M48 44.05 L46.15 46.15 Q40.3 52 32 52 23.75 52 17.9 46.15 L16 44 16 32 Q16 25.4 20.7 20.7 25.4 16 32 16 38.6 16 43.3 20.7 48 25.4 48 32 L48 44.05"/>
    <path stroke="none" fill="#FFFFFF" d="M32 8 Q22.1 8 15.1 15.05 L15.05 15.1 Q8 22.1 8 32 8 41.95 15.1 49 L16 49.85 Q18.9 52.5 22.25 54 25.55 55.5 29.35 55.85 L31.9 56 32 56 32.3 56 34.8 55.85 Q38.5 55.45 41.8 54 45.1 52.5 48 49.9 L49 49 Q56 41.95 56 32 56 22.1 49 15.1 41.95 8 32 8 M32 4 Q43.6 4 51.8 12.25 60 20.45 60 32 60 43.6 51.8 51.8 43.6 60 32 60 20.45 60 12.25 51.8 4 43.6 4 32 4 20.45 12.2 12.25 L12.25 12.2 Q20.45 4 32 4"/>
    <path stroke="none" fill="#FFFFFF" d="M38.4 33.4 Q38.4 36.05 36.5 37.9 34.7 39.8 32 39.8 29.3 39.8 27.5 37.9 25.6 36.05 25.6 33.4 25.6 30.7 27.5 28.8 29.3 27 32 27 34.7 27 36.5 28.8 38.4 30.7 38.4 33.4 M35.2 33.4 Q35.2 32.05 34.25 31.1 33.3 30.2 32 30.2 30.7 30.2 29.75 31.1 28.8 32.05 28.8 33.4 28.8 34.7 29.75 35.65 30.7 36.6 32 36.6 33.3 36.6 34.25 35.65 35.2 34.7 35.2 33.4"/>
    <path stroke="none" fill="#AF4D62" d="M35.2 33.4 Q35.2 34.7 34.25 35.65 33.3 36.6 32 36.6 30.7 36.6 29.75 35.65 28.8 34.7 28.8 33.4 28.8 32.05 29.75 31.1 30.7 30.2 32 30.2 33.3 30.2 34.25 31.1 35.2 32.05 35.2 33.4"/>
    <path stroke="none" fill="#AF4D62" d="M34.6 43.95 Q33.5 45 32 45 30.5 45 29.3 43.9 L29 43.5 Q28.75 43.25 28.8 42.9 L29.1 42.4 Q29.35 42.15 29.7 42.2 L30.25 42.5 30.45 42.75 Q31.1 43.4 32 43.4 32.9 43.4 33.55 42.75 L33.65 42.7 33.7 42.6 34.2 42.25 34.8 42.3 35.2 42.8 35.1 43.45 34.6 43.95"/>
    <path stroke="none" fill="#FFFFFF" fill-opacity="0.2" d="M25.95 26.35 Q25.95 27.55 25.05 28.4 24.2 29.25 23 29.25 21.8 29.25 20.95 28.4 20.1 27.55 20.1 26.35 20.1 25.15 20.95 24.3 21.8 23.45 23 23.45 24.2 23.45 25.05 24.3 25.95 25.15 25.95 26.35"/>
    <path stroke="none" fill="#FFFFFF" fill-opacity="0.2" d="M49 21.55 Q49 25.15 46.4 27.65 43.85 30.25 40.25 30.25 36.65 30.25 34.05 27.65 31.55 25.15 31.55 21.55 31.55 17.95 34.05 15.3 36.65 12.8 40.25 12.8 43.85 12.8 46.4 15.3 49 17.95 49 21.55"/>
  </g>
</svg>