<svg width="64" height="64" xmlns="http://www.w3.org/2000/svg" xmlns:xlink="http://www.w3.org/1999/xlink">
  <defs/>
  <g>
    <path stroke="none" fill="#FFDA8C" d="M32 14 Q24.6 14 19.35 19.3 L19.3 19.35 Q14 24.6 14 32 14 39.45 19.3 44.75 L19.35 44.75 Q24.6 50 32 50 39.45 50 44.75 44.75 50 39.45 50 32 50 24.6 44.75 19.35 L44.75 19.3 Q39.45 14 32 14 M52 32 Q52 40.3 46.15 46.15 40.3 52 32 52 23.75 52 17.9 46.15 12 40.3 12 32 12 23.75 17.9 17.9 23.75 12 32 12 40.3 12 46.15 17.9 52 23.75 52 32"/>
    <path stroke="none" fill="#FABA2D" d="M32 14 Q39.45 14 44.75 19.3 L44.75 19.35 Q50 24.6 50 32 50 39.45 44.75 44.75 39.45 50 32 50 24.6 50 19.35 44.75 L19.3 44.75 Q14 39.45 14 32 14 24.6 19.3 19.35 L19.35 19.3 Q24.6 14 32 14"/>
    <path stroke="none" fill="#FFFFFF" d="M32 4 Q43.6 4 51.8 12.25 60 20.45 60 32 60 43.6 51.8 51.8 43.6 60 32 60 20.45 60 12.25 51.8 4 43.6 4 32 4 20.45 12.2 12.25 L12.25 12.2 Q20.45 4 32 4 M32 8 Q22.1 8 15.1 15.05 L15.05 15.1 Q8 22.1 8 32 8 41.95 15.1 49 22.1 56 32 56 41.95 56 49 49 56 41.95 56 32 56 22.1 49 15.1 41.95 8 32 8"/>
    <path stroke="none" fill="#D08020" d="M32 8 Q41.95 8 49 15.1 56 22.1 56 32 56 41.95 49 49 41.95 56 32 56 22.1 56 15.1 49 8 41.95 8 32 8 22.1 15.05 15.1 L15.1 15.05 Q22.1 8 32 8 M52 32 Q52 23.75 46.15 17.9 40.3 12 32 12 23.75 12 17.9 17.9 12 23.75 12 32 12 40.3 17.9 46.15 23.75 52 32 52 40.3 52 46.15 46.15 52 40.3 52 32"/>
    <path stroke="none" fill="#B76019" d="M35.25 40.2 Q33.9 41.5 32 41.5 30.1 41.5 28.65 40.15 L28.65 40.1 28.25 39.65 Q27.95 39.3 28 38.9 28.05 38.5 28.4 38.25 28.7 37.95 29.1 38 29.5 38.05 29.8 38.4 L30.05 38.7 Q30.9 39.5 32 39.5 33.15 39.5 33.95 38.7 L34.05 38.6 34.15 38.5 Q34.35 38.1 34.75 38.05 L35.5 38.15 36 38.75 35.85 39.55 35.25 40.2"/>
    <path stroke="none" fill="#353541" d="M44 33 Q44 32.15 43.4 31.55 42.8 31 42 31 41.15 31 40.6 31.55 40 32.15 40 33 40 33.8 40.6 34.4 41.15 35 42 35 42.8 35 43.4 34.4 44 33.8 44 33 M36.45 30.4 L36.5 30.4 36.55 30.35 Q37.9 29 40 29 42 29 43.45 30.4 L43.5 30.4 43.55 30.45 Q45 31.9 45 34 45 34.8 44.45 35.4 43.85 36 43 36 L37 36 Q36.15 36 35.6 35.4 35 34.8 35 34 35 31.95 36.45 30.45 L36.45 30.4 M20.55 30.35 Q21.9 29 24 29 26 29 27.45 30.4 L27.5 30.4 27.55 30.45 Q29 31.9 29 34 29 34.8 28.45 35.4 27.85 36 27 36 L21 36 Q20.15 36 19.6 35.4 19 34.8 19 34 19 31.95 20.45 30.45 L20.45 30.4 20.5 30.4 20.55 30.35 M28 33 Q28 32.15 27.4 31.55 26.8 31 26 31 25.15 31 24.6 31.55 24 32.15 24 33 24 33.8 24.6 34.4 25.15 35 26 35 26.8 35 27.4 34.4 28 33.8 28 33"/>
    <path stroke="none" fill="#5D5D67" d="M28 33 Q28 33.8 27.4 34.4 26.8 35 26 35 25.15 35 24.6 34.4 24 33.8 24 33 24 32.15 24.6 31.55 25.15 31 26 31 26.8 31 27.4 31.55 28 32.15 28 33 M44 33 Q44 33.8 43.4 34.4 42.8 35 42 35 41.15 35 40.6 34.4 40 33.8 40 33 40 32.15 40.6 31.55 41.15 31 42 31 42.8 31 43.4 31.55 44 32.15 44 33"/>
  </g>
</svg>