<svg width="64" height="64" xmlns="http://www.w3.org/2000/svg" xmlns:xlink="http://www.w3.org/1999/xlink">
  <defs/>
  <g>
    <path stroke="none" fill="#92A1AD" d="M42.05 13.75 L42.05 13.8 Q44.6 15.75 46.15 19.25 L46.2 19.35 Q47.65 22.45 47.65 27.15 L47.65 27.2 Q47.6 31.35 46.3 35.3 45.05 39.05 43.2 42.25 L43.25 42.2 39.7 47.7 37.05 50.9 34.7 53.25 34.05 53.55 32.6 53.8 32.4 53.8 31.5 53.65 30.95 53.5 30.2 53.15 Q29.05 52.75 27.55 51.95 L27.7 52 24.55 50.25 24.5 50.2 Q22.65 49 21.55 47.6 20.85 46.65 20.75 45.5 20.65 44.9 21.3 43.6 21.95 42.2 22.7 41.45 L22.8 41.35 24.45 39.6 25.05 39 Q22.95 37.95 21.25 36.4 19.05 34.4 17.75 31.7 16.35 28.9 16.35 25.15 L16.35 25.1 Q16.4 20.25 18.5 17 20.6 13.55 24 11.9 27.35 10.2 31.2 10.2 33.85 10.2 36.6 11 L36.7 11.05 Q39.6 11.85 42.05 13.75 M24.7 45.1 L26.7 46.85 29.4 48.4 31.7 49.45 32.6 49.8 33.75 48.6 36.5 45.25 39.75 40.25 Q41.4 37.4 42.5 34.05 43.6 30.7 43.65 27.15 43.65 23.4 42.5 20.9 41.4 18.35 39.55 16.9 37.75 15.45 35.55 14.85 33.35 14.2 31.2 14.2 28.3 14.2 25.8 15.45 23.4 16.65 21.9 19.1 20.4 21.55 20.35 25.15 20.35 27.9 21.35 29.95 22.3 31.95 23.9 33.4 25.45 34.8 27.35 35.65 29.25 36.55 31.1 36.95 L29.55 39.7 27.4 42.3 25.5 44.25 24.7 45.1 M33.7 29.3 L31.6 28.9 Q30.4 28.5 29.55 27.6 28.7 26.7 28.65 25.15 28.7 24 29.35 23.4 30 22.85 30.75 22.85 32.15 22.85 32.95 23.55 33.75 24.25 34.05 25.35 L34.3 27.45 33.7 29.3"/>
    <path stroke="none" fill="#FFFFFF" d="M33.7 29.3 L34.3 27.45 34.05 25.35 Q33.75 24.25 32.95 23.55 32.15 22.85 30.75 22.85 30 22.85 29.35 23.4 28.7 24 28.65 25.15 28.7 26.7 29.55 27.6 30.4 28.5 31.6 28.9 L33.7 29.3 M24.7 45.1 L25.5 44.25 27.4 42.3 29.55 39.7 31.1 36.95 Q29.25 36.55 27.35 35.65 25.45 34.8 23.9 33.4 22.3 31.95 21.35 29.95 20.35 27.9 20.35 25.15 20.4 21.55 21.9 19.1 23.4 16.65 25.8 15.45 28.3 14.2 31.2 14.2 33.35 14.2 35.55 14.85 37.75 15.45 39.55 16.9 41.4 18.35 42.5 20.9 43.65 23.4 43.65 27.15 43.6 30.7 42.5 34.05 41.4 37.4 39.75 40.25 L36.5 45.25 33.75 48.6 32.6 49.8 31.7 49.45 29.4 48.4 26.7 46.85 24.7 45.1"/>
  </g>
</svg>