<svg width="64" height="64" xmlns="http://www.w3.org/2000/svg" xmlns:xlink="http://www.w3.org/1999/xlink">
  <defs>
    <linearGradient gradientUnits="userSpaceOnUse" x1="-819.2" x2="819.2" spreadMethod="pad" gradientTransform="matrix(0 -0.0048828125 0.0048828125 0 42 40)" id="gradient0">
      <stop offset="0" stop-color="#FABA2D"/>
      <stop offset="1" stop-color="#E28F2B"/>
    </linearGradient>
  </defs>
  <g>
    <path stroke="none" fill="#353541" d="M35.3 20.7 Q36.4 21.75 37.75 24 L48 24 Q51.3 24 53.65 26.35 56 28.7 56 32 56 35.25 53.7 37.6 L53.6 37.7 52 38.95 52 42 Q52 47.95 46.25 48 L46.15 48 38 48 Q34.05 48 32.7 45.45 28.9 48 24 48 17.4 48 12.7 43.3 8 38.6 8 32 8 25.4 12.65 20.7 L12.7 20.65 Q17.4 16 24 16 30.6 16 35.3 20.7 M48 36 L48.1 36 Q49.7 35.95 50.8 34.8 52 33.65 52 32 52 30.35 50.8 29.15 49.65 28 48 28 L35.35 28 Q33.7 24.75 32.45 23.5 28.95 20 24 20 19.05 20 15.5 23.5 12 27.05 12 32 12 36.95 15.5 40.45 19.05 44 24 44 28.55 44 31.9 41 L32.45 40.45 Q34.45 38.45 35.35 36 L36 36 36 42 Q36 44 38 44 L40 44 40 42 44 42 44 44 46.15 44 Q48 43.95 48 42 L48 36 M28 32 Q28 33.65 26.8 34.8 25.65 36 24 36 22.35 36 21.15 34.8 20 33.65 20 32 20 30.35 21.15 29.15 22.35 28 24 28 25.65 28 26.8 29.15 28 30.35 28 32"/>
    <path stroke="none" fill="#FABA2D" d="M28 32 Q28 30.35 26.8 29.15 25.65 28 24 28 22.35 28 21.15 29.15 20 30.35 20 32 20 33.65 21.15 34.8 22.35 36 24 36 25.65 36 26.8 34.8 28 33.65 28 32 M36 36 L35.35 36 Q34.45 38.45 32.45 40.45 L31.9 41 Q28.55 44 24 44 19.05 44 15.5 40.45 12 36.95 12 32 12 27.05 15.5 23.5 19.05 20 24 20 28.95 20 32.45 23.5 33.7 24.75 35.35 28 L48 28 Q49.65 28 50.8 29.15 52 30.35 52 32 52 33.65 50.8 34.8 49.7 35.95 48.1 36 L48 36 36 36"/>
    <path stroke="none" fill="url(#gradient0)" d="M36 36 L48 36 48 42 Q48 43.95 46.15 44 L44 44 44 42 40 42 40 44 38 44 Q36 44 36 42 L36 36"/>
  </g>
</svg>