<svg width="64" height="64" xmlns="http://www.w3.org/2000/svg" xmlns:xlink="http://www.w3.org/1999/xlink">
  <defs/>
  <g>
    <path stroke="none" fill="#353541" d="M60 0 L64 0 64 28 Q64 36 56 36 L48 36 Q40 36 40 28 L24 28 Q24 36 16 36 L8 36 Q0 36 0 28 L0 0 4 0 4 24.25 4 28 Q4 32 8 32 L16 32 Q20 32 20 28 L20 24.25 20 24 24 24 40 24 44 24 44 24.25 44 28 Q44 32 48 32 L56 32 Q60 32 60 28 L60 24.25 60 0 M20 0 L24 0 24 4 40 4 40 0 44 0 44 8 40 8 24 8 20 8 20 0"/>
    <path stroke="none" fill="#9F5438" d="M44 24 L40 24 40 8 44 8 44 24 M24 24 L20 24 20 8 24 8 24 24"/>
    <path stroke="none" fill="#DE7E4F" d="M60 0 L60 24.25 Q59.85 28 56 28 L48 28 Q44.15 28 44 24.25 L44 24 44 8 44 0 60 0 M20 24 L20 24.25 Q19.85 28 16 28 L8 28 Q4.15 28 4 24.25 L4 0 20 0 20 8 20 24"/>
    <path stroke="none" fill="#BD6341" d="M60 24.25 L60 28 Q60 32 56 32 L48 32 Q44 32 44 28 L44 24.25 Q44.15 28 48 28 L56 28 Q59.85 28 60 24.25 M40 24 L24 24 24 8 40 8 40 24 M20 24.25 L20 28 Q20 32 16 32 L8 32 Q4 32 4 28 L4 24.25 Q4.15 28 8 28 L16 28 Q19.85 28 20 24.25"/>
  </g>
</svg>