<svg width="64" height="64" xmlns="http://www.w3.org/2000/svg" xmlns:xlink="http://www.w3.org/1999/xlink">
  <defs/>
  <g>
    <path stroke="none" fill="#353541" d="M60 0 L64 0 64 64 60 64 60 0 M44 64 L40 64 40 60 24 60 24 64 20 64 20 56 24 56 40 56 44 56 44 64 M4 64 L0 64 0 0 4 0 4 64 M20 0 L24 0 24 4 40 4 40 0 44 0 44 8 40 8 24 8 20 8 20 0 M44 24 L44 40 40 40 24 40 20 40 20 24 24 24 40 24 44 24 M24 28 L24 36 40 36 40 28 24 28"/>
    <path stroke="none" fill="#DE7E4F" d="M60 64 L44 64 44 56 44 40 44 24 44 8 44 0 60 0 60 64 M20 64 L4 64 4 0 20 0 20 8 20 24 20 40 20 56 20 64"/>
    <path stroke="none" fill="#9F5438" d="M44 8 L44 24 40 24 40 8 44 8 M44 40 L44 56 40 56 40 40 44 40 M24 8 L24 24 20 24 20 8 24 8 M20 40 L24 40 24 56 20 56 20 40"/>
    <path stroke="none" fill="#BD6341" d="M40 8 L40 24 24 24 24 8 40 8 M40 40 L40 56 24 56 24 40 40 40"/>
  </g>
</svg>