<svg width="64" height="64" xmlns="http://www.w3.org/2000/svg" xmlns:xlink="http://www.w3.org/1999/xlink">
  <defs/>
  <g>
    <path stroke="none" fill="#353541" d="M4 64 L0 64 0 36 Q0 28 8 28 L16 28 Q24 28 24 36 L40 36 Q40 28 48 28 L56 28 Q64 28 64 36 L64 64 60 64 60 39.75 60 36 Q60 32 56 32 L48 32 Q44 32 44 36 L44 39.75 44 40 40 40 24 40 20 40 20 39.75 20 36 Q20 32 16 32 L8 32 Q4 32 4 36 L4 39.75 4 64 M44 64 L40 64 40 60 24 60 24 64 20 64 20 56 24 56 40 56 44 56 44 64"/>
    <path stroke="none" fill="#FA9F72" d="M4 39.75 L4 36 Q4 32 8 32 L16 32 Q20 32 20 36 L20 39.75 Q19.85 36 16 36 L8 36 Q4.15 36 4 39.75 M44 39.75 L44 36 Q44 32 48 32 L56 32 Q60 32 60 36 L60 39.75 Q59.85 36 56 36 L48 36 Q44.15 36 44 39.75"/>
    <path stroke="none" fill="#DE7E4F" d="M44 39.75 Q44.15 36 48 36 L56 36 Q59.85 36 60 39.75 L60 64 44 64 44 56 44 40 44 39.75 M20 64 L4 64 4 39.75 Q4.15 36 8 36 L16 36 Q19.85 36 20 39.75 L20 40 20 56 20 64"/>
    <path stroke="none" fill="#9F5438" d="M20 40 L24 40 24 56 20 56 20 40 M40 40 L44 40 44 56 40 56 40 40"/>
    <path stroke="none" fill="#BD6341" d="M40 40 L40 56 24 56 24 40 40 40"/>
  </g>
</svg>