<svg width="64" height="64" xmlns="http://www.w3.org/2000/svg" xmlns:xlink="http://www.w3.org/1999/xlink">
  <defs>
    <linearGradient gradientUnits="userSpaceOnUse" x1="-819.2" x2="819.2" spreadMethod="pad" gradientTransform="matrix(0 0.009765625 -0.0048828125 0 32 64)" id="gradient0">
      <stop offset="0" stop-color="#B4BFC8"/>
      <stop offset="1" stop-color="#667E93"/>
    </linearGradient>
  </defs>
  <g>
    <path stroke="none" fill="#353541" d="M49.35 12.75 L56.75 15.85 56.8 15.9 Q64.1 19 61 26.35 L61 26.3 59.7 29.4 59.65 29.55 Q55 39.45 49.15 44.15 L48.2 46.3 49 47.05 Q56 54.05 56 64 L8 64 Q8 54.05 15.05 47.05 22.05 40 32 40 L33.5 40.05 34.8 40.15 34.5 39 34.35 38 Q33.65 30.5 37.55 20.25 L37.65 20 37.8 19.7 37.9 19.4 38.9 17 38.95 17 Q42.05 9.65 49.4 12.8 L49.35 12.75"/>
    <path stroke="none" fill="#EE9366" d="M33.75 49.6 L40 34.9 Q40.65 33.35 42.2 32.7 L45.25 32.75 Q46.75 33.4 47.4 34.9 48.05 36.45 47.4 38 L41.15 52.7 41.05 53 Q39.55 52.05 37.85 51.35 35.75 50.45 33.65 50.05 L33.75 49.6"/>
    <path stroke="none" fill="#E54341" d="M38.35 33.9 Q38.7 28.45 41.3 21.65 L41.55 21.1 41.6 20.95 41.7 20.8 Q43.25 17.75 46.65 19.2 L54.05 22.3 Q57.45 23.75 56.35 27 L56 27.85 Q52.95 34.4 49.3 38.45 L38.35 33.9"/>
    <path stroke="none" fill="#F17575" d="M41.6 20.95 L42.6 18.55 Q44.15 14.9 47.8 16.45 L55.2 19.55 Q58.85 21.1 57.3 24.75 L56.35 27 Q57.45 23.75 54.05 22.3 L46.65 19.2 Q43.25 17.75 41.7 20.8 L41.6 20.95"/>
    <path stroke="none" fill="#BC2423" d="M49.3 38.45 L45.85 41.6 38.45 38.5 Q38.15 36.35 38.35 33.9 L49.3 38.45"/>
    <path stroke="none" fill="#CDD3D9" d="M48 64 Q48 57.35 43.35 52.7 38.65 48 32 48 25.35 48 20.7 52.7 16 57.35 16 64 L12 64 Q12 55.7 17.85 49.85 23.7 44 32 44 40.3 44 46.15 49.85 52 55.7 52 64 L48 64"/>
    <path stroke="none" fill="#B9C2CA" d="M48 64 L40 64 Q40 60.65 37.7 58.35 35.35 56 32 56 28.65 56 26.35 58.35 24 60.65 24 64 L16 64 Q16 57.35 20.7 52.7 25.35 48 32 48 38.65 48 43.35 52.7 48 57.35 48 64"/>
    <path stroke="none" fill="url(#gradient0)" d="M24 64 Q24 60.65 26.35 58.35 28.65 56 32 56 35.35 56 37.7 58.35 40 60.65 40 64 L24 64"/>
  </g>
</svg>