<svg width="64" height="64" xmlns="http://www.w3.org/2000/svg" xmlns:xlink="http://www.w3.org/1999/xlink">
  <defs>
    <linearGradient gradientUnits="userSpaceOnUse" x1="-819.2" x2="819.2" spreadMethod="pad" gradientTransform="matrix(0 0.009765625 -0.0048828125 0 32 64)" id="gradient0">
      <stop offset="0" stop-color="#B4BFC8"/>
      <stop offset="1" stop-color="#667E93"/>
    </linearGradient>
  </defs>
  <g>
    <path stroke="none" fill="#353541" d="M36 10 Q44 10 44 18 L44 21.35 44 21.5 Q43.6 32.45 40 39.1 L40 41.3 Q44.95 43 49 47.05 56 54.05 56 64 L8 64 Q8 54.05 15.05 47.05 19.05 43 24 41.3 L24 39.1 Q20.4 32.45 20 21.5 L20 21.35 20 18 Q20 10 28 10 L36 10"/>
    <path stroke="none" fill="#EE9366" d="M28 50.05 L28 34.05 Q28 32.4 29.15 31.2 30.35 30.05 32 30.05 33.65 30.05 34.8 31.2 36 32.4 36 34.05 L36 50.05 36 50.35 32.45 50.05 28.05 50.5 28 50.05"/>
    <path stroke="none" fill="#F17575" d="M24 20.75 L24 18 Q24 14 28 14 L36 14 Q40 14 40 18 L40 20.45 Q39.7 17 36 17 L28 17 Q24.3 17 24.05 20.45 L24 20.75"/>
    <path stroke="none" fill="#E54341" d="M24 20.75 L24.05 20.45 Q24.3 17 28 17 L36 17 Q39.7 17 40 20.45 L40 21.35 Q39.7 28.8 37.85 34 L26.15 34 Q24.3 28.8 24 21.35 L24 20.75"/>
    <path stroke="none" fill="#BC2423" d="M37.85 34 L37.05 36 36 38 28 38 26.95 36 26.15 34 37.85 34"/>
    <path stroke="none" fill="#CDD3D9" d="M48 64 Q48 57.35 43.35 52.7 38.65 48 32 48 25.35 48 20.7 52.7 16 57.35 16 64 L12 64 Q12 55.7 17.85 49.85 23.7 44 32 44 40.3 44 46.15 49.85 52 55.7 52 64 L48 64"/>
    <path stroke="none" fill="#B9C2CA" d="M48 64 L40 64 Q40 60.65 37.7 58.35 35.35 56 32 56 28.65 56 26.35 58.35 24 60.65 24 64 L16 64 Q16 57.35 20.7 52.7 25.35 48 32 48 38.65 48 43.35 52.7 48 57.35 48 64"/>
    <path stroke="none" fill="url(#gradient0)" d="M24 64 Q24 60.65 26.35 58.35 28.65 56 32 56 35.35 56 37.7 58.35 40 60.65 40 64 L24 64"/>
  </g>
</svg>