<svg width="64" height="64" xmlns="http://www.w3.org/2000/svg" xmlns:xlink="http://www.w3.org/1999/xlink">
  <defs>
    <linearGradient gradientUnits="userSpaceOnUse" x1="-819.2" x2="819.2" spreadMethod="pad" gradientTransform="matrix(0 0.009765625 0.0048828125 0 32 64)" id="gradient0">
      <stop offset="0" stop-color="#B4BFC8"/>
      <stop offset="1" stop-color="#667E93"/>
    </linearGradient>
  </defs>
  <g>
    <path stroke="none" fill="#353541" d="M56 64 L8 64 Q8 54.05 15 47.05 L15.8 46.3 14.85 44.15 Q9 39.45 4.35 29.55 L4.3 29.4 3 26.3 3 26.35 Q-0.1 19 7.2 15.9 L7.25 15.85 14.65 12.75 14.6 12.8 Q21.95 9.65 25.05 17 L25.1 17 26.1 19.4 26.2 19.7 26.35 20 26.45 20.25 Q30.35 30.5 29.65 38 L29.5 39 29.2 40.15 30.5 40.05 32 40 Q41.95 40 48.95 47.05 56 54.05 56 64"/>
    <path stroke="none" fill="#EE9366" d="M30.25 49.6 L30.35 50.05 Q28.25 50.45 26.15 51.35 24.45 52.05 22.95 53 L22.85 52.7 16.6 38 Q15.95 36.45 16.6 34.9 17.25 33.4 18.75 32.75 L21.8 32.7 Q23.35 33.35 24 34.9 L30.25 49.6"/>
    <path stroke="none" fill="url(#gradient0)" d="M40 64 L24 64 Q24 60.65 26.3 58.35 28.65 56 32 56 35.35 56 37.65 58.35 40 60.65 40 64"/>
    <path stroke="none" fill="#B9C2CA" d="M40 64 Q40 60.65 37.65 58.35 35.35 56 32 56 28.65 56 26.3 58.35 24 60.65 24 64 L16 64 Q16 57.35 20.65 52.7 25.35 48 32 48 38.65 48 43.3 52.7 48 57.35 48 64 L40 64"/>
    <path stroke="none" fill="#CDD3D9" d="M16 64 L12 64 Q12 55.7 17.85 49.85 23.7 44 32 44 40.3 44 46.15 49.85 52 55.7 52 64 L48 64 Q48 57.35 43.3 52.7 38.65 48 32 48 25.35 48 20.65 52.7 16 57.35 16 64"/>
    <path stroke="none" fill="#E54341" d="M14.7 38.45 Q11.05 34.4 8 27.85 L7.65 27 Q6.55 23.75 9.95 22.3 L17.35 19.2 Q20.75 17.75 22.3 20.8 L22.4 20.95 22.45 21.1 22.7 21.65 Q25.3 28.45 25.65 33.9 L14.7 38.45"/>
    <path stroke="none" fill="#F17575" d="M22.4 20.95 L22.3 20.8 Q20.75 17.75 17.35 19.2 L9.95 22.3 Q6.55 23.75 7.65 27 L6.7 24.75 Q5.15 21.1 8.8 19.55 L16.2 16.45 Q19.85 14.9 21.4 18.55 L22.4 20.95"/>
    <path stroke="none" fill="#BC2423" d="M14.7 38.45 L25.65 33.9 Q25.85 36.35 25.55 38.5 L18.15 41.6 Q16.35 40.3 14.7 38.45"/>
  </g>
</svg>