<svg width="64" height="64" xmlns="http://www.w3.org/2000/svg" xmlns:xlink="http://www.w3.org/1999/xlink">
  <defs/>
  <g>
    <path stroke="none" fill="#F17575" d="M4 11.75 L4 8 Q4 4 8 4 L56 4 Q60 4 60 8 L60 11.75 Q59.85 8 56 8 L8 8 Q4.15 8 4 11.75 M39.95 28.7 L40 29.65 39.95 30.6 39.95 30.7 Q39.8 31.95 39.25 32.95 L38.65 33.95 38.4 34.25 37.65 35 36.8 35.75 36.2 34.2 37.65 33 38.4 32.25 38.65 31.95 39.25 30.95 Q39.8 29.95 39.95 28.7 M39.8 45.45 L40 46.25 40 46.85 39.8 47.35 39.8 47.45 Q39.3 47.95 38 48 L26 48 Q24.65 47.95 24.3 47.35 L24.05 46.75 24.05 46.3 24.25 45.45 24.3 45.35 Q24.65 45.95 26 46 L38 46 Q39.3 45.95 39.8 45.45 M27.2 35.75 L26.35 35 25.65 34.25 25.4 33.95 24.8 32.95 Q24.3 31.95 24.15 30.7 L24.15 30.6 24.1 29.65 24.15 28.7 Q24.3 29.95 24.8 30.95 L25.4 31.95 25.65 32.25 26.35 33 27.8 34.2 27.2 35.75"/>
    <path stroke="none" fill="#E54341" d="M27.2 35.75 L24.25 43.45 24.05 44.3 24.05 44.75 24.3 45.35 24.25 45.45 24.05 46.3 24.05 46.75 24.3 47.35 Q24.65 47.95 26 48 L38 48 Q39.3 47.95 39.8 47.45 L39.8 47.35 40 46.85 40 46.25 39.8 45.45 39.8 45.35 40 44.85 40 44.25 39.8 43.45 36.8 35.75 37.65 35 38.4 34.25 38.65 33.95 39.25 32.95 Q39.8 31.95 39.95 30.7 L39.95 30.6 40 29.65 39.95 28.7 39.95 28.6 40 27.65 Q40 24.45 37.65 22.2 35.35 20 32 20 28.7 20 26.35 22.2 24.1 24.45 24.1 27.65 L24.15 28.6 24.15 28.7 24.1 29.65 24.15 30.6 24.15 30.7 Q24.3 31.95 24.8 32.95 L25.4 33.95 25.65 34.25 26.35 35 27.2 35.75 M60 11.75 L60 56.4 Q59.8 60 56 60 L8 60 Q4.2 60 4 56.4 L4 11.75 Q4.15 8 8 8 L56 8 Q59.85 8 60 11.75 M54 51 Q54 49.35 52.8 48.15 51.65 47 50 47 48.35 47 47.15 48.15 46 49.35 46 51 46 52.65 47.15 53.8 48.35 55 50 55 51.65 55 52.8 53.8 54 52.65 54 51 M54 16 Q54 14.35 52.8 13.15 51.65 12 50 12 48.35 12 47.15 13.15 46 14.35 46 16 46 17.65 47.15 18.8 48.35 20 50 20 51.65 20 52.8 18.8 54 17.65 54 16 M18 51 Q18 49.35 16.8 48.15 15.65 47 14 47 12.35 47 11.15 48.15 10 49.35 10 51 10 52.65 11.15 53.8 12.35 55 14 55 15.65 55 16.8 53.8 18 52.65 18 51 M18 16 Q18 14.35 16.8 13.15 15.65 12 14 12 12.35 12 11.15 13.15 10 14.35 10 16 10 17.65 11.15 18.8 12.35 20 14 20 15.65 20 16.8 18.8 18 17.65 18 16"/>
    <path stroke="none" fill="#353541" d="M60 11.75 L60 8 Q60 4 56 4 L8 4 Q4 4 4 8 L4 11.75 4 56.4 Q4.2 60 8 60 L56 60 Q59.8 60 60 56.4 L60 11.75 M0 56.5 L0 8 Q0 0 8 0 L56 0 Q64 0 64 8 L64 56.5 Q63.75 63.85 56.35 64 L7.65 64 Q0.25 63.85 0 56.5"/>
    <path stroke="none" fill="#BC2423" d="M54 16 Q54 17.65 52.8 18.8 51.65 20 50 20 48.35 20 47.15 18.8 46 17.65 46 16 46 14.35 47.15 13.15 48.35 12 50 12 51.65 12 52.8 13.15 54 14.35 54 16 M54 51 Q54 52.65 52.8 53.8 51.65 55 50 55 48.35 55 47.15 53.8 46 52.65 46 51 46 49.35 47.15 48.15 48.35 47 50 47 51.65 47 52.8 48.15 54 49.35 54 51 M18 16 Q18 17.65 16.8 18.8 15.65 20 14 20 12.35 20 11.15 18.8 10 17.65 10 16 10 14.35 11.15 13.15 12.35 12 14 12 15.65 12 16.8 13.15 18 14.35 18 16 M18 51 Q18 52.65 16.8 53.8 15.65 55 14 55 12.35 55 11.15 53.8 10 52.65 10 51 10 49.35 11.15 48.15 12.35 47 14 47 15.65 47 16.8 48.15 18 49.35 18 51"/>
    <path stroke="none" fill="#781A19" d="M24.15 28.7 L24.15 28.6 24.1 27.65 Q24.1 24.45 26.35 22.2 28.7 20 32 20 35.35 20 37.65 22.2 40 24.45 40 27.65 L39.95 28.6 39.95 28.7 Q39.8 29.95 39.25 30.95 L38.65 31.95 38.4 32.25 37.65 33 36.2 34.2 36.8 35.75 39.8 43.45 40 44.25 40 44.85 39.8 45.35 39.8 45.45 Q39.3 45.95 38 46 L26 46 Q24.65 45.95 24.3 45.35 L24.05 44.75 24.05 44.3 24.25 43.45 27.2 35.75 27.8 34.2 26.35 33 25.65 32.25 25.4 31.95 24.8 30.95 Q24.3 29.95 24.15 28.7"/>
  </g>
</svg>