<svg width="64" height="64" xmlns="http://www.w3.org/2000/svg" xmlns:xlink="http://www.w3.org/1999/xlink">
  <defs>
    <linearGradient gradientUnits="userSpaceOnUse" x1="-819.2" x2="819.2" spreadMethod="pad" gradientTransform="matrix(0 -0.00244140625 0.006103515625 0 32.05 62)" id="gradient0">
      <stop offset="0" stop-color="#FFE0C2"/>
      <stop offset="1" stop-color="#E7B187"/>
    </linearGradient>
  </defs>
  <g>
    <path stroke="none" fill="#353541" d="M40.5 58.15 Q42.05 57.2 42.05 56 39 52.8 37.4 48.55 35.8 44.25 32.05 44 28.35 44.25 26.75 48.55 25.15 52.8 22.05 56 22.05 57.2 23.65 58.15 L25 58.8 28.9 59.8 28.05 64 24.05 64 24.15 63.2 24.2 62.8 23.55 62.55 23.45 62.5 Q17.35 60.05 18.05 56 18.05 54.4 19.2 53.25 21.7 50.6 23 47.15 25.6 40.2 31.8 40 L32.35 40 Q38.55 40.2 41.15 47.15 42.45 50.65 44.95 53.25 46.05 54.4 46.05 56 46.75 60.1 40.65 62.55 L40.75 62.5 39.9 62.8 40 63.25 40.05 64 36.05 64 35.25 59.8 Q37.4 59.55 39.15 58.8 L40.5 58.15"/>
    <path stroke="none" fill="#F17575" d="M40.5 58.15 Q38.55 55.65 37.4 52.55 35.8 48.25 32.05 48 28.35 48.25 26.75 52.55 25.6 55.65 23.65 58.15 22.05 57.2 22.05 56 25.15 52.8 26.75 48.55 28.35 44.25 32.05 44 35.8 44.25 37.4 48.55 39 52.8 42.05 56 42.05 57.2 40.5 58.15"/>
    <path stroke="none" fill="#E54341" d="M40.5 58.15 L39.15 58.8 Q37.4 59.55 35.25 59.8 L32.05 60 28.9 59.8 25 58.8 23.65 58.15 Q25.6 55.65 26.75 52.55 28.35 48.25 32.05 48 35.8 48.25 37.4 52.55 38.55 55.65 40.5 58.15"/>
    <path stroke="none" fill="url(#gradient0)" d="M35.25 59.8 L36.05 64 28.05 64 28.9 59.8 32.05 60 35.25 59.8"/>
    <path stroke="none" fill="#F17575" d="M37.6 53 Q37.6 54.25 36.7 55.1 35.85 56 34.6 56 33.35 56 32.45 55.1 31.6 54.25 31.6 53 31.6 51.75 32.45 50.85 33.35 50 34.6 50 35.85 50 36.7 50.85 37.6 51.75 37.6 53"/>
  </g>
</svg>