<svg width="64" height="64" xmlns="http://www.w3.org/2000/svg" xmlns:xlink="http://www.w3.org/1999/xlink">
  <defs>
    <linearGradient gradientUnits="userSpaceOnUse" x1="-819.2" x2="819.2" spreadMethod="pad" gradientTransform="matrix(0 -0.0036468505859375 0.0060882568359375 0 32 58)" id="gradient0">
      <stop offset="0" stop-color="#FFE0C2"/>
      <stop offset="1" stop-color="#E7B187"/>
    </linearGradient>
  </defs>
  <g>
    <path stroke="none" fill="#353541" d="M28 64 L24 64 24.1 63.2 24.95 59.05 23.5 58.55 23.45 58.5 Q17.35 56.1 18.05 52 18.1 45.55 21.95 40.95 23.9 38.5 26.4 37.25 28.95 35.95 32 36 35.05 35.95 37.6 37.25 40.05 38.5 42.1 40.95 L42.15 41 Q45.9 45.6 45.95 52 46.6 56.1 40.6 58.5 L40.55 58.55 39.05 59.05 39.9 63.25 39.95 64 36 64 34.4 55.9 Q37 55.65 39.05 54.8 41.05 54 41.65 53 L41.95 52 Q41.95 47.05 39.05 43.5 36.15 40 32 40 27.85 40 24.95 43.5 22.05 47.05 22.05 52 22.05 52.5 22.35 53 22.95 54 24.95 54.8 27 55.65 29.65 55.9 L28 64"/>
    <path stroke="none" fill="#EE9264" d="M22.35 53 Q22.05 52.5 22.05 52 22.05 47.05 24.95 43.5 27.85 40 32 40 36.15 40 39.05 43.5 41.95 47.05 41.95 52 L41.65 53 Q41.05 49.9 39.05 47.5 36.15 44 32 44 27.85 44 24.95 47.5 22.95 49.9 22.35 53"/>
    <path stroke="none" fill="#DE7E4F" d="M22.35 53 Q22.95 49.9 24.95 47.5 27.85 44 32 44 36.15 44 39.05 47.5 41.05 49.9 41.65 53 41.05 54 39.05 54.8 37 55.65 34.4 55.9 L32 56 29.65 55.9 Q27 55.65 24.95 54.8 22.95 54 22.35 53"/>
    <path stroke="none" fill="url(#gradient0)" d="M36 64 L28 64 29.65 55.9 32 56 34.4 55.9 36 64"/>
  </g>
</svg>