<svg width="64" height="64" xmlns="http://www.w3.org/2000/svg" xmlns:xlink="http://www.w3.org/1999/xlink">
  <defs/>
  <g>
    <path stroke="none" fill="#8FCAF0" d="M53.85 58 L53.2 57.2 10.85 14.85 Q9.65 13.65 8 13.65 6.35 13.65 5.2 14.85 4.05 15.95 4 17.55 L4 13.65 Q4 12 5.2 10.85 6.35 9.65 8 9.65 9.65 9.65 10.85 10.85 L53.2 53.2 Q54.35 54.35 54.35 56 54.35 57.1 53.85 58"/>
    <path stroke="none" fill="#419FDD" d="M53.85 58 L53.2 58.85 Q52 60 50.35 60 L8 60 Q6.35 60 5.2 58.85 4.05 57.7 4 56.1 L4 17.55 Q4.05 15.95 5.2 14.85 6.35 13.65 8 13.65 9.65 13.65 10.85 14.85 L53.2 57.2 53.85 58 M16 52 Q16 50.35 14.8 49.15 13.65 48 12 48 10.35 48 9.15 49.15 8 50.35 8 52 8 53.65 9.15 54.8 10.35 56 12 56 13.65 56 14.8 54.8 16 53.65 16 52"/>
    <path stroke="none" fill="#353541" d="M53.85 58 Q54.35 57.1 54.35 56 54.35 54.35 53.2 53.2 L10.85 10.85 Q9.65 9.65 8 9.65 6.35 9.65 5.2 10.85 4 12 4 13.65 L4 17.55 4 56.1 Q4.05 57.7 5.2 58.85 6.35 60 8 60 L50.35 60 Q52 60 53.2 58.85 L53.85 58 M50.55 64 L7.8 64 Q4.6 63.9 2.35 61.65 0 59.3 0 56 L0 13.65 Q0 10.35 2.35 8 4.7 5.65 8 5.65 11.3 5.65 13.65 8 L56 50.35 Q58.35 52.7 58.35 56 58.35 59.3 56 61.65 53.75 63.9 50.55 64"/>
    <path stroke="none" fill="#366FBF" d="M16 52 Q16 53.65 14.8 54.8 13.65 56 12 56 10.35 56 9.15 54.8 8 53.65 8 52 8 50.35 9.15 49.15 10.35 48 12 48 13.65 48 14.8 49.15 16 50.35 16 52"/>
  </g>
</svg>