<svg width="64" height="64" xmlns="http://www.w3.org/2000/svg" xmlns:xlink="http://www.w3.org/1999/xlink">
  <defs/>
  <g>
    <path stroke="none" fill="#353541" d="M13.5 64 L6.65 64 1.35 56.05 1.3 56 Q0.2 54.3 0.05 52.35 L0.05 52.3 Q-0.15 50.3 0.6 48.45 L0.65 48.45 10.75 24.85 Q11.65 22.65 13.7 21.35 L13.65 21.35 Q15.65 20 18.05 20 L32.55 20 Q35.1 20 37.25 21.5 L37.2 21.5 Q39.3 23 40.15 25.45 L42.35 32 49 32 Q51.25 32 53.2 33.2 55.1 34.4 56.15 36.45 L62 48.2 62 48.15 Q62.95 50.1 62.85 52.25 62.7 54.35 61.5 56.2 L56.25 64 49.45 64 51.2 63.55 52.65 62.25 58.15 53.95 58.2 53.95 58.3 53.9 58.25 53.8 58.3 53.75 58.85 52 Q58.9 50.9 58.4 49.95 L52.55 38.25 Q52.05 37.2 51.1 36.6 50.1 36 49 36 L39.45 36 36.35 26.75 Q35.95 25.5 34.9 24.75 33.85 24 32.55 24 L18.1 24 Q16.9 24 15.9 24.7 14.85 25.35 14.4 26.45 L4.3 50 Q3.9 50.95 4 51.95 4.1 52.8 4.5 53.55 L4.65 53.8 10.3 62.25 Q10.85 63.05 11.75 63.55 L13.5 64"/>
    <path stroke="none" fill="#E8EBEE" d="M4.5 53.55 Q4.1 52.8 4 51.95 3.9 50.95 4.3 50 L14.4 26.45 Q14.85 25.35 15.9 24.7 16.9 24 18.1 24 L32.55 24 Q33.85 24 34.9 24.75 35.95 25.5 36.35 26.75 L39.45 36 49 36 Q50.1 36 51.1 36.6 52.05 37.2 52.55 38.25 L58.4 49.95 Q58.9 50.9 58.85 52 L58.3 53.75 58.05 53.25 58.25 53.8 58.3 53.9 58.2 53.95 58.15 53.95 57.25 54 41.25 54 Q39.6 54 38.4 52.8 37.25 51.65 37.25 50 37.25 48.35 38.4 47.15 39.6 46 41.25 46 L54.45 46 52.55 42.25 Q52.05 41.2 51.1 40.6 50.1 40 49 40 L39.45 40 36.35 30.75 Q35.95 29.5 34.9 28.75 33.85 28 32.55 28 L18.1 28 Q16.9 28 15.9 28.7 14.85 29.35 14.4 30.45 L12.05 36 16.6 36 Q18.25 36 19.4 37.15 20.6 38.35 20.6 40 20.6 41.65 19.4 42.8 18.25 44 16.6 44 L8.6 44 4.5 53.55"/>
    <path stroke="none" fill="#BBC4CB" d="M4.5 53.55 L8.6 44 16.6 44 Q18.25 44 19.4 42.8 20.6 41.65 20.6 40 20.6 38.35 19.4 37.15 18.25 36 16.6 36 L12.05 36 14.4 30.45 Q14.85 29.35 15.9 28.7 16.9 28 18.1 28 L32.55 28 Q33.85 28 34.9 28.75 35.95 29.5 36.35 30.75 L39.45 40 49 40 Q50.1 40 51.1 40.6 52.05 41.2 52.55 42.25 L54.45 46 41.25 46 Q39.6 46 38.4 47.15 37.25 48.35 37.25 50 37.25 51.65 38.4 52.8 39.6 54 41.25 54 L57.25 54 58.15 53.95 52.65 62.25 51.2 63.55 49.45 64 13.5 64 11.75 63.55 Q10.85 63.05 10.3 62.25 L4.65 53.8 4.5 53.55 M58.3 53.75 L58.25 53.8 58.05 53.25 58.3 53.75"/>
    <path stroke="none" fill="#E8EBEE" d="M31.3 32 L32.15 32.85 Q32.65 33.35 32.65 34.05 32.65 34.75 32.15 35.25 L31.3 36.05 Q30.85 36.55 30.15 36.55 29.45 36.55 28.95 36.05 L28.15 35.2 Q27.65 34.75 27.65 34 27.65 33.35 28.15 32.9 L28.95 32.05 Q29.45 31.55 30.1 31.55 30.85 31.55 31.3 32 M46.3 57 L47.15 57.85 Q47.65 58.35 47.65 59.05 47.65 59.75 47.15 60.25 L46.3 61.05 45.15 61.55 Q44.45 61.55 43.95 61.05 L43.15 60.2 Q42.65 59.75 42.65 59 42.65 58.35 43.15 57.9 L43.95 57.05 Q44.45 56.55 45.1 56.55 45.85 56.55 46.3 57"/>
    <path stroke="none" fill="#92A1AD" d="M17.5 52.95 L18.85 54.3 Q19.65 55.1 19.65 56.2 19.65 57.3 18.85 58.1 L17.5 59.45 Q16.8 60.15 15.7 60.15 14.6 60.15 13.8 59.35 L12.45 58 Q11.7 57.3 11.65 56.15 11.7 55.1 12.45 54.35 L13.8 53 Q14.6 52.2 15.6 52.15 16.8 52.2 17.5 52.95 M25.3 50.5 L26.15 51.35 Q26.65 51.85 26.65 52.55 26.65 53.25 26.15 53.75 L25.3 54.55 Q24.85 55.05 24.15 55.05 23.45 55.05 22.95 54.55 L22.15 53.7 Q21.65 53.25 21.65 52.5 21.65 51.85 22.15 51.4 L22.95 50.55 Q23.45 50.05 24.1 50.05 24.85 50.05 25.3 50.5"/>
  </g>
</svg>