<svg width="64" height="64" xmlns="http://www.w3.org/2000/svg" xmlns:xlink="http://www.w3.org/1999/xlink">
  <defs>
    <linearGradient gradientUnits="userSpaceOnUse" x1="-819.2" x2="819.2" spreadMethod="pad" gradientTransform="matrix(0 -0.01220703125 0.01220703125 0 32 10)" id="gradient0">
      <stop offset="0" stop-color="#BBC4CB"/>
      <stop offset="1" stop-color="#92A1AD"/>
    </linearGradient>
  </defs>
  <g>
    <path stroke="none" fill="#EE9366" d="M36 64 L28 64 28 48 36 56 36 64 M28 0 L36 0 36 8 28 0 M36 24 L36 40 28 32 28 16 36 24"/>
    <path stroke="none" fill="#353541" d="M36 24 L36 8 36 0 40 0 40 64 36 64 36 56 36 40 36 24 M28 64 L24 64 24 0 28 0 28 16 28 32 28 48 28 64"/>
    <path stroke="none" fill="#DE7E4F" d="M36 8 L36 24 28 16 28 0 36 8 M36 40 L36 56 28 48 28 32 36 40"/>
    <path stroke="none" fill="#353541" d="M41.85 8 L44 8 Q48 8 48 4 L48 0 52 0 52 4 Q52 11 45.9 11.9 45.3 16.45 41.9 19.9 37.75 24 32 24 26.2 24 22.1 19.9 L22.05 19.85 Q18.7 16.4 18.1 11.9 12 11 12 4 L12 0 16 0 16 4 Q16 8 20 8 L22.2 8 22 10 Q22 14.1 24.9 17.05 27.85 20 32 20 36.1 20 39.05 17.05 42 14.1 42 10 L41.85 8 M35.45 8 Q36 8.9 36 10 36 11.65 34.8 12.85 33.65 14 32 14 30.35 14 29.15 12.85 28 11.65 28 10 28 8.9 28.55 8 L35.45 8"/>
    <path stroke="none" fill="#BBC4CB" d="M35.45 8 L28.55 8 22.2 8 20 8 Q16 8 16 4 L16 0 48 0 48 4 Q48 8 44 8 L41.85 8 35.45 8"/>
    <path stroke="none" fill="url(#gradient0)" d="M35.45 8 L41.85 8 42 10 Q42 14.1 39.05 17.05 36.1 20 32 20 27.85 20 24.9 17.05 22 14.1 22 10 L22.2 8 28.55 8 Q28 8.9 28 10 28 11.65 29.15 12.85 30.35 14 32 14 33.65 14 34.8 12.85 36 11.65 36 10 36 8.9 35.45 8"/>
    <path stroke="none" fill="#BD6341" d="M28.3 11 Q30.1 9.15 32.5 9.2 34.9 9.15 36.75 11 38.55 12.8 38.5 15.2 L38.5 23.2 Q38.55 25.6 36.75 27.45 34.9 29.25 32.5 29.2 30.1 29.25 28.3 27.45 26.45 25.6 26.5 23.2 L26.5 15.2 Q26.45 12.8 28.3 11"/>
    <path stroke="none" fill="#DE7E4F" d="M32 13.05 Q32.8 13.05 33.4 13.65 34 14.25 34 15.05 L34 23.05 Q34 23.85 33.4 24.45 32.8 25.05 32 25.05 31.2 25.05 30.6 24.45 30 23.85 30 23.05 L30 15.05 Q30 14.25 30.6 13.65 31.2 13.05 32 13.05"/>
  </g>
</svg>