<svg width="64" height="64" xmlns="http://www.w3.org/2000/svg" xmlns:xlink="http://www.w3.org/1999/xlink">
  <defs/>
  <g>
    <path stroke="none" fill="#353541" d="M34.15 0.35 L34.35 0.4 Q36.55 1 38.05 2.7 L38.1 2.75 42.2 7.45 48.45 7 48.35 7.05 Q50.6 6.8 52.7 8 L54.65 9.45 56 11.3 Q57.2 13.4 57 15.6 L56.6 21.85 61.3 25.95 Q63 27.45 63.65 29.7 L63.7 29.85 64 32 63.7 34.15 63.65 34.35 Q63 36.55 61.3 38.05 L61.3 38.1 56.6 42.2 57 48.45 57 48.35 Q57.2 50.6 56 52.7 L54.65 54.6 52.7 56 Q50.6 57.2 48.35 57 L42.2 56.6 38.1 61.3 38.05 61.3 Q36.55 63 34.35 63.65 L34.15 63.7 32 64 29.85 63.7 29.7 63.65 Q27.45 63 25.95 61.3 L21.85 56.6 15.6 57 Q13.4 57.2 11.3 56 10.25 55.45 9.45 54.65 L8 52.7 Q6.8 50.6 7.05 48.35 L7 48.45 7.45 42.15 2.75 38.1 2.7 38.05 Q1 36.55 0.4 34.35 L0.35 34.15 Q0 33.1 0.05 32 0 30.95 0.35 29.85 L0.4 29.7 Q1 27.45 2.7 25.95 L2.75 25.95 7.45 21.85 7 15.6 7.05 15.65 Q6.8 13.4 8 11.3 8.6 10.2 9.45 9.4 10.25 8.55 11.3 8 13.4 6.8 15.65 7.05 L15.6 7 21.85 7.45 25.95 2.75 25.95 2.7 Q27.45 1 29.7 0.4 L29.85 0.35 32 0.05 34.15 0.35 M51.8 12.25 Q51.4 11.85 50.85 11.55 49.8 10.9 48.7 11 L40.5 11.6 35.05 5.35 Q34.3 4.5 33.15 4.2 L32 4.05 30.85 4.2 Q29.7 4.5 28.95 5.35 L23.55 11.6 15.3 11 Q14.2 10.9 13.15 11.55 12.65 11.8 12.25 12.2 11.85 12.6 11.55 13.15 10.9 14.2 11 15.3 L11.6 23.55 5.35 28.95 Q4.5 29.7 4.2 30.85 4.05 31.45 4.05 32 L4.2 33.15 Q4.5 34.3 5.35 35.05 L11.6 40.45 11 48.7 Q10.9 49.8 11.55 50.85 L12.25 51.8 13.15 52.45 Q14.2 53.1 15.3 53 L23.55 52.45 28.95 58.65 Q29.7 59.5 30.85 59.8 L32 60 33.15 59.8 Q34.3 59.5 35.05 58.65 L40.5 52.45 48.7 53 Q49.8 53.1 50.85 52.45 L51.8 51.75 52.45 50.85 Q53.1 49.8 53 48.7 L52.45 40.5 58.65 35.05 Q59.5 34.3 59.8 33.15 L60 32 59.8 30.85 Q59.5 29.7 58.65 28.95 L52.45 23.55 53 15.3 Q53.1 14.2 52.45 13.15 L51.8 12.25"/>
    <path stroke="none" fill="#A8B2BB" d="M51.8 12.25 L44.8 19.3 44.7 19.2 Q42.1 16.65 38.95 15.35 L40.5 11.6 48.7 11 Q49.8 10.9 50.85 11.55 51.4 11.85 51.8 12.25 M52.45 23.55 L58.65 28.95 Q59.5 29.7 59.8 30.85 L60 32 50 32 Q50 28.3 48.7 25.1 L52.45 23.55 M52.45 40.5 L53 48.7 Q53.1 49.8 52.45 50.85 L51.8 51.75 44.75 44.7 Q47.35 42.1 48.7 38.95 L52.45 40.5 M40.5 52.45 L35.05 58.65 Q34.3 59.5 33.15 59.8 L32 60 32.05 50 Q35.75 50 38.95 48.7 L40.5 52.45 M23.55 52.45 L15.3 53 Q14.2 53.1 13.15 52.45 L12.25 51.8 19.3 44.8 Q21.95 47.4 25.1 48.7 L23.55 52.45 M11.6 40.45 L5.35 35.05 Q4.5 34.3 4.2 33.15 L4.05 32 14 32 Q14 35.75 15.3 38.95 L11.6 40.45 M11.6 23.55 L11 15.3 Q10.9 14.2 11.55 13.15 11.85 12.6 12.25 12.2 L19.25 19.2 19.2 19.25 Q16.6 21.9 15.3 25.1 L11.6 23.55 M23.55 11.6 L28.95 5.35 Q29.7 4.5 30.85 4.2 L32 4.05 32.05 14 32 14 Q28.3 14 25.1 15.3 L23.55 11.6"/>
    <path stroke="none" fill="#D6DCE0" d="M38.95 15.35 Q42.1 16.65 44.7 19.2 L44.8 19.3 Q47.4 21.95 48.7 25.1 50 28.3 50 32 50 35.75 48.7 38.95 47.35 42.1 44.75 44.7 L44.75 44.75 Q42.1 47.35 38.95 48.7 35.75 50 32.05 50 L32 50 Q28.3 50 25.1 48.7 21.95 47.4 19.3 44.8 L19.2 44.7 Q16.6 42.1 15.3 38.95 14 35.75 14 32 14 28.25 15.3 25.1 16.6 21.9 19.2 19.25 L19.25 19.2 Q21.9 16.6 25.1 15.3 28.3 14 32 14 L32.05 14 Q35.75 14 38.95 15.35 M41.95 22.1 L41.9 22.05 Q39.85 20.05 37.45 19.05 34.95 18 32.05 18 L32 18 Q29.1 18 26.65 19 24.15 20 22.1 22.05 L22.05 22.05 Q20 24.15 19 26.65 18 29.1 18 32 18 34.9 19.05 37.4 20.05 39.85 22.05 41.9 L22.1 41.95 Q24.15 44 26.65 45 29.1 46 32 46 L32.05 46 Q34.95 46 37.4 45 39.85 43.95 41.9 41.9 L41.95 41.9 Q43.95 39.85 45 37.4 46 34.9 46 32 46 29.1 45 26.65 44 24.15 41.95 22.1"/>
    <path stroke="none" fill="#919EAA" d="M41.95 22.1 L34.5 29.5 Q34 29 33.4 28.8 L32.05 28.5 32 28.5 30.7 28.75 29.55 29.5 29.5 29.5 22.05 22.05 22.1 22.05 Q24.15 20 26.65 19 29.1 18 32 18 L32.05 18 Q34.95 18 37.45 19.05 39.85 20.05 41.9 22.05 L41.95 22.1 M41.9 41.9 Q39.85 43.95 37.4 45 34.95 46 32.05 46 L32 46 Q29.1 46 26.65 45 24.15 44 22.1 41.95 L29.5 34.5 29.55 34.55 30.7 35.3 32 35.5 32.05 35.5 33.4 35.25 34.5 34.5 41.9 41.9"/>
    <path stroke="none" fill="#BBC4CB" d="M41.9 41.9 L34.5 34.5 34.55 34.5 35.25 33.35 35.5 32 35.25 30.7 Q35 30.05 34.55 29.55 L34.5 29.5 41.95 22.1 Q44 24.15 45 26.65 46 29.1 46 32 46 34.9 45 37.4 43.95 39.85 41.95 41.9 L41.9 41.9 M51.8 12.25 L52.45 13.15 Q53.1 14.2 53 15.3 L52.45 23.55 48.7 25.1 Q47.4 21.95 44.8 19.3 L51.8 12.25 M60 32 L59.8 33.15 Q59.5 34.3 58.65 35.05 L52.45 40.5 48.7 38.95 Q50 35.75 50 32 L60 32 M51.8 51.75 L50.85 52.45 Q49.8 53.1 48.7 53 L40.5 52.45 38.95 48.7 Q42.1 47.35 44.75 44.75 L44.75 44.7 51.8 51.75 M32 60 L30.85 59.8 Q29.7 59.5 28.95 58.65 L23.55 52.45 25.1 48.7 Q28.3 50 32 50 L32.05 50 32 60 M12.25 51.8 L11.55 50.85 Q10.9 49.8 11 48.7 L11.6 40.45 15.3 38.95 Q16.6 42.1 19.2 44.7 L19.3 44.8 12.25 51.8 M4.05 32 Q4.05 31.45 4.2 30.85 4.5 29.7 5.35 28.95 L11.6 23.55 15.3 25.1 Q14 28.25 14 32 L4.05 32 M12.25 12.2 Q12.65 11.8 13.15 11.55 14.2 10.9 15.3 11 L23.55 11.6 25.1 15.3 Q21.9 16.6 19.25 19.2 L12.25 12.2 M32 4.05 L33.15 4.2 Q34.3 4.5 35.05 5.35 L40.5 11.6 38.95 15.35 Q35.75 14 32.05 14 L32 4.05 M22.1 41.95 L22.05 41.9 Q20.05 39.85 19.05 37.4 18 34.9 18 32 18 29.1 19 26.65 20 24.15 22.05 22.05 L29.5 29.5 Q29 30 28.75 30.65 28.5 31.25 28.5 32 28.5 32.75 28.75 33.35 L29.5 34.5 22.1 41.95"/>
    <path stroke="none" fill="#767D83" d="M32 25.5 L32.1 25.5 34.55 26 34.6 26.05 36.6 27.35 36.65 27.4 36.75 27.5 Q37.6 28.4 38.05 29.55 L38.05 29.65 Q38.5 30.75 38.5 32 38.5 33.3 38.05 34.4 L38.05 34.5 36.75 36.55 36.65 36.6 36.65 36.65 36.6 36.7 Q35.65 37.6 34.5 38.05 L34.6 38 32.1 38.5 32 38.5 29.65 38.1 29.6 38.1 27.5 36.75 27.4 36.65 27.35 36.6 Q26.45 35.65 26 34.5 25.5 33.35 25.5 32 25.5 30.65 26 29.55 26.45 28.35 27.35 27.45 L27.4 27.4 27.4 27.35 27.5 27.3 Q28.45 26.4 29.6 25.95 L29.65 25.95 Q30.75 25.5 32 25.5 M29.5 29.5 Q29 30 28.75 30.65 28.5 31.25 28.5 32 28.5 32.75 28.75 33.35 L29.5 34.5 29.55 34.55 30.7 35.3 32 35.5 32.05 35.5 33.4 35.25 34.5 34.5 34.55 34.5 35.25 33.35 35.5 32 35.25 30.7 Q35 30.05 34.55 29.55 L34.5 29.5 Q34 29 33.4 28.8 L32.05 28.5 32 28.5 30.7 28.75 29.55 29.5 29.5 29.5"/>
    <path stroke="none" fill="#D6DCE0" d="M29.5 29.5 L29.55 29.5 30.7 28.75 32 28.5 32.05 28.5 33.4 28.8 Q34 29 34.5 29.5 L34.55 29.55 Q35 30.05 35.25 30.7 L35.5 32 35.25 33.35 34.55 34.5 34.5 34.5 33.4 35.25 32.05 35.5 32 35.5 30.7 35.3 29.55 34.55 29.5 34.5 28.75 33.35 Q28.5 32.75 28.5 32 28.5 31.25 28.75 30.65 29 30 29.5 29.5"/>
  </g>
</svg>