<svg width="64" height="64" xmlns="http://www.w3.org/2000/svg" xmlns:xlink="http://www.w3.org/1999/xlink">
  <defs/>
  <g>
    <path stroke="none" fill="#353541" d="M31.55 3.55 Q33.95 1.1 37 0.4 L36.95 0.4 40 0 Q44.95 0 48.5 3.55 50.5 5.55 51.35 8 L56 8 Q59.25 8 61.6 10.3 L61.7 10.45 Q64 12.75 64 16 L64 27.2 Q64 28.85 62.85 30.05 L60.85 32.05 62.85 34.05 Q64 35.2 64 36.85 L64 48.1 64 48.25 Q63.9 51.4 61.65 53.7 59.3 56 56 56 L52 56 52 64 28 64 28 56 25.65 56 Q22.4 56 20.05 53.75 L20 53.7 4 37.7 3.8 37.5 2.85 36.25 2.65 35.95 Q1.65 34.15 1.65 32 1.65 28.7 4 26.4 L20 10.4 Q22.35 8 25.65 8 L28.65 8 Q29.5 5.55 31.55 3.55"/>
    <path stroke="none" fill="#C66A3E" d="M32 52 L32 12 Q32 8.7 34.35 6.35 35.95 4.75 37.95 4.25 L40 4 Q43.3 4 45.65 6.35 48 8.7 48 12 L48 52 32 52 M48 56 L48 64 32 64 32 56 48 56"/>
    <path stroke="none" fill="#AA5E39" d="M48 56 L32 56 32 52 48 52 48 56"/>
    <path stroke="none" fill="#C66A3E" d="M53.35 44.45 Q53.8 44 54.55 44 55.2 44 55.7 44.5 L56.5 45.35 Q57 45.8 57 46.45 57 47.2 56.5 47.65 L55.7 48.5 Q55.2 49 54.5 49 53.8 49 53.35 48.5 L52.5 47.7 Q52 47.2 52 46.5 52 45.8 52.5 45.3 L53.35 44.45 M53.35 19.45 Q53.8 19 54.55 19 55.2 19 55.7 19.5 L56.5 20.35 Q57 20.8 57 21.45 57 22.2 56.5 22.65 L55.7 23.5 Q55.2 24 54.5 24 53.8 24 53.35 23.5 L52.5 22.7 Q52 22.2 52 21.5 52 20.8 52.5 20.3 L53.35 19.45"/>
    <path stroke="none" fill="#DE7E4F" d="M53.35 19.45 L52.5 20.3 Q52 20.8 52 21.5 52 22.2 52.5 22.7 L53.35 23.5 Q53.8 24 54.5 24 55.2 24 55.7 23.5 L56.5 22.65 Q57 22.2 57 21.45 57 20.8 56.5 20.35 L55.7 19.5 Q55.2 19 54.55 19 53.8 19 53.35 19.45 M6.15 34 L6.8 33.2 22.8 17.2 Q24 16 25.65 16 L56 16 Q57.65 16 58.8 17.2 59.95 18.3 60 19.9 L60 27.2 56.6 30.6 Q56.15 31 56 31.6 L56 32 Q56 32.85 56.6 33.45 L60 36.85 60 48.1 Q59.95 49.7 58.8 50.85 57.65 52 56 52 L25.65 52 Q24 52 22.8 50.85 L6.8 34.85 6.15 34 M53.35 44.45 L52.5 45.3 Q52 45.8 52 46.5 52 47.2 52.5 47.7 L53.35 48.5 Q53.8 49 54.5 49 55.2 49 55.7 48.5 L56.5 47.65 Q57 47.2 57 46.45 57 45.8 56.5 45.35 L55.7 44.5 Q55.2 44 54.55 44 53.8 44 53.35 44.45"/>
    <path stroke="none" fill="#FA9F72" d="M60 19.9 Q59.95 18.3 58.8 17.2 57.65 16 56 16 L25.65 16 Q24 16 22.8 17.2 L6.8 33.2 6.15 34 Q5.65 33.1 5.65 32 5.65 30.35 6.8 29.2 L22.8 13.2 Q24 12 25.65 12 L56 12 Q57.65 12 58.8 13.2 60 14.35 60 16 L60 19.9"/>
  </g>
</svg>