<svg width="64" height="64" xmlns="http://www.w3.org/2000/svg" xmlns:xlink="http://www.w3.org/1999/xlink">
  <defs/>
  <g>
    <path stroke="none" fill="#353541" d="M0 27.2 L0 16 Q0 8 8 8 L20.65 8 Q21.5 5.55 23.55 3.55 25.95 1.1 29 0.4 L28.95 0.4 32 0 Q36.95 0 40.5 3.55 42.5 5.55 43.35 8 L56 8 Q64 8 64 16 L64 27.2 Q64 28.85 62.85 30.05 L60.85 32.05 62.85 34.05 Q64 35.2 64 36.85 L64 48.25 64 48.4 Q63.75 56 56 56 L44 56 44 64 20 64 20 56 8 56 Q0.25 56 0 48.4 L0 48.25 0 36.85 Q0 35.2 1.2 34.05 L3.2 32.05 1.2 30.05 Q0 28.85 0 27.2"/>
    <path stroke="none" fill="#C66A3E" d="M32 4 Q35.3 4 37.65 6.35 40 8.7 40 12 L40 64 24 64 24 12 Q24 8.7 26.35 6.35 27.95 4.75 29.95 4.25 L32 4"/>
    <path stroke="none" fill="#AA5E39" d="M40 56 L24 56 24 52 40 52 40 56"/>
    <path stroke="none" fill="#FA9F72" d="M4 19.75 L4 16 Q4 12 8 12 L56 12 Q60 12 60 16 L60 19.75 Q59.85 16 56 16 L8 16 Q4.15 16 4 19.75"/>
    <path stroke="none" fill="#DE7E4F" d="M4 19.75 Q4.15 16 8 16 L56 16 Q59.85 16 60 19.75 L60 27.2 56.6 30.6 Q56.15 31 56.05 31.6 L56 32 Q56 32.85 56.6 33.45 L60 36.85 60 48.25 Q59.85 52 56 52 L8 52 Q4.15 52 4 48.25 L4 36.85 7.4 33.45 Q8 32.85 8 32 L8 31.6 7.4 30.6 4 27.2 4 19.75 M55.65 19.45 Q55.2 19 54.45 19 53.8 19 53.3 19.5 L52.5 20.35 Q52 20.8 52 21.45 52 22.2 52.5 22.65 L53.3 23.5 Q53.8 24 54.5 24 55.2 24 55.65 23.5 L56.5 22.7 Q57 22.2 57 21.5 57 20.8 56.5 20.3 L55.65 19.45 M10.65 44.45 Q10.2 44 9.45 44 8.8 44 8.3 44.5 L7.5 45.35 Q7 45.8 7 46.45 7 47.2 7.5 47.65 L8.3 48.5 Q8.8 49 9.5 49 10.2 49 10.65 48.5 L11.5 47.7 Q12 47.2 12 46.5 12 45.8 11.5 45.3 L10.65 44.45 M10.65 19.45 Q10.2 19 9.45 19 8.8 19 8.3 19.5 L7.5 20.35 Q7 20.8 7 21.45 7 22.2 7.5 22.65 L8.3 23.5 Q8.8 24 9.5 24 10.2 24 10.65 23.5 L11.5 22.7 Q12 22.2 12 21.5 12 20.8 11.5 20.3 L10.65 19.45 M55.65 44.45 Q55.2 44 54.45 44 53.8 44 53.3 44.5 L52.5 45.35 Q52 45.8 52 46.45 52 47.2 52.5 47.65 L53.3 48.5 Q53.8 49 54.5 49 55.2 49 55.65 48.5 L56.5 47.7 Q57 47.2 57 46.5 57 45.8 56.5 45.3 L55.65 44.45"/>
    <path stroke="none" fill="#C66A3E" d="M55.65 44.45 L56.5 45.3 Q57 45.8 57 46.5 57 47.2 56.5 47.7 L55.65 48.5 Q55.2 49 54.5 49 53.8 49 53.3 48.5 L52.5 47.65 Q52 47.2 52 46.45 52 45.8 52.5 45.35 L53.3 44.5 Q53.8 44 54.45 44 55.2 44 55.65 44.45 M55.65 19.45 L56.5 20.3 Q57 20.8 57 21.5 57 22.2 56.5 22.7 L55.65 23.5 Q55.2 24 54.5 24 53.8 24 53.3 23.5 L52.5 22.65 Q52 22.2 52 21.45 52 20.8 52.5 20.35 L53.3 19.5 Q53.8 19 54.45 19 55.2 19 55.65 19.45 M10.65 19.45 L11.5 20.3 Q12 20.8 12 21.5 12 22.2 11.5 22.7 L10.65 23.5 Q10.2 24 9.5 24 8.8 24 8.3 23.5 L7.5 22.65 Q7 22.2 7 21.45 7 20.8 7.5 20.35 L8.3 19.5 Q8.8 19 9.45 19 10.2 19 10.65 19.45 M10.65 44.45 L11.5 45.3 Q12 45.8 12 46.5 12 47.2 11.5 47.7 L10.65 48.5 Q10.2 49 9.5 49 8.8 49 8.3 48.5 L7.5 47.65 Q7 47.2 7 46.45 7 45.8 7.5 45.35 L8.3 44.5 Q8.8 44 9.45 44 10.2 44 10.65 44.45"/>
    <path stroke="none" fill="#C66A3E" d="M36.7 29.05 L40.2 29.05 40.55 29.2 40.7 29.6 40.7 40.3 40.55 40.7 40.2 40.85 36.7 40.85 36.35 40.7 Q36.2 40.55 36.2 40.3 L36.2 29.6 Q36.2 29.35 36.35 29.2 36.5 29.05 36.7 29.05 M34.85 31.6 L32.3 34.65 35.45 38.15 35.6 38.55 35.45 38.9 32.85 41.25 32.5 41.4 32.1 41.2 29.4 38.15 26.7 41.4 26.35 41.55 25.95 41.45 23.3 39.25 23.1 38.85 23.25 38.5 26.35 34.8 23.85 32 23.65 31.6 Q23.65 31.35 23.9 31.25 L26.45 28.95 Q26.6 28.8 26.85 28.8 L27.2 29 29.25 31.25 31.35 28.7 31.7 28.55 32.05 28.7 34.75 30.9 34.95 31.25 34.85 31.6 M42.65 27.4 L47.2 27.45 47.35 27.45 51.5 27.45 51.9 27.7 52 28.05 51.95 31.5 51.8 31.9 51.4 32 49.4 31.95 48.6 41.25 48.45 41.6 48 41.7 44.55 41.45 44.2 41.25 44.1 40.9 44.85 31.9 42.65 31.9 Q42.4 31.9 42.3 31.7 L42.1 31.35 42.15 27.9 42.3 27.5 42.65 27.4 M21.45 31.9 L17.25 32.05 17.25 32.75 19.65 32.55 19.95 32.7 20.15 33.05 20.4 36.55 20.3 36.9 19.95 37.05 17.25 37.3 17.25 38.05 21.45 37.8 21.85 37.95 22.05 38.3 22.2 41.75 22.05 42.2 21.7 42.3 13.3 42.8 13 42.7 12.8 42.55 12.7 42.25 12.8 28.2 Q12.8 27.95 12.95 27.8 L13.35 27.7 21.4 27.45 Q21.6 27.45 21.7 27.6 L21.9 27.95 22 31.35 21.85 31.8 21.45 31.9"/>
    <path stroke="none" fill="#FFE0C2" d="M36.7 27.05 L40.2 27.05 40.55 27.2 40.7 27.6 40.7 38.3 40.55 38.7 40.2 38.85 36.7 38.85 36.35 38.7 Q36.2 38.55 36.2 38.3 L36.2 27.6 Q36.2 27.35 36.35 27.2 36.5 27.05 36.7 27.05 M34.85 29.6 L32.3 32.65 35.45 36.15 35.6 36.55 35.45 36.9 32.85 39.25 32.5 39.4 32.1 39.2 29.4 36.15 26.7 39.4 26.35 39.55 25.95 39.45 23.3 37.25 23.1 36.85 23.25 36.5 26.35 32.8 23.85 30 23.65 29.6 Q23.65 29.35 23.9 29.25 L26.45 26.95 Q26.6 26.8 26.85 26.8 L27.2 27 29.25 29.25 31.35 26.7 31.7 26.55 32.05 26.7 34.75 28.9 34.95 29.25 34.85 29.6 M42.65 25.4 L47.2 25.45 47.35 25.45 51.5 25.45 51.9 25.7 52 26.05 51.95 29.5 51.8 29.9 51.4 30 49.4 29.95 48.6 39.25 48.45 39.6 48 39.7 44.55 39.45 44.2 39.25 44.1 38.9 44.85 29.9 42.65 29.9 Q42.4 29.9 42.3 29.7 L42.1 29.35 42.15 25.9 42.3 25.5 42.65 25.4 M21.45 29.9 L17.25 30.05 17.25 30.75 19.65 30.55 19.95 30.7 20.15 31.05 20.4 34.55 20.3 34.9 19.95 35.05 17.25 35.3 17.25 36.05 21.45 35.8 21.85 35.95 22.05 36.3 22.2 39.75 22.05 40.2 21.7 40.3 13.3 40.8 13 40.7 12.8 40.55 12.7 40.25 12.8 26.2 Q12.8 25.95 12.95 25.8 L13.35 25.7 21.4 25.45 Q21.6 25.45 21.7 25.6 L21.9 25.95 22 29.35 21.85 29.8 21.45 29.9"/>
  </g>
</svg>