<svg width="64" height="64" xmlns="http://www.w3.org/2000/svg" xmlns:xlink="http://www.w3.org/1999/xlink">
  <defs/>
  <g>
    <path stroke="none" fill="#353541" d="M38.35 8 Q41.65 8 44.05 10.4 L60.05 26.4 Q62.35 28.7 62.35 32 62.35 34.15 61.35 35.95 L61.2 36.25 60.2 37.5 60.05 37.7 44.05 53.7 44 53.75 Q41.6 56 38.35 56 L36 56 36 64 12 64 12 56 8 56 Q4.7 56 2.4 53.7 0.1 51.4 0 48.25 L0 48.1 0 36.85 Q0 35.2 1.2 34.05 L3.2 32.05 1.2 30.05 Q0 28.85 0 27.2 L0 16 Q0 12.75 2.3 10.45 L2.45 10.3 Q4.75 8 8 8 L12.65 8 Q13.5 5.55 15.55 3.55 17.95 1.1 21 0.4 L20.95 0.4 24 0 Q28.95 0 32.5 3.55 34.5 5.55 35.35 8 L38.35 8"/>
    <path stroke="none" fill="#C66A3E" d="M16 52 L16 12 Q16 8.7 18.35 6.35 19.95 4.75 21.95 4.25 L24 4 Q27.3 4 29.65 6.35 32 8.7 32 12 L32 52 16 52 M32 56 L32 64 16 64 16 56 32 56"/>
    <path stroke="none" fill="#AA5E39" d="M32 56 L16 56 16 52 32 52 32 56"/>
    <path stroke="none" fill="#FA9F72" d="M4 19.9 L4 16 Q4 14.35 5.2 13.2 6.35 12 8 12 L38.35 12 Q40 12 41.2 13.2 L57.2 29.2 Q58.35 30.35 58.35 32 58.35 33.1 57.85 34 L57.2 33.2 41.2 17.2 Q40 16 38.35 16 L8 16 Q6.35 16 5.2 17.2 4.05 18.3 4 19.9"/>
    <path stroke="none" fill="#DE7E4F" d="M4 19.9 Q4.05 18.3 5.2 17.2 6.35 16 8 16 L38.35 16 Q40 16 41.2 17.2 L57.2 33.2 57.85 34 57.2 34.85 41.2 50.85 Q40 52 38.35 52 L8 52 Q6.35 52 5.2 50.85 4.05 49.7 4 48.1 L4 36.85 7.4 33.45 Q8 32.85 8 32 L8 31.6 7.4 30.6 4 27.2 4 19.9 M10.65 44.45 Q10.2 44 9.45 44 8.8 44 8.3 44.5 L7.5 45.35 Q7 45.8 7 46.45 7 47.2 7.5 47.65 L8.3 48.5 Q8.8 49 9.5 49 10.2 49 10.65 48.5 L11.5 47.7 Q12 47.2 12 46.5 12 45.8 11.5 45.3 L10.65 44.45 M10.65 19.45 Q10.2 19 9.45 19 8.8 19 8.3 19.5 L7.5 20.35 Q7 20.8 7 21.45 7 22.2 7.5 22.65 L8.3 23.5 Q8.8 24 9.5 24 10.2 24 10.65 23.5 L11.5 22.7 Q12 22.2 12 21.5 12 20.8 11.5 20.3 L10.65 19.45"/>
    <path stroke="none" fill="#C66A3E" d="M10.65 19.45 L11.5 20.3 Q12 20.8 12 21.5 12 22.2 11.5 22.7 L10.65 23.5 Q10.2 24 9.5 24 8.8 24 8.3 23.5 L7.5 22.65 Q7 22.2 7 21.45 7 20.8 7.5 20.35 L8.3 19.5 Q8.8 19 9.45 19 10.2 19 10.65 19.45 M10.65 44.45 L11.5 45.3 Q12 45.8 12 46.5 12 47.2 11.5 47.7 L10.65 48.5 Q10.2 49 9.5 49 8.8 49 8.3 48.5 L7.5 47.65 Q7 47.2 7 46.45 7 45.8 7.5 45.35 L8.3 44.5 Q8.8 44 9.45 44 10.2 44 10.65 44.45"/>
  </g>
</svg>