<svg width="64" height="64" xmlns="http://www.w3.org/2000/svg" xmlns:xlink="http://www.w3.org/1999/xlink">
  <defs/>
  <g>
    <path stroke="none" fill="#E5F0FF" d="M4 64 L0 64 Q0 62.55 0.95 61.45 1.95 60.25 3.5 60.05 6.8 59.4 9.95 55.4 L10 55.35 Q14.5 49.65 21.3 50.35 L21.6 50 21.55 50.1 Q26.55 43.95 33.75 44 40.8 43.9 45.8 49.95 47.5 51.8 51.25 54.7 56.95 59.1 61 60.15 62.45 60.5 63.3 61.75 64 62.8 64 64 L60 64 Q55.2 62.75 48.7 57.75 44.5 54.5 42.8 52.6 39.05 48 33.75 48 28.4 48 24.65 52.6 23.8 53.6 23.1 54.75 16.95 53.05 13.1 57.85 8.75 63.4 4 64"/>
    <path stroke="none" fill="#FFFFFF" d="M4 64 Q8.75 63.4 13.1 57.85 16.95 53.05 23.1 54.75 23.8 53.6 24.65 52.6 28.4 48 33.75 48 39.05 48 42.8 52.6 44.5 54.5 48.7 57.75 55.2 62.75 60 64 L4 64"/>
  </g>
</svg>