<svg width="64" height="64" xmlns="http://www.w3.org/2000/svg" xmlns:xlink="http://www.w3.org/1999/xlink">
  <defs/>
  <g>
    <path stroke="none" fill="#353541" d="M52 19.95 Q64 19.95 64 31.95 L64 40.45 64 40.6 Q63.65 51.95 52 51.95 L48 51.95 48 52 Q56 52 56 60 L56 64 8 64 8 60 Q8 52 16 52 L16 51.95 12 51.95 Q0.35 51.95 0 40.6 L0 40.45 0 31.95 Q0 19.95 12 19.95 L52 19.95"/>
    <path stroke="none" fill="#BBC4CB" d="M24 48 L40 48 Q44 48 44 52 L44 56 20 56 20 52 Q20 48 24 48"/>
    <path stroke="none" fill="#8FCAF0" d="M60 35.5 Q59.75 28 52 28 L12 28 Q4.25 28 4 35.5 L4 32 Q4 24 12 24 L52 24 Q60 24 60 32 L60 35.5"/>
    <path stroke="none" fill="#419FDD" d="M60 35.5 L60 40.5 Q59.75 48 52 48 L12 48 Q4.25 48 4 40.5 L4 35.5 Q4.25 28 12 28 L52 28 Q59.75 28 60 35.5"/>
    <path stroke="none" fill="#92A1AD" d="M16 56 L48 56 Q52 56 52 60 L52 64 12 64 12 60 Q12 56 16 56"/>
    <path stroke="none" fill="#92A1AD" d="M27 52 Q27 52.8 26.4 53.4 25.8 54 25 54 24.2 54 23.6 53.4 23 52.8 23 52 23 51.2 23.6 50.6 24.2 50 25 50 25.8 50 26.4 50.6 27 51.2 27 52"/>
    <path stroke="none" fill="#92A1AD" d="M41 52 Q41 52.8 40.4 53.4 39.8 54 39 54 38.2 54 37.6 53.4 37 52.8 37 52 37 51.2 37.6 50.6 38.2 50 39 50 39.8 50 40.4 50.6 41 51.2 41 52"/>
  </g>
</svg>