<svg width="64" height="64" xmlns="http://www.w3.org/2000/svg" xmlns:xlink="http://www.w3.org/1999/xlink">
  <defs>
    <linearGradient gradientUnits="userSpaceOnUse" x1="-819.2" x2="819.2" spreadMethod="pad" gradientTransform="matrix(0.015625 -0.004180908203125 0.00189208984375 0.007049560546875 32.15 41.9)" id="gradient0">
      <stop offset="0" stop-color="#BBC4CB"/>
      <stop offset="1" stop-color="#92A1AD"/>
    </linearGradient>
  </defs>
  <g>
    <path stroke="none" fill="#353541" d="M51.6 33.4 Q52.65 36.55 51.15 39.55 L51.15 39.5 Q49.75 42.3 46.95 43.45 42.45 45.7 37.9 47.9 L46.2 52.05 48 52.05 Q56 52.05 56 60.05 L56 64.05 8 64.05 8 60.05 Q8 53.55 13.3 52.35 L12.4 50.45 Q11.35 47.3 12.85 44.35 14.2 41.6 17 40.5 L17.15 40.4 Q21.65 38.2 26.1 35.95 L18.2 32 12 32 Q0.3 32 0 20.65 L0 20.5 0 12 Q0 0 12 0 L52 0 Q64 0 64 12 L64 20.5 64 20.65 Q63.7 32 52 32 L51 32 51.6 33.4"/>
    <path stroke="none" fill="#BBC4CB" d="M35.05 35.95 L18.2 27.55 Q16.7 26.8 16.2 25.25 15.7 23.65 16.45 22.2 17.15 20.7 18.75 20.15 20.3 19.65 21.8 20.4 L45.8 32.4 Q47.3 33.1 47.8 34.7 48.3 36.25 47.6 37.75 46.9 39.15 45.45 39.7 L45.3 39.75 42.2 39.55 35.05 35.95 M28.95 47.9 L45.8 56.35 Q47.3 57.05 47.8 58.65 48.3 60.2 47.6 61.7 46.85 63.15 45.3 63.7 L42.2 63.5 18.2 51.5 Q16.7 50.75 16.2 49.2 15.7 47.6 16.45 46.15 17.15 44.65 18.75 44.1 L19 44.05 Q20.45 43.65 21.8 44.35 L28.95 47.9"/>
    <path stroke="none" fill="url(#gradient0)" d="M28.95 47.9 L21.8 44.35 Q20.45 43.65 19 44.05 L18.95 44 35.05 35.95 42.2 39.55 45.3 39.75 45.45 39.7 28.95 47.9"/>
    <path stroke="none" fill="#419FDD" d="M60 15.5 L60 20.5 Q59.75 28 52 28 L12 28 Q4.25 28 4 20.5 L4 15.5 Q4.25 8 12 8 L52 8 Q59.75 8 60 15.5"/>
    <path stroke="none" fill="#8FCAF0" d="M60 15.5 Q59.75 8 52 8 L12 8 Q4.25 8 4 15.5 L4 12 Q4 4 12 4 L52 4 Q60 4 60 12 L60 15.5"/>
    <path stroke="none" fill="#92A1AD" d="M16 56.05 L48 56.05 Q52 56.05 52 60.05 L52 64.05 12 64.05 12 60.05 Q12 56.05 16 56.05"/>
    <path stroke="none" fill="#92A1AD" d="M22 48 Q22 48.8 21.4 49.4 20.8 50 20 50 19.2 50 18.6 49.4 18 48.8 18 48 18 47.2 18.6 46.6 19.2 46 20 46 20.8 46 21.4 46.6 22 47.2 22 48"/>
    <path stroke="none" fill="#92A1AD" d="M46 36 Q46 36.8 45.4 37.4 44.8 38 44 38 43.2 38 42.6 37.4 42 36.8 42 36 42 35.2 42.6 34.6 43.2 34 44 34 44.8 34 45.4 34.6 46 35.2 46 36"/>
  </g>
</svg>