<svg width="64" height="64" xmlns="http://www.w3.org/2000/svg" xmlns:xlink="http://www.w3.org/1999/xlink">
  <defs>
    <linearGradient gradientUnits="userSpaceOnUse" x1="-819.2" x2="819.2" spreadMethod="pad" gradientTransform="matrix(0.0034027099609375 0.008941650390625 -0.00909423828125 0.0034637451171875 39.85 24.95)" id="gradient0">
      <stop offset="0" stop-color="#FFD751"/>
      <stop offset="1" stop-color="#FABA2D"/>
    </linearGradient>
    <linearGradient gradientUnits="userSpaceOnUse" x1="-819.2" x2="819.2" spreadMethod="pad" gradientTransform="matrix(-0.003631591796875 0.0103607177734375 -0.011016845703125 -0.0038604736328125 20.25 35.65)" id="gradient1">
      <stop offset="0" stop-color="#FABA2D"/>
      <stop offset="1" stop-color="#E28F2B"/>
    </linearGradient>
  </defs>
  <g>
    <path stroke="none" fill="#353541" d="M37.95 15.75 L41.5 20.2 47 22.2 47.15 22.25 Q49.1 23 50.45 24.65 L50.7 25 51.3 26 51.45 26.4 Q51.9 27.55 52 28.95 L52 29.2 Q52 31.4 50.7 33.35 L50.6 33.5 47.55 38.1 47.2 43.85 Q47.1 46.15 45.7 48 L45.55 48.15 44.45 49.25 44.3 49.35 42.2 50.55 41.9 50.65 Q39.85 51.25 37.7 50.7 L32 49.2 26.25 50.7 26.3 50.65 21.85 50.55 21.9 50.55 Q20.7 50.15 19.75 49.5 L19.45 49.25 18.35 48.1 Q16.8 46.2 16.7 43.8 L16.45 38.1 13.25 33.4 Q11.9 31.35 12 29 12.05 27.45 12.7 26.15 L12.75 26 13.35 25 13.5 24.8 Q14.8 23.05 16.85 22.25 L16.95 22.2 22.45 20.2 26.15 15.7 26.15 15.75 Q27.5 14 29.85 13.35 L29.95 13.3 31.85 13 34.15 13.3 Q36.35 13.95 37.8 15.65 L37.95 15.75 M47.7 27.8 L47.35 27.2 Q46.65 26.35 45.65 25.95 L39.1 23.6 34.8 18.25 Q34.1 17.45 33.05 17.15 L32 17 31 17.15 Q29.9 17.45 29.25 18.25 L24.85 23.6 18.3 25.95 Q17.3 26.35 16.65 27.2 L16.3 27.8 Q16 28.45 16 29.2 15.95 30.25 16.55 31.15 L20.4 36.8 20.7 43.6 Q20.75 44.7 21.45 45.55 L22.05 46.2 Q22.55 46.55 23.15 46.75 L25.25 46.8 32 45.05 38.7 46.8 Q39.75 47.1 40.75 46.8 L41.85 46.2 42.5 45.55 Q43.15 44.7 43.2 43.65 L43.6 36.8 47.35 31.15 Q48 30.25 48 29.2 L47.7 27.8"/>
    <path stroke="none" fill="url(#gradient0)" d="M47.7 27.8 L32 32.95 32 17 33.05 17.15 Q34.1 17.45 34.8 18.25 L39.1 23.6 45.65 25.95 Q46.65 26.35 47.35 27.2 L47.7 27.8"/>
    <path stroke="none" fill="#FABA2D" d="M47.7 27.8 L48 29.2 Q48 30.25 47.35 31.15 L43.6 36.8 43.2 43.65 Q43.15 44.7 42.5 45.55 L41.85 46.2 40.75 46.8 Q39.75 47.1 38.7 46.8 L32 45.05 32 32.95 47.7 27.8 M16.3 27.8 L16.65 27.2 Q17.3 26.35 18.3 25.95 L24.85 23.6 29.25 18.25 Q29.9 17.45 31 17.15 L32 17 32 32.95 16.3 27.8"/>
    <path stroke="none" fill="url(#gradient1)" d="M16.3 27.8 L32 32.95 32 45.05 25.25 46.8 23.15 46.75 Q22.55 46.55 22.05 46.2 L21.45 45.55 Q20.75 44.7 20.7 43.6 L20.4 36.8 16.55 31.15 Q15.95 30.25 16 29.2 16 28.45 16.3 27.8"/>
  </g>
</svg>