<svg width="64" height="64" xmlns="http://www.w3.org/2000/svg" xmlns:xlink="http://www.w3.org/1999/xlink">
  <defs/>
  <g>
    <path stroke="none" fill="#353541" d="M4 64 L0 64 0 56 Q0 51.05 3.55 47.55 6.7 44.35 11 44.05 12.75 41.9 15.8 40.1 22.5 36 32 36 41.5 36 48.2 40.1 51.25 41.9 53.05 44.05 57.3 44.35 60.5 47.55 64 51.05 64 56 L64 64 60 64 60 59.75 60 56 Q60 52.7 57.65 50.35 55.3 48 52 48 L50.95 48 Q49.5 45.5 46.15 43.5 40.3 40 32 40 23.7 40 17.85 43.5 14.5 45.5 13.1 48 L12 48 Q8.7 48 6.35 50.35 4 52.7 4 56 L4 59.75 4 64"/>
    <path stroke="none" fill="#F35452" d="M13.1 48 Q14.5 45.5 17.85 43.5 23.7 40 32 40 40.3 40 46.15 43.5 49.5 45.5 50.95 48 L48.3 48 46.15 47.15 Q40.3 45.15 32 45.15 23.7 45.15 17.85 47.15 L15.75 48 13.1 48"/>
    <path stroke="none" fill="#CDD3D9" d="M13.1 48 L15.75 48 48.3 48 50.95 48 52 48 Q55.3 48 57.65 50.35 60 52.7 60 56 L60 59.75 Q59.9 56.6 57.65 54.35 55.3 52 52 52 L12 52 Q8.7 52 6.35 54.35 4.1 56.6 4 59.75 L4 56 Q4 52.7 6.35 50.35 8.7 48 12 48 L13.1 48"/>
    <path stroke="none" fill="#E54341" d="M15.75 48 L17.85 47.15 Q23.7 45.15 32 45.15 40.3 45.15 46.15 47.15 L48.3 48 15.75 48"/>
    <path stroke="none" fill="#B9C2CA" d="M60 64 L4 64 4 59.75 Q4.1 56.6 6.35 54.35 8.7 52 12 52 L52 52 Q55.3 52 57.65 54.35 59.9 56.6 60 59.75 L60 64"/>
  </g>
</svg>