<svg width="64" height="64" xmlns="http://www.w3.org/2000/svg" xmlns:xlink="http://www.w3.org/1999/xlink">
  <defs/>
  <g>
    <path stroke="none" fill="#353541" d="M60 0 L64 0 64 64 60 64 60 51.15 60 33.15 60 29.15 60 22.15 60 18.15 60 6.15 60 0"/>
    <path stroke="none" fill="#DE7E4F" d="M60 0 L60 6.15 54.95 7.05 Q51.4 8 47.9 9.8 44.9 11.35 42 12.3 36.9 14 32 14 24.3 14 16.1 9.8 12.6 8 9.05 7.05 4.6 5.9 0 6 L0 0 60 0 M60 64 L0 64 0 51 Q4.6 50.9 9.05 52.05 12.6 53 16.1 54.8 24.3 59 32 59 36.9 59 42 57.3 44.9 56.35 47.9 54.8 51.4 53 54.95 52.05 L60 51.15 60 64 M0 29 L0 22 Q4.6 21.9 9.05 23.05 12.6 24 16.1 25.8 24.3 30 32 30 36.9 30 42 28.3 44.9 27.35 47.9 25.8 51.4 24 54.95 23.05 L60 22.15 60 29.15 54.95 30.05 Q51.4 31 47.9 32.8 44.9 34.35 42 35.3 36.9 37 32 37 24.3 37 16.1 32.8 12.6 31 9.05 30.05 4.6 28.9 0 29 M33.15 5.95 Q32.7 5.5 31.95 5.5 31.3 5.5 30.8 6 L30 6.85 Q29.5 7.3 29.5 7.95 29.5 8.7 30 9.15 L30.8 10 Q31.3 10.5 32 10.5 32.7 10.5 33.15 10 L34 9.2 Q34.5 8.7 34.5 8 34.5 7.3 34 6.8 L33.15 5.95 M36 17.95 L36.85 18.8 Q37.35 19.3 37.35 20 37.35 20.7 36.85 21.2 L36 22 Q35.55 22.5 34.85 22.5 34.15 22.5 33.65 22 L32.85 21.15 Q32.35 20.7 32.35 19.95 32.35 19.3 32.85 18.85 L33.65 18 Q34.15 17.5 34.8 17.5 35.55 17.5 36 17.95 M53.15 41.15 L54 42 Q54.5 42.5 54.5 43.2 54.5 43.9 54 44.4 L53.15 45.2 Q52.7 45.7 52 45.7 51.3 45.7 50.8 45.2 L50 44.35 Q49.5 43.9 49.5 43.15 49.5 42.5 50 42.05 L50.8 41.2 Q51.3 40.7 51.95 40.7 52.7 40.7 53.15 41.15"/>
    <path stroke="none" fill="#C66A3E" d="M0 33 L0 29 Q4.6 28.9 9.05 30.05 12.6 31 16.1 32.8 24.3 37 32 37 36.9 37 42 35.3 44.9 34.35 47.9 32.8 51.4 31 54.95 30.05 L60 29.15 60 33.15 54.95 34.05 Q51.4 35 47.9 36.8 44.9 38.35 42 39.3 36.9 41 32 41 24.3 41 16.1 36.8 12.6 35 9.05 34.05 4.6 32.9 0 33 M0 18 L0 6 Q4.6 5.9 9.05 7.05 12.6 8 16.1 9.8 24.3 14 32 14 36.9 14 42 12.3 44.9 11.35 47.9 9.8 51.4 8 54.95 7.05 L60 6.15 60 18.15 54.95 19.05 Q51.4 20 47.9 21.8 44.9 23.35 42 24.3 36.9 26 32 26 24.3 26 16.1 21.8 12.6 20 9.05 19.05 4.6 17.9 0 18 M33.15 5.95 L34 6.8 Q34.5 7.3 34.5 8 34.5 8.7 34 9.2 L33.15 10 Q32.7 10.5 32 10.5 31.3 10.5 30.8 10 L30 9.15 Q29.5 8.7 29.5 7.95 29.5 7.3 30 6.85 L30.8 6 Q31.3 5.5 31.95 5.5 32.7 5.5 33.15 5.95 M36 17.95 Q35.55 17.5 34.8 17.5 34.15 17.5 33.65 18 L32.85 18.85 Q32.35 19.3 32.35 19.95 32.35 20.7 32.85 21.15 L33.65 22 Q34.15 22.5 34.85 22.5 35.55 22.5 36 22 L36.85 21.2 Q37.35 20.7 37.35 20 37.35 19.3 36.85 18.8 L36 17.95"/>
    <path stroke="none" fill="#EE9366" d="M0 51 L0 33 Q4.6 32.9 9.05 34.05 12.6 35 16.1 36.8 24.3 41 32 41 36.9 41 42 39.3 44.9 38.35 47.9 36.8 51.4 35 54.95 34.05 L60 33.15 60 51.15 54.95 52.05 Q51.4 53 47.9 54.8 44.9 56.35 42 57.3 36.9 59 32 59 24.3 59 16.1 54.8 12.6 53 9.05 52.05 4.6 50.9 0 51 M0 22 L0 18 Q4.6 17.9 9.05 19.05 12.6 20 16.1 21.8 24.3 26 32 26 36.9 26 42 24.3 44.9 23.35 47.9 21.8 51.4 20 54.95 19.05 L60 18.15 60 22.15 54.95 23.05 Q51.4 24 47.9 25.8 44.9 27.35 42 28.3 36.9 30 32 30 24.3 30 16.1 25.8 12.6 24 9.05 23.05 4.6 21.9 0 22 M53.15 41.15 Q52.7 40.7 51.95 40.7 51.3 40.7 50.8 41.2 L50 42.05 Q49.5 42.5 49.5 43.15 49.5 43.9 50 44.35 L50.8 45.2 Q51.3 45.7 52 45.7 52.7 45.7 53.15 45.2 L54 44.4 Q54.5 43.9 54.5 43.2 54.5 42.5 54 42 L53.15 41.15"/>
  </g>
</svg>