<svg width="64" height="64" xmlns="http://www.w3.org/2000/svg" xmlns:xlink="http://www.w3.org/1999/xlink">
  <defs/>
  <g>
    <path stroke="none" fill="#353541" d="M0 4 L0 0 64 0 64 4 0 4 M64 40 L64 44 63.85 44 Q62.55 43.95 61.35 44.6 L61.4 44.6 Q60.1 45.3 58.85 46.6 L55.2 49.65 55.25 49.65 Q51.55 52.05 48 52 42.7 52.25 37.2 46.6 L34.65 44.6 34.75 44.6 Q33.45 43.95 32.2 44 L31.85 44 Q30.55 43.95 29.35 44.6 L29.4 44.6 Q28.1 45.3 26.85 46.6 25 48.5 23.2 49.65 L23.25 49.65 Q19.55 52.05 16 52 10.7 52.25 5.2 46.6 L2.65 44.6 2.75 44.6 Q1.45 43.95 0.2 44 L0 44 0 40 Q2.3 39.9 4.55 41.05 6.3 42 8.05 43.8 12.15 48 16 48 18.45 48 21 46.3 L23.95 43.8 Q25.7 42 27.5 41.05 29.7 39.9 32 40 34.3 39.9 36.55 41.05 38.3 42 40.05 43.8 44.15 48 48 48 50.45 48 53 46.3 L55.95 43.8 Q57.7 42 59.5 41.05 61.7 39.9 64 40"/>
    <path stroke="none" fill="#BA6BE9" d="M64 8 L64 18 Q61.7 17.9 59.5 19.05 57.7 20 55.95 21.8 L53 24.3 Q50.45 26 48 26 44.15 26 40.05 21.8 38.3 20 36.55 19.05 34.3 17.9 32 18 29.7 17.9 27.5 19.05 25.7 20 23.95 21.8 L21 24.3 Q18.45 26 16 26 12.15 26 8.05 21.8 6.3 20 4.55 19.05 2.3 17.9 0 18 L0 8 64 8"/>
    <path stroke="none" fill="#A452D4" d="M64 18 L64 22 Q61.7 21.9 59.5 23.05 57.7 24 55.95 25.8 L53 28.3 Q50.45 30 48 30 44.15 30 40.05 25.8 38.3 24 36.55 23.05 34.3 21.9 32 22 29.7 21.9 27.5 23.05 25.7 24 23.95 25.8 L21 28.3 Q18.45 30 16 30 12.15 30 8.05 25.8 6.3 24 4.55 23.05 2.3 21.9 0 22 L0 18 Q2.3 17.9 4.55 19.05 6.3 20 8.05 21.8 12.15 26 16 26 18.45 26 21 24.3 L23.95 21.8 Q25.7 20 27.5 19.05 29.7 17.9 32 18 34.3 17.9 36.55 19.05 38.3 20 40.05 21.8 44.15 26 48 26 50.45 26 53 24.3 L55.95 21.8 Q57.7 20 59.5 19.05 61.7 17.9 64 18"/>
    <path stroke="none" fill="#A6B2BB" d="M64 26 L64 30 Q61.7 29.9 59.5 31.05 57.7 32 55.95 33.8 L53 36.3 Q50.45 38 48 38 44.15 38 40.05 33.8 38.3 32 36.55 31.05 34.3 29.9 32 30 29.7 29.9 27.5 31.05 25.7 32 23.95 33.8 L21 36.3 Q18.45 38 16 38 12.15 38 8.05 33.8 6.3 32 4.55 31.05 2.3 29.9 0 30 L0 26 Q2.3 25.9 4.55 27.05 6.3 28 8.05 29.8 12.15 34 16 34 18.45 34 21 32.3 L23.95 29.8 Q25.7 28 27.5 27.05 29.7 25.9 32 26 34.3 25.9 36.55 27.05 38.3 28 40.05 29.8 44.15 34 48 34 50.45 34 53 32.3 L55.95 29.8 Q57.7 28 59.5 27.05 61.7 25.9 64 26"/>
    <path stroke="none" fill="#CFD5DA" d="M64 30 L64 40 Q61.7 39.9 59.5 41.05 57.7 42 55.95 43.8 L53 46.3 Q50.45 48 48 48 44.15 48 40.05 43.8 38.3 42 36.55 41.05 34.3 39.9 32 40 29.7 39.9 27.5 41.05 25.7 42 23.95 43.8 L21 46.3 Q18.45 48 16 48 12.15 48 8.05 43.8 6.3 42 4.55 41.05 2.3 39.9 0 40 L0 30 Q2.3 29.9 4.55 31.05 6.3 32 8.05 33.8 12.15 38 16 38 18.45 38 21 36.3 L23.95 33.8 Q25.7 32 27.5 31.05 29.7 29.9 32 30 34.3 29.9 36.55 31.05 38.3 32 40.05 33.8 44.15 38 48 38 50.45 38 53 36.3 L55.95 33.8 Q57.7 32 59.5 31.05 61.7 29.9 64 30"/>
    <path stroke="none" fill="#BBC4CB" d="M64 22 L64 26 Q61.7 25.9 59.5 27.05 57.7 28 55.95 29.8 L53 32.3 Q50.45 34 48 34 44.15 34 40.05 29.8 38.3 28 36.55 27.05 34.3 25.9 32 26 29.7 25.9 27.5 27.05 25.7 28 23.95 29.8 L21 32.3 Q18.45 34 16 34 12.15 34 8.05 29.8 6.3 28 4.55 27.05 2.3 25.9 0 26 L0 22 Q2.3 21.9 4.55 23.05 6.3 24 8.05 25.8 12.15 30 16 30 18.45 30 21 28.3 L23.95 25.8 Q25.7 24 27.5 23.05 29.7 21.9 32 22 34.3 21.9 36.55 23.05 38.3 24 40.05 25.8 44.15 30 48 30 50.45 30 53 28.3 L55.95 25.8 Q57.7 24 59.5 23.05 61.7 21.9 64 22"/>
    <path stroke="none" fill="#D699FA" d="M64 4 L64 8 0 8 0 4 64 4"/>
  </g>
</svg>