<svg width="64" height="64" xmlns="http://www.w3.org/2000/svg" xmlns:xlink="http://www.w3.org/1999/xlink">
  <defs/>
  <g>
    <path stroke="none" fill="#353541" d="M0 4 L0 0 52 0 52.1 0 56 0.55 Q60.95 1.85 62.8 6.35 63.55 7.95 63.85 10 L64 11.9 64 40 64 40.15 63.9 42 Q62.7 51.7 52.1 52 L52 52 0 52 0 48 52 48 Q58.7 47.8 59.8 42 L60 40 60 26 60 24 60 20 60 16 60 12 59.8 10 59.15 8 Q58.15 5.8 56 4.85 54.35 4.05 52 4 L48 4 44 4 20 4 16 4 0 4"/>
    <path stroke="none" fill="#5E5E6D" d="M16 4 L20 4 20 8 44 8 44 4 48 4 48 8 52 8 Q54.4 8.1 56.05 8.85 58.15 9.85 59.15 11.95 59.9 13.6 60 16 L60 20 52 20 50.9 19.9 Q48.15 19.4 48 16.25 L48 8 44 8 44 24 20 24 20 8 16 8 16 4 M0 20 L0 8 16 8 16 12.8 16 13.7 16 16.25 Q15.9 19.1 13.65 19.8 L12 20 0 20"/>
    <path stroke="none" fill="#717180" d="M0 4 L16 4 16 8 0 8 0 4 M20 4 L44 4 44 8 20 8 20 4 M48 4 L52 4 Q54.35 4.05 56 4.85 58.15 5.8 59.15 8 L59.8 10 60 12 60 16 Q59.9 13.6 59.15 11.95 58.15 9.85 56.05 8.85 54.4 8.1 52 8 L48 8 48 4"/>
    <path stroke="none" fill="#4F4F5D" d="M44 24 L44 8 48 8 48 16.25 48 20.25 Q47.9 22.85 46 23.65 L44.4 24 44 24 M16 16.25 L16 13.7 16 12.8 16 8 20 8 20 24 18 23.65 Q16.3 22.95 16.05 20.9 L16 16.25"/>
    <path stroke="none" fill="#424251" d="M16 16.25 L16.05 20.9 Q16.3 22.95 18 23.65 L20 24 44 24 44.4 24 46 23.65 Q47.9 22.85 48 20.25 L48 16.25 Q48.15 19.4 50.9 19.9 L52 20 60 20 60 24 52 24 50.9 23.9 Q48.15 23.4 48 20.25 L48 24 48 24.25 Q47.9 26.85 46 27.65 L44.4 28 44 28 36 28 32 28 20 28 18 27.65 Q16.05 26.85 16 24.25 L16 24 16 20.25 Q15.9 23.1 13.65 23.8 L12 24 0 24 0 20 12 20 13.65 19.8 Q15.9 19.1 16 16.25"/>
    <path stroke="none" fill="#BBC4CB" d="M60 24 L60 26 Q56.15 26 56 29.75 L56 36.25 56 38 56.1 39 Q56.5 41.9 59.75 42 L59.8 42 Q58.7 47.8 52 48 L0 48 0 42 4.25 42 Q7.5 41.9 7.95 39 L8 38 8 36.25 8 29.75 Q7.85 26 4 26 L0 26 0 24 12 24 12 34.25 12 36.25 Q12.15 40 16 40 L28 40 Q31.85 40 32 36.25 L32 34.25 32 28 36 28 Q36 31.9 39.75 32 L48.25 32 Q52 31.9 52 28 L52 24 60 24"/>
    <path stroke="none" fill="#A6B2BB" d="M60 26 L60 40 59.75 40 Q57.95 39.95 57 39.05 56.05 38.1 56 36.25 L56 29.75 Q56.15 26 60 26 M0 40 L0 26 4 26 Q7.85 26 8 29.75 L8 36.25 Q7.95 38.1 7 39.05 6.05 39.95 4.25 40 L0 40 M36 28 L44 28 44.4 28 46 27.65 Q47.9 26.85 48 24.25 L48 24 48 20.25 Q48.15 23.4 50.9 23.9 L52 24 52 28 Q52 31.9 48.25 32 L39.75 32 Q36 31.9 36 28 M32 34.25 L32 36.25 Q31.85 40 28 40 L16 40 Q12.15 40 12 36.25 L12 34.25 Q12.15 38 16 38 L28 38 Q31.85 38 32 34.25"/>
    <path stroke="none" fill="#CFD5DA" d="M32 34.25 Q31.85 38 28 38 L16 38 Q12.15 38 12 34.25 L12 24 13.65 23.8 Q15.9 23.1 16 20.25 L16 24 16 24.25 Q16.05 26.85 18 27.65 L20 28 32 28 32 34.25 M60 40 L59.8 42 59.75 42 Q56.5 41.9 56.1 39 L56 38 56 36.25 Q56.05 38.1 57 39.05 57.95 39.95 59.75 40 L60 40 M0 42 L0 40 4.25 40 Q6.05 39.95 7 39.05 7.95 38.1 8 36.25 L8 38 7.95 39 Q7.5 41.9 4.25 42 L0 42"/>
  </g>
</svg>