<svg width="64" height="64" xmlns="http://www.w3.org/2000/svg" xmlns:xlink="http://www.w3.org/1999/xlink">
  <defs/>
  <g>
    <path stroke="none" fill="#BBC4CB" d="M0 6 L0 0 64 0 64 6 Q59.4 5.9 54.95 7.05 51.4 8 47.9 9.8 44.9 11.35 42 12.3 36.9 14 32 14 24.3 14 16.1 9.8 12.6 8 9.05 7.05 4.6 5.9 0 6 M64 22 L64 29 Q59.4 28.9 54.95 30.05 51.4 31 47.9 32.8 44.9 34.35 42 35.3 36.9 37 32 37 24.3 37 16.1 32.8 12.6 31 9.05 30.05 4.6 28.9 0 29 L0 22 Q4.6 21.9 9.05 23.05 12.6 24 16.1 25.8 24.3 30 32 30 36.9 30 42 28.3 44.9 27.35 47.9 25.8 51.4 24 54.95 23.05 59.4 21.9 64 22 M64 51 L64 64 0 64 0 51 Q4.6 50.9 9.05 52.05 12.6 53 16.1 54.8 24.3 59 32 59 36.9 59 42 57.3 44.9 56.35 47.9 54.8 51.4 53 54.95 52.05 59.4 50.9 64 51 M52.8 12.45 L53.65 13.3 Q54.15 13.8 54.15 14.5 54.15 15.2 53.65 15.7 L52.8 16.5 Q52.35 17 51.65 17 50.95 17 50.45 16.5 L49.65 15.65 Q49.15 15.2 49.15 14.45 49.15 13.8 49.65 13.35 L50.45 12.5 Q50.95 12 51.6 12 52.35 12 52.8 12.45 M52 41.5 L53.35 42.85 Q54.15 43.65 54.15 44.75 54.15 45.85 53.35 46.65 L52 48 Q51.3 48.7 50.2 48.7 49.1 48.7 48.3 47.9 L46.95 46.55 Q46.2 45.85 46.15 44.7 46.2 43.65 46.95 42.9 L48.3 41.55 Q49.1 40.75 50.1 40.7 51.3 40.75 52 41.5 M43.8 49.15 L44.65 50 Q45.15 50.5 45.15 51.2 45.15 51.9 44.65 52.4 L43.8 53.2 Q43.35 53.7 42.65 53.7 41.95 53.7 41.45 53.2 L40.65 52.35 Q40.15 51.9 40.15 51.15 40.15 50.5 40.65 50.05 L41.45 49.2 Q41.95 48.7 42.6 48.7 43.35 48.7 43.8 49.15 M57.8 56.3 Q57.35 55.85 56.6 55.85 55.95 55.85 55.45 56.35 L54.65 57.2 Q54.15 57.65 54.15 58.3 54.15 59.05 54.65 59.5 L55.45 60.35 Q55.95 60.85 56.65 60.85 L57.8 60.35 58.65 59.55 Q59.15 59.05 59.15 58.35 59.15 57.65 58.65 57.15 L57.8 56.3"/>
    <path stroke="none" fill="#CFD5DA" d="M64 18 L64 22 Q59.4 21.9 54.95 23.05 51.4 24 47.9 25.8 44.9 27.35 42 28.3 36.9 30 32 30 24.3 30 16.1 25.8 12.6 24 9.05 23.05 4.6 21.9 0 22 L0 18 Q4.6 17.9 9.05 19.05 12.6 20 16.1 21.8 24.3 26 32 26 36.9 26 42 24.3 44.9 23.35 47.9 21.8 51.4 20 54.95 19.05 59.4 17.9 64 18 M64 33 L64 51 Q59.4 50.9 54.95 52.05 51.4 53 47.9 54.8 44.9 56.35 42 57.3 36.9 59 32 59 24.3 59 16.1 54.8 12.6 53 9.05 52.05 4.6 50.9 0 51 L0 33 Q4.6 32.9 9.05 34.05 12.6 35 16.1 36.8 24.3 41 32 41 36.9 41 42 39.3 44.9 38.35 47.9 36.8 51.4 35 54.95 34.05 59.4 32.9 64 33 M43.8 49.15 Q43.35 48.7 42.6 48.7 41.95 48.7 41.45 49.2 L40.65 50.05 Q40.15 50.5 40.15 51.15 40.15 51.9 40.65 52.35 L41.45 53.2 Q41.95 53.7 42.65 53.7 43.35 53.7 43.8 53.2 L44.65 52.4 Q45.15 51.9 45.15 51.2 45.15 50.5 44.65 50 L43.8 49.15 M52 41.5 Q51.3 40.75 50.1 40.7 49.1 40.75 48.3 41.55 L46.95 42.9 Q46.2 43.65 46.15 44.7 46.2 45.85 46.95 46.55 L48.3 47.9 Q49.1 48.7 50.2 48.7 51.3 48.7 52 48 L53.35 46.65 Q54.15 45.85 54.15 44.75 54.15 43.65 53.35 42.85 L52 41.5"/>
    <path stroke="none" fill="#A6B2BB" d="M64 6 L64 18 Q59.4 17.9 54.95 19.05 51.4 20 47.9 21.8 44.9 23.35 42 24.3 36.9 26 32 26 24.3 26 16.1 21.8 12.6 20 9.05 19.05 4.6 17.9 0 18 L0 6 Q4.6 5.9 9.05 7.05 12.6 8 16.1 9.8 24.3 14 32 14 36.9 14 42 12.3 44.9 11.35 47.9 9.8 51.4 8 54.95 7.05 59.4 5.9 64 6 M64 29 L64 33 Q59.4 32.9 54.95 34.05 51.4 35 47.9 36.8 44.9 38.35 42 39.3 36.9 41 32 41 24.3 41 16.1 36.8 12.6 35 9.05 34.05 4.6 32.9 0 33 L0 29 Q4.6 28.9 9.05 30.05 12.6 31 16.1 32.8 24.3 37 32 37 36.9 37 42 35.3 44.9 34.35 47.9 32.8 51.4 31 54.95 30.05 59.4 28.9 64 29 M52.8 12.45 Q52.35 12 51.6 12 50.95 12 50.45 12.5 L49.65 13.35 Q49.15 13.8 49.15 14.45 49.15 15.2 49.65 15.65 L50.45 16.5 Q50.95 17 51.65 17 52.35 17 52.8 16.5 L53.65 15.7 Q54.15 15.2 54.15 14.5 54.15 13.8 53.65 13.3 L52.8 12.45 M57.8 56.3 L58.65 57.15 Q59.15 57.65 59.15 58.35 59.15 59.05 58.65 59.55 L57.8 60.35 56.65 60.85 Q55.95 60.85 55.45 60.35 L54.65 59.5 Q54.15 59.05 54.15 58.3 54.15 57.65 54.65 57.2 L55.45 56.35 Q55.95 55.85 56.6 55.85 57.35 55.85 57.8 56.3"/>
    <path stroke="none" fill="#353541" d="M4 44 L4 51.35 Q0 48.95 0 44.15 L0 44 0 20 0 19.85 Q0.15 16.6 1.2 14.35 3.7 8.25 11.9 8 L12 8 52 8 52.1 8 Q60.3 8.25 62.8 14.35 63.85 16.6 64 19.85 L64 20 64 44 64 44.15 Q64 48.95 60 51.35 L60 44 60 38.15 60 34.15 60 30.15 60 26.15 60 24 60 20 Q59.9 17.65 59.15 16 57.4 12.15 52 12 L12 12 Q6.6 12.15 4.85 16 4.1 17.65 4 20 L4 24 4 26.15 4 30.15 4 34.15 4 38.15 4 44"/>
    <path stroke="none" fill="#E5F0FF" d="M4 26.15 L4 24 Q4.1 21.65 4.85 20 6.6 16.15 12 16 L52 16 Q57.4 16.15 59.15 20 59.9 21.65 60 24 L60 26.15 54.95 27.05 Q51.4 28 47.9 29.8 40.1 33.8 32.75 34 L32 34 27.5 33.65 Q21.95 32.8 16.1 29.8 12.6 28 9.05 27.05 L4 26.15 M33.85 23.15 Q33.15 22.4 31.95 22.35 30.95 22.4 30.15 23.2 L28.8 24.55 Q28.05 25.3 28 26.35 28.05 27.5 28.8 28.2 L30.15 29.55 Q30.95 30.35 32.05 30.35 33.15 30.35 33.85 29.65 L35.2 28.3 Q36 27.5 36 26.4 36 25.3 35.2 24.5 L33.85 23.15 M23.15 20.3 Q22.7 19.85 21.95 19.85 21.3 19.85 20.8 20.35 L20 21.2 Q19.5 21.65 19.5 22.3 19.5 23.05 20 23.5 L20.8 24.35 Q21.3 24.85 22 24.85 22.7 24.85 23.15 24.35 L24 23.55 Q24.5 23.05 24.5 22.35 24.5 21.65 24 21.15 L23.15 20.3"/>
    <path stroke="none" fill="#FFFFFF" d="M4 24 L4 20 Q4.1 17.65 4.85 16 6.6 12.15 12 12 L52 12 Q57.4 12.15 59.15 16 59.9 17.65 60 20 L60 24 Q59.9 21.65 59.15 20 57.4 16.15 52 16 L12 16 Q6.6 16.15 4.85 20 4.1 21.65 4 24 M33.85 23.15 L35.2 24.5 Q36 25.3 36 26.4 36 27.5 35.2 28.3 L33.85 29.65 Q33.15 30.35 32.05 30.35 30.95 30.35 30.15 29.55 L28.8 28.2 Q28.05 27.5 28 26.35 28.05 25.3 28.8 24.55 L30.15 23.2 Q30.95 22.4 31.95 22.35 33.15 22.4 33.85 23.15"/>
    <path stroke="none" fill="#C8DBF5" d="M4 30.15 L4 26.15 9.05 27.05 Q12.6 28 16.1 29.8 21.95 32.8 27.5 33.65 L32 34 32.75 34 Q40.1 33.8 47.9 29.8 51.4 28 54.95 27.05 L60 26.15 60 30.15 54.95 31.05 Q51.4 32 47.9 33.8 40.1 37.8 32.75 38 L32 38 27.5 37.65 Q21.95 36.8 16.1 33.8 12.6 32 9.05 31.05 L4 30.15 M23.15 20.3 L24 21.15 Q24.5 21.65 24.5 22.35 24.5 23.05 24 23.55 L23.15 24.35 Q22.7 24.85 22 24.85 21.3 24.85 20.8 24.35 L20 23.5 Q19.5 23.05 19.5 22.3 19.5 21.65 20 21.2 L20.8 20.35 Q21.3 19.85 21.95 19.85 22.7 19.85 23.15 20.3"/>
    <path stroke="none" fill="#BBC4CB" d="M4 34.15 L4 30.15 9.05 31.05 Q12.6 32 16.1 33.8 21.95 36.8 27.5 37.65 L32 38 32.75 38 Q40.1 37.8 47.9 33.8 51.4 32 54.95 31.05 L60 30.15 60 34.15 54.95 35.05 Q51.4 36 47.9 37.8 40.1 41.8 32.75 42 L32 42 27.5 41.65 Q21.95 40.8 16.1 37.8 12.6 36 9.05 35.05 L4 34.15"/>
    <path stroke="none" fill="#CFD5DA" d="M4 44 L4 38.15 9.05 39.05 Q12.6 40 16.1 41.8 21.95 44.8 27.5 45.65 L32 46 32.75 46 Q40.1 45.8 47.9 41.8 51.4 40 54.95 39.05 L60 38.15 60 44 Q59.9 47.55 56 48.8 L54.95 49.05 Q51.4 50 47.9 51.8 40.1 55.8 32.75 56 L32 56 27.5 55.65 Q21.95 54.8 16.1 51.8 12.6 50 9.05 49.05 L8 48.8 Q4.1 47.55 4 44"/>
    <path stroke="none" fill="#A6B2BB" d="M4 38.15 L4 34.15 9.05 35.05 Q12.6 36 16.1 37.8 21.95 40.8 27.5 41.65 L32 42 32.75 42 Q40.1 41.8 47.9 37.8 51.4 36 54.95 35.05 L60 34.15 60 38.15 54.95 39.05 Q51.4 40 47.9 41.8 40.1 45.8 32.75 46 L32 46 27.5 45.65 Q21.95 44.8 16.1 41.8 12.6 40 9.05 39.05 L4 38.15"/>
    <path stroke="none" fill="#E5F0FF" d="M48.15 38 Q46.6 38 45.3 36.8 44.05 35.6 42 28.7 L40.15 22 56.15 22 54.3 28.7 Q52.25 35.6 51 36.8 49.7 38 48.15 38"/>
  </g>
</svg>