<svg width="64" height="64" xmlns="http://www.w3.org/2000/svg" xmlns:xlink="http://www.w3.org/1999/xlink">
  <defs/>
  <g>
    <path stroke="none" fill="#353541" d="M0 4 L0 0 52 0 52.1 0 Q60.25 0.2 62.85 6.3 L62.9 6.45 Q63.85 8.65 64 11.85 L64 12 64 64 60 64 60 51.15 60 35.15 60 31.15 60 22.15 60 18.15 60 16 60 12 Q59.9 9.65 59.2 8 57.4 4.15 52 4 L0 4"/>
    <path stroke="none" fill="#F3C7A5" d="M0 18 L0 8 52 8 Q59.75 8.25 60 16 L60 18.15 54.95 19.05 Q51.4 20 47.9 21.8 44.9 23.35 42 24.3 36.9 26 32 26 24.3 26 16.1 21.8 12.6 20 9.05 19.05 4.6 17.9 0 18 M31.65 17.15 Q31.2 16.7 30.45 16.7 29.8 16.7 29.3 17.2 L28.5 18.05 Q28 18.5 28 19.15 28 19.9 28.5 20.35 L29.3 21.2 Q29.8 21.7 30.5 21.7 31.2 21.7 31.65 21.2 L32.5 20.4 Q33 19.9 33 19.2 33 18.5 32.5 18 L31.65 17.15 M25.15 14.65 Q24.7 14.2 23.95 14.2 23.3 14.2 22.8 14.7 L22 15.55 Q21.5 16 21.5 16.65 21.5 17.4 22 17.85 L22.8 18.7 Q23.3 19.2 24 19.2 24.7 19.2 25.15 18.7 L26 17.9 Q26.5 17.4 26.5 16.7 26.5 16 26 15.5 L25.15 14.65"/>
    <path stroke="none" fill="#E7B187" d="M25.15 14.65 L26 15.5 Q26.5 16 26.5 16.7 26.5 17.4 26 17.9 L25.15 18.7 Q24.7 19.2 24 19.2 23.3 19.2 22.8 18.7 L22 17.85 Q21.5 17.4 21.5 16.65 21.5 16 22 15.55 L22.8 14.7 Q23.3 14.2 23.95 14.2 24.7 14.2 25.15 14.65 M0 22 L0 18 Q4.6 17.9 9.05 19.05 12.6 20 16.1 21.8 24.3 26 32 26 36.9 26 42 24.3 44.9 23.35 47.9 21.8 51.4 20 54.95 19.05 L60 18.15 60 22.15 54.95 23.05 Q51.4 24 47.9 25.8 44.9 27.35 42 28.3 36.9 30 32 30 24.3 30 16.1 25.8 12.6 24 9.05 23.05 4.6 21.9 0 22"/>
    <path stroke="none" fill="#FFE0C2" d="M0 8 L0 4 52 4 Q57.4 4.15 59.2 8 59.9 9.65 60 12 L60 16 Q59.75 8.25 52 8 L0 8 M31.65 17.15 L32.5 18 Q33 18.5 33 19.2 33 19.9 32.5 20.4 L31.65 21.2 Q31.2 21.7 30.5 21.7 29.8 21.7 29.3 21.2 L28.5 20.35 Q28 19.9 28 19.15 28 18.5 28.5 18.05 L29.3 17.2 Q29.8 16.7 30.45 16.7 31.2 16.7 31.65 17.15"/>
    <path stroke="none" fill="#DE7E4F" d="M60 64 L0 64 0 51 Q4.6 50.9 9.05 52.05 12.6 53 16.1 54.8 24.3 59 32 59 36.9 59 42 57.3 44.9 56.35 47.9 54.8 51.4 53 54.95 52.05 L60 51.15 60 64 M0 31 L0 22 Q4.6 21.9 9.05 23.05 12.6 24 16.1 25.8 24.3 30 32 30 36.9 30 42 28.3 44.9 27.35 47.9 25.8 51.4 24 54.95 23.05 L60 22.15 60 31.15 54.95 32.05 Q51.4 33 47.9 34.8 44.9 36.35 42 37.3 36.9 39 32 39 24.3 39 16.1 34.8 12.6 33 9.05 32.05 4.6 30.9 0 31 M53.15 41.45 L54 42.3 Q54.5 42.8 54.5 43.5 54.5 44.2 54 44.7 L53.15 45.5 Q52.7 46 52 46 51.3 46 50.8 45.5 L50 44.65 Q49.5 44.2 49.5 43.45 49.5 42.8 50 42.35 L50.8 41.5 Q51.3 41 51.95 41 52.7 41 53.15 41.45"/>
    <path stroke="none" fill="#EE9366" d="M53.15 41.45 Q52.7 41 51.95 41 51.3 41 50.8 41.5 L50 42.35 Q49.5 42.8 49.5 43.45 49.5 44.2 50 44.65 L50.8 45.5 Q51.3 46 52 46 52.7 46 53.15 45.5 L54 44.7 Q54.5 44.2 54.5 43.5 54.5 42.8 54 42.3 L53.15 41.45 M0 51 L0 35 Q4.6 34.9 9.05 36.05 12.6 37 16.1 38.8 24.3 43 32 43 36.9 43 42 41.3 44.9 40.35 47.9 38.8 51.4 37 54.95 36.05 L60 35.15 60 51.15 54.95 52.05 Q51.4 53 47.9 54.8 44.9 56.35 42 57.3 36.9 59 32 59 24.3 59 16.1 54.8 12.6 53 9.05 52.05 4.6 50.9 0 51"/>
    <path stroke="none" fill="#C66A3E" d="M0 35 L0 31 Q4.6 30.9 9.05 32.05 12.6 33 16.1 34.8 24.3 39 32 39 36.9 39 42 37.3 44.9 36.35 47.9 34.8 51.4 33 54.95 32.05 L60 31.15 60 35.15 54.95 36.05 Q51.4 37 47.9 38.8 44.9 40.35 42 41.3 36.9 43 32 43 24.3 43 16.1 38.8 12.6 37 9.05 36.05 4.6 34.9 0 35"/>
  </g>
</svg>