<svg width="64" height="64" xmlns="http://www.w3.org/2000/svg" xmlns:xlink="http://www.w3.org/1999/xlink">
  <defs/>
  <g>
    <path stroke="none" fill="#DE7E4F" d="M60 0 L60 6.15 54.95 7.05 Q51.4 8 47.9 9.8 44.9 11.35 42 12.3 36.9 14 32 14 24.3 14 16.1 9.8 12.6 8 9.05 7.05 4.6 5.9 0 6 L0 0 60 0 M60 22.15 L60 29.15 54.95 30.05 Q51.4 31 47.9 32.8 44.9 34.35 42 35.3 36.9 37 32 37 24.3 37 16.1 32.8 12.6 31 9.05 30.05 4.6 28.9 0 29 L0 22 Q4.6 21.9 9.05 23.05 12.6 24 16.1 25.8 24.3 30 32 30 36.9 30 42 28.3 44.9 27.35 47.9 25.8 51.4 24 54.95 23.05 L60 22.15 M60 46.15 L60 52 59.85 53.8 Q58.8 59.8 52 60 L0 60 0 46 Q4.6 45.9 9.05 47.05 12.6 48 16.1 49.8 24.3 54 32 54 36.9 54 42 52.3 44.9 51.35 47.9 49.8 51.4 48 54.95 47.05 L60 46.15 M46.65 15.2 L47.5 16.05 Q48 16.55 48 17.25 48 17.95 47.5 18.45 L46.65 19.25 Q46.2 19.75 45.5 19.75 44.8 19.75 44.3 19.25 L43.5 18.4 Q43 17.95 43 17.2 43 16.55 43.5 16.1 L44.3 15.25 Q44.8 14.75 45.45 14.75 46.2 14.75 46.65 15.2 M55.15 39.45 L56 40.3 Q56.5 40.8 56.5 41.5 56.5 42.2 56 42.7 L55.15 43.5 Q54.7 44 54 44 53.3 44 52.8 43.5 L52 42.65 Q51.5 42.2 51.5 41.45 51.5 40.8 52 40.35 L52.8 39.5 Q53.3 39 53.95 39 54.7 39 55.15 39.45"/>
    <path stroke="none" fill="#353541" d="M60 6.15 L60 0 64 0 64 52.15 63.8 54.5 Q62.35 63.65 52.15 64 L52 64 0 64 0 60 52 60 Q58.8 59.8 59.85 53.8 L60 52 60 46.15 60 33.15 60 29.15 60 22.15 60 18.15 60 6.15"/>
    <path stroke="none" fill="#C66A3E" d="M60 6.15 L60 18.15 54.95 19.05 Q51.4 20 47.9 21.8 44.9 23.35 42 24.3 36.9 26 32 26 24.3 26 16.1 21.8 12.6 20 9.05 19.05 4.6 17.9 0 18 L0 6 Q4.6 5.9 9.05 7.05 12.6 8 16.1 9.8 24.3 14 32 14 36.9 14 42 12.3 44.9 11.35 47.9 9.8 51.4 8 54.95 7.05 L60 6.15 M60 29.15 L60 33.15 54.95 34.05 Q51.4 35 47.9 36.8 44.9 38.35 42 39.3 36.9 41 32 41 24.3 41 16.1 36.8 12.6 35 9.05 34.05 4.6 32.9 0 33 L0 29 Q4.6 28.9 9.05 30.05 12.6 31 16.1 32.8 24.3 37 32 37 36.9 37 42 35.3 44.9 34.35 47.9 32.8 51.4 31 54.95 30.05 L60 29.15 M46.65 15.2 Q46.2 14.75 45.45 14.75 44.8 14.75 44.3 15.25 L43.5 16.1 Q43 16.55 43 17.2 43 17.95 43.5 18.4 L44.3 19.25 Q44.8 19.75 45.5 19.75 46.2 19.75 46.65 19.25 L47.5 18.45 Q48 17.95 48 17.25 48 16.55 47.5 16.05 L46.65 15.2"/>
    <path stroke="none" fill="#EE9366" d="M60 18.15 L60 22.15 54.95 23.05 Q51.4 24 47.9 25.8 44.9 27.35 42 28.3 36.9 30 32 30 24.3 30 16.1 25.8 12.6 24 9.05 23.05 4.6 21.9 0 22 L0 18 Q4.6 17.9 9.05 19.05 12.6 20 16.1 21.8 24.3 26 32 26 36.9 26 42 24.3 44.9 23.35 47.9 21.8 51.4 20 54.95 19.05 L60 18.15 M60 33.15 L60 46.15 54.95 47.05 Q51.4 48 47.9 49.8 44.9 51.35 42 52.3 36.9 54 32 54 24.3 54 16.1 49.8 12.6 48 9.05 47.05 4.6 45.9 0 46 L0 33 Q4.6 32.9 9.05 34.05 12.6 35 16.1 36.8 24.3 41 32 41 36.9 41 42 39.3 44.9 38.35 47.9 36.8 51.4 35 54.95 34.05 L60 33.15 M55.15 39.45 Q54.7 39 53.95 39 53.3 39 52.8 39.5 L52 40.35 Q51.5 40.8 51.5 41.45 51.5 42.2 52 42.65 L52.8 43.5 Q53.3 44 54 44 54.7 44 55.15 43.5 L56 42.7 Q56.5 42.2 56.5 41.5 56.5 40.8 56 40.3 L55.15 39.45"/>
  </g>
</svg>