<svg width="64" height="64" xmlns="http://www.w3.org/2000/svg" xmlns:xlink="http://www.w3.org/1999/xlink">
  <defs/>
  <g>
    <path stroke="none" fill="#20B860" d="M40 64 L36 64 31.95 59.95 8 36 5.35 33.35 0 28 0 24 40 64"/>
    <path stroke="none" fill="#353541" d="M0 4 L0 0 64 64 60 64 0 4"/>
    <path stroke="none" fill="#2ECC71" d="M56 64 L40 64 0 24 0 8 56 64"/>
    <path stroke="none" fill="#46E087" d="M56 64 L0 8 0 4 60 64 56 64"/>
    <path stroke="none" fill="#C66A3E" d="M0 40 L0 36 5.35 33.35 8 36 0 40"/>
    <path stroke="none" fill="#EE9366" d="M0 40 L8 36 31.95 59.95 Q30.1 59.95 28.45 59.1 L16 52.9 3.6 59.1 Q1.85 59.95 0 60 L0 40"/>
    <path stroke="none" fill="#DE7E4F" d="M36 64 L0 64 0 60 Q1.85 59.95 3.6 59.1 L16 52.9 28.45 59.1 Q30.1 59.95 31.95 59.95 L36 64 M0 36 L0 28 5.35 33.35 0 36"/>
    <path stroke="none" fill="#C66A3E" d="M16.65 56.95 L17.5 57.8 Q18 58.3 18 59 18 59.7 17.5 60.2 L16.65 61 Q16.2 61.5 15.5 61.5 14.8 61.5 14.3 61 L13.5 60.15 Q13 59.7 13 58.95 13 58.3 13.5 57.85 L14.3 57 Q14.8 56.5 15.45 56.5 16.2 56.5 16.65 56.95"/>
    <path stroke="none" fill="#DE7E4F" d="M6.65 49.65 L7.5 50.5 Q8 51 8 51.7 8 52.4 7.5 52.9 L6.65 53.7 Q6.2 54.2 5.5 54.2 4.8 54.2 4.3 53.7 L3.5 52.85 Q3 52.4 3 51.65 3 51 3.5 50.55 L4.3 49.7 Q4.8 49.2 5.45 49.2 6.2 49.2 6.65 49.65"/>
  </g>
</svg>