<svg width="64" height="64" xmlns="http://www.w3.org/2000/svg" xmlns:xlink="http://www.w3.org/1999/xlink">
  <defs/>
  <g>
    <path stroke="none" fill="#A6B2BB" d="M0 10.9 L12.45 4.65 Q14.1 3.8 16 3.8 17.9 3.8 19.6 4.65 L32 10.9 44.45 4.65 Q46.1 3.8 48 3.8 49.9 3.8 51.6 4.65 L64 10.9 64 20.9 Q62.15 20.85 60.45 20 L48 13.8 35.6 20 Q33.9 20.85 32 20.85 30.1 20.85 28.45 20 L16 13.8 3.6 20 Q1.85 20.85 0 20.9 L0 10.9 M0 36 L12.45 29.75 Q14.1 28.9 16 28.9 17.9 28.9 19.6 29.75 L32 36 44.45 29.75 Q46.1 28.9 48 28.9 49.9 28.9 51.6 29.75 L64 36 64 40 51.6 33.75 Q49.9 32.9 48 32.9 46.1 32.9 44.45 33.75 L32 40 19.6 33.75 Q17.9 32.9 16 32.9 14.1 32.9 12.45 33.75 L0 40 0 36"/>
    <path stroke="none" fill="#BBC4CB" d="M0 36 L0 24.9 Q1.85 24.85 3.6 24 L16 17.8 28.45 24 Q30.1 24.85 32 24.85 33.9 24.85 35.6 24 L48 17.8 60.45 24 Q62.15 24.85 64 24.9 L64 36 51.6 29.75 Q49.9 28.9 48 28.9 46.1 28.9 44.45 29.75 L32 36 19.6 29.75 Q17.9 28.9 16 28.9 14.1 28.9 12.45 29.75 L0 36 M64 10.9 L51.6 4.65 Q49.9 3.8 48 3.8 46.1 3.8 44.45 4.65 L32 10.9 19.6 4.65 Q17.9 3.8 16 3.8 14.1 3.8 12.45 4.65 L0 10.9 0 0 64 0 64 10.9 M0 55 Q1.85 54.95 3.6 54.1 L16 47.9 28.45 54.1 Q30.1 54.95 32 54.95 33.9 54.95 35.6 54.1 L48 47.9 60.45 54.1 Q62.15 54.95 64 55 L64 64 0 64 0 55"/>
    <path stroke="none" fill="#CFD5DA" d="M0 55 L0 40 12.45 33.75 Q14.1 32.9 16 32.9 17.9 32.9 19.6 33.75 L32 40 44.45 33.75 Q46.1 32.9 48 32.9 49.9 32.9 51.6 33.75 L64 40 64 55 Q62.15 54.95 60.45 54.1 L48 47.9 35.6 54.1 Q33.9 54.95 32 54.95 30.1 54.95 28.45 54.1 L16 47.9 3.6 54.1 Q1.85 54.95 0 55 M0 20.9 Q1.85 20.85 3.6 20 L16 13.8 28.45 20 Q30.1 20.85 32 20.85 33.9 20.85 35.6 20 L48 13.8 60.45 20 Q62.15 20.85 64 20.9 L64 24.9 Q62.15 24.85 60.45 24 L48 17.8 35.6 24 Q33.9 24.85 32 24.85 30.1 24.85 28.45 24 L16 17.8 3.6 24 Q1.85 24.85 0 24.9 L0 20.9"/>
    <path stroke="none" fill="#C66A3E" d="M64 24 L64 28 48 20 32 28 16 20 0 28 0 24 16 16 32 24 48 16 64 24"/>
    <path stroke="none" fill="#DE7E4F" d="M64 24 L48 16 32 24 16 16 0 24 0 8 64 8 64 24"/>
    <path stroke="none" fill="#353541" d="M0 4 L0 0 64 0 64 4 0 4"/>
    <path stroke="none" fill="#EE9366" d="M0 4 L64 4 64 8 0 8 0 4"/>
    <path stroke="none" fill="#C66A3E" d="M7.4 11.95 L8.25 12.8 Q8.75 13.3 8.75 14 8.75 14.7 8.25 15.2 L7.4 16 Q6.95 16.5 6.25 16.5 5.55 16.5 5.05 16 L4.25 15.15 Q3.75 14.7 3.75 13.95 3.75 13.3 4.25 12.85 L5.05 12 Q5.55 11.5 6.2 11.5 6.95 11.5 7.4 11.95"/>
    <path stroke="none" fill="#EE9366" d="M37.45 11.3 L38.8 12.65 Q39.6 13.45 39.6 14.55 39.6 15.65 38.8 16.45 L37.45 17.8 Q36.75 18.5 35.65 18.5 34.55 18.5 33.75 17.7 L32.4 16.35 Q31.65 15.65 31.6 14.5 31.65 13.45 32.4 12.7 L33.75 11.35 Q34.55 10.55 35.55 10.5 36.75 10.55 37.45 11.3"/>
    <path stroke="none" fill="#BBC4CB" d="M57.85 40.8 L59.2 42.15 Q60 42.95 60 44.05 60 45.15 59.2 45.95 L57.85 47.3 Q57.15 48 56.05 48 54.95 48 54.15 47.2 L52.8 45.85 Q52.05 45.15 52 44 52.05 42.95 52.8 42.2 L54.15 40.85 Q54.95 40.05 55.95 40 57.15 40.05 57.85 40.8"/>
    <path stroke="none" fill="#BBC4CB" d="M47.15 40.45 L48 41.3 Q48.5 41.8 48.5 42.5 48.5 43.2 48 43.7 L47.15 44.5 Q46.7 45 46 45 45.3 45 44.8 44.5 L44 43.65 Q43.5 43.2 43.5 42.45 43.5 41.8 44 41.35 L44.8 40.5 Q45.3 40 45.95 40 46.7 40 47.15 40.45"/>
    <path stroke="none" fill="#353541" d="M0 64 L0 60 64 60 64 64 0 64"/>
  </g>
</svg>