<svg width="64" height="64" xmlns="http://www.w3.org/2000/svg" xmlns:xlink="http://www.w3.org/1999/xlink">
  <defs/>
  <g>
    <path stroke="none" fill="#C66A3E" d="M0 10.9 L12.45 4.65 Q14.1 3.8 16 3.8 17.9 3.8 19.6 4.65 L32 10.9 44.45 4.65 Q46.1 3.8 48 3.8 49.9 3.8 51.6 4.65 L64 10.9 64 20.9 Q62.15 20.85 60.45 20 L48 13.8 35.6 20 Q33.9 20.85 32 20.85 30.1 20.85 28.45 20 L16 13.8 3.6 20 Q1.85 20.85 0 20.9 L0 10.9 M0 36 L12.45 29.75 Q14.1 28.9 16 28.9 17.9 28.9 19.6 29.75 L32 36 44.45 29.75 Q46.1 28.9 48 28.9 49.9 28.9 51.6 29.75 L64 36 64 40 51.6 33.75 Q49.9 32.9 48 32.9 46.1 32.9 44.45 33.75 L32 40 19.6 33.75 Q17.9 32.9 16 32.9 14.1 32.9 12.45 33.75 L0 40 0 36"/>
    <path stroke="none" fill="#DE7E4F" d="M0 36 L0 24.9 Q1.85 24.85 3.6 24 L16 17.8 28.45 24 Q30.1 24.85 32 24.85 33.9 24.85 35.6 24 L48 17.8 60.45 24 Q62.15 24.85 64 24.9 L64 36 51.6 29.75 Q49.9 28.9 48 28.9 46.1 28.9 44.45 29.75 L32 36 19.6 29.75 Q17.9 28.9 16 28.9 14.1 28.9 12.45 29.75 L0 36 M64 10.9 L51.6 4.65 Q49.9 3.8 48 3.8 46.1 3.8 44.45 4.65 L32 10.9 19.6 4.65 Q17.9 3.8 16 3.8 14.1 3.8 12.45 4.65 L0 10.9 0 0 64 0 64 10.9 M64 60 L64 64 0 64 0 60 Q1.85 59.95 3.6 59.1 L16 52.9 28.45 59.1 Q30.1 59.95 32 59.95 33.9 59.95 35.6 59.1 L48 52.9 60.45 59.1 Q62.15 59.95 64 60"/>
    <path stroke="none" fill="#EE9366" d="M64 60 Q62.15 59.95 60.45 59.1 L48 52.9 35.6 59.1 Q33.9 59.95 32 59.95 30.1 59.95 28.45 59.1 L16 52.9 3.6 59.1 Q1.85 59.95 0 60 L0 40 12.45 33.75 Q14.1 32.9 16 32.9 17.9 32.9 19.6 33.75 L32 40 44.45 33.75 Q46.1 32.9 48 32.9 49.9 32.9 51.6 33.75 L64 40 64 60 M0 20.9 Q1.85 20.85 3.6 20 L16 13.8 28.45 20 Q30.1 20.85 32 20.85 33.9 20.85 35.6 20 L48 13.8 60.45 20 Q62.15 20.85 64 20.9 L64 24.9 Q62.15 24.85 60.45 24 L48 17.8 35.6 24 Q33.9 24.85 32 24.85 30.1 24.85 28.45 24 L16 17.8 3.6 24 Q1.85 24.85 0 24.9 L0 20.9"/>
    <path stroke="none" fill="#DE7E4F" d="M25.85 43.3 L27.2 44.65 Q28 45.45 28 46.55 28 47.65 27.2 48.45 L25.85 49.8 Q25.15 50.5 24.05 50.5 22.95 50.5 22.15 49.7 L20.8 48.35 Q20.05 47.65 20 46.5 20.05 45.45 20.8 44.7 L22.15 43.35 Q22.95 42.55 23.95 42.5 25.15 42.55 25.85 43.3"/>
    <path stroke="none" fill="#C66A3E" d="M32.65 27.85 L33.5 28.7 Q34 29.2 34 29.9 34 30.6 33.5 31.1 L32.65 31.9 Q32.2 32.4 31.5 32.4 30.8 32.4 30.3 31.9 L29.5 31.05 Q29 30.6 29 29.85 29 29.2 29.5 28.75 L30.3 27.9 Q30.8 27.4 31.45 27.4 32.2 27.4 32.65 27.85"/>
    <path stroke="none" fill="#DE7E4F" d="M59.65 11.35 L60.5 12.2 Q61 12.7 61 13.4 61 14.1 60.5 14.6 L59.65 15.4 Q59.2 15.9 58.5 15.9 57.8 15.9 57.3 15.4 L56.5 14.55 Q56 14.1 56 13.35 56 12.7 56.5 12.25 L57.3 11.4 Q57.8 10.9 58.45 10.9 59.2 10.9 59.65 11.35"/>
    <path stroke="none" fill="#353541" d="M4 0 L4 64 0 64 0 0 4 0"/>
    <path stroke="none" fill="#DE7E4F" d="M37.15 41.95 L38 42.8 Q38.5 43.3 38.5 44 38.5 44.7 38 45.2 L37.15 46 Q36.7 46.5 36 46.5 35.3 46.5 34.8 46 L34 45.15 Q33.5 44.7 33.5 43.95 33.5 43.3 34 42.85 L34.8 42 Q35.3 41.5 35.95 41.5 36.7 41.5 37.15 41.95"/>
  </g>
</svg>