<svg width="64" height="64" xmlns="http://www.w3.org/2000/svg" xmlns:xlink="http://www.w3.org/1999/xlink">
  <defs/>
  <g>
    <path stroke="none" fill="#353541" d="M4 64 L0 64 0 12 0 11.85 Q0.15 8.65 1.1 6.45 L1.15 6.3 Q3.75 0.2 11.9 0 L12 0 52 0 52.1 0 Q60.25 0.2 62.85 6.3 L62.9 6.45 Q63.85 8.65 64 11.85 L64 12 64 64 60 64 60 51.15 60 35.15 60 31.15 60 22.15 60 18.15 60 16 60 12 Q59.9 9.65 59.2 8 57.4 4.15 52 4 L12 4 Q6.6 4.15 4.8 8 4.1 9.65 4 12 L4 16 4 18.15 4 22.15 4 31.15 4 35.15 4 51.15 4 64"/>
    <path stroke="none" fill="#F3C7A5" d="M4 18.15 L4 16 Q4.25 8.25 12 8 L52 8 Q59.75 8.25 60 16 L60 18.15 54.95 19.05 Q51.4 20 47.9 21.8 44.9 23.35 42 24.3 L37.85 25.4 32 26 29.6 25.9 Q25.85 25.6 22 24.3 19.1 23.35 16.1 21.8 12.6 20 9.05 19.05 L4 18.15 M45.15 12.15 Q44.7 11.7 43.95 11.7 43.3 11.7 42.8 12.2 L42 13.05 Q41.5 13.5 41.5 14.15 41.5 14.9 42 15.35 L42.8 16.2 Q43.3 16.7 44 16.7 44.7 16.7 45.15 16.2 L46 15.4 Q46.5 14.9 46.5 14.2 46.5 13.5 46 13 L45.15 12.15"/>
    <path stroke="none" fill="#E7B187" d="M45.15 12.15 L46 13 Q46.5 13.5 46.5 14.2 46.5 14.9 46 15.4 L45.15 16.2 Q44.7 16.7 44 16.7 43.3 16.7 42.8 16.2 L42 15.35 Q41.5 14.9 41.5 14.15 41.5 13.5 42 13.05 L42.8 12.2 Q43.3 11.7 43.95 11.7 44.7 11.7 45.15 12.15 M4 22.15 L4 18.15 9.05 19.05 Q12.6 20 16.1 21.8 19.1 23.35 22 24.3 25.85 25.6 29.6 25.9 L32 26 37.85 25.4 42 24.3 Q44.9 23.35 47.9 21.8 51.4 20 54.95 19.05 L60 18.15 60 22.15 54.95 23.05 Q51.4 24 47.9 25.8 44.9 27.35 42 28.3 L37.85 29.4 32.85 30 32 30 29.6 29.9 Q25.85 29.6 22 28.3 19.1 27.35 16.1 25.8 12.6 24 9.05 23.05 L4 22.15"/>
    <path stroke="none" fill="#DE7E4F" d="M4 22.15 L9.05 23.05 Q12.6 24 16.1 25.8 19.1 27.35 22 28.3 25.85 29.6 29.6 29.9 L32 30 32.85 30 37.85 29.4 42 28.3 Q44.9 27.35 47.9 25.8 51.4 24 54.95 23.05 L60 22.15 60 31.15 54.95 32.05 Q51.4 33 47.9 34.8 44.9 36.35 42 37.3 L37.85 38.4 32 39 29.6 38.9 Q25.85 38.6 22 37.3 19.1 36.35 16.1 34.8 12.6 33 9.05 32.05 L4 31.15 4 22.15 M60 64 L4 64 4 51.15 9.05 52.05 Q12.6 53 16.1 54.8 19.1 56.35 22 57.3 25.85 58.6 29.6 58.9 L32 59 32.85 59 37.85 58.4 42 57.3 Q44.9 56.35 47.9 54.8 51.4 53 54.95 52.05 L60 51.15 60 64 M53.85 40.8 L55.2 42.15 Q56 42.95 56 44.05 56 45.15 55.2 45.95 L53.85 47.3 Q53.15 48 52.05 48 50.95 48 50.15 47.2 L48.8 45.85 Q48.05 45.15 48 44 48.05 42.95 48.8 42.2 L50.15 40.85 Q50.95 40.05 51.95 40 53.15 40.05 53.85 40.8 M45.15 48.45 L46 49.3 Q46.5 49.8 46.5 50.5 46.5 51.2 46 51.7 L45.15 52.5 Q44.7 53 44 53 43.3 53 42.8 52.5 L42 51.65 Q41.5 51.2 41.5 50.45 41.5 49.8 42 49.35 L42.8 48.5 Q43.3 48 43.95 48 44.7 48 45.15 48.45 M37.65 46.45 L38.5 47.3 Q39 47.8 39 48.5 39 49.2 38.5 49.7 L37.65 50.5 Q37.2 51 36.5 51 35.8 51 35.3 50.5 L34.5 49.65 Q34 49.2 34 48.45 34 47.8 34.5 47.35 L35.3 46.5 Q35.8 46 36.45 46 37.2 46 37.65 46.45 M10.3 55.95 Q9.85 55.5 9.1 55.5 8.45 55.5 7.95 56 L7.15 56.85 Q6.65 57.3 6.65 57.95 6.65 58.7 7.15 59.15 L7.95 60 Q8.45 60.5 9.15 60.5 L10.3 60 11.15 59.2 Q11.65 58.7 11.65 58 11.65 57.3 11.15 56.8 L10.3 55.95"/>
    <path stroke="none" fill="#FFE0C2" d="M4 16 L4 12 Q4.1 9.65 4.8 8 6.6 4.15 12 4 L52 4 Q57.4 4.15 59.2 8 59.9 9.65 60 12 L60 16 Q59.75 8.25 52 8 L12 8 Q4.25 8.25 4 16"/>
    <path stroke="none" fill="#C66A3E" d="M4 35.15 L4 31.15 9.05 32.05 Q12.6 33 16.1 34.8 19.1 36.35 22 37.3 25.85 38.6 29.6 38.9 L32 39 37.85 38.4 42 37.3 Q44.9 36.35 47.9 34.8 51.4 33 54.95 32.05 L60 31.15 60 35.15 54.95 36.05 Q51.4 37 47.9 38.8 44.9 40.35 42 41.3 L37.85 42.4 32 43 29.6 42.9 Q25.85 42.6 22 41.3 19.1 40.35 16.1 38.8 12.6 37 9.05 36.05 L4 35.15 M10.3 55.95 L11.15 56.8 Q11.65 57.3 11.65 58 11.65 58.7 11.15 59.2 L10.3 60 9.15 60.5 Q8.45 60.5 7.95 60 L7.15 59.15 Q6.65 58.7 6.65 57.95 6.65 57.3 7.15 56.85 L7.95 56 Q8.45 55.5 9.1 55.5 9.85 55.5 10.3 55.95"/>
    <path stroke="none" fill="#EE9366" d="M4 51.15 L4 35.15 9.05 36.05 Q12.6 37 16.1 38.8 19.1 40.35 22 41.3 25.85 42.6 29.6 42.9 L32 43 37.85 42.4 42 41.3 Q44.9 40.35 47.9 38.8 51.4 37 54.95 36.05 L60 35.15 60 51.15 54.95 52.05 Q51.4 53 47.9 54.8 44.9 56.35 42 57.3 L37.85 58.4 32.85 59 32 59 29.6 58.9 Q25.85 58.6 22 57.3 19.1 56.35 16.1 54.8 12.6 53 9.05 52.05 L4 51.15 M53.85 40.8 Q53.15 40.05 51.95 40 50.95 40.05 50.15 40.85 L48.8 42.2 Q48.05 42.95 48 44 48.05 45.15 48.8 45.85 L50.15 47.2 Q50.95 48 52.05 48 53.15 48 53.85 47.3 L55.2 45.95 Q56 45.15 56 44.05 56 42.95 55.2 42.15 L53.85 40.8 M37.65 46.45 Q37.2 46 36.45 46 35.8 46 35.3 46.5 L34.5 47.35 Q34 47.8 34 48.45 34 49.2 34.5 49.65 L35.3 50.5 Q35.8 51 36.5 51 37.2 51 37.65 50.5 L38.5 49.7 Q39 49.2 39 48.5 39 47.8 38.5 47.3 L37.65 46.45 M45.15 48.45 Q44.7 48 43.95 48 43.3 48 42.8 48.5 L42 49.35 Q41.5 49.8 41.5 50.45 41.5 51.2 42 51.65 L42.8 52.5 Q43.3 53 44 53 44.7 53 45.15 52.5 L46 51.7 Q46.5 51.2 46.5 50.5 46.5 49.8 46 49.3 L45.15 48.45"/>
  </g>
</svg>