<svg width="64" height="64" xmlns="http://www.w3.org/2000/svg" xmlns:xlink="http://www.w3.org/1999/xlink">
  <defs/>
  <g>
    <path stroke="none" fill="#353541" d="M60 6.8 L60 0 64 0 64 52 64 52.15 63.8 54.5 Q62.35 63.65 52.15 64 L12 64 11.85 64 Q1.65 63.65 0.2 54.5 L0 52.15 0 52 0 0 4 0 4 6.8 4 18.8 4 22.8 4 29.8 4 33.8 4 46.8 4 52 4.15 53.8 Q5.2 59.8 12 60 L52 60 Q58.8 59.8 59.85 53.8 L60 52 60 46.8 60 33.8 60 29.8 60 22.8 60 18.8 60 6.8"/>
    <path stroke="none" fill="#BBC4CB" d="M60 6.8 L59.5 7.05 Q57.7 8 55.95 9.8 L53 12.3 Q50.45 14 48 14 44.15 14 40.05 9.8 38.3 8 36.55 7.05 36.2 6.85 35.85 6.75 33.95 5.9 32 6 29.7 5.9 27.5 7.05 25.7 8 23.95 9.8 L21 12.3 Q18.45 14 16 14 12.15 14 8.05 9.8 6.3 8 4.55 7.05 L4 6.8 4 0 60 0 60 6.8 M4 22.8 L4.55 23.05 Q6.3 24 8.05 25.8 12.15 30 16 30 18.45 30 21 28.3 L23.95 25.8 Q25.7 24 27.5 23.05 29.7 21.9 32 22 33.95 21.9 35.85 22.75 36.2 22.85 36.55 23.05 38.3 24 40.05 25.8 44.15 30 48 30 50.45 30 53 28.3 L55.95 25.8 Q57.7 24 59.5 23.05 L60 22.8 60 29.8 59.5 30.05 Q57.7 31 55.95 32.8 L53 35.3 Q50.45 37 48 37 44.15 37 40.05 32.8 38.3 31 36.55 30.05 36.2 29.85 35.85 29.75 33.95 28.9 32 29 29.7 28.9 27.5 30.05 25.7 31 23.95 32.8 L21 35.3 Q18.45 37 16 37 12.15 37 8.05 32.8 6.3 31 4.55 30.05 L4 29.8 4 22.8 M4 46.8 L4.55 47.05 Q6.3 48 8.05 49.8 12.15 54 16 54 18.45 54 21 52.3 L23.95 49.8 Q25.7 48 27.5 47.05 29.7 45.9 32 46 33.95 45.9 35.85 46.75 36.2 46.85 36.55 47.05 38.3 48 40.05 49.8 44.15 54 48 54 50.45 54 53 52.3 L55.95 49.8 Q57.7 48 59.5 47.05 L60 46.8 60 52 59.85 53.8 Q58.8 59.8 52 60 L12 60 Q5.2 59.8 4.15 53.8 L4 52 4 46.8"/>
    <path stroke="none" fill="#A6B2BB" d="M4 6.8 L4.55 7.05 Q6.3 8 8.05 9.8 12.15 14 16 14 18.45 14 21 12.3 L23.95 9.8 Q25.7 8 27.5 7.05 29.7 5.9 32 6 33.95 5.9 35.85 6.75 36.2 6.85 36.55 7.05 38.3 8 40.05 9.8 44.15 14 48 14 50.45 14 53 12.3 L55.95 9.8 Q57.7 8 59.5 7.05 L60 6.8 60 18.8 59.5 19.05 Q57.7 20 55.95 21.8 L53 24.3 Q50.45 26 48 26 44.15 26 40.05 21.8 38.3 20 36.55 19.05 36.2 18.85 35.85 18.75 33.95 17.9 32 18 29.7 17.9 27.5 19.05 25.7 20 23.95 21.8 L21 24.3 Q18.45 26 16 26 12.15 26 8.05 21.8 6.3 20 4.55 19.05 L4 18.8 4 6.8 M4 29.8 L4.55 30.05 Q6.3 31 8.05 32.8 12.15 37 16 37 18.45 37 21 35.3 L23.95 32.8 Q25.7 31 27.5 30.05 29.7 28.9 32 29 33.95 28.9 35.85 29.75 36.2 29.85 36.55 30.05 38.3 31 40.05 32.8 44.15 37 48 37 50.45 37 53 35.3 L55.95 32.8 Q57.7 31 59.5 30.05 L60 29.8 60 33.8 59.5 34.05 Q57.7 35 55.95 36.8 L53 39.3 Q50.45 41 48 41 44.15 41 40.05 36.8 38.3 35 36.55 34.05 36.2 33.85 35.85 33.75 33.95 32.9 32 33 29.7 32.9 27.5 34.05 25.7 35 23.95 36.8 L21 39.3 Q18.45 41 16 41 12.15 41 8.05 36.8 6.3 35 4.55 34.05 L4 33.8 4 29.8"/>
    <path stroke="none" fill="#CFD5DA" d="M4 18.8 L4.55 19.05 Q6.3 20 8.05 21.8 12.15 26 16 26 18.45 26 21 24.3 L23.95 21.8 Q25.7 20 27.5 19.05 29.7 17.9 32 18 33.95 17.9 35.85 18.75 36.2 18.85 36.55 19.05 38.3 20 40.05 21.8 44.15 26 48 26 50.45 26 53 24.3 L55.95 21.8 Q57.7 20 59.5 19.05 L60 18.8 60 22.8 59.5 23.05 Q57.7 24 55.95 25.8 L53 28.3 Q50.45 30 48 30 44.15 30 40.05 25.8 38.3 24 36.55 23.05 36.2 22.85 35.85 22.75 33.95 21.9 32 22 29.7 21.9 27.5 23.05 25.7 24 23.95 25.8 L21 28.3 Q18.45 30 16 30 12.15 30 8.05 25.8 6.3 24 4.55 23.05 L4 22.8 4 18.8 M4 33.8 L4.55 34.05 Q6.3 35 8.05 36.8 12.15 41 16 41 18.45 41 21 39.3 L23.95 36.8 Q25.7 35 27.5 34.05 29.7 32.9 32 33 33.95 32.9 35.85 33.75 36.2 33.85 36.55 34.05 38.3 35 40.05 36.8 44.15 41 48 41 50.45 41 53 39.3 L55.95 36.8 Q57.7 35 59.5 34.05 L60 33.8 60 46.8 59.5 47.05 Q57.7 48 55.95 49.8 L53 52.3 Q50.45 54 48 54 44.15 54 40.05 49.8 38.3 48 36.55 47.05 36.2 46.85 35.85 46.75 33.95 45.9 32 46 29.7 45.9 27.5 47.05 25.7 48 23.95 49.8 L21 52.3 Q18.45 54 16 54 12.15 54 8.05 49.8 6.3 48 4.55 47.05 L4 46.8 4 33.8"/>
  </g>
</svg>