<svg width="64" height="64" xmlns="http://www.w3.org/2000/svg" xmlns:xlink="http://www.w3.org/1999/xlink">
  <defs/>
  <g>
    <path stroke="none" fill="#353541" d="M0 4 L0 0 52 0 52.15 0 Q58.55 0.2 61.5 4 62.25 5.05 62.8 6.35 L62.85 6.35 Q63.9 8.65 64 11.9 L64 52 64 52.15 63.8 54.5 Q63.25 57.85 61.6 60 58.65 63.8 52.15 64 L52 64 0 64 0 60 52 60 Q58.8 59.8 59.85 53.8 L60 52 60 46.8 60 35.8 60 31.8 60 22.8 60 18.8 60 16 60 12 Q59.9 9.65 59.2 8 57.4 4.15 52 4 L0 4"/>
    <path stroke="none" fill="#D699FA" d="M0 4 L52 4 Q57.4 4.15 59.2 8 59.9 9.65 60 12 L60 16 Q59.9 13.65 59.2 12 57.4 8.15 52 8 L0 8 0 4"/>
    <path stroke="none" fill="#BA6BE9" d="M0 18 L0 8 52 8 Q57.4 8.15 59.2 12 59.9 13.65 60 16 L60 18.8 59.5 19.05 Q57.7 20 55.95 21.8 L53 24.3 Q50.45 26 48 26 44.15 26 40.05 21.8 38.3 20 36.55 19.05 34.3 17.9 32 18 29.7 17.9 27.5 19.05 25.7 20 23.95 21.8 L21 24.3 Q18.45 26 16 26 12.15 26 8.05 21.8 6.3 20 4.55 19.05 2.3 17.9 0 18"/>
    <path stroke="none" fill="#A452D4" d="M0 18 Q2.3 17.9 4.55 19.05 6.3 20 8.05 21.8 12.15 26 16 26 18.45 26 21 24.3 L23.95 21.8 Q25.7 20 27.5 19.05 29.7 17.9 32 18 34.3 17.9 36.55 19.05 38.3 20 40.05 21.8 44.15 26 48 26 50.45 26 53 24.3 L55.95 21.8 Q57.7 20 59.5 19.05 L60 18.8 60 22.8 59.5 23.05 Q57.7 24 55.95 25.8 L53 28.3 Q50.45 30 48 30 44.15 30 40.05 25.8 38.3 24 36.55 23.05 34.3 21.9 32 22 29.7 21.9 27.5 23.05 25.7 24 23.95 25.8 L21 28.3 Q18.45 30 16 30 12.15 30 8.05 25.8 6.3 24 4.55 23.05 2.3 21.9 0 22 L0 18"/>
    <path stroke="none" fill="#BBC4CB" d="M0 60 L0 46 Q2.3 45.9 4.55 47.05 6.3 48 8.05 49.8 12.15 54 16 54 18.45 54 21 52.3 L23.95 49.8 Q25.7 48 27.5 47.05 29.7 45.9 32 46 34.3 45.9 36.55 47.05 38.3 48 40.05 49.8 44.15 54 48 54 50.45 54 53 52.3 L55.95 49.8 Q57.7 48 59.5 47.05 L60 46.8 60 52 59.85 53.8 Q58.8 59.8 52 60 L0 60 M0 31 L0 22 Q2.3 21.9 4.55 23.05 6.3 24 8.05 25.8 12.15 30 16 30 18.45 30 21 28.3 L23.95 25.8 Q25.7 24 27.5 23.05 29.7 21.9 32 22 34.3 21.9 36.55 23.05 38.3 24 40.05 25.8 44.15 30 48 30 50.45 30 53 28.3 L55.95 25.8 Q57.7 24 59.5 23.05 L60 22.8 60 31.8 59.5 32.05 Q57.7 33 55.95 34.8 L53 37.3 Q50.45 39 48 39 44.15 39 40.05 34.8 38.3 33 36.55 32.05 34.3 30.9 32 31 29.7 30.9 27.5 32.05 25.7 33 23.95 34.8 L21 37.3 Q18.45 39 16 39 12.15 39 8.05 34.8 6.3 33 4.55 32.05 2.3 30.9 0 31"/>
    <path stroke="none" fill="#A6B2BB" d="M0 31 Q2.3 30.9 4.55 32.05 6.3 33 8.05 34.8 12.15 39 16 39 18.45 39 21 37.3 L23.95 34.8 Q25.7 33 27.5 32.05 29.7 30.9 32 31 34.3 30.9 36.55 32.05 38.3 33 40.05 34.8 44.15 39 48 39 50.45 39 53 37.3 L55.95 34.8 Q57.7 33 59.5 32.05 L60 31.8 60 35.8 59.5 36.05 Q57.7 37 55.95 38.8 L53 41.3 Q50.45 43 48 43 44.15 43 40.05 38.8 38.3 37 36.55 36.05 34.3 34.9 32 35 29.7 34.9 27.5 36.05 25.7 37 23.95 38.8 L21 41.3 Q18.45 43 16 43 12.15 43 8.05 38.8 6.3 37 4.55 36.05 2.3 34.9 0 35 L0 31"/>
    <path stroke="none" fill="#CFD5DA" d="M0 46 L0 35 Q2.3 34.9 4.55 36.05 6.3 37 8.05 38.8 12.15 43 16 43 18.45 43 21 41.3 L23.95 38.8 Q25.7 37 27.5 36.05 29.7 34.9 32 35 34.3 34.9 36.55 36.05 38.3 37 40.05 38.8 44.15 43 48 43 50.45 43 53 41.3 L55.95 38.8 Q57.7 37 59.5 36.05 L60 35.8 60 46.8 59.5 47.05 Q57.7 48 55.95 49.8 L53 52.3 Q50.45 54 48 54 44.15 54 40.05 49.8 38.3 48 36.55 47.05 34.3 45.9 32 46 29.7 45.9 27.5 47.05 25.7 48 23.95 49.8 L21 52.3 Q18.45 54 16 54 12.15 54 8.05 49.8 6.3 48 4.55 47.05 2.3 45.9 0 46"/>
  </g>
</svg>