<svg width="64" height="64" xmlns="http://www.w3.org/2000/svg" xmlns:xlink="http://www.w3.org/1999/xlink">
  <defs/>
  <g>
    <path stroke="none" fill="#353541" d="M64 60 L64 64 54.35 64 54.2 64 Q24.9 63.15 11.7 51.9 L11.65 51.9 Q5.05 46.3 2.15 38.45 L2.1 38.4 1 34.45 Q0.1 30.5 0 26.1 L0 26 0 12 0 11.85 Q0.15 8.65 1.1 6.45 L1.15 6.3 Q3.75 0.2 11.9 0 L12 0 64 0 64 4 12 4 Q6.6 4.15 4.8 8 4.1 9.65 4 12 L4 16 4 22 4 26 Q4.1 30 4.9 33.55 L5.9 37.05 Q8.45 43.95 14.25 48.8 26.75 59.2 54.35 60 L64 60"/>
    <path stroke="none" fill="#C66A3E" d="M4 26 L4 22 16 16 32 24 48 16 64 24 64 28 48 20 32 28 16 20 4 26"/>
    <path stroke="none" fill="#DE7E4F" d="M4 22 L4 16 Q4.1 13.65 4.8 12 6.6 8.15 12 8 L64 8 64 24 48 16 32 24 16 16 4 22"/>
    <path stroke="none" fill="#BBC4CB" d="M64 60 L54.35 60 Q26.75 59.2 14.25 48.8 L16 47.9 28.4 54.1 Q30.1 54.95 32 54.95 33.9 54.95 35.55 54.1 L48 47.9 60.4 54.1 Q62.15 54.95 64 55 L64 60 M4.9 33.55 Q4.1 30 4 26 L16 20 32 28 48 20 64 28 64 36 51.55 29.75 Q49.9 28.9 48 28.9 46.1 28.9 44.4 29.75 L32 36 19.55 29.75 Q17.9 28.9 16 28.9 14.1 28.9 12.4 29.75 L4.9 33.55"/>
    <path stroke="none" fill="#A6B2BB" d="M4.9 33.55 L12.4 29.75 Q14.1 28.9 16 28.9 17.9 28.9 19.55 29.75 L32 36 44.4 29.75 Q46.1 28.9 48 28.9 49.9 28.9 51.55 29.75 L64 36 64 40 51.55 33.75 Q49.9 32.9 48 32.9 46.1 32.9 44.4 33.75 L32 40 19.55 33.75 Q18 32.95 16.15 32.9 L16 32.9 Q14.1 32.9 12.4 33.75 L5.9 37.05 4.9 33.55"/>
    <path stroke="none" fill="#EE9366" d="M4 16 L4 12 Q4.1 9.65 4.8 8 6.6 4.15 12 4 L64 4 64 8 12 8 Q6.6 8.15 4.8 12 4.1 13.65 4 16"/>
    <path stroke="none" fill="#CFD5DA" d="M14.25 48.8 Q8.45 43.95 5.9 37.05 L12.4 33.75 Q14.1 32.9 16 32.9 L16.15 32.9 Q18 32.95 19.55 33.75 L32 40 44.4 33.75 Q46.1 32.9 48 32.9 49.9 32.9 51.55 33.75 L64 40 64 55 Q62.15 54.95 60.4 54.1 L48 47.9 35.55 54.1 Q33.9 54.95 32 54.95 30.1 54.95 28.4 54.1 L16 47.9 14.25 48.8"/>
    <path stroke="none" fill="#C66A3E" d="M33.65 13.95 Q34.1 13.5 34.85 13.5 35.5 13.5 36 14 L36.8 14.85 Q37.3 15.3 37.3 15.95 37.3 16.7 36.8 17.15 L36 18 Q35.5 18.5 34.8 18.5 34.1 18.5 33.65 18 L32.8 17.2 Q32.3 16.7 32.3 16 32.3 15.3 32.8 14.8 L33.65 13.95"/>
    <path stroke="none" fill="#EE9366" d="M55.6 10.8 Q56.3 10.05 57.5 10 58.5 10.05 59.3 10.85 L60.65 12.2 Q61.4 12.95 61.45 14 61.4 15.15 60.65 15.85 L59.3 17.2 Q58.5 18 57.4 18 56.3 18 55.6 17.3 L54.25 15.95 Q53.45 15.15 53.45 14.05 53.45 12.95 54.25 12.15 L55.6 10.8"/>
    <path stroke="none" fill="#BBC4CB" d="M45.05 36.95 Q45.75 36.2 46.95 36.15 47.95 36.2 48.75 37 L50.1 38.35 Q50.85 39.1 50.9 40.15 50.85 41.3 50.1 42 L48.75 43.35 Q47.95 44.15 46.85 44.15 45.75 44.15 45.05 43.45 L43.7 42.1 Q42.9 41.3 42.9 40.2 42.9 39.1 43.7 38.3 L45.05 36.95"/>
    <path stroke="none" fill="#BBC4CB" d="M34.85 41.35 Q35.3 40.9 36.05 40.9 36.7 40.9 37.2 41.4 L38 42.25 Q38.5 42.7 38.5 43.35 38.5 44.1 38 44.55 L37.2 45.4 Q36.7 45.9 36 45.9 35.3 45.9 34.85 45.4 L34 44.6 Q33.5 44.1 33.5 43.4 33.5 42.7 34 42.2 L34.85 41.35"/>
    <path stroke="none" fill="#BBC4CB" d="M53.9 43.85 Q54.35 43.4 55.1 43.4 55.75 43.4 56.25 43.9 L57.05 44.75 Q57.55 45.2 57.55 45.85 57.55 46.6 57.05 47.05 L56.25 47.9 Q55.75 48.4 55.05 48.4 54.35 48.4 53.9 47.9 L53.05 47.1 Q52.55 46.6 52.55 45.9 52.55 45.2 53.05 44.7 L53.9 43.85"/>
  </g>
</svg>