<svg width="64" height="64" xmlns="http://www.w3.org/2000/svg" xmlns:xlink="http://www.w3.org/1999/xlink">
  <defs/>
  <g>
    <path stroke="none" fill="#353541" d="M0 4 L0 0 64 0 64 4 0 4"/>
    <path stroke="none" fill="#BA6BE9" d="M64 8 L64 18 Q61.7 17.9 59.5 19.05 57.7 20 55.95 21.8 L53 24.3 Q50.45 26 48 26 44.15 26 40.05 21.8 38.3 20 36.55 19.05 34.3 17.9 32 18 29.7 17.9 27.5 19.05 25.7 20 23.95 21.8 L21 24.3 Q18.45 26 16 26 12.15 26 8.05 21.8 6.3 20 4.55 19.05 2.3 17.9 0 18 L0 8 64 8"/>
    <path stroke="none" fill="#A452D4" d="M64 18 L64 22 Q61.7 21.9 59.5 23.05 57.7 24 55.95 25.8 L53 28.3 Q50.45 30 48 30 44.15 30 40.05 25.8 38.3 24 36.55 23.05 34.3 21.9 32 22 29.7 21.9 27.5 23.05 25.7 24 23.95 25.8 L21 28.3 Q18.45 30 16 30 12.15 30 8.05 25.8 6.3 24 4.55 23.05 2.3 21.9 0 22 L0 18 Q2.3 17.9 4.55 19.05 6.3 20 8.05 21.8 12.15 26 16 26 18.45 26 21 24.3 L23.95 21.8 Q25.7 20 27.5 19.05 29.7 17.9 32 18 34.3 17.9 36.55 19.05 38.3 20 40.05 21.8 44.15 26 48 26 50.45 26 53 24.3 L55.95 21.8 Q57.7 20 59.5 19.05 61.7 17.9 64 18"/>
    <path stroke="none" fill="#D699FA" d="M64 4 L64 8 0 8 0 4 64 4"/>
    <path stroke="none" fill="#A6B2BB" d="M64 31 L64 35 Q61.7 34.9 59.5 36.05 57.7 37 55.95 38.8 L53 41.3 Q50.45 43 48 43 44.15 43 40.05 38.8 38.3 37 36.55 36.05 34.3 34.9 32 35 29.7 34.9 27.5 36.05 25.7 37 23.95 38.8 L21 41.3 Q18.45 43 16 43 12.15 43 8.05 38.8 6.3 37 4.55 36.05 2.3 34.9 0 35 L0 31 Q2.3 30.9 4.55 32.05 6.3 33 8.05 34.8 12.15 39 16 39 18.45 39 21 37.3 L23.95 34.8 Q25.7 33 27.5 32.05 29.7 30.9 32 31 34.3 30.9 36.55 32.05 38.3 33 40.05 34.8 44.15 39 48 39 50.45 39 53 37.3 L55.95 34.8 Q57.7 33 59.5 32.05 61.7 30.9 64 31"/>
    <path stroke="none" fill="#BBC4CB" d="M64 31 Q61.7 30.9 59.5 32.05 57.7 33 55.95 34.8 L53 37.3 Q50.45 39 48 39 44.15 39 40.05 34.8 38.3 33 36.55 32.05 34.3 30.9 32 31 29.7 30.9 27.5 32.05 25.7 33 23.95 34.8 L21 37.3 Q18.45 39 16 39 12.15 39 8.05 34.8 6.3 33 4.55 32.05 2.3 30.9 0 31 L0 22 Q2.3 21.9 4.55 23.05 6.3 24 8.05 25.8 12.15 30 16 30 18.45 30 21 28.3 L23.95 25.8 Q25.7 24 27.5 23.05 29.7 21.9 32 22 34.3 21.9 36.55 23.05 38.3 24 40.05 25.8 44.15 30 48 30 50.45 30 53 28.3 L55.95 25.8 Q57.7 24 59.5 23.05 61.7 21.9 64 22 L64 31 M64 51 L64 64 0 64 0 51 Q2.3 50.9 4.55 52.05 6.3 53 8.05 54.8 12.15 59 16 59 18.45 59 21 57.3 L23.95 54.8 Q25.7 53 27.5 52.05 29.7 50.9 32 51 34.3 50.9 36.55 52.05 38.3 53 40.05 54.8 44.15 59 48 59 50.45 59 53 57.3 L55.95 54.8 Q57.7 53 59.5 52.05 61.7 50.9 64 51"/>
    <path stroke="none" fill="#CFD5DA" d="M64 51 Q61.7 50.9 59.5 52.05 57.7 53 55.95 54.8 L53 57.3 Q50.45 59 48 59 44.15 59 40.05 54.8 38.3 53 36.55 52.05 34.3 50.9 32 51 29.7 50.9 27.5 52.05 25.7 53 23.95 54.8 L21 57.3 Q18.45 59 16 59 12.15 59 8.05 54.8 6.3 53 4.55 52.05 2.3 50.9 0 51 L0 35 Q2.3 34.9 4.55 36.05 6.3 37 8.05 38.8 12.15 43 16 43 18.45 43 21 41.3 L23.95 38.8 Q25.7 37 27.5 36.05 29.7 34.9 32 35 34.3 34.9 36.55 36.05 38.3 37 40.05 38.8 44.15 43 48 43 50.45 43 53 41.3 L55.95 38.8 Q57.7 37 59.5 36.05 61.7 34.9 64 35 L64 51"/>
  </g>
</svg>