<svg width="64" height="64" xmlns="http://www.w3.org/2000/svg" xmlns:xlink="http://www.w3.org/1999/xlink">
  <defs/>
  <g>
    <path stroke="none" fill="#C66A3E" d="M0 20.9 L0 10.9 12.4 4.65 Q14.1 3.8 16 3.8 17.9 3.8 19.55 4.65 L32 10.9 44.4 4.65 Q46.1 3.8 48 3.8 49.9 3.8 51.55 4.65 L64 10.9 64 20.9 Q62.15 20.85 60.4 20 L48 13.8 35.55 20 Q33.9 20.85 32 20.85 30.1 20.85 28.4 20 L16 13.8 3.55 20 Q1.85 20.85 0 20.9 M64 36 L64 40 51.55 33.75 Q49.9 32.9 48 32.9 46.1 32.9 44.4 33.75 L32 40 19.55 33.75 Q17.9 32.9 16 32.9 14.1 32.9 12.4 33.75 L0 40 0 36 12.4 29.75 Q14.1 28.9 16 28.9 17.9 28.9 19.55 29.75 L32 36 44.4 29.75 Q46.1 28.9 48 28.9 49.9 28.9 51.55 29.75 L64 36"/>
    <path stroke="none" fill="#EE9366" d="M64 20.9 L64 24.9 Q62.15 24.85 60.4 24 L48 17.8 35.55 24 Q33.9 24.85 32 24.85 30.1 24.85 28.4 24 L16 17.8 3.55 24 Q1.85 24.85 0 24.9 L0 20.9 Q1.85 20.85 3.55 20 L16 13.8 28.4 20 Q30.1 20.85 32 20.85 33.9 20.85 35.55 20 L48 13.8 60.4 20 Q62.15 20.85 64 20.9 M64 40 L64 60 Q62.15 59.95 60.4 59.1 L48 52.9 35.55 59.1 Q33.9 59.95 32 59.95 30.1 59.95 28.4 59.1 L16 52.9 3.55 59.1 Q1.85 59.95 0 60 L0 40 12.4 33.75 Q14.1 32.9 16 32.9 17.9 32.9 19.55 33.75 L32 40 44.4 33.75 Q46.1 32.9 48 32.9 49.9 32.9 51.55 33.75 L64 40"/>
    <path stroke="none" fill="#DE7E4F" d="M64 24.9 L64 36 51.55 29.75 Q49.9 28.9 48 28.9 46.1 28.9 44.4 29.75 L32 36 19.55 29.75 Q17.9 28.9 16 28.9 14.1 28.9 12.4 29.75 L0 36 0 24.9 Q1.85 24.85 3.55 24 L16 17.8 28.4 24 Q30.1 24.85 32 24.85 33.9 24.85 35.55 24 L48 17.8 60.4 24 Q62.15 24.85 64 24.9 M64 60 L64 64 0 64 0 60 Q1.85 59.95 3.55 59.1 L16 52.9 28.4 59.1 Q30.1 59.95 32 59.95 33.9 59.95 35.55 59.1 L48 52.9 60.4 59.1 Q62.15 59.95 64 60"/>
    <path stroke="none" fill="#20B860" d="M64 24 L64 28 48 20 32 28 16 20 4 26 4 22 16 16 32 24 48 16 64 24"/>
    <path stroke="none" fill="#2ECC71" d="M64 24 L48 16 32 24 16 16 4 22 4 15.5 Q4.25 8.2 11.55 8 L64 8 64 24"/>
    <path stroke="none" fill="#353541" d="M4 26 L4 30 3.15 29.9 Q1.8 29.6 0.9 28.5 0 27.4 0 26 L0 11.65 0 11.55 Q0.1 8.6 0.95 6.5 L0.95 6.45 Q3.3 0.2 11.55 0 L11.65 0 64 0 64 4 11.65 4 Q6.3 4.15 4.65 8 4.05 9.5 4 11.65 L4 15.5 4 22 4 26"/>
    <path stroke="none" fill="#46E087" d="M64 4 L64 8 11.55 8 Q4.25 8.2 4 15.5 L4 11.65 Q4.05 9.5 4.65 8 6.3 4.15 11.65 4 L64 4"/>
    <path stroke="none" fill="#353541" d="M0 64 L0 24 4 24 4 64 0 64"/>
    <path stroke="none" fill="#DE7E4F" d="M43.55 41.15 L44.9 42.5 Q45.7 43.3 45.7 44.4 45.7 45.5 44.9 46.3 L43.55 47.65 Q42.85 48.35 41.75 48.35 40.65 48.35 39.85 47.55 L38.5 46.2 Q37.75 45.5 37.7 44.35 37.75 43.3 38.5 42.55 L39.85 41.2 Q40.65 40.4 41.65 40.35 42.85 40.4 43.55 41.15"/>
    <path stroke="none" fill="#C66A3E" d="M15.15 56.75 L16 57.6 Q16.5 58.1 16.5 58.8 16.5 59.5 16 60 L15.15 60.8 Q14.7 61.3 14 61.3 13.3 61.3 12.8 60.8 L12 59.95 Q11.5 59.5 11.5 58.75 11.5 58.1 12 57.65 L12.8 56.8 Q13.3 56.3 13.95 56.3 14.7 56.3 15.15 56.75"/>
    <path stroke="none" fill="#DE7E4F" d="M54.85 39.8 L55.7 40.65 Q56.2 41.15 56.2 41.85 56.2 42.55 55.7 43.05 L54.85 43.85 Q54.4 44.35 53.7 44.35 53 44.35 52.5 43.85 L51.7 43 Q51.2 42.55 51.2 41.8 51.2 41.15 51.7 40.7 L52.5 39.85 Q53 39.35 53.65 39.35 54.4 39.35 54.85 39.8"/>
    <path stroke="none" fill="#20B860" d="M25.15 11.75 L26 12.6 Q26.5 13.1 26.5 13.8 26.5 14.5 26 15 L25.15 15.8 Q24.7 16.3 24 16.3 23.3 16.3 22.8 15.8 L22 14.95 Q21.5 14.5 21.5 13.75 21.5 13.1 22 12.65 L22.8 11.8 Q23.3 11.3 23.95 11.3 24.7 11.3 25.15 11.75"/>
    <path stroke="none" fill="#20B860" d="M35.15 14.25 L36 15.1 Q36.5 15.6 36.5 16.3 36.5 17 36 17.5 L35.15 18.3 Q34.7 18.8 34 18.8 33.3 18.8 32.8 18.3 L32 17.45 Q31.5 17 31.5 16.25 31.5 15.6 32 15.15 L32.8 14.3 Q33.3 13.8 33.95 13.8 34.7 13.8 35.15 14.25"/>
  </g>
</svg>