<svg width="64" height="64" xmlns="http://www.w3.org/2000/svg" xmlns:xlink="http://www.w3.org/1999/xlink">
  <defs/>
  <g>
    <path stroke="none" fill="#BBC4CB" d="M64 10.9 L51.55 4.65 Q49.9 3.8 48 3.8 46.1 3.8 44.4 4.65 L32 10.9 19.55 4.65 Q17.9 3.8 16 3.8 14.1 3.8 12.4 4.65 L4 8.9 4 0 64 0 64 10.9 M4 23.8 L16 17.8 28.4 24 Q30.1 24.85 32 24.85 33.9 24.85 35.55 24 L48 17.8 60.4 24 Q62.15 24.85 64 24.9 L64 36 51.55 29.75 Q49.9 28.9 48 28.9 46.1 28.9 44.4 29.75 L32 36 19.55 29.75 Q17.9 28.9 16 28.9 14.1 28.9 12.4 29.75 L4 34 4 23.8 M64 55 L64 60 12 60 Q5.2 59.8 4.15 53.8 L16 47.9 28.4 54.1 Q30.1 54.95 32 54.95 33.9 54.95 35.55 54.1 L48 47.9 60.4 54.1 Q62.15 54.95 64 55"/>
    <path stroke="none" fill="#A6B2BB" d="M4 8.9 L12.4 4.65 Q14.1 3.8 16 3.8 17.9 3.8 19.55 4.65 L32 10.9 44.4 4.65 Q46.1 3.8 48 3.8 49.9 3.8 51.55 4.65 L64 10.9 64 20.9 Q62.15 20.85 60.4 20 L48 13.8 35.55 20 Q33.9 20.85 32 20.85 30.1 20.85 28.4 20 L16 13.8 4 19.8 4 8.9 M4 34 L12.4 29.75 Q14.1 28.9 16 28.9 17.9 28.9 19.55 29.75 L32 36 44.4 29.75 Q46.1 28.9 48 28.9 49.9 28.9 51.55 29.75 L64 36 64 40 51.55 33.75 Q49.9 32.9 48 32.9 46.1 32.9 44.4 33.75 L32 40 19.55 33.75 Q17.9 32.9 16 32.9 14.1 32.9 12.4 33.75 L4 38 4 34"/>
    <path stroke="none" fill="#CFD5DA" d="M4 19.8 L16 13.8 28.4 20 Q30.1 20.85 32 20.85 33.9 20.85 35.55 20 L48 13.8 60.4 20 Q62.15 20.85 64 20.9 L64 24.9 Q62.15 24.85 60.4 24 L48 17.8 35.55 24 Q33.9 24.85 32 24.85 30.1 24.85 28.4 24 L16 17.8 4 23.8 4 19.8 M4 38 L12.4 33.75 Q14.1 32.9 16 32.9 17.9 32.9 19.55 33.75 L32 40 44.4 33.75 Q46.1 32.9 48 32.9 49.9 32.9 51.55 33.75 L64 40 64 55 Q62.15 54.95 60.4 54.1 L48 47.9 35.55 54.1 Q33.9 54.95 32 54.95 30.1 54.95 28.4 54.1 L16 47.9 4.15 53.8 4 52 4 38"/>
    <path stroke="none" fill="#353541" d="M4 38 L4 52 4.15 53.8 Q5.2 59.8 12 60 L64 60 64 64 12 64 11.85 64 Q1.65 63.65 0.2 54.5 L0 52.15 0 52 0 0 4 0 4 8.9 4 19.8 4 23.8 4 34 4 38"/>
    <path stroke="none" fill="#BBC4CB" d="M57.15 39.45 L58 40.3 Q58.5 40.8 58.5 41.5 58.5 42.2 58 42.7 L57.15 43.5 Q56.7 44 56 44 55.3 44 54.8 43.5 L54 42.65 Q53.5 42.2 53.5 41.45 53.5 40.8 54 40.35 L54.8 39.5 Q55.3 39 55.95 39 56.7 39 57.15 39.45"/>
    <path stroke="none" fill="#BBC4CB" d="M38.4 45.7 L39.25 46.55 Q39.75 47.05 39.75 47.75 39.75 48.45 39.25 48.95 L38.4 49.75 Q37.95 50.25 37.25 50.25 36.55 50.25 36.05 49.75 L35.25 48.9 Q34.75 48.45 34.75 47.7 34.75 47.05 35.25 46.6 L36.05 45.75 Q36.55 45.25 37.2 45.25 37.95 45.25 38.4 45.7"/>
    <path stroke="none" fill="#BBC4CB" d="M32.15 42.7 L33 43.55 Q33.5 44.05 33.5 44.75 33.5 45.45 33 45.95 L32.15 46.75 Q31.7 47.25 31 47.25 30.3 47.25 29.8 46.75 L29 45.9 Q28.5 45.45 28.5 44.7 28.5 44.05 29 43.6 L29.8 42.75 Q30.3 42.25 30.95 42.25 31.7 42.25 32.15 42.7"/>
    <path stroke="none" fill="#BBC4CB" d="M28.65 12.5 L29.5 13.35 Q30 13.85 30 14.55 30 15.25 29.5 15.75 L28.65 16.55 Q28.2 17.05 27.5 17.05 26.8 17.05 26.3 16.55 L25.5 15.7 Q25 15.25 25 14.5 25 13.85 25.5 13.4 L26.3 12.55 Q26.8 12.05 27.45 12.05 28.2 12.05 28.65 12.5"/>
  </g>
</svg>