<svg width="64" height="64" xmlns="http://www.w3.org/2000/svg" xmlns:xlink="http://www.w3.org/1999/xlink">
  <defs/>
  <g>
    <path stroke="none" fill="#353541" d="M60 0 L64 0 64 4 60 0"/>
    <path stroke="none" fill="#FFFFFF" d="M60 0 L64 4 64 8 56 0 60 0"/>
    <path stroke="none" fill="#C8DBF5" d="M64 18 L64 22 60.15 18.15 50.55 8.55 42 0 46 0 64 18"/>
    <path stroke="none" fill="#CFD5DA" d="M64 33 L64 51 Q59.4 50.9 54.95 52.05 51.4 53 47.9 54.8 39.7 59 32 59 27.1 59 22 57.3 19.1 56.35 16.1 54.8 12.6 53 9.05 52.05 4.6 50.9 0 51 L0 33 Q4.6 32.9 9.05 34.05 12.6 35 16.1 36.8 19.1 38.35 22 39.3 27.1 41 32 41 39.7 41 47.9 36.8 51.4 35 54.95 34.05 59.4 32.9 64 33 M0 22 L0 18 Q4.6 17.9 9.05 19.05 12.6 20 16.1 21.8 19.1 23.35 22 24.3 27.1 26 32 26 39.7 26 47.9 21.8 51.4 20 54.95 19.05 L60.15 18.15 64 22 Q59.4 21.9 54.95 23.05 51.4 24 47.9 25.8 39.7 30 32 30 27.1 30 22 28.3 19.1 27.35 16.1 25.8 12.6 24 9.05 23.05 4.6 21.9 0 22 M12 41.5 L10.65 42.85 Q9.85 43.65 9.85 44.75 9.85 45.85 10.65 46.65 L12 48 Q12.7 48.7 13.8 48.7 14.9 48.7 15.7 47.9 L17.05 46.55 Q17.8 45.85 17.85 44.7 17.8 43.65 17.05 42.9 L15.7 41.55 Q14.9 40.75 13.9 40.7 12.7 40.75 12 41.5 M20.2 49.15 L19.35 50 Q18.85 50.5 18.85 51.2 18.85 51.9 19.35 52.4 L20.2 53.2 Q20.65 53.7 21.35 53.7 22.05 53.7 22.55 53.2 L23.35 52.35 Q23.85 51.9 23.85 51.15 23.85 50.5 23.35 50.05 L22.55 49.2 Q22.05 48.7 21.4 48.7 20.65 48.7 20.2 49.15"/>
    <path stroke="none" fill="#A6B2BB" d="M64 29 L64 33 Q59.4 32.9 54.95 34.05 51.4 35 47.9 36.8 39.7 41 32 41 27.1 41 22 39.3 19.1 38.35 16.1 36.8 12.6 35 9.05 34.05 4.6 32.9 0 33 L0 29 Q4.6 28.9 9.05 30.05 12.6 31 16.1 32.8 19.1 34.35 22 35.3 27.1 37 32 37 39.7 37 47.9 32.8 51.4 31 54.95 30.05 59.4 28.9 64 29 M0 18 L0 6 Q4.6 5.9 9.05 7.05 12.6 8 16.1 9.8 19.1 11.35 22 12.3 27.1 14 32 14 39.7 14 47.9 9.8 49.25 9.1 50.55 8.55 L60.15 18.15 54.95 19.05 Q51.4 20 47.9 21.8 39.7 26 32 26 27.1 26 22 24.3 19.1 23.35 16.1 21.8 12.6 20 9.05 19.05 4.6 17.9 0 18 M11.2 12.45 L10.35 13.3 Q9.85 13.8 9.85 14.5 9.85 15.2 10.35 15.7 L11.2 16.5 Q11.65 17 12.35 17 13.05 17 13.55 16.5 L14.35 15.65 Q14.85 15.2 14.85 14.45 14.85 13.8 14.35 13.35 L13.55 12.5 Q13.05 12 12.4 12 11.65 12 11.2 12.45 M6.2 56.3 Q6.65 55.85 7.4 55.85 8.05 55.85 8.55 56.35 L9.35 57.2 Q9.85 57.65 9.85 58.3 9.85 59.05 9.35 59.5 L8.55 60.35 Q8.05 60.85 7.35 60.85 6.65 60.85 6.2 60.35 L5.35 59.55 Q4.85 59.05 4.85 58.35 4.85 57.65 5.35 57.15 L6.2 56.3"/>
    <path stroke="none" fill="#BBC4CB" d="M6.2 56.3 L5.35 57.15 Q4.85 57.65 4.85 58.35 4.85 59.05 5.35 59.55 L6.2 60.35 Q6.65 60.85 7.35 60.85 8.05 60.85 8.55 60.35 L9.35 59.5 Q9.85 59.05 9.85 58.3 9.85 57.65 9.35 57.2 L8.55 56.35 Q8.05 55.85 7.4 55.85 6.65 55.85 6.2 56.3 M64 22 L64 29 Q59.4 28.9 54.95 30.05 51.4 31 47.9 32.8 39.7 37 32 37 27.1 37 22 35.3 19.1 34.35 16.1 32.8 12.6 31 9.05 30.05 4.6 28.9 0 29 L0 22 Q4.6 21.9 9.05 23.05 12.6 24 16.1 25.8 19.1 27.35 22 28.3 27.1 30 32 30 39.7 30 47.9 25.8 51.4 24 54.95 23.05 59.4 21.9 64 22 M64 51 L64 64 0 64 0 51 Q4.6 50.9 9.05 52.05 12.6 53 16.1 54.8 19.1 56.35 22 57.3 27.1 59 32 59 39.7 59 47.9 54.8 51.4 53 54.95 52.05 59.4 50.9 64 51 M0 6 L0 0 42 0 50.55 8.55 Q49.25 9.1 47.9 9.8 39.7 14 32 14 27.1 14 22 12.3 19.1 11.35 16.1 9.8 12.6 8 9.05 7.05 4.6 5.9 0 6 M11.2 12.45 Q11.65 12 12.4 12 13.05 12 13.55 12.5 L14.35 13.35 Q14.85 13.8 14.85 14.45 14.85 15.2 14.35 15.65 L13.55 16.5 Q13.05 17 12.35 17 11.65 17 11.2 16.5 L10.35 15.7 Q9.85 15.2 9.85 14.5 9.85 13.8 10.35 13.3 L11.2 12.45 M20.2 49.15 Q20.65 48.7 21.4 48.7 22.05 48.7 22.55 49.2 L23.35 50.05 Q23.85 50.5 23.85 51.15 23.85 51.9 23.35 52.35 L22.55 53.2 Q22.05 53.7 21.35 53.7 20.65 53.7 20.2 53.2 L19.35 52.4 Q18.85 51.9 18.85 51.2 18.85 50.5 19.35 50 L20.2 49.15 M12 41.5 Q12.7 40.75 13.9 40.7 14.9 40.75 15.7 41.55 L17.05 42.9 Q17.8 43.65 17.85 44.7 17.8 45.85 17.05 46.55 L15.7 47.9 Q14.9 48.7 13.8 48.7 12.7 48.7 12 48 L10.65 46.65 Q9.85 45.85 9.85 44.75 9.85 43.65 10.65 42.85 L12 41.5"/>
    <path stroke="none" fill="#E5F0FF" d="M64 8 L64 18 46 0 56 0 64 8"/>
  </g>
</svg>