<svg width="64" height="64" xmlns="http://www.w3.org/2000/svg" xmlns:xlink="http://www.w3.org/1999/xlink">
  <defs/>
  <g>
    <path stroke="none" fill="#353541" d="M0 4 L0 0 64 0 64 4 0 4"/>
    <path stroke="none" fill="#E5F0FF" d="M64 8 L64 18 Q59.4 17.9 54.95 19.05 51.4 20 47.9 21.8 44.9 23.35 42 24.3 36.9 26 32 26 24.3 26 16.1 21.8 12.6 20 9.05 19.05 4.6 17.9 0 18 L0 8 64 8 M40 12.05 Q39.3 11.3 38.1 11.25 37.1 11.3 36.3 12.1 L34.95 13.45 Q34.2 14.2 34.15 15.25 34.2 16.4 34.95 17.1 L36.3 18.45 Q37.1 19.25 38.2 19.25 39.3 19.25 40 18.55 L41.35 17.2 Q42.15 16.4 42.15 15.3 42.15 14.2 41.35 13.4 L40 12.05 M29.15 14.7 Q28.7 14.25 27.95 14.25 27.3 14.25 26.8 14.75 L26 15.6 Q25.5 16.05 25.5 16.7 25.5 17.45 26 17.9 L26.8 18.75 Q27.3 19.25 28 19.25 28.7 19.25 29.15 18.75 L30 17.95 Q30.5 17.45 30.5 16.75 30.5 16.05 30 15.55 L29.15 14.7"/>
    <path stroke="none" fill="#FFFFFF" d="M64 4 L64 8 0 8 0 4 64 4 M40 12.05 L41.35 13.4 Q42.15 14.2 42.15 15.3 42.15 16.4 41.35 17.2 L40 18.55 Q39.3 19.25 38.2 19.25 37.1 19.25 36.3 18.45 L34.95 17.1 Q34.2 16.4 34.15 15.25 34.2 14.2 34.95 13.45 L36.3 12.1 Q37.1 11.3 38.1 11.25 39.3 11.3 40 12.05"/>
    <path stroke="none" fill="#C8DBF5" d="M64 18 L64 22 Q59.4 21.9 54.95 23.05 51.4 24 47.9 25.8 44.9 27.35 42 28.3 36.9 30 32 30 24.3 30 16.1 25.8 12.6 24 9.05 23.05 4.6 21.9 0 22 L0 18 Q4.6 17.9 9.05 19.05 12.6 20 16.1 21.8 24.3 26 32 26 36.9 26 42 24.3 44.9 23.35 47.9 21.8 51.4 20 54.95 19.05 59.4 17.9 64 18 M29.15 14.7 L30 15.55 Q30.5 16.05 30.5 16.75 30.5 17.45 30 17.95 L29.15 18.75 Q28.7 19.25 28 19.25 27.3 19.25 26.8 18.75 L26 17.9 Q25.5 17.45 25.5 16.7 25.5 16.05 26 15.6 L26.8 14.75 Q27.3 14.25 27.95 14.25 28.7 14.25 29.15 14.7"/>
    <path stroke="none" fill="#BBC4CB" d="M64 22 L64 31 Q59.4 30.9 54.95 32.05 51.4 33 47.9 34.8 44.9 36.35 42 37.3 36.9 39 32 39 24.3 39 16.1 34.8 12.6 33 9.05 32.05 4.6 30.9 0 31 L0 22 Q4.6 21.9 9.05 23.05 12.6 24 16.1 25.8 24.3 30 32 30 36.9 30 42 28.3 44.9 27.35 47.9 25.8 51.4 24 54.95 23.05 59.4 21.9 64 22 M64 51 L64 64 0 64 0 51 Q4.6 50.9 9.05 52.05 12.6 53 16.1 54.8 24.3 59 32 59 36.9 59 42 57.3 44.9 56.35 47.9 54.8 51.4 53 54.95 52.05 59.4 50.9 64 51 M39.55 46.25 L40.4 47.1 Q40.9 47.6 40.9 48.3 40.9 49 40.4 49.5 L39.55 50.3 Q39.1 50.8 38.4 50.8 37.7 50.8 37.2 50.3 L36.4 49.45 Q35.9 49 35.9 48.25 35.9 47.6 36.4 47.15 L37.2 46.3 Q37.7 45.8 38.35 45.8 39.1 45.8 39.55 46.25 M19.15 45 L20 45.85 Q20.5 46.35 20.5 47.05 20.5 47.75 20 48.25 L19.15 49.05 18 49.55 Q17.3 49.55 16.8 49.05 L16 48.2 Q15.5 47.75 15.5 47 15.5 46.35 16 45.9 L16.8 45.05 Q17.3 44.55 17.95 44.55 18.7 44.55 19.15 45 M28.85 48.1 L30.2 49.45 Q31 50.25 31 51.35 31 52.45 30.2 53.25 L28.85 54.6 Q28.15 55.3 27.05 55.3 25.95 55.3 25.15 54.5 L23.8 53.15 Q23.05 52.45 23 51.3 23.05 50.25 23.8 49.5 L25.15 48.15 Q25.95 47.35 26.95 47.3 28.15 47.35 28.85 48.1"/>
    <path stroke="none" fill="#CFD5DA" d="M28.85 48.1 Q28.15 47.35 26.95 47.3 25.95 47.35 25.15 48.15 L23.8 49.5 Q23.05 50.25 23 51.3 23.05 52.45 23.8 53.15 L25.15 54.5 Q25.95 55.3 27.05 55.3 28.15 55.3 28.85 54.6 L30.2 53.25 Q31 52.45 31 51.35 31 50.25 30.2 49.45 L28.85 48.1 M64 35 L64 51 Q59.4 50.9 54.95 52.05 51.4 53 47.9 54.8 44.9 56.35 42 57.3 36.9 59 32 59 24.3 59 16.1 54.8 12.6 53 9.05 52.05 4.6 50.9 0 51 L0 35 Q4.6 34.9 9.05 36.05 12.6 37 16.1 38.8 24.3 43 32 43 36.9 43 42 41.3 44.9 40.35 47.9 38.8 51.4 37 54.95 36.05 59.4 34.9 64 35 M39.55 46.25 Q39.1 45.8 38.35 45.8 37.7 45.8 37.2 46.3 L36.4 47.15 Q35.9 47.6 35.9 48.25 35.9 49 36.4 49.45 L37.2 50.3 Q37.7 50.8 38.4 50.8 39.1 50.8 39.55 50.3 L40.4 49.5 Q40.9 49 40.9 48.3 40.9 47.6 40.4 47.1 L39.55 46.25 M19.15 45 Q18.7 44.55 17.95 44.55 17.3 44.55 16.8 45.05 L16 45.9 Q15.5 46.35 15.5 47 15.5 47.75 16 48.2 L16.8 49.05 Q17.3 49.55 18 49.55 L19.15 49.05 20 48.25 Q20.5 47.75 20.5 47.05 20.5 46.35 20 45.85 L19.15 45"/>
    <path stroke="none" fill="#A6B2BB" d="M64 31 L64 35 Q59.4 34.9 54.95 36.05 51.4 37 47.9 38.8 44.9 40.35 42 41.3 36.9 43 32 43 24.3 43 16.1 38.8 12.6 37 9.05 36.05 4.6 34.9 0 35 L0 31 Q4.6 30.9 9.05 32.05 12.6 33 16.1 34.8 24.3 39 32 39 36.9 39 42 37.3 44.9 36.35 47.9 34.8 51.4 33 54.95 32.05 59.4 30.9 64 31"/>
  </g>
</svg>