<svg width="64" height="64" xmlns="http://www.w3.org/2000/svg" xmlns:xlink="http://www.w3.org/1999/xlink">
  <defs/>
  <g>
    <path stroke="none" fill="#A6B2BB" d="M0 20.9 L0 10.9 12.45 4.65 Q14.1 3.8 16 3.8 17.9 3.8 19.6 4.65 L32 10.9 44.45 4.65 Q46.1 3.8 48 3.8 49.9 3.8 51.6 4.65 L64 10.9 64 20.9 Q62.15 20.85 60.45 20 L48 13.8 35.6 20 Q33.9 20.85 32 20.85 30.1 20.85 28.45 20 L16 13.8 3.6 20 Q1.85 20.85 0 20.9 M64 36 L64 40 51.6 33.75 Q49.9 32.9 48 32.9 46.1 32.9 44.45 33.75 L32 40 19.6 33.75 Q17.9 32.9 16 32.9 14.1 32.9 12.45 33.75 L0 40 0 36 12.45 29.75 Q14.1 28.9 16 28.9 17.9 28.9 19.6 29.75 L32 36 44.45 29.75 Q46.1 28.9 48 28.9 49.9 28.9 51.6 29.75 L64 36"/>
    <path stroke="none" fill="#BBC4CB" d="M64 36 L51.6 29.75 Q49.9 28.9 48 28.9 46.1 28.9 44.45 29.75 L32 36 19.6 29.75 Q17.9 28.9 16 28.9 14.1 28.9 12.45 29.75 L0 36 0 24.9 Q1.85 24.85 3.6 24 L16 17.8 28.45 24 Q30.1 24.85 32 24.85 33.9 24.85 35.6 24 L48 17.8 60.45 24 Q62.15 24.85 64 24.9 L64 36 M64 60 L64 64 0 64 0 60 Q1.85 59.95 3.6 59.1 L16 52.9 28.45 59.1 Q30.1 59.95 32 59.95 33.9 59.95 35.6 59.1 L48 52.9 60.45 59.1 Q62.15 59.95 64 60"/>
    <path stroke="none" fill="#CFD5DA" d="M64 60 Q62.15 59.95 60.45 59.1 L48 52.9 35.6 59.1 Q33.9 59.95 32 59.95 30.1 59.95 28.45 59.1 L16 52.9 3.6 59.1 Q1.85 59.95 0 60 L0 40 12.45 33.75 Q14.1 32.9 16 32.9 17.9 32.9 19.6 33.75 L32 40 44.45 33.75 Q46.1 32.9 48 32.9 49.9 32.9 51.6 33.75 L64 40 64 60 M0 20.9 Q1.85 20.85 3.6 20 L16 13.8 28.45 20 Q30.1 20.85 32 20.85 33.9 20.85 35.6 20 L48 13.8 60.45 20 Q62.15 20.85 64 20.9 L64 24.9 Q62.15 24.85 60.45 24 L48 17.8 35.6 24 Q33.9 24.85 32 24.85 30.1 24.85 28.45 24 L16 17.8 3.6 24 Q1.85 24.85 0 24.9 L0 20.9"/>
    <path stroke="none" fill="#353541" d="M0 4 L0 0 52.35 0 52.45 0 Q60.7 0.2 63.05 6.45 L63.05 6.5 Q63.9 8.6 64 11.55 L64 11.65 64 26 Q64 27.4 63.1 28.5 62.2 29.6 60.85 29.9 L60 30 60 26 60 22 60 15.5 60 11.65 Q59.95 9.5 59.35 8 57.7 4.15 52.35 4 L0 4"/>
    <path stroke="none" fill="#C66A3E" d="M60 26 L48 20 32 28 16 20 0 28 0 24 16 16 32 24 48 16 60 22 60 26"/>
    <path stroke="none" fill="#DE7E4F" d="M0 24 L0 8 52.45 8 Q59.75 8.2 60 15.5 L60 22 48 16 32 24 16 16 0 24"/>
    <path stroke="none" fill="#EE9366" d="M0 8 L0 4 52.35 4 Q57.7 4.15 59.35 8 59.95 9.5 60 11.65 L60 15.5 Q59.75 8.2 52.45 8 L0 8"/>
    <path stroke="none" fill="#353541" d="M64 64 L60 64 60 24 64 24 64 64"/>
    <path stroke="none" fill="#BBC4CB" d="M33.15 49.95 L34 50.8 Q34.5 51.3 34.5 52 34.5 52.7 34 53.2 L33.15 54 Q32.7 54.5 32 54.5 31.3 54.5 30.8 54 L30 53.15 Q29.5 52.7 29.5 51.95 29.5 51.3 30 50.85 L30.8 50 Q31.3 49.5 31.95 49.5 32.7 49.5 33.15 49.95"/>
    <path stroke="none" fill="#BBC4CB" d="M41.15 45.95 L42 46.8 Q42.5 47.3 42.5 48 42.5 48.7 42 49.2 L41.15 50 Q40.7 50.5 40 50.5 39.3 50.5 38.8 50 L38 49.15 Q37.5 48.7 37.5 47.95 37.5 47.3 38 46.85 L38.8 46 Q39.3 45.5 39.95 45.5 40.7 45.5 41.15 45.95"/>
    <path stroke="none" fill="#BBC4CB" d="M13.15 41.95 L14 42.8 Q14.5 43.3 14.5 44 14.5 44.7 14 45.2 L13.15 46 Q12.7 46.5 12 46.5 11.3 46.5 10.8 46 L10 45.15 Q9.5 44.7 9.5 43.95 9.5 43.3 10 42.85 L10.8 42 Q11.3 41.5 11.95 41.5 12.7 41.5 13.15 41.95"/>
    <path stroke="none" fill="#C66A3E" d="M41.65 11.25 L42.5 12.1 Q43 12.6 43 13.3 43 14 42.5 14.5 L41.65 15.3 Q41.2 15.8 40.5 15.8 39.8 15.8 39.3 15.3 L38.5 14.45 Q38 14 38 13.25 38 12.6 38.5 12.15 L39.3 11.3 Q39.8 10.8 40.45 10.8 41.2 10.8 41.65 11.25"/>
    <path stroke="none" fill="#EE9366" d="M33.85 13.7 L35.2 15.05 Q36 15.85 36 16.95 36 18.05 35.2 18.85 L33.85 20.2 Q33.15 20.9 32.05 20.9 30.95 20.9 30.15 20.1 L28.8 18.75 Q28.05 18.05 28 16.9 28.05 15.85 28.8 15.1 L30.15 13.75 Q30.95 12.95 31.95 12.9 33.15 12.95 33.85 13.7"/>
  </g>
</svg>