<svg width="64" height="64" xmlns="http://www.w3.org/2000/svg" xmlns:xlink="http://www.w3.org/1999/xlink">
  <defs/>
  <g>
    <path stroke="none" fill="#BBC4CB" d="M0 6 L0 0 64 0 64 6 Q61.7 5.9 59.5 7.05 57.7 8 55.95 9.8 L53 12.3 Q50.45 14 48 14 44.15 14 40.05 9.8 38.3 8 36.55 7.05 36.2 6.85 35.85 6.75 33.95 5.9 32 6 29.7 5.9 27.5 7.05 25.7 8 23.95 9.8 L21 12.3 Q18.45 14 16 14 12.15 14 8.05 9.8 6.3 8 4.55 7.05 2.3 5.9 0 6 M64 22 L64 29 Q61.7 28.9 59.5 30.05 57.7 31 55.95 32.8 L53 35.3 Q50.45 37 48 37 44.15 37 40.05 32.8 38.3 31 36.55 30.05 36.2 29.85 35.85 29.75 33.95 28.9 32 29 29.7 28.9 27.5 30.05 25.7 31 23.95 32.8 L21 35.3 Q18.45 37 16 37 12.15 37 8.05 32.8 6.3 31 4.55 30.05 2.3 28.9 0 29 L0 22 Q2.3 21.9 4.55 23.05 6.3 24 8.05 25.8 12.15 30 16 30 18.45 30 21 28.3 L23.95 25.8 Q25.7 24 27.5 23.05 29.7 21.9 32 22 33.95 21.9 35.85 22.75 36.2 22.85 36.55 23.05 38.3 24 40.05 25.8 44.15 30 48 30 50.45 30 53 28.3 L55.95 25.8 Q57.7 24 59.5 23.05 61.7 21.9 64 22 M64 51 L64 64 0 64 0 51 Q2.3 50.9 4.55 52.05 6.3 53 8.05 54.8 12.15 59 16 59 18.45 59 21 57.3 L23.95 54.8 Q25.7 53 27.5 52.05 29.7 50.9 32 51 33.95 50.9 35.85 51.75 36.2 51.85 36.55 52.05 38.3 53 40.05 54.8 44.15 59 48 59 50.45 59 53 57.3 L55.95 54.8 Q57.7 53 59.5 52.05 61.7 50.9 64 51"/>
    <path stroke="none" fill="#CFD5DA" d="M64 51 Q61.7 50.9 59.5 52.05 57.7 53 55.95 54.8 L53 57.3 Q50.45 59 48 59 44.15 59 40.05 54.8 38.3 53 36.55 52.05 36.2 51.85 35.85 51.75 33.95 50.9 32 51 29.7 50.9 27.5 52.05 25.7 53 23.95 54.8 L21 57.3 Q18.45 59 16 59 12.15 59 8.05 54.8 6.3 53 4.55 52.05 2.3 50.9 0 51 L0 33 Q2.3 32.9 4.55 34.05 6.3 35 8.05 36.8 12.15 41 16 41 18.45 41 21 39.3 L23.95 36.8 Q25.7 35 27.5 34.05 29.7 32.9 32 33 33.95 32.9 35.85 33.75 36.2 33.85 36.55 34.05 38.3 35 40.05 36.8 44.15 41 48 41 50.45 41 53 39.3 L55.95 36.8 Q57.7 35 59.5 34.05 61.7 32.9 64 33 L64 51 M64 18 L64 22 Q61.7 21.9 59.5 23.05 57.7 24 55.95 25.8 L53 28.3 Q50.45 30 48 30 44.15 30 40.05 25.8 38.3 24 36.55 23.05 36.2 22.85 35.85 22.75 33.95 21.9 32 22 29.7 21.9 27.5 23.05 25.7 24 23.95 25.8 L21 28.3 Q18.45 30 16 30 12.15 30 8.05 25.8 6.3 24 4.55 23.05 2.3 21.9 0 22 L0 18 Q2.3 17.9 4.55 19.05 6.3 20 8.05 21.8 12.15 26 16 26 18.45 26 21 24.3 L23.95 21.8 Q25.7 20 27.5 19.05 29.7 17.9 32 18 33.95 17.9 35.85 18.75 36.2 18.85 36.55 19.05 38.3 20 40.05 21.8 44.15 26 48 26 50.45 26 53 24.3 L55.95 21.8 Q57.7 20 59.5 19.05 61.7 17.9 64 18"/>
    <path stroke="none" fill="#A6B2BB" d="M64 18 Q61.7 17.9 59.5 19.05 57.7 20 55.95 21.8 L53 24.3 Q50.45 26 48 26 44.15 26 40.05 21.8 38.3 20 36.55 19.05 36.2 18.85 35.85 18.75 33.95 17.9 32 18 29.7 17.9 27.5 19.05 25.7 20 23.95 21.8 L21 24.3 Q18.45 26 16 26 12.15 26 8.05 21.8 6.3 20 4.55 19.05 2.3 17.9 0 18 L0 6 Q2.3 5.9 4.55 7.05 6.3 8 8.05 9.8 12.15 14 16 14 18.45 14 21 12.3 L23.95 9.8 Q25.7 8 27.5 7.05 29.7 5.9 32 6 33.95 5.9 35.85 6.75 36.2 6.85 36.55 7.05 38.3 8 40.05 9.8 44.15 14 48 14 50.45 14 53 12.3 L55.95 9.8 Q57.7 8 59.5 7.05 61.7 5.9 64 6 L64 18 M64 29 L64 33 Q61.7 32.9 59.5 34.05 57.7 35 55.95 36.8 L53 39.3 Q50.45 41 48 41 44.15 41 40.05 36.8 38.3 35 36.55 34.05 36.2 33.85 35.85 33.75 33.95 32.9 32 33 29.7 32.9 27.5 34.05 25.7 35 23.95 36.8 L21 39.3 Q18.45 41 16 41 12.15 41 8.05 36.8 6.3 35 4.55 34.05 2.3 32.9 0 33 L0 29 Q2.3 28.9 4.55 30.05 6.3 31 8.05 32.8 12.15 37 16 37 18.45 37 21 35.3 L23.95 32.8 Q25.7 31 27.5 30.05 29.7 28.9 32 29 33.95 28.9 35.85 29.75 36.2 29.85 36.55 30.05 38.3 31 40.05 32.8 44.15 37 48 37 50.45 37 53 35.3 L55.95 32.8 Q57.7 31 59.5 30.05 61.7 28.9 64 29"/>
    <path stroke="none" fill="#BBC4CB" d="M4 30.8 L4.55 31.05 Q6.3 32 8.05 33.8 12.15 38 16 38 18.45 38 21 36.3 L23.25 34.5 23.95 33.8 24.05 33.7 Q25.1 32.6 26.2 31.85 L27.45 31.05 28.5 30.6 Q30 30 31.6 30 L31.85 30 32 30 32.5 30 Q34.55 30.05 36.5 31.05 38.3 32 40.05 33.8 41.55 35.35 43 36.3 45.55 38 48 38 51.85 38 55.95 33.8 57.7 32 59.45 31.05 L60 30.8 60 34.8 59.45 35.05 Q57.7 36 55.95 37.8 51.85 42 48 42 45.55 42 43 40.3 41.55 39.35 40.05 37.8 38.3 36 36.5 35.05 34.55 34.05 32.5 34 L32 34 31.6 34 Q30 34 28.5 34.6 L27.45 35.05 26.2 35.85 Q25.1 36.6 24.05 37.7 L23.95 37.8 23.25 38.5 21 40.3 Q18.45 42 16 42 12.15 42 8.05 37.8 6.3 36 4.55 35.05 L4 34.8 4 30.8"/>
    <path stroke="none" fill="#A452D4" d="M4 30.8 L4 26.8 4.55 27.05 Q6.3 28 8.05 29.8 12.15 34 16 34 18.45 34 21 32.3 L23.25 30.5 23.95 29.8 24.05 29.7 Q25.1 28.6 26.2 27.85 L27.45 27.05 28.5 26.6 Q30 26 31.6 26 L31.85 26 32 26 32.5 26 Q34.55 26.05 36.5 27.05 38.3 28 40.05 29.8 41.55 31.35 43 32.3 45.55 34 48 34 51.85 34 55.95 29.8 57.7 28 59.45 27.05 L60 26.8 60 30.8 59.45 31.05 Q57.7 32 55.95 33.8 51.85 38 48 38 45.55 38 43 36.3 41.55 35.35 40.05 33.8 38.3 32 36.5 31.05 34.55 30.05 32.5 30 L32 30 31.85 30 31.6 30 Q30 30 28.5 30.6 L27.45 31.05 26.2 31.85 Q25.1 32.6 24.05 33.7 L23.95 33.8 23.25 34.5 21 36.3 Q18.45 38 16 38 12.15 38 8.05 33.8 6.3 32 4.55 31.05 L4 30.8"/>
    <path stroke="none" fill="#BA6BE9" d="M60 26.8 L59.45 27.05 Q57.7 28 55.95 29.8 51.85 34 48 34 45.55 34 43 32.3 41.55 31.35 40.05 29.8 38.3 28 36.5 27.05 34.55 26.05 32.5 26 L32 26 31.85 26 31.6 26 Q30 26 28.5 26.6 L27.45 27.05 26.2 27.85 Q25.1 28.6 24.05 29.7 L23.95 29.8 23.25 30.5 21 32.3 Q18.45 34 16 34 12.15 34 8.05 29.8 6.3 28 4.55 27.05 L4 26.8 4 24 Q4.1 21.65 4.85 20 6.6 16.15 12 16 L52 16 Q57.4 16.15 59.15 20 59.9 21.65 60 24 L60 26.8"/>
    <path stroke="none" fill="#353541" d="M60 26.8 L60 24 60 20 Q59.9 17.65 59.15 16 57.4 12.15 52 12 L12 12 Q6.6 12.15 4.85 16 4.1 17.65 4 20 L4 24 4 26.8 4 30.8 4 34.8 4 38.8 4 44 4 53.35 Q0.3 49 0.05 44.35 L0 44 0 20 0 19.9 Q0.1 16.65 1.2 14.35 3.7 8.25 11.9 8 L12 8 52 8 52.1 8 Q60.3 8.25 62.8 14.35 63.9 16.65 64 19.9 L64 20 64 44 63.95 44.35 Q63.7 49 60 53.35 L60 44 60 38.8 60 34.8 60 30.8 60 26.8"/>
    <path stroke="none" fill="#D699FA" d="M60 24 Q59.9 21.65 59.15 20 57.4 16.15 52 16 L12 16 Q6.6 16.15 4.85 20 4.1 21.65 4 24 L4 20 Q4.1 17.65 4.85 16 6.6 12.15 12 12 L52 12 Q57.4 12.15 59.15 16 59.9 17.65 60 20 L60 24"/>
    <path stroke="none" fill="#A6B2BB" d="M4 34.8 L4.55 35.05 Q6.3 36 8.05 37.8 12.15 42 16 42 18.45 42 21 40.3 L23.25 38.5 23.95 37.8 24.05 37.7 Q25.1 36.6 26.2 35.85 L27.45 35.05 28.5 34.6 Q30 34 31.6 34 L32 34 32.5 34 Q34.55 34.05 36.5 35.05 38.3 36 40.05 37.8 41.55 39.35 43 40.3 45.55 42 48 42 51.85 42 55.95 37.8 57.7 36 59.45 35.05 L60 34.8 60 38.8 59.45 39.05 Q57.7 40 55.95 41.8 51.85 46 48 46 45.55 46 43 44.3 41.55 43.35 40.05 41.8 38.3 40 36.5 39.05 34.55 38.05 32.5 38 L32 38 31.85 38 31.6 38 Q30 38 28.5 38.6 L27.45 39.05 26.2 39.85 Q25.1 40.6 24.05 41.7 L23.95 41.8 23.25 42.5 21 44.3 Q18.45 46 16 46 12.15 46 8.05 41.8 6.3 40 4.55 39.05 L4 38.8 4 34.8"/>
    <path stroke="none" fill="#CFD5DA" d="M4 44 L4 38.8 4.55 39.05 Q6.3 40 8.05 41.8 12.15 46 16 46 18.45 46 21 44.3 L23.25 42.5 23.95 41.8 24.05 41.7 Q25.1 40.6 26.2 39.85 L27.45 39.05 28.5 38.6 Q30 38 31.6 38 L31.85 38 32 38 32.5 38 Q34.55 38.05 36.5 39.05 38.3 40 40.05 41.8 41.55 43.35 43 44.3 45.55 46 48 46 51.85 46 55.95 41.8 57.7 40 59.45 39.05 L60 38.8 60 44 Q59.65 48.2 55.75 52 51.75 56 48 56 45.55 56 43 54.3 41.55 53.35 40.05 51.8 38.3 50 36.5 49.05 34.55 48.05 32.5 48 L32 48 31.85 48 31.6 48 28.5 48.6 27.45 49.05 26.2 49.85 Q25.1 50.6 24.05 51.7 L23.95 51.8 23.25 52.5 21 54.3 Q18.45 56 16 56 12.25 56 8.25 52 4.35 48.2 4 44"/>
  </g>
</svg>