<svg width="64" height="64" xmlns="http://www.w3.org/2000/svg" xmlns:xlink="http://www.w3.org/1999/xlink">
  <defs/>
  <g>
    <path stroke="none" fill="#353541" d="M64 40 L64 44 63.95 44 Q59.85 43.9 55.95 44.95 L56 44.95 Q52.85 45.75 49.75 47.35 46.45 49.05 43.25 50.1 L43.3 50.1 Q37.55 52 32 52 23.4 52.05 14.3 47.35 11.2 45.75 8.05 44.95 L7.15 44.7 6.8 44.6 Q0 42.4 0 36.15 L0 36 0 12 0 11.85 Q0.15 8.6 1.2 6.35 3.7 0.25 11.9 0 L12 0 64 0 64 4 12 4 Q6.6 4.15 4.85 8 4.1 9.65 4 12 L4 16 4 18.15 4 22.15 4 26.15 4 30.15 4 36 Q4.1 39.55 8 40.8 L9.05 41.05 Q12.6 42 16.1 43.8 24.3 48 32 48 36.9 48 42 46.3 44.9 45.35 47.9 43.8 51.4 42 54.95 41.05 59.4 39.9 64 40"/>
    <path stroke="none" fill="#E5F0FF" d="M64 8 L64 18 Q59.4 17.9 54.95 19.05 51.4 20 47.9 21.8 44.9 23.35 42 24.3 36.9 26 32 26 24.3 26 16.1 21.8 12.6 20 9.05 19.05 L4 18.15 4 16 Q4.1 13.65 4.85 12 6.6 8.15 12 8 L64 8 M31.2 12.8 Q30.5 12.05 29.3 12 28.3 12.05 27.5 12.85 L26.15 14.2 Q25.4 14.95 25.35 16 25.4 17.15 26.15 17.85 L27.5 19.2 Q28.3 20 29.4 20 30.5 20 31.2 19.3 L32.55 17.95 Q33.35 17.15 33.35 16.05 33.35 14.95 32.55 14.15 L31.2 12.8 M41.25 15.2 Q40.8 14.75 40.05 14.75 39.4 14.75 38.9 15.25 L38.1 16.1 Q37.6 16.55 37.6 17.2 37.6 17.95 38.1 18.4 L38.9 19.25 Q39.4 19.75 40.1 19.75 40.8 19.75 41.25 19.25 L42.1 18.45 Q42.6 17.95 42.6 17.25 42.6 16.55 42.1 16.05 L41.25 15.2"/>
    <path stroke="none" fill="#C8DBF5" d="M64 18 L64 22 Q59.4 21.9 54.95 23.05 51.4 24 47.9 25.8 44.9 27.35 42 28.3 36.9 30 32 30 24.3 30 16.1 25.8 12.6 24 9.05 23.05 L4 22.15 4 18.15 9.05 19.05 Q12.6 20 16.1 21.8 24.3 26 32 26 36.9 26 42 24.3 44.9 23.35 47.9 21.8 51.4 20 54.95 19.05 59.4 17.9 64 18 M31.2 12.8 L32.55 14.15 Q33.35 14.95 33.35 16.05 33.35 17.15 32.55 17.95 L31.2 19.3 Q30.5 20 29.4 20 28.3 20 27.5 19.2 L26.15 17.85 Q25.4 17.15 25.35 16 25.4 14.95 26.15 14.2 L27.5 12.85 Q28.3 12.05 29.3 12 30.5 12.05 31.2 12.8"/>
    <path stroke="none" fill="#FFFFFF" d="M64 4 L64 8 12 8 Q6.6 8.15 4.85 12 4.1 13.65 4 16 L4 12 Q4.1 9.65 4.85 8 6.6 4.15 12 4 L64 4 M41.25 15.2 L42.1 16.05 Q42.6 16.55 42.6 17.25 42.6 17.95 42.1 18.45 L41.25 19.25 Q40.8 19.75 40.1 19.75 39.4 19.75 38.9 19.25 L38.1 18.4 Q37.6 17.95 37.6 17.2 37.6 16.55 38.1 16.1 L38.9 15.25 Q39.4 14.75 40.05 14.75 40.8 14.75 41.25 15.2"/>
    <path stroke="none" fill="#BBC4CB" d="M64 22 L64 26 Q59.4 25.9 54.95 27.05 51.4 28 47.9 29.8 44.9 31.35 42 32.3 36.9 34 32 34 24.3 34 16.1 29.8 12.6 28 9.05 27.05 L4 26.15 4 22.15 9.05 23.05 Q12.6 24 16.1 25.8 24.3 30 32 30 36.9 30 42 28.3 44.9 27.35 47.9 25.8 51.4 24 54.95 23.05 59.4 21.9 64 22"/>
    <path stroke="none" fill="#A6B2BB" d="M64 26 L64 30 Q59.4 29.9 54.95 31.05 51.4 32 47.9 33.8 44.9 35.35 42 36.3 36.9 38 32 38 24.3 38 16.1 33.8 12.6 32 9.05 31.05 L4 30.15 4 26.15 9.05 27.05 Q12.6 28 16.1 29.8 24.3 34 32 34 36.9 34 42 32.3 44.9 31.35 47.9 29.8 51.4 28 54.95 27.05 59.4 25.9 64 26"/>
    <path stroke="none" fill="#CFD5DA" d="M64 30 L64 40 Q59.4 39.9 54.95 41.05 51.4 42 47.9 43.8 44.9 45.35 42 46.3 36.9 48 32 48 24.3 48 16.1 43.8 12.6 42 9.05 41.05 L8 40.8 Q4.1 39.55 4 36 L4 30.15 9.05 31.05 Q12.6 32 16.1 33.8 24.3 38 32 38 36.9 38 42 36.3 44.9 35.35 47.9 33.8 51.4 32 54.95 31.05 59.4 29.9 64 30"/>
    <path stroke="none" fill="#E5F0FF" d="M52.75 27.25 Q51.2 27.25 49.9 26.05 48.65 24.85 46.6 17.95 L44.75 11.25 60.75 11.25 58.9 17.95 Q56.85 24.85 55.6 26.05 54.3 27.25 52.75 27.25"/>
  </g>
</svg>