<svg width="64" height="64" xmlns="http://www.w3.org/2000/svg" xmlns:xlink="http://www.w3.org/1999/xlink">
  <defs/>
  <g>
    <path stroke="none" fill="#353541" d="M56 0 L64 0 64 4 56 0"/>
    <path stroke="none" fill="#46E087" d="M56 0 L64 4 64 8 48 0 56 0"/>
    <path stroke="none" fill="#DE7E4F" d="M64 28 L64 36 51.6 29.75 Q49.9 28.9 48 28.9 46.1 28.9 44.45 29.75 L32 36 19.6 29.75 Q17.9 28.9 16 28.9 14.1 28.9 12.45 29.75 L0 36 0 24.9 Q1.85 24.85 3.6 24 L16 17.8 28.45 24 Q30.1 24.85 32 24.85 33.9 24.85 35.6 24 L45.8 18.9 64 28 M64 60 L64 64 0 64 0 60 Q1.85 59.95 3.6 59.1 L16 52.9 28.45 59.1 Q30.1 59.95 32 59.95 33.9 59.95 35.6 59.1 L48 52.9 60.45 59.1 Q62.15 59.95 64 60 M0 10.9 L0 0 8 0 15.65 3.8 Q13.95 3.9 12.45 4.65 L0 10.9 M49.65 22.45 Q49.2 22 48.45 22 47.8 22 47.3 22.5 L46.5 23.35 Q46 23.8 46 24.45 46 25.2 46.5 25.65 L47.3 26.5 Q47.8 27 48.5 27 49.2 27 49.65 26.5 L50.5 25.7 Q51 25.2 51 24.5 51 23.8 50.5 23.3 L49.65 22.45 M51.85 38.8 L53.2 40.15 Q54 40.95 54 42.05 54 43.15 53.2 43.95 L51.85 45.3 Q51.15 46 50.05 46 48.95 46 48.15 45.2 L46.8 43.85 Q46.05 43.15 46 42 46.05 40.95 46.8 40.2 L48.15 38.85 Q48.95 38.05 49.95 38 51.15 38.05 51.85 38.8 M43.65 46.45 L44.5 47.3 Q45 47.8 45 48.5 45 49.2 44.5 49.7 L43.65 50.5 Q43.2 51 42.5 51 41.8 51 41.3 50.5 L40.5 49.65 Q40 49.2 40 48.45 40 47.8 40.5 47.35 L41.3 46.5 Q41.8 46 42.45 46 43.2 46 43.65 46.45 M10.65 9.45 L11.5 10.3 Q12 10.8 12 11.5 12 12.2 11.5 12.7 L10.65 13.5 Q10.2 14 9.5 14 8.8 14 8.3 13.5 L7.5 12.65 Q7 12.2 7 11.45 7 10.8 7.5 10.35 L8.3 9.5 Q8.8 9 9.45 9 10.2 9 10.65 9.45 M17.65 56.45 Q17.2 56 16.45 56 15.8 56 15.3 56.5 L14.5 57.35 Q14 57.8 14 58.45 14 59.2 14.5 59.65 L15.3 60.5 Q15.8 61 16.5 61 17.2 61 17.65 60.5 L18.5 59.7 Q19 59.2 19 58.5 19 57.8 18.5 57.3 L17.65 56.45"/>
    <path stroke="none" fill="#EE9366" d="M64 40 L64 60 Q62.15 59.95 60.45 59.1 L48 52.9 35.6 59.1 Q33.9 59.95 32 59.95 30.1 59.95 28.45 59.1 L16 52.9 3.6 59.1 Q1.85 59.95 0 60 L0 40 12.45 33.75 Q14.1 32.9 16 32.9 17.9 32.9 19.6 33.75 L32 40 44.45 33.75 Q46.1 32.9 48 32.9 49.9 32.9 51.6 33.75 L64 40 M0 24.9 L0 20.9 Q1.85 20.85 3.6 20 L16 13.8 28.45 20 Q30.1 20.85 32 20.85 33.9 20.85 35.6 20 L41.8 16.9 45.8 18.9 35.6 24 Q33.9 24.85 32 24.85 30.1 24.85 28.45 24 L16 17.8 3.6 24 Q1.85 24.85 0 24.9 M51.85 38.8 Q51.15 38.05 49.95 38 48.95 38.05 48.15 38.85 L46.8 40.2 Q46.05 40.95 46 42 46.05 43.15 46.8 43.85 L48.15 45.2 Q48.95 46 50.05 46 51.15 46 51.85 45.3 L53.2 43.95 Q54 43.15 54 42.05 54 40.95 53.2 40.15 L51.85 38.8 M43.65 46.45 Q43.2 46 42.45 46 41.8 46 41.3 46.5 L40.5 47.35 Q40 47.8 40 48.45 40 49.2 40.5 49.65 L41.3 50.5 Q41.8 51 42.5 51 43.2 51 43.65 50.5 L44.5 49.7 Q45 49.2 45 48.5 45 47.8 44.5 47.3 L43.65 46.45"/>
    <path stroke="none" fill="#C66A3E" d="M64 36 L64 40 51.6 33.75 Q49.9 32.9 48 32.9 46.1 32.9 44.45 33.75 L32 40 19.6 33.75 Q17.9 32.9 16 32.9 14.1 32.9 12.45 33.75 L0 40 0 36 12.45 29.75 Q14.1 28.9 16 28.9 17.9 28.9 19.6 29.75 L32 36 44.45 29.75 Q46.1 28.9 48 28.9 49.9 28.9 51.6 29.75 L64 36 M0 20.9 L0 10.9 12.45 4.65 Q13.95 3.9 15.65 3.8 L41.8 16.9 35.6 20 Q33.9 20.85 32 20.85 30.1 20.85 28.45 20 L16 13.8 3.6 20 Q1.85 20.85 0 20.9 M49.65 22.45 L50.5 23.3 Q51 23.8 51 24.5 51 25.2 50.5 25.7 L49.65 26.5 Q49.2 27 48.5 27 47.8 27 47.3 26.5 L46.5 25.65 Q46 25.2 46 24.45 46 23.8 46.5 23.35 L47.3 22.5 Q47.8 22 48.45 22 49.2 22 49.65 22.45 M10.65 9.45 Q10.2 9 9.45 9 8.8 9 8.3 9.5 L7.5 10.35 Q7 10.8 7 11.45 7 12.2 7.5 12.65 L8.3 13.5 Q8.8 14 9.5 14 10.2 14 10.65 13.5 L11.5 12.7 Q12 12.2 12 11.5 12 10.8 11.5 10.3 L10.65 9.45 M17.65 56.45 L18.5 57.3 Q19 57.8 19 58.5 19 59.2 18.5 59.7 L17.65 60.5 Q17.2 61 16.5 61 15.8 61 15.3 60.5 L14.5 59.65 Q14 59.2 14 58.45 14 57.8 14.5 57.35 L15.3 56.5 Q15.8 56 16.45 56 17.2 56 17.65 56.45"/>
    <path stroke="none" fill="#20B860" d="M64 24 L64 28 45.8 18.9 41.8 16.9 15.65 3.8 8 0 16 0 64 24"/>
    <path stroke="none" fill="#2ECC71" d="M64 24 L16 0 48 0 64 8 64 24"/>
  </g>
</svg>