<svg width="64" height="64" xmlns="http://www.w3.org/2000/svg" xmlns:xlink="http://www.w3.org/1999/xlink">
  <defs/>
  <g>
    <path stroke="none" fill="#353541" d="M60 0 L64 0 64 52 64 52.15 63.8 54.5 Q62.35 63.65 52.15 64 L52 64 12 64 11.85 64 Q1.65 63.65 0.2 54.5 L0 52.15 0 52 0 0 4 0 4 8.9 4 19.8 4 23.8 4 34 4 38 4 52 4.15 53.8 Q5.2 59.8 12 60 L52 60 Q58.8 59.8 59.85 53.8 L60 52 60 38 60 34 60 23.8 60 19.8 60 8.9 60 0"/>
    <path stroke="none" fill="#C66A3E" d="M60 8.9 L60 19.8 48 13.8 35.6 20 Q33.9 20.85 32 20.85 30.1 20.85 28.45 20 L27.75 19.65 27.75 19.7 26.8 19.2 25.9 18.75 20.25 15.95 16 13.8 4 19.8 4 8.9 12.4 4.65 Q14.1 3.8 16 3.8 17.9 3.8 19.55 4.65 L27.75 8.8 27.75 8.75 32 10.9 44.45 4.65 Q46.1 3.8 48 3.8 49.9 3.8 51.6 4.65 L60 8.9 M60 34 L60 38 51.6 33.75 Q49.9 32.9 48 32.9 46.1 32.9 44.45 33.75 L32 40 27.75 37.85 27.75 37.9 19.55 33.75 Q17.9 32.9 16 32.9 14.1 32.9 12.4 33.75 L4 38 4 34 12.4 29.75 Q14.1 28.9 16 28.9 17.9 28.9 19.55 29.75 L27.75 33.9 27.75 33.85 32 36 44.45 29.75 Q46.1 28.9 48 28.9 49.9 28.9 51.6 29.75 L60 34"/>
    <path stroke="none" fill="#DE7E4F" d="M60 34 L51.6 29.75 Q49.9 28.9 48 28.9 46.1 28.9 44.45 29.75 L32 36 27.75 33.85 27.75 33.9 19.55 29.75 Q17.9 28.9 16 28.9 14.1 28.9 12.4 29.75 L4 34 4 23.8 16 17.8 20.25 19.95 25.9 22.75 26.8 23.2 27.75 23.7 27.75 23.65 28.45 24 Q30.1 24.85 32 24.85 33.9 24.85 35.6 24 L48 17.8 60 23.8 60 34 M4 0 L60 0 60 8.9 51.6 4.65 Q49.9 3.8 48 3.8 46.1 3.8 44.45 4.65 L32 10.9 27.75 8.75 27.75 8.8 19.55 4.65 Q17.9 3.8 16 3.8 14.1 3.8 12.4 4.65 L4 8.9 4 0 M59.85 53.8 Q58.8 59.8 52 60 L12 60 Q5.2 59.8 4.15 53.8 L16 47.9 20.25 50.05 25.9 52.85 26.8 53.3 27.75 53.8 27.75 53.75 28.45 54.1 Q30.1 54.95 32 54.95 33.9 54.95 35.6 54.1 L48 47.9 59.85 53.8"/>
    <path stroke="none" fill="#EE9366" d="M59.85 53.8 L48 47.9 35.6 54.1 Q33.9 54.95 32 54.95 30.1 54.95 28.45 54.1 L27.75 53.75 27.75 53.8 26.8 53.3 25.9 52.85 20.25 50.05 16 47.9 4.15 53.8 4 52 4 38 12.4 33.75 Q14.1 32.9 16 32.9 17.9 32.9 19.55 33.75 L27.75 37.9 27.75 37.85 32 40 44.45 33.75 Q46.1 32.9 48 32.9 49.9 32.9 51.6 33.75 L60 38 60 52 59.85 53.8 M60 19.8 L60 23.8 48 17.8 35.6 24 Q33.9 24.85 32 24.85 30.1 24.85 28.45 24 L27.75 23.65 27.75 23.7 26.8 23.2 25.9 22.75 20.25 19.95 16 17.8 4 23.8 4 19.8 16 13.8 20.25 15.95 25.9 18.75 26.8 19.2 27.75 19.7 27.75 19.65 28.45 20 Q30.1 20.85 32 20.85 33.9 20.85 35.6 20 L48 13.8 60 19.8"/>
    <path stroke="none" fill="#C66A3E" d="M49.1 21.55 L49.95 22.4 Q50.45 22.9 50.45 23.6 50.45 24.3 49.95 24.8 L49.1 25.6 Q48.65 26.1 47.95 26.1 47.25 26.1 46.75 25.6 L45.95 24.75 Q45.45 24.3 45.45 23.55 45.45 22.9 45.95 22.45 L46.75 21.6 Q47.25 21.1 47.9 21.1 48.65 21.1 49.1 21.55"/>
    <path stroke="none" fill="#DE7E4F" d="M16.65 36.45 L17.5 37.3 Q18 37.8 18 38.5 18 39.2 17.5 39.7 L16.65 40.5 Q16.2 41 15.5 41 14.8 41 14.3 40.5 L13.5 39.65 Q13 39.2 13 38.45 13 37.8 13.5 37.35 L14.3 36.5 Q14.8 36 15.45 36 16.2 36 16.65 36.45"/>
    <path stroke="none" fill="#DE7E4F" d="M21.65 41.45 L22.5 42.3 Q23 42.8 23 43.5 23 44.2 22.5 44.7 L21.65 45.5 Q21.2 46 20.5 46 19.8 46 19.3 45.5 L18.5 44.65 Q18 44.2 18 43.45 18 42.8 18.5 42.35 L19.3 41.5 Q19.8 41 20.45 41 21.2 41 21.65 41.45"/>
  </g>
</svg>