<svg width="64" height="64" xmlns="http://www.w3.org/2000/svg" xmlns:xlink="http://www.w3.org/1999/xlink">
  <defs/>
  <g>
    <path stroke="none" fill="#C66A3E" d="M0 10.9 L12.45 4.65 Q14.1 3.8 16 3.8 17.9 3.8 19.6 4.65 L32 10.9 44.45 4.65 Q46.1 3.8 48 3.8 49.9 3.8 51.6 4.65 L64 10.9 64 20.9 Q62.15 20.85 60.45 20 L48 13.8 35.6 20 Q33.9 20.85 32 20.85 30.1 20.85 28.45 20 L16 13.8 3.6 20 Q1.85 20.85 0 20.9 L0 10.9 M0 36 L12.45 29.75 Q14.1 28.9 16 28.9 17.9 28.9 19.6 29.75 L32 36 44.45 29.75 Q46.1 28.9 48 28.9 49.9 28.9 51.6 29.75 L64 36 64 40 51.6 33.75 Q49.9 32.9 48 32.9 46.1 32.9 44.45 33.75 L32 40 19.6 33.75 Q17.9 32.9 16 32.9 14.1 32.9 12.45 33.75 L0 40 0 36"/>
    <path stroke="none" fill="#DE7E4F" d="M0 36 L0 24.9 Q1.85 24.85 3.6 24 L16 17.8 28.45 24 Q30.1 24.85 32 24.85 33.9 24.85 35.6 24 L48 17.8 60.45 24 Q62.15 24.85 64 24.9 L64 36 51.6 29.75 Q49.9 28.9 48 28.9 46.1 28.9 44.45 29.75 L32 36 19.6 29.75 Q17.9 28.9 16 28.9 14.1 28.9 12.45 29.75 L0 36 M64 10.9 L51.6 4.65 Q49.9 3.8 48 3.8 46.1 3.8 44.45 4.65 L32 10.9 19.6 4.65 Q17.9 3.8 16 3.8 14.1 3.8 12.45 4.65 L0 10.9 0 0 64 0 64 10.9 M64 60 L64 64 0 64 0 60 Q1.85 59.95 3.6 59.1 L16 52.9 28.45 59.1 Q30.1 59.95 32 59.95 33.9 59.95 35.6 59.1 L48 52.9 60.45 59.1 Q62.15 59.95 64 60"/>
    <path stroke="none" fill="#EE9366" d="M64 60 Q62.15 59.95 60.45 59.1 L48 52.9 35.6 59.1 Q33.9 59.95 32 59.95 30.1 59.95 28.45 59.1 L16 52.9 3.6 59.1 Q1.85 59.95 0 60 L0 40 12.45 33.75 Q14.1 32.9 16 32.9 17.9 32.9 19.6 33.75 L32 40 44.45 33.75 Q46.1 32.9 48 32.9 49.9 32.9 51.6 33.75 L64 40 64 60 M0 20.9 Q1.85 20.85 3.6 20 L16 13.8 28.45 20 Q30.1 20.85 32 20.85 33.9 20.85 35.6 20 L48 13.8 60.45 20 Q62.15 20.85 64 20.9 L64 24.9 Q62.15 24.85 60.45 24 L48 17.8 35.6 24 Q33.9 24.85 32 24.85 30.1 24.85 28.45 24 L16 17.8 3.6 24 Q1.85 24.85 0 24.9 L0 20.9"/>
    <path stroke="none" fill="#DE7E4F" d="M51.85 38.8 L53.2 40.15 Q54 40.95 54 42.05 54 43.15 53.2 43.95 L51.85 45.3 Q51.15 46 50.05 46 48.95 46 48.15 45.2 L46.8 43.85 Q46.05 43.15 46 42 46.05 40.95 46.8 40.2 L48.15 38.85 Q48.95 38.05 49.95 38 51.15 38.05 51.85 38.8"/>
    <path stroke="none" fill="#DE7E4F" d="M43.65 46.45 L44.5 47.3 Q45 47.8 45 48.5 45 49.2 44.5 49.7 L43.65 50.5 Q43.2 51 42.5 51 41.8 51 41.3 50.5 L40.5 49.65 Q40 49.2 40 48.45 40 47.8 40.5 47.35 L41.3 46.5 Q41.8 46 42.45 46 43.2 46 43.65 46.45"/>
    <path stroke="none" fill="#C66A3E" d="M17.65 56.45 L18.5 57.3 Q19 57.8 19 58.5 19 59.2 18.5 59.7 L17.65 60.5 Q17.2 61 16.5 61 15.8 61 15.3 60.5 L14.5 59.65 Q14 59.2 14 58.45 14 57.8 14.5 57.35 L15.3 56.5 Q15.8 56 16.45 56 17.2 56 17.65 56.45"/>
    <path stroke="none" fill="#C66A3E" d="M49.65 22.45 L50.5 23.3 Q51 23.8 51 24.5 51 25.2 50.5 25.7 L49.65 26.5 Q49.2 27 48.5 27 47.8 27 47.3 26.5 L46.5 25.65 Q46 25.2 46 24.45 46 23.8 46.5 23.35 L47.3 22.5 Q47.8 22 48.45 22 49.2 22 49.65 22.45"/>
    <path stroke="none" fill="#DE7E4F" d="M10.65 9.45 L11.5 10.3 Q12 10.8 12 11.5 12 12.2 11.5 12.7 L10.65 13.5 Q10.2 14 9.5 14 8.8 14 8.3 13.5 L7.5 12.65 Q7 12.2 7 11.45 7 10.8 7.5 10.35 L8.3 9.5 Q8.8 9 9.45 9 10.2 9 10.65 9.45"/>
  </g>
</svg>