<svg width="64" height="64" xmlns="http://www.w3.org/2000/svg" xmlns:xlink="http://www.w3.org/1999/xlink">
  <defs/>
  <g>
    <path stroke="none" fill="#FFE0C2" d="M56 0 L64 4 64 8 48 0 56 0"/>
    <path stroke="none" fill="#353541" d="M56 0 L64 0 64 4 56 0"/>
    <path stroke="none" fill="#C66A3E" d="M57.15 18.6 L54.95 19.05 Q51.4 20 47.9 21.8 44.9 23.35 42 24.3 36.9 26 32 26 24.3 26 16.1 21.8 12.6 20 9.05 19.05 4.6 17.9 0 18 L0 6 Q4.6 5.9 9.05 7.05 12.6 8 16.1 9.8 24.3 14 32 14 36.9 14 42 12.3 L43.55 11.8 57.15 18.6 M0 29 Q4.6 28.9 9.05 30.05 12.6 31 16.1 32.8 24.3 37 32 37 36.9 37 42 35.3 44.9 34.35 47.9 32.8 51.4 31 54.95 30.05 59.4 28.9 64 29 L64 33 Q59.4 32.9 54.95 34.05 51.4 35 47.9 36.8 44.9 38.35 42 39.3 36.9 41 32 41 24.3 41 16.1 36.8 12.6 35 9.05 34.05 4.6 32.9 0 33 L0 29 M57.8 56.3 L58.65 57.15 Q59.15 57.65 59.15 58.35 59.15 59.05 58.65 59.55 L57.8 60.35 56.65 60.85 Q55.95 60.85 55.45 60.35 L54.65 59.5 Q54.15 59.05 54.15 58.3 54.15 57.65 54.65 57.2 L55.45 56.35 Q55.95 55.85 56.6 55.85 57.35 55.85 57.8 56.3"/>
    <path stroke="none" fill="#EE9366" d="M0 18 Q4.6 17.9 9.05 19.05 12.6 20 16.1 21.8 24.3 26 32 26 36.9 26 42 24.3 44.9 23.35 47.9 21.8 51.4 20 54.95 19.05 L57.15 18.6 64 22 Q59.4 21.9 54.95 23.05 51.4 24 47.9 25.8 44.9 27.35 42 28.3 36.9 30 32 30 24.3 30 16.1 25.8 12.6 24 9.05 23.05 4.6 21.9 0 22 L0 18 M0 33 Q4.6 32.9 9.05 34.05 12.6 35 16.1 36.8 24.3 41 32 41 36.9 41 42 39.3 44.9 38.35 47.9 36.8 51.4 35 54.95 34.05 59.4 32.9 64 33 L64 51 Q59.4 50.9 54.95 52.05 51.4 53 47.9 54.8 44.9 56.35 42 57.3 36.9 59 32 59 24.3 59 16.1 54.8 12.6 53 9.05 52.05 4.6 50.9 0 51 L0 33 M43.8 49.15 Q43.35 48.7 42.6 48.7 41.95 48.7 41.45 49.2 L40.65 50.05 Q40.15 50.5 40.15 51.15 40.15 51.9 40.65 52.35 L41.45 53.2 Q41.95 53.7 42.65 53.7 43.35 53.7 43.8 53.2 L44.65 52.4 Q45.15 51.9 45.15 51.2 45.15 50.5 44.65 50 L43.8 49.15 M52 41.5 Q51.3 40.75 50.1 40.7 49.1 40.75 48.3 41.55 L46.95 42.9 Q46.2 43.65 46.15 44.7 46.2 45.85 46.95 46.55 L48.3 47.9 Q49.1 48.7 50.2 48.7 51.3 48.7 52 48 L53.35 46.65 Q54.15 45.85 54.15 44.75 54.15 43.65 53.35 42.85 L52 41.5"/>
    <path stroke="none" fill="#DE7E4F" d="M52 41.5 L53.35 42.85 Q54.15 43.65 54.15 44.75 54.15 45.85 53.35 46.65 L52 48 Q51.3 48.7 50.2 48.7 49.1 48.7 48.3 47.9 L46.95 46.55 Q46.2 45.85 46.15 44.7 46.2 43.65 46.95 42.9 L48.3 41.55 Q49.1 40.75 50.1 40.7 51.3 40.75 52 41.5 M43.55 11.8 L42 12.3 Q36.9 14 32 14 24.3 14 16.1 9.8 12.6 8 9.05 7.05 4.6 5.9 0 6 L0 0 20 0 43.55 11.8 M0 22 Q4.6 21.9 9.05 23.05 12.6 24 16.1 25.8 24.3 30 32 30 36.9 30 42 28.3 44.9 27.35 47.9 25.8 51.4 24 54.95 23.05 59.4 21.9 64 22 L64 29 Q59.4 28.9 54.95 30.05 51.4 31 47.9 32.8 44.9 34.35 42 35.3 36.9 37 32 37 24.3 37 16.1 32.8 12.6 31 9.05 30.05 4.6 28.9 0 29 L0 22 M0 51 Q4.6 50.9 9.05 52.05 12.6 53 16.1 54.8 24.3 59 32 59 36.9 59 42 57.3 44.9 56.35 47.9 54.8 51.4 53 54.95 52.05 59.4 50.9 64 51 L64 64 0 64 0 51 M57.8 56.3 Q57.35 55.85 56.6 55.85 55.95 55.85 55.45 56.35 L54.65 57.2 Q54.15 57.65 54.15 58.3 54.15 59.05 54.65 59.5 L55.45 60.35 Q55.95 60.85 56.65 60.85 L57.8 60.35 58.65 59.55 Q59.15 59.05 59.15 58.35 59.15 57.65 58.65 57.15 L57.8 56.3 M43.8 49.15 L44.65 50 Q45.15 50.5 45.15 51.2 45.15 51.9 44.65 52.4 L43.8 53.2 Q43.35 53.7 42.65 53.7 41.95 53.7 41.45 53.2 L40.65 52.35 Q40.15 51.9 40.15 51.15 40.15 50.5 40.65 50.05 L41.45 49.2 Q41.95 48.7 42.6 48.7 43.35 48.7 43.8 49.15"/>
    <path stroke="none" fill="#E7B187" d="M57.15 18.6 L43.55 11.8 20 0 28 0 52.15 12.1 52.7 12.4 64 18 64 22 57.15 18.6"/>
    <path stroke="none" fill="#F3C7A5" d="M48 0 L64 8 64 18 52.7 12.4 52.15 12.1 28 0 48 0"/>
  </g>
</svg>