<svg width="64" height="64" xmlns="http://www.w3.org/2000/svg" xmlns:xlink="http://www.w3.org/1999/xlink">
  <defs/>
  <g>
    <path stroke="none" fill="#353541" d="M64 48 L64 52 12 52 11.9 52 Q1.3 51.7 0.15 42 L0 40.15 0 40 0 11.9 0.15 10 Q0.45 7.95 1.2 6.35 3.05 1.85 8 0.55 L11.9 0 12 0 64 0 64 4 48 4 44 4 20 4 16 4 12 4 Q9.65 4.05 8 4.85 5.85 5.8 4.85 8 L4.25 10 Q4.05 10.95 4 12 L4 16 4 20 4 24 4 26 4 40 4.25 42 Q5.3 47.8 12 48 L64 48"/>
    <path stroke="none" fill="#5E5E6D" d="M64 8 L64 20 52 20 50.35 19.8 Q48.1 19.1 48 16.25 L48 16 48 12.8 48 8 44 8 44 24 20 24 20 8 16 8 16 16.25 Q15.85 19.4 13.1 19.9 L12 20 4 20 4 16 Q4.1 13.6 4.85 11.95 5.85 9.85 7.95 8.85 9.6 8.1 12 8 L16 8 16 4 20 4 20 8 44 8 44 4 48 4 48 8 64 8"/>
    <path stroke="none" fill="#4F4F5D" d="M44 24 L44 8 48 8 48 12.8 48 16 48 16.25 47.95 20.9 Q47.7 22.95 46 23.65 L44 24 M16 16.25 L16 8 20 8 20 24 19.6 24 18 23.65 Q16.1 22.85 16 20.25 L16 16.25"/>
    <path stroke="none" fill="#BBC4CB" d="M64 24 L64 26 60 26 Q56.15 26 56 29.75 L56 36.25 56 38 56.1 39 Q56.5 41.9 59.75 42 L64 42 64 48 12 48 Q5.3 47.8 4.25 42 7.5 41.9 7.95 39 L8 38 8 36.25 8 29.75 Q7.85 26 4 26 L4 24 12 24 12 34.25 12 36.25 Q12.15 40 16 40 L28 40 Q31.85 40 32 36.25 L32 34.25 32 28 36 28 Q36 31.9 39.75 32 L48.25 32 Q52 31.9 52 28 L52 24 64 24"/>
    <path stroke="none" fill="#424251" d="M64 24 L52 24 50.35 23.8 Q48.1 23.1 48 20.25 L48 24 48 24.25 Q47.95 26.85 46 27.65 L44 28 36 28 32 28 20 28 19.6 28 18 27.65 Q16.1 26.85 16 24.25 L16 24 16 20.25 Q16.1 22.85 18 23.65 L19.6 24 20 24 44 24 46 23.65 Q47.7 22.95 47.95 20.9 L48 16.25 Q48.1 19.1 50.35 19.8 L52 20 64 20 64 24 M4 24 L4 20 12 20 13.1 19.9 Q15.85 19.4 16 16.25 L16 20.25 Q15.85 23.4 13.1 23.9 L12 24 4 24"/>
    <path stroke="none" fill="#A6B2BB" d="M64 26 L64 40 59.75 40 Q57.95 39.95 57 39.05 56.05 38.1 56 36.25 L56 29.75 Q56.15 26 60 26 L64 26 M4 40 L4 26 Q7.85 26 8 29.75 L8 36.25 Q7.95 38.1 7 39.05 6.05 39.95 4.25 40 L4 40 M32 34.25 L32 36.25 Q31.85 40 28 40 L16 40 Q12.15 40 12 36.25 L12 34.25 Q12.15 38 16 38 L28 38 Q31.85 38 32 34.25 M36 28 L44 28 46 27.65 Q47.95 26.85 48 24.25 L48 24 48 20.25 Q48.1 23.1 50.35 23.8 L52 24 52 28 Q52 31.9 48.25 32 L39.75 32 Q36 31.9 36 28"/>
    <path stroke="none" fill="#717180" d="M64 4 L64 8 48 8 48 4 64 4 M4 16 L4 12 Q4.05 10.95 4.25 10 L4.85 8 Q5.85 5.8 8 4.85 9.65 4.05 12 4 L16 4 16 8 12 8 Q9.6 8.1 7.95 8.85 5.85 9.85 4.85 11.95 4.1 13.6 4 16 M20 4 L44 4 44 8 20 8 20 4"/>
    <path stroke="none" fill="#CFD5DA" d="M64 40 L64 42 59.75 42 Q56.5 41.9 56.1 39 L56 38 56 36.25 Q56.05 38.1 57 39.05 57.95 39.95 59.75 40 L64 40 M4.25 42 L4 40 4.25 40 Q6.05 39.95 7 39.05 7.95 38.1 8 36.25 L8 38 7.95 39 Q7.5 41.9 4.25 42 M32 28 L32 34.25 Q31.85 38 28 38 L16 38 Q12.15 38 12 34.25 L12 24 13.1 23.9 Q15.85 23.4 16 20.25 L16 24 16 24.25 Q16.1 26.85 18 27.65 L19.6 28 20 28 32 28"/>
  </g>
</svg>