<svg width="64" height="64" xmlns="http://www.w3.org/2000/svg" xmlns:xlink="http://www.w3.org/1999/xlink">
  <defs/>
  <g>
    <path stroke="none" fill="#353541" d="M64 60 L64 64 54.35 64 54.2 64 Q38.25 63.55 27.1 60 17.7 57.05 11.7 51.9 L11.65 51.9 Q8.75 49.4 6.55 46.5 5.1 44.6 4 42.55 L2.15 38.45 2.1 38.4 1 34.45 Q0.1 30.5 0 26.1 L0 26 0 12 0 11.85 Q0.15 8.65 1.1 6.45 L1.15 6.3 Q3.75 0.2 11.9 0 L12 0 64 0 64 4 12 4 Q6.6 4.15 4.8 8 4.1 9.65 4 12 L4 16 4 18.15 4 22.15 4 26 4.3 30.2 4.9 33.55 5.1 34.3 5.9 37.05 Q8.45 43.95 14.25 48.8 L14.55 49.05 Q27.1 59.2 54.35 60 L64 60"/>
    <path stroke="none" fill="#F3C7A5" d="M4 18.15 L4 16 Q4.1 13.65 4.8 12 6.6 8.15 12 8 L64 8 64 18 Q59.4 17.9 54.95 19.05 51.4 20 47.9 21.8 44.9 23.35 42 24.3 36.9 26 32 26 24.3 26 16.1 21.8 12.6 20 9.05 19.05 L4 18.15 M49.15 13.45 Q48.7 13 47.95 13 47.3 13 46.8 13.5 L46 14.35 Q45.5 14.8 45.5 15.45 45.5 16.2 46 16.65 L46.8 17.5 Q47.3 18 48 18 48.7 18 49.15 17.5 L50 16.7 Q50.5 16.2 50.5 15.5 50.5 14.8 50 14.3 L49.15 13.45"/>
    <path stroke="none" fill="#E7B187" d="M49.15 13.45 L50 14.3 Q50.5 14.8 50.5 15.5 50.5 16.2 50 16.7 L49.15 17.5 Q48.7 18 48 18 47.3 18 46.8 17.5 L46 16.65 Q45.5 16.2 45.5 15.45 45.5 14.8 46 14.35 L46.8 13.5 Q47.3 13 47.95 13 48.7 13 49.15 13.45 M4 22.15 L4 18.15 9.05 19.05 Q12.6 20 16.1 21.8 24.3 26 32 26 36.9 26 42 24.3 44.9 23.35 47.9 21.8 51.4 20 54.95 19.05 59.4 17.9 64 18 L64 22 Q59.4 21.9 54.95 23.05 51.4 24 47.9 25.8 44.9 27.35 42 28.3 36.9 30 32 30 24.3 30 16.1 25.8 12.6 24 9.05 23.05 L4 22.15"/>
    <path stroke="none" fill="#DE7E4F" d="M4 22.15 L9.05 23.05 Q12.6 24 16.1 25.8 24.3 30 32 30 36.9 30 42 28.3 44.9 27.35 47.9 25.8 51.4 24 54.95 23.05 59.4 21.9 64 22 L64 30 Q59.4 29.9 54.95 31.05 51.4 32 47.9 33.8 44.9 35.35 42 36.3 36.9 38 32 38 24.3 38 16.1 33.8 12.6 32 9.05 31.05 6.7 30.45 4.3 30.2 L4 26 4 22.15 M64 60 L54.35 60 Q27.1 59.2 14.55 49.05 L16.1 49.8 Q24.3 54 32 54 36.9 54 42 52.3 44.9 51.35 47.9 49.8 51.4 48 54.95 47.05 59.4 45.9 64 46 L64 60 M58.35 37.75 L59.2 38.6 Q59.7 39.1 59.7 39.8 59.7 40.5 59.2 41 L58.35 41.8 Q57.9 42.3 57.2 42.3 56.5 42.3 56 41.8 L55.2 40.95 Q54.7 40.5 54.7 39.75 54.7 39.1 55.2 38.65 L56 37.8 Q56.5 37.3 57.15 37.3 57.9 37.3 58.35 37.75 M54.9 51.95 Q54.45 51.5 53.7 51.5 53.05 51.5 52.55 52 L51.75 52.85 Q51.25 53.3 51.25 53.95 51.25 54.7 51.75 55.15 L52.55 56 Q53.05 56.5 53.75 56.5 54.45 56.5 54.9 56 L55.75 55.2 Q56.25 54.7 56.25 54 56.25 53.3 55.75 52.8 L54.9 51.95"/>
    <path stroke="none" fill="#C66A3E" d="M54.9 51.95 L55.75 52.8 Q56.25 53.3 56.25 54 56.25 54.7 55.75 55.2 L54.9 56 Q54.45 56.5 53.75 56.5 53.05 56.5 52.55 56 L51.75 55.15 Q51.25 54.7 51.25 53.95 51.25 53.3 51.75 52.85 L52.55 52 Q53.05 51.5 53.7 51.5 54.45 51.5 54.9 51.95 M5.1 34.3 L4.9 33.55 4.3 30.2 Q6.7 30.45 9.05 31.05 12.6 32 16.1 33.8 24.3 38 32 38 36.9 38 42 36.3 44.9 35.35 47.9 33.8 51.4 32 54.95 31.05 59.4 29.9 64 30 L64 34 Q59.4 33.9 54.95 35.05 51.4 36 47.9 37.8 44.9 39.35 42 40.3 36.9 42 32 42 24.3 42 16.1 37.8 12.6 36 9.05 35.05 L5.1 34.3"/>
    <path stroke="none" fill="#FFE0C2" d="M4 16 L4 12 Q4.1 9.65 4.8 8 6.6 4.15 12 4 L64 4 64 8 12 8 Q6.6 8.15 4.8 12 4.1 13.65 4 16"/>
    <path stroke="none" fill="#EE9366" d="M14.55 49.05 L14.25 48.8 Q8.45 43.95 5.9 37.05 L5.1 34.3 9.05 35.05 Q12.6 36 16.1 37.8 24.3 42 32 42 36.9 42 42 40.3 44.9 39.35 47.9 37.8 51.4 36 54.95 35.05 59.4 33.9 64 34 L64 46 Q59.4 45.9 54.95 47.05 51.4 48 47.9 49.8 44.9 51.35 42 52.3 36.9 54 32 54 24.3 54 16.1 49.8 L14.55 49.05 M58.35 37.75 Q57.9 37.3 57.15 37.3 56.5 37.3 56 37.8 L55.2 38.65 Q54.7 39.1 54.7 39.75 54.7 40.5 55.2 40.95 L56 41.8 Q56.5 42.3 57.2 42.3 57.9 42.3 58.35 41.8 L59.2 41 Q59.7 40.5 59.7 39.8 59.7 39.1 59.2 38.6 L58.35 37.75"/>
  </g>
</svg>