<svg width="64" height="64" xmlns="http://www.w3.org/2000/svg" xmlns:xlink="http://www.w3.org/1999/xlink">
  <defs/>
  <g>
    <path stroke="none" fill="#DE7E4F" d="M60 0 L60 6.15 54.95 7.05 Q51.4 8 47.9 9.8 44.9 11.35 42 12.3 36.9 14 32 14 24.3 14 16.1 9.8 12.6 8 9.05 7.05 L4 6.15 4 0 60 0 M60 22.15 L60 29.15 54.95 30.05 Q51.4 31 47.9 32.8 44.9 34.35 42 35.3 36.9 37 32 37 24.3 37 16.1 32.8 12.6 31 9.05 30.05 L4 29.15 4 22.15 9.05 23.05 Q12.6 24 16.1 25.8 24.3 30 32 30 36.9 30 42 28.3 44.9 27.35 47.9 25.8 51.4 24 54.95 23.05 L60 22.15 M60 51.15 L60 64 4 64 4 51.15 9.05 52.05 Q12.6 53 16.1 54.8 24.3 59 32 59 36.9 59 42 57.3 44.9 56.35 47.9 54.8 51.4 53 54.95 52.05 L60 51.15 M51.65 12.95 L52.5 13.8 Q53 14.3 53 15 53 15.7 52.5 16.2 L51.65 17 Q51.2 17.5 50.5 17.5 49.8 17.5 49.3 17 L48.5 16.15 Q48 15.7 48 14.95 48 14.3 48.5 13.85 L49.3 13 Q49.8 12.5 50.45 12.5 51.2 12.5 51.65 12.95 M27.15 4.75 Q26.7 4.3 25.95 4.3 25.3 4.3 24.8 4.8 L24 5.65 Q23.5 6.1 23.5 6.75 23.5 7.5 24 7.95 L24.8 8.8 Q25.3 9.3 26 9.3 26.7 9.3 27.15 8.8 L28 8 Q28.5 7.5 28.5 6.8 28.5 6.1 28 5.6 L27.15 4.75 M11.65 40.45 L12.5 41.3 Q13 41.8 13 42.5 13 43.2 12.5 43.7 L11.65 44.5 Q11.2 45 10.5 45 9.8 45 9.3 44.5 L8.5 43.65 Q8 43.2 8 42.45 8 41.8 8.5 41.35 L9.3 40.5 Q9.8 40 10.45 40 11.2 40 11.65 40.45 M18.3 46.15 L19.15 47 Q19.65 47.5 19.65 48.2 19.65 48.9 19.15 49.4 L18.3 50.2 Q17.85 50.7 17.15 50.7 16.45 50.7 15.95 50.2 L15.15 49.35 Q14.65 48.9 14.65 48.15 14.65 47.5 15.15 47.05 L15.95 46.2 Q16.45 45.7 17.1 45.7 17.85 45.7 18.3 46.15"/>
    <path stroke="none" fill="#353541" d="M60 6.15 L60 0 64 0 64 64 60 64 60 51.15 60 33.15 60 29.15 60 22.15 60 18.15 60 6.15 M4 0 L4 6.15 4 18.15 4 22.15 4 29.15 4 33.15 4 51.15 4 64 0 64 0 0 4 0"/>
    <path stroke="none" fill="#C66A3E" d="M4 6.15 L9.05 7.05 Q12.6 8 16.1 9.8 24.3 14 32 14 36.9 14 42 12.3 44.9 11.35 47.9 9.8 51.4 8 54.95 7.05 L60 6.15 60 18.15 54.95 19.05 Q51.4 20 47.9 21.8 44.9 23.35 42 24.3 36.9 26 32 26 24.3 26 16.1 21.8 12.6 20 9.05 19.05 L4 18.15 4 6.15 M60 29.15 L60 33.15 54.95 34.05 Q51.4 35 47.9 36.8 44.9 38.35 42 39.3 36.9 41 32 41 24.3 41 16.1 36.8 12.6 35 9.05 34.05 L4 33.15 4 29.15 9.05 30.05 Q12.6 31 16.1 32.8 24.3 37 32 37 36.9 37 42 35.3 44.9 34.35 47.9 32.8 51.4 31 54.95 30.05 L60 29.15 M51.65 12.95 Q51.2 12.5 50.45 12.5 49.8 12.5 49.3 13 L48.5 13.85 Q48 14.3 48 14.95 48 15.7 48.5 16.15 L49.3 17 Q49.8 17.5 50.5 17.5 51.2 17.5 51.65 17 L52.5 16.2 Q53 15.7 53 15 53 14.3 52.5 13.8 L51.65 12.95 M27.15 4.75 L28 5.6 Q28.5 6.1 28.5 6.8 28.5 7.5 28 8 L27.15 8.8 Q26.7 9.3 26 9.3 25.3 9.3 24.8 8.8 L24 7.95 Q23.5 7.5 23.5 6.75 23.5 6.1 24 5.65 L24.8 4.8 Q25.3 4.3 25.95 4.3 26.7 4.3 27.15 4.75"/>
    <path stroke="none" fill="#EE9366" d="M60 18.15 L60 22.15 54.95 23.05 Q51.4 24 47.9 25.8 44.9 27.35 42 28.3 36.9 30 32 30 24.3 30 16.1 25.8 12.6 24 9.05 23.05 L4 22.15 4 18.15 9.05 19.05 Q12.6 20 16.1 21.8 24.3 26 32 26 36.9 26 42 24.3 44.9 23.35 47.9 21.8 51.4 20 54.95 19.05 L60 18.15 M60 33.15 L60 51.15 54.95 52.05 Q51.4 53 47.9 54.8 44.9 56.35 42 57.3 36.9 59 32 59 24.3 59 16.1 54.8 12.6 53 9.05 52.05 L4 51.15 4 33.15 9.05 34.05 Q12.6 35 16.1 36.8 24.3 41 32 41 36.9 41 42 39.3 44.9 38.35 47.9 36.8 51.4 35 54.95 34.05 L60 33.15 M18.3 46.15 Q17.85 45.7 17.1 45.7 16.45 45.7 15.95 46.2 L15.15 47.05 Q14.65 47.5 14.65 48.15 14.65 48.9 15.15 49.35 L15.95 50.2 Q16.45 50.7 17.15 50.7 17.85 50.7 18.3 50.2 L19.15 49.4 Q19.65 48.9 19.65 48.2 19.65 47.5 19.15 47 L18.3 46.15 M11.65 40.45 Q11.2 40 10.45 40 9.8 40 9.3 40.5 L8.5 41.35 Q8 41.8 8 42.45 8 43.2 8.5 43.65 L9.3 44.5 Q9.8 45 10.5 45 11.2 45 11.65 44.5 L12.5 43.7 Q13 43.2 13 42.5 13 41.8 12.5 41.3 L11.65 40.45"/>
  </g>
</svg>