<svg width="64" height="64" xmlns="http://www.w3.org/2000/svg" xmlns:xlink="http://www.w3.org/1999/xlink">
  <defs/>
  <g>
    <path stroke="none" fill="#353541" d="M60 6.15 L60 0 64 0 64 52.15 63.8 54.5 Q62.35 63.65 52.15 64 L12 64 11.85 64 Q1.65 63.65 0.2 54.5 L0 52.15 0 0 4 0 4 6.15 4 18.15 4 22.15 4 29.15 4 33.15 4 46.15 4 52 4.15 53.8 Q5.2 59.8 12 60 L52 60 Q58.8 59.8 59.85 53.8 L60 52 60 46.15 60 33.15 60 29.15 60 22.15 60 18.15 60 6.15"/>
    <path stroke="none" fill="#DE7E4F" d="M60 6.15 L54.95 7.05 Q51.4 8 47.9 9.8 44.9 11.35 42 12.3 36.9 14 32 14 24.3 14 16.1 9.8 12.6 8 9.05 7.05 L4 6.15 4 0 60 0 60 6.15 M60 22.15 L60 29.15 54.95 30.05 Q51.4 31 47.9 32.8 44.9 34.35 42 35.3 36.9 37 32 37 24.3 37 16.1 32.8 12.6 31 9.05 30.05 L4 29.15 4 22.15 9.05 23.05 Q12.6 24 16.1 25.8 24.3 30 32 30 36.9 30 42 28.3 44.9 27.35 47.9 25.8 51.4 24 54.95 23.05 L60 22.15 M60 46.15 L60 52 59.85 53.8 Q58.8 59.8 52 60 L12 60 Q5.2 59.8 4.15 53.8 L4 52 4 46.15 9.05 47.05 Q12.6 48 16.1 49.8 24.3 54 32 54 36.9 54 42 52.3 44.9 51.35 47.9 49.8 51.4 48 54.95 47.05 L60 46.15 M44.4 3.95 Q43.95 3.5 43.2 3.5 42.55 3.5 42.05 4 L41.25 4.85 Q40.75 5.3 40.75 5.95 40.75 6.7 41.25 7.15 L42.05 8 Q42.55 8.5 43.25 8.5 43.95 8.5 44.4 8 L45.25 7.2 Q45.75 6.7 45.75 6 45.75 5.3 45.25 4.8 L44.4 3.95 M36.9 6.45 Q36.45 6 35.7 6 35.05 6 34.55 6.5 L33.75 7.35 Q33.25 7.8 33.25 8.45 33.25 9.2 33.75 9.65 L34.55 10.5 Q35.05 11 35.75 11 36.45 11 36.9 10.5 L37.75 9.7 Q38.25 9.2 38.25 8.5 38.25 7.8 37.75 7.3 L36.9 6.45 M12.5 37.55 L13.85 38.9 Q14.65 39.7 14.65 40.8 14.65 41.9 13.85 42.7 L12.5 44.05 Q11.8 44.75 10.7 44.75 9.6 44.75 8.8 43.95 L7.45 42.6 Q6.7 41.9 6.65 40.75 6.7 39.7 7.45 38.95 L8.8 37.6 Q9.6 36.8 10.6 36.75 11.8 36.8 12.5 37.55 M23.3 44.45 L24.15 45.3 Q24.65 45.8 24.65 46.5 24.65 47.2 24.15 47.7 L23.3 48.5 22.15 49 Q21.45 49 20.95 48.5 L20.15 47.65 Q19.65 47.2 19.65 46.45 19.65 45.8 20.15 45.35 L20.95 44.5 Q21.45 44 22.1 44 22.85 44 23.3 44.45"/>
    <path stroke="none" fill="#C66A3E" d="M60 6.15 L60 18.15 54.95 19.05 Q51.4 20 47.9 21.8 44.9 23.35 42 24.3 36.9 26 32 26 24.3 26 16.1 21.8 12.6 20 9.05 19.05 L4 18.15 4 6.15 9.05 7.05 Q12.6 8 16.1 9.8 24.3 14 32 14 36.9 14 42 12.3 44.9 11.35 47.9 9.8 51.4 8 54.95 7.05 L60 6.15 M60 29.15 L60 33.15 54.95 34.05 Q51.4 35 47.9 36.8 44.9 38.35 42 39.3 36.9 41 32 41 24.3 41 16.1 36.8 12.6 35 9.05 34.05 L4 33.15 4 29.15 9.05 30.05 Q12.6 31 16.1 32.8 24.3 37 32 37 36.9 37 42 35.3 44.9 34.35 47.9 32.8 51.4 31 54.95 30.05 L60 29.15 M36.9 6.45 L37.75 7.3 Q38.25 7.8 38.25 8.5 38.25 9.2 37.75 9.7 L36.9 10.5 Q36.45 11 35.75 11 35.05 11 34.55 10.5 L33.75 9.65 Q33.25 9.2 33.25 8.45 33.25 7.8 33.75 7.35 L34.55 6.5 Q35.05 6 35.7 6 36.45 6 36.9 6.45 M44.4 3.95 L45.25 4.8 Q45.75 5.3 45.75 6 45.75 6.7 45.25 7.2 L44.4 8 Q43.95 8.5 43.25 8.5 42.55 8.5 42.05 8 L41.25 7.15 Q40.75 6.7 40.75 5.95 40.75 5.3 41.25 4.85 L42.05 4 Q42.55 3.5 43.2 3.5 43.95 3.5 44.4 3.95"/>
    <path stroke="none" fill="#EE9366" d="M60 18.15 L60 22.15 54.95 23.05 Q51.4 24 47.9 25.8 44.9 27.35 42 28.3 36.9 30 32 30 24.3 30 16.1 25.8 12.6 24 9.05 23.05 L4 22.15 4 18.15 9.05 19.05 Q12.6 20 16.1 21.8 24.3 26 32 26 36.9 26 42 24.3 44.9 23.35 47.9 21.8 51.4 20 54.95 19.05 L60 18.15 M60 33.15 L60 46.15 54.95 47.05 Q51.4 48 47.9 49.8 44.9 51.35 42 52.3 36.9 54 32 54 24.3 54 16.1 49.8 12.6 48 9.05 47.05 L4 46.15 4 33.15 9.05 34.05 Q12.6 35 16.1 36.8 24.3 41 32 41 36.9 41 42 39.3 44.9 38.35 47.9 36.8 51.4 35 54.95 34.05 L60 33.15 M23.3 44.45 Q22.85 44 22.1 44 21.45 44 20.95 44.5 L20.15 45.35 Q19.65 45.8 19.65 46.45 19.65 47.2 20.15 47.65 L20.95 48.5 Q21.45 49 22.15 49 L23.3 48.5 24.15 47.7 Q24.65 47.2 24.65 46.5 24.65 45.8 24.15 45.3 L23.3 44.45 M12.5 37.55 Q11.8 36.8 10.6 36.75 9.6 36.8 8.8 37.6 L7.45 38.95 Q6.7 39.7 6.65 40.75 6.7 41.9 7.45 42.6 L8.8 43.95 Q9.6 44.75 10.7 44.75 11.8 44.75 12.5 44.05 L13.85 42.7 Q14.65 41.9 14.65 40.8 14.65 39.7 13.85 38.9 L12.5 37.55"/>
  </g>
</svg>