<svg width="64" height="64" xmlns="http://www.w3.org/2000/svg" xmlns:xlink="http://www.w3.org/1999/xlink">
  <defs/>
  <g>
    <path stroke="none" fill="#353541" d="M52 0 L52.15 0 Q60.3 0.25 62.8 6.35 L62.85 6.35 63.45 8 Q63.95 9.75 64 11.9 L64 52 64 52.15 63.8 54.5 Q62.35 63.65 52.15 64 L52 64 12 64 11.85 64 Q1.65 63.65 0.2 54.5 L0 52.15 0 52 0 12 0 11.9 Q0.05 9.75 0.55 8 L1.15 6.35 1.2 6.35 Q3.7 0.25 11.85 0 L12 0 52 0 M60 22.15 L60 18.15 60 16 60 12 Q59.9 9.65 59.2 8 57.4 4.15 52 4 L12 4 Q6.6 4.15 4.8 8 4.1 9.65 4 12 L4 16 4 18.15 4 22.15 4 30.15 4 34.15 4 46.15 4 52 4.15 53.8 Q5.2 59.8 12 60 L52 60 Q58.8 59.8 59.85 53.8 L60 52 60 46.15 60 34.15 60 30.15 60 22.15"/>
    <path stroke="none" fill="#F3C7A5" d="M40.15 14.95 Q39.7 14.5 38.95 14.5 38.3 14.5 37.8 15 L37 15.85 Q36.5 16.3 36.5 16.95 36.5 17.7 37 18.15 L37.8 19 Q38.3 19.5 39 19.5 39.7 19.5 40.15 19 L41 18.2 Q41.5 17.7 41.5 17 41.5 16.3 41 15.8 L40.15 14.95 M47.65 12.45 Q47.2 12 46.45 12 45.8 12 45.3 12.5 L44.5 13.35 Q44 13.8 44 14.45 44 15.2 44.5 15.65 L45.3 16.5 Q45.8 17 46.5 17 47.2 17 47.65 16.5 L48.5 15.7 Q49 15.2 49 14.5 49 13.8 48.5 13.3 L47.65 12.45 M60 18.15 L54.95 19.05 Q51.4 20 47.9 21.8 44.9 23.35 42 24.3 36.9 26 32 26 24.3 26 16.1 21.8 12.6 20 9.05 19.05 L4 18.15 4 16 Q4.1 13.65 4.8 12 6.6 8.15 12 8 L52 8 Q57.4 8.15 59.2 12 59.9 13.65 60 16 L60 18.15"/>
    <path stroke="none" fill="#E7B187" d="M60 18.15 L60 22.15 54.95 23.05 Q51.4 24 47.9 25.8 44.9 27.35 42 28.3 36.9 30 32 30 24.3 30 16.1 25.8 12.6 24 9.05 23.05 L4 22.15 4 18.15 9.05 19.05 Q12.6 20 16.1 21.8 24.3 26 32 26 36.9 26 42 24.3 44.9 23.35 47.9 21.8 51.4 20 54.95 19.05 L60 18.15 M47.65 12.45 L48.5 13.3 Q49 13.8 49 14.5 49 15.2 48.5 15.7 L47.65 16.5 Q47.2 17 46.5 17 45.8 17 45.3 16.5 L44.5 15.65 Q44 15.2 44 14.45 44 13.8 44.5 13.35 L45.3 12.5 Q45.8 12 46.45 12 47.2 12 47.65 12.45 M40.15 14.95 L41 15.8 Q41.5 16.3 41.5 17 41.5 17.7 41 18.2 L40.15 19 Q39.7 19.5 39 19.5 38.3 19.5 37.8 19 L37 18.15 Q36.5 17.7 36.5 16.95 36.5 16.3 37 15.85 L37.8 15 Q38.3 14.5 38.95 14.5 39.7 14.5 40.15 14.95"/>
    <path stroke="none" fill="#DE7E4F" d="M4 22.15 L9.05 23.05 Q12.6 24 16.1 25.8 24.3 30 32 30 36.9 30 42 28.3 44.9 27.35 47.9 25.8 51.4 24 54.95 23.05 L60 22.15 60 30.15 54.95 31.05 Q51.4 32 47.9 33.8 44.9 35.35 42 36.3 36.9 38 32 38 24.3 38 16.1 33.8 12.6 32 9.05 31.05 L4 30.15 4 22.15 M53.15 40.4 L54 41.25 Q54.5 41.75 54.5 42.45 54.5 43.15 54 43.65 L53.15 44.45 Q52.7 44.95 52 44.95 51.3 44.95 50.8 44.45 L50 43.6 Q49.5 43.15 49.5 42.4 49.5 41.75 50 41.3 L50.8 40.45 Q51.3 39.95 51.95 39.95 52.7 39.95 53.15 40.4 M4 46.15 L9.05 47.05 Q12.6 48 16.1 49.8 24.3 54 32 54 36.9 54 42 52.3 44.9 51.35 47.9 49.8 51.4 48 54.95 47.05 L60 46.15 60 52 59.85 53.8 Q58.8 59.8 52 60 L12 60 Q5.2 59.8 4.15 53.8 L4 52 4 46.15 M12 51.95 Q11.55 51.5 10.8 51.5 10.15 51.5 9.65 52 L8.85 52.85 Q8.35 53.3 8.35 53.95 8.35 54.7 8.85 55.15 L9.65 56 Q10.15 56.5 10.85 56.5 11.55 56.5 12 56 L12.85 55.2 Q13.35 54.7 13.35 54 13.35 53.3 12.85 52.8 L12 51.95"/>
    <path stroke="none" fill="#FFE0C2" d="M4 16 L4 12 Q4.1 9.65 4.8 8 6.6 4.15 12 4 L52 4 Q57.4 4.15 59.2 8 59.9 9.65 60 12 L60 16 Q59.9 13.65 59.2 12 57.4 8.15 52 8 L12 8 Q6.6 8.15 4.8 12 4.1 13.65 4 16"/>
    <path stroke="none" fill="#C66A3E" d="M4 30.15 L9.05 31.05 Q12.6 32 16.1 33.8 24.3 38 32 38 36.9 38 42 36.3 44.9 35.35 47.9 33.8 51.4 32 54.95 31.05 L60 30.15 60 34.15 54.95 35.05 Q51.4 36 47.9 37.8 44.9 39.35 42 40.3 36.9 42 32 42 24.3 42 16.1 37.8 12.6 36 9.05 35.05 L4 34.15 4 30.15 M12 51.95 L12.85 52.8 Q13.35 53.3 13.35 54 13.35 54.7 12.85 55.2 L12 56 Q11.55 56.5 10.85 56.5 10.15 56.5 9.65 56 L8.85 55.15 Q8.35 54.7 8.35 53.95 8.35 53.3 8.85 52.85 L9.65 52 Q10.15 51.5 10.8 51.5 11.55 51.5 12 51.95"/>
    <path stroke="none" fill="#EE9366" d="M4 34.15 L9.05 35.05 Q12.6 36 16.1 37.8 24.3 42 32 42 36.9 42 42 40.3 44.9 39.35 47.9 37.8 51.4 36 54.95 35.05 L60 34.15 60 46.15 54.95 47.05 Q51.4 48 47.9 49.8 44.9 51.35 42 52.3 36.9 54 32 54 24.3 54 16.1 49.8 12.6 48 9.05 47.05 L4 46.15 4 34.15 M53.15 40.4 Q52.7 39.95 51.95 39.95 51.3 39.95 50.8 40.45 L50 41.3 Q49.5 41.75 49.5 42.4 49.5 43.15 50 43.6 L50.8 44.45 Q51.3 44.95 52 44.95 52.7 44.95 53.15 44.45 L54 43.65 Q54.5 43.15 54.5 42.45 54.5 41.75 54 41.25 L53.15 40.4"/>
  </g>
</svg>