<svg width="64" height="64" xmlns="http://www.w3.org/2000/svg" xmlns:xlink="http://www.w3.org/1999/xlink">
  <defs/>
  <g>
    <path stroke="none" fill="#353541" d="M0 4 L0 0 52 0 52.1 0 Q60.3 0.25 62.8 6.35 63.85 8.6 64 11.85 L64 12 64 36 64 36.15 Q64 42.4 57.2 44.6 L56.85 44.7 55.95 44.95 Q52.8 45.75 49.7 47.35 40.6 52.05 32 52 26.45 52 20.7 50.1 L20.75 50.1 Q17.55 49.05 14.25 47.35 11.15 45.75 8 44.95 L8.05 44.95 Q4.15 43.9 0.05 44 L0 44 0 40 Q4.6 39.9 9.05 41.05 12.6 42 16.1 43.8 19.1 45.35 22 46.3 27.1 48 32 48 39.7 48 47.9 43.8 51.4 42 54.95 41.05 L56 40.8 Q59.9 39.55 60 36 L60 30.15 60 26.15 60 22.15 60 18.15 60 16 60 12 Q59.9 9.65 59.15 8 57.4 4.15 52 4 L0 4"/>
    <path stroke="none" fill="#E5F0FF" d="M60 16 L60 18.15 54.95 19.05 Q51.4 20 47.9 21.8 39.7 26 32 26 27.1 26 22 24.3 19.1 23.35 16.1 21.8 12.6 20 9.05 19.05 4.6 17.9 0 18 L0 8 52 8 Q57.4 8.15 59.15 12 59.9 13.65 60 16 M32.65 12.45 Q32.2 12 31.45 12 30.8 12 30.3 12.5 L29.5 13.35 Q29 13.8 29 14.45 29 15.2 29.5 15.65 L30.3 16.5 Q30.8 17 31.5 17 32.2 17 32.65 16.5 L33.5 15.7 Q34 15.2 34 14.5 34 13.8 33.5 13.3 L32.65 12.45 M41.9 14.7 Q41.45 14.25 40.7 14.25 40.05 14.25 39.55 14.75 L38.75 15.6 Q38.25 16.05 38.25 16.7 38.25 17.45 38.75 17.9 L39.55 18.75 Q40.05 19.25 40.75 19.25 41.45 19.25 41.9 18.75 L42.75 17.95 Q43.25 17.45 43.25 16.75 43.25 16.05 42.75 15.55 L41.9 14.7"/>
    <path stroke="none" fill="#C8DBF5" d="M41.9 14.7 L42.75 15.55 Q43.25 16.05 43.25 16.75 43.25 17.45 42.75 17.95 L41.9 18.75 Q41.45 19.25 40.75 19.25 40.05 19.25 39.55 18.75 L38.75 17.9 Q38.25 17.45 38.25 16.7 38.25 16.05 38.75 15.6 L39.55 14.75 Q40.05 14.25 40.7 14.25 41.45 14.25 41.9 14.7 M60 18.15 L60 22.15 54.95 23.05 Q51.4 24 47.9 25.8 39.7 30 32 30 27.1 30 22 28.3 19.1 27.35 16.1 25.8 12.6 24 9.05 23.05 4.6 21.9 0 22 L0 18 Q4.6 17.9 9.05 19.05 12.6 20 16.1 21.8 19.1 23.35 22 24.3 27.1 26 32 26 39.7 26 47.9 21.8 51.4 20 54.95 19.05 L60 18.15 M32.65 12.45 L33.5 13.3 Q34 13.8 34 14.5 34 15.2 33.5 15.7 L32.65 16.5 Q32.2 17 31.5 17 30.8 17 30.3 16.5 L29.5 15.65 Q29 15.2 29 14.45 29 13.8 29.5 13.35 L30.3 12.5 Q30.8 12 31.45 12 32.2 12 32.65 12.45"/>
    <path stroke="none" fill="#BBC4CB" d="M60 22.15 L60 26.15 54.95 27.05 Q51.4 28 47.9 29.8 39.7 34 32 34 27.1 34 22 32.3 19.1 31.35 16.1 29.8 12.6 28 9.05 27.05 4.6 25.9 0 26 L0 22 Q4.6 21.9 9.05 23.05 12.6 24 16.1 25.8 19.1 27.35 22 28.3 27.1 30 32 30 39.7 30 47.9 25.8 51.4 24 54.95 23.05 L60 22.15"/>
    <path stroke="none" fill="#FFFFFF" d="M0 4 L52 4 Q57.4 4.15 59.15 8 59.9 9.65 60 12 L60 16 Q59.9 13.65 59.15 12 57.4 8.15 52 8 L0 8 0 4"/>
    <path stroke="none" fill="#A6B2BB" d="M60 26.15 L60 30.15 54.95 31.05 Q51.4 32 47.9 33.8 39.7 38 32 38 27.1 38 22 36.3 19.1 35.35 16.1 33.8 12.6 32 9.05 31.05 4.6 29.9 0 30 L0 26 Q4.6 25.9 9.05 27.05 12.6 28 16.1 29.8 19.1 31.35 22 32.3 27.1 34 32 34 39.7 34 47.9 29.8 51.4 28 54.95 27.05 L60 26.15"/>
    <path stroke="none" fill="#CFD5DA" d="M60 30.15 L60 36 Q59.9 39.55 56 40.8 L54.95 41.05 Q51.4 42 47.9 43.8 39.7 48 32 48 27.1 48 22 46.3 19.1 45.35 16.1 43.8 12.6 42 9.05 41.05 4.6 39.9 0 40 L0 30 Q4.6 29.9 9.05 31.05 12.6 32 16.1 33.8 19.1 35.35 22 36.3 27.1 38 32 38 39.7 38 47.9 33.8 51.4 32 54.95 31.05 L60 30.15"/>
    <path stroke="none" fill="#E5F0FF" d="M13.85 29.3 Q12.3 29.3 11 28.1 9.75 26.9 7.7 20 L5.85 13.3 21.85 13.3 20 20 Q17.95 26.9 16.7 28.1 15.4 29.3 13.85 29.3"/>
    <path stroke="none" fill="#E5F0FF" d="M32 38 Q30.45 38 29.15 36.8 27.9 35.6 25.85 28.7 L24 22 40 22 38.15 28.7 Q36.1 35.6 34.85 36.8 33.55 38 32 38"/>
  </g>
</svg>