<svg width="64" height="64" xmlns="http://www.w3.org/2000/svg" xmlns:xlink="http://www.w3.org/1999/xlink">
  <defs/>
  <g>
    <path stroke="none" fill="#A6B2BB" d="M0 10.9 L12.45 4.65 Q14.1 3.8 16 3.8 17.9 3.8 19.6 4.65 L32 10.9 44.45 4.65 Q46.1 3.8 48 3.8 49.9 3.8 51.6 4.65 L64 10.9 64 20.9 Q62.15 20.85 60.45 20 L48 13.8 35.6 20 Q33.9 20.85 32 20.85 30.1 20.85 28.45 20 L16 13.8 3.6 20 Q1.85 20.85 0 20.9 L0 10.9 M0 36 L12.45 29.75 Q14.1 28.9 16 28.9 17.9 28.9 19.6 29.75 L32 36 44.45 29.75 Q46.1 28.9 48 28.9 49.9 28.9 51.6 29.75 L64 36 64 40 51.6 33.75 Q49.9 32.9 48 32.9 46.1 32.9 44.45 33.75 L32 40 19.6 33.75 Q17.9 32.9 16 32.9 14.1 32.9 12.45 33.75 L0 40 0 36"/>
    <path stroke="none" fill="#BBC4CB" d="M0 36 L0 24.9 Q1.85 24.85 3.6 24 L16 17.8 28.45 24 Q30.1 24.85 32 24.85 33.9 24.85 35.6 24 L48 17.8 60.45 24 Q62.15 24.85 64 24.9 L64 36 51.6 29.75 Q49.9 28.9 48 28.9 46.1 28.9 44.45 29.75 L32 36 19.6 29.75 Q17.9 28.9 16 28.9 14.1 28.9 12.45 29.75 L0 36 M64 10.9 L51.6 4.65 Q49.9 3.8 48 3.8 46.1 3.8 44.45 4.65 L32 10.9 19.6 4.65 Q17.9 3.8 16 3.8 14.1 3.8 12.45 4.65 L0 10.9 0 0 64 0 64 10.9 M0 55 Q1.85 54.95 3.6 54.1 L16 47.9 28.45 54.1 Q30.1 54.95 32 54.95 33.9 54.95 35.6 54.1 L48 47.9 60.45 54.1 Q62.15 54.95 64 55 L64 64 0 64 0 55"/>
    <path stroke="none" fill="#CFD5DA" d="M0 55 L0 40 12.45 33.75 Q14.1 32.9 16 32.9 17.9 32.9 19.6 33.75 L32 40 44.45 33.75 Q46.1 32.9 48 32.9 49.9 32.9 51.6 33.75 L64 40 64 55 Q62.15 54.95 60.45 54.1 L48 47.9 35.6 54.1 Q33.9 54.95 32 54.95 30.1 54.95 28.45 54.1 L16 47.9 3.6 54.1 Q1.85 54.95 0 55 M0 20.9 Q1.85 20.85 3.6 20 L16 13.8 28.45 20 Q30.1 20.85 32 20.85 33.9 20.85 35.6 20 L48 13.8 60.45 20 Q62.15 20.85 64 20.9 L64 24.9 Q62.15 24.85 60.45 24 L48 17.8 35.6 24 Q33.9 24.85 32 24.85 30.1 24.85 28.45 24 L16 17.8 3.6 24 Q1.85 24.85 0 24.9 L0 20.9"/>
    <path stroke="none" fill="#353541" d="M64 64 L0 64 0 60 64 60 64 64"/>
    <path stroke="none" fill="#BBC4CB" d="M22.05 39.3 L23.4 40.65 Q24.2 41.45 24.2 42.55 24.2 43.65 23.4 44.45 L22.05 45.8 Q21.35 46.5 20.25 46.5 19.15 46.5 18.35 45.7 L17 44.35 Q16.25 43.65 16.2 42.5 16.25 41.45 17 40.7 L18.35 39.35 Q19.15 38.55 20.15 38.5 21.35 38.55 22.05 39.3"/>
    <path stroke="none" fill="#BBC4CB" d="M30.9 45.6 L31.75 46.45 Q32.25 46.95 32.25 47.65 32.25 48.35 31.75 48.85 L30.9 49.65 Q30.45 50.15 29.75 50.15 29.05 50.15 28.55 49.65 L27.75 48.8 Q27.25 48.35 27.25 47.6 27.25 46.95 27.75 46.5 L28.55 45.65 Q29.05 45.15 29.7 45.15 30.45 45.15 30.9 45.6"/>
    <path stroke="none" fill="#BBC4CB" d="M41.15 10 L42 10.85 Q42.5 11.35 42.5 12.05 42.5 12.75 42 13.25 L41.15 14.05 Q40.7 14.55 40 14.55 39.3 14.55 38.8 14.05 L38 13.2 Q37.5 12.75 37.5 12 37.5 11.35 38 10.9 L38.8 10.05 Q39.3 9.55 39.95 9.55 40.7 9.55 41.15 10"/>
    <path stroke="none" fill="#BBC4CB" d="M9.15 41.95 L10 42.8 Q10.5 43.3 10.5 44 10.5 44.7 10 45.2 L9.15 46 Q8.7 46.5 8 46.5 7.3 46.5 6.8 46 L6 45.15 Q5.5 44.7 5.5 43.95 5.5 43.3 6 42.85 L6.8 42 Q7.3 41.5 7.95 41.5 8.7 41.5 9.15 41.95"/>
  </g>
</svg>