<svg width="64" height="64" xmlns="http://www.w3.org/2000/svg" xmlns:xlink="http://www.w3.org/1999/xlink">
  <defs/>
  <g>
    <path stroke="none" fill="#353541" d="M0 4 L0 0 52 0 52.1 0 Q60.3 0.25 62.8 6.35 63.9 8.65 64 11.9 L64 12 64 36 63.95 36.35 Q63.65 41.85 58.55 46.9 L58.55 46.85 Q53.2 52.25 48 52 44.45 52.05 40.75 49.65 L40.8 49.65 Q39 48.5 37.15 46.6 L34.6 44.6 34.65 44.6 Q33.45 43.95 32.15 44 L31.8 44 Q30.55 43.95 29.25 44.6 L29.35 44.6 Q28.1 45.3 26.8 46.6 21.3 52.25 16 52 12.45 52.05 8.75 49.65 L8.8 49.65 Q7 48.5 5.15 46.6 L2.6 44.6 2.65 44.6 Q1.45 43.95 0.15 44 L0 44 0 40 Q2.3 39.9 4.5 41.05 6.3 42 8.05 43.8 L11 46.3 Q13.55 48 16 48 19.85 48 23.95 43.8 25.7 42 27.45 41.05 29.7 39.9 32 40 34.3 39.9 36.5 41.05 38.3 42 40.05 43.8 41.55 45.35 43 46.3 45.55 48 48 48 51.75 48 55.75 44 59.65 40.2 60 36 L60 30.8 60 26.8 60 22.8 60 18.8 60 16 60 12 Q59.9 9.65 59.15 8 57.4 4.15 52 4 L0 4"/>
    <path stroke="none" fill="#A452D4" d="M60 18.8 L60 22.8 59.45 23.05 Q57.7 24 55.95 25.8 51.85 30 48 30 45.55 30 43 28.3 41.55 27.35 40.05 25.8 38.3 24 36.5 23.05 34.3 21.9 32 22 29.7 21.9 27.45 23.05 25.7 24 23.95 25.8 19.85 30 16 30 13.55 30 11 28.3 L8.05 25.8 Q6.3 24 4.5 23.05 2.3 21.9 0 22 L0 18 Q2.3 17.9 4.5 19.05 6.3 20 8.05 21.8 L11 24.3 Q13.55 26 16 26 19.85 26 23.95 21.8 25.7 20 27.45 19.05 29.7 17.9 32 18 34.3 17.9 36.5 19.05 38.3 20 40.05 21.8 41.55 23.35 43 24.3 45.55 26 48 26 51.85 26 55.95 21.8 57.7 20 59.45 19.05 L60 18.8"/>
    <path stroke="none" fill="#BA6BE9" d="M60 18.8 L59.45 19.05 Q57.7 20 55.95 21.8 51.85 26 48 26 45.55 26 43 24.3 41.55 23.35 40.05 21.8 38.3 20 36.5 19.05 34.3 17.9 32 18 29.7 17.9 27.45 19.05 25.7 20 23.95 21.8 19.85 26 16 26 13.55 26 11 24.3 L8.05 21.8 Q6.3 20 4.5 19.05 2.3 17.9 0 18 L0 8 52 8 Q57.4 8.15 59.15 12 59.9 13.65 60 16 L60 18.8"/>
    <path stroke="none" fill="#BBC4CB" d="M60 22.8 L60 26.8 59.45 27.05 Q57.7 28 55.95 29.8 51.85 34 48 34 45.55 34 43 32.3 41.55 31.35 40.05 29.8 38.3 28 36.5 27.05 34.3 25.9 32 26 29.7 25.9 27.45 27.05 25.7 28 23.95 29.8 19.85 34 16 34 13.55 34 11 32.3 L8.05 29.8 Q6.3 28 4.5 27.05 2.3 25.9 0 26 L0 22 Q2.3 21.9 4.5 23.05 6.3 24 8.05 25.8 L11 28.3 Q13.55 30 16 30 19.85 30 23.95 25.8 25.7 24 27.45 23.05 29.7 21.9 32 22 34.3 21.9 36.5 23.05 38.3 24 40.05 25.8 41.55 27.35 43 28.3 45.55 30 48 30 51.85 30 55.95 25.8 57.7 24 59.45 23.05 L60 22.8"/>
    <path stroke="none" fill="#A6B2BB" d="M60 26.8 L60 30.8 59.45 31.05 Q57.7 32 55.95 33.8 51.85 38 48 38 45.55 38 43 36.3 41.55 35.35 40.05 33.8 38.3 32 36.5 31.05 34.3 29.9 32 30 29.7 29.9 27.45 31.05 25.7 32 23.95 33.8 19.85 38 16 38 13.55 38 11 36.3 L8.05 33.8 Q6.3 32 4.5 31.05 2.3 29.9 0 30 L0 26 Q2.3 25.9 4.5 27.05 6.3 28 8.05 29.8 L11 32.3 Q13.55 34 16 34 19.85 34 23.95 29.8 25.7 28 27.45 27.05 29.7 25.9 32 26 34.3 25.9 36.5 27.05 38.3 28 40.05 29.8 41.55 31.35 43 32.3 45.55 34 48 34 51.85 34 55.95 29.8 57.7 28 59.45 27.05 L60 26.8"/>
    <path stroke="none" fill="#CFD5DA" d="M60 30.8 L60 36 Q59.65 40.2 55.75 44 51.75 48 48 48 45.55 48 43 46.3 41.55 45.35 40.05 43.8 38.3 42 36.5 41.05 34.3 39.9 32 40 29.7 39.9 27.45 41.05 25.7 42 23.95 43.8 19.85 48 16 48 13.55 48 11 46.3 L8.05 43.8 Q6.3 42 4.5 41.05 2.3 39.9 0 40 L0 30 Q2.3 29.9 4.5 31.05 6.3 32 8.05 33.8 L11 36.3 Q13.55 38 16 38 19.85 38 23.95 33.8 25.7 32 27.45 31.05 29.7 29.9 32 30 34.3 29.9 36.5 31.05 38.3 32 40.05 33.8 41.55 35.35 43 36.3 45.55 38 48 38 51.85 38 55.95 33.8 57.7 32 59.45 31.05 L60 30.8"/>
    <path stroke="none" fill="#D699FA" d="M0 4 L52 4 Q57.4 4.15 59.15 8 59.9 9.65 60 12 L60 16 Q59.9 13.65 59.15 12 57.4 8.15 52 8 L0 8 0 4"/>
  </g>
</svg>