<svg width="64" height="64" xmlns="http://www.w3.org/2000/svg" xmlns:xlink="http://www.w3.org/1999/xlink">
  <defs/>
  <g>
    <path stroke="none" fill="#424251" d="M44 64 L40 64 28 52 20 44 15 39 5 29 0 24 0 20 44 64"/>
    <path stroke="none" fill="#BBC4CB" d="M40 64 L4.25 64 Q8 63.9 8 60 L8 58.25 8 51.75 Q7.85 48 4 48 L0 48 0 24 5 29 Q4 30 4 32 L4 36.7 4.05 36.7 Q4.35 39.9 7.75 40 L12.25 40 Q14.05 39.95 15 39 L20 44 16 44 Q12 44 12 48 L12 56 Q12 59.9 15.75 60 L24.25 60 Q28 59.9 28 56 L28 52 40 64"/>
    <path stroke="none" fill="#5E5E6D" d="M56 64 L44 64 0 20 0 8 56 64"/>
    <path stroke="none" fill="#717180" d="M56 64 L0 8 0 4 56.8 60.8 57.25 61.25 60 64 56 64"/>
    <path stroke="none" fill="#353541" d="M0 4 L0 0 64 64 60 64 57.25 61.25 56.8 60.8 0 4"/>
    <path stroke="none" fill="#A6B2BB" d="M0 62 L0 48 4 48 Q7.85 48 8 51.75 L8 58.25 Q7.9 61.9 4.25 62 L0 62 M15 39 Q14.05 39.95 12.25 40 L7.75 40 Q4.35 39.9 4.05 36.7 L4 36.7 4 32 Q4 30 5 29 L15 39 M20 44 L28 52 28 56 Q28 59.9 24.25 60 L15.75 60 Q12 59.9 12 56 L12 48 Q12 44 16 44 L20 44"/>
    <path stroke="none" fill="#CFD5DA" d="M4.25 64 L0 64 0 62 4.25 62 Q7.9 61.9 8 58.25 L8 60 Q8 63.9 4.25 64"/>
  </g>
</svg>