<svg width="64" height="64" xmlns="http://www.w3.org/2000/svg" xmlns:xlink="http://www.w3.org/1999/xlink">
  <defs/>
  <g>
    <path stroke="none" fill="#353541" d="M64 60 L64 64 12 64 11.85 64 Q1.65 63.65 0.2 54.5 L0 52.15 0 52 0 12 0 11.9 Q0.1 8.65 1.15 6.35 L1.2 6.35 Q3.7 0.25 11.85 0 L12 0 64 0 64 4 12 4 Q6.6 4.15 4.8 8 4.1 9.65 4 12 L4 16 4 22 4 26 4 34 4 38 4 52 4.15 53.8 Q5.2 59.8 12 60 L64 60"/>
    <path stroke="none" fill="#BBC4CB" d="M64 60 L12 60 Q5.2 59.8 4.15 53.8 L16 47.9 28.4 54.1 Q30.1 54.95 32 54.95 33.9 54.95 35.55 54.1 L48 47.9 60.4 54.1 Q62.15 54.95 64 55 L64 60 M4 34 L4 26 16 20 32 28 48 20 64 28 64 36 51.55 29.75 Q49.9 28.9 48 28.9 46.1 28.9 44.4 29.75 L32 36 19.55 29.75 Q17.9 28.9 16 28.9 14.1 28.9 12.4 29.75 L4 34"/>
    <path stroke="none" fill="#C66A3E" d="M4 26 L4 22 16 16 32 24 48 16 64 24 64 28 48 20 32 28 16 20 4 26"/>
    <path stroke="none" fill="#DE7E4F" d="M4 22 L4 16 Q4.1 13.65 4.8 12 6.6 8.15 12 8 L64 8 64 24 48 16 32 24 16 16 4 22"/>
    <path stroke="none" fill="#A6B2BB" d="M4 38 L4 34 12.4 29.75 Q14.1 28.9 16 28.9 17.9 28.9 19.55 29.75 L32 36 44.4 29.75 Q46.1 28.9 48 28.9 49.9 28.9 51.55 29.75 L64 36 64 40 51.55 33.75 Q49.9 32.9 48 32.9 46.1 32.9 44.4 33.75 L32 40 19.55 33.75 Q17.9 32.9 16 32.9 14.1 32.9 12.4 33.75 L4 38"/>
    <path stroke="none" fill="#EE9366" d="M4 16 L4 12 Q4.1 9.65 4.8 8 6.6 4.15 12 4 L64 4 64 8 12 8 Q6.6 8.15 4.8 12 4.1 13.65 4 16"/>
    <path stroke="none" fill="#CFD5DA" d="M4.15 53.8 L4 52 4 38 12.4 33.75 Q14.1 32.9 16 32.9 17.9 32.9 19.55 33.75 L32 40 44.4 33.75 Q46.1 32.9 48 32.9 49.9 32.9 51.55 33.75 L64 40 64 55 Q62.15 54.95 60.4 54.1 L48 47.9 35.55 54.1 Q33.9 54.95 32 54.95 30.1 54.95 28.4 54.1 L16 47.9 4.15 53.8"/>
    <path stroke="none" fill="#C66A3E" d="M31.9 14.2 L32.75 15.05 Q33.25 15.55 33.25 16.25 33.25 16.95 32.75 17.45 L31.9 18.25 Q31.45 18.75 30.75 18.75 30.05 18.75 29.55 18.25 L28.75 17.4 Q28.25 16.95 28.25 16.2 28.25 15.55 28.75 15.1 L29.55 14.25 Q30.05 13.75 30.7 13.75 31.45 13.75 31.9 14.2"/>
    <path stroke="none" fill="#EE9366" d="M40 11.95 L40.85 12.8 Q41.35 13.3 41.35 14 41.35 14.7 40.85 15.2 L40 16 Q39.55 16.5 38.85 16.5 38.15 16.5 37.65 16 L36.85 15.15 Q36.35 14.7 36.35 13.95 36.35 13.3 36.85 12.85 L37.65 12 Q38.15 11.5 38.8 11.5 39.55 11.5 40 11.95"/>
    <path stroke="none" fill="#BBC4CB" d="M49.15 37.95 L50 38.8 Q50.5 39.3 50.5 40 50.5 40.7 50 41.2 L49.15 42 Q48.7 42.5 48 42.5 47.3 42.5 46.8 42 L46 41.15 Q45.5 40.7 45.5 39.95 45.5 39.3 46 38.85 L46.8 38 Q47.3 37.5 47.95 37.5 48.7 37.5 49.15 37.95"/>
    <path stroke="none" fill="#BBC4CB" d="M43.25 42.6 L44.1 43.45 Q44.6 43.95 44.6 44.65 44.6 45.35 44.1 45.85 L43.25 46.65 Q42.8 47.15 42.1 47.15 41.4 47.15 40.9 46.65 L40.1 45.8 Q39.6 45.35 39.6 44.6 39.6 43.95 40.1 43.5 L40.9 42.65 Q41.4 42.15 42.05 42.15 42.8 42.15 43.25 42.6"/>
  </g>
</svg>