<svg width="64" height="64" xmlns="http://www.w3.org/2000/svg" xmlns:xlink="http://www.w3.org/1999/xlink">
  <defs/>
  <g>
    <path stroke="none" fill="#353541" d="M64 60 L64 64 54.2 64 Q33.35 63.4 20.65 57.55 15.6 55.2 11.85 52 L11.7 51.9 11.65 51.9 Q9.65 50.2 8 48.3 5.65 45.6 4 42.55 L2.8 40 2.15 38.45 2.1 38.4 2 38 1.4 36 1 34.45 Q0.3 31.35 0.1 28 L0 26.45 0 26.1 0 26 0 12 0 11.85 Q0.1 9.7 0.6 8 L1.1 6.45 1.15 6.3 Q1.7 5 2.5 4 5.45 0.15 11.9 0 L12 0 64 0 64 4 48 4 44 4 20 4 16 4 12 4 Q6.6 4.15 4.8 8 L4.8 8.05 Q4.1 9.7 4 12 L4 16 4 20 4 24 4 26 4.1 28 4.6 32.1 4.9 33.55 5.6 36 5.85 36.9 5.9 37.05 6.55 38.65 7.2 40 8 41.45 Q10.4 45.55 14.25 48.8 16.3 50.55 18.8 52 21.25 53.45 24.15 54.65 35.85 59.45 54.35 60 L64 60"/>
    <path stroke="none" fill="#5E5E6D" d="M4 20 L4 16 Q4.1 13.65 4.8 12 5.65 10.25 7.2 9.25 9.1 8.1 12 8 L16 8 16 16.25 Q15.85 19.4 13.1 19.9 L12.35 20 12 20 4 20 M16 4 L20 4 20 8 44 8 44 4 48 4 48 8 44 8 44 24 20 24 20 8 16 8 16 4 M64 8 L64 20 52 20 50.35 19.8 Q48.1 19.1 48 16.25 L48 14 48 12.8 48 8 64 8"/>
    <path stroke="none" fill="#4F4F5D" d="M44 8 L48 8 48 12.8 48 14 48 16.25 47.95 20.9 Q47.7 22.95 46 23.65 L44 24 44 8 M20 24 L19.85 24 18 23.65 Q16.85 23.15 16.35 22 L16 20.25 16 16.25 16 8 20 8 20 24"/>
    <path stroke="none" fill="#BBC4CB" d="M64 60 L54.35 60 Q35.85 59.45 24.15 54.65 21.25 53.45 18.8 52 16.3 50.55 14.25 48.8 10.4 45.55 8 41.45 7.8 39.45 6.55 38.65 L5.9 37.05 5.85 36.9 5.6 36 4.9 33.55 4.6 32.1 4.1 28 4 26 4 24 12 24 13.1 23.9 14 23.65 16 24 16 24.25 Q16.1 26.85 18 27.65 L20 28 36.35 28 Q37.2 29.95 39.9 30 L48.25 30 Q51.9 29.85 52 26.25 L52 24 64 24 64 38 60 38 Q56.15 38 56 41.75 L56 48.25 56 50 Q56 53.9 59.75 54 L64 54 64 60 M52 50.25 L52 39.75 Q51.85 36 48 36 L36 36 Q32.15 36 32 39.75 L32 50.25 32 52.25 Q32.15 56 36 56 L48 56 Q51.85 56 52 52.25 L52 50.25 M15.75 48 L24.25 48 Q26.85 47.95 27.65 46 28 45.2 28 44 L28 36 Q28 32 24 32 L16 32 Q12 32 12 36 L12 44 Q12 45.2 12.35 46 13.15 47.95 15.75 48"/>
    <path stroke="none" fill="#A6B2BB" d="M15.75 48 Q13.15 47.95 12.35 46 12 45.2 12 44 L12 36 Q12 32 16 32 L24 32 Q28 32 28 36 L28 44 Q28 45.2 27.65 46 26.85 47.95 24.25 48 L15.75 48 M8 41.45 L7.2 40 6.55 38.65 Q7.8 39.45 8 41.45 M64 38 L64 52 59.75 52 Q56.1 51.9 56 48.25 L56 41.75 Q56.15 38 60 38 L64 38 M52 24 L52 26.25 Q51.9 29.85 48.25 30 L39.9 30 Q37.2 29.95 36.35 28 L44 28 46 27.65 Q47.95 26.85 48 24.25 L48 24 48 20.25 Q48.1 23.1 50.35 23.8 L52 24 M16 20.25 L16 22 15.65 22 16 20.25 M52 50.25 L52 52.25 Q51.85 56 48 56 L36 56 Q32.15 56 32 52.25 L32 50.25 Q32.15 54 36 54 L48 54 Q51.85 54 52 50.25"/>
    <path stroke="none" fill="#424251" d="M4 24 L4 20 12 20 12.35 20 13.1 19.9 Q15.85 19.4 16 16.25 L16 20.25 16.35 22 Q16.85 23.15 18 23.65 L19.85 24 20 24 44 24 46 23.65 Q47.7 22.95 47.95 20.9 L48 16.25 Q48.1 19.1 50.35 19.8 L52 20 64 20 64 24 52 24 50.35 23.8 Q48.1 23.1 48 20.25 L48 24 48 24.25 Q47.95 26.85 46 27.65 L44 28 36.35 28 20 28 18 27.65 Q16.1 26.85 16 24.25 L16 24 16 22 16 20.25 15.65 22 Q15.15 23.15 14 23.65 L13.1 23.9 12 24 4 24"/>
    <path stroke="none" fill="#717180" d="M4 16 L4 12 Q4.1 9.7 4.8 8.05 L4.8 8 Q6.6 4.15 12 4 L16 4 16 8 12 8 Q9.1 8.1 7.2 9.25 5.65 10.25 4.8 12 4.1 13.65 4 16 M20 4 L44 4 44 8 20 8 20 4 M48 4 L64 4 64 8 48 8 48 4"/>
    <path stroke="none" fill="#CFD5DA" d="M64 52 L64 54 59.75 54 Q56 53.9 56 50 L56 48.25 Q56.1 51.9 59.75 52 L64 52 M16 24 L14 23.65 Q15.15 23.15 15.65 22 L16 22 16 24 M32 50.25 L32 39.75 Q32.15 36 36 36 L48 36 Q51.85 36 52 39.75 L52 50.25 Q51.85 54 48 54 L36 54 Q32.15 54 32 50.25"/>
  </g>
</svg>