<svg width="64" height="64" xmlns="http://www.w3.org/2000/svg" xmlns:xlink="http://www.w3.org/1999/xlink">
  <defs/>
  <g>
    <path stroke="none" fill="#BBC4CB" d="M4 0 L64 0 64 6 Q59.4 5.9 54.95 7.05 51.4 8 47.9 9.8 44.9 11.35 42 12.3 36.9 14 32 14 24.3 14 16.1 9.8 12.6 8 9.05 7.05 L4 6.15 4 0 M64 22 L64 29 Q59.4 28.9 54.95 30.05 51.4 31 47.9 32.8 44.9 34.35 42 35.3 36.9 37 32 37 24.3 37 16.1 32.8 12.6 31 9.05 30.05 L4 29.15 4 22.15 9.05 23.05 Q12.6 24 16.1 25.8 24.3 30 32 30 36.9 30 42 28.3 44.9 27.35 47.9 25.8 51.4 24 54.95 23.05 59.4 21.9 64 22 M64 46 L64 60 12 60 Q5.2 59.8 4.15 53.8 L4 52 4 46.15 9.05 47.05 Q12.6 48 16.1 49.8 24.3 54 32 54 36.9 54 42 52.3 44.9 51.35 47.9 49.8 51.4 48 54.95 47.05 59.4 45.9 64 46 M57.65 11.25 L58.5 12.1 Q59 12.6 59 13.3 59 14 58.5 14.5 L57.65 15.3 Q57.2 15.8 56.5 15.8 55.8 15.8 55.3 15.3 L54.5 14.45 Q54 14 54 13.25 54 12.6 54.5 12.15 L55.3 11.3 Q55.8 10.8 56.45 10.8 57.2 10.8 57.65 11.25 M41.15 44.45 L42 45.3 Q42.5 45.8 42.5 46.5 42.5 47.2 42 47.7 L41.15 48.5 Q40.7 49 40 49 39.3 49 38.8 48.5 L38 47.65 Q37.5 47.2 37.5 46.45 37.5 45.8 38 45.35 L38.8 44.5 Q39.3 44 39.95 44 40.7 44 41.15 44.45 M25.4 5.5 Q24.95 5.05 24.2 5.05 23.55 5.05 23.05 5.55 L22.25 6.4 Q21.75 6.85 21.75 7.5 21.75 8.25 22.25 8.7 L23.05 9.55 Q23.55 10.05 24.25 10.05 24.95 10.05 25.4 9.55 L26.25 8.75 Q26.75 8.25 26.75 7.55 26.75 6.85 26.25 6.35 L25.4 5.5"/>
    <path stroke="none" fill="#A6B2BB" d="M25.4 5.5 L26.25 6.35 Q26.75 6.85 26.75 7.55 26.75 8.25 26.25 8.75 L25.4 9.55 Q24.95 10.05 24.25 10.05 23.55 10.05 23.05 9.55 L22.25 8.7 Q21.75 8.25 21.75 7.5 21.75 6.85 22.25 6.4 L23.05 5.55 Q23.55 5.05 24.2 5.05 24.95 5.05 25.4 5.5 M64 6 L64 18 Q59.4 17.9 54.95 19.05 51.4 20 47.9 21.8 44.9 23.35 42 24.3 36.9 26 32 26 24.3 26 16.1 21.8 12.6 20 9.05 19.05 L4 18.15 4 6.15 9.05 7.05 Q12.6 8 16.1 9.8 24.3 14 32 14 36.9 14 42 12.3 44.9 11.35 47.9 9.8 51.4 8 54.95 7.05 59.4 5.9 64 6 M64 29 L64 33 Q59.4 32.9 54.95 34.05 51.4 35 47.9 36.8 44.9 38.35 42 39.3 36.9 41 32 41 24.3 41 16.1 36.8 12.6 35 9.05 34.05 L4 33.15 4 29.15 9.05 30.05 Q12.6 31 16.1 32.8 24.3 37 32 37 36.9 37 42 35.3 44.9 34.35 47.9 32.8 51.4 31 54.95 30.05 59.4 28.9 64 29 M57.65 11.25 Q57.2 10.8 56.45 10.8 55.8 10.8 55.3 11.3 L54.5 12.15 Q54 12.6 54 13.25 54 14 54.5 14.45 L55.3 15.3 Q55.8 15.8 56.5 15.8 57.2 15.8 57.65 15.3 L58.5 14.5 Q59 14 59 13.3 59 12.6 58.5 12.1 L57.65 11.25"/>
    <path stroke="none" fill="#CFD5DA" d="M64 18 L64 22 Q59.4 21.9 54.95 23.05 51.4 24 47.9 25.8 44.9 27.35 42 28.3 36.9 30 32 30 24.3 30 16.1 25.8 12.6 24 9.05 23.05 L4 22.15 4 18.15 9.05 19.05 Q12.6 20 16.1 21.8 24.3 26 32 26 36.9 26 42 24.3 44.9 23.35 47.9 21.8 51.4 20 54.95 19.05 59.4 17.9 64 18 M64 33 L64 46 Q59.4 45.9 54.95 47.05 51.4 48 47.9 49.8 44.9 51.35 42 52.3 36.9 54 32 54 24.3 54 16.1 49.8 12.6 48 9.05 47.05 L4 46.15 4 33.15 9.05 34.05 Q12.6 35 16.1 36.8 24.3 41 32 41 36.9 41 42 39.3 44.9 38.35 47.9 36.8 51.4 35 54.95 34.05 59.4 32.9 64 33 M41.15 44.45 Q40.7 44 39.95 44 39.3 44 38.8 44.5 L38 45.35 Q37.5 45.8 37.5 46.45 37.5 47.2 38 47.65 L38.8 48.5 Q39.3 49 40 49 40.7 49 41.15 48.5 L42 47.7 Q42.5 47.2 42.5 46.5 42.5 45.8 42 45.3 L41.15 44.45"/>
    <path stroke="none" fill="#353541" d="M64 60 L64 64 11.85 64 10.95 63.95 Q1.6 63.25 0.2 54.5 L0 52.15 0 0 4 0 4 6.15 4 18.15 4 22.15 4 29.15 4 33.15 4 46.15 4 52 4.15 53.8 Q5.2 59.8 12 60 L64 60"/>
  </g>
</svg>