<svg width="64" height="64" xmlns="http://www.w3.org/2000/svg" xmlns:xlink="http://www.w3.org/1999/xlink">
  <defs/>
  <g>
    <path stroke="none" fill="#353541" d="M60 0 L64 0 64 52.15 63.85 54 63.8 54.5 Q63.25 57.85 61.6 60 59.9 62.15 57.15 63.15 54.95 63.9 52.15 64 L12 64 11.85 64 Q9.05 63.9 6.9 63.15 4.1 62.15 2.45 60 0.75 57.85 0.2 54.5 L0.15 54 0 52.15 0 0 4 0 4 8 4 22 4 24 4 38 4 52 4.15 53.8 4.2 54 Q4.8 57.3 7.25 58.8 L8 59.2 Q9.65 59.95 12 60 L52 60 Q54.35 59.95 56 59.2 L56.8 58.8 Q59.2 57.3 59.85 54 L59.85 53.8 60 52 60 38 60 24 60 22 60 8 60 0"/>
    <path stroke="none" fill="#BBC4CB" d="M60 0 L60 8 Q56.15 8 56 11.75 L56 18.25 56 20.25 Q56.15 24 60 24 L60 38 Q56.15 38 56 41.75 L56 48.25 56 50 Q56 53.9 59.75 54 L59.85 54 Q59.2 57.3 56.8 58.8 L56 59.2 Q54.35 59.95 52 60 L12 60 Q9.65 59.95 8 59.2 L7.25 58.8 Q4.8 57.3 4.2 54 L4.25 54 Q8 53.9 8 50 L8 48.25 8 41.75 Q7.85 38 4 38 L4 24 Q7.85 24 8 20.25 L8 18.25 8 11.75 Q7.85 8 4 8 L4 0 60 0 M32 18.25 L32 7.75 Q31.85 4 28 4 L16 4 Q12.15 4 12 7.75 L12 18.25 12 20 Q12 24 16 24 L28 24 Q32 24 32 20 L32 18.25 M48 14 L40 14 Q36 14 36 18 L36 26.25 Q36.15 29.95 39.9 30 L48.25 30 Q51.9 29.85 52 26.25 L52 18 Q52 14 48 14 M52 50.25 L52 39.75 Q51.85 36 48 36 L36 36 Q32.15 36 32 39.75 L32 50.25 32 52.25 Q32.15 56 36 56 L48 56 Q51.85 56 52 52.25 L52 50.25 M15.75 48 L24.25 48 Q26.85 47.95 27.65 46 28 45.2 28 44 L28 36 Q28 32 24 32 L16 32 Q12 32 12 36 L12 44 Q12 45.2 12.35 46 13.15 47.95 15.75 48"/>
    <path stroke="none" fill="#A6B2BB" d="M15.75 48 Q13.15 47.95 12.35 46 12 45.2 12 44 L12 36 Q12 32 16 32 L24 32 Q28 32 28 36 L28 44 Q28 45.2 27.65 46 26.85 47.95 24.25 48 L15.75 48 M60 22 L60 24 Q56.15 24 56 20.25 L56 18.25 Q56.15 22 60 22 M60 38 L60 52 59.75 52 Q56.1 51.9 56 48.25 L56 41.75 Q56.15 38 60 38 M4 52 L4 38 Q7.85 38 8 41.75 L8 48.25 Q7.9 51.9 4.25 52 L4 52 M4 24 L4 22 Q7.85 22 8 18.25 L8 20.25 Q7.85 24 4 24 M48 14 Q52 14 52 18 L52 26.25 Q51.9 29.85 48.25 30 L39.9 30 Q36.15 29.95 36 26.25 L36 18 Q36 14 40 14 L48 14 M12 18.25 L12 7.75 Q12.15 4 16 4 L28 4 Q31.85 4 32 7.75 L32 18.25 Q31.85 22 28 22 L16 22 Q12.15 22 12 18.25 M52 50.25 L52 52.25 Q51.85 56 48 56 L36 56 Q32.15 56 32 52.25 L32 50.25 Q32.15 54 36 54 L48 54 Q51.85 54 52 50.25"/>
    <path stroke="none" fill="#CFD5DA" d="M52 50.25 Q51.85 54 48 54 L36 54 Q32.15 54 32 50.25 L32 39.75 Q32.15 36 36 36 L48 36 Q51.85 36 52 39.75 L52 50.25 M60 8 L60 22 Q56.15 22 56 18.25 L56 11.75 Q56.15 8 60 8 M60 52 L59.85 53.8 59.85 54 59.75 54 Q56 53.9 56 50 L56 48.25 Q56.1 51.9 59.75 52 L60 52 M4.2 54 L4.15 53.8 4 52 4.25 52 Q7.9 51.9 8 48.25 L8 50 Q8 53.9 4.25 54 L4.2 54 M4 22 L4 8 Q7.85 8 8 11.75 L8 18.25 Q7.85 22 4 22 M32 18.25 L32 20 Q32 24 28 24 L16 24 Q12 24 12 20 L12 18.25 Q12.15 22 16 22 L28 22 Q31.85 22 32 18.25"/>
  </g>
</svg>