<svg width="64" height="64" xmlns="http://www.w3.org/2000/svg" xmlns:xlink="http://www.w3.org/1999/xlink">
  <defs/>
  <g>
    <path stroke="none" fill="#353541" d="M4 64 L0 64 0 10.9 0.3 8.75 0.45 8 0.95 6.5 0.95 6.45 Q1.45 5.1 2.25 4 L2.3 3.95 Q5.15 0.15 11.55 0 L52.35 0 52.45 0 Q58.9 0.15 61.75 4 L62.6 5.4 63.05 6.45 63.05 6.5 63.55 8 63.75 8.95 64 10.9 64 64 60 64 60 62 60 48 60 24 60 20 60 16 60 11.65 59.7 8.95 59.6 8.7 59.4 8.05 59.35 8 Q58.65 6.4 57.35 5.45 55.5 4.1 52.35 4 L48 4 44 4 20 4 16 4 11.65 4 Q9.5 4.05 7.95 4.75 5.65 5.7 4.65 8 L4.65 8.05 4.4 8.7 4.4 8.75 Q4.05 10 4 11.65 L4 16 4 20 4 24 4 31.75 4 36.7 4 48 4 62 4 64"/>
    <path stroke="none" fill="#717180" d="M4 16 L4 11.65 Q4.05 10 4.4 8.75 L4.4 8.7 4.65 8.05 4.65 8 Q5.65 5.7 7.95 4.75 9.5 4.05 11.65 4 L16 4 16 8 12 8 Q9.05 8.1 7.2 9.25 5.6 10.25 4.8 12 4.1 13.65 4 16 M20 4 L44 4 44 8 20 8 20 4 M48 4 L52.35 4 Q55.5 4.1 57.35 5.45 58.65 6.4 59.35 8 L59.4 8.05 59.6 8.7 59.7 8.95 60 11.65 60 16 Q59.9 13.65 59.2 12 58.4 10.25 56.8 9.25 54.95 8.1 52 8 L48 8 48 4"/>
    <path stroke="none" fill="#5E5E6D" d="M48 4 L48 8 52 8 Q54.95 8.1 56.8 9.25 58.4 10.25 59.2 12 59.9 13.65 60 16 L60 20 52 20 50.35 19.8 50 19.7 Q48.1 18.85 48 16.25 L48 16 48 12.8 48 8 44 8 44 24 20 24 20 8 16 8 16 16.25 Q15.85 19.4 13.1 19.9 L12.35 20 12 20 4 20 4 16 Q4.1 13.65 4.8 12 5.6 10.25 7.2 9.25 9.05 8.1 12 8 L16 8 16 4 20 4 20 8 44 8 44 4 48 4"/>
    <path stroke="none" fill="#474758" d="M44 24 L44 8 48 8 48 12.8 48 16 48 16.25 47.95 20.9 Q47.7 22.95 46 23.65 L44.15 24 44 24 M16 16.25 L16 8 20 8 20 24 19.85 24 18 23.65 Q16.85 23.15 16.35 22 L16 20.25 16 16.25"/>
    <path stroke="none" fill="#BBC4CB" d="M59.75 64 L4.25 64 Q8 63.9 8 60 L8 58.25 8 51.75 Q7.85 48 4 48 L4 36.7 4.05 36.7 Q4.35 39.9 7.75 40 L12.25 40 Q15.65 39.9 16 36.7 L16 32 Q16 28 12 28 L8 28 Q4.15 28 4 31.75 L4 24 12 24 13.1 23.9 14 23.65 16 24 16 24.25 Q16.1 26.85 18 27.65 L19.85 28 44 28 46 27.65 Q47.95 26.85 48 24.25 L48 24 48 20.25 Q48.1 22.85 50 23.7 L50.35 23.8 52 24 60 24 60 48 Q56.15 48 56 51.75 L56 58.25 56 60 Q56 63.9 59.75 64 M52 45.25 L52 34.75 Q51.85 31 48 31 L36 31 Q32.15 31 32 34.75 L32 45.25 32 47.25 Q32.15 51 36 51 L48 51 Q51.85 51 52 47.25 L52 45.25 M15.75 60 L24.25 60 Q28 59.9 28 56 L28 48 Q28 44 24 44 L16 44 Q12 44 12 48 L12 56 Q12 59.9 15.75 60"/>
    <path stroke="none" fill="#383848" d="M4 24 L4 20 12 20 12.35 20 13.1 19.9 Q15.85 19.4 16 16.25 L16 20.25 16.35 22 Q16.85 23.15 18 23.65 L19.85 24 20 24 44 24 44.15 24 46 23.65 Q47.7 22.95 47.95 20.9 L48 16.25 Q48.1 18.85 50 19.7 L50.35 19.8 52 20 60 20 60 24 52 24 50.35 23.8 50 23.7 Q48.1 22.85 48 20.25 L48 24 48 24.25 Q47.95 26.85 46 27.65 L44 28 19.85 28 18 27.65 Q16.1 26.85 16 24.25 L16 24 16 22 16 20.25 15.65 22 Q15.15 23.15 14 23.65 L13.1 23.9 12 24 4 24"/>
    <path stroke="none" fill="#CFD5DA" d="M60 64 L59.75 64 Q56 63.9 56 60 L56 58.25 Q56.1 61.9 59.75 62 L60 62 60 64 M4.25 64 L4 64 4 62 4.25 62 Q7.9 61.9 8 58.25 L8 60 Q8 63.9 4.25 64 M16 24 L14 23.65 Q15.15 23.15 15.65 22 L16 22 16 24 M32 45.25 L32 34.75 Q32.15 31 36 31 L48 31 Q51.85 31 52 34.75 L52 45.25 Q51.85 49 48 49 L36 49 Q32.15 49 32 45.25"/>
    <path stroke="none" fill="#A6B2BB" d="M32 45.25 Q32.15 49 36 49 L48 49 Q51.85 49 52 45.25 L52 47.25 Q51.85 51 48 51 L36 51 Q32.15 51 32 47.25 L32 45.25 M4 62 L4 48 Q7.85 48 8 51.75 L8 58.25 Q7.9 61.9 4.25 62 L4 62 M4 36.7 L4 31.75 Q4.15 28 8 28 L12 28 Q16 28 16 32 L16 36.7 Q15.65 39.9 12.25 40 L7.75 40 Q4.35 39.9 4.05 36.7 L4 36.7 M60 48 L60 62 59.75 62 Q56.1 61.9 56 58.25 L56 51.75 Q56.15 48 60 48 M16 20.25 L16 22 15.65 22 16 20.25 M15.75 60 Q12 59.9 12 56 L12 48 Q12 44 16 44 L24 44 Q28 44 28 48 L28 56 Q28 59.9 24.25 60 L15.75 60"/>
  </g>
</svg>