<svg width="64" height="64" xmlns="http://www.w3.org/2000/svg" xmlns:xlink="http://www.w3.org/1999/xlink">
  <defs/>
  <g>
    <path stroke="none" fill="#353541" d="M52 0 L52.15 0 Q58.55 0.2 61.5 4 62.25 5.05 62.8 6.35 L62.85 6.35 63.45 8 Q63.95 9.75 64 11.9 L64 52.15 63.85 54 63.8 54.5 Q63.25 57.85 61.6 60 59.95 62.15 57.15 63.15 55 63.9 52.15 64 L12 64 11.85 64 6.85 63.15 Q4.95 62.45 3.6 61.25 L2.4 60 Q0.75 57.85 0.2 54.5 L0.15 54 0 52.15 0 11.9 Q0.05 9.75 0.55 8 L1.15 6.35 1.2 6.35 2.5 4 Q5.45 0.2 11.85 0 L12 0 52 0 M48 4 L44 4 20 4 16 4 12 4 Q6.6 4.15 4.8 8 L4.8 8.05 Q4.1 9.7 4 12 L4 16 4 20 4 24 4 38 4 52 4.15 53.8 4.2 54 Q4.8 57.3 7.25 58.8 L8 59.2 Q9.65 59.95 12 60 L52 60 Q54.35 59.95 56 59.2 L56.8 58.8 Q59.2 57.3 59.85 54 L59.85 53.8 60 52 60 38 60 24 60 20 60 16 60 12 Q59.9 9.7 59.25 8.05 L59.2 8 Q57.4 4.15 52 4 L48 4"/>
    <path stroke="none" fill="#5E5E6D" d="M48 4 L48 8 44 8 44 4 48 4 M60 16 L60 20 52 20 50.35 19.8 Q48.4 19.2 48.05 16.95 L48 16.45 48 16.25 48 16 48 14 48 12.8 48 8 52 8 Q54.9 8.1 56.8 9.25 58.35 10.25 59.2 12 59.9 13.65 60 16 M4 20 L4 16 Q4.1 13.65 4.8 12 5.65 10.25 7.2 9.25 9.1 8.1 12 8 L16 8 16 16.25 Q15.9 18.85 14 19.65 L13.1 19.9 12.35 20 12 20 4 20 M16 4 L20 4 20 8 16 8 16 4 M44 24 L20 24 20 8 44 8 44 24"/>
    <path stroke="none" fill="#717180" d="M48 4 L52 4 Q57.4 4.15 59.2 8 L59.25 8.05 Q59.9 9.7 60 12 L60 16 Q59.9 13.65 59.2 12 58.35 10.25 56.8 9.25 54.9 8.1 52 8 L48 8 48 4 M4 16 L4 12 Q4.1 9.7 4.8 8.05 L4.8 8 Q6.6 4.15 12 4 L16 4 16 8 12 8 Q9.1 8.1 7.2 9.25 5.65 10.25 4.8 12 4.1 13.65 4 16 M20 4 L44 4 44 8 20 8 20 4"/>
    <path stroke="none" fill="#4F4F5D" d="M44 8 L48 8 48 12.8 48 14 48 16 48 16.25 48 16.45 47.95 20.9 Q47.7 22.95 46 23.65 L44 24 44 8 M20 24 L19.85 24 18 23.65 Q16.85 23.15 16.35 22 L16 20.25 16 16.25 16 8 20 8 20 24"/>
    <path stroke="none" fill="#424251" d="M20 24 L44 24 46 23.65 Q47.7 22.95 47.95 20.9 L48 16.45 48.05 16.95 Q48.4 19.2 50.35 19.8 L52 20 60 20 60 24 52 24 50.35 23.8 Q48.1 23.1 48 20.25 L48 24 48 24.25 Q47.95 26.85 46 27.65 L44 28 36.35 28 20 28 18 27.65 Q16.1 26.85 16 24.25 L16 24 16 22 16 20.25 15.65 22 Q15.15 23.15 14 23.65 L13.1 23.9 12 24 4 24 4 20 12 20 12.35 20 13.1 19.9 14 19.65 Q15.9 18.85 16 16.25 L16 20.25 16.35 22 Q16.85 23.15 18 23.65 L19.85 24 20 24"/>
    <path stroke="none" fill="#BBC4CB" d="M60 24 L60 38 Q56.15 38 56 41.75 L56 48.25 56 50 Q56 53.9 59.75 54 L59.85 54 Q59.2 57.3 56.8 58.8 L56 59.2 Q54.35 59.95 52 60 L12 60 Q9.65 59.95 8 59.2 L7.25 58.8 Q4.8 57.3 4.2 54 L4.25 54 Q8 53.9 8 50 L8 48.25 8 41.75 Q7.85 38 4 38 L4 24 12 24 13.1 23.9 14 23.65 16 24 16 24.25 Q16.1 26.85 18 27.65 L20 28 36.35 28 Q37.2 29.95 39.9 30 L48.25 30 Q51.9 29.85 52 26.25 L52 24 60 24 M52 50.25 L52 39.75 Q51.85 36 48 36 L36 36 Q32.15 36 32 39.75 L32 50.25 32 52.25 Q32.15 56 36 56 L48 56 Q51.85 56 52 52.25 L52 50.25 M15.75 48 L24.25 48 Q26.85 47.95 27.65 46 28 45.2 28 44 L28 36 Q28 32 24 32 L16 32 Q12 32 12 36 L12 44 Q12 45.2 12.35 46 13.15 47.95 15.75 48"/>
    <path stroke="none" fill="#A6B2BB" d="M15.75 48 Q13.15 47.95 12.35 46 12 45.2 12 44 L12 36 Q12 32 16 32 L24 32 Q28 32 28 36 L28 44 Q28 45.2 27.65 46 26.85 47.95 24.25 48 L15.75 48 M60 38 L60 52 59.75 52 Q56.1 51.9 56 48.25 L56 41.75 Q56.15 38 60 38 M4 52 L4 38 Q7.85 38 8 41.75 L8 48.25 Q7.9 51.9 4.25 52 L4 52 M16 20.25 L16 22 15.65 22 16 20.25 M36.35 28 L44 28 46 27.65 Q47.95 26.85 48 24.25 L48 24 48 20.25 Q48.1 23.1 50.35 23.8 L52 24 52 26.25 Q51.9 29.85 48.25 30 L39.9 30 Q37.2 29.95 36.35 28 M52 50.25 L52 52.25 Q51.85 56 48 56 L36 56 Q32.15 56 32 52.25 L32 50.25 Q32.15 54 36 54 L48 54 Q51.85 54 52 50.25"/>
    <path stroke="none" fill="#CFD5DA" d="M52 50.25 Q51.85 54 48 54 L36 54 Q32.15 54 32 50.25 L32 39.75 Q32.15 36 36 36 L48 36 Q51.85 36 52 39.75 L52 50.25 M60 52 L59.85 53.8 59.85 54 59.75 54 Q56 53.9 56 50 L56 48.25 Q56.1 51.9 59.75 52 L60 52 M4.2 54 L4.15 53.8 4 52 4.25 52 Q7.9 51.9 8 48.25 L8 50 Q8 53.9 4.25 54 L4.2 54 M16 22 L16 24 14 23.65 Q15.15 23.15 15.65 22 L16 22"/>
  </g>
</svg>