<svg width="64" height="64" xmlns="http://www.w3.org/2000/svg" xmlns:xlink="http://www.w3.org/1999/xlink">
  <defs/>
  <g>
    <path stroke="none" fill="#353541" d="M0 4 L0 0 64 0 64 4 0 4 M64 60 L64 64 0 64 0 60 64 60"/>
    <path stroke="none" fill="#F3C7A5" d="M64 8 L64 18 Q59.4 17.9 54.95 19.05 51.4 20 47.9 21.8 44.9 23.35 42 24.3 36.9 26 32 26 24.3 26 16.1 21.8 12.6 20 9.05 19.05 4.6 17.9 0 18 L0 8 64 8 M37.8 17.45 Q37.35 17 36.6 17 35.95 17 35.45 17.5 L34.65 18.35 Q34.15 18.8 34.15 19.45 34.15 20.2 34.65 20.65 L35.45 21.5 Q35.95 22 36.65 22 37.35 22 37.8 21.5 L38.65 20.7 Q39.15 20.2 39.15 19.5 39.15 18.8 38.65 18.3 L37.8 17.45 M10.8 11.95 Q10.35 11.5 9.6 11.5 8.95 11.5 8.45 12 L7.65 12.85 Q7.15 13.3 7.15 13.95 7.15 14.7 7.65 15.15 L8.45 16 Q8.95 16.5 9.65 16.5 10.35 16.5 10.8 16 L11.65 15.2 Q12.15 14.7 12.15 14 12.15 13.3 11.65 12.8 L10.8 11.95"/>
    <path stroke="none" fill="#E7B187" d="M10.8 11.95 L11.65 12.8 Q12.15 13.3 12.15 14 12.15 14.7 11.65 15.2 L10.8 16 Q10.35 16.5 9.65 16.5 8.95 16.5 8.45 16 L7.65 15.15 Q7.15 14.7 7.15 13.95 7.15 13.3 7.65 12.85 L8.45 12 Q8.95 11.5 9.6 11.5 10.35 11.5 10.8 11.95 M64 18 L64 22 Q59.4 21.9 54.95 23.05 51.4 24 47.9 25.8 44.9 27.35 42 28.3 36.9 30 32 30 24.3 30 16.1 25.8 12.6 24 9.05 23.05 4.6 21.9 0 22 L0 18 Q4.6 17.9 9.05 19.05 12.6 20 16.1 21.8 24.3 26 32 26 36.9 26 42 24.3 44.9 23.35 47.9 21.8 51.4 20 54.95 19.05 59.4 17.9 64 18 M37.8 17.45 L38.65 18.3 Q39.15 18.8 39.15 19.5 39.15 20.2 38.65 20.7 L37.8 21.5 Q37.35 22 36.65 22 35.95 22 35.45 21.5 L34.65 20.65 Q34.15 20.2 34.15 19.45 34.15 18.8 34.65 18.35 L35.45 17.5 Q35.95 17 36.6 17 37.35 17 37.8 17.45"/>
    <path stroke="none" fill="#DE7E4F" d="M64 22 L64 30 Q59.4 29.9 54.95 31.05 51.4 32 47.9 33.8 44.9 35.35 42 36.3 36.9 38 32 38 24.3 38 16.1 33.8 12.6 32 9.05 31.05 4.6 29.9 0 30 L0 22 Q4.6 21.9 9.05 23.05 12.6 24 16.1 25.8 24.3 30 32 30 36.9 30 42 28.3 44.9 27.35 47.9 25.8 51.4 24 54.95 23.05 59.4 21.9 64 22 M64 46 L64 60 0 60 0 46 Q4.6 45.9 9.05 47.05 12.6 48 16.1 49.8 24.3 54 32 54 36.9 54 42 52.3 44.9 51.35 47.9 49.8 51.4 48 54.95 47.05 59.4 45.9 64 46 M57.85 37.8 L59.2 39.15 Q60 39.95 60 41.05 60 42.15 59.2 42.95 L57.85 44.3 Q57.15 45 56.05 45 54.95 45 54.15 44.2 L52.8 42.85 Q52.05 42.15 52 41 52.05 39.95 52.8 39.2 L54.15 37.85 Q54.95 37.05 55.95 37 57.15 37.05 57.85 37.8 M46.65 42.75 L47.5 43.6 Q48 44.1 48 44.8 48 45.5 47.5 46 L46.65 46.8 Q46.2 47.3 45.5 47.3 44.8 47.3 44.3 46.8 L43.5 45.95 Q43 45.5 43 44.75 43 44.1 43.5 43.65 L44.3 42.8 Q44.8 42.3 45.45 42.3 46.2 42.3 46.65 42.75"/>
    <path stroke="none" fill="#C66A3E" d="M64 30 L64 34 Q59.4 33.9 54.95 35.05 51.4 36 47.9 37.8 44.9 39.35 42 40.3 36.9 42 32 42 24.3 42 16.1 37.8 12.6 36 9.05 35.05 4.6 33.9 0 34 L0 30 Q4.6 29.9 9.05 31.05 12.6 32 16.1 33.8 24.3 38 32 38 36.9 38 42 36.3 44.9 35.35 47.9 33.8 51.4 32 54.95 31.05 59.4 29.9 64 30"/>
    <path stroke="none" fill="#FFE0C2" d="M64 4 L64 8 0 8 0 4 64 4"/>
    <path stroke="none" fill="#EE9366" d="M64 34 L64 46 Q59.4 45.9 54.95 47.05 51.4 48 47.9 49.8 44.9 51.35 42 52.3 36.9 54 32 54 24.3 54 16.1 49.8 12.6 48 9.05 47.05 4.6 45.9 0 46 L0 34 Q4.6 33.9 9.05 35.05 12.6 36 16.1 37.8 24.3 42 32 42 36.9 42 42 40.3 44.9 39.35 47.9 37.8 51.4 36 54.95 35.05 59.4 33.9 64 34 M57.85 37.8 Q57.15 37.05 55.95 37 54.95 37.05 54.15 37.85 L52.8 39.2 Q52.05 39.95 52 41 52.05 42.15 52.8 42.85 L54.15 44.2 Q54.95 45 56.05 45 57.15 45 57.85 44.3 L59.2 42.95 Q60 42.15 60 41.05 60 39.95 59.2 39.15 L57.85 37.8 M46.65 42.75 Q46.2 42.3 45.45 42.3 44.8 42.3 44.3 42.8 L43.5 43.65 Q43 44.1 43 44.75 43 45.5 43.5 45.95 L44.3 46.8 Q44.8 47.3 45.5 47.3 46.2 47.3 46.65 46.8 L47.5 46 Q48 45.5 48 44.8 48 44.1 47.5 43.6 L46.65 42.75"/>
  </g>
</svg>