<svg width="64" height="64" xmlns="http://www.w3.org/2000/svg" xmlns:xlink="http://www.w3.org/1999/xlink">
  <defs/>
  <g>
    <path stroke="none" fill="#353541" d="M60 0 L64 0 64 52 64 52.15 63.8 54.5 Q62.35 63.65 52.15 64 L52 64 0 64 0 60 52 60 Q58.8 59.8 59.85 53.8 L60 52 60 38 60 34 60 23.8 60 19.8 60 8.9 60 0"/>
    <path stroke="none" fill="#C66A3E" d="M0 40 L0 36 12.45 29.75 Q14.1 28.9 16 28.9 17.9 28.9 19.6 29.75 L32 36 44.45 29.75 Q46.1 28.9 48 28.9 49.9 28.9 51.6 29.75 L60 34 60 38 51.6 33.75 Q49.9 32.9 48 32.9 46.1 32.9 44.45 33.75 L32 40 19.6 33.75 Q17.9 32.9 16 32.9 14.1 32.9 12.45 33.75 L0 40 M0 20.9 L0 10.9 12.45 4.65 Q14.1 3.8 16 3.8 17.9 3.8 19.6 4.65 L32 10.9 44.45 4.65 Q46.1 3.8 48 3.8 49.9 3.8 51.6 4.65 L60 8.9 60 19.8 48 13.8 35.6 20 Q33.9 20.85 32 20.85 30.1 20.85 28.45 20 L16 13.8 3.6 20 Q1.85 20.85 0 20.9"/>
    <path stroke="none" fill="#DE7E4F" d="M0 60 L0 55 Q1.85 54.95 3.6 54.1 L16 47.9 28.45 54.1 Q30.1 54.95 32 54.95 33.9 54.95 35.6 54.1 L48 47.9 59.85 53.8 Q58.8 59.8 52 60 L0 60 M0 36 L0 24.9 Q1.85 24.85 3.6 24 L16 17.8 28.45 24 Q30.1 24.85 32 24.85 33.9 24.85 35.6 24 L48 17.8 60 23.8 60 34 51.6 29.75 Q49.9 28.9 48 28.9 46.1 28.9 44.45 29.75 L32 36 19.6 29.75 Q17.9 28.9 16 28.9 14.1 28.9 12.45 29.75 L0 36 M0 10.9 L0 0 60 0 60 8.9 51.6 4.65 Q49.9 3.8 48 3.8 46.1 3.8 44.45 4.65 L32 10.9 19.6 4.65 Q17.9 3.8 16 3.8 14.1 3.8 12.45 4.65 L0 10.9"/>
    <path stroke="none" fill="#EE9366" d="M0 55 L0 40 12.45 33.75 Q14.1 32.9 16 32.9 17.9 32.9 19.6 33.75 L32 40 44.45 33.75 Q46.1 32.9 48 32.9 49.9 32.9 51.6 33.75 L60 38 60 52 59.85 53.8 48 47.9 35.6 54.1 Q33.9 54.95 32 54.95 30.1 54.95 28.45 54.1 L16 47.9 3.6 54.1 Q1.85 54.95 0 55 M0 24.9 L0 20.9 Q1.85 20.85 3.6 20 L16 13.8 28.45 20 Q30.1 20.85 32 20.85 33.9 20.85 35.6 20 L48 13.8 60 19.8 60 23.8 48 17.8 35.6 24 Q33.9 24.85 32 24.85 30.1 24.85 28.45 24 L16 17.8 3.6 24 Q1.85 24.85 0 24.9"/>
    <path stroke="none" fill="#DE7E4F" d="M13.05 38.6 L14.4 39.95 Q15.2 40.75 15.2 41.85 15.2 42.95 14.4 43.75 L13.05 45.1 Q12.35 45.8 11.25 45.8 10.15 45.8 9.35 45 L8 43.65 Q7.25 42.95 7.2 41.8 7.25 40.75 8 40 L9.35 38.65 Q10.15 37.85 11.15 37.8 12.35 37.85 13.05 38.6"/>
    <path stroke="none" fill="#DE7E4F" d="M37.15 12.25 L38 13.1 Q38.5 13.6 38.5 14.3 38.5 15 38 15.5 L37.15 16.3 Q36.7 16.8 36 16.8 35.3 16.8 34.8 16.3 L34 15.45 Q33.5 15 33.5 14.25 33.5 13.6 34 13.15 L34.8 12.3 Q35.3 11.8 35.95 11.8 36.7 11.8 37.15 12.25"/>
    <path stroke="none" fill="#DE7E4F" d="M52 40.45 L52.85 41.3 Q53.35 41.8 53.35 42.5 53.35 43.2 52.85 43.7 L52 44.5 Q51.55 45 50.85 45 50.15 45 49.65 44.5 L48.85 43.65 Q48.35 43.2 48.35 42.45 48.35 41.8 48.85 41.35 L49.65 40.5 Q50.15 40 50.8 40 51.55 40 52 40.45"/>
  </g>
</svg>