<svg width="64" height="64" xmlns="http://www.w3.org/2000/svg" xmlns:xlink="http://www.w3.org/1999/xlink">
  <defs/>
  <g>
    <path stroke="none" fill="#353541" d="M4 64 L0 64 0 11.55 0 10.9 Q0.15 9.3 0.45 8 L0.95 6.5 0.95 6.45 Q1.45 5.1 2.25 4 5.1 0.15 11.55 0 L11.65 0 64 0 64 4 11.65 4 Q6.3 4.15 4.65 8 L4.4 8.7 Q4.05 9.95 4 11.65 L4 12 4 16 4 18.8 4 22.8 4 31.8 4 35.8 4 51.8 4 64"/>
    <path stroke="none" fill="#A452D4" d="M4 22.8 L4 18.8 4.5 19.05 Q6.3 20 8.05 21.8 L11 24.3 Q13.55 26 16 26 19.85 26 23.95 21.8 25.7 20 27.45 19.05 29.7 17.9 32 18 34.3 17.9 36.5 19.05 38.3 20 40.05 21.8 41.55 23.35 43 24.3 45.55 26 48 26 51.85 26 55.95 21.8 57.7 20 59.45 19.05 61.7 17.9 64 18 L64 22 Q61.7 21.9 59.45 23.05 57.7 24 55.95 25.8 51.85 30 48 30 45.55 30 43 28.3 41.55 27.35 40.05 25.8 38.3 24 36.5 23.05 34.3 21.9 32 22 29.7 21.9 27.45 23.05 25.7 24 23.95 25.8 19.85 30 16 30 13.55 30 11 28.3 L8.05 25.8 Q6.3 24 4.5 23.05 L4 22.8"/>
    <path stroke="none" fill="#BA6BE9" d="M4 18.8 L4 16 Q4.1 13.65 4.8 12 6.6 8.15 12 8 L64 8 64 18 Q61.7 17.9 59.45 19.05 57.7 20 55.95 21.8 51.85 26 48 26 45.55 26 43 24.3 41.55 23.35 40.05 21.8 38.3 20 36.5 19.05 34.3 17.9 32 18 29.7 17.9 27.45 19.05 25.7 20 23.95 21.8 19.85 26 16 26 13.55 26 11 24.3 L8.05 21.8 Q6.3 20 4.5 19.05 L4 18.8 M4 12 L4 11.65 Q4.05 9.95 4.4 8.7 L4.65 8 4.8 8 Q4.1 9.65 4 12"/>
    <path stroke="none" fill="#D699FA" d="M4 12 Q4.1 9.65 4.8 8 L4.65 8 Q6.3 4.15 11.65 4 L64 4 64 8 12 8 Q6.6 8.15 4.8 12 4.1 13.65 4 16 L4 12"/>
    <path stroke="none" fill="#CFD5DA" d="M4 51.8 L4 35.8 4.5 36.05 Q6.3 37 8.05 38.8 L11 41.3 Q13.55 43 16 43 19.85 43 23.95 38.8 25.7 37 27.45 36.05 29.7 34.9 32 35 34.3 34.9 36.5 36.05 38.3 37 40.05 38.8 41.55 40.35 43 41.3 45.55 43 48 43 51.85 43 55.95 38.8 57.7 37 59.45 36.05 61.7 34.9 64 35 L64 51 Q61.7 50.9 59.45 52.05 57.7 53 55.95 54.8 51.85 59 48 59 45.55 59 43 57.3 41.55 56.35 40.05 54.8 38.3 53 36.5 52.05 34.3 50.9 32 51 29.7 50.9 27.45 52.05 25.7 53 23.95 54.8 19.85 59 16 59 13.55 59 11 57.3 L8.05 54.8 Q6.3 53 4.5 52.05 L4 51.8"/>
    <path stroke="none" fill="#A6B2BB" d="M4 35.8 L4 31.8 4.5 32.05 Q6.3 33 8.05 34.8 L11 37.3 Q13.55 39 16 39 19.85 39 23.95 34.8 25.7 33 27.45 32.05 29.7 30.9 32 31 34.3 30.9 36.5 32.05 38.3 33 40.05 34.8 41.55 36.35 43 37.3 45.55 39 48 39 51.85 39 55.95 34.8 57.7 33 59.45 32.05 61.7 30.9 64 31 L64 35 Q61.7 34.9 59.45 36.05 57.7 37 55.95 38.8 51.85 43 48 43 45.55 43 43 41.3 41.55 40.35 40.05 38.8 38.3 37 36.5 36.05 34.3 34.9 32 35 29.7 34.9 27.45 36.05 25.7 37 23.95 38.8 19.85 43 16 43 13.55 43 11 41.3 L8.05 38.8 Q6.3 37 4.5 36.05 L4 35.8"/>
    <path stroke="none" fill="#BBC4CB" d="M4 64 L4 51.8 4.5 52.05 Q6.3 53 8.05 54.8 L11 57.3 Q13.55 59 16 59 19.85 59 23.95 54.8 25.7 53 27.45 52.05 29.7 50.9 32 51 34.3 50.9 36.5 52.05 38.3 53 40.05 54.8 41.55 56.35 43 57.3 45.55 59 48 59 51.85 59 55.95 54.8 57.7 53 59.45 52.05 61.7 50.9 64 51 L64 64 4 64 M4 31.8 L4 22.8 4.5 23.05 Q6.3 24 8.05 25.8 L11 28.3 Q13.55 30 16 30 19.85 30 23.95 25.8 25.7 24 27.45 23.05 29.7 21.9 32 22 34.3 21.9 36.5 23.05 38.3 24 40.05 25.8 41.55 27.35 43 28.3 45.55 30 48 30 51.85 30 55.95 25.8 57.7 24 59.45 23.05 61.7 21.9 64 22 L64 31 Q61.7 30.9 59.45 32.05 57.7 33 55.95 34.8 51.85 39 48 39 45.55 39 43 37.3 41.55 36.35 40.05 34.8 38.3 33 36.5 32.05 34.3 30.9 32 31 29.7 30.9 27.45 32.05 25.7 33 23.95 34.8 19.85 39 16 39 13.55 39 11 37.3 L8.05 34.8 Q6.3 33 4.5 32.05 L4 31.8"/>
  </g>
</svg>