<svg width="64" height="64" xmlns="http://www.w3.org/2000/svg" xmlns:xlink="http://www.w3.org/1999/xlink">
  <defs/>
  <g>
    <path stroke="none" fill="#DE7E4F" d="M64 6 Q59.4 5.9 54.95 7.05 51.4 8 47.9 9.8 44.9 11.35 42 12.3 36.9 14 32 14 24.3 14 16.1 9.8 12.6 8 9.05 7.05 4.6 5.9 0 6 L0 0 64 0 64 6 M52.8 12.45 L53.65 13.3 Q54.15 13.8 54.15 14.5 54.15 15.2 53.65 15.7 L52.8 16.5 Q52.35 17 51.65 17 50.95 17 50.45 16.5 L49.65 15.65 Q49.15 15.2 49.15 14.45 49.15 13.8 49.65 13.35 L50.45 12.5 Q50.95 12 51.6 12 52.35 12 52.8 12.45 M0 22 Q4.6 21.9 9.05 23.05 12.6 24 16.1 25.8 24.3 30 32 30 36.9 30 42 28.3 44.9 27.35 47.9 25.8 51.4 24 54.95 23.05 59.4 21.9 64 22 L64 29 Q59.4 28.9 54.95 30.05 51.4 31 47.9 32.8 44.9 34.35 42 35.3 36.9 37 32 37 24.3 37 16.1 32.8 12.6 31 9.05 30.05 4.6 28.9 0 29 L0 22 M64 51 L64 64 0 64 0 51 Q4.6 50.9 9.05 52.05 12.6 53 16.1 54.8 24.3 59 32 59 36.9 59 42 57.3 44.9 56.35 47.9 54.8 51.4 53 54.95 52.05 59.4 50.9 64 51 M52 41.5 L53.35 42.85 Q54.15 43.65 54.15 44.75 54.15 45.85 53.35 46.65 L52 48 Q51.3 48.7 50.2 48.7 49.1 48.7 48.3 47.9 L46.95 46.55 Q46.2 45.85 46.15 44.7 46.2 43.65 46.95 42.9 L48.3 41.55 Q49.1 40.75 50.1 40.7 51.3 40.75 52 41.5 M57.8 56.3 Q57.35 55.85 56.6 55.85 55.95 55.85 55.45 56.35 L54.65 57.2 Q54.15 57.65 54.15 58.3 54.15 59.05 54.65 59.5 L55.45 60.35 Q55.95 60.85 56.65 60.85 L57.8 60.35 58.65 59.55 Q59.15 59.05 59.15 58.35 59.15 57.65 58.65 57.15 L57.8 56.3 M43.8 49.15 L44.65 50 Q45.15 50.5 45.15 51.2 45.15 51.9 44.65 52.4 L43.8 53.2 Q43.35 53.7 42.65 53.7 41.95 53.7 41.45 53.2 L40.65 52.35 Q40.15 51.9 40.15 51.15 40.15 50.5 40.65 50.05 L41.45 49.2 Q41.95 48.7 42.6 48.7 43.35 48.7 43.8 49.15"/>
    <path stroke="none" fill="#C66A3E" d="M0 6 Q4.6 5.9 9.05 7.05 12.6 8 16.1 9.8 24.3 14 32 14 36.9 14 42 12.3 44.9 11.35 47.9 9.8 51.4 8 54.95 7.05 59.4 5.9 64 6 L64 18 Q59.4 17.9 54.95 19.05 51.4 20 47.9 21.8 44.9 23.35 42 24.3 36.9 26 32 26 24.3 26 16.1 21.8 12.6 20 9.05 19.05 4.6 17.9 0 18 L0 6 M52.8 12.45 Q52.35 12 51.6 12 50.95 12 50.45 12.5 L49.65 13.35 Q49.15 13.8 49.15 14.45 49.15 15.2 49.65 15.65 L50.45 16.5 Q50.95 17 51.65 17 52.35 17 52.8 16.5 L53.65 15.7 Q54.15 15.2 54.15 14.5 54.15 13.8 53.65 13.3 L52.8 12.45 M64 29 L64 33 Q59.4 32.9 54.95 34.05 51.4 35 47.9 36.8 44.9 38.35 42 39.3 36.9 41 32 41 24.3 41 16.1 36.8 12.6 35 9.05 34.05 4.6 32.9 0 33 L0 29 Q4.6 28.9 9.05 30.05 12.6 31 16.1 32.8 24.3 37 32 37 36.9 37 42 35.3 44.9 34.35 47.9 32.8 51.4 31 54.95 30.05 59.4 28.9 64 29 M57.8 56.3 L58.65 57.15 Q59.15 57.65 59.15 58.35 59.15 59.05 58.65 59.55 L57.8 60.35 56.65 60.85 Q55.95 60.85 55.45 60.35 L54.65 59.5 Q54.15 59.05 54.15 58.3 54.15 57.65 54.65 57.2 L55.45 56.35 Q55.95 55.85 56.6 55.85 57.35 55.85 57.8 56.3"/>
    <path stroke="none" fill="#EE9366" d="M0 18 Q4.6 17.9 9.05 19.05 12.6 20 16.1 21.8 24.3 26 32 26 36.9 26 42 24.3 44.9 23.35 47.9 21.8 51.4 20 54.95 19.05 59.4 17.9 64 18 L64 22 Q59.4 21.9 54.95 23.05 51.4 24 47.9 25.8 44.9 27.35 42 28.3 36.9 30 32 30 24.3 30 16.1 25.8 12.6 24 9.05 23.05 4.6 21.9 0 22 L0 18 M64 33 L64 51 Q59.4 50.9 54.95 52.05 51.4 53 47.9 54.8 44.9 56.35 42 57.3 36.9 59 32 59 24.3 59 16.1 54.8 12.6 53 9.05 52.05 4.6 50.9 0 51 L0 33 Q4.6 32.9 9.05 34.05 12.6 35 16.1 36.8 24.3 41 32 41 36.9 41 42 39.3 44.9 38.35 47.9 36.8 51.4 35 54.95 34.05 59.4 32.9 64 33 M52 41.5 Q51.3 40.75 50.1 40.7 49.1 40.75 48.3 41.55 L46.95 42.9 Q46.2 43.65 46.15 44.7 46.2 45.85 46.95 46.55 L48.3 47.9 Q49.1 48.7 50.2 48.7 51.3 48.7 52 48 L53.35 46.65 Q54.15 45.85 54.15 44.75 54.15 43.65 53.35 42.85 L52 41.5 M43.8 49.15 Q43.35 48.7 42.6 48.7 41.95 48.7 41.45 49.2 L40.65 50.05 Q40.15 50.5 40.15 51.15 40.15 51.9 40.65 52.35 L41.45 53.2 Q41.95 53.7 42.65 53.7 43.35 53.7 43.8 53.2 L44.65 52.4 Q45.15 51.9 45.15 51.2 45.15 50.5 44.65 50 L43.8 49.15"/>
  </g>
</svg>