<svg width="64" height="64" xmlns="http://www.w3.org/2000/svg" xmlns:xlink="http://www.w3.org/1999/xlink">
  <defs/>
  <g>
    <path stroke="none" fill="#353541" d="M0 4 L0 0 52 0 52.15 0 Q60.3 0.25 62.8 6.35 L62.85 6.35 Q63.9 8.65 64 11.9 L64 12 64 52 64 52.15 63.8 54.5 Q62.35 63.65 52.15 64 L52 64 0 64 0 60 52 60 Q58.8 59.8 59.85 53.8 L60 52 60 38 60 34 60 26 60 22 60 16 60 12 Q59.9 9.65 59.2 8 57.4 4.15 52 4 L0 4"/>
    <path stroke="none" fill="#2ECC71" d="M0 24 L0 8 52 8 Q57.4 8.15 59.2 12 59.9 13.65 60 16 L60 22 48 16 32 24 16 16 0 24"/>
    <path stroke="none" fill="#20B860" d="M0 24 L16 16 32 24 48 16 60 22 60 26 48 20 32 28 16 20 0 28 0 24"/>
    <path stroke="none" fill="#DE7E4F" d="M0 60 L0 55 Q1.85 54.95 3.6 54.1 L16 47.9 28.45 54.1 Q30.1 54.95 32 54.95 33.9 54.95 35.6 54.1 L48 47.9 59.85 53.8 Q58.8 59.8 52 60 L0 60 M0 36 L0 28 16 20 32 28 48 20 60 26 60 34 51.6 29.75 Q49.9 28.9 48 28.9 46.1 28.9 44.45 29.75 L32 36 19.6 29.75 Q17.9 28.9 16 28.9 14.1 28.9 12.45 29.75 L0 36"/>
    <path stroke="none" fill="#C66A3E" d="M0 36 L12.45 29.75 Q14.1 28.9 16 28.9 17.9 28.9 19.6 29.75 L32 36 44.45 29.75 Q46.1 28.9 48 28.9 49.9 28.9 51.6 29.75 L60 34 60 38 51.6 33.75 Q49.9 32.9 48 32.9 46.1 32.9 44.45 33.75 L32 40 19.6 33.75 Q17.9 32.9 16 32.9 14.1 32.9 12.45 33.75 L0 40 0 36"/>
    <path stroke="none" fill="#46E087" d="M0 8 L0 4 52 4 Q57.4 4.15 59.2 8 59.9 9.65 60 12 L60 16 Q59.9 13.65 59.2 12 57.4 8.15 52 8 L0 8"/>
    <path stroke="none" fill="#EE9366" d="M0 55 L0 40 12.45 33.75 Q14.1 32.9 16 32.9 17.9 32.9 19.6 33.75 L32 40 44.45 33.75 Q46.1 32.9 48 32.9 49.9 32.9 51.6 33.75 L60 38 60 52 59.85 53.8 48 47.9 35.6 54.1 Q33.9 54.95 32 54.95 30.1 54.95 28.45 54.1 L16 47.9 3.6 54.1 Q1.85 54.95 0 55"/>
    <path stroke="none" fill="#20B860" d="M30.35 13.95 L31.2 14.8 Q31.7 15.3 31.7 16 31.7 16.7 31.2 17.2 L30.35 18 Q29.9 18.5 29.2 18.5 28.5 18.5 28 18 L27.2 17.15 Q26.7 16.7 26.7 15.95 26.7 15.3 27.2 14.85 L28 14 Q28.5 13.5 29.15 13.5 29.9 13.5 30.35 13.95"/>
    <path stroke="none" fill="#46E087" d="M8.4 10.8 L9.75 12.15 Q10.55 12.95 10.55 14.05 10.55 15.15 9.75 15.95 L8.4 17.3 Q7.7 18 6.6 18 5.5 18 4.7 17.2 L3.35 15.85 Q2.6 15.15 2.55 14 2.6 12.95 3.35 12.2 L4.7 10.85 Q5.5 10.05 6.5 10 7.7 10.05 8.4 10.8"/>
    <path stroke="none" fill="#DE7E4F" d="M18.95 36.95 L20.3 38.3 Q21.1 39.1 21.1 40.2 21.1 41.3 20.3 42.1 L18.95 43.45 Q18.25 44.15 17.15 44.15 16.05 44.15 15.25 43.35 L13.9 42 Q13.15 41.3 13.1 40.15 13.15 39.1 13.9 38.35 L15.25 37 Q16.05 36.2 17.05 36.15 18.25 36.2 18.95 36.95"/>
    <path stroke="none" fill="#DE7E4F" d="M29.15 41.35 L30 42.2 Q30.5 42.7 30.5 43.4 30.5 44.1 30 44.6 L29.15 45.4 Q28.7 45.9 28 45.9 27.3 45.9 26.8 45.4 L26 44.55 Q25.5 44.1 25.5 43.35 25.5 42.7 26 42.25 L26.8 41.4 Q27.3 40.9 27.95 40.9 28.7 40.9 29.15 41.35"/>
    <path stroke="none" fill="#DE7E4F" d="M10.1 43.85 L10.95 44.7 Q11.45 45.2 11.45 45.9 11.45 46.6 10.95 47.1 L10.1 47.9 Q9.65 48.4 8.95 48.4 8.25 48.4 7.75 47.9 L6.95 47.05 Q6.45 46.6 6.45 45.85 6.45 45.2 6.95 44.75 L7.75 43.9 Q8.25 43.4 8.9 43.4 9.65 43.4 10.1 43.85"/>
  </g>
</svg>