<svg width="64" height="64" xmlns="http://www.w3.org/2000/svg" xmlns:xlink="http://www.w3.org/1999/xlink">
  <defs/>
  <g>
    <path stroke="none" fill="#C66A3E" d="M0 10.9 L12.45 4.65 Q14.1 3.8 16 3.8 17.9 3.8 19.6 4.65 L32 10.9 44.45 4.65 Q46.1 3.8 48 3.8 49.9 3.8 51.6 4.65 L64 10.9 64 20.9 Q62.15 20.85 60.45 20 L48 13.8 35.6 20 Q33.9 20.85 32 20.85 30.1 20.85 28.45 20 L16 13.8 3.6 20 Q1.85 20.85 0 20.9 L0 10.9 M0 36 L12.45 29.75 Q14.1 28.9 16 28.9 17.9 28.9 19.6 29.75 L32 36 44.45 29.75 Q46.1 28.9 48 28.9 49.9 28.9 51.6 29.75 L64 36 64 40 51.6 33.75 Q49.9 32.9 48 32.9 46.1 32.9 44.45 33.75 L32 40 19.6 33.75 Q17.9 32.9 16 32.9 14.1 32.9 12.45 33.75 L0 40 0 36"/>
    <path stroke="none" fill="#DE7E4F" d="M0 36 L0 24.9 Q1.85 24.85 3.6 24 L16 17.8 28.45 24 Q30.1 24.85 32 24.85 33.9 24.85 35.6 24 L48 17.8 60.45 24 Q62.15 24.85 64 24.9 L64 36 51.6 29.75 Q49.9 28.9 48 28.9 46.1 28.9 44.45 29.75 L32 36 19.6 29.75 Q17.9 28.9 16 28.9 14.1 28.9 12.45 29.75 L0 36 M64 10.9 L51.6 4.65 Q49.9 3.8 48 3.8 46.1 3.8 44.45 4.65 L32 10.9 19.6 4.65 Q17.9 3.8 16 3.8 14.1 3.8 12.45 4.65 L0 10.9 0 0 64 0 64 10.9 M64 60 L64 64 0 64 0 60 Q1.85 59.95 3.6 59.1 L16 52.9 28.45 59.1 Q30.1 59.95 32 59.95 33.9 59.95 35.6 59.1 L48 52.9 60.45 59.1 Q62.15 59.95 64 60"/>
    <path stroke="none" fill="#EE9366" d="M64 60 Q62.15 59.95 60.45 59.1 L48 52.9 35.6 59.1 Q33.9 59.95 32 59.95 30.1 59.95 28.45 59.1 L16 52.9 3.6 59.1 Q1.85 59.95 0 60 L0 40 12.45 33.75 Q14.1 32.9 16 32.9 17.9 32.9 19.6 33.75 L32 40 44.45 33.75 Q46.1 32.9 48 32.9 49.9 32.9 51.6 33.75 L64 40 64 60 M0 20.9 Q1.85 20.85 3.6 20 L16 13.8 28.45 20 Q30.1 20.85 32 20.85 33.9 20.85 35.6 20 L48 13.8 60.45 20 Q62.15 20.85 64 20.9 L64 24.9 Q62.15 24.85 60.45 24 L48 17.8 35.6 24 Q33.9 24.85 32 24.85 30.1 24.85 28.45 24 L16 17.8 3.6 24 Q1.85 24.85 0 24.9 L0 20.9"/>
    <path stroke="none" fill="#DE7E4F" d="M36.35 48.8 L37.7 50.15 Q38.5 50.95 38.5 52.05 38.5 53.15 37.7 53.95 L36.35 55.3 Q35.65 56 34.55 56 33.45 56 32.65 55.2 L31.3 53.85 Q30.55 53.15 30.5 52 30.55 50.95 31.3 50.2 L32.65 48.85 Q33.45 48.05 34.45 48 35.65 48.05 36.35 48.8"/>
    <path stroke="none" fill="#DE7E4F" d="M43.65 46.45 L44.5 47.3 Q45 47.8 45 48.5 45 49.2 44.5 49.7 L43.65 50.5 Q43.2 51 42.5 51 41.8 51 41.3 50.5 L40.5 49.65 Q40 49.2 40 48.45 40 47.8 40.5 47.35 L41.3 46.5 Q41.8 46 42.45 46 43.2 46 43.65 46.45"/>
    <path stroke="none" fill="#C66A3E" d="M17.15 21.85 L18 22.7 Q18.5 23.2 18.5 23.9 18.5 24.6 18 25.1 L17.15 25.9 Q16.7 26.4 16 26.4 15.3 26.4 14.8 25.9 L14 25.05 Q13.5 24.6 13.5 23.85 13.5 23.2 14 22.75 L14.8 21.9 Q15.3 21.4 15.95 21.4 16.7 21.4 17.15 21.85"/>
    <path stroke="none" fill="#DE7E4F" d="M25.9 11 L26.75 11.85 Q27.25 12.35 27.25 13.05 27.25 13.75 26.75 14.25 L25.9 15.05 Q25.45 15.55 24.75 15.55 24.05 15.55 23.55 15.05 L22.75 14.2 Q22.25 13.75 22.25 13 22.25 12.35 22.75 11.9 L23.55 11.05 Q24.05 10.55 24.7 10.55 25.45 10.55 25.9 11"/>
    <path stroke="none" fill="#353541" d="M4 0 L4 64 0 64 0 0 4 0"/>
    <path stroke="none" fill="#353541" d="M64 0 L64 64 60 64 60 0 64 0"/>
  </g>
</svg>