<svg width="64" height="64" xmlns="http://www.w3.org/2000/svg" xmlns:xlink="http://www.w3.org/1999/xlink">
  <defs/>
  <g>
    <path stroke="none" fill="#424251" d="M64 52 L64 56 56 52 51.3 49.65 49.6 48.8 32 40 16 32 8 28 0 24 0 20 51.95 46 52 46.05 64 52"/>
    <path stroke="none" fill="#BBC4CB" d="M59.75 64 L4.25 64 Q8 63.9 8 60 L8 58.25 8 51.75 Q7.85 48 4 48 L0 48 0 24 8 28 Q4 28 4 32 L4 36.7 4.05 36.7 Q4.35 39.9 7.75 40 L12.25 40 Q15.65 39.9 16 36.7 L16 32 32 40 32 45.25 32 47.25 Q32.15 51 36 51 L48 51 Q50.3 51 51.3 49.65 L56 52 56 58.25 56 60 Q56 63.9 59.75 64 M15.75 60 L24.25 60 Q28 59.9 28 56 L28 48 Q28 44 24 44 L16 44 Q12 44 12 48 L12 56 Q12 59.9 15.75 60"/>
    <path stroke="none" fill="#5E5E6D" d="M64 40 L64 52 52 46.05 51.95 46 0 20 0 8 64 40"/>
    <path stroke="none" fill="#717180" d="M64 40 L0 8 0 4 64 36 64 40"/>
    <path stroke="none" fill="#353541" d="M0 4 L0 0 64 32 64 36 0 4"/>
    <path stroke="none" fill="#A6B2BB" d="M64 56 L64 62 59.75 62 Q56.1 61.9 56 58.25 L56 52 64 56 M0 62 L0 48 4 48 Q7.85 48 8 51.75 L8 58.25 Q7.9 61.9 4.25 62 L0 62 M8 28 L16 32 16 36.7 Q15.65 39.9 12.25 40 L7.75 40 Q4.35 39.9 4.05 36.7 L4 36.7 4 32 Q4 28 8 28 M49.6 48.8 L51.3 49.65 Q50.3 51 48 51 L36 51 Q32.15 51 32 47.25 L32 45.25 Q32.15 49 36 49 L48 49 49.6 48.8 M15.75 60 Q12 59.9 12 56 L12 48 Q12 44 16 44 L24 44 Q28 44 28 48 L28 56 Q28 59.9 24.25 60 L15.75 60"/>
    <path stroke="none" fill="#CFD5DA" d="M64 62 L64 64 59.75 64 Q56 63.9 56 60 L56 58.25 Q56.1 61.9 59.75 62 L64 62 M4.25 64 L0 64 0 62 4.25 62 Q7.9 61.9 8 58.25 L8 60 Q8 63.9 4.25 64 M32 40 L49.6 48.8 48 49 36 49 Q32.15 49 32 45.25 L32 40"/>
  </g>
</svg>