<svg width="64" height="64" xmlns="http://www.w3.org/2000/svg" xmlns:xlink="http://www.w3.org/1999/xlink">
  <defs/>
  <g>
    <path stroke="none" fill="#353541" d="M0 4 L0 0 52.35 0 52.45 0 Q58.9 0.15 61.75 4 L63.05 6.45 63.05 6.5 63.55 8 64 10.9 64 64 60 64 60 62 60 48 60 24 60 20 60 16 60 12 60 11.65 59.6 8.7 59.4 8.05 59.35 8 Q57.7 4.15 52.35 4 L48 4 44 4 20 4 16 4 0 4"/>
    <path stroke="none" fill="#5E5E6D" d="M0 20 L0 8 16 8 16 16.25 Q15.85 19.4 13.1 19.9 L12 20 0 20 M16 4 L20 4 20 8 44 8 44 4 48 4 48 8 52 8 Q54.9 8.1 56.8 9.25 58.35 10.25 59.2 12 59.9 13.65 60 16 L60 20 52 20 51.65 20 50.35 19.8 50 19.7 Q48.1 18.85 48 16.25 L48 12.8 48 8 44 8 44 24 20 24 20 8 16 8 16 4 M59.35 8 L59.4 8.05 59.6 8.7 60 11.65 60 12 Q59.9 9.7 59.25 8.05 L59.2 8 59.35 8"/>
    <path stroke="none" fill="#717180" d="M59.35 8 L59.2 8 59.25 8.05 Q59.9 9.7 60 12 L60 16 Q59.9 13.65 59.2 12 58.35 10.25 56.8 9.25 54.9 8.1 52 8 L48 8 48 4 52.35 4 Q57.7 4.15 59.35 8 M0 8 L0 4 16 4 16 8 0 8 M20 4 L44 4 44 8 20 8 20 4"/>
    <path stroke="none" fill="#4F4F5D" d="M44 24 L44 8 48 8 48 12.8 48 16.25 47.95 20.9 47.7 22 Q47.2 23.15 46 23.65 L44.3 24 44 24 M16 16.25 L16 8 20 8 20 24 19.85 24 18 23.65 Q16.1 22.85 16 20.25 L16 16.25"/>
    <path stroke="none" fill="#424251" d="M16 16.25 L16 20.25 Q16.1 22.85 18 23.65 L19.85 24 20 24 44 24 44.3 24 46 23.65 Q47.2 23.15 47.7 22 L47.95 20.9 48 16.25 Q48.1 18.85 50 19.7 L50.35 19.8 51.65 20 52 20 60 20 60 24 52 24 50.35 23.8 50 23.7 49.95 23.7 Q48.8 23.15 48.35 22 L48 20.25 48 22 48 24 48 24.25 Q47.95 26.85 46 27.65 L44 28 19.75 28 18 27.65 Q16.1 26.85 16 24.25 L16 24 16 20.25 Q15.9 22.85 14 23.65 L13.1 23.9 12 24 0 24 0 20 12 20 13.1 19.9 Q15.85 19.4 16 16.25"/>
    <path stroke="none" fill="#CFD5DA" d="M60 64 L59.75 64 Q56 63.9 56 60 L56 58.25 Q56.1 61.9 59.75 62 L60 62 60 64 M4.25 64 L0 64 0 62 4.25 62 Q7.9 61.9 8 58.25 L8 60 Q8 63.9 4.25 64 M48 22 L48.35 22 Q48.8 23.15 49.95 23.7 L48 24 48 22 M12 46.25 L12 35.75 Q12.15 32 16 32 L28 32 Q31.85 32 32 35.75 L32 46.25 Q31.85 50 28 50 L16 50 Q12.15 50 12 46.25"/>
    <path stroke="none" fill="#A6B2BB" d="M12 46.25 Q12.15 50 16 50 L28 50 Q31.85 50 32 46.25 L32 48.25 Q31.85 52 28 52 L16 52 Q12.15 52 12 48.25 L12 46.25 M48.25 64 L39.75 64 Q36 63.9 36 60 L36 52 Q36 48 40 48 L48 48 Q52 48 52 52 L52 60 Q52 63.9 48.25 64 M0 62 L0 48 4 48 Q7.85 48 8 51.75 L8 58.25 Q7.9 61.9 4.25 62 L0 62 M60 48 L60 62 59.75 62 Q56.1 61.9 56 58.25 L56 51.75 Q56.15 48 60 48 M48 22 L48 20.25 48.35 22 48 22 M16 24 L15.75 24 14 23.65 Q15.9 22.85 16 20.25 L16 24 M50.75 41 Q47.35 40.9 47.05 37.7 L47 37.7 47 33 Q47 29 51 29 L55 29 Q59 29 59 33 L59 37.7 Q58.65 40.9 55.25 41 L50.75 41"/>
    <path stroke="none" fill="#BBC4CB" d="M50.75 41 L55.25 41 Q58.65 40.9 59 37.7 L59 33 Q59 29 55 29 L51 29 Q47 29 47 33 L47 37.7 47.05 37.7 Q47.35 40.9 50.75 41 M59.75 64 L48.25 64 Q52 63.9 52 60 L52 52 Q52 48 48 48 L40 48 Q36 48 36 52 L36 60 Q36 63.9 39.75 64 L4.25 64 Q8 63.9 8 60 L8 58.25 8 51.75 Q7.85 48 4 48 L0 48 0 24 12 24 13.1 23.9 14 23.65 15.75 24 16 24 16 24.25 Q16.1 26.85 18 27.65 L19.75 28 44 28 46 27.65 Q47.95 26.85 48 24.25 L48 24 49.95 23.7 50 23.7 50.35 23.8 52 24 60 24 60 48 Q56.15 48 56 51.75 L56 58.25 56 60 Q56 63.9 59.75 64 M32 46.25 L32 35.75 Q31.85 32 28 32 L16 32 Q12.15 32 12 35.75 L12 46.25 12 48.25 Q12.15 52 16 52 L28 52 Q31.85 52 32 48.25 L32 46.25"/>
  </g>
</svg>