<svg width="64" height="64" xmlns="http://www.w3.org/2000/svg" xmlns:xlink="http://www.w3.org/1999/xlink">
  <defs/>
  <g>
    <path stroke="none" fill="#C66A3E" d="M29.85 36.95 L37.1 40.55 32 41 Q24.3 41 16.1 36.8 12.6 35 9.05 34.05 4.6 32.9 0 33 L0 29 Q4.6 28.9 9.05 30.05 12.6 31 16.1 32.8 23.15 36.4 29.85 36.95 M57.8 56.3 L58.65 57.15 Q59.15 57.65 59.15 58.35 59.15 59.05 58.65 59.55 L57.8 60.35 56.65 60.85 Q55.95 60.85 55.45 60.35 L54.65 59.5 Q54.15 59.05 54.15 58.3 54.15 57.65 54.65 57.2 L55.45 56.35 Q55.95 55.85 56.6 55.85 57.35 55.85 57.8 56.3"/>
    <path stroke="none" fill="#DE7E4F" d="M57.8 56.3 Q57.35 55.85 56.6 55.85 55.95 55.85 55.45 56.35 L54.65 57.2 Q54.15 57.65 54.15 58.3 54.15 59.05 54.65 59.5 L55.45 60.35 Q55.95 60.85 56.65 60.85 L57.8 60.35 58.65 59.55 Q59.15 59.05 59.15 58.35 59.15 57.65 58.65 57.15 L57.8 56.3 M0 22 L29.85 36.95 Q23.15 36.4 16.1 32.8 12.6 31 9.05 30.05 4.6 28.9 0 29 L0 22 M58.65 51.35 L64 54 64 64 0 64 0 51 Q4.6 50.9 9.05 52.05 12.6 53 16.1 54.8 24.3 59 32 59 36.9 59 42 57.3 44.9 56.35 47.9 54.8 51.4 53 54.95 52.05 L58.65 51.35 M43.8 49.15 L44.65 50 Q45.15 50.5 45.15 51.2 45.15 51.9 44.65 52.4 L43.8 53.2 Q43.35 53.7 42.65 53.7 41.95 53.7 41.45 53.2 L40.65 52.35 Q40.15 51.9 40.15 51.15 40.15 50.5 40.65 50.05 L41.45 49.2 Q41.95 48.7 42.6 48.7 43.35 48.7 43.8 49.15"/>
    <path stroke="none" fill="#F3C7A5" d="M0 8 L64 40 64 50 0 18 0 8"/>
    <path stroke="none" fill="#E7B187" d="M0 22 L0 18 64 50 64 54 58.65 51.35 37.1 40.55 29.85 36.95 0 22"/>
    <path stroke="none" fill="#353541" d="M64 36 L0 4 0 0 64 32 64 36"/>
    <path stroke="none" fill="#FFE0C2" d="M64 36 L64 40 0 8 0 4 64 36"/>
    <path stroke="none" fill="#EE9366" d="M37.1 40.55 L58.65 51.35 54.95 52.05 Q51.4 53 47.9 54.8 44.9 56.35 42 57.3 36.9 59 32 59 24.3 59 16.1 54.8 12.6 53 9.05 52.05 4.6 50.9 0 51 L0 33 Q4.6 32.9 9.05 34.05 12.6 35 16.1 36.8 24.3 41 32 41 L37.1 40.55 M43.8 49.15 Q43.35 48.7 42.6 48.7 41.95 48.7 41.45 49.2 L40.65 50.05 Q40.15 50.5 40.15 51.15 40.15 51.9 40.65 52.35 L41.45 53.2 Q41.95 53.7 42.65 53.7 43.35 53.7 43.8 53.2 L44.65 52.4 Q45.15 51.9 45.15 51.2 45.15 50.5 44.65 50 L43.8 49.15"/>
  </g>
</svg>