<svg width="64" height="64" xmlns="http://www.w3.org/2000/svg" xmlns:xlink="http://www.w3.org/1999/xlink">
  <defs/>
  <g>
    <path stroke="none" fill="#353541" d="M0 4 L0 0 64 0 64 4 48 4 44 4 20 4 16 4 0 4"/>
    <path stroke="none" fill="#5E5E6D" d="M64 8 L64 20 52 20 50.35 19.8 Q48.1 19.1 48 16.25 L48 16 48 12.8 48 8 44 8 44 24 20 24 20 8 16 8 16 16.25 Q15.9 18.85 14 19.65 L13.1 19.9 12.35 20 12 20 0 20 0 8 16 8 16 4 20 4 20 8 44 8 44 4 48 4 48 8 64 8"/>
    <path stroke="none" fill="#4F4F5D" d="M44 24 L44 8 48 8 48 12.8 48 16 48 16.25 47.95 20.9 Q47.7 22.95 46 23.65 L44 24 M16 16.25 L16 8 20 8 20 24 19.85 24 18 23.65 Q16.85 23.15 16.35 22 L16 20.25 16 16.25"/>
    <path stroke="none" fill="#424251" d="M16 16.25 L16 20.25 16.35 22 Q16.85 23.15 18 23.65 L19.85 24 20 24 44 24 46 23.65 Q47.7 22.95 47.95 20.9 L48 16.25 Q48.1 19.1 50.35 19.8 L52 20 64 20 64 24 52 24 50.35 23.8 Q48.1 23.1 48 20.25 L48 24 48 24.25 Q47.95 26.85 46 27.65 L44 28 20 28 18 27.65 Q16.1 26.85 16 24.25 L16 24 16 22 16 20.25 15.65 22 Q15.15 23.15 14 23.65 L13.1 23.9 12 24 0 24 0 20 12 20 12.35 20 13.1 19.9 14 19.65 Q15.9 18.85 16 16.25"/>
    <path stroke="none" fill="#BBC4CB" d="M64 24 L64 48 60 48 Q56.15 48 56 51.75 L56 58.25 56 60 Q56 63.9 59.75 64 L4.25 64 Q8 63.9 8 60 L8 58.25 8 51.75 Q7.85 48 4 48 L0 48 0 24 12 24 13.1 23.9 14 23.65 16 24 16 24.25 Q16.1 26.85 18 27.65 L20 28 44 28 46 27.65 Q47.95 26.85 48 24.25 L48 24 48 20.25 Q48.1 23.1 50.35 23.8 L52 24 64 24 M52 45.25 L52 34.75 Q51.85 31 48 31 L36 31 Q32.15 31 32 34.75 L32 45.25 32 47.25 Q32.15 51 36 51 L48 51 Q51.85 51 52 47.25 L52 45.25 M15.75 60 L24.25 60 Q28 59.9 28 56 L28 48 Q28 44 24 44 L16 44 Q12 44 12 48 L12 56 Q12 59.9 15.75 60 M7.75 40 L12.25 40 Q15.65 39.9 16 36.7 L16 32 Q16 28 12 28 L8 28 Q4 28 4 32 L4 36.7 4.05 36.7 Q4.35 39.9 7.75 40"/>
    <path stroke="none" fill="#CFD5DA" d="M64 62 L64 64 59.75 64 Q56 63.9 56 60 L56 58.25 Q56.1 61.9 59.75 62 L64 62 M4.25 64 L0 64 0 62 4.25 62 Q7.9 61.9 8 58.25 L8 60 Q8 63.9 4.25 64 M16 24 L14 23.65 Q15.15 23.15 15.65 22 L16 22 16 24 M32 45.25 L32 34.75 Q32.15 31 36 31 L48 31 Q51.85 31 52 34.75 L52 45.25 Q51.85 49 48 49 L36 49 Q32.15 49 32 45.25"/>
    <path stroke="none" fill="#717180" d="M64 4 L64 8 48 8 48 4 64 4 M0 8 L0 4 16 4 16 8 0 8 M20 4 L44 4 44 8 20 8 20 4"/>
    <path stroke="none" fill="#A6B2BB" d="M64 48 L64 62 59.75 62 Q56.1 61.9 56 58.25 L56 51.75 Q56.15 48 60 48 L64 48 M0 62 L0 48 4 48 Q7.85 48 8 51.75 L8 58.25 Q7.9 61.9 4.25 62 L0 62 M52 45.25 L52 47.25 Q51.85 51 48 51 L36 51 Q32.15 51 32 47.25 L32 45.25 Q32.15 49 36 49 L48 49 Q51.85 49 52 45.25 M16 20.25 L16 22 15.65 22 16 20.25 M7.75 40 Q4.35 39.9 4.05 36.7 L4 36.7 4 32 Q4 28 8 28 L12 28 Q16 28 16 32 L16 36.7 Q15.65 39.9 12.25 40 L7.75 40 M15.75 60 Q12 59.9 12 56 L12 48 Q12 44 16 44 L24 44 Q28 44 28 48 L28 56 Q28 59.9 24.25 60 L15.75 60"/>
  </g>
</svg>