<svg width="64" height="64" xmlns="http://www.w3.org/2000/svg" xmlns:xlink="http://www.w3.org/1999/xlink">
  <defs/>
  <g>
    <path stroke="none" fill="#353541" d="M60 0 L64 0 64 4 60 0"/>
    <path stroke="none" fill="#EE9366" d="M60 0 L64 4 64 8 56 0 60 0"/>
    <path stroke="none" fill="#C66A3E" d="M64 24 L64 28 59.55 23.55 51.6 15.6 41.95 5.95 36 0 40 0 64 24"/>
    <path stroke="none" fill="#BBC4CB" d="M64 28 L64 36 51.6 29.75 Q49.9 28.9 48 28.9 46.1 28.9 44.45 29.75 L32 36 19.6 29.75 Q17.9 28.9 16 28.9 14.1 28.9 12.45 29.75 L0 36 0 24.9 Q1.85 24.85 3.6 24 L16 17.8 28.45 24 Q30.1 24.85 32 24.85 33.9 24.85 35.6 24 L48 17.8 59.55 23.55 64 28 M64 60 L64 64 0 64 0 60 Q1.85 59.95 3.6 59.1 L16 52.9 28.45 59.1 Q30.1 59.95 32 59.95 33.9 59.95 35.6 59.1 L48 52.9 60.45 59.1 Q62.15 59.95 64 60 M0 10.9 L0 0 36 0 41.95 5.95 32 10.9 19.6 4.65 Q17.9 3.8 16 3.8 14.1 3.8 12.45 4.65 L0 10.9"/>
    <path stroke="none" fill="#CFD5DA" d="M64 40 L64 60 Q62.15 59.95 60.45 59.1 L48 52.9 35.6 59.1 Q33.9 59.95 32 59.95 30.1 59.95 28.45 59.1 L16 52.9 3.6 59.1 Q1.85 59.95 0 60 L0 40 12.45 33.75 Q14.1 32.9 16 32.9 17.9 32.9 19.6 33.75 L32 40 44.45 33.75 Q46.1 32.9 48 32.9 49.9 32.9 51.6 33.75 L64 40 M0 24.9 L0 20.9 Q1.85 20.85 3.6 20 L16 13.8 28.45 20 Q30.1 20.85 32 20.85 33.9 20.85 35.6 20 L48 13.8 51.6 15.6 59.55 23.55 48 17.8 35.6 24 Q33.9 24.85 32 24.85 30.1 24.85 28.45 24 L16 17.8 3.6 24 Q1.85 24.85 0 24.9"/>
    <path stroke="none" fill="#A6B2BB" d="M64 36 L64 40 51.6 33.75 Q49.9 32.9 48 32.9 46.1 32.9 44.45 33.75 L32 40 19.6 33.75 Q17.9 32.9 16 32.9 14.1 32.9 12.45 33.75 L0 40 0 36 12.45 29.75 Q14.1 28.9 16 28.9 17.9 28.9 19.6 29.75 L32 36 44.45 29.75 Q46.1 28.9 48 28.9 49.9 28.9 51.6 29.75 L64 36 M0 20.9 L0 10.9 12.45 4.65 Q14.1 3.8 16 3.8 17.9 3.8 19.6 4.65 L32 10.9 41.95 5.95 51.6 15.6 48 13.8 35.6 20 Q33.9 20.85 32 20.85 30.1 20.85 28.45 20 L16 13.8 3.6 20 Q1.85 20.85 0 20.9"/>
    <path stroke="none" fill="#DE7E4F" d="M64 8 L64 24 40 0 56 0 64 8"/>
    <path stroke="none" fill="#BBC4CB" d="M56.3 40.8 L57.65 42.15 Q58.45 42.95 58.45 44.05 58.45 45.15 57.65 45.95 L56.3 47.3 Q55.6 48 54.5 48 53.4 48 52.6 47.2 L51.25 45.85 Q50.5 45.15 50.45 44 50.5 42.95 51.25 42.2 L52.6 40.85 Q53.4 40.05 54.4 40 55.6 40.05 56.3 40.8"/>
    <path stroke="none" fill="#BBC4CB" d="M45.6 40.45 L46.45 41.3 Q46.95 41.8 46.95 42.5 46.95 43.2 46.45 43.7 L45.6 44.5 Q45.15 45 44.45 45 43.75 45 43.25 44.5 L42.45 43.65 Q41.95 43.2 41.95 42.45 41.95 41.8 42.45 41.35 L43.25 40.5 Q43.75 40 44.4 40 45.15 40 45.6 40.45"/>
    <path stroke="none" fill="#A6B2BB" d="M16.5 21.85 L17.35 22.7 Q17.85 23.2 17.85 23.9 17.85 24.6 17.35 25.1 L16.5 25.9 Q16.05 26.4 15.35 26.4 14.65 26.4 14.15 25.9 L13.35 25.05 Q12.85 24.6 12.85 23.85 12.85 23.2 13.35 22.75 L14.15 21.9 Q14.65 21.4 15.3 21.4 16.05 21.4 16.5 21.85"/>
  </g>
</svg>