<svg width="64" height="64" xmlns="http://www.w3.org/2000/svg" xmlns:xlink="http://www.w3.org/1999/xlink">
  <defs/>
  <g>
    <path stroke="none" fill="#353541" d="M0.05 10.9 Q0.2 8.35 0.95 6.5 L0.95 6.45 Q3.3 0.2 11.55 0 L11.65 0 52.35 0 52.45 0 Q60.7 0.2 63.05 6.45 L63.05 6.5 Q63.8 8.35 64 10.9 L64 64 60 64 60 58.9 60 38 60 34 60 26 60 22 60 15.5 60 11.65 59.6 8.7 59.35 8 Q57.7 4.15 52.35 4 L11.65 4 Q6.3 4.15 4.65 8 L4.45 8.7 Q4.05 9.95 4 11.65 L4 15.5 4 22 4 26 4 34 4 38 4 58.9 4 64 0 64 0 11.45 0.05 10.9"/>
    <path stroke="none" fill="#C66A3E" d="M4 26 L4 22 16 16 32 24 48 16 60 22 60 26 48 20 32 28 16 20 4 26"/>
    <path stroke="none" fill="#BBC4CB" d="M4 26 L16 20 32 28 48 20 60 26 60 34 51.6 29.75 Q49.9 28.9 48 28.9 46.1 28.9 44.45 29.75 L32 36 19.55 29.75 Q17.9 28.9 16 28.9 14.1 28.9 12.4 29.75 L4 34 4 26 M4 64 L4 58.9 16 52.9 28.4 59.1 29.6 59.6 30 59.7 32 59.95 Q33.9 59.95 35.6 59.1 L48 52.9 60 58.9 60 64 4 64"/>
    <path stroke="none" fill="#A6B2BB" d="M0.05 10.9 L0 11.45 0 10.9 0.05 10.9 M4 38 L4 34 12.4 29.75 Q14.1 28.9 16 28.9 17.9 28.9 19.55 29.75 L32 36 44.45 29.75 Q46.1 28.9 48 28.9 49.9 28.9 51.6 29.75 L60 34 60 38 51.6 33.75 Q49.9 32.9 48 32.9 46.1 32.9 44.45 33.75 L32 40 19.55 33.75 Q17.9 32.9 16 32.9 14.1 32.9 12.4 33.75 L4 38"/>
    <path stroke="none" fill="#DE7E4F" d="M4 22 L4 15.5 Q4.25 8.2 11.55 8 L52.45 8 Q59.75 8.2 60 15.5 L60 22 48 16 32 24 16 16 4 22"/>
    <path stroke="none" fill="#EE9366" d="M4 15.5 L4 11.65 Q4.05 9.95 4.45 8.7 L4.65 8 Q6.3 4.15 11.65 4 L52.35 4 Q57.7 4.15 59.35 8 L59.6 8.7 60 11.65 60 15.5 Q59.75 8.2 52.45 8 L11.55 8 Q4.25 8.2 4 15.5"/>
    <path stroke="none" fill="#CFD5DA" d="M4 58.9 L4 38 12.4 33.75 Q14.1 32.9 16 32.9 17.9 32.9 19.55 33.75 L32 40 44.45 33.75 Q46.1 32.9 48 32.9 49.9 32.9 51.6 33.75 L60 38 60 58.9 48 52.9 35.6 59.1 Q33.9 59.95 32 59.95 L30 59.7 29.6 59.6 28.4 59.1 16 52.9 4 58.9"/>
    <path stroke="none" fill="#BBC4CB" d="M34.65 46.85 L36 48.2 Q36.8 49 36.8 50.1 36.8 51.2 36 52 L34.65 53.35 Q33.95 54.05 32.85 54.05 31.75 54.05 30.95 53.25 L29.6 51.9 Q28.85 51.2 28.8 50.05 28.85 49 29.6 48.25 L30.95 46.9 Q31.75 46.1 32.75 46.05 33.95 46.1 34.65 46.85"/>
    <path stroke="none" fill="#BBC4CB" d="M23.95 46.5 L24.8 47.35 Q25.3 47.85 25.3 48.55 25.3 49.25 24.8 49.75 L23.95 50.55 Q23.5 51.05 22.8 51.05 22.1 51.05 21.6 50.55 L20.8 49.7 Q20.3 49.25 20.3 48.5 20.3 47.85 20.8 47.4 L21.6 46.55 Q22.1 46.05 22.75 46.05 23.5 46.05 23.95 46.5"/>
    <path stroke="none" fill="#BBC4CB" d="M49.15 37.95 L50 38.8 Q50.5 39.3 50.5 40 50.5 40.7 50 41.2 L49.15 42 Q48.7 42.5 48 42.5 47.3 42.5 46.8 42 L46 41.15 Q45.5 40.7 45.5 39.95 45.5 39.3 46 38.85 L46.8 38 Q47.3 37.5 47.95 37.5 48.7 37.5 49.15 37.95"/>
    <path stroke="none" fill="#A6B2BB" d="M48.25 56.15 L49.1 57 Q49.6 57.5 49.6 58.2 49.6 58.9 49.1 59.4 L48.25 60.2 Q47.8 60.7 47.1 60.7 46.4 60.7 45.9 60.2 L45.1 59.35 Q44.6 58.9 44.6 58.15 44.6 57.5 45.1 57.05 L45.9 56.2 Q46.4 55.7 47.05 55.7 47.8 55.7 48.25 56.15"/>
    <path stroke="none" fill="#C66A3E" d="M28.95 13.95 L29.8 14.8 Q30.3 15.3 30.3 16 30.3 16.7 29.8 17.2 L28.95 18 Q28.5 18.5 27.8 18.5 27.1 18.5 26.6 18 L25.8 17.15 Q25.3 16.7 25.3 15.95 25.3 15.3 25.8 14.85 L26.6 14 Q27.1 13.5 27.75 13.5 28.5 13.5 28.95 13.95"/>
  </g>
</svg>