<svg width="64" height="64" xmlns="http://www.w3.org/2000/svg" xmlns:xlink="http://www.w3.org/1999/xlink">
  <defs/>
  <g>
    <path stroke="none" fill="#353541" d="M0 4 L0 0 52 0 52.1 0 Q60.25 0.2 62.85 6.3 L62.9 6.45 Q63.85 8.65 64 11.85 L64 12 64 26 64 26.1 Q63.9 30.5 63 34.45 L61.9 38.4 61.85 38.45 Q58.95 46.3 52.35 51.9 L52.3 51.9 Q39.1 63.15 9.8 64 L9.65 64 0 64 0 60 9.65 60 Q37.25 59.2 49.75 48.8 55.55 43.95 58.1 37.05 L59.1 33.55 Q59.9 30 60 26 L60 22 60 16 60 12 Q59.9 9.65 59.2 8 57.4 4.15 52 4 L0 4"/>
    <path stroke="none" fill="#DE7E4F" d="M0 60 L0 55 Q1.85 54.95 3.6 54.1 L16 47.9 28.45 54.1 Q30.1 54.95 32 54.95 33.9 54.95 35.6 54.1 L48 47.9 49.75 48.8 Q37.25 59.2 9.65 60 L0 60 M0 36 L0 28 16 20 32 28 48 20 60 26 Q59.9 30 59.1 33.55 L51.6 29.75 Q49.9 28.9 48 28.9 46.1 28.9 44.45 29.75 L32 36 19.6 29.75 Q17.9 28.9 16 28.9 14.1 28.9 12.45 29.75 L0 36"/>
    <path stroke="none" fill="#C66A3E" d="M0 36 L12.45 29.75 Q14.1 28.9 16 28.9 17.9 28.9 19.6 29.75 L32 36 44.45 29.75 Q46.1 28.9 48 28.9 49.9 28.9 51.6 29.75 L59.1 33.55 58.1 37.05 51.6 33.75 Q49.9 32.9 48 32.9 L47.85 32.9 Q46 32.95 44.45 33.75 L32 40 19.6 33.75 Q17.9 32.9 16 32.9 14.1 32.9 12.45 33.75 L0 40 0 36"/>
    <path stroke="none" fill="#2ECC71" d="M0 24 L0 8 52 8 Q57.4 8.15 59.2 12 59.9 13.65 60 16 L60 22 48 16 32 24 16 16 0 24"/>
    <path stroke="none" fill="#20B860" d="M0 24 L16 16 32 24 48 16 60 22 60 26 48 20 32 28 16 20 0 28 0 24"/>
    <path stroke="none" fill="#46E087" d="M0 8 L0 4 52 4 Q57.4 4.15 59.2 8 59.9 9.65 60 12 L60 16 Q59.9 13.65 59.2 12 57.4 8.15 52 8 L0 8"/>
    <path stroke="none" fill="#EE9366" d="M0 55 L0 40 12.45 33.75 Q14.1 32.9 16 32.9 17.9 32.9 19.6 33.75 L32 40 44.45 33.75 Q46 32.95 47.85 32.9 L48 32.9 Q49.9 32.9 51.6 33.75 L58.1 37.05 Q55.55 43.95 49.75 48.8 L48 47.9 35.6 54.1 Q33.9 54.95 32 54.95 30.1 54.95 28.45 54.1 L16 47.9 3.6 54.1 Q1.85 54.95 0 55"/>
    <path stroke="none" fill="#20B860" d="M6.35 13.95 L7.2 14.8 Q7.7 15.3 7.7 16 7.7 16.7 7.2 17.2 L6.35 18 Q5.9 18.5 5.2 18.5 4.5 18.5 4 18 L3.2 17.15 Q2.7 16.7 2.7 15.95 2.7 15.3 3.2 14.85 L4 14 Q4.5 13.5 5.15 13.5 5.9 13.5 6.35 13.95"/>
    <path stroke="none" fill="#46E087" d="M40.4 10.8 L41.75 12.15 Q42.55 12.95 42.55 14.05 42.55 15.15 41.75 15.95 L40.4 17.3 Q39.7 18 38.6 18 37.5 18 36.7 17.2 L35.35 15.85 Q34.6 15.15 34.55 14 34.6 12.95 35.35 12.2 L36.7 10.85 Q37.5 10.05 38.5 10 39.7 10.05 40.4 10.8"/>
    <path stroke="none" fill="#DE7E4F" d="M30.9 45.95 L31.75 46.8 Q32.25 47.3 32.25 48 32.25 48.7 31.75 49.2 L30.9 50 Q30.45 50.5 29.75 50.5 29.05 50.5 28.55 50 L27.75 49.15 Q27.25 48.7 27.25 47.95 27.25 47.3 27.75 46.85 L28.55 46 Q29.05 45.5 29.7 45.5 30.45 45.5 30.9 45.95"/>
    <path stroke="none" fill="#DE7E4F" d="M39.15 42.05 L40 42.9 Q40.5 43.4 40.5 44.1 40.5 44.8 40 45.3 L39.15 46.1 Q38.7 46.6 38 46.6 37.3 46.6 36.8 46.1 L36 45.25 Q35.5 44.8 35.5 44.05 35.5 43.4 36 42.95 L36.8 42.1 Q37.3 41.6 37.95 41.6 38.7 41.6 39.15 42.05"/>
  </g>
</svg>