<svg width="64" height="64" xmlns="http://www.w3.org/2000/svg" xmlns:xlink="http://www.w3.org/1999/xlink">
  <defs/>
  <g>
    <path stroke="none" fill="#353541" d="M0 4 L0 0 52 0 52.15 0 Q60.3 0.25 62.8 6.35 L62.85 6.35 Q63.9 8.65 64 11.9 L64 12 64 39.8 Q64.2 44.35 61.95 46.2 59.85 48.7 55.3 47.9 L54.2 47.55 49.8 45.35 Q48.95 44.9 48 44.9 L46.3 45.3 46.25 45.35 33.8 51.6 32 52 Q31.05 52 30.2 51.6 24 48.5 17.8 45.35 16.95 44.9 16 44.9 L14.3 45.3 14.25 45.35 1.8 51.6 0 52 0 48 12.45 41.75 Q14.1 40.9 16 40.9 17.9 40.9 19.6 41.75 L32 48 44.45 41.75 Q46.1 40.9 48 40.9 49.9 40.9 51.6 41.75 L56 43.95 Q60.25 44.7 60 40 L60 36 60 32 60 26 60 22 60 16 60 12 Q59.9 9.65 59.2 8 57.4 4.15 52 4 L0 4"/>
    <path stroke="none" fill="#A6B2BB" d="M0 38 L0 34 12.45 27.75 Q14.1 26.9 16 26.9 17.9 26.9 19.6 27.75 L32 34 44.45 27.75 Q46.1 26.9 48 26.9 49.9 26.9 51.6 27.75 L60 32 60 36 51.6 31.75 Q49.9 30.9 48 30.9 46.1 30.9 44.45 31.75 L32 38 19.6 31.75 Q17.9 30.9 16 30.9 14.1 30.9 12.45 31.75 L0 38"/>
    <path stroke="none" fill="#CFD5DA" d="M0 38 L12.45 31.75 Q14.1 30.9 16 30.9 17.9 30.9 19.6 31.75 L32 38 44.45 31.75 Q46.1 30.9 48 30.9 49.9 30.9 51.6 31.75 L60 36 60 40 Q60.25 44.7 56 43.95 L51.6 41.75 Q49.9 40.9 48 40.9 46.1 40.9 44.45 41.75 L32 48 19.6 41.75 Q17.9 40.9 16 40.9 14.1 40.9 12.45 41.75 L0 48 0 38"/>
    <path stroke="none" fill="#BBC4CB" d="M0 34 L0 28 16 20 32 28 48 20 60 26 60 32 51.6 27.75 Q49.9 26.9 48 26.9 46.1 26.9 44.45 27.75 L32 34 19.6 27.75 Q17.9 26.9 16 26.9 14.1 26.9 12.45 27.75 L0 34"/>
    <path stroke="none" fill="#C66A3E" d="M0 28 L0 24 16 16 32 24 48 16 60 22 60 26 48 20 32 28 16 20 0 28"/>
    <path stroke="none" fill="#DE7E4F" d="M0 24 L0 8 52 8 Q59.75 8.25 60 16 L60 22 48 16 32 24 16 16 0 24"/>
    <path stroke="none" fill="#EE9366" d="M0 8 L0 4 52 4 Q57.4 4.15 59.2 8 59.9 9.65 60 12 L60 16 Q59.75 8.25 52 8 L0 8"/>
    <path stroke="none" fill="#C66A3E" d="M54.4 10.95 L55.25 11.8 Q55.75 12.3 55.75 13 55.75 13.7 55.25 14.2 L54.4 15 Q53.95 15.5 53.25 15.5 52.55 15.5 52.05 15 L51.25 14.15 Q50.75 13.7 50.75 12.95 50.75 12.3 51.25 11.85 L52.05 11 Q52.55 10.5 53.2 10.5 53.95 10.5 54.4 10.95"/>
  </g>
</svg>