<svg width="64" height="64" xmlns="http://www.w3.org/2000/svg" xmlns:xlink="http://www.w3.org/1999/xlink">
  <defs/>
  <g>
    <path stroke="none" fill="#C66A3E" d="M0 10.9 L12.45 4.65 Q14.1 3.8 16 3.8 17.9 3.8 19.6 4.65 L32 10.9 44.45 4.65 Q46.1 3.8 48 3.8 49.9 3.8 51.6 4.65 L64 10.9 64 20.9 Q62.15 20.85 60.45 20 L48 13.8 35.6 20 Q33.9 20.85 32 20.85 30.1 20.85 28.45 20 L16 13.8 3.6 20 Q1.85 20.85 0 20.9 L0 10.9 M0 36 L12.45 29.75 Q14.1 28.9 16 28.9 17.9 28.9 19.6 29.75 L32 36 44.45 29.75 Q46.1 28.9 48 28.9 49.9 28.9 51.6 29.75 L64 36 64 40 51.6 33.75 Q49.9 32.9 48 32.9 46.1 32.9 44.45 33.75 L32 40 19.6 33.75 Q17.9 32.9 16 32.9 14.1 32.9 12.45 33.75 L0 40 0 36"/>
    <path stroke="none" fill="#DE7E4F" d="M0 36 L0 24.9 Q1.85 24.85 3.6 24 L16 17.8 28.45 24 Q30.1 24.85 32 24.85 33.9 24.85 35.6 24 L48 17.8 60.45 24 Q62.15 24.85 64 24.9 L64 36 51.6 29.75 Q49.9 28.9 48 28.9 46.1 28.9 44.45 29.75 L32 36 19.6 29.75 Q17.9 28.9 16 28.9 14.1 28.9 12.45 29.75 L0 36 M64 10.9 L51.6 4.65 Q49.9 3.8 48 3.8 46.1 3.8 44.45 4.65 L32 10.9 19.6 4.65 Q17.9 3.8 16 3.8 14.1 3.8 12.45 4.65 L0 10.9 0 0 64 0 64 10.9 M64 60 L64 64 0 64 0 60 Q1.85 59.95 3.6 59.1 L16 52.9 28.45 59.1 Q30.1 59.95 32 59.95 33.9 59.95 35.6 59.1 L48 52.9 60.45 59.1 Q62.15 59.95 64 60"/>
    <path stroke="none" fill="#EE9366" d="M64 60 Q62.15 59.95 60.45 59.1 L48 52.9 35.6 59.1 Q33.9 59.95 32 59.95 30.1 59.95 28.45 59.1 L16 52.9 3.6 59.1 Q1.85 59.95 0 60 L0 40 12.45 33.75 Q14.1 32.9 16 32.9 17.9 32.9 19.6 33.75 L32 40 44.45 33.75 Q46.1 32.9 48 32.9 49.9 32.9 51.6 33.75 L64 40 64 60 M0 20.9 Q1.85 20.85 3.6 20 L16 13.8 28.45 20 Q30.1 20.85 32 20.85 33.9 20.85 35.6 20 L48 13.8 60.45 20 Q62.15 20.85 64 20.9 L64 24.9 Q62.15 24.85 60.45 24 L48 17.8 35.6 24 Q33.9 24.85 32 24.85 30.1 24.85 28.45 24 L16 17.8 3.6 24 Q1.85 24.85 0 24.9 L0 20.9"/>
    <path stroke="none" fill="#DE7E4F" d="M9.85 43.3 L11.2 44.65 Q12 45.45 12 46.55 12 47.65 11.2 48.45 L9.85 49.8 Q9.15 50.5 8.05 50.5 6.95 50.5 6.15 49.7 L4.8 48.35 Q4.05 47.65 4 46.5 4.05 45.45 4.8 44.7 L6.15 43.35 Q6.95 42.55 7.95 42.5 9.15 42.55 9.85 43.3"/>
    <path stroke="none" fill="#C66A3E" d="M50.15 57.45 L51 58.3 Q51.5 58.8 51.5 59.5 51.5 60.2 51 60.7 L50.15 61.5 Q49.7 62 49 62 48.3 62 47.8 61.5 L47 60.65 Q46.5 60.2 46.5 59.45 46.5 58.8 47 58.35 L47.8 57.5 Q48.3 57 48.95 57 49.7 57 50.15 57.45"/>
    <path stroke="none" fill="#C66A3E" d="M49.15 21.35 L50 22.2 Q50.5 22.7 50.5 23.4 50.5 24.1 50 24.6 L49.15 25.4 Q48.7 25.9 48 25.9 47.3 25.9 46.8 25.4 L46 24.55 Q45.5 24.1 45.5 23.35 45.5 22.7 46 22.25 L46.8 21.4 Q47.3 20.9 47.95 20.9 48.7 20.9 49.15 21.35"/>
    <path stroke="none" fill="#DE7E4F" d="M38.65 11.35 L39.5 12.2 Q40 12.7 40 13.4 40 14.1 39.5 14.6 L38.65 15.4 Q38.2 15.9 37.5 15.9 36.8 15.9 36.3 15.4 L35.5 14.55 Q35 14.1 35 13.35 35 12.7 35.5 12.25 L36.3 11.4 Q36.8 10.9 37.45 10.9 38.2 10.9 38.65 11.35"/>
    <path stroke="none" fill="#353541" d="M64 0 L64 64 60 64 60 0 64 0"/>
  </g>
</svg>