<svg width="64" height="64" xmlns="http://www.w3.org/2000/svg" xmlns:xlink="http://www.w3.org/1999/xlink">
  <defs/>
  <g>
    <path stroke="none" fill="#353541" d="M0 4 L0 0 64 64 60 64 0 4"/>
    <path stroke="none" fill="#BA6BE9" d="M56 64 L46 64 0 18 0 8 56 64"/>
    <path stroke="none" fill="#A452D4" d="M46 64 L42 64 29.35 51.35 18.55 40.55 14.95 36.95 0 22 0 18 46 64"/>
    <path stroke="none" fill="#D699FA" d="M60 64 L56 64 0 8 0 4 60 64"/>
    <path stroke="none" fill="#A6B2BB" d="M0 33 L0 29 Q2.3 28.9 4.55 30.05 6.3 31 8.05 32.8 11.6 36.4 14.95 36.95 L18.55 40.55 16 41 Q12.15 41 8.05 36.8 6.3 35 4.55 34.05 2.3 32.9 0 33"/>
    <path stroke="none" fill="#CFD5DA" d="M0 33 Q2.3 32.9 4.55 34.05 6.3 35 8.05 36.8 12.15 41 16 41 L18.55 40.55 29.35 51.35 27.5 52.05 Q25.7 53 23.95 54.8 L21 57.3 Q18.45 59 16 59 12.15 59 8.05 54.8 6.3 53 4.55 52.05 2.3 50.9 0 51 L0 33"/>
    <path stroke="none" fill="#BBC4CB" d="M42 64 L0 64 0 51 Q2.3 50.9 4.55 52.05 6.3 53 8.05 54.8 12.15 59 16 59 18.45 59 21 57.3 L23.95 54.8 Q25.7 53 27.5 52.05 L29.35 51.35 42 64 M0 29 L0 22 14.95 36.95 Q11.6 36.4 8.05 32.8 6.3 31 4.55 30.05 2.3 28.9 0 29"/>
  </g>
</svg>