<svg width="64" height="64" xmlns="http://www.w3.org/2000/svg" xmlns:xlink="http://www.w3.org/1999/xlink">
  <defs/>
  <g>
    <path stroke="none" fill="#353541" d="M52 0 L52.15 0 Q60.3 0.25 62.8 6.35 L62.85 6.35 Q63.9 8.65 64 11.9 L64 12 64 52 64 52.15 63.8 54.5 Q62.35 63.65 52.15 64 L52 64 12 64 11.85 64 Q1.65 63.65 0.2 54.5 L0 52.15 0 52 0 12 0 11.9 Q0.1 8.65 1.15 6.35 L1.2 6.35 Q3.7 0.25 11.85 0 L12 0 52 0 M60 34 L60 26 60 22 60 16 60 12 Q59.9 9.65 59.2 8 57.4 4.15 52 4 L12 4 Q6.6 4.15 4.8 8 4.1 9.65 4 12 L4 16 4 22 4 26 4 34 4 38 4 52 4.15 53.8 Q5.2 59.8 12 60 L52 60 Q58.8 59.8 59.85 53.8 L60 52 60 38 60 34"/>
    <path stroke="none" fill="#BBC4CB" d="M60 34 L51.6 29.75 Q49.9 28.9 48 28.9 46.1 28.9 44.45 29.75 L32 36 21.15 30.55 20.75 30.35 20.45 30.2 19.55 29.75 18.7 29.4 Q17.4 28.9 16 28.9 L15 28.95 12.4 29.75 4 34 4 26 16 20 32 28 48 20 60 26 60 34 M59.85 53.8 Q58.8 59.8 52 60 L12 60 Q5.2 59.8 4.15 53.8 L16 47.9 26.85 53.35 27.25 53.55 27.55 53.7 28.4 54.1 29.25 54.5 31.9 54.95 32 54.95 Q33.9 54.95 35.6 54.1 L48 47.9 59.85 53.8"/>
    <path stroke="none" fill="#A6B2BB" d="M4 34 L12.4 29.75 15 28.95 16 28.9 Q17.4 28.9 18.7 29.4 L19.55 29.75 20.45 30.2 20.75 30.35 21.15 30.55 32 36 44.45 29.75 Q46.1 28.9 48 28.9 49.9 28.9 51.6 29.75 L60 34 60 38 51.6 33.75 Q49.9 32.9 48 32.9 46.1 32.9 44.45 33.75 L32 40 21.15 34.55 20.75 34.35 20.45 34.2 19.55 33.75 18.7 33.4 Q17.4 32.9 16 32.9 L15 32.95 12.4 33.75 4 38 4 34"/>
    <path stroke="none" fill="#C66A3E" d="M60 26 L48 20 32 28 16 20 4 26 4 22 16 16 32 24 48 16 60 22 60 26"/>
    <path stroke="none" fill="#DE7E4F" d="M60 22 L48 16 32 24 16 16 4 22 4 16 Q4.1 13.65 4.8 12 6.6 8.15 12 8 L52 8 Q57.4 8.15 59.2 12 59.9 13.65 60 16 L60 22"/>
    <path stroke="none" fill="#EE9366" d="M60 16 Q59.9 13.65 59.2 12 57.4 8.15 52 8 L12 8 Q6.6 8.15 4.8 12 4.1 13.65 4 16 L4 12 Q4.1 9.65 4.8 8 6.6 4.15 12 4 L52 4 Q57.4 4.15 59.2 8 59.9 9.65 60 12 L60 16"/>
    <path stroke="none" fill="#CFD5DA" d="M4 38 L12.4 33.75 15 32.95 16 32.9 Q17.4 32.9 18.7 33.4 L19.55 33.75 20.45 34.2 20.75 34.35 21.15 34.55 32 40 44.45 33.75 Q46.1 32.9 48 32.9 49.9 32.9 51.6 33.75 L60 38 60 52 59.85 53.8 48 47.9 35.6 54.1 Q33.9 54.95 32 54.95 L31.9 54.95 29.25 54.5 28.4 54.1 27.55 53.7 27.25 53.55 26.85 53.35 16 47.9 4.15 53.8 4 52 4 38"/>
    <path stroke="none" fill="#C66A3E" d="M37.85 11.3 L39.2 12.65 Q40 13.45 40 14.55 40 15.65 39.2 16.45 L37.85 17.8 Q37.15 18.5 36.05 18.5 34.95 18.5 34.15 17.7 L32.8 16.35 Q32.05 15.65 32 14.5 32.05 13.45 32.8 12.7 L34.15 11.35 Q34.95 10.55 35.95 10.5 37.15 10.55 37.85 11.3"/>
    <path stroke="none" fill="#BBC4CB" d="M15.15 36.45 L16 37.3 Q16.5 37.8 16.5 38.5 16.5 39.2 16 39.7 L15.15 40.5 Q14.7 41 14 41 13.3 41 12.8 40.5 L12 39.65 Q11.5 39.2 11.5 38.45 11.5 37.8 12 37.35 L12.8 36.5 Q13.3 36 13.95 36 14.7 36 15.15 36.45"/>
    <path stroke="none" fill="#BBC4CB" d="M21.15 40.45 L22 41.3 Q22.5 41.8 22.5 42.5 22.5 43.2 22 43.7 L21.15 44.5 Q20.7 45 20 45 19.3 45 18.8 44.5 L18 43.65 Q17.5 43.2 17.5 42.45 17.5 41.8 18 41.35 L18.8 40.5 Q19.3 40 19.95 40 20.7 40 21.15 40.45"/>
    <path stroke="none" fill="#A6B2BB" d="M49.15 51.95 L50 52.8 Q50.5 53.3 50.5 54 50.5 54.7 50 55.2 L49.15 56 Q48.7 56.5 48 56.5 47.3 56.5 46.8 56 L46 55.15 Q45.5 54.7 45.5 53.95 45.5 53.3 46 52.85 L46.8 52 Q47.3 51.5 47.95 51.5 48.7 51.5 49.15 51.95"/>
  </g>
</svg>