<svg width="64" height="64" xmlns="http://www.w3.org/2000/svg" xmlns:xlink="http://www.w3.org/1999/xlink">
  <defs/>
  <g>
    <path stroke="none" fill="#353541" d="M0 4 L0 0 64 0 64 4 48 4 44 4 20 4 16 4 0 4 M64 48 L64 52 0 52 0 48 64 48"/>
    <path stroke="none" fill="#5E5E6D" d="M64 8 L64 20 52 20 50.35 19.8 Q48.9 19.35 48.35 18 L48 16.25 48 12.8 48 8 64 8 M0 20 L0 8 16 8 16 16.25 Q15.85 19.4 13.1 19.9 L12 20 0 20 M16 4 L20 4 20 8 44 8 44 4 48 4 48 8 44 8 44 24 20 24 20 8 16 8 16 4"/>
    <path stroke="none" fill="#4F4F5D" d="M48 16.25 L47.95 20.9 Q47.7 22.95 46 23.65 L44.15 24 44 24 44 8 48 8 48 12.8 48 16.25 M20 24 L18 23.65 Q16.1 22.85 16 20.25 L16 16.25 16 8 20 8 20 24"/>
    <path stroke="none" fill="#424251" d="M20 24 L44 24 44.15 24 46 23.65 Q47.7 22.95 47.95 20.9 L48 16.25 48.35 18 Q48.9 19.35 50.35 19.8 L52 20 64 20 64 24 52 24 50.35 23.8 Q48.1 23.1 48 20.25 L48 24 48 24.25 Q47.95 26.85 46 27.65 L44 28 32 28 28 28 20 28 18 27.65 Q16.1 26.85 16 24.25 L16 24 16 20.25 Q16.1 22.85 18 23.65 L20 24 M0 24 L0 20 12 20 13.1 19.9 Q15.85 19.4 16 16.25 L16 20.25 Q15.85 23.4 13.1 23.9 L12 24 0 24"/>
    <path stroke="none" fill="#CFD5DA" d="M64 40 L64 42 59.75 42 Q56 41.9 56 38 L56 36.25 Q56.1 39.9 59.75 40 L64 40 M0 42 L0 40 4.25 40 Q7.9 39.9 8 36.25 L8 38 Q8 41.9 4.25 42 L0 42 M32 28 L44 28 46 27.65 Q47.95 26.85 48 24.25 L48 24 Q51.85 24 52 27.75 L52 38.25 Q51.85 42 48 42 L36 42 Q32.15 42 32 38.25 L32 28"/>
    <path stroke="none" fill="#BBC4CB" d="M32 28 L32 38.25 32 40.25 Q32.15 44 36 44 L48 44 Q51.85 44 52 40.25 L52 38.25 52 27.75 Q51.85 24 48 24 L48 20.25 Q48.1 23.1 50.35 23.8 L52 24 64 24 64 26 60 26 Q56.15 26 56 29.75 L56 36.25 56 38 Q56 41.9 59.75 42 L64 42 64 48 0 48 0 42 4.25 42 Q8 41.9 8 38 L8 36.25 8 29.75 Q7.85 26 4 26 L0 26 0 24 12 24 12 32 Q12 33.2 12.35 34 13.15 35.95 15.75 36 L24.25 36 Q26.85 35.95 27.65 34 28 33.2 28 32 L28 28 32 28"/>
    <path stroke="none" fill="#A6B2BB" d="M64 26 L64 40 59.75 40 Q56.1 39.9 56 36.25 L56 29.75 Q56.15 26 60 26 L64 26 M0 40 L0 26 4 26 Q7.85 26 8 29.75 L8 36.25 Q7.9 39.9 4.25 40 L0 40 M16 20.25 L16 24 16 24.25 Q16.1 26.85 18 27.65 L20 28 28 28 28 32 Q28 33.2 27.65 34 26.85 35.95 24.25 36 L15.75 36 Q13.15 35.95 12.35 34 12 33.2 12 32 L12 24 13.1 23.9 Q15.85 23.4 16 20.25 M52 38.25 L52 40.25 Q51.85 44 48 44 L36 44 Q32.15 44 32 40.25 L32 38.25 Q32.15 42 36 42 L48 42 Q51.85 42 52 38.25"/>
    <path stroke="none" fill="#717180" d="M64 4 L64 8 48 8 48 4 64 4 M0 8 L0 4 16 4 16 8 0 8 M20 4 L44 4 44 8 20 8 20 4"/>
  </g>
</svg>