<svg width="64" height="64" xmlns="http://www.w3.org/2000/svg" xmlns:xlink="http://www.w3.org/1999/xlink">
  <defs/>
  <g>
    <path stroke="none" fill="#353541" d="M64 60 L64 64 12 64 11.85 64 Q9 63.9 6.9 63.15 4.05 62.15 2.4 60 0.75 57.85 0.2 54.5 L0.15 54 0 52.15 0 11.9 Q0.05 9.75 0.55 8 L1.15 6.35 1.2 6.35 2.5 4 Q5.45 0.2 11.85 0 L12 0 64 0 64 4 48 4 44 4 20 4 16 4 12 4 Q6.6 4.15 4.8 8 L4.8 8.05 Q4.1 9.7 4 12 L4 16 4 20 4 24 4 38 4 52 4.15 53.8 4.2 54 Q4.8 57.3 7.25 58.8 L8 59.2 Q9.65 59.95 12 60 L64 60"/>
    <path stroke="none" fill="#5E5E6D" d="M4 20 L4 16 Q4.1 13.65 4.8 12 5.65 10.25 7.2 9.25 9.1 8.1 12 8 L16 8 16 16.25 Q15.9 18.85 14 19.65 L13.1 19.9 12 20 4 20 M16 4 L20 4 20 8 44 8 44 4 48 4 48 8 44 8 44 24 20 24 20 8 16 8 16 4 M64 8 L64 20 52 20 51.65 20 50.35 19.8 50 19.7 Q48.1 18.85 48 16.25 L48 12.8 48 8 64 8"/>
    <path stroke="none" fill="#4F4F5D" d="M44 8 L48 8 48 12.8 48 16.25 47.95 20.9 47.7 22 Q47.2 23.15 46 23.65 L44.15 24 44 24 44 8 M20 24 L18 23.65 Q16.1 22.85 16 20.25 L16 16.25 16 8 20 8 20 24"/>
    <path stroke="none" fill="#424251" d="M20 24 L44 24 44.15 24 46 23.65 Q47.2 23.15 47.7 22 L47.95 20.9 48 16.25 Q48.1 18.85 50 19.7 L50.35 19.8 51.65 20 52 20 64 20 64 24 52 24 50.35 23.8 50 23.7 Q48.8 23.15 48.35 22 L48 20.25 48 22 48 24 48 24.25 Q47.95 26.85 46 27.65 L44.45 28 39.75 28 19.85 28 18 27.65 Q16.7 27.1 16.25 25.75 16.05 25.1 16 24.25 L16 24 16 20.25 Q16.1 22.85 18 23.65 L20 24 M4 24 L4 20 12 20 13.1 19.9 14 19.65 Q15.9 18.85 16 16.25 L16 20.25 Q15.9 22.7 14.2 23.55 L13.1 23.9 12 24 4 24"/>
    <path stroke="none" fill="#CFD5DA" d="M4.2 54 L4.15 53.8 4 52 4.25 52 Q6.05 51.95 7 51.05 7.95 50.1 8 48.25 L8 50 7.95 51 Q7.5 53.9 4.25 54 L4.2 54 M64 52 L64 54 59.75 54 Q56.5 53.9 56.1 51 L56 50 56 48.25 Q56.05 50.1 57 51.05 57.95 51.95 59.75 52 L64 52 M48 24 L48 22 48.35 22 Q48.8 23.15 50 23.7 L48 24 M12 46.25 L12 35.75 Q12.15 32 16 32 L28 32 Q31.85 32 32 35.75 L32 46.25 Q31.85 50 28 50 L16 50 Q12.15 50 12 46.25"/>
    <path stroke="none" fill="#A6B2BB" d="M12 46.25 Q12.15 50 16 50 L28 50 Q31.85 50 32 46.25 L32 48.25 Q31.85 52 28 52 L16 52 Q12.15 52 12 48.25 L12 46.25 M4 52 L4 38 Q7.85 38 8 41.75 L8 48.25 Q7.95 50.1 7 51.05 6.05 51.95 4.25 52 L4 52 M64 38 L64 52 59.75 52 Q57.95 51.95 57 51.05 56.05 50.1 56 48.25 L56 41.75 Q56.15 38 60 38 L64 38 M16 20.25 L16 24 16 24.25 Q16.05 25.1 16.25 25.75 14.65 25.25 14.2 23.55 15.9 22.7 16 20.25 M39.75 28 L44.45 28 48 28 Q52 28 52 32 L52 40 Q52 43.9 48.25 44 L39.75 44 Q36 43.9 36 40 L36 32 Q36 28.15 39.75 28 M48 22 L48 20.25 48.35 22 48 22"/>
    <path stroke="none" fill="#BBC4CB" d="M64 60 L12 60 Q9.65 59.95 8 59.2 L7.25 58.8 Q4.8 57.3 4.2 54 L4.25 54 Q7.5 53.9 7.95 51 L8 50 8 48.25 8 41.75 Q7.85 38 4 38 L4 24 12 24 13.1 23.9 14.2 23.55 Q14.65 25.25 16.25 25.75 16.7 27.1 18 27.65 L19.85 28 39.75 28 Q36 28.15 36 32 L36 40 Q36 43.9 39.75 44 L48.25 44 Q52 43.9 52 40 L52 32 Q52 28 48 28 L44.45 28 46 27.65 Q47.95 26.85 48 24.25 L48 24 50 23.7 50.35 23.8 52 24 64 24 64 38 60 38 Q56.15 38 56 41.75 L56 48.25 56 50 56.1 51 Q56.5 53.9 59.75 54 L64 54 64 60 M32 46.25 L32 35.75 Q31.85 32 28 32 L16 32 Q12.15 32 12 35.75 L12 46.25 12 48.25 Q12.15 52 16 52 L28 52 Q31.85 52 32 48.25 L32 46.25"/>
    <path stroke="none" fill="#717180" d="M4 16 L4 12 Q4.1 9.7 4.8 8.05 L4.8 8 Q6.6 4.15 12 4 L16 4 16 8 12 8 Q9.1 8.1 7.2 9.25 5.65 10.25 4.8 12 4.1 13.65 4 16 M20 4 L44 4 44 8 20 8 20 4 M48 4 L64 4 64 8 48 8 48 4"/>
  </g>
</svg>