<svg width="64" height="64" xmlns="http://www.w3.org/2000/svg" xmlns:xlink="http://www.w3.org/1999/xlink">
  <defs/>
  <g>
    <path stroke="none" fill="#353541" d="M12 0 L52 0 52.15 0 Q60.3 0.25 62.8 6.35 L62.85 6.35 Q63.9 8.65 64 11.9 L64 12 64 39.8 Q64.2 44.35 61.95 46.2 59.85 48.7 55.3 47.9 L54.2 47.55 49.8 45.35 Q48.95 44.9 48 44.9 L46.3 45.3 46.25 45.35 39.25 48.9 33.8 51.6 32 52 Q31.05 52 30.2 51.6 L17.75 45.35 17.7 45.3 Q16.9 44.9 16 44.9 15.05 44.9 14.2 45.35 L9.8 47.55 8.7 47.9 Q4.15 48.7 2.05 46.2 -0.2 44.35 0 39.8 L0 12 0 11.9 Q0.1 8.65 1.15 6.35 L1.2 6.35 Q3.7 0.25 11.85 0 L12 0 M4 22 L4 26 4 32 4 36 4 40 Q3.75 44.7 8 43.95 L12.4 41.75 Q14.1 40.9 16 40.9 17.9 40.9 19.55 41.75 L28.25 46.15 28.25 46.1 29.65 46.85 32 48 44.45 41.75 Q46.1 40.9 48 40.9 49.9 40.9 51.6 41.75 L56 43.95 Q60.25 44.7 60 40 L60 36 60 32 60 26 60 22 60 16 60 12 Q59.9 9.65 59.2 8 57.4 4.15 52 4 L12 4 Q6.6 4.15 4.8 8 4.1 9.65 4 12 L4 16 4 22"/>
    <path stroke="none" fill="#C66A3E" d="M4 22 L16 16 32 24 48 16 60 22 60 26 48 20 32 28 16 20 4 26 4 22"/>
    <path stroke="none" fill="#DE7E4F" d="M4 22 L4 16 Q4.25 8.25 12 8 L52 8 Q59.75 8.25 60 16 L60 22 48 16 32 24 16 16 4 22"/>
    <path stroke="none" fill="#BBC4CB" d="M4 26 L16 20 32 28 48 20 60 26 60 32 51.6 27.75 Q49.9 26.9 48 26.9 46.1 26.9 44.45 27.75 L32 34 29.65 32.85 28.25 32.1 28.25 32.15 19.55 27.75 Q17.9 26.9 16 26.9 14.1 26.9 12.4 27.75 L4 32 4 26"/>
    <path stroke="none" fill="#CFD5DA" d="M4 36 L12.4 31.75 Q14.1 30.9 16 30.9 17.9 30.9 19.55 31.75 L28.25 36.15 28.25 36.1 29.65 36.85 32 38 44.45 31.75 Q46.1 30.9 48 30.9 49.9 30.9 51.6 31.75 L60 36 60 40 Q60.25 44.7 56 43.95 L51.6 41.75 Q49.9 40.9 48 40.9 46.1 40.9 44.45 41.75 L32 48 29.65 46.85 28.25 46.1 28.25 46.15 19.55 41.75 Q17.9 40.9 16 40.9 14.1 40.9 12.4 41.75 L8 43.95 Q3.75 44.7 4 40 L4 36"/>
    <path stroke="none" fill="#A6B2BB" d="M4 36 L4 32 12.4 27.75 Q14.1 26.9 16 26.9 17.9 26.9 19.55 27.75 L28.25 32.15 28.25 32.1 29.65 32.85 32 34 44.45 27.75 Q46.1 26.9 48 26.9 49.9 26.9 51.6 27.75 L60 32 60 36 51.6 31.75 Q49.9 30.9 48 30.9 46.1 30.9 44.45 31.75 L32 38 29.65 36.85 28.25 36.1 28.25 36.15 19.55 31.75 Q17.9 30.9 16 30.9 14.1 30.9 12.4 31.75 L4 36"/>
    <path stroke="none" fill="#EE9366" d="M60 16 Q59.75 8.25 52 8 L12 8 Q4.25 8.25 4 16 L4 12 Q4.1 9.65 4.8 8 6.6 4.15 12 4 L52 4 Q57.4 4.15 59.2 8 59.9 9.65 60 12 L60 16"/>
    <path stroke="none" fill="#BBC4CB" d="M17.65 34.2 L18.5 35.05 Q19 35.55 19 36.25 19 36.95 18.5 37.45 L17.65 38.25 Q17.2 38.75 16.5 38.75 15.8 38.75 15.3 38.25 L14.5 37.4 Q14 36.95 14 36.2 14 35.55 14.5 35.1 L15.3 34.25 Q15.8 33.75 16.45 33.75 17.2 33.75 17.65 34.2"/>
    <path stroke="none" fill="#C66A3E" d="M29.55 13.6 L30.4 14.45 Q30.9 14.95 30.9 15.65 30.9 16.35 30.4 16.85 L29.55 17.65 Q29.1 18.15 28.4 18.15 27.7 18.15 27.2 17.65 L26.4 16.8 Q25.9 16.35 25.9 15.6 25.9 14.95 26.4 14.5 L27.2 13.65 Q27.7 13.15 28.35 13.15 29.1 13.15 29.55 13.6"/>
    <path stroke="none" fill="#EE9366" d="M39.05 10.95 L40.4 12.3 Q41.2 13.1 41.2 14.2 41.2 15.3 40.4 16.1 L39.05 17.45 Q38.35 18.15 37.25 18.15 36.15 18.15 35.35 17.35 L34 16 Q33.25 15.3 33.2 14.15 33.25 13.1 34 12.35 L35.35 11 Q36.15 10.2 37.15 10.15 38.35 10.2 39.05 10.95"/>
  </g>
</svg>