<svg width="64" height="64" xmlns="http://www.w3.org/2000/svg" xmlns:xlink="http://www.w3.org/1999/xlink">
  <defs/>
  <g>
    <path stroke="none" fill="#353541" d="M60 0 L64 0 64 52.15 63.85 54 63.8 54.5 Q62.35 63.65 52.15 64 L0 64 0 60 52 60 Q58.7 59.8 59.85 54 L59.85 53.8 60 52 60 38 60 24 60 22 60 8 60 0"/>
    <path stroke="none" fill="#BBC4CB" d="M60 0 L60 8 Q56.15 8 56 11.75 L56 18.25 56 20.25 Q56.15 24 60 24 L60 38 Q56.15 38 56 41.75 L56 48.25 56 50 56.1 51 Q56.5 53.9 59.75 54 L59.85 54 Q58.7 59.8 52 60 L0 60 0 54 4.25 54 Q7.5 53.9 7.95 51 L8 50 8 48.25 8 41.75 Q7.85 38 4 38 L0 38 0 24 4 24 Q7.85 24 8 20.25 L8 18.25 8 11.75 Q7.85 8 4 8 L0 8 0 0 60 0 M52 18.25 L52 7.75 Q51.85 4 48 4 L36 4 Q32.15 4 32 7.75 L32 18.25 32 20 Q32 24 36 24 L48 24 Q52 24 52 20 L52 18.25 M39.75 44 L48.25 44 Q52 43.9 52 40 L52 32 Q52 28 48 28 L40 28 Q36 28 36 32 L36 40 Q36 43.9 39.75 44 M12 46.25 L12 48.25 Q12.15 52 16 52 L28 52 Q31.85 52 32 48.25 L32 46.25 32 35.75 Q31.85 32 28 32 L16 32 Q12.15 32 12 35.75 L12 46.25 M17.75 26 L22.25 26 23.8 25.75 Q25.75 25.1 26 22.7 L26 18 Q26 14 22 14 L18 14 Q15 14 14.25 16.25 14 17 14 18 L14 22.7 14.05 22.7 Q14.35 25.9 17.75 26"/>
    <path stroke="none" fill="#A6B2BB" d="M17.75 26 Q14.35 25.9 14.05 22.7 L14 22.7 14 18 Q14 17 14.25 16.25 15 14 18 14 L22 14 Q26 14 26 18 L26 22.7 Q25.75 25.1 23.8 25.75 L22.25 26 17.75 26 M0 52 L0 38 4 38 Q7.85 38 8 41.75 L8 48.25 Q7.95 50.1 7 51.05 6.05 51.95 4.25 52 L0 52 M0 24 L0 22 4 22 Q7.85 22 8 18.25 L8 20.25 Q7.85 24 4 24 L0 24 M60 22 L60 24 Q56.15 24 56 20.25 L56 18.25 Q56.15 22 60 22 M60 38 L60 52 59.75 52 Q57.95 51.95 57 51.05 56.05 50.1 56 48.25 L56 41.75 Q56.15 38 60 38 M32 18.25 L32 7.75 Q32.15 4 36 4 L48 4 Q51.85 4 52 7.75 L52 18.25 Q51.85 22 48 22 L36 22 Q32.15 22 32 18.25 M39.75 44 Q36 43.9 36 40 L36 32 Q36 28 40 28 L48 28 Q52 28 52 32 L52 40 Q52 43.9 48.25 44 L39.75 44 M32 46.25 L32 48.25 Q31.85 52 28 52 L16 52 Q12.15 52 12 48.25 L12 46.25 Q12.15 50 16 50 L28 50 Q31.85 50 32 46.25"/>
    <path stroke="none" fill="#CFD5DA" d="M32 46.25 Q31.85 50 28 50 L16 50 Q12.15 50 12 46.25 L12 35.75 Q12.15 32 16 32 L28 32 Q31.85 32 32 35.75 L32 46.25 M0 54 L0 52 4.25 52 Q6.05 51.95 7 51.05 7.95 50.1 8 48.25 L8 50 7.95 51 Q7.5 53.9 4.25 54 L0 54 M0 22 L0 8 4 8 Q7.85 8 8 11.75 L8 18.25 Q7.85 22 4 22 L0 22 M60 8 L60 22 Q56.15 22 56 18.25 L56 11.75 Q56.15 8 60 8 M60 52 L59.85 53.8 59.85 54 59.75 54 Q56.5 53.9 56.1 51 L56 50 56 48.25 Q56.05 50.1 57 51.05 57.95 51.95 59.75 52 L60 52 M52 18.25 L52 20 Q52 24 48 24 L36 24 Q32 24 32 20 L32 18.25 Q32.15 22 36 22 L48 22 Q51.85 22 52 18.25"/>
  </g>
</svg>