<svg width="64" height="64" xmlns="http://www.w3.org/2000/svg" xmlns:xlink="http://www.w3.org/1999/xlink">
  <defs/>
  <g>
    <path stroke="none" fill="#353541" d="M4 64 L0 64 0 11.55 0 10.9 Q0.15 9.3 0.45 8 L0.95 6.5 0.95 6.45 Q1.45 5.1 2.25 4 5.1 0.15 11.55 0 L11.65 0 52.35 0 52.45 0 Q58.9 0.15 61.75 4 L63.05 6.45 63.05 6.5 63.55 8 64 10.9 64 11.55 64 64 60 64 60 51.8 60 35.8 60 31.8 60 22.8 60 18.8 60 16 60 12 60 11.65 59.6 8.7 59.35 8 Q57.7 4.15 52.35 4 L11.65 4 Q6.3 4.15 4.65 8 L4.4 8.7 Q4.05 9.95 4 11.65 L4 12 4 16 4 18.8 4 22.8 4 31.8 4 35.8 4 51.8 4 64"/>
    <path stroke="none" fill="#BA6BE9" d="M4 18.8 L4 16 Q4.1 13.65 4.8 12 6.6 8.15 12 8 L52 8 Q57.4 8.15 59.2 12 59.9 13.65 60 16 L60 18.8 59.5 19.05 Q57.7 20 55.95 21.8 L53 24.3 Q50.45 26 48 26 44.15 26 40.05 21.8 38.3 20 36.55 19.05 34.9 18.2 33.25 18.05 L32 18 31.85 18 31.6 18 Q30 18 28.5 18.6 L27.45 19.05 26.2 19.85 Q25.1 20.6 24.05 21.7 L23.95 21.8 22.25 23.4 Q19.05 26 16 26 13.55 26 11 24.3 L8.05 21.8 Q6.3 20 4.5 19.05 L4 18.8 M4 12 L4 11.65 Q4.05 9.95 4.4 8.7 L4.65 8 4.8 8 Q4.1 9.65 4 12 M59.35 8 L59.6 8.7 60 11.65 60 12 Q59.9 9.65 59.2 8 L59.35 8"/>
    <path stroke="none" fill="#D699FA" d="M59.35 8 L59.2 8 Q59.9 9.65 60 12 L60 16 Q59.9 13.65 59.2 12 57.4 8.15 52 8 L12 8 Q6.6 8.15 4.8 12 4.1 13.65 4 16 L4 12 Q4.1 9.65 4.8 8 L4.65 8 Q6.3 4.15 11.65 4 L52.35 4 Q57.7 4.15 59.35 8"/>
    <path stroke="none" fill="#A452D4" d="M4 22.8 L4 18.8 4.5 19.05 Q6.3 20 8.05 21.8 L11 24.3 Q13.55 26 16 26 19.05 26 22.25 23.4 L23.95 21.8 24.05 21.7 Q25.1 20.6 26.2 19.85 L27.45 19.05 28.5 18.6 Q30 18 31.6 18 L31.85 18 32 18 33.25 18.05 Q34.9 18.2 36.55 19.05 38.3 20 40.05 21.8 44.15 26 48 26 50.45 26 53 24.3 L55.95 21.8 Q57.7 20 59.5 19.05 L60 18.8 60 22.8 59.5 23.05 Q57.7 24 55.95 25.8 L53 28.3 Q50.45 30 48 30 44.15 30 40.05 25.8 38.3 24 36.55 23.05 34.9 22.2 33.25 22.05 L32.65 22 32.25 22 32 22 31.85 22 31.6 22 Q30 22 28.5 22.6 L27.45 23.05 26.2 23.85 Q25.1 24.6 24.05 25.7 L23.95 25.8 22.25 27.4 Q19.05 30 16 30 13.55 30 11 28.3 L8.05 25.8 Q6.3 24 4.5 23.05 L4 22.8"/>
    <path stroke="none" fill="#BBC4CB" d="M4 22.8 L4.5 23.05 Q6.3 24 8.05 25.8 L11 28.3 Q13.55 30 16 30 19.05 30 22.25 27.4 L23.95 25.8 24.05 25.7 Q25.1 24.6 26.2 23.85 L27.45 23.05 28.5 22.6 Q30 22 31.6 22 L31.85 22 32 22 32.25 22 32.65 22 33.25 22.05 Q34.9 22.2 36.55 23.05 38.3 24 40.05 25.8 44.15 30 48 30 50.45 30 53 28.3 L55.95 25.8 Q57.7 24 59.5 23.05 L60 22.8 60 31.8 59.5 32.05 Q57.7 33 55.95 34.8 L53 37.3 Q50.45 39 48 39 44.15 39 40.05 34.8 38.3 33 36.55 32.05 34.9 31.2 33.25 31.05 L32 31 31.6 31 Q30 31 28.5 31.6 L27.45 32.05 26.2 32.85 Q25.1 33.6 24.05 34.7 L23.95 34.8 22.25 36.4 Q19.05 39 16 39 13.55 39 11 37.3 L8.05 34.8 Q6.3 33 4.5 32.05 L4 31.8 4 22.8 M60 64 L4 64 4 51.8 4.5 52.05 Q6.3 53 8.05 54.8 L11 57.3 Q13.55 59 16 59 19.05 59 22.25 56.4 L23.95 54.8 24.05 54.7 Q25.1 53.6 26.2 52.85 L27.45 52.05 28.5 51.6 Q30 51 31.6 51 L31.85 51 32 51 32.25 51 32.65 51 33.25 51.05 Q34.9 51.2 36.55 52.05 38.3 53 40.05 54.8 44.15 59 48 59 50.45 59 53 57.3 L55.95 54.8 Q57.7 53 59.5 52.05 L60 51.8 60 64"/>
    <path stroke="none" fill="#A6B2BB" d="M4 35.8 L4 31.8 4.5 32.05 Q6.3 33 8.05 34.8 L11 37.3 Q13.55 39 16 39 19.05 39 22.25 36.4 L23.95 34.8 24.05 34.7 Q25.1 33.6 26.2 32.85 L27.45 32.05 28.5 31.6 Q30 31 31.6 31 L32 31 33.25 31.05 Q34.9 31.2 36.55 32.05 38.3 33 40.05 34.8 44.15 39 48 39 50.45 39 53 37.3 L55.95 34.8 Q57.7 33 59.5 32.05 L60 31.8 60 35.8 59.5 36.05 Q57.7 37 55.95 38.8 L53 41.3 Q50.45 43 48 43 44.15 43 40.05 38.8 38.3 37 36.55 36.05 34.9 35.2 33.25 35.05 L32.65 35 32.25 35 32 35 31.85 35 31.6 35 Q30 35 28.5 35.6 L27.45 36.05 26.2 36.85 Q25.1 37.6 24.05 38.7 L23.95 38.8 22.25 40.4 Q19.05 43 16 43 13.55 43 11 41.3 L8.05 38.8 Q6.3 37 4.5 36.05 L4 35.8"/>
    <path stroke="none" fill="#CFD5DA" d="M4 35.8 L4.5 36.05 Q6.3 37 8.05 38.8 L11 41.3 Q13.55 43 16 43 19.05 43 22.25 40.4 L23.95 38.8 24.05 38.7 Q25.1 37.6 26.2 36.85 L27.45 36.05 28.5 35.6 Q30 35 31.6 35 L31.85 35 32 35 32.25 35 32.65 35 33.25 35.05 Q34.9 35.2 36.55 36.05 38.3 37 40.05 38.8 44.15 43 48 43 50.45 43 53 41.3 L55.95 38.8 Q57.7 37 59.5 36.05 L60 35.8 60 51.8 59.5 52.05 Q57.7 53 55.95 54.8 L53 57.3 Q50.45 59 48 59 44.15 59 40.05 54.8 38.3 53 36.55 52.05 34.9 51.2 33.25 51.05 L32.65 51 32.25 51 32 51 31.85 51 31.6 51 Q30 51 28.5 51.6 L27.45 52.05 26.2 52.85 Q25.1 53.6 24.05 54.7 L23.95 54.8 22.25 56.4 Q19.05 59 16 59 13.55 59 11 57.3 L8.05 54.8 Q6.3 53 4.5 52.05 L4 51.8 4 35.8"/>
  </g>
</svg>