<svg width="64" height="64" xmlns="http://www.w3.org/2000/svg" xmlns:xlink="http://www.w3.org/1999/xlink">
  <defs/>
  <g>
    <path stroke="none" fill="#BBC4CB" d="M52 18.25 L52 7.75 Q51.85 4 48 4 L36 4 Q32.15 4 32 7.75 L32 18.25 32 20 Q32 24 36 24 L48 24 Q52 24 52 20 L52 18.25 M64 8 L60 8 Q56.15 8 56 11.75 L56 18.25 56 20.25 Q56.15 24 60 24 L64 24 64 48 60 48 Q56.15 48 56 51.75 L56 58.25 56 60 Q56 63.9 59.75 64 L48.25 64 Q52 63.9 52 60 L52 52 Q52 48 48 48 L40 48 Q36 48 36 52 L36 60 Q36 63.9 39.75 64 L4.25 64 Q8 63.9 8 60 L8 58.25 8 51.75 Q7.85 48 4 48 L0 48 0 24 4 24 Q7.85 24 8 20.25 L8 18.25 8 11.75 Q7.85 8 4 8 L0 8 0 0 64 0 64 8 M50.75 41 L55.25 41 Q58.65 40.9 59 37.7 L59 33 Q59 29 55 29 L51 29 Q47 29 47 33 L47 37.7 47.05 37.7 Q47.35 40.9 50.75 41 M32 46.25 L32 35.75 Q31.85 32 28 32 L16 32 Q12.15 32 12 35.75 L12 46.25 12 48.25 Q12.15 52 16 52 L28 52 Q31.85 52 32 48.25 L32 46.25 M15.75 24 L20.25 24 Q23.65 23.9 24 20.7 L24 16 Q24 12 20 12 L16 12 Q12 12 12 16 L12 20.7 12.05 20.7 Q12.35 23.9 15.75 24"/>
    <path stroke="none" fill="#A6B2BB" d="M15.75 24 Q12.35 23.9 12.05 20.7 L12 20.7 12 16 Q12 12 16 12 L20 12 Q24 12 24 16 L24 20.7 Q23.65 23.9 20.25 24 L15.75 24 M32 18.25 L32 7.75 Q32.15 4 36 4 L48 4 Q51.85 4 52 7.75 L52 18.25 Q51.85 22 48 22 L36 22 Q32.15 22 32 18.25 M8 18.25 L8 20.25 Q7.85 24 4 24 L0 24 0 22 4 22 Q7.85 22 8 18.25 M0 48 L4 48 Q7.85 48 8 51.75 L8 58.25 Q7.9 61.9 4.25 62 L0 62 0 48 M39.75 64 Q36 63.9 36 60 L36 52 Q36 48 40 48 L48 48 Q52 48 52 52 L52 60 Q52 63.9 48.25 64 L39.75 64 M56 58.25 L56 51.75 Q56.15 48 60 48 L64 48 64 62 59.75 62 Q56.1 61.9 56 58.25 M64 24 L60 24 Q56.15 24 56 20.25 L56 18.25 Q56.15 22 60 22 L64 22 64 24 M50.75 41 Q47.35 40.9 47.05 37.7 L47 37.7 47 33 Q47 29 51 29 L55 29 Q59 29 59 33 L59 37.7 Q58.65 40.9 55.25 41 L50.75 41 M32 46.25 L32 48.25 Q31.85 52 28 52 L16 52 Q12.15 52 12 48.25 L12 46.25 Q12.15 50 16 50 L28 50 Q31.85 50 32 46.25"/>
    <path stroke="none" fill="#CFD5DA" d="M32 46.25 Q31.85 50 28 50 L16 50 Q12.15 50 12 46.25 L12 35.75 Q12.15 32 16 32 L28 32 Q31.85 32 32 35.75 L32 46.25 M52 18.25 L52 20 Q52 24 48 24 L36 24 Q32 24 32 20 L32 18.25 Q32.15 22 36 22 L48 22 Q51.85 22 52 18.25 M56 18.25 L56 11.75 Q56.15 8 60 8 L64 8 64 22 60 22 Q56.15 22 56 18.25 M0 8 L4 8 Q7.85 8 8 11.75 L8 18.25 Q7.85 22 4 22 L0 22 0 8 M8 58.25 L8 60 Q8 63.9 4.25 64 L0 64 0 62 4.25 62 Q7.9 61.9 8 58.25 M59.75 64 Q56 63.9 56 60 L56 58.25 Q56.1 61.9 59.75 62 L64 62 64 64 59.75 64"/>
    <path stroke="none" fill="#353541" d="M4 47 L4 56.65 Q0.75 54.1 0.15 49 L0 47.15 0 47 0 19 0 18.9 0.15 17 Q0.45 14.95 1.2 13.35 3.05 8.85 8 7.55 L11.9 7 12 7 52 7 52.1 7 56 7.55 Q59.75 8.5 61.7 11.35 L62.8 13.35 Q63.55 14.95 63.85 17 L64 18.9 64 47 64 47.15 63.9 49 Q63.45 52.6 61.7 54.9 L60 56.65 60 47 60 33 60 31 60 27 60 23 60 19 59.8 17 59.15 15 Q58.15 12.8 56 11.85 54.35 11.05 52 11 L48 11 44 11 20 11 16 11 12 11 Q9.65 11.05 8 11.85 5.85 12.8 4.85 15 L4.25 17 Q4.05 17.95 4 19 L4 23 4 27 4 31 4 33 4 47"/>
    <path stroke="none" fill="#717180" d="M4 23 L4 19 Q4.05 17.95 4.25 17 L4.85 15 Q5.85 12.8 8 11.85 9.65 11.05 12 11 L16 11 16 15 12 15 Q9.6 15.1 7.95 15.85 5.85 16.85 4.85 18.95 4.1 20.6 4 23 M20 11 L44 11 44 15 20 15 20 11 M48 11 L52 11 Q54.35 11.05 56 11.85 58.15 12.8 59.15 15 L59.8 17 60 19 60 23 Q59.9 20.6 59.15 18.95 58.15 16.85 56.05 15.85 54.4 15.1 52 15 L48 15 48 11"/>
    <path stroke="none" fill="#5E5E6D" d="M48 11 L48 15 44 15 44 31 20 31 20 15 16 15 16 11 20 11 20 15 44 15 44 11 48 11 M4 27 L4 23 Q4.1 20.6 4.85 18.95 5.85 16.85 7.95 15.85 9.6 15.1 12 15 L16 15 16 23.25 Q15.85 26.4 13.1 26.9 L12 27 4 27 M60 23 L60 27 52 27 50.9 26.9 Q49.05 26.55 48.35 25 L48 23.25 48 15 52 15 Q54.4 15.1 56.05 15.85 58.15 16.85 59.15 18.95 59.9 20.6 60 23"/>
    <path stroke="none" fill="#4F4F5D" d="M44 31 L44 15 48 15 48 23.25 48 27.25 Q47.9 29.85 46 30.65 L44.4 31 44 31 M16 15 L20 15 20 31 19.6 31 18 30.65 Q16.1 29.85 16 27.25 L16 23.25 16 15"/>
    <path stroke="none" fill="#424251" d="M4 31 L4 27 12 27 13.1 26.9 Q15.85 26.4 16 23.25 L16 27.25 Q16.1 29.85 18 30.65 L19.6 31 20 31 44 31 44.4 31 46 30.65 Q47.9 29.85 48 27.25 L48 23.25 48.35 25 Q49.05 26.55 50.9 26.9 L52 27 60 27 60 31 52 31 50.9 30.9 Q48.15 30.4 48 27.25 L48 31 48 31.25 Q47.9 33.85 46 34.65 L44.4 35 44 35 32 35 28 35 20 35 19.6 35 18 34.65 Q16.1 33.85 16 31.25 L16 31 16 27.25 Q15.85 30.4 13.1 30.9 L12 31 4 31"/>
    <path stroke="none" fill="#BBC4CB" d="M4 31 L12 31 12 39 Q12 40.2 12.35 41 13.15 42.95 15.75 43 L24.25 43 Q26.85 42.95 27.65 41 28 40.2 28 39 L28 35 32 35 32 45.25 32 47.25 Q32.15 51 36 51 L48 51 Q51.85 51 52 47.25 L52 45.25 52 34.75 Q51.85 31 48 31 L48 27.25 Q48.15 30.4 50.9 30.9 L52 31 60 31 60 33 Q56.15 33 56 36.75 L56 43.25 56 45 Q56 48.9 59.75 49 L59.8 49 Q58.7 54.8 52 55 L12 55 Q5.3 54.8 4.25 49 8 48.9 8 45 L8 43.25 8 36.75 Q7.85 33 4 33 L4 31"/>
    <path stroke="none" fill="#CFD5DA" d="M60 47 L59.8 49 59.75 49 Q56 48.9 56 45 L56 43.25 Q56.1 46.9 59.75 47 L60 47 M4.25 49 L4 47 4.25 47 Q7.9 46.9 8 43.25 L8 45 Q8 48.9 4.25 49 M48 31 Q51.85 31 52 34.75 L52 45.25 Q51.85 49 48 49 L36 49 Q32.15 49 32 45.25 L32 35 44 35 44.4 35 46 34.65 Q47.9 33.85 48 31.25 L48 31"/>
    <path stroke="none" fill="#A6B2BB" d="M4 47 L4 33 Q7.85 33 8 36.75 L8 43.25 Q7.9 46.9 4.25 47 L4 47 M60 33 L60 47 59.75 47 Q56.1 46.9 56 43.25 L56 36.75 Q56.15 33 60 33 M52 45.25 L52 47.25 Q51.85 51 48 51 L36 51 Q32.15 51 32 47.25 L32 45.25 Q32.15 49 36 49 L48 49 Q51.85 49 52 45.25 M28 35 L28 39 Q28 40.2 27.65 41 26.85 42.95 24.25 43 L15.75 43 Q13.15 42.95 12.35 41 12 40.2 12 39 L12 31 13.1 30.9 Q15.85 30.4 16 27.25 L16 31 16 31.25 Q16.1 33.85 18 34.65 L19.6 35 20 35 28 35"/>
  </g>
</svg>