<svg width="64" height="64" xmlns="http://www.w3.org/2000/svg" xmlns:xlink="http://www.w3.org/1999/xlink">
  <defs/>
  <g>
    <path stroke="none" fill="#353541" d="M0 4 L0 0 52 0 52.1 0 Q58.55 0.15 61.55 4 L62.85 6.3 62.9 6.45 63.45 8 Q63.9 9.7 64 11.85 L64 27.25 63.95 28 Q63.7 31.35 63 34.45 L62.65 36 62.05 38 61.9 38.4 61.85 38.45 61.25 40 60 42.55 Q58.35 45.6 56 48.3 L52.35 51.9 52.3 51.9 52.2 52 Q48.4 55.2 43.35 57.55 30.65 63.4 9.8 64 L0 64 0 60 9.65 60 Q28.15 59.45 39.9 54.65 42.75 53.45 45.25 52 47.7 50.55 49.75 48.8 53.55 45.6 56.05 41.5 L56.85 40 57.5 38.65 58.1 37.05 58.15 36.9 58.45 36 59.1 33.55 59.4 32.1 59.9 28 60 26 60 24 60 20 60 16 60 12 Q59.9 9.7 59.25 8.05 L59.2 8 Q57.4 4.15 52 4 L48 4 44 4 20 4 16 4 0 4"/>
    <path stroke="none" fill="#5E5E6D" d="M0 20 L0 8 16 8 16 16.25 Q15.9 18.85 14 19.65 L13.1 19.9 12 20 0 20 M16 4 L20 4 20 8 44 8 44 4 48 4 48 8 52 8 Q54.9 8.1 56.8 9.25 58.35 10.25 59.2 12 59.9 13.65 60 16 L60 20 52 20 51.65 20 50.35 19.8 Q48.1 19.1 48 16.25 L48 12.8 48 8 44 8 44 24 20 24 20 8 16 8 16 4"/>
    <path stroke="none" fill="#717180" d="M16 4 L16 8 0 8 0 4 16 4 M20 4 L44 4 44 8 20 8 20 4 M48 4 L52 4 Q57.4 4.15 59.2 8 L59.25 8.05 Q59.9 9.7 60 12 L60 16 Q59.9 13.65 59.2 12 58.35 10.25 56.8 9.25 54.9 8.1 52 8 L48 8 48 4"/>
    <path stroke="none" fill="#4F4F5D" d="M44 8 L48 8 48 12.8 48 16.25 47.95 20.9 47.7 22 Q47.2 23.15 46 23.65 L44.15 24 44 24 44 8 M20 24 L18 23.65 Q16.1 22.85 16 20.25 L16 16.25 16 8 20 8 20 24"/>
    <path stroke="none" fill="#424251" d="M20 24 L44 24 44.15 24 46 23.65 Q47.2 23.15 47.7 22 L47.95 20.9 48 16.25 Q48.1 19.1 50.35 19.8 L51.65 20 52 20 60 20 60 24 52 24 50.35 23.8 50 23.7 Q48.8 23.15 48.35 22 L48 20.25 48 22 48 24 48 24.25 Q47.95 26.85 46 27.65 L44.45 28 39.75 28 20 28 18 27.65 Q16.7 27.1 16.25 25.75 16.05 25.1 16 24.25 L16 24 16 20.25 Q16.1 22.85 18 23.65 L20 24 M0 24 L0 20 12 20 13.1 19.9 14 19.65 Q15.9 18.85 16 16.25 L16 20.25 Q15.9 22.7 14.2 23.55 L13.1 23.9 12 24 0 24"/>
    <path stroke="none" fill="#A6B2BB" d="M64 27.25 L64 28 63.95 28 64 27.25 M0 52 L0 38 4 38 Q7.85 38 8 41.75 L8 48.25 Q7.95 50.1 7 51.05 6.05 51.95 4.25 52 L0 52 M57.5 38.65 L56.85 40 56.05 41.5 Q56.15 39.45 57.5 38.65 M48 22 L48 20.25 48.35 22 48 22 M16 20.25 L16 24 16 24.25 Q16.05 25.1 16.25 25.75 14.65 25.25 14.2 23.55 15.9 22.7 16 20.25 M39.75 28 L44.45 28 48 28 Q52 28 52 32 L52 40 Q52 43.9 48.25 44 L39.75 44 Q36 43.9 36 40 L36 32 Q36 28.15 39.75 28 M32 46.25 L32 48.25 Q31.85 52 28 52 L16 52 Q12.15 52 12 48.25 L12 46.25 Q12.15 50 16 50 L28 50 Q31.85 50 32 46.25"/>
    <path stroke="none" fill="#CFD5DA" d="M32 46.25 Q31.85 50 28 50 L16 50 Q12.15 50 12 46.25 L12 35.75 Q12.15 32 16 32 L28 32 Q31.85 32 32 35.75 L32 46.25 M0 54 L0 52 4.25 52 Q6.05 51.95 7 51.05 7.95 50.1 8 48.25 L8 50 7.95 51 Q7.5 53.9 4.25 54 L0 54 M48 22 L48.35 22 Q48.8 23.15 50 23.7 L48 24 48 22"/>
    <path stroke="none" fill="#BBC4CB" d="M0 60 L0 54 4.25 54 Q7.5 53.9 7.95 51 L8 50 8 48.25 8 41.75 Q7.85 38 4 38 L0 38 0 24 12 24 13.1 23.9 14.2 23.55 Q14.65 25.25 16.25 25.75 16.7 27.1 18 27.65 L20 28 39.75 28 Q36 28.15 36 32 L36 40 Q36 43.9 39.75 44 L48.25 44 Q52 43.9 52 40 L52 32 Q52 28 48 28 L44.45 28 46 27.65 Q47.95 26.85 48 24.25 L48 24 50 23.7 50.35 23.8 52 24 60 24 60 26 59.9 28 59.4 32.1 59.1 33.55 58.45 36 58.15 36.9 58.1 37.05 57.5 38.65 Q56.15 39.45 56.05 41.5 53.55 45.6 49.75 48.8 47.7 50.55 45.25 52 42.75 53.45 39.9 54.65 28.15 59.45 9.65 60 L0 60 M12 46.25 L12 48.25 Q12.15 52 16 52 L28 52 Q31.85 52 32 48.25 L32 46.25 32 35.75 Q31.85 32 28 32 L16 32 Q12.15 32 12 35.75 L12 46.25"/>
  </g>
</svg>