<svg width="64" height="64" xmlns="http://www.w3.org/2000/svg" xmlns:xlink="http://www.w3.org/1999/xlink">
  <defs/>
  <g>
    <path stroke="none" fill="#353541" d="M56 0 L64 0 64 4 56 0"/>
    <path stroke="none" fill="#BA6BE9" d="M64 8 L64 18 52.7 12.4 52.15 12.1 28 0 48 0 64 8"/>
    <path stroke="none" fill="#CFD5DA" d="M64 33 L64 51 63.55 51 Q61.45 51 59.5 52.05 57.7 53 55.95 54.8 L53 57.3 Q50.45 59 48 59 45.4 59 42.7 57.1 L40.05 54.8 Q38.3 53 36.55 52.05 36.2 51.85 35.85 51.75 33.95 50.9 32 51 29.7 50.9 27.5 52.05 25.7 53 23.95 54.8 L21.35 57.1 21 57.3 Q18.45 59 16 59 12.15 59 8.05 54.8 6.3 53 4.55 52.05 2.55 51 0.5 51 L0 51 0 33 0.5 33 Q2.55 33 4.55 34.05 6.3 35 8.05 36.8 12.15 41 16 41 18.45 41 21 39.3 L21.35 39.1 23.95 36.8 24.7 36.1 Q26.1 34.8 27.5 34.05 29.7 32.9 32 33 33.95 32.9 35.85 33.75 36.2 33.85 36.55 34.05 37.95 34.8 39.35 36.1 L40.05 36.8 42.7 39.1 Q45.4 41 48 41 L49.25 40.9 50.1 40.7 Q51.55 40.3 53 39.3 L55.95 36.8 Q57.7 35 59.5 34.05 61.45 33 63.55 33 L64 33 M0 22 L0 18 0.5 18 Q2.55 18 4.55 19.05 6.3 20 8.05 21.8 L9.55 23.2 Q12.85 26 16 26 L16.5 26 Q18.7 25.85 21 24.3 L21.35 24.1 23.95 21.8 Q25.7 20 27.5 19.05 29.7 17.9 32 18 33.95 17.9 35.85 18.75 36.2 18.85 36.55 19.05 38.3 20 40.05 21.8 L42.7 24.1 Q45.15 25.85 47.55 26 L48 26 Q50.45 26 53 24.3 L54.5 23.2 55.95 21.8 Q57.35 20.35 58.85 19.45 L64 22 63.55 22 Q61.45 22 59.5 23.05 57.7 24 55.95 25.8 L53 28.3 Q50.45 30 48 30 45.4 30 42.7 28.1 L40.05 25.8 39.35 25.1 Q37.95 23.8 36.55 23.05 36.2 22.85 35.85 22.75 33.95 21.9 32 22 29.7 21.9 27.5 23.05 26.1 23.8 24.7 25.1 L23.95 25.8 21.35 28.1 21 28.3 Q18.45 30 16 30 12.15 30 8.05 25.8 6.3 24 4.55 23.05 2.55 22 0.5 22 L0 22"/>
    <path stroke="none" fill="#BBC4CB" d="M0 22 L0.5 22 Q2.55 22 4.55 23.05 6.3 24 8.05 25.8 12.15 30 16 30 18.45 30 21 28.3 L21.35 28.1 23.95 25.8 24.7 25.1 Q26.1 23.8 27.5 23.05 29.7 21.9 32 22 33.95 21.9 35.85 22.75 36.2 22.85 36.55 23.05 37.95 23.8 39.35 25.1 L40.05 25.8 42.7 28.1 Q45.4 30 48 30 50.45 30 53 28.3 L55.95 25.8 Q57.7 24 59.5 23.05 61.45 22 63.55 22 L64 22 64 29 63.55 29 Q61.45 29 59.5 30.05 57.7 31 55.95 32.8 L54.5 34.2 53 35.3 Q50.45 37 48 37 L47.55 37 Q45.15 36.85 42.7 35.1 L40.05 32.8 Q38.3 31 36.55 30.05 36.2 29.85 35.85 29.75 33.95 28.9 32 29 30.05 28.9 28.15 29.75 L27.5 30.05 Q25.7 31 23.95 32.8 L21.35 35.1 21 35.3 Q18.7 36.85 16.5 37 L16 37 Q12.85 37 9.55 34.2 L8.05 32.8 Q6.3 31 4.55 30.05 2.55 29 0.5 29 L0 29 0 22 M64 51 L64 64 0 64 0 51 0.5 51 Q2.55 51 4.55 52.05 6.3 53 8.05 54.8 12.15 59 16 59 18.45 59 21 57.3 L21.35 57.1 23.95 54.8 Q25.7 53 27.5 52.05 29.7 50.9 32 51 33.95 50.9 35.85 51.75 36.2 51.85 36.55 52.05 38.3 53 40.05 54.8 L42.7 57.1 Q45.4 59 48 59 50.45 59 53 57.3 L55.95 54.8 Q57.7 53 59.5 52.05 61.45 51 63.55 51 L64 51 M0 6 L0 0 20 0 32 6 Q29.7 5.9 27.5 7.05 25.7 8 23.95 9.8 L21.35 12.1 21 12.3 Q18.45 14 16 14 12.15 14 8.05 9.8 6.3 8 4.55 7.05 2.55 6 0.5 6 L0 6 M48 14 L47.95 14 Q45.35 14 42.7 12.1 L40.55 10.3 40.5 10.25 48 14"/>
    <path stroke="none" fill="#A452D4" d="M48 14 L40.5 10.25 32 6 20 0 28 0 52.15 12.1 52.7 12.4 64 18 64 22 58.85 19.45 48 14"/>
    <path stroke="none" fill="#D699FA" d="M64 4 L64 8 48 0 56 0 64 4"/>
    <path stroke="none" fill="#A6B2BB" d="M64 29 L64 33 63.55 33 Q61.45 33 59.5 34.05 57.7 35 55.95 36.8 L53 39.3 Q51.55 40.3 50.1 40.7 L49.25 40.9 48 41 Q45.4 41 42.7 39.1 L40.05 36.8 39.35 36.1 Q37.95 34.8 36.55 34.05 36.2 33.85 35.85 33.75 33.95 32.9 32 33 29.7 32.9 27.5 34.05 26.1 34.8 24.7 36.1 L23.95 36.8 21.35 39.1 21 39.3 Q18.45 41 16 41 12.15 41 8.05 36.8 6.3 35 4.55 34.05 2.55 33 0.5 33 L0 33 0 29 0.5 29 Q2.55 29 4.55 30.05 6.3 31 8.05 32.8 L9.55 34.2 Q12.85 37 16 37 L16.5 37 Q18.7 36.85 21 35.3 L21.35 35.1 23.95 32.8 Q25.7 31 27.5 30.05 L28.15 29.75 Q30.05 28.9 32 29 33.95 28.9 35.85 29.75 36.2 29.85 36.55 30.05 38.3 31 40.05 32.8 L42.7 35.1 Q45.15 36.85 47.55 37 L48 37 Q50.45 37 53 35.3 L54.5 34.2 55.95 32.8 Q57.7 31 59.5 30.05 61.45 29 63.55 29 L64 29 M0 18 L0 6 0.5 6 Q2.55 6 4.55 7.05 6.3 8 8.05 9.8 12.15 14 16 14 18.45 14 21 12.3 L21.35 12.1 23.95 9.8 Q25.7 8 27.5 7.05 29.7 5.9 32 6 L40.5 10.25 40.55 10.3 42.7 12.1 Q45.35 14 47.95 14 L48 14 58.85 19.45 Q57.35 20.35 55.95 21.8 L54.5 23.2 53 24.3 Q50.45 26 48 26 L47.55 26 Q45.15 25.85 42.7 24.1 L40.05 21.8 Q38.3 20 36.55 19.05 36.2 18.85 35.85 18.75 33.95 17.9 32 18 29.7 17.9 27.5 19.05 25.7 20 23.95 21.8 L21.35 24.1 21 24.3 Q18.7 25.85 16.5 26 L16 26 Q12.85 26 9.55 23.2 L8.05 21.8 Q6.3 20 4.55 19.05 2.55 18 0.5 18 L0 18"/>
  </g>
</svg>