<svg width="64" height="64" xmlns="http://www.w3.org/2000/svg" xmlns:xlink="http://www.w3.org/1999/xlink">
  <defs/>
  <g>
    <path stroke="none" fill="#353541" d="M64 60 L64 64 54.2 64 Q33.35 63.4 20.65 57.55 15.5 55.15 11.7 51.9 L11.65 51.9 Q6.85 47.8 4 42.55 L2.15 38.45 2.1 38.4 1 34.45 Q0.1 30.5 0 26.1 L0 26 0 12 0 11.85 Q0.15 8.65 1.1 6.45 L1.15 6.3 Q3.75 0.2 11.9 0 L12 0 64 0 64 4 12 4 Q6.6 4.15 4.8 8 4.1 9.65 4 12 L4 16 4 18.8 4 22.8 4 26 Q4.1 29.2 4.6 32.1 L4.9 33.55 5.85 36.9 5.9 37.05 Q8.45 43.95 14.25 48.8 18.35 52.25 24.15 54.65 35.85 59.45 54.35 60 L64 60"/>
    <path stroke="none" fill="#BA6BE9" d="M4 18.8 L4 16 Q4.1 13.65 4.8 12 6.6 8.15 12 8 L64 8 64 18 Q61.7 17.9 59.45 19.05 57.7 20 55.95 21.8 51.85 26 48 26 45.55 26 43 24.3 41.55 23.35 40.05 21.8 38.3 20 36.5 19.05 34.3 17.9 32 18 29.7 17.9 27.45 19.05 25.7 20 23.95 21.8 19.85 26 16 26 13.55 26 11 24.3 L8.05 21.8 Q6.3 20 4.5 19.05 L4 18.8"/>
    <path stroke="none" fill="#A452D4" d="M4 18.8 L4.5 19.05 Q6.3 20 8.05 21.8 L11 24.3 Q13.55 26 16 26 19.85 26 23.95 21.8 25.7 20 27.45 19.05 29.7 17.9 32 18 34.3 17.9 36.5 19.05 38.3 20 40.05 21.8 41.55 23.35 43 24.3 45.55 26 48 26 51.85 26 55.95 21.8 57.7 20 59.45 19.05 61.7 17.9 64 18 L64 22 Q61.7 21.9 59.45 23.05 57.7 24 55.95 25.8 51.85 30 48 30 45.55 30 43 28.3 41.55 27.35 40.05 25.8 38.3 24 36.5 23.05 34.3 21.9 32 22 29.7 21.9 27.45 23.05 25.7 24 23.95 25.8 19.85 30 16 30 13.55 30 11 28.3 L8.05 25.8 Q6.3 24 4.5 23.05 L4 22.8 4 18.8"/>
    <path stroke="none" fill="#D699FA" d="M4 16 L4 12 Q4.1 9.65 4.8 8 6.6 4.15 12 4 L64 4 64 8 12 8 Q6.6 8.15 4.8 12 4.1 13.65 4 16"/>
    <path stroke="none" fill="#BBC4CB" d="M64 60 L54.35 60 Q35.85 59.45 24.15 54.65 25.8 52.95 27.45 52.05 29.7 50.9 32 51 34.3 50.9 36.5 52.05 38.3 53 40.05 54.8 41.55 56.35 43 57.3 45.55 59 48 59 51.85 59 55.95 54.8 57.7 53 59.45 52.05 61.7 50.9 64 51 L64 60 M4.6 32.1 Q4.1 29.2 4 26 L4 22.8 4.5 23.05 Q6.3 24 8.05 25.8 L11 28.3 Q13.55 30 16 30 19.85 30 23.95 25.8 25.7 24 27.45 23.05 29.7 21.9 32 22 34.3 21.9 36.5 23.05 38.3 24 40.05 25.8 41.55 27.35 43 28.3 45.55 30 48 30 51.85 30 55.95 25.8 57.7 24 59.45 23.05 61.7 21.9 64 22 L64 31 Q61.7 30.9 59.45 32.05 57.7 33 55.95 34.8 51.85 39 48 39 45.55 39 43 37.3 41.55 36.35 40.05 34.8 38.3 33 36.5 32.05 34.3 30.9 32 31 29.7 30.9 27.45 32.05 25.7 33 23.95 34.8 19.85 39 16 39 13.55 39 11 37.3 L8.05 34.8 Q6.35 33.05 4.6 32.1"/>
    <path stroke="none" fill="#A6B2BB" d="M4.6 32.1 Q6.35 33.05 8.05 34.8 L11 37.3 Q13.55 39 16 39 19.85 39 23.95 34.8 25.7 33 27.45 32.05 29.7 30.9 32 31 34.3 30.9 36.5 32.05 38.3 33 40.05 34.8 41.55 36.35 43 37.3 45.55 39 48 39 51.85 39 55.95 34.8 57.7 33 59.45 32.05 61.7 30.9 64 31 L64 35 Q61.7 34.9 59.45 36.05 57.7 37 55.95 38.8 51.85 43 48 43 45.55 43 43 41.3 41.55 40.35 40.05 38.8 38.3 37 36.5 36.05 34.3 34.9 32 35 29.7 34.9 27.45 36.05 25.7 37 23.95 38.8 19.85 43 16 43 13.55 43 11 41.3 L8.05 38.8 5.85 36.9 4.9 33.55 4.6 32.1"/>
    <path stroke="none" fill="#CFD5DA" d="M24.15 54.65 Q18.35 52.25 14.25 48.8 8.45 43.95 5.9 37.05 L5.85 36.9 8.05 38.8 11 41.3 Q13.55 43 16 43 19.85 43 23.95 38.8 25.7 37 27.45 36.05 29.7 34.9 32 35 34.3 34.9 36.5 36.05 38.3 37 40.05 38.8 41.55 40.35 43 41.3 45.55 43 48 43 51.85 43 55.95 38.8 57.7 37 59.45 36.05 61.7 34.9 64 35 L64 51 Q61.7 50.9 59.45 52.05 57.7 53 55.95 54.8 51.85 59 48 59 45.55 59 43 57.3 41.55 56.35 40.05 54.8 38.3 53 36.5 52.05 34.3 50.9 32 51 29.7 50.9 27.45 52.05 25.8 52.95 24.15 54.65"/>
  </g>
</svg>