<svg width="64" height="64" xmlns="http://www.w3.org/2000/svg" xmlns:xlink="http://www.w3.org/1999/xlink">
  <defs/>
  <g>
    <path stroke="none" fill="#353541" d="M64 48 L64 52 62.2 51.6 49.75 45.35 49.7 45.3 48 44.9 Q47.05 44.9 46.2 45.35 L33.8 51.6 32 52 Q31.05 52 30.2 51.6 L17.75 45.35 17.7 45.3 Q16.9 44.9 16 44.9 15.05 44.9 14.2 45.35 L9.8 47.55 8.7 47.9 Q4.15 48.7 2.05 46.2 -0.2 44.35 0 39.8 L0 12 0 11.9 Q0.1 8.65 1.15 6.35 L1.2 6.35 Q3.7 0.25 11.85 0 L12 0 64 0 64 4 12 4 Q6.6 4.15 4.8 8 4.1 9.65 4 12 L4 16 4 22 4 26 4 32 4 36 4 40 Q3.75 44.7 8 43.95 L12.4 41.75 Q14.1 40.9 16 40.9 17.9 40.9 19.55 41.75 L32 48 44.4 41.75 Q46.1 40.9 48 40.9 49.9 40.9 51.55 41.75 L64 48"/>
    <path stroke="none" fill="#BBC4CB" d="M4 32 L4 26 16 20 32 28 48 20 64 28 64 34 51.55 27.75 Q49.9 26.9 48 26.9 46.1 26.9 44.4 27.75 L32 34 19.55 27.75 Q17.9 26.9 16 26.9 14.1 26.9 12.4 27.75 L4 32"/>
    <path stroke="none" fill="#C66A3E" d="M4 26 L4 22 16 16 32 24 48 16 64 24 64 28 48 20 32 28 16 20 4 26"/>
    <path stroke="none" fill="#DE7E4F" d="M4 22 L4 16 Q4.25 8.25 12 8 L64 8 64 24 48 16 32 24 16 16 4 22"/>
    <path stroke="none" fill="#CFD5DA" d="M64 48 L51.55 41.75 Q49.9 40.9 48 40.9 46.1 40.9 44.4 41.75 L32 48 19.55 41.75 Q17.9 40.9 16 40.9 14.1 40.9 12.4 41.75 L8 43.95 Q3.75 44.7 4 40 L4 36 12.4 31.75 Q14.1 30.9 16 30.9 17.9 30.9 19.55 31.75 L32 38 44.4 31.75 Q46.1 30.9 48 30.9 49.9 30.9 51.55 31.75 L64 38 64 48"/>
    <path stroke="none" fill="#A6B2BB" d="M4 36 L4 32 12.4 27.75 Q14.1 26.9 16 26.9 17.9 26.9 19.55 27.75 L32 34 44.4 27.75 Q46.1 26.9 48 26.9 49.9 26.9 51.55 27.75 L64 34 64 38 51.55 31.75 Q49.9 30.9 48 30.9 46.1 30.9 44.4 31.75 L32 38 19.55 31.75 Q17.9 30.9 16 30.9 14.1 30.9 12.4 31.75 L4 36"/>
    <path stroke="none" fill="#EE9366" d="M4 16 L4 12 Q4.1 9.65 4.8 8 6.6 4.15 12 4 L64 4 64 8 12 8 Q4.25 8.25 4 16"/>
    <path stroke="none" fill="#BBC4CB" d="M18.65 33.45 L19.5 34.3 Q20 34.8 20 35.5 20 36.2 19.5 36.7 L18.65 37.5 Q18.2 38 17.5 38 16.8 38 16.3 37.5 L15.5 36.65 Q15 36.2 15 35.45 15 34.8 15.5 34.35 L16.3 33.5 Q16.8 33 17.45 33 18.2 33 18.65 33.45"/>
    <path stroke="none" fill="#C66A3E" d="M26.65 13.3 L27.5 14.15 Q28 14.65 28 15.35 28 16.05 27.5 16.55 L26.65 17.35 Q26.2 17.85 25.5 17.85 24.8 17.85 24.3 17.35 L23.5 16.5 Q23 16.05 23 15.3 23 14.65 23.5 14.2 L24.3 13.35 Q24.8 12.85 25.45 12.85 26.2 12.85 26.65 13.3"/>
    <path stroke="none" fill="#EE9366" d="M38.65 10.65 L40 12 Q40.8 12.8 40.8 13.9 40.8 15 40 15.8 L38.65 17.15 Q37.95 17.85 36.85 17.85 35.75 17.85 34.95 17.05 L33.6 15.7 Q32.85 15 32.8 13.85 32.85 12.8 33.6 12.05 L34.95 10.7 Q35.75 9.9 36.75 9.85 37.95 9.9 38.65 10.65"/>
  </g>
</svg>