<svg width="64" height="64" xmlns="http://www.w3.org/2000/svg" xmlns:xlink="http://www.w3.org/1999/xlink">
  <defs/>
  <g>
    <path stroke="none" fill="#353541" d="M0 4 L0 0 64 0 64 4 0 4 M64 48 L64 52 62.2 51.6 49.8 45.35 Q48.95 44.9 48 44.9 L46.3 45.3 46.25 45.35 33.8 51.6 32 52 Q31.05 52 30.2 51.6 24 48.5 17.8 45.35 16.95 44.9 16 44.9 L14.3 45.3 14.25 45.35 1.8 51.6 0 52 0 48 12.45 41.75 Q14.1 40.9 16 40.9 17.9 40.9 19.6 41.75 L32 48 44.45 41.75 Q46.1 40.9 48 40.9 49.9 40.9 51.6 41.75 L64 48"/>
    <path stroke="none" fill="#DE7E4F" d="M64 8 L64 24 48 16 32 24 16 16 0 24 0 8 64 8"/>
    <path stroke="none" fill="#C66A3E" d="M64 24 L64 28 48 20 32 28 16 20 0 28 0 24 16 16 32 24 48 16 64 24"/>
    <path stroke="none" fill="#BBC4CB" d="M64 28 L64 34 51.6 27.75 Q49.9 26.9 48 26.9 46.1 26.9 44.45 27.75 L32 34 19.6 27.75 Q17.9 26.9 16 26.9 14.1 26.9 12.45 27.75 L0 34 0 28 16 20 32 28 48 20 64 28"/>
    <path stroke="none" fill="#A6B2BB" d="M64 34 L64 38 51.6 31.75 Q49.9 30.9 48 30.9 46.1 30.9 44.45 31.75 L32 38 19.6 31.75 Q17.9 30.9 16 30.9 14.1 30.9 12.45 31.75 L0 38 0 34 12.45 27.75 Q14.1 26.9 16 26.9 17.9 26.9 19.6 27.75 L32 34 44.45 27.75 Q46.1 26.9 48 26.9 49.9 26.9 51.6 27.75 L64 34"/>
    <path stroke="none" fill="#CFD5DA" d="M64 38 L64 48 51.6 41.75 Q49.9 40.9 48 40.9 46.1 40.9 44.45 41.75 L32 48 19.6 41.75 Q17.9 40.9 16 40.9 14.1 40.9 12.45 41.75 L0 48 0 38 12.45 31.75 Q14.1 30.9 16 30.9 17.9 30.9 19.6 31.75 L32 38 44.45 31.75 Q46.1 30.9 48 30.9 49.9 30.9 51.6 31.75 L64 38"/>
    <path stroke="none" fill="#EE9366" d="M64 4 L64 8 0 8 0 4 64 4"/>
    <path stroke="none" fill="#BBC4CB" d="M49.65 33.95 L50.5 34.8 Q51 35.3 51 36 51 36.7 50.5 37.2 L49.65 38 Q49.2 38.5 48.5 38.5 47.8 38.5 47.3 38 L46.5 37.15 Q46 36.7 46 35.95 46 35.3 46.5 34.85 L47.3 34 Q47.8 33.5 48.45 33.5 49.2 33.5 49.65 33.95"/>
    <path stroke="none" fill="#BBC4CB" d="M42.15 36.2 L43 37.05 Q43.5 37.55 43.5 38.25 43.5 38.95 43 39.45 L42.15 40.25 41 40.75 Q40.3 40.75 39.8 40.25 L39 39.4 Q38.5 38.95 38.5 38.2 38.5 37.55 39 37.1 L39.8 36.25 Q40.3 35.75 40.95 35.75 41.7 35.75 42.15 36.2"/>
    <path stroke="none" fill="#C66A3E" d="M33.65 15.95 L34.5 16.8 Q35 17.3 35 18 35 18.7 34.5 19.2 L33.65 20 Q33.2 20.5 32.5 20.5 31.8 20.5 31.3 20 L30.5 19.15 Q30 18.7 30 17.95 30 17.3 30.5 16.85 L31.3 16 Q31.8 15.5 32.45 15.5 33.2 15.5 33.65 15.95"/>
  </g>
</svg>