<svg width="64" height="64" xmlns="http://www.w3.org/2000/svg" xmlns:xlink="http://www.w3.org/1999/xlink">
  <defs/>
  <g>
    <path stroke="none" fill="#353541" d="M32 52 L27.5 51.7 Q21.05 50.85 14.3 47.35 11.2 45.75 8.05 44.95 L7.15 44.7 6.8 44.6 Q0 42.4 0 36.15 L0 36 0 12 0 11.85 Q0.15 8.6 1.2 6.35 3.7 0.25 11.9 0 L12 0 52 0 52.1 0 Q60.3 0.25 62.8 6.35 63.85 8.6 64 11.85 L64 12 64 36 64 36.15 Q64 42.4 57.2 44.6 L56.85 44.7 55.95 44.95 Q52.8 45.75 49.7 47.35 41 51.85 32.75 52 L32 52 M60 16 L60 12 Q59.9 9.65 59.15 8 57.4 4.15 52 4 L12 4 Q6.6 4.15 4.85 8 4.1 9.65 4 12 L4 16 4 18.15 4 22.15 4 26.15 4 30.15 4 36 Q4.1 39.55 8 40.8 L9.05 41.05 Q12.6 42 16.1 43.8 21.95 46.8 27.5 47.65 L32 48 32.75 48 Q40.1 47.8 47.9 43.8 51.4 42 54.95 41.05 L56 40.8 Q59.9 39.55 60 36 L60 30.15 60 26.15 60 22.15 60 18.15 60 16"/>
    <path stroke="none" fill="#FFE0C2" d="M60 16 Q59.9 13.65 59.15 12 57.4 8.15 52 8 L12 8 Q6.6 8.15 4.85 12 4.1 13.65 4 16 L4 12 Q4.1 9.65 4.85 8 6.6 4.15 12 4 L52 4 Q57.4 4.15 59.15 8 59.9 9.65 60 12 L60 16 M33.85 15.15 L35.2 16.5 Q36 17.3 36 18.4 36 19.5 35.2 20.3 L33.85 21.65 Q33.15 22.35 32.05 22.35 30.95 22.35 30.15 21.55 L28.8 20.2 Q28.05 19.5 28 18.35 28.05 17.3 28.8 16.55 L30.15 15.2 Q30.95 14.4 31.95 14.35 33.15 14.4 33.85 15.15"/>
    <path stroke="none" fill="#F3C7A5" d="M33.85 15.15 Q33.15 14.4 31.95 14.35 30.95 14.4 30.15 15.2 L28.8 16.55 Q28.05 17.3 28 18.35 28.05 19.5 28.8 20.2 L30.15 21.55 Q30.95 22.35 32.05 22.35 33.15 22.35 33.85 21.65 L35.2 20.3 Q36 19.5 36 18.4 36 17.3 35.2 16.5 L33.85 15.15 M60 16 L60 18.15 54.95 19.05 Q51.4 20 47.9 21.8 40.1 25.8 32.75 26 L32 26 27.5 25.65 Q21.95 24.8 16.1 21.8 12.6 20 9.05 19.05 L4 18.15 4 16 Q4.1 13.65 4.85 12 6.6 8.15 12 8 L52 8 Q57.4 8.15 59.15 12 59.9 13.65 60 16 M23.15 12.3 Q22.7 11.85 21.95 11.85 21.3 11.85 20.8 12.35 L20 13.2 Q19.5 13.65 19.5 14.3 19.5 15.05 20 15.5 L20.8 16.35 Q21.3 16.85 22 16.85 22.7 16.85 23.15 16.35 L24 15.55 Q24.5 15.05 24.5 14.35 24.5 13.65 24 13.15 L23.15 12.3"/>
    <path stroke="none" fill="#E7B187" d="M23.15 12.3 L24 13.15 Q24.5 13.65 24.5 14.35 24.5 15.05 24 15.55 L23.15 16.35 Q22.7 16.85 22 16.85 21.3 16.85 20.8 16.35 L20 15.5 Q19.5 15.05 19.5 14.3 19.5 13.65 20 13.2 L20.8 12.35 Q21.3 11.85 21.95 11.85 22.7 11.85 23.15 12.3 M60 18.15 L60 22.15 54.95 23.05 Q51.4 24 47.9 25.8 40.1 29.8 32.75 30 L32 30 27.5 29.65 Q21.95 28.8 16.1 25.8 12.6 24 9.05 23.05 L4 22.15 4 18.15 9.05 19.05 Q12.6 20 16.1 21.8 21.95 24.8 27.5 25.65 L32 26 32.75 26 Q40.1 25.8 47.9 21.8 51.4 20 54.95 19.05 L60 18.15"/>
    <path stroke="none" fill="#DE7E4F" d="M60 22.15 L60 26.15 54.95 27.05 Q51.4 28 47.9 29.8 40.1 33.8 32.75 34 L32 34 27.5 33.65 Q21.95 32.8 16.1 29.8 12.6 28 9.05 27.05 L4 26.15 4 22.15 9.05 23.05 Q12.6 24 16.1 25.8 21.95 28.8 27.5 29.65 L32 30 32.75 30 Q40.1 29.8 47.9 25.8 51.4 24 54.95 23.05 L60 22.15"/>
    <path stroke="none" fill="#C66A3E" d="M60 26.15 L60 30.15 54.95 31.05 Q51.4 32 47.9 33.8 40.1 37.8 32.75 38 L32 38 27.5 37.65 Q21.95 36.8 16.1 33.8 12.6 32 9.05 31.05 L4 30.15 4 26.15 9.05 27.05 Q12.6 28 16.1 29.8 21.95 32.8 27.5 33.65 L32 34 32.75 34 Q40.1 33.8 47.9 29.8 51.4 28 54.95 27.05 L60 26.15"/>
    <path stroke="none" fill="#EE9366" d="M60 30.15 L60 36 Q59.9 39.55 56 40.8 L54.95 41.05 Q51.4 42 47.9 43.8 40.1 47.8 32.75 48 L32 48 27.5 47.65 Q21.95 46.8 16.1 43.8 12.6 42 9.05 41.05 L8 40.8 Q4.1 39.55 4 36 L4 30.15 9.05 31.05 Q12.6 32 16.1 33.8 21.95 36.8 27.5 37.65 L32 38 32.75 38 Q40.1 37.8 47.9 33.8 51.4 32 54.95 31.05 L60 30.15"/>
  </g>
</svg>