<svg width="64" height="64" xmlns="http://www.w3.org/2000/svg" xmlns:xlink="http://www.w3.org/1999/xlink">
  <defs/>
  <g>
    <path stroke="none" fill="#353541" d="M64 4 L60 0 64 0 64 4"/>
    <path stroke="none" fill="#717180" d="M64 4 L64 8 56 0 60 0 64 4"/>
    <path stroke="none" fill="#424251" d="M40 0 L44 0 64 20 64 24 62 22 56 16 52 12 44 4 40 0"/>
    <path stroke="none" fill="#BBC4CB" d="M40 0 L44 4 36 4 Q32.15 4 32 7.75 L32 18.25 32 20 Q32 24 36 24 L48 24 Q52 24 52 20 L52 18.25 52 12 56 16 56 18.25 56 20.25 Q56.15 24 60 24 L64 24 64 48 60 48 Q56.15 48 56 51.75 L56 58.25 56 60 Q56 63.9 59.75 64 L48.25 64 Q52 63.9 52 60 L52 52 Q52 48 48 48 L40 48 Q36 48 36 52 L36 60 Q36 63.9 39.75 64 L4.25 64 Q8 63.9 8 60 L8 58.25 8 51.75 Q7.85 48 4 48 L0 48 0 24 4 24 Q7.85 24 8 20.25 L8 18.25 8 11.75 Q7.85 8 4 8 L0 8 0 0 40 0 M12 46.25 L12 48.25 Q12.15 52 16 52 L28 52 Q31.85 52 32 48.25 L32 46.25 32 35.75 Q31.85 32 28 32 L16 32 Q12.15 32 12 35.75 L12 46.25 M50.75 41 L55.25 41 Q58.65 40.9 59 37.7 L59 33 Q59 29 55 29 L51 29 Q47 29 47 33 L47 37.7 47.05 37.7 Q47.35 40.9 50.75 41 M15.75 24 L20.25 24 Q23.65 23.9 24 20.7 L24 16 Q24 12 20 12 L16 12 Q12 12 12 16 L12 20.7 12.05 20.7 Q12.35 23.9 15.75 24"/>
    <path stroke="none" fill="#A6B2BB" d="M15.75 24 Q12.35 23.9 12.05 20.7 L12 20.7 12 16 Q12 12 16 12 L20 12 Q24 12 24 16 L24 20.7 Q23.65 23.9 20.25 24 L15.75 24 M8 18.25 L8 20.25 Q7.85 24 4 24 L0 24 0 22 4 22 Q7.85 22 8 18.25 M0 48 L4 48 Q7.85 48 8 51.75 L8 58.25 Q7.9 61.9 4.25 62 L0 62 0 48 M39.75 64 Q36 63.9 36 60 L36 52 Q36 48 40 48 L48 48 Q52 48 52 52 L52 60 Q52 63.9 48.25 64 L39.75 64 M56 58.25 L56 51.75 Q56.15 48 60 48 L64 48 64 62 59.75 62 Q56.1 61.9 56 58.25 M64 24 L60 24 Q56.15 24 56 20.25 L56 18.25 Q56.15 22 60 22 L62 22 64 24 M52 12 L52 18.25 Q51.85 22 48 22 L36 22 Q32.15 22 32 18.25 L32 7.75 Q32.15 4 36 4 L44 4 52 12 M50.75 41 Q47.35 40.9 47.05 37.7 L47 37.7 47 33 Q47 29 51 29 L55 29 Q59 29 59 33 L59 37.7 Q58.65 40.9 55.25 41 L50.75 41 M32 46.25 L32 48.25 Q31.85 52 28 52 L16 52 Q12.15 52 12 48.25 L12 46.25 Q12.15 50 16 50 L28 50 Q31.85 50 32 46.25"/>
    <path stroke="none" fill="#CFD5DA" d="M32 46.25 Q31.85 50 28 50 L16 50 Q12.15 50 12 46.25 L12 35.75 Q12.15 32 16 32 L28 32 Q31.85 32 32 35.75 L32 46.25 M0 8 L4 8 Q7.85 8 8 11.75 L8 18.25 Q7.85 22 4 22 L0 22 0 8 M8 58.25 L8 60 Q8 63.9 4.25 64 L0 64 0 62 4.25 62 Q7.9 61.9 8 58.25 M59.75 64 Q56 63.9 56 60 L56 58.25 Q56.1 61.9 59.75 62 L64 62 64 64 59.75 64 M56 18.25 L56 16 62 22 60 22 Q56.15 22 56 18.25 M52 18.25 L52 20 Q52 24 48 24 L36 24 Q32 24 32 20 L32 18.25 Q32.15 22 36 22 L48 22 Q51.85 22 52 18.25"/>
    <path stroke="none" fill="#5E5E6D" d="M56 0 L64 8 64 20 44 0 56 0"/>
  </g>
</svg>