<svg width="64" height="64" xmlns="http://www.w3.org/2000/svg" xmlns:xlink="http://www.w3.org/1999/xlink">
  <defs/>
  <g>
    <path stroke="none" fill="#353541" d="M4 64 L0 64 0 12 0 11.85 Q0.15 8.65 1.1 6.45 L1.15 6.3 Q3.75 0.2 11.9 0 L12 0 64 0 64 4 12 4 Q6.6 4.15 4.8 8 4.1 9.65 4 12 L4 16 4 18.15 4 22.15 4 31.15 4 35.15 4 51.15 4 64"/>
    <path stroke="none" fill="#F3C7A5" d="M4 18.15 L4 16 Q4.25 8.25 12 8 L64 8 64 18 Q59.4 17.9 54.95 19.05 51.4 20 47.9 21.8 39.7 26 32 26 27.1 26 22 24.3 19.1 23.35 16.1 21.8 12.6 20 9.05 19.05 L4 18.15 M34.95 17.15 Q34.5 16.7 33.75 16.7 33.1 16.7 32.6 17.2 L31.8 18.05 Q31.3 18.5 31.3 19.15 31.3 19.9 31.8 20.35 L32.6 21.2 Q33.1 21.7 33.8 21.7 34.5 21.7 34.95 21.2 L35.8 20.4 Q36.3 19.9 36.3 19.2 36.3 18.5 35.8 18 L34.95 17.15 M42.45 12.15 Q42 11.7 41.25 11.7 40.6 11.7 40.1 12.2 L39.3 13.05 Q38.8 13.5 38.8 14.15 38.8 14.9 39.3 15.35 L40.1 16.2 Q40.6 16.7 41.3 16.7 42 16.7 42.45 16.2 L43.3 15.4 Q43.8 14.9 43.8 14.2 43.8 13.5 43.3 13 L42.45 12.15 M26.65 12 Q25.95 11.25 24.75 11.2 23.75 11.25 22.95 12.05 L21.6 13.4 Q20.85 14.15 20.8 15.2 20.85 16.35 21.6 17.05 L22.95 18.4 Q23.75 19.2 24.85 19.2 25.95 19.2 26.65 18.5 L28 17.15 Q28.8 16.35 28.8 15.25 28.8 14.15 28 13.35 L26.65 12"/>
    <path stroke="none" fill="#E7B187" d="M4 22.15 L4 18.15 9.05 19.05 Q12.6 20 16.1 21.8 19.1 23.35 22 24.3 27.1 26 32 26 39.7 26 47.9 21.8 51.4 20 54.95 19.05 59.4 17.9 64 18 L64 22 Q59.4 21.9 54.95 23.05 51.4 24 47.9 25.8 39.7 30 32 30 27.1 30 22 28.3 19.1 27.35 16.1 25.8 12.6 24 9.05 23.05 L4 22.15 M42.45 12.15 L43.3 13 Q43.8 13.5 43.8 14.2 43.8 14.9 43.3 15.4 L42.45 16.2 Q42 16.7 41.3 16.7 40.6 16.7 40.1 16.2 L39.3 15.35 Q38.8 14.9 38.8 14.15 38.8 13.5 39.3 13.05 L40.1 12.2 Q40.6 11.7 41.25 11.7 42 11.7 42.45 12.15 M34.95 17.15 L35.8 18 Q36.3 18.5 36.3 19.2 36.3 19.9 35.8 20.4 L34.95 21.2 Q34.5 21.7 33.8 21.7 33.1 21.7 32.6 21.2 L31.8 20.35 Q31.3 19.9 31.3 19.15 31.3 18.5 31.8 18.05 L32.6 17.2 Q33.1 16.7 33.75 16.7 34.5 16.7 34.95 17.15"/>
    <path stroke="none" fill="#DE7E4F" d="M4 64 L4 51.15 9.05 52.05 Q12.6 53 16.1 54.8 19.1 56.35 22 57.3 27.1 59 32 59 39.7 59 47.9 54.8 51.4 53 54.95 52.05 59.4 50.9 64 51 L64 64 4 64 M4 31.15 L4 22.15 9.05 23.05 Q12.6 24 16.1 25.8 19.1 27.35 22 28.3 27.1 30 32 30 39.7 30 47.9 25.8 51.4 24 54.95 23.05 59.4 21.9 64 22 L64 31 Q59.4 30.9 54.95 32.05 51.4 33 47.9 34.8 39.7 39 32 39 27.1 39 22 37.3 19.1 36.35 16.1 34.8 12.6 33 9.05 32.05 L4 31.15 M57.65 55.95 Q57.2 55.5 56.45 55.5 55.8 55.5 55.3 56 L54.5 56.85 Q54 57.3 54 57.95 54 58.7 54.5 59.15 L55.3 60 Q55.8 60.5 56.5 60.5 57.2 60.5 57.65 60 L58.5 59.2 Q59 58.7 59 58 59 57.3 58.5 56.8 L57.65 55.95 M39.15 51.45 L40 52.3 Q40.5 52.8 40.5 53.5 40.5 54.2 40 54.7 L39.15 55.5 Q38.7 56 38 56 37.3 56 36.8 55.5 L36 54.65 Q35.5 54.2 35.5 53.45 35.5 52.8 36 52.35 L36.8 51.5 Q37.3 51 37.95 51 38.7 51 39.15 51.45"/>
    <path stroke="none" fill="#FFE0C2" d="M4 16 L4 12 Q4.1 9.65 4.8 8 6.6 4.15 12 4 L64 4 64 8 12 8 Q4.25 8.25 4 16 M26.65 12 L28 13.35 Q28.8 14.15 28.8 15.25 28.8 16.35 28 17.15 L26.65 18.5 Q25.95 19.2 24.85 19.2 23.75 19.2 22.95 18.4 L21.6 17.05 Q20.85 16.35 20.8 15.2 20.85 14.15 21.6 13.4 L22.95 12.05 Q23.75 11.25 24.75 11.2 25.95 11.25 26.65 12"/>
    <path stroke="none" fill="#C66A3E" d="M4 35.15 L4 31.15 9.05 32.05 Q12.6 33 16.1 34.8 19.1 36.35 22 37.3 27.1 39 32 39 39.7 39 47.9 34.8 51.4 33 54.95 32.05 59.4 30.9 64 31 L64 35 Q59.4 34.9 54.95 36.05 51.4 37 47.9 38.8 39.7 43 32 43 27.1 43 22 41.3 19.1 40.35 16.1 38.8 12.6 37 9.05 36.05 L4 35.15 M57.65 55.95 L58.5 56.8 Q59 57.3 59 58 59 58.7 58.5 59.2 L57.65 60 Q57.2 60.5 56.5 60.5 55.8 60.5 55.3 60 L54.5 59.15 Q54 58.7 54 57.95 54 57.3 54.5 56.85 L55.3 56 Q55.8 55.5 56.45 55.5 57.2 55.5 57.65 55.95"/>
    <path stroke="none" fill="#EE9366" d="M4 51.15 L4 35.15 9.05 36.05 Q12.6 37 16.1 38.8 19.1 40.35 22 41.3 27.1 43 32 43 39.7 43 47.9 38.8 51.4 37 54.95 36.05 59.4 34.9 64 35 L64 51 Q59.4 50.9 54.95 52.05 51.4 53 47.9 54.8 39.7 59 32 59 27.1 59 22 57.3 19.1 56.35 16.1 54.8 12.6 53 9.05 52.05 L4 51.15 M39.15 51.45 Q38.7 51 37.95 51 37.3 51 36.8 51.5 L36 52.35 Q35.5 52.8 35.5 53.45 35.5 54.2 36 54.65 L36.8 55.5 Q37.3 56 38 56 38.7 56 39.15 55.5 L40 54.7 Q40.5 54.2 40.5 53.5 40.5 52.8 40 52.3 L39.15 51.45"/>
  </g>
</svg>