<svg width="64" height="64" xmlns="http://www.w3.org/2000/svg" xmlns:xlink="http://www.w3.org/1999/xlink">
  <defs/>
  <g>
    <path stroke="none" fill="#46E087" d="M64 36 L64 40 0 8 0 4 64 36"/>
    <path stroke="none" fill="#20B860" d="M64 56 L64 60 44.15 50.05 40.05 48.05 12 34 8 32 0 28 0 24 64 56"/>
    <path stroke="none" fill="#2ECC71" d="M64 56 L0 24 0 8 64 40 64 56"/>
    <path stroke="none" fill="#353541" d="M0 4 L0 0 64 32 64 36 0 4"/>
    <path stroke="none" fill="#DE7E4F" d="M64 60 L64 64 0 64 0 60 Q1.85 59.95 3.6 59.1 L16 52.9 28.45 59.1 Q30.1 59.95 32 59.95 33.9 59.95 35.6 59.1 L48 52.9 60.45 59.1 Q62.15 59.95 64 60 M0 36 L0 28 8 32 0 36 M17.65 56.45 Q17.2 56 16.45 56 15.8 56 15.3 56.5 L14.5 57.35 Q14 57.8 14 58.45 14 59.2 14.5 59.65 L15.3 60.5 Q15.8 61 16.5 61 17.2 61 17.65 60.5 L18.5 59.7 Q19 59.2 19 58.5 19 57.8 18.5 57.3 L17.65 56.45 M40.05 48.05 L44.15 50.05 43.65 50.5 Q43.2 51 42.5 51 41.8 51 41.3 50.5 L40.5 49.65 Q40 49.2 40 48.45 L40.05 48.05"/>
    <path stroke="none" fill="#C66A3E" d="M0 40 L0 36 8 32 12 34 0 40 M17.65 56.45 L18.5 57.3 Q19 57.8 19 58.5 19 59.2 18.5 59.7 L17.65 60.5 Q17.2 61 16.5 61 15.8 61 15.3 60.5 L14.5 59.65 Q14 59.2 14 58.45 14 57.8 14.5 57.35 L15.3 56.5 Q15.8 56 16.45 56 17.2 56 17.65 56.45"/>
    <path stroke="none" fill="#EE9366" d="M0 60 L0 40 12 34 40.05 48.05 40 48.45 Q40 49.2 40.5 49.65 L41.3 50.5 Q41.8 51 42.5 51 43.2 51 43.65 50.5 L44.15 50.05 64 60 Q62.15 59.95 60.45 59.1 L48 52.9 35.6 59.1 Q33.9 59.95 32 59.95 30.1 59.95 28.45 59.1 L16 52.9 3.6 59.1 Q1.85 59.95 0 60"/>
  </g>
</svg>