<svg width="64" height="64" xmlns="http://www.w3.org/2000/svg" xmlns:xlink="http://www.w3.org/1999/xlink">
  <defs/>
  <g>
    <path stroke="none" fill="#D699FA" d="M64 36 L64 40 0 8 0 4 64 36"/>
    <path stroke="none" fill="#353541" d="M64 36 L0 4 0 0 64 32 64 36"/>
    <path stroke="none" fill="#A452D4" d="M64 50 L64 54 59.8 51.9 26 35 23.2 33.6 16 30 8.5 26.25 0 22 0 18 64 50"/>
    <path stroke="none" fill="#BA6BE9" d="M64 50 L0 18 0 8 64 40 64 50"/>
    <path stroke="none" fill="#BBC4CB" d="M64 54 L64 64 0 64 0 51 0.5 51 Q2.55 51 4.55 52.05 6.3 53 8.05 54.8 12.15 59 16 59 18.45 59 21 57.3 L21.35 57.1 23.95 54.8 Q25.7 53 27.5 52.05 29.7 50.9 32 51 33.95 50.9 35.85 51.75 36.2 51.85 36.55 52.05 38.3 53 40.05 54.8 L42.7 57.1 Q45.4 59 48 59 50.45 59 53 57.3 L55.95 54.8 Q57.7 53 59.5 52.05 L59.8 51.9 64 54 M0 29 L0 22 8.5 26.25 8.55 26.3 Q12.35 30 16 30 L23.2 33.6 23.15 33.6 21.35 35.1 21 35.3 Q18.7 36.85 16.5 37 L16 37 Q12.85 37 9.55 34.2 L8.05 32.8 Q6.3 31 4.55 30.05 2.55 29 0.5 29 L0 29"/>
    <path stroke="none" fill="#A6B2BB" d="M0 29 L0.5 29 Q2.55 29 4.55 30.05 6.3 31 8.05 32.8 L9.55 34.2 Q12.85 37 16 37 L16.5 37 Q18.7 36.85 21 35.3 L21.35 35.1 23.15 33.6 23.2 33.6 26 35 26 35.05 24.7 36.1 23.95 36.8 21.35 39.1 21 39.3 Q18.45 41 16 41 12.15 41 8.05 36.8 6.3 35 4.55 34.05 2.55 33 0.5 33 L0 33 0 29"/>
    <path stroke="none" fill="#CFD5DA" d="M0 51 L0 33 0.5 33 Q2.55 33 4.55 34.05 6.3 35 8.05 36.8 12.15 41 16 41 18.45 41 21 39.3 L21.35 39.1 23.95 36.8 24.7 36.1 26 35.05 26 35 59.8 51.9 59.5 52.05 Q57.7 53 55.95 54.8 L53 57.3 Q50.45 59 48 59 45.4 59 42.7 57.1 L40.05 54.8 Q38.3 53 36.55 52.05 36.2 51.85 35.85 51.75 33.95 50.9 32 51 29.7 50.9 27.5 52.05 25.7 53 23.95 54.8 L21.35 57.1 21 57.3 Q18.45 59 16 59 12.15 59 8.05 54.8 6.3 53 4.55 52.05 2.55 51 0.5 51 L0 51 M16 30 Q12.35 30 8.55 26.3 L8.5 26.25 16 30"/>
  </g>
</svg>