<svg width="64" height="64" xmlns="http://www.w3.org/2000/svg" xmlns:xlink="http://www.w3.org/1999/xlink">
  <defs/>
  <g>
    <path stroke="none" fill="#353541" d="M0 4 L0 0 64 0 64 4 0 4 M64 40 L64 44 63.95 44 Q59.85 43.9 55.95 44.95 52.8 45.75 49.75 47.35 46.45 49.05 43.25 50.1 L43.3 50.1 Q37.55 52 32 52 23.4 52.05 14.3 47.35 11.15 45.75 8.05 44.95 4.15 43.9 0.1 44 L0 44 0 40 Q4.6 39.9 9.05 41.05 12.6 42 16.1 43.8 24.3 48 32 48 36.9 48 42 46.3 44.9 45.35 47.9 43.8 51.4 42 54.95 41.05 59.4 39.9 64 40"/>
    <path stroke="none" fill="#E5F0FF" d="M64 8 L64 18 Q59.4 17.9 54.95 19.05 51.4 20 47.9 21.8 44.9 23.35 42 24.3 36.9 26 32 26 24.3 26 16.1 21.8 12.6 20 9.05 19.05 4.6 17.9 0 18 L0 8 64 8 M38.05 17.45 Q37.6 17 36.85 17 36.2 17 35.7 17.5 L34.9 18.35 Q34.4 18.8 34.4 19.45 34.4 20.2 34.9 20.65 L35.7 21.5 Q36.2 22 36.9 22 37.6 22 38.05 21.5 L38.9 20.7 Q39.4 20.2 39.4 19.5 39.4 18.8 38.9 18.3 L38.05 17.45"/>
    <path stroke="none" fill="#C8DBF5" d="M38.05 17.45 L38.9 18.3 Q39.4 18.8 39.4 19.5 39.4 20.2 38.9 20.7 L38.05 21.5 Q37.6 22 36.9 22 36.2 22 35.7 21.5 L34.9 20.65 Q34.4 20.2 34.4 19.45 34.4 18.8 34.9 18.35 L35.7 17.5 Q36.2 17 36.85 17 37.6 17 38.05 17.45 M64 18 L64 22 Q59.4 21.9 54.95 23.05 51.4 24 47.9 25.8 44.9 27.35 42 28.3 36.9 30 32 30 24.3 30 16.1 25.8 12.6 24 9.05 23.05 4.6 21.9 0 22 L0 18 Q4.6 17.9 9.05 19.05 12.6 20 16.1 21.8 24.3 26 32 26 36.9 26 42 24.3 44.9 23.35 47.9 21.8 51.4 20 54.95 19.05 59.4 17.9 64 18"/>
    <path stroke="none" fill="#BBC4CB" d="M64 22 L64 26 Q59.4 25.9 54.95 27.05 51.4 28 47.9 29.8 44.9 31.35 42 32.3 36.9 34 32 34 24.3 34 16.1 29.8 12.6 28 9.05 27.05 4.6 25.9 0 26 L0 22 Q4.6 21.9 9.05 23.05 12.6 24 16.1 25.8 24.3 30 32 30 36.9 30 42 28.3 44.9 27.35 47.9 25.8 51.4 24 54.95 23.05 59.4 21.9 64 22"/>
    <path stroke="none" fill="#A6B2BB" d="M64 26 L64 30 Q59.4 29.9 54.95 31.05 51.4 32 47.9 33.8 44.9 35.35 42 36.3 36.9 38 32 38 24.3 38 16.1 33.8 12.6 32 9.05 31.05 4.6 29.9 0 30 L0 26 Q4.6 25.9 9.05 27.05 12.6 28 16.1 29.8 24.3 34 32 34 36.9 34 42 32.3 44.9 31.35 47.9 29.8 51.4 28 54.95 27.05 59.4 25.9 64 26"/>
    <path stroke="none" fill="#CFD5DA" d="M64 30 L64 40 Q59.4 39.9 54.95 41.05 51.4 42 47.9 43.8 44.9 45.35 42 46.3 36.9 48 32 48 24.3 48 16.1 43.8 12.6 42 9.05 41.05 4.6 39.9 0 40 L0 30 Q4.6 29.9 9.05 31.05 12.6 32 16.1 33.8 24.3 38 32 38 36.9 38 42 36.3 44.9 35.35 47.9 33.8 51.4 32 54.95 31.05 59.4 29.9 64 30"/>
    <path stroke="none" fill="#FFFFFF" d="M64 4 L64 8 0 8 0 4 64 4"/>
  </g>
</svg>