<svg width="64" height="64" xmlns="http://www.w3.org/2000/svg" xmlns:xlink="http://www.w3.org/1999/xlink">
  <defs/>
  <g>
    <path stroke="none" fill="#353541" d="M23.25 49.65 L23.2 49.65 23.25 49.65 Q19.55 52.05 16 52 10.8 52.25 5.45 46.85 L5.45 46.9 Q0.35 41.85 0.05 36.35 L0 36 0 12 0 11.9 Q0.1 8.65 1.2 6.35 3.7 0.25 11.9 0 L12 0 52 0 52.1 0 Q60.3 0.25 62.8 6.35 63.9 8.65 64 11.9 L64 12 64 36 63.95 36.35 Q63.65 41.85 58.55 46.9 L58.55 46.85 Q53.2 52.25 48 52 44.45 52.05 40.75 49.65 L40.8 49.65 Q39 48.5 37.15 46.6 L34.6 44.6 34.65 44.6 Q33.6 44.05 32.5 44 L32.2 44 31.8 44 30.55 44.15 29.35 44.6 29.4 44.6 Q28.1 45.3 26.85 46.6 L23.95 49.15 23.25 49.65 M4 18.8 L4 22.8 4 26.8 4 30.8 4 36 Q4.35 40.2 8.25 44 12.25 48 16 48 18.45 48 21 46.3 L23.25 44.5 23.95 43.8 24.05 43.7 Q25.1 42.6 26.2 41.85 L27.45 41.05 28.5 40.6 31.6 40 31.85 40 32 40 32.5 40 Q34.55 40.05 36.5 41.05 38.3 42 40.05 43.8 41.55 45.35 43 46.3 45.55 48 48 48 51.75 48 55.75 44 59.65 40.2 60 36 L60 30.8 60 26.8 60 22.8 60 18.8 60 16 60 12 Q59.9 9.65 59.15 8 57.4 4.15 52 4 L12 4 Q6.6 4.15 4.85 8 4.1 9.65 4 12 L4 16 4 18.8"/>
    <path stroke="none" fill="#A452D4" d="M4 18.8 L4.55 19.05 Q6.3 20 8.05 21.8 12.15 26 16 26 18.45 26 21 24.3 L23.25 22.5 23.95 21.8 24.05 21.7 Q25.1 20.6 26.2 19.85 L27.45 19.05 28.5 18.6 Q30 18 31.6 18 L31.85 18 32 18 32.5 18 Q34.55 18.05 36.5 19.05 38.3 20 40.05 21.8 41.55 23.35 43 24.3 45.55 26 48 26 51.85 26 55.95 21.8 57.7 20 59.45 19.05 L60 18.8 60 22.8 59.45 23.05 Q57.7 24 55.95 25.8 51.85 30 48 30 45.55 30 43 28.3 41.55 27.35 40.05 25.8 38.3 24 36.5 23.05 34.55 22.05 32.5 22 L32 22 31.85 22 31.6 22 Q30 22 28.5 22.6 L27.45 23.05 26.2 23.85 Q25.1 24.6 24.05 25.7 L23.95 25.8 23.25 26.5 21 28.3 Q18.45 30 16 30 12.15 30 8.05 25.8 6.3 24 4.55 23.05 L4 22.8 4 18.8"/>
    <path stroke="none" fill="#BA6BE9" d="M4 18.8 L4 16 Q4.1 13.65 4.85 12 6.6 8.15 12 8 L52 8 Q57.4 8.15 59.15 12 59.9 13.65 60 16 L60 18.8 59.45 19.05 Q57.7 20 55.95 21.8 51.85 26 48 26 45.55 26 43 24.3 41.55 23.35 40.05 21.8 38.3 20 36.5 19.05 34.55 18.05 32.5 18 L32 18 31.85 18 31.6 18 Q30 18 28.5 18.6 L27.45 19.05 26.2 19.85 Q25.1 20.6 24.05 21.7 L23.95 21.8 23.25 22.5 21 24.3 Q18.45 26 16 26 12.15 26 8.05 21.8 6.3 20 4.55 19.05 L4 18.8"/>
    <path stroke="none" fill="#BBC4CB" d="M4 22.8 L4.55 23.05 Q6.3 24 8.05 25.8 12.15 30 16 30 18.45 30 21 28.3 L23.25 26.5 23.95 25.8 24.05 25.7 Q25.1 24.6 26.2 23.85 L27.45 23.05 28.5 22.6 Q30 22 31.6 22 L31.85 22 32 22 32.5 22 Q34.55 22.05 36.5 23.05 38.3 24 40.05 25.8 41.55 27.35 43 28.3 45.55 30 48 30 51.85 30 55.95 25.8 57.7 24 59.45 23.05 L60 22.8 60 26.8 59.45 27.05 Q57.7 28 55.95 29.8 51.85 34 48 34 45.55 34 43 32.3 41.55 31.35 40.05 29.8 38.3 28 36.5 27.05 34.55 26.05 32.5 26 L32 26 31.6 26 Q30 26 28.5 26.6 L27.45 27.05 26.2 27.85 Q25.1 28.6 24.05 29.7 L23.95 29.8 23.25 30.5 21 32.3 Q18.45 34 16 34 12.15 34 8.05 29.8 6.3 28 4.55 27.05 L4 26.8 4 22.8"/>
    <path stroke="none" fill="#A6B2BB" d="M60 30.8 L59.45 31.05 Q57.7 32 55.95 33.8 51.85 38 48 38 45.55 38 43 36.3 41.55 35.35 40.05 33.8 38.3 32 36.5 31.05 34.55 30.05 32.5 30 L32 30 31.85 30 31.6 30 Q30 30 28.5 30.6 L27.45 31.05 26.2 31.85 Q25.1 32.6 24.05 33.7 L23.95 33.8 23.25 34.5 21 36.3 Q18.45 38 16 38 12.15 38 8.05 33.8 6.3 32 4.55 31.05 L4 30.8 4 26.8 4.55 27.05 Q6.3 28 8.05 29.8 12.15 34 16 34 18.45 34 21 32.3 L23.25 30.5 23.95 29.8 24.05 29.7 Q25.1 28.6 26.2 27.85 L27.45 27.05 28.5 26.6 Q30 26 31.6 26 L32 26 32.5 26 Q34.55 26.05 36.5 27.05 38.3 28 40.05 29.8 41.55 31.35 43 32.3 45.55 34 48 34 51.85 34 55.95 29.8 57.7 28 59.45 27.05 L60 26.8 60 30.8"/>
    <path stroke="none" fill="#CFD5DA" d="M60 30.8 L60 36 Q59.65 40.2 55.75 44 51.75 48 48 48 45.55 48 43 46.3 41.55 45.35 40.05 43.8 38.3 42 36.5 41.05 34.55 40.05 32.5 40 L32 40 31.85 40 31.6 40 28.5 40.6 27.45 41.05 26.2 41.85 Q25.1 42.6 24.05 43.7 L23.95 43.8 23.25 44.5 21 46.3 Q18.45 48 16 48 12.25 48 8.25 44 4.35 40.2 4 36 L4 30.8 4.55 31.05 Q6.3 32 8.05 33.8 12.15 38 16 38 18.45 38 21 36.3 L23.25 34.5 23.95 33.8 24.05 33.7 Q25.1 32.6 26.2 31.85 L27.45 31.05 28.5 30.6 Q30 30 31.6 30 L31.85 30 32 30 32.5 30 Q34.55 30.05 36.5 31.05 38.3 32 40.05 33.8 41.55 35.35 43 36.3 45.55 38 48 38 51.85 38 55.95 33.8 57.7 32 59.45 31.05 L60 30.8"/>
    <path stroke="none" fill="#D699FA" d="M60 16 Q59.9 13.65 59.15 12 57.4 8.15 52 8 L12 8 Q6.6 8.15 4.85 12 4.1 13.65 4 16 L4 12 Q4.1 9.65 4.85 8 6.6 4.15 12 4 L52 4 Q57.4 4.15 59.15 8 59.9 9.65 60 12 L60 16"/>
  </g>
</svg>