<svg width="64" height="64" xmlns="http://www.w3.org/2000/svg" xmlns:xlink="http://www.w3.org/1999/xlink">
  <defs/>
  <g>
    <path stroke="none" fill="#DE7E4F" d="M64 6 Q59.4 5.9 54.95 7.05 51.4 8 47.9 9.8 44.9 11.35 42 12.3 36.9 14 32 14 24.3 14 16.1 9.8 12.6 8 9.05 7.05 L4 6.15 4 0 64 0 64 6 M4 22.15 L9.05 23.05 Q12.6 24 16.1 25.8 24.3 30 32 30 36.9 30 42 28.3 44.9 27.35 47.9 25.8 51.4 24 54.95 23.05 59.4 21.9 64 22 L64 29 Q59.4 28.9 54.95 30.05 51.4 31 47.9 32.8 44.9 34.35 42 35.3 36.9 37 32 37 24.3 37 16.1 32.8 12.6 31 9.05 30.05 L4 29.15 4 22.15 M64 51 L64 64 4 64 4 51.15 9.05 52.05 Q12.6 53 16.1 54.8 24.3 59 32 59 36.9 59 42 57.3 44.9 56.35 47.9 54.8 51.4 53 54.95 52.05 59.4 50.9 64 51 M27.9 18.2 L28.75 19.05 Q29.25 19.55 29.25 20.25 29.25 20.95 28.75 21.45 L27.9 22.25 Q27.45 22.75 26.75 22.75 26.05 22.75 25.55 22.25 L24.75 21.4 Q24.25 20.95 24.25 20.2 24.25 19.55 24.75 19.1 L25.55 18.25 Q26.05 17.75 26.7 17.75 27.45 17.75 27.9 18.2 M21.15 14.7 L22 15.55 Q22.5 16.05 22.5 16.75 22.5 17.45 22 17.95 L21.15 18.75 Q20.7 19.25 20 19.25 19.3 19.25 18.8 18.75 L18 17.9 Q17.5 17.45 17.5 16.7 17.5 16.05 18 15.6 L18.8 14.75 Q19.3 14.25 19.95 14.25 20.7 14.25 21.15 14.7 M17.85 41.5 L19.2 42.85 Q20 43.65 20 44.75 20 45.85 19.2 46.65 L17.85 48 Q17.15 48.7 16.05 48.7 14.95 48.7 14.15 47.9 L12.8 46.55 Q12.05 45.85 12 44.7 12.05 43.65 12.8 42.9 L14.15 41.55 Q14.95 40.75 15.95 40.7 17.15 40.75 17.85 41.5"/>
    <path stroke="none" fill="#C66A3E" d="M4 6.15 L9.05 7.05 Q12.6 8 16.1 9.8 24.3 14 32 14 36.9 14 42 12.3 44.9 11.35 47.9 9.8 51.4 8 54.95 7.05 59.4 5.9 64 6 L64 18 Q59.4 17.9 54.95 19.05 51.4 20 47.9 21.8 44.9 23.35 42 24.3 36.9 26 32 26 24.3 26 16.1 21.8 12.6 20 9.05 19.05 L4 18.15 4 6.15 M64 29 L64 33 Q59.4 32.9 54.95 34.05 51.4 35 47.9 36.8 44.9 38.35 42 39.3 36.9 41 32 41 24.3 41 16.1 36.8 12.6 35 9.05 34.05 L4 33.15 4 29.15 9.05 30.05 Q12.6 31 16.1 32.8 24.3 37 32 37 36.9 37 42 35.3 44.9 34.35 47.9 32.8 51.4 31 54.95 30.05 59.4 28.9 64 29 M21.15 14.7 Q20.7 14.25 19.95 14.25 19.3 14.25 18.8 14.75 L18 15.6 Q17.5 16.05 17.5 16.7 17.5 17.45 18 17.9 L18.8 18.75 Q19.3 19.25 20 19.25 20.7 19.25 21.15 18.75 L22 17.95 Q22.5 17.45 22.5 16.75 22.5 16.05 22 15.55 L21.15 14.7 M27.9 18.2 Q27.45 17.75 26.7 17.75 26.05 17.75 25.55 18.25 L24.75 19.1 Q24.25 19.55 24.25 20.2 24.25 20.95 24.75 21.4 L25.55 22.25 Q26.05 22.75 26.75 22.75 27.45 22.75 27.9 22.25 L28.75 21.45 Q29.25 20.95 29.25 20.25 29.25 19.55 28.75 19.05 L27.9 18.2"/>
    <path stroke="none" fill="#EE9366" d="M4 18.15 L9.05 19.05 Q12.6 20 16.1 21.8 24.3 26 32 26 36.9 26 42 24.3 44.9 23.35 47.9 21.8 51.4 20 54.95 19.05 59.4 17.9 64 18 L64 22 Q59.4 21.9 54.95 23.05 51.4 24 47.9 25.8 44.9 27.35 42 28.3 36.9 30 32 30 24.3 30 16.1 25.8 12.6 24 9.05 23.05 L4 22.15 4 18.15 M64 33 L64 51 Q59.4 50.9 54.95 52.05 51.4 53 47.9 54.8 44.9 56.35 42 57.3 36.9 59 32 59 24.3 59 16.1 54.8 12.6 53 9.05 52.05 L4 51.15 4 33.15 9.05 34.05 Q12.6 35 16.1 36.8 24.3 41 32 41 36.9 41 42 39.3 44.9 38.35 47.9 36.8 51.4 35 54.95 34.05 59.4 32.9 64 33 M17.85 41.5 Q17.15 40.75 15.95 40.7 14.95 40.75 14.15 41.55 L12.8 42.9 Q12.05 43.65 12 44.7 12.05 45.85 12.8 46.55 L14.15 47.9 Q14.95 48.7 16.05 48.7 17.15 48.7 17.85 48 L19.2 46.65 Q20 45.85 20 44.75 20 43.65 19.2 42.85 L17.85 41.5"/>
    <path stroke="none" fill="#353541" d="M4 0 L4 6.15 4 18.15 4 22.15 4 29.15 4 33.15 4 51.15 4 64 0 64 0 0 4 0"/>
  </g>
</svg>