<svg width="64" height="64" xmlns="http://www.w3.org/2000/svg" xmlns:xlink="http://www.w3.org/1999/xlink">
  <defs/>
  <g>
    <path stroke="none" fill="#353541" d="M0 4 L0 0 52 0 52.15 0 Q60.3 0.25 62.8 6.35 L62.85 6.35 63.45 8 Q63.95 9.75 64 11.9 L64 52 64 52.15 63.8 54.5 Q62.35 63.65 52.15 64 L0 64 0 60 52 60 Q58.8 59.8 59.85 53.8 L60 52 60 46.15 60 34.15 60 30.15 60 22.15 60 18.15 60 16 60 12 Q59.9 9.65 59.2 8 57.4 4.15 52 4 L0 4"/>
    <path stroke="none" fill="#F3C7A5" d="M0 18 L0 8 52 8 Q57.4 8.15 59.2 12 59.9 13.65 60 16 L60 18.15 54.95 19.05 Q51.4 20 47.9 21.8 44.9 23.35 42 24.3 36.9 26 32 26 24.3 26 16.1 21.8 12.6 20 9.05 19.05 4.6 17.9 0 18 M45.15 13.95 Q44.7 13.5 43.95 13.5 43.3 13.5 42.8 14 L42 14.85 Q41.5 15.3 41.5 15.95 41.5 16.7 42 17.15 L42.8 18 Q43.3 18.5 44 18.5 44.7 18.5 45.15 18 L46 17.2 Q46.5 16.7 46.5 16 46.5 15.3 46 14.8 L45.15 13.95 M33.85 12.8 Q33.15 12.05 31.95 12 30.95 12.05 30.15 12.85 L28.8 14.2 Q28.05 14.95 28 16 28.05 17.15 28.8 17.85 L30.15 19.2 Q30.95 20 32.05 20 33.15 20 33.85 19.3 L35.2 17.95 Q36 17.15 36 16.05 36 14.95 35.2 14.15 L33.85 12.8"/>
    <path stroke="none" fill="#FFE0C2" d="M0 8 L0 4 52 4 Q57.4 4.15 59.2 8 59.9 9.65 60 12 L60 16 Q59.9 13.65 59.2 12 57.4 8.15 52 8 L0 8 M45.15 13.95 L46 14.8 Q46.5 15.3 46.5 16 46.5 16.7 46 17.2 L45.15 18 Q44.7 18.5 44 18.5 43.3 18.5 42.8 18 L42 17.15 Q41.5 16.7 41.5 15.95 41.5 15.3 42 14.85 L42.8 14 Q43.3 13.5 43.95 13.5 44.7 13.5 45.15 13.95"/>
    <path stroke="none" fill="#E7B187" d="M0 22 L0 18 Q4.6 17.9 9.05 19.05 12.6 20 16.1 21.8 24.3 26 32 26 36.9 26 42 24.3 44.9 23.35 47.9 21.8 51.4 20 54.95 19.05 L60 18.15 60 22.15 54.95 23.05 Q51.4 24 47.9 25.8 44.9 27.35 42 28.3 36.9 30 32 30 24.3 30 16.1 25.8 12.6 24 9.05 23.05 4.6 21.9 0 22 M33.85 12.8 L35.2 14.15 Q36 14.95 36 16.05 36 17.15 35.2 17.95 L33.85 19.3 Q33.15 20 32.05 20 30.95 20 30.15 19.2 L28.8 17.85 Q28.05 17.15 28 16 28.05 14.95 28.8 14.2 L30.15 12.85 Q30.95 12.05 31.95 12 33.15 12.05 33.85 12.8"/>
    <path stroke="none" fill="#DE7E4F" d="M0 60 L0 46 Q4.6 45.9 9.05 47.05 12.6 48 16.1 49.8 24.3 54 32 54 36.9 54 42 52.3 44.9 51.35 47.9 49.8 51.4 48 54.95 47.05 L60 46.15 60 52 59.85 53.8 Q58.8 59.8 52 60 L0 60 M0 30 L0 22 Q4.6 21.9 9.05 23.05 12.6 24 16.1 25.8 24.3 30 32 30 36.9 30 42 28.3 44.9 27.35 47.9 25.8 51.4 24 54.95 23.05 L60 22.15 60 30.15 54.95 31.05 Q51.4 32 47.9 33.8 44.9 35.35 42 36.3 36.9 38 32 38 24.3 38 16.1 33.8 12.6 32 9.05 31.05 4.6 29.9 0 30 M7.15 39.15 L8 40 Q8.5 40.5 8.5 41.2 8.5 41.9 8 42.4 L7.15 43.2 Q6.7 43.7 6 43.7 5.3 43.7 4.8 43.2 L4 42.35 Q3.5 41.9 3.5 41.15 3.5 40.5 4 40.05 L4.8 39.2 Q5.3 38.7 5.95 38.7 6.7 38.7 7.15 39.15"/>
    <path stroke="none" fill="#C66A3E" d="M0 34 L0 30 Q4.6 29.9 9.05 31.05 12.6 32 16.1 33.8 24.3 38 32 38 36.9 38 42 36.3 44.9 35.35 47.9 33.8 51.4 32 54.95 31.05 L60 30.15 60 34.15 54.95 35.05 Q51.4 36 47.9 37.8 44.9 39.35 42 40.3 36.9 42 32 42 24.3 42 16.1 37.8 12.6 36 9.05 35.05 4.6 33.9 0 34"/>
    <path stroke="none" fill="#EE9366" d="M0 34 Q4.6 33.9 9.05 35.05 12.6 36 16.1 37.8 24.3 42 32 42 36.9 42 42 40.3 44.9 39.35 47.9 37.8 51.4 36 54.95 35.05 L60 34.15 60 46.15 54.95 47.05 Q51.4 48 47.9 49.8 44.9 51.35 42 52.3 36.9 54 32 54 24.3 54 16.1 49.8 12.6 48 9.05 47.05 4.6 45.9 0 46 L0 34 M7.15 39.15 Q6.7 38.7 5.95 38.7 5.3 38.7 4.8 39.2 L4 40.05 Q3.5 40.5 3.5 41.15 3.5 41.9 4 42.35 L4.8 43.2 Q5.3 43.7 6 43.7 6.7 43.7 7.15 43.2 L8 42.4 Q8.5 41.9 8.5 41.2 8.5 40.5 8 40 L7.15 39.15"/>
  </g>
</svg>