<svg width="64" height="64" xmlns="http://www.w3.org/2000/svg" xmlns:xlink="http://www.w3.org/1999/xlink">
  <defs/>
  <g>
    <path stroke="none" fill="#353541" d="M60 0 L64 0 64 64 60 64 60 62 60 48 60 24 60 22 60 8 60 0"/>
    <path stroke="none" fill="#A6B2BB" d="M0 62 L0 48 4 48 Q7.85 48 8 51.75 L8 58.25 Q7.9 61.9 4.25 62 L0 62 M0 24 L0 22 4 22 Q7.85 22 8 18.25 L8 20.25 Q7.85 24 4 24 L0 24 M39.75 0 L48.25 0 Q52 0.15 52 4 L52 12 Q52 15.85 48.25 16 L39.9 16 Q36 15.95 36 12 L36 4 Q36 0.15 39.75 0 M60 22 L60 24 Q56.15 24 56 20.25 L56 18.25 Q56.15 22 60 22 M60 48 L60 62 59.75 62 Q56.1 61.9 56 58.25 L56 51.75 Q56.15 48 60 48 M12 18.25 L12 7.75 Q12.15 4 16 4 L28 4 Q31.85 4 32 7.75 L32 18.25 Q31.85 22 28 22 L16 22 Q12.15 22 12 18.25 M52 45.25 L52 47.25 Q51.85 51 48 51 L36 51 Q32.15 51 32 47.25 L32 45.25 Q32.15 49 36 49 L48 49 Q51.85 49 52 45.25 M7.75 40 Q4.35 39.9 4.05 36.7 L4 36.7 4 32 Q4 28 8 28 L12 28 Q16 28 16 32 L16 36.7 Q15.65 39.9 12.25 40 L7.75 40 M15.75 60 Q12 59.9 12 56 L12 48 Q12 44 16 44 L24 44 Q28 44 28 48 L28 56 Q28 59.9 24.25 60 L15.75 60"/>
    <path stroke="none" fill="#BBC4CB" d="M15.75 60 L24.25 60 Q28 59.9 28 56 L28 48 Q28 44 24 44 L16 44 Q12 44 12 48 L12 56 Q12 59.9 15.75 60 M59.75 64 L4.25 64 Q8 63.9 8 60 L8 58.25 8 51.75 Q7.85 48 4 48 L0 48 0 24 4 24 Q7.85 24 8 20.25 L8 18.25 8 11.75 Q7.85 8 4 8 L0 8 0 0 39.75 0 Q36 0.15 36 4 L36 12 Q36 15.95 39.9 16 L48.25 16 Q52 15.85 52 12 L52 4 Q52 0.15 48.25 0 L60 0 60 8 Q56.15 8 56 11.75 L56 18.25 56 20.25 Q56.15 24 60 24 L60 48 Q56.15 48 56 51.75 L56 58.25 56 60 Q56 63.9 59.75 64 M32 18.25 L32 7.75 Q31.85 4 28 4 L16 4 Q12.15 4 12 7.75 L12 18.25 12 20 Q12 24 16 24 L28 24 Q32 24 32 20 L32 18.25 M52 45.25 L52 34.75 Q51.85 31 48 31 L36 31 Q32.15 31 32 34.75 L32 45.25 32 47.25 Q32.15 51 36 51 L48 51 Q51.85 51 52 47.25 L52 45.25 M7.75 40 L12.25 40 Q15.65 39.9 16 36.7 L16 32 Q16 28 12 28 L8 28 Q4 28 4 32 L4 36.7 4.05 36.7 Q4.35 39.9 7.75 40"/>
    <path stroke="none" fill="#CFD5DA" d="M60 64 L59.75 64 Q56 63.9 56 60 L56 58.25 Q56.1 61.9 59.75 62 L60 62 60 64 M4.25 64 L0 64 0 62 4.25 62 Q7.9 61.9 8 58.25 L8 60 Q8 63.9 4.25 64 M0 22 L0 8 4 8 Q7.85 8 8 11.75 L8 18.25 Q7.85 22 4 22 L0 22 M60 8 L60 22 Q56.15 22 56 18.25 L56 11.75 Q56.15 8 60 8 M32 18.25 L32 20 Q32 24 28 24 L16 24 Q12 24 12 20 L12 18.25 Q12.15 22 16 22 L28 22 Q31.85 22 32 18.25 M32 45.25 L32 34.75 Q32.15 31 36 31 L48 31 Q51.85 31 52 34.75 L52 45.25 Q51.85 49 48 49 L36 49 Q32.15 49 32 45.25"/>
  </g>
</svg>