<svg width="64" height="64" xmlns="http://www.w3.org/2000/svg" xmlns:xlink="http://www.w3.org/1999/xlink">
  <defs/>
  <g>
    <path stroke="none" fill="#BBC4CB" d="M0 6 L0 0 64 0 64 6 Q59.4 5.9 54.95 7.05 51.4 8 47.9 9.8 44.9 11.35 42 12.3 36.9 14 32 14 24.3 14 16.1 9.8 12.6 8 9.05 7.05 4.6 5.9 0 6 M64 22 L64 29 Q59.4 28.9 54.95 30.05 51.4 31 47.9 32.8 44.9 34.35 42 35.3 36.9 37 32 37 24.3 37 16.1 32.8 12.6 31 9.05 30.05 4.6 28.9 0 29 L0 22 Q4.6 21.9 9.05 23.05 12.6 24 16.1 25.8 24.3 30 32 30 36.9 30 42 28.3 44.9 27.35 47.9 25.8 51.4 24 54.95 23.05 59.4 21.9 64 22 M64 46 L64 60 0 60 0 46 Q4.6 45.9 9.05 47.05 12.6 48 16.1 49.8 24.3 54 32 54 36.9 54 42 52.3 44.9 51.35 47.9 49.8 51.4 48 54.95 47.05 59.4 45.9 64 46 M38.8 44.45 L39.65 45.3 Q40.15 45.8 40.15 46.5 40.15 47.2 39.65 47.7 L38.8 48.5 Q38.35 49 37.65 49 36.95 49 36.45 48.5 L35.65 47.65 Q35.15 47.2 35.15 46.45 35.15 45.8 35.65 45.35 L36.45 44.5 Q36.95 44 37.6 44 38.35 44 38.8 44.45 M5.9 8.45 L6.75 9.3 Q7.25 9.8 7.25 10.5 7.25 11.2 6.75 11.7 L5.9 12.5 Q5.45 13 4.75 13 4.05 13 3.55 12.5 L2.75 11.65 Q2.25 11.2 2.25 10.45 2.25 9.8 2.75 9.35 L3.55 8.5 Q4.05 8 4.7 8 5.45 8 5.9 8.45 M13.4 13.45 L14.25 14.3 Q14.75 14.8 14.75 15.5 14.75 16.2 14.25 16.7 L13.4 17.5 Q12.95 18 12.25 18 11.55 18 11.05 17.5 L10.25 16.65 Q9.75 16.2 9.75 15.45 9.75 14.8 10.25 14.35 L11.05 13.5 Q11.55 13 12.2 13 12.95 13 13.4 13.45 M21.15 41.95 L22 42.8 Q22.5 43.3 22.5 44 22.5 44.7 22 45.2 L21.15 46 Q20.7 46.5 20 46.5 19.3 46.5 18.8 46 L18 45.15 Q17.5 44.7 17.5 43.95 17.5 43.3 18 42.85 L18.8 42 Q19.3 41.5 19.95 41.5 20.7 41.5 21.15 41.95 M29.85 44.8 L31.2 46.15 Q32 46.95 32 48.05 32 49.15 31.2 49.95 L29.85 51.3 Q29.15 52 28.05 52 26.95 52 26.15 51.2 L24.8 49.85 Q24.05 49.15 24 48 24.05 46.95 24.8 46.2 L26.15 44.85 Q26.95 44.05 27.95 44 29.15 44.05 29.85 44.8"/>
    <path stroke="none" fill="#A6B2BB" d="M64 6 L64 18 Q59.4 17.9 54.95 19.05 51.4 20 47.9 21.8 44.9 23.35 42 24.3 36.9 26 32 26 24.3 26 16.1 21.8 12.6 20 9.05 19.05 4.6 17.9 0 18 L0 6 Q4.6 5.9 9.05 7.05 12.6 8 16.1 9.8 24.3 14 32 14 36.9 14 42 12.3 44.9 11.35 47.9 9.8 51.4 8 54.95 7.05 59.4 5.9 64 6 M64 29 L64 33 Q59.4 32.9 54.95 34.05 51.4 35 47.9 36.8 44.9 38.35 42 39.3 36.9 41 32 41 24.3 41 16.1 36.8 12.6 35 9.05 34.05 4.6 32.9 0 33 L0 29 Q4.6 28.9 9.05 30.05 12.6 31 16.1 32.8 24.3 37 32 37 36.9 37 42 35.3 44.9 34.35 47.9 32.8 51.4 31 54.95 30.05 59.4 28.9 64 29 M13.4 13.45 Q12.95 13 12.2 13 11.55 13 11.05 13.5 L10.25 14.35 Q9.75 14.8 9.75 15.45 9.75 16.2 10.25 16.65 L11.05 17.5 Q11.55 18 12.25 18 12.95 18 13.4 17.5 L14.25 16.7 Q14.75 16.2 14.75 15.5 14.75 14.8 14.25 14.3 L13.4 13.45 M5.9 8.45 Q5.45 8 4.7 8 4.05 8 3.55 8.5 L2.75 9.35 Q2.25 9.8 2.25 10.45 2.25 11.2 2.75 11.65 L3.55 12.5 Q4.05 13 4.75 13 5.45 13 5.9 12.5 L6.75 11.7 Q7.25 11.2 7.25 10.5 7.25 9.8 6.75 9.3 L5.9 8.45"/>
    <path stroke="none" fill="#CFD5DA" d="M64 18 L64 22 Q59.4 21.9 54.95 23.05 51.4 24 47.9 25.8 44.9 27.35 42 28.3 36.9 30 32 30 24.3 30 16.1 25.8 12.6 24 9.05 23.05 4.6 21.9 0 22 L0 18 Q4.6 17.9 9.05 19.05 12.6 20 16.1 21.8 24.3 26 32 26 36.9 26 42 24.3 44.9 23.35 47.9 21.8 51.4 20 54.95 19.05 59.4 17.9 64 18 M64 33 L64 46 Q59.4 45.9 54.95 47.05 51.4 48 47.9 49.8 44.9 51.35 42 52.3 36.9 54 32 54 24.3 54 16.1 49.8 12.6 48 9.05 47.05 4.6 45.9 0 46 L0 33 Q4.6 32.9 9.05 34.05 12.6 35 16.1 36.8 24.3 41 32 41 36.9 41 42 39.3 44.9 38.35 47.9 36.8 51.4 35 54.95 34.05 59.4 32.9 64 33 M38.8 44.45 Q38.35 44 37.6 44 36.95 44 36.45 44.5 L35.65 45.35 Q35.15 45.8 35.15 46.45 35.15 47.2 35.65 47.65 L36.45 48.5 Q36.95 49 37.65 49 38.35 49 38.8 48.5 L39.65 47.7 Q40.15 47.2 40.15 46.5 40.15 45.8 39.65 45.3 L38.8 44.45 M29.85 44.8 Q29.15 44.05 27.95 44 26.95 44.05 26.15 44.85 L24.8 46.2 Q24.05 46.95 24 48 24.05 49.15 24.8 49.85 L26.15 51.2 Q26.95 52 28.05 52 29.15 52 29.85 51.3 L31.2 49.95 Q32 49.15 32 48.05 32 46.95 31.2 46.15 L29.85 44.8 M21.15 41.95 Q20.7 41.5 19.95 41.5 19.3 41.5 18.8 42 L18 42.85 Q17.5 43.3 17.5 43.95 17.5 44.7 18 45.15 L18.8 46 Q19.3 46.5 20 46.5 20.7 46.5 21.15 46 L22 45.2 Q22.5 44.7 22.5 44 22.5 43.3 22 42.8 L21.15 41.95"/>
    <path stroke="none" fill="#353541" d="M64 60 L64 64 0 64 0 60 64 60"/>
  </g>
</svg>