<svg width="64" height="64" xmlns="http://www.w3.org/2000/svg" xmlns:xlink="http://www.w3.org/1999/xlink">
  <defs/>
  <g>
    <path stroke="none" fill="#353541" d="M60 0 L64 0 64 4 60 0"/>
    <path stroke="none" fill="#BA6BE9" d="M64 8 L64 18 46 0 56 0 64 8"/>
    <path stroke="none" fill="#A452D4" d="M64 18 L64 22 60.6 18.6 53.75 11.75 42 0 46 0 64 18"/>
    <path stroke="none" fill="#D699FA" d="M60 0 L64 4 64 8 56 0 60 0"/>
    <path stroke="none" fill="#BBC4CB" d="M64 22 L64 29 Q61.7 28.9 59.5 30.05 57.7 31 55.95 32.8 L53 35.3 Q50.45 37 48 37 44.15 37 40.05 32.8 38.3 31 36.55 30.05 36.2 29.85 35.85 29.75 33.95 28.9 32 29 29.7 28.9 27.5 30.05 25.7 31 23.95 32.8 L21 35.3 Q18.45 37 16 37 12.15 37 8.05 32.8 6.3 31 4.55 30.05 2.3 28.9 0 29 L0 22 Q2.3 21.9 4.55 23.05 6.3 24 8.05 25.8 12.15 30 16 30 18.45 30 21 28.3 L23.95 25.8 Q25.7 24 27.5 23.05 29.7 21.9 32 22 33.95 21.9 35.85 22.75 36.2 22.85 36.55 23.05 38.3 24 40.05 25.8 44.15 30 48 30 50.45 30 53 28.3 L55.95 25.8 Q57.7 24 59.5 23.05 61.7 21.9 64 22 M64 51 L64 64 0 64 0 51 Q2.3 50.9 4.55 52.05 6.3 53 8.05 54.8 12.15 59 16 59 18.45 59 21 57.3 L23.95 54.8 Q25.7 53 27.5 52.05 29.7 50.9 32 51 33.95 50.9 35.85 51.75 36.2 51.85 36.55 52.05 38.3 53 40.05 54.8 44.15 59 48 59 50.45 59 53 57.3 L55.95 54.8 Q57.7 53 59.5 52.05 61.7 50.9 64 51 M0 6 L0 0 42 0 53.75 11.75 53 12.3 Q50.45 14 48 14 44.15 14 40.05 9.8 38.3 8 36.55 7.05 36.2 6.85 35.85 6.75 33.95 5.9 32 6 29.7 5.9 27.5 7.05 25.7 8 23.95 9.8 L21 12.3 Q18.45 14 16 14 12.15 14 8.05 9.8 6.3 8 4.55 7.05 2.3 5.9 0 6"/>
    <path stroke="none" fill="#A6B2BB" d="M0 6 Q2.3 5.9 4.55 7.05 6.3 8 8.05 9.8 12.15 14 16 14 18.45 14 21 12.3 L23.95 9.8 Q25.7 8 27.5 7.05 29.7 5.9 32 6 33.95 5.9 35.85 6.75 36.2 6.85 36.55 7.05 38.3 8 40.05 9.8 44.15 14 48 14 50.45 14 53 12.3 L53.75 11.75 60.6 18.6 Q60.05 18.75 59.5 19.05 57.7 20 55.95 21.8 L53 24.3 Q50.45 26 48 26 44.15 26 40.05 21.8 38.3 20 36.55 19.05 36.2 18.85 35.85 18.75 33.95 17.9 32 18 29.7 17.9 27.5 19.05 25.7 20 23.95 21.8 L21 24.3 Q18.45 26 16 26 12.15 26 8.05 21.8 6.3 20 4.55 19.05 2.3 17.9 0 18 L0 6 M64 29 L64 33 Q61.7 32.9 59.5 34.05 57.7 35 55.95 36.8 L53 39.3 Q50.45 41 48 41 44.15 41 40.05 36.8 38.3 35 36.55 34.05 36.2 33.85 35.85 33.75 33.95 32.9 32 33 29.7 32.9 27.5 34.05 25.7 35 23.95 36.8 L21 39.3 Q18.45 41 16 41 12.15 41 8.05 36.8 6.3 35 4.55 34.05 2.3 32.9 0 33 L0 29 Q2.3 28.9 4.55 30.05 6.3 31 8.05 32.8 12.15 37 16 37 18.45 37 21 35.3 L23.95 32.8 Q25.7 31 27.5 30.05 29.7 28.9 32 29 33.95 28.9 35.85 29.75 36.2 29.85 36.55 30.05 38.3 31 40.05 32.8 44.15 37 48 37 50.45 37 53 35.3 L55.95 32.8 Q57.7 31 59.5 30.05 61.7 28.9 64 29"/>
    <path stroke="none" fill="#CFD5DA" d="M64 33 L64 51 Q61.7 50.9 59.5 52.05 57.7 53 55.95 54.8 L53 57.3 Q50.45 59 48 59 44.15 59 40.05 54.8 38.3 53 36.55 52.05 36.2 51.85 35.85 51.75 33.95 50.9 32 51 29.7 50.9 27.5 52.05 25.7 53 23.95 54.8 L21 57.3 Q18.45 59 16 59 12.15 59 8.05 54.8 6.3 53 4.55 52.05 2.3 50.9 0 51 L0 33 Q2.3 32.9 4.55 34.05 6.3 35 8.05 36.8 12.15 41 16 41 18.45 41 21 39.3 L23.95 36.8 Q25.7 35 27.5 34.05 29.7 32.9 32 33 33.95 32.9 35.85 33.75 36.2 33.85 36.55 34.05 38.3 35 40.05 36.8 44.15 41 48 41 50.45 41 53 39.3 L55.95 36.8 Q57.7 35 59.5 34.05 61.7 32.9 64 33 M0 22 L0 18 Q2.3 17.9 4.55 19.05 6.3 20 8.05 21.8 12.15 26 16 26 18.45 26 21 24.3 L23.95 21.8 Q25.7 20 27.5 19.05 29.7 17.9 32 18 33.95 17.9 35.85 18.75 36.2 18.85 36.55 19.05 38.3 20 40.05 21.8 44.15 26 48 26 50.45 26 53 24.3 L55.95 21.8 Q57.7 20 59.5 19.05 60.05 18.75 60.6 18.6 L64 22 Q61.7 21.9 59.5 23.05 57.7 24 55.95 25.8 L53 28.3 Q50.45 30 48 30 44.15 30 40.05 25.8 38.3 24 36.55 23.05 36.2 22.85 35.85 22.75 33.95 21.9 32 22 29.7 21.9 27.5 23.05 25.7 24 23.95 25.8 L21 28.3 Q18.45 30 16 30 12.15 30 8.05 25.8 6.3 24 4.55 23.05 2.3 21.9 0 22"/>
  </g>
</svg>