<svg width="64" height="64" xmlns="http://www.w3.org/2000/svg" xmlns:xlink="http://www.w3.org/1999/xlink">
  <defs/>
  <g>
    <path stroke="none" fill="#C66A3E" d="M64 10.9 L64 20.9 Q62.15 20.85 60.45 20 L48 13.8 35.6 20 Q33.9 20.85 32 20.85 30.1 20.85 28.45 20 L16 13.8 3.6 20 Q1.85 20.85 0 20.9 L0 10.9 12.45 4.65 Q14.1 3.8 16 3.8 17.9 3.8 19.6 4.65 L32 10.9 44.45 4.65 Q46.1 3.8 48 3.8 49.9 3.8 51.6 4.65 L64 10.9 M64 36 L64 40 51.6 33.75 Q49.9 32.9 48 32.9 46.1 32.9 44.45 33.75 L32 40 19.6 33.75 Q17.9 32.9 16 32.9 14.1 32.9 12.45 33.75 L0 40 0 36 12.45 29.75 Q14.1 28.9 16 28.9 17.9 28.9 19.6 29.75 L32 36 44.45 29.75 Q46.1 28.9 48 28.9 49.9 28.9 51.6 29.75 L64 36"/>
    <path stroke="none" fill="#DE7E4F" d="M64 36 L51.6 29.75 Q49.9 28.9 48 28.9 46.1 28.9 44.45 29.75 L32 36 19.6 29.75 Q17.9 28.9 16 28.9 14.1 28.9 12.45 29.75 L0 36 0 24.9 Q1.85 24.85 3.6 24 L16 17.8 28.45 24 Q30.1 24.85 32 24.85 33.9 24.85 35.6 24 L48 17.8 60.45 24 Q62.15 24.85 64 24.9 L64 36 M64 10.9 L51.6 4.65 Q49.9 3.8 48 3.8 46.1 3.8 44.45 4.65 L32 10.9 19.6 4.65 Q17.9 3.8 16 3.8 14.1 3.8 12.45 4.65 L0 10.9 0 0 64 0 64 10.9 M64 60 L64 64 0 64 0 60 Q1.85 59.95 3.6 59.1 L16 52.9 28.45 59.1 Q30.1 59.95 32 59.95 33.9 59.95 35.6 59.1 L48 52.9 60.45 59.1 Q62.15 59.95 64 60"/>
    <path stroke="none" fill="#EE9366" d="M64 60 Q62.15 59.95 60.45 59.1 L48 52.9 35.6 59.1 Q33.9 59.95 32 59.95 30.1 59.95 28.45 59.1 L16 52.9 3.6 59.1 Q1.85 59.95 0 60 L0 40 12.45 33.75 Q14.1 32.9 16 32.9 17.9 32.9 19.6 33.75 L32 40 44.45 33.75 Q46.1 32.9 48 32.9 49.9 32.9 51.6 33.75 L64 40 64 60 M0 20.9 Q1.85 20.85 3.6 20 L16 13.8 28.45 20 Q30.1 20.85 32 20.85 33.9 20.85 35.6 20 L48 13.8 60.45 20 Q62.15 20.85 64 20.9 L64 24.9 Q62.15 24.85 60.45 24 L48 17.8 35.6 24 Q33.9 24.85 32 24.85 30.1 24.85 28.45 24 L16 17.8 3.6 24 Q1.85 24.85 0 24.9 L0 20.9"/>
    <path stroke="none" fill="#C66A3E" d="M49.4 56.45 L50.25 57.3 Q50.75 57.8 50.75 58.5 50.75 59.2 50.25 59.7 L49.4 60.5 Q48.95 61 48.25 61 47.55 61 47.05 60.5 L46.25 59.65 Q45.75 59.2 45.75 58.45 45.75 57.8 46.25 57.35 L47.05 56.5 Q47.55 56 48.2 56 48.95 56 49.4 56.45"/>
    <path stroke="none" fill="#C66A3E" d="M49.65 22.45 L50.5 23.3 Q51 23.8 51 24.5 51 25.2 50.5 25.7 L49.65 26.5 Q49.2 27 48.5 27 47.8 27 47.3 26.5 L46.5 25.65 Q46 25.2 46 24.45 46 23.8 46.5 23.35 L47.3 22.5 Q47.8 22 48.45 22 49.2 22 49.65 22.45"/>
    <path stroke="none" fill="#DE7E4F" d="M10.65 9.45 L11.5 10.3 Q12 10.8 12 11.5 12 12.2 11.5 12.7 L10.65 13.5 Q10.2 14 9.5 14 8.8 14 8.3 13.5 L7.5 12.65 Q7 12.2 7 11.45 7 10.8 7.5 10.35 L8.3 9.5 Q8.8 9 9.45 9 10.2 9 10.65 9.45"/>
    <path stroke="none" fill="#353541" d="M4 49 L4 55.65 2.05 54.2 Q-0.2 52.35 0 47.8 L0 20 0 19.9 Q0.1 16.65 1.15 14.35 L1.2 14.35 Q3.7 8.25 11.85 8 L12 8 52 8 52.15 8 Q60.3 8.25 62.8 14.35 L62.85 14.35 Q63.9 16.65 64 19.9 L64 20 64 47.8 Q64.2 52.35 61.95 54.2 L60 55.65 60 49 60 48 60 44 60 40 60 34 60 30 60 24 60 20 Q59.9 17.65 59.2 16 57.4 12.15 52 12 L12 12 Q6.6 12.15 4.8 16 4.1 17.65 4 20 L4 24 4 30 4 34 4 40 4 44 4 48 4 49"/>
    <path stroke="none" fill="#46E087" d="M4 24 L4 20 Q4.1 17.65 4.8 16 6.6 12.15 12 12 L52 12 Q57.4 12.15 59.2 16 59.9 17.65 60 20 L60 24 Q59.75 16.25 52 16 L12 16 Q4.25 16.25 4 24"/>
    <path stroke="none" fill="#2ECC71" d="M4 24 Q4.25 16.25 12 16 L52 16 Q59.75 16.25 60 24 L60 30 48 24 32 32 16 24 4 30 4 24"/>
    <path stroke="none" fill="#20B860" d="M4 34 L4 30 16 24 32 32 48 24 60 30 60 34 48 28 32 36 16 28 4 34"/>
    <path stroke="none" fill="#EE9366" d="M4 49 L4 48 4 44 12.4 39.75 Q14.1 38.9 16 38.9 17.9 38.9 19.55 39.75 L28.25 44.15 28.25 44.1 29.65 44.85 32 46 44.45 39.75 Q46.1 38.9 48 38.9 49.9 38.9 51.6 39.75 L60 44 60 48 60 49 Q59.8 52.6 56 51.95 L51.6 49.75 Q49.9 48.9 48 48.9 46.1 48.9 44.45 49.75 L32 56 29.65 54.85 28.25 54.1 28.25 54.15 19.55 49.75 Q17.9 48.9 16 48.9 14.1 48.9 12.4 49.75 L8 51.95 Q4.2 52.6 4 49"/>
    <path stroke="none" fill="#C66A3E" d="M4 44 L4 40 12.4 35.75 Q14.1 34.9 16 34.9 17.9 34.9 19.55 35.75 L28.25 40.15 28.25 40.1 29.65 40.85 32 42 44.45 35.75 Q46.1 34.9 48 34.9 49.9 34.9 51.6 35.75 L60 40 60 44 51.6 39.75 Q49.9 38.9 48 38.9 46.1 38.9 44.45 39.75 L32 46 29.65 44.85 28.25 44.1 28.25 44.15 19.55 39.75 Q17.9 38.9 16 38.9 14.1 38.9 12.4 39.75 L4 44"/>
    <path stroke="none" fill="#DE7E4F" d="M4 40 L4 34 16 28 32 36 48 28 60 34 60 40 51.6 35.75 Q49.9 34.9 48 34.9 46.1 34.9 44.45 35.75 L32 42 29.65 40.85 28.25 40.1 28.25 40.15 19.55 35.75 Q17.9 34.9 16 34.9 14.1 34.9 12.4 35.75 L4 40"/>
    <path stroke="none" fill="#DE7E4F" d="M17.65 42.2 L18.5 43.05 Q19 43.55 19 44.25 19 44.95 18.5 45.45 L17.65 46.25 Q17.2 46.75 16.5 46.75 15.8 46.75 15.3 46.25 L14.5 45.4 Q14 44.95 14 44.2 14 43.55 14.5 43.1 L15.3 42.25 Q15.8 41.75 16.45 41.75 17.2 41.75 17.65 42.2"/>
    <path stroke="none" fill="#20B860" d="M29.55 21.6 L30.4 22.45 Q30.9 22.95 30.9 23.65 30.9 24.35 30.4 24.85 L29.55 25.65 Q29.1 26.15 28.4 26.15 27.7 26.15 27.2 25.65 L26.4 24.8 Q25.9 24.35 25.9 23.6 25.9 22.95 26.4 22.5 L27.2 21.65 Q27.7 21.15 28.35 21.15 29.1 21.15 29.55 21.6"/>
    <path stroke="none" fill="#46E087" d="M39.05 18.95 L40.4 20.3 Q41.2 21.1 41.2 22.2 41.2 23.3 40.4 24.1 L39.05 25.45 Q38.35 26.15 37.25 26.15 36.15 26.15 35.35 25.35 L34 24 Q33.25 23.3 33.2 22.15 33.25 21.1 34 20.35 L35.35 19 Q36.15 18.2 37.15 18.15 38.35 18.2 39.05 18.95"/>
  </g>
</svg>