<svg width="64" height="64" xmlns="http://www.w3.org/2000/svg" xmlns:xlink="http://www.w3.org/1999/xlink">
  <defs/>
  <g>
    <path stroke="none" fill="#353541" d="M24 24 L40 24 Q47.05 24 47.9 30.2 52 33.1 52 40 L52 48 Q52 60 40 60 39.5 61.4 38.3 62.5 L38.15 62.65 Q36.5 64 34.3 64 L29.7 64 Q27.5 64 25.9 62.65 L25.7 62.5 Q24.5 61.4 24.05 60 L24 60 Q12 60 12 48 L12 40 Q12 33.1 16.15 30.2 16.95 24 24 24"/>
    <path stroke="none" fill="#DE7E4F" d="M24 32 L40 32 Q48 32 48 40 L48 48 Q48 56 40 56 L24 56 Q16 56 16 48 L16 40 Q16 32 24 32"/>
    <path stroke="none" fill="#92A1AD" d="M27.75 58.35 L24.4 38.35 Q24.3 37.75 24.55 37.2 24.8 36.65 25.3 36.35 25.8 36 26.4 36 L37.65 36 Q38.2 36 38.75 36.35 L39.45 37.2 Q39.7 37.75 39.6 38.35 L36.3 58.35 Q36.15 59.05 35.6 59.55 35.05 60 34.3 60 L29.7 60 Q28.95 60 28.4 59.55 27.85 59.05 27.75 58.35"/>
    <path stroke="none" fill="#E8EBEE" d="M20 35.75 L20 32 Q20 28 24 28 L40 28 Q44 28 44 32 L44 35.75 Q43.85 32 40 32 L24 32 Q20.15 32 20 35.75"/>
    <path stroke="none" fill="#BBC4CB" d="M20 35.75 Q20.15 32 24 32 L40 32 Q43.85 32 44 35.75 L44 36.25 Q43.85 40 40 40 L24 40 Q20.15 40 20 36.25 L20 35.75"/>
    <path stroke="none" fill="#BBC4CB" d="M24 44 L40 44 Q41.65 44 42.8 45.15 44 46.35 44 48 44 49.65 42.8 50.8 41.65 52 40 52 L24 52 Q22.35 52 21.15 50.8 20 49.65 20 48 20 46.35 21.15 45.15 22.35 44 24 44"/>
  </g>
</svg>