<svg width="64" height="64" xmlns="http://www.w3.org/2000/svg" xmlns:xlink="http://www.w3.org/1999/xlink">
  <defs/>
  <g>
    <path stroke="none" fill="#82CEFF" d="M64 51.9 L64 64 0 64 0 51.9 Q17.1 59.85 32.1 52.35 49.1 43.85 64 51.9"/>
    <path stroke="none" fill="#353541" d="M64 39.9 Q49.1 31.85 32.1 40.35 17.1 47.85 0 39.9 L0 35.9 Q17.1 43.85 32.1 36.35 49.1 27.85 64 35.9 L64 39.9"/>
    <path stroke="none" fill="#5BAEE7" d="M0 47.9 Q17.1 55.85 32.1 48.35 49.1 39.85 64 47.9 L64 51.9 Q49.1 43.85 32.1 52.35 17.1 59.85 0 51.9 L0 47.9"/>
    <path stroke="none" fill="#E9EDFF" d="M0 47.9 L0 39.9 Q17.1 47.85 32.1 40.35 49.1 31.85 64 39.9 L64 47.9 Q49.1 39.85 32.1 48.35 17.1 55.85 0 47.9"/>
  </g>
</svg>