<svg width="64" height="64" xmlns="http://www.w3.org/2000/svg" xmlns:xlink="http://www.w3.org/1999/xlink">
  <defs/>
  <g>
    <path stroke="none" fill="#5BAEE7" d="M64 7.1 L64 20.1 Q46.9 12.15 31.9 19.65 14.9 28.15 0 20.1 L0 7.1 Q14.9 15.15 31.9 6.65 46.9 -0.85 64 7.1 M64 41.1 L64 57.1 Q46.9 49.15 31.9 56.65 14.9 65.15 0 57.1 L0 41.1 Q14.9 49.15 31.9 40.65 46.9 33.15 64 41.1"/>
    <path stroke="none" fill="#82CEFF" d="M64 41.1 Q46.9 33.15 31.9 40.65 14.9 49.15 0 41.1 L0 37.1 Q14.9 45.15 31.9 36.65 46.9 29.15 64 37.1 L64 41.1 M0 7.1 L0 0 64 0 64 7.1 Q46.9 -0.85 31.9 6.65 14.9 15.15 0 7.1 M64 20.1 L64 29.1 Q46.9 21.15 31.9 28.65 14.9 37.15 0 29.1 L0 20.1 Q14.9 28.15 31.9 19.65 46.9 12.15 64 20.1 M64 57.1 L64 64 0 64 0 57.1 Q14.9 65.15 31.9 56.65 46.9 49.15 64 57.1"/>
    <path stroke="none" fill="#B4DFFF" d="M64 29.1 L64 37.1 Q46.9 29.15 31.9 36.65 14.9 45.15 0 37.1 L0 29.1 Q14.9 37.15 31.9 28.65 46.9 21.15 64 29.1"/>
  </g>
</svg>