<svg width="64" height="64" xmlns="http://www.w3.org/2000/svg" xmlns:xlink="http://www.w3.org/1999/xlink">
  <defs/>
  <g>
    <path stroke="none" fill="#E9EDFF" d="M64 7.9 L64 15.9 Q49.1 7.85 32.1 16.35 17.1 23.85 0 15.9 L0 7.9 Q17.1 15.85 32.1 8.35 49.1 -0.15 64 7.9"/>
    <path stroke="none" fill="#82CEFF" d="M64 19.9 L64 25.9 Q49.1 17.85 32.1 26.35 17.1 33.85 0 25.9 L0 19.9 Q17.1 27.85 32.1 20.35 49.1 11.85 64 19.9 M64 41.9 L64 47.9 Q49.1 39.85 32.1 48.35 17.1 55.85 0 47.9 L0 41.9 Q17.1 49.85 32.1 42.35 49.1 33.85 64 41.9 M64 55.9 L64 64 0 64 0 55.9 Q17.1 63.85 32.1 56.35 49.1 47.85 64 55.9"/>
    <path stroke="none" fill="#5BAEE7" d="M0 15.9 Q17.1 23.85 32.1 16.35 49.1 7.85 64 15.9 L64 19.9 Q49.1 11.85 32.1 20.35 17.1 27.85 0 19.9 L0 15.9"/>
    <path stroke="none" fill="#B4DFFF" d="M64 25.9 L64 41.9 Q49.1 33.85 32.1 42.35 17.1 49.85 0 41.9 L0 25.9 Q17.1 33.85 32.1 26.35 49.1 17.85 64 25.9 M64 47.9 L64 55.9 Q49.1 47.85 32.1 56.35 17.1 63.85 0 55.9 L0 47.9 Q17.1 55.85 32.1 48.35 49.1 39.85 64 47.9"/>
    <path stroke="none" fill="#353541" d="M64 7.9 Q49.1 -0.15 32.1 8.35 17.1 15.85 0 7.9 L0 3.9 Q17.1 11.85 32.1 4.35 49.1 -4.15 64 3.9 L64 7.9"/>
  </g>
</svg>