<svg width="64" height="64" xmlns="http://www.w3.org/2000/svg" xmlns:xlink="http://www.w3.org/1999/xlink">
  <defs/>
  <g>
    <path stroke="none" fill="#353541" d="M60 35.2 L60 31.3 60 31.2 Q59.7 20.1 51.8 12.2 48.2 8.6 44 6.6 38.55 4 32.05 4 L32 4 Q25.45 4 20 6.6 15.8 8.6 12.2 12.2 8.5 15.9 6.45 20.35 4.15 25.35 4 31.35 L4 35.35 4 56.1 Q4.05 57.7 5.2 58.85 6.35 60 8 60 L56 60 Q57.65 60 58.85 58.85 59.95 57.7 60 56.1 L60 35.2 M56.2 64 L7.8 64 Q4.6 63.9 2.35 61.65 0 59.3 0 56 L0 31.5 0 31.3 0 31.25 Q0.2 24.4 2.85 18.7 5.15 13.6 9.4 9.4 13.5 5.25 18.3 3 20.05 2.15 21.9 1.55 26.6 0 32 0 L32.05 0 Q37.4 0 42.1 1.55 43.95 2.15 45.75 3 50.5 5.25 54.65 9.4 63.65 18.45 64 31.1 L64 31.15 64 31.3 64 56 Q64 59.3 61.65 61.65 59.4 63.9 56.2 64 M14 35.4 L14 31.65 Q14.1 24.5 19.25 19.3 L19.6 19 Q21.55 17.1 23.9 15.9 24.3 15.55 24.75 15.5 28.1 14 32 14 35.9 14 39.3 15.5 L40.15 15.9 Q42.6 17.15 44.7 19.25 L44.75 19.25 44.8 19.3 Q49.9 24.5 50 31.65 L50 35.4 Q49.8 28.4 44.8 23.3 L44.75 23.25 44.7 23.25 Q42.6 21.15 40.15 19.9 L39.3 19.5 Q35.9 18 32 18 28.1 18 24.75 19.5 24.3 19.55 23.9 19.9 21.55 21.1 19.6 23 L19.25 23.3 Q14.2 28.4 14 35.4"/>
    <path stroke="none" fill="#E8EBEE" d="M4 35.35 L4 31.35 Q4.15 25.35 6.45 20.35 8.5 15.9 12.2 12.2 15.8 8.6 20 6.6 25.45 4 32 4 L32.05 4 Q38.55 4 44 6.6 48.2 8.6 51.8 12.2 59.7 20.1 60 31.2 L60 31.3 60 35.2 Q59.7 24.1 51.8 16.2 48.2 12.6 44 10.6 38.55 8 32.05 8 L32 8 Q25.45 8 20 10.6 15.8 12.6 12.2 16.2 8.5 19.9 6.45 24.35 4.15 29.35 4 35.35"/>
    <path stroke="none" fill="#BBC4CB" d="M4 35.35 Q4.15 29.35 6.45 24.35 8.5 19.9 12.2 16.2 15.8 12.6 20 10.6 25.45 8 32 8 L32.05 8 Q38.55 8 44 10.6 48.2 12.6 51.8 16.2 59.7 24.1 60 35.2 L60 56.1 Q59.95 57.7 58.85 58.85 57.65 60 56 60 L8 60 Q6.35 60 5.2 58.85 4.05 57.7 4 56.1 L4 35.35 M50 35.4 L50 31.65 Q49.9 24.5 44.8 19.3 L44.75 19.25 44.7 19.25 Q42.6 17.15 40.15 15.9 L39.3 15.5 Q35.9 14 32 14 28.1 14 24.75 15.5 24.3 15.55 23.9 15.9 21.55 17.1 19.6 19 L19.25 19.3 Q14.1 24.5 14 31.65 L14 35.4 14 50 50 50 50 35.4"/>
    <path stroke="none" fill="#474758" d="M50 35.4 L50 50 14 50 14 35.4 Q14.2 28.4 19.25 23.3 L19.6 23 Q21.55 21.1 23.9 19.9 24.3 19.55 24.75 19.5 28.1 18 32 18 35.9 18 39.3 19.5 L40.15 19.9 Q42.6 21.15 44.7 23.25 L44.75 23.25 44.8 23.3 Q49.8 28.4 50 35.4"/>
  </g>
</svg>